{
	"patcher" : 	{
		"fileversion" : 1,
		"rect" : [ 318.0, 336.0, 1296.0, 578.0 ],
		"bglocked" : 0,
		"defrect" : [ 318.0, 336.0, 1296.0, 578.0 ],
		"openrect" : [ 0.0, 0.0, 0.0, 0.0 ],
		"openinpresentation" : 1,
		"default_fontsize" : 10.0,
		"default_fontface" : 0,
		"default_fontname" : "Arial",
		"gridonopen" : 0,
		"gridsize" : [ 2.0, 2.0 ],
		"gridsnaponopen" : 0,
		"toolbarvisible" : 1,
		"boxanimatetime" : 200,
		"imprint" : 0,
		"enablehscroll" : 1,
		"enablevscroll" : 1,
		"devicewidth" : 0.0,
		"boxes" : [ 			{
				"box" : 				{
					"maxclass" : "outlet",
					"patching_rect" : [ 382.0, 356.0, 25.0, 25.0 ],
					"numinlets" : 1,
					"numoutlets" : 0,
					"id" : "obj-14",
					"comment" : ""
				}

			}
, 			{
				"box" : 				{
					"maxclass" : "comment",
					"text" : "arg1: number of sliders\narg2: type of subbeat (one, beat, etc)",
					"linecount" : 2,
					"patching_rect" : [ 630.0, 350.0, 328.0, 29.0 ],
					"frgb" : [ 0.0, 0.0, 0.0, 1.0 ],
					"fontsize" : 10.0,
					"numinlets" : 1,
					"numoutlets" : 0,
					"id" : "obj-13",
					"fontname" : "Arial"
				}

			}
, 			{
				"box" : 				{
					"maxclass" : "inlet",
					"patching_rect" : [ 612.0, 88.0, 25.0, 25.0 ],
					"numinlets" : 0,
					"numoutlets" : 1,
					"outlettype" : [ "" ],
					"id" : "obj-6",
					"comment" : ""
				}

			}
, 			{
				"box" : 				{
					"maxclass" : "newobj",
					"varname" : "u414010205",
					"text" : "autopattr @autoname 0 @autorestore 0",
					"patching_rect" : [ 640.0, 268.0, 188.0, 18.0 ],
					"fontsize" : 10.0,
					"numinlets" : 1,
					"numoutlets" : 4,
					"outlettype" : [ "", "", "", "" ],
					"id" : "obj-2",
					"fontname" : "Arial",
					"restore" : 					{
						"main_onoff_state" : [ 0 ],
						"main_res" : [ 20 ],
						"main_timbre" : [ 0 ],
						"mute-state" : [ 0 ],
						"seq_gate" : [ 0 ],
						"seq_timbre" : [ 0 ]
					}

				}

			}
, 			{
				"box" : 				{
					"maxclass" : "comment",
					"text" : "this patch is a demo patch, for the most part.  the reason for this being that the number of sliders > 64 will break the visual display alignment of the leading-zero numbers.",
					"linecount" : 3,
					"patching_rect" : [ 630.0, 308.0, 328.0, 41.0 ],
					"frgb" : [ 0.0, 0.0, 0.0, 1.0 ],
					"fontsize" : 10.0,
					"numinlets" : 1,
					"numoutlets" : 0,
					"id" : "obj-16",
					"fontname" : "Arial"
				}

			}
, 			{
				"box" : 				{
					"maxclass" : "newobj",
					"text" : "loadmess #1",
					"patching_rect" : [ 394.0, 20.0, 67.0, 18.0 ],
					"fontsize" : 10.0,
					"numinlets" : 1,
					"numoutlets" : 1,
					"outlettype" : [ "" ],
					"id" : "obj-12",
					"fontname" : "Arial"
				}

			}
, 			{
				"box" : 				{
					"maxclass" : "message",
					"text" : "size $1, bang",
					"patching_rect" : [ 408.0, 100.0, 68.0, 16.0 ],
					"fontsize" : 10.0,
					"numinlets" : 2,
					"numoutlets" : 1,
					"outlettype" : [ "" ],
					"id" : "obj-10",
					"fontname" : "Arial"
				}

			}
, 			{
				"box" : 				{
					"maxclass" : "newobj",
					"text" : "t i i",
					"patching_rect" : [ 394.0, 44.0, 32.5, 18.0 ],
					"fontsize" : 10.0,
					"numinlets" : 1,
					"numoutlets" : 2,
					"outlettype" : [ "int", "int" ],
					"id" : "obj-4",
					"fontname" : "Arial"
				}

			}
, 			{
				"box" : 				{
					"maxclass" : "newobj",
					"text" : "r glob_polyvocstate",
					"patching_rect" : [ 142.0, 80.0, 114.0, 20.0 ],
					"fontsize" : 12.0,
					"numinlets" : 0,
					"numoutlets" : 1,
					"outlettype" : [ "" ],
					"id" : "obj-9",
					"fontname" : "Arial"
				}

			}
, 			{
				"box" : 				{
					"maxclass" : "newobj",
					"text" : "r glob_polyres",
					"patching_rect" : [ 610.0, 164.0, 86.0, 20.0 ],
					"fontsize" : 12.0,
					"numinlets" : 0,
					"numoutlets" : 1,
					"outlettype" : [ "" ],
					"id" : "obj-8",
					"fontname" : "Arial"
				}

			}
, 			{
				"box" : 				{
					"maxclass" : "newobj",
					"text" : "r glob_polytimbre",
					"patching_rect" : [ 492.0, 56.0, 103.0, 20.0 ],
					"fontsize" : 12.0,
					"numinlets" : 0,
					"numoutlets" : 1,
					"outlettype" : [ "" ],
					"id" : "obj-7",
					"fontname" : "Arial"
				}

			}
, 			{
				"box" : 				{
					"maxclass" : "newobj",
					"text" : "r glob_polymute",
					"patching_rect" : [ 14.0, 152.0, 96.0, 20.0 ],
					"fontsize" : 12.0,
					"numinlets" : 0,
					"numoutlets" : 1,
					"outlettype" : [ "" ],
					"id" : "obj-5",
					"fontname" : "Arial"
				}

			}
, 			{
				"box" : 				{
					"maxclass" : "newobj",
					"text" : "p format_tabs",
					"patching_rect" : [ 434.0, 272.0, 72.0, 18.0 ],
					"fontsize" : 10.0,
					"numinlets" : 1,
					"numoutlets" : 1,
					"outlettype" : [ "" ],
					"id" : "obj-11",
					"fontname" : "Arial",
					"patcher" : 					{
						"fileversion" : 1,
						"rect" : [ 25.0, 69.0, 332.0, 353.0 ],
						"bglocked" : 0,
						"defrect" : [ 25.0, 69.0, 332.0, 353.0 ],
						"openrect" : [ 0.0, 0.0, 0.0, 0.0 ],
						"openinpresentation" : 0,
						"default_fontsize" : 10.0,
						"default_fontface" : 0,
						"default_fontname" : "Arial",
						"gridonopen" : 0,
						"gridsize" : [ 4.0, 4.0 ],
						"gridsnaponopen" : 0,
						"toolbarvisible" : 1,
						"boxanimatetime" : 200,
						"imprint" : 0,
						"enablehscroll" : 1,
						"enablevscroll" : 1,
						"devicewidth" : 0.0,
						"boxes" : [ 							{
								"box" : 								{
									"maxclass" : "newobj",
									"text" : "prepend tabs",
									"patching_rect" : [ 50.0, 212.0, 69.0, 18.0 ],
									"fontsize" : 10.0,
									"numinlets" : 1,
									"numoutlets" : 1,
									"outlettype" : [ "" ],
									"id" : "obj-4",
									"fontname" : "Arial"
								}

							}
, 							{
								"box" : 								{
									"maxclass" : "newobj",
									"text" : "iter",
									"patching_rect" : [ 50.0, 136.0, 27.0, 20.0 ],
									"fontsize" : 12.0,
									"numinlets" : 1,
									"numoutlets" : 1,
									"outlettype" : [ "" ],
									"id" : "obj-8",
									"fontname" : "Arial"
								}

							}
, 							{
								"box" : 								{
									"maxclass" : "newobj",
									"text" : "zl len",
									"patching_rect" : [ 226.0, 160.0, 39.0, 20.0 ],
									"fontsize" : 12.0,
									"numinlets" : 2,
									"numoutlets" : 2,
									"outlettype" : [ "", "" ],
									"id" : "obj-6",
									"fontname" : "Arial"
								}

							}
, 							{
								"box" : 								{
									"maxclass" : "newobj",
									"text" : "t l l",
									"patching_rect" : [ 50.0, 100.0, 98.5, 20.0 ],
									"fontsize" : 12.0,
									"numinlets" : 1,
									"numoutlets" : 2,
									"outlettype" : [ "", "" ],
									"id" : "obj-5",
									"fontname" : "Arial"
								}

							}
, 							{
								"box" : 								{
									"maxclass" : "newobj",
									"text" : "zl group",
									"patching_rect" : [ 50.0, 188.0, 99.0, 20.0 ],
									"fontsize" : 12.0,
									"numinlets" : 2,
									"numoutlets" : 2,
									"outlettype" : [ "", "" ],
									"id" : "obj-3",
									"fontname" : "Arial"
								}

							}
, 							{
								"box" : 								{
									"maxclass" : "newobj",
									"text" : "sprintf symout %02d",
									"patching_rect" : [ 50.0, 160.0, 119.0, 20.0 ],
									"fontsize" : 12.0,
									"numinlets" : 1,
									"numoutlets" : 1,
									"outlettype" : [ "" ],
									"id" : "obj-1",
									"fontname" : "Arial"
								}

							}
, 							{
								"box" : 								{
									"maxclass" : "inlet",
									"patching_rect" : [ 50.0, 40.0, 25.0, 25.0 ],
									"numinlets" : 0,
									"numoutlets" : 1,
									"outlettype" : [ "" ],
									"id" : "obj-9",
									"comment" : ""
								}

							}
, 							{
								"box" : 								{
									"maxclass" : "outlet",
									"patching_rect" : [ 50.0, 290.0, 25.0, 25.0 ],
									"numinlets" : 1,
									"numoutlets" : 0,
									"id" : "obj-10",
									"comment" : ""
								}

							}
 ],
						"lines" : [ 							{
								"patchline" : 								{
									"source" : [ "obj-1", 0 ],
									"destination" : [ "obj-3", 0 ],
									"hidden" : 0,
									"midpoints" : [  ]
								}

							}
, 							{
								"patchline" : 								{
									"source" : [ "obj-8", 0 ],
									"destination" : [ "obj-1", 0 ],
									"hidden" : 0,
									"midpoints" : [  ]
								}

							}
, 							{
								"patchline" : 								{
									"source" : [ "obj-4", 0 ],
									"destination" : [ "obj-10", 0 ],
									"hidden" : 0,
									"midpoints" : [  ]
								}

							}
, 							{
								"patchline" : 								{
									"source" : [ "obj-9", 0 ],
									"destination" : [ "obj-5", 0 ],
									"hidden" : 0,
									"midpoints" : [  ]
								}

							}
, 							{
								"patchline" : 								{
									"source" : [ "obj-3", 0 ],
									"destination" : [ "obj-4", 0 ],
									"hidden" : 0,
									"midpoints" : [  ]
								}

							}
, 							{
								"patchline" : 								{
									"source" : [ "obj-5", 0 ],
									"destination" : [ "obj-8", 0 ],
									"hidden" : 0,
									"midpoints" : [  ]
								}

							}
, 							{
								"patchline" : 								{
									"source" : [ "obj-6", 0 ],
									"destination" : [ "obj-3", 1 ],
									"hidden" : 0,
									"midpoints" : [  ]
								}

							}
, 							{
								"patchline" : 								{
									"source" : [ "obj-5", 1 ],
									"destination" : [ "obj-6", 0 ],
									"hidden" : 0,
									"midpoints" : [  ]
								}

							}
 ]
					}
,
					"saved_object_attributes" : 					{
						"globalpatchername" : "",
						"default_fontname" : "Arial",
						"fontface" : 0,
						"fontsize" : 10.0,
						"default_fontsize" : 10.0,
						"fontname" : "Arial",
						"default_fontface" : 0
					}

				}

			}
, 			{
				"box" : 				{
					"maxclass" : "tab",
					"patching_rect" : [ 434.0, 298.0, 156.0, 29.0 ],
					"multiline" : 0,
					"tabs" : [ "00" ],
					"presentation" : 1,
					"rounded" : 1.0,
					"textcolor" : [ 1.0, 1.0, 1.0, 1.0 ],
					"fontsize" : 8.0,
					"numinlets" : 1,
					"numoutlets" : 3,
					"tabcolor" : [ 0.423529, 0.415686, 0.415686, 1.0 ],
					"presentation_rect" : [ 8.0, 64.0, 1032.0, 20.0 ],
					"spacing_x" : 8.0,
					"outlettype" : [ "int", "", "" ],
					"ignoreclick" : 1,
					"id" : "obj-1",
					"fontname" : "Arial",
					"truncate" : 0
				}

			}
, 			{
				"box" : 				{
					"maxclass" : "comment",
					"text" : "res",
					"patching_rect" : [ 660.0, 204.0, 27.0, 20.0 ],
					"frgb" : [ 0.0, 0.0, 0.0, 1.0 ],
					"presentation" : 1,
					"fontsize" : 12.0,
					"numinlets" : 1,
					"numoutlets" : 0,
					"presentation_rect" : [ 160.0, 86.0, 27.0, 20.0 ],
					"id" : "obj-76",
					"fontname" : "Arial"
				}

			}
, 			{
				"box" : 				{
					"maxclass" : "number",
					"varname" : "main_res",
					"patching_rect" : [ 610.0, 204.0, 50.0, 20.0 ],
					"presentation" : 1,
					"fontsize" : 12.0,
					"maximum" : 2500,
					"numinlets" : 1,
					"minimum" : 20,
					"numoutlets" : 2,
					"presentation_rect" : [ 108.0, 86.0, 50.0, 20.0 ],
					"outlettype" : [ "int", "bang" ],
					"id" : "obj-46",
					"fontname" : "Arial"
				}

			}
, 			{
				"box" : 				{
					"maxclass" : "comment",
					"text" : "mute",
					"patching_rect" : [ 36.0, 184.0, 37.0, 20.0 ],
					"frgb" : [ 0.0, 0.0, 0.0, 1.0 ],
					"presentation" : 1,
					"fontsize" : 12.0,
					"numinlets" : 1,
					"numoutlets" : 0,
					"presentation_rect" : [ 220.0, 86.0, 37.0, 20.0 ],
					"id" : "obj-1605",
					"fontname" : "Arial"
				}

			}
, 			{
				"box" : 				{
					"maxclass" : "newobj",
					"text" : "p division",
					"patching_rect" : [ 14.0, 232.0, 403.0, 20.0 ],
					"fontsize" : 12.0,
					"numinlets" : 4,
					"numoutlets" : 1,
					"outlettype" : [ "int" ],
					"id" : "obj-1604",
					"fontname" : "Arial",
					"patcher" : 					{
						"fileversion" : 1,
						"rect" : [ 46.0, 173.0, 490.0, 499.0 ],
						"bglocked" : 0,
						"defrect" : [ 46.0, 173.0, 490.0, 499.0 ],
						"openrect" : [ 0.0, 0.0, 0.0, 0.0 ],
						"openinpresentation" : 0,
						"default_fontsize" : 12.0,
						"default_fontface" : 0,
						"default_fontname" : "Arial",
						"gridonopen" : 0,
						"gridsize" : [ 4.0, 4.0 ],
						"gridsnaponopen" : 0,
						"toolbarvisible" : 1,
						"boxanimatetime" : 200,
						"imprint" : 0,
						"enablehscroll" : 1,
						"enablevscroll" : 1,
						"devicewidth" : 0.0,
						"boxes" : [ 							{
								"box" : 								{
									"maxclass" : "newobj",
									"text" : "t open",
									"patching_rect" : [ 20.0, 200.0, 44.0, 20.0 ],
									"fontsize" : 12.0,
									"numinlets" : 1,
									"numoutlets" : 1,
									"outlettype" : [ "open" ],
									"id" : "obj-6",
									"fontname" : "Arial"
								}

							}
, 							{
								"box" : 								{
									"maxclass" : "newobj",
									"text" : "route look",
									"patching_rect" : [ 8.0, 140.0, 50.0, 17.0 ],
									"fontsize" : 9.0,
									"numinlets" : 1,
									"numoutlets" : 2,
									"outlettype" : [ "", "" ],
									"id" : "obj-4",
									"fontname" : "Arial"
								}

							}
, 							{
								"box" : 								{
									"maxclass" : "outlet",
									"patching_rect" : [ 356.0, 436.0, 25.0, 25.0 ],
									"numinlets" : 1,
									"numoutlets" : 0,
									"id" : "obj-1",
									"comment" : ""
								}

							}
, 							{
								"box" : 								{
									"maxclass" : "newobj",
									"text" : "send~ main_clicks",
									"patching_rect" : [ 80.0, 416.0, 92.0, 18.0 ],
									"fontsize" : 10.0,
									"numinlets" : 1,
									"numoutlets" : 0,
									"id" : "obj-3",
									"fontname" : "Arial"
								}

							}
, 							{
								"box" : 								{
									"maxclass" : "inlet",
									"patching_rect" : [ 404.0, 28.0, 25.0, 25.0 ],
									"numinlets" : 0,
									"numoutlets" : 1,
									"outlettype" : [ "int" ],
									"id" : "obj-5",
									"comment" : ""
								}

							}
, 							{
								"box" : 								{
									"maxclass" : "inlet",
									"patching_rect" : [ 24.0, 16.0, 25.0, 25.0 ],
									"numinlets" : 0,
									"numoutlets" : 1,
									"outlettype" : [ "int" ],
									"id" : "obj-1600",
									"comment" : ""
								}

							}
, 							{
								"box" : 								{
									"maxclass" : "inlet",
									"patching_rect" : [ 76.0, 32.0, 25.0, 25.0 ],
									"numinlets" : 0,
									"numoutlets" : 1,
									"outlettype" : [ "" ],
									"id" : "obj-1601",
									"comment" : ""
								}

							}
, 							{
								"box" : 								{
									"maxclass" : "inlet",
									"patching_rect" : [ 260.0, 36.0, 25.0, 25.0 ],
									"numinlets" : 0,
									"numoutlets" : 1,
									"outlettype" : [ "" ],
									"id" : "obj-1602",
									"comment" : ""
								}

							}
, 							{
								"box" : 								{
									"maxclass" : "newobj",
									"text" : "*~ 0.3",
									"patching_rect" : [ 80.0, 354.5, 42.0, 20.0 ],
									"fontsize" : 12.0,
									"numinlets" : 2,
									"numoutlets" : 1,
									"outlettype" : [ "signal" ],
									"id" : "obj-2",
									"fontname" : "Arial"
								}

							}
, 							{
								"box" : 								{
									"maxclass" : "newobj",
									"text" : "- 1",
									"patching_rect" : [ 196.0, 170.5, 32.5, 20.0 ],
									"fontsize" : 12.0,
									"numinlets" : 2,
									"numoutlets" : 1,
									"outlettype" : [ "int" ],
									"id" : "obj-1580",
									"fontname" : "Arial"
								}

							}
, 							{
								"box" : 								{
									"maxclass" : "newobj",
									"text" : "send~ reverb",
									"patching_rect" : [ 180.0, 350.5, 81.0, 20.0 ],
									"fontsize" : 12.0,
									"numinlets" : 1,
									"numoutlets" : 0,
									"id" : "obj-1581",
									"fontname" : "Arial"
								}

							}
, 							{
								"box" : 								{
									"maxclass" : "newobj",
									"text" : "poly~ clicker-poly.maxpat 3",
									"patching_rect" : [ 79.0, 316.0, 156.0, 20.0 ],
									"fontsize" : 12.0,
									"numinlets" : 2,
									"numoutlets" : 1,
									"outlettype" : [ "signal" ],
									"id" : "obj-1583",
									"fontname" : "Arial"
								}

							}
, 							{
								"box" : 								{
									"maxclass" : "message",
									"text" : "/mute $1",
									"patching_rect" : [ 40.0, 72.0, 67.0, 18.0 ],
									"bgcolor" : [ 0.611765, 0.701961, 1.0, 1.0 ],
									"fontsize" : 12.0,
									"numinlets" : 2,
									"numoutlets" : 1,
									"outlettype" : [ "" ],
									"id" : "obj-1585",
									"fontname" : "Arial"
								}

							}
, 							{
								"box" : 								{
									"maxclass" : "newobj",
									"text" : "sub-beat 4 4 #1 #2 swinger",
									"patching_rect" : [ 40.0, 96.0, 119.0, 17.0 ],
									"fontsize" : 9.0,
									"numinlets" : 1,
									"numoutlets" : 5,
									"outlettype" : [ "", "", "", "", "int" ],
									"id" : "obj-1586",
									"fontname" : "Arial"
								}

							}
, 							{
								"box" : 								{
									"maxclass" : "newobj",
									"text" : "t l clear",
									"patching_rect" : [ 80.0, 168.0, 49.0, 20.0 ],
									"fontsize" : 12.0,
									"numinlets" : 1,
									"numoutlets" : 2,
									"outlettype" : [ "", "clear" ],
									"id" : "obj-7",
									"fontname" : "Arial"
								}

							}
, 							{
								"box" : 								{
									"maxclass" : "newobj",
									"text" : "t l clear",
									"patching_rect" : [ 260.0, 164.0, 49.0, 20.0 ],
									"fontsize" : 12.0,
									"numinlets" : 1,
									"numoutlets" : 2,
									"outlettype" : [ "", "clear" ],
									"id" : "obj-8",
									"fontname" : "Arial"
								}

							}
, 							{
								"box" : 								{
									"maxclass" : "newobj",
									"text" : "prepend store",
									"patching_rect" : [ 80.0, 226.0, 85.0, 20.0 ],
									"fontsize" : 12.0,
									"numinlets" : 1,
									"numoutlets" : 1,
									"outlettype" : [ "" ],
									"id" : "obj-9",
									"fontname" : "Arial"
								}

							}
, 							{
								"box" : 								{
									"maxclass" : "newobj",
									"text" : "listfunnel",
									"patching_rect" : [ 80.0, 196.0, 58.0, 20.0 ],
									"fontsize" : 12.0,
									"numinlets" : 1,
									"numoutlets" : 1,
									"outlettype" : [ "list" ],
									"id" : "obj-10",
									"fontname" : "Arial"
								}

							}
, 							{
								"box" : 								{
									"maxclass" : "newobj",
									"text" : "t i i",
									"patching_rect" : [ 196.0, 204.0, 32.5, 20.0 ],
									"fontsize" : 12.0,
									"numinlets" : 1,
									"numoutlets" : 2,
									"outlettype" : [ "int", "int" ],
									"id" : "obj-36",
									"fontname" : "Arial"
								}

							}
, 							{
								"box" : 								{
									"maxclass" : "newobj",
									"text" : "gate",
									"patching_rect" : [ 80.0, 290.5, 200.0, 20.0 ],
									"fontsize" : 12.0,
									"numinlets" : 2,
									"numoutlets" : 1,
									"outlettype" : [ "" ],
									"id" : "obj-28",
									"fontname" : "Arial"
								}

							}
, 							{
								"box" : 								{
									"maxclass" : "newobj",
									"text" : "coll",
									"patching_rect" : [ 80.0, 264.0, 59.5, 20.0 ],
									"fontsize" : 12.0,
									"numinlets" : 1,
									"numoutlets" : 4,
									"outlettype" : [ "", "", "", "" ],
									"id" : "obj-27",
									"fontname" : "Arial",
									"saved_object_attributes" : 									{
										"embed" : 0
									}

								}

							}
, 							{
								"box" : 								{
									"maxclass" : "newobj",
									"text" : "prepend store",
									"patching_rect" : [ 260.0, 234.0, 85.0, 20.0 ],
									"fontsize" : 12.0,
									"numinlets" : 1,
									"numoutlets" : 1,
									"outlettype" : [ "" ],
									"id" : "obj-21",
									"fontname" : "Arial"
								}

							}
, 							{
								"box" : 								{
									"maxclass" : "newobj",
									"text" : "listfunnel",
									"patching_rect" : [ 260.0, 204.0, 58.0, 20.0 ],
									"fontsize" : 12.0,
									"numinlets" : 1,
									"numoutlets" : 1,
									"outlettype" : [ "list" ],
									"id" : "obj-20",
									"fontname" : "Arial"
								}

							}
, 							{
								"box" : 								{
									"maxclass" : "newobj",
									"text" : "coll",
									"patching_rect" : [ 260.0, 264.0, 59.5, 20.0 ],
									"fontsize" : 12.0,
									"numinlets" : 1,
									"numoutlets" : 4,
									"outlettype" : [ "", "", "", "" ],
									"id" : "obj-19",
									"fontname" : "Arial",
									"saved_object_attributes" : 									{
										"embed" : 0
									}

								}

							}
 ],
						"lines" : [ 							{
								"patchline" : 								{
									"source" : [ "obj-1586", 4 ],
									"destination" : [ "obj-1580", 0 ],
									"hidden" : 0,
									"midpoints" : [  ]
								}

							}
, 							{
								"patchline" : 								{
									"source" : [ "obj-1586", 4 ],
									"destination" : [ "obj-1", 0 ],
									"hidden" : 0,
									"midpoints" : [  ]
								}

							}
, 							{
								"patchline" : 								{
									"source" : [ "obj-1585", 0 ],
									"destination" : [ "obj-1586", 0 ],
									"hidden" : 0,
									"midpoints" : [  ]
								}

							}
, 							{
								"patchline" : 								{
									"source" : [ "obj-2", 0 ],
									"destination" : [ "obj-3", 0 ],
									"hidden" : 0,
									"midpoints" : [  ]
								}

							}
, 							{
								"patchline" : 								{
									"source" : [ "obj-1583", 0 ],
									"destination" : [ "obj-2", 0 ],
									"hidden" : 0,
									"midpoints" : [  ]
								}

							}
, 							{
								"patchline" : 								{
									"source" : [ "obj-1602", 0 ],
									"destination" : [ "obj-8", 0 ],
									"hidden" : 0,
									"midpoints" : [  ]
								}

							}
, 							{
								"patchline" : 								{
									"source" : [ "obj-1601", 0 ],
									"destination" : [ "obj-7", 0 ],
									"hidden" : 0,
									"midpoints" : [  ]
								}

							}
, 							{
								"patchline" : 								{
									"source" : [ "obj-5", 0 ],
									"destination" : [ "obj-1583", 1 ],
									"hidden" : 0,
									"midpoints" : [  ]
								}

							}
, 							{
								"patchline" : 								{
									"source" : [ "obj-28", 0 ],
									"destination" : [ "obj-1583", 0 ],
									"hidden" : 0,
									"midpoints" : [  ]
								}

							}
, 							{
								"patchline" : 								{
									"source" : [ "obj-1580", 0 ],
									"destination" : [ "obj-36", 0 ],
									"hidden" : 0,
									"midpoints" : [  ]
								}

							}
, 							{
								"patchline" : 								{
									"source" : [ "obj-7", 1 ],
									"destination" : [ "obj-27", 0 ],
									"hidden" : 0,
									"midpoints" : [  ]
								}

							}
, 							{
								"patchline" : 								{
									"source" : [ "obj-7", 0 ],
									"destination" : [ "obj-10", 0 ],
									"hidden" : 0,
									"midpoints" : [  ]
								}

							}
, 							{
								"patchline" : 								{
									"source" : [ "obj-8", 1 ],
									"destination" : [ "obj-19", 0 ],
									"hidden" : 0,
									"midpoints" : [  ]
								}

							}
, 							{
								"patchline" : 								{
									"source" : [ "obj-8", 0 ],
									"destination" : [ "obj-20", 0 ],
									"hidden" : 0,
									"midpoints" : [  ]
								}

							}
, 							{
								"patchline" : 								{
									"source" : [ "obj-9", 0 ],
									"destination" : [ "obj-27", 0 ],
									"hidden" : 0,
									"midpoints" : [  ]
								}

							}
, 							{
								"patchline" : 								{
									"source" : [ "obj-10", 0 ],
									"destination" : [ "obj-9", 0 ],
									"hidden" : 0,
									"midpoints" : [  ]
								}

							}
, 							{
								"patchline" : 								{
									"source" : [ "obj-36", 0 ],
									"destination" : [ "obj-19", 0 ],
									"hidden" : 0,
									"midpoints" : [  ]
								}

							}
, 							{
								"patchline" : 								{
									"source" : [ "obj-36", 1 ],
									"destination" : [ "obj-27", 0 ],
									"hidden" : 0,
									"midpoints" : [  ]
								}

							}
, 							{
								"patchline" : 								{
									"source" : [ "obj-19", 0 ],
									"destination" : [ "obj-28", 1 ],
									"hidden" : 0,
									"midpoints" : [  ]
								}

							}
, 							{
								"patchline" : 								{
									"source" : [ "obj-27", 0 ],
									"destination" : [ "obj-28", 0 ],
									"hidden" : 0,
									"midpoints" : [  ]
								}

							}
, 							{
								"patchline" : 								{
									"source" : [ "obj-21", 0 ],
									"destination" : [ "obj-19", 0 ],
									"hidden" : 0,
									"midpoints" : [  ]
								}

							}
, 							{
								"patchline" : 								{
									"source" : [ "obj-20", 0 ],
									"destination" : [ "obj-21", 0 ],
									"hidden" : 0,
									"midpoints" : [  ]
								}

							}
, 							{
								"patchline" : 								{
									"source" : [ "obj-1583", 0 ],
									"destination" : [ "obj-1581", 0 ],
									"hidden" : 0,
									"midpoints" : [  ]
								}

							}
, 							{
								"patchline" : 								{
									"source" : [ "obj-1600", 0 ],
									"destination" : [ "obj-4", 0 ],
									"hidden" : 0,
									"midpoints" : [  ]
								}

							}
, 							{
								"patchline" : 								{
									"source" : [ "obj-4", 1 ],
									"destination" : [ "obj-1585", 0 ],
									"hidden" : 0,
									"midpoints" : [  ]
								}

							}
, 							{
								"patchline" : 								{
									"source" : [ "obj-4", 0 ],
									"destination" : [ "obj-6", 0 ],
									"hidden" : 0,
									"midpoints" : [  ]
								}

							}
, 							{
								"patchline" : 								{
									"source" : [ "obj-6", 0 ],
									"destination" : [ "obj-27", 0 ],
									"hidden" : 0,
									"midpoints" : [  ]
								}

							}
, 							{
								"patchline" : 								{
									"source" : [ "obj-6", 0 ],
									"destination" : [ "obj-19", 0 ],
									"hidden" : 0,
									"midpoints" : [  ]
								}

							}
 ]
					}
,
					"saved_object_attributes" : 					{
						"globalpatchername" : "",
						"default_fontname" : "Arial",
						"fontface" : 0,
						"fontsize" : 12.0,
						"default_fontsize" : 12.0,
						"fontname" : "Arial",
						"default_fontface" : 0
					}

				}

			}
, 			{
				"box" : 				{
					"maxclass" : "number",
					"varname" : "main_onoff_state",
					"patching_rect" : [ 142.0, 104.0, 50.0, 20.0 ],
					"presentation" : 1,
					"bgcolor" : [ 1.0, 0.337255, 0.619608, 1.0 ],
					"fontsize" : 12.0,
					"maximum" : 1,
					"numinlets" : 1,
					"minimum" : 0,
					"numoutlets" : 2,
					"presentation_rect" : [ 56.0, 86.0, 50.0, 20.0 ],
					"outlettype" : [ "int", "bang" ],
					"id" : "obj-426",
					"fontname" : "Arial"
				}

			}
, 			{
				"box" : 				{
					"maxclass" : "newobj",
					"text" : "fixlist #1",
					"patching_rect" : [ 142.0, 132.0, 54.0, 20.0 ],
					"fontsize" : 12.0,
					"numinlets" : 1,
					"numoutlets" : 1,
					"outlettype" : [ "" ],
					"id" : "obj-425",
					"fontname" : "Arial"
				}

			}
, 			{
				"box" : 				{
					"maxclass" : "number",
					"varname" : "main_timbre",
					"patching_rect" : [ 492.0, 90.0, 50.0, 20.0 ],
					"presentation" : 1,
					"bgcolor" : [ 0.537255, 0.537255, 0.537255, 1.0 ],
					"fontsize" : 12.0,
					"maximum" : 100,
					"numinlets" : 1,
					"minimum" : 0,
					"numoutlets" : 2,
					"presentation_rect" : [ 4.0, 86.0, 50.0, 20.0 ],
					"outlettype" : [ "int", "bang" ],
					"id" : "obj-110",
					"fontname" : "Arial"
				}

			}
, 			{
				"box" : 				{
					"maxclass" : "newobj",
					"text" : "fixlist #1",
					"patching_rect" : [ 394.0, 72.0, 54.0, 20.0 ],
					"fontsize" : 12.0,
					"numinlets" : 1,
					"numoutlets" : 1,
					"outlettype" : [ "" ],
					"id" : "obj-215",
					"fontname" : "Arial"
				}

			}
, 			{
				"box" : 				{
					"maxclass" : "multislider",
					"varname" : "seq_timbre",
					"patching_rect" : [ 388.0, 178.0, 204.0, 35.0 ],
					"presentation" : 1,
					"settype" : 0,
					"setstyle" : 1,
					"spacing" : 5,
					"numinlets" : 1,
					"contdata" : 1,
					"numoutlets" : 2,
					"presentation_rect" : [ 4.0, 4.0, 1040.0, 44.0 ],
					"outlettype" : [ "", "" ],
					"id" : "obj-184",
					"setminmax" : [ 0.0, 99.0 ],
					"slidercolor" : [ 0.360784, 0.360784, 0.360784, 1.0 ]
				}

			}
, 			{
				"box" : 				{
					"maxclass" : "multislider",
					"varname" : "seq_gate",
					"patching_rect" : [ 142.0, 176.0, 210.0, 32.0 ],
					"presentation" : 1,
					"settype" : 0,
					"setstyle" : 1,
					"spacing" : 5,
					"numinlets" : 1,
					"numoutlets" : 2,
					"presentation_rect" : [ 4.0, 48.0, 1040.0, 16.0 ],
					"outlettype" : [ "", "" ],
					"id" : "obj-145",
					"setminmax" : [ 0.0, 1.0 ],
					"slidercolor" : [ 0.984314, 0.015686, 0.015686, 1.0 ]
				}

			}
, 			{
				"box" : 				{
					"maxclass" : "toggle",
					"varname" : "mute-state",
					"patching_rect" : [ 14.0, 184.0, 20.0, 20.0 ],
					"presentation" : 1,
					"bgcolor" : [ 0.945098, 0.913725, 0.407843, 1.0 ],
					"numinlets" : 1,
					"numoutlets" : 1,
					"presentation_rect" : [ 196.0, 86.0, 20.0, 20.0 ],
					"outlettype" : [ "int" ],
					"id" : "obj-49"
				}

			}
, 			{
				"box" : 				{
					"maxclass" : "panel",
					"patching_rect" : [ 722.0, 166.0, 47.0, 37.0 ],
					"presentation" : 1,
					"rounded" : 4,
					"bgcolor" : [ 0.803922, 0.85098, 0.858824, 1.0 ],
					"numinlets" : 1,
					"numoutlets" : 0,
					"presentation_rect" : [ 0.0, 0.0, 1048.0, 112.0 ],
					"id" : "obj-3"
				}

			}
 ],
		"lines" : [ 			{
				"patchline" : 				{
					"source" : [ "obj-184", 0 ],
					"destination" : [ "obj-14", 0 ],
					"hidden" : 0,
					"midpoints" : [  ]
				}

			}
, 			{
				"patchline" : 				{
					"source" : [ "obj-10", 0 ],
					"destination" : [ "obj-145", 0 ],
					"hidden" : 0,
					"midpoints" : [  ]
				}

			}
, 			{
				"patchline" : 				{
					"source" : [ "obj-10", 0 ],
					"destination" : [ "obj-184", 0 ],
					"hidden" : 0,
					"midpoints" : [  ]
				}

			}
, 			{
				"patchline" : 				{
					"source" : [ "obj-4", 1 ],
					"destination" : [ "obj-10", 0 ],
					"hidden" : 0,
					"midpoints" : [  ]
				}

			}
, 			{
				"patchline" : 				{
					"source" : [ "obj-4", 0 ],
					"destination" : [ "obj-215", 0 ],
					"hidden" : 0,
					"midpoints" : [  ]
				}

			}
, 			{
				"patchline" : 				{
					"source" : [ "obj-215", 0 ],
					"destination" : [ "obj-184", 0 ],
					"hidden" : 0,
					"midpoints" : [  ]
				}

			}
, 			{
				"patchline" : 				{
					"source" : [ "obj-12", 0 ],
					"destination" : [ "obj-4", 0 ],
					"hidden" : 0,
					"midpoints" : [  ]
				}

			}
, 			{
				"patchline" : 				{
					"source" : [ "obj-110", 0 ],
					"destination" : [ "obj-184", 0 ],
					"hidden" : 0,
					"midpoints" : [  ]
				}

			}
, 			{
				"patchline" : 				{
					"source" : [ "obj-426", 0 ],
					"destination" : [ "obj-425", 0 ],
					"hidden" : 0,
					"midpoints" : [  ]
				}

			}
, 			{
				"patchline" : 				{
					"source" : [ "obj-425", 0 ],
					"destination" : [ "obj-145", 0 ],
					"hidden" : 0,
					"midpoints" : [  ]
				}

			}
, 			{
				"patchline" : 				{
					"source" : [ "obj-184", 0 ],
					"destination" : [ "obj-11", 0 ],
					"hidden" : 0,
					"midpoints" : [  ]
				}

			}
, 			{
				"patchline" : 				{
					"source" : [ "obj-11", 0 ],
					"destination" : [ "obj-1", 0 ],
					"hidden" : 0,
					"midpoints" : [  ]
				}

			}
, 			{
				"patchline" : 				{
					"source" : [ "obj-49", 0 ],
					"destination" : [ "obj-1604", 0 ],
					"hidden" : 0,
					"midpoints" : [  ]
				}

			}
, 			{
				"patchline" : 				{
					"source" : [ "obj-145", 0 ],
					"destination" : [ "obj-1604", 1 ],
					"hidden" : 0,
					"midpoints" : [  ]
				}

			}
, 			{
				"patchline" : 				{
					"source" : [ "obj-184", 0 ],
					"destination" : [ "obj-1604", 2 ],
					"hidden" : 0,
					"midpoints" : [  ]
				}

			}
, 			{
				"patchline" : 				{
					"source" : [ "obj-46", 0 ],
					"destination" : [ "obj-1604", 3 ],
					"hidden" : 0,
					"midpoints" : [  ]
				}

			}
, 			{
				"patchline" : 				{
					"source" : [ "obj-5", 0 ],
					"destination" : [ "obj-49", 0 ],
					"hidden" : 0,
					"midpoints" : [  ]
				}

			}
, 			{
				"patchline" : 				{
					"source" : [ "obj-7", 0 ],
					"destination" : [ "obj-110", 0 ],
					"hidden" : 0,
					"midpoints" : [  ]
				}

			}
, 			{
				"patchline" : 				{
					"source" : [ "obj-9", 0 ],
					"destination" : [ "obj-426", 0 ],
					"hidden" : 0,
					"midpoints" : [  ]
				}

			}
, 			{
				"patchline" : 				{
					"source" : [ "obj-8", 0 ],
					"destination" : [ "obj-46", 0 ],
					"hidden" : 0,
					"midpoints" : [  ]
				}

			}
, 			{
				"patchline" : 				{
					"source" : [ "obj-6", 0 ],
					"destination" : [ "obj-184", 0 ],
					"hidden" : 0,
					"midpoints" : [  ]
				}

			}
 ]
	}

}
