{
	"patcher" : 	{
		"fileversion" : 1,
		"rect" : [ 0.0, 44.0, 1483.0, 976.0 ],
		"bgcolor" : [ 0.87451, 0.87451, 0.87451, 1.0 ],
		"bglocked" : 0,
		"defrect" : [ 0.0, 44.0, 1483.0, 976.0 ],
		"openrect" : [ 0.0, 0.0, 0.0, 0.0 ],
		"openinpresentation" : 1,
		"default_fontsize" : 12.0,
		"default_fontface" : 0,
		"default_fontname" : "Arial",
		"gridonopen" : 0,
		"gridsize" : [ 4.0, 4.0 ],
		"gridsnaponopen" : 0,
		"toolbarvisible" : 1,
		"boxanimatetime" : 200,
		"imprint" : 0,
		"enablehscroll" : 1,
		"enablevscroll" : 1,
		"devicewidth" : 0.0,
		"boxes" : [ 			{
				"box" : 				{
					"maxclass" : "comment",
					"text" : "/ 1",
					"frgb" : [ 0.905882, 0.94902, 0.086275, 1.0 ],
					"patching_rect" : [ 1292.0, 1008.0, 41.0, 27.0 ],
					"presentation" : 1,
					"id" : "obj-82",
					"fontname" : "Arial",
					"textcolor" : [ 0.905882, 0.94902, 0.086275, 1.0 ],
					"numinlets" : 1,
					"numoutlets" : 0,
					"fontface" : 3,
					"fontsize" : 18.0,
					"presentation_rect" : [ 1336.0, 1024.0, 41.0, 27.0 ]
				}

			}
, 			{
				"box" : 				{
					"maxclass" : "comment",
					"text" : "/ 2",
					"frgb" : [ 0.905882, 0.94902, 0.086275, 1.0 ],
					"patching_rect" : [ 1069.0, 1008.0, 41.0, 27.0 ],
					"presentation" : 1,
					"id" : "obj-81",
					"fontname" : "Arial",
					"textcolor" : [ 0.905882, 0.94902, 0.086275, 1.0 ],
					"numinlets" : 1,
					"numoutlets" : 0,
					"fontface" : 3,
					"fontsize" : 18.0,
					"presentation_rect" : [ 1136.0, 1024.0, 41.0, 27.0 ]
				}

			}
, 			{
				"box" : 				{
					"maxclass" : "comment",
					"text" : "/ 3",
					"frgb" : [ 0.905882, 0.94902, 0.086275, 1.0 ],
					"patching_rect" : [ 846.0, 1008.0, 41.0, 27.0 ],
					"presentation" : 1,
					"id" : "obj-80",
					"fontname" : "Arial",
					"textcolor" : [ 0.905882, 0.94902, 0.086275, 1.0 ],
					"numinlets" : 1,
					"numoutlets" : 0,
					"fontface" : 3,
					"fontsize" : 18.0,
					"presentation_rect" : [ 936.0, 1024.0, 41.0, 27.0 ]
				}

			}
, 			{
				"box" : 				{
					"maxclass" : "comment",
					"text" : "/ 4",
					"frgb" : [ 0.905882, 0.94902, 0.086275, 1.0 ],
					"patching_rect" : [ 623.0, 1008.0, 41.0, 27.0 ],
					"presentation" : 1,
					"id" : "obj-78",
					"fontname" : "Arial",
					"textcolor" : [ 0.905882, 0.94902, 0.086275, 1.0 ],
					"numinlets" : 1,
					"numoutlets" : 0,
					"fontface" : 3,
					"fontsize" : 18.0,
					"presentation_rect" : [ 736.0, 1024.0, 41.0, 27.0 ]
				}

			}
, 			{
				"box" : 				{
					"maxclass" : "comment",
					"text" : "/ 5",
					"frgb" : [ 0.905882, 0.94902, 0.086275, 1.0 ],
					"patching_rect" : [ 400.0, 1008.0, 41.0, 27.0 ],
					"presentation" : 1,
					"id" : "obj-77",
					"fontname" : "Arial",
					"textcolor" : [ 0.905882, 0.94902, 0.086275, 1.0 ],
					"numinlets" : 1,
					"numoutlets" : 0,
					"fontface" : 3,
					"fontsize" : 18.0,
					"presentation_rect" : [ 536.0, 1024.0, 41.0, 27.0 ]
				}

			}
, 			{
				"box" : 				{
					"maxclass" : "comment",
					"text" : "/ 6",
					"frgb" : [ 0.32549, 0.215686, 0.32549, 1.0 ],
					"patching_rect" : [ 1377.0, 859.0, 210.0, 27.0 ],
					"presentation" : 1,
					"id" : "obj-76",
					"fontname" : "Arial",
					"textcolor" : [ 0.32549, 0.215686, 0.32549, 1.0 ],
					"numinlets" : 1,
					"numoutlets" : 0,
					"fontface" : 3,
					"fontsize" : 18.0,
					"presentation_rect" : [ 1384.0, 860.0, 44.0, 27.0 ]
				}

			}
, 			{
				"box" : 				{
					"maxclass" : "comment",
					"text" : "/ 10",
					"frgb" : [ 0.32549, 0.215686, 0.32549, 1.0 ],
					"patching_rect" : [ 1377.0, 743.0, 210.0, 27.0 ],
					"presentation" : 1,
					"id" : "obj-71",
					"fontname" : "Arial",
					"textcolor" : [ 0.32549, 0.215686, 0.32549, 1.0 ],
					"numinlets" : 1,
					"numoutlets" : 0,
					"fontface" : 3,
					"fontsize" : 18.0,
					"presentation_rect" : [ 1376.0, 744.0, 44.0, 27.0 ]
				}

			}
, 			{
				"box" : 				{
					"maxclass" : "comment",
					"text" : "/ 12",
					"frgb" : [ 0.32549, 0.215686, 0.32549, 1.0 ],
					"patching_rect" : [ 1377.0, 627.0, 210.0, 27.0 ],
					"presentation" : 1,
					"id" : "obj-70",
					"fontname" : "Arial",
					"textcolor" : [ 0.32549, 0.215686, 0.32549, 1.0 ],
					"numinlets" : 1,
					"numoutlets" : 0,
					"fontface" : 3,
					"fontsize" : 18.0,
					"presentation_rect" : [ 1376.0, 628.0, 44.0, 27.0 ]
				}

			}
, 			{
				"box" : 				{
					"maxclass" : "comment",
					"text" : "/ 15",
					"frgb" : [ 0.32549, 0.215686, 0.32549, 1.0 ],
					"patching_rect" : [ 1377.0, 511.0, 210.0, 27.0 ],
					"presentation" : 1,
					"id" : "obj-63",
					"fontname" : "Arial",
					"textcolor" : [ 0.32549, 0.215686, 0.32549, 1.0 ],
					"numinlets" : 1,
					"numoutlets" : 0,
					"fontface" : 3,
					"fontsize" : 18.0,
					"presentation_rect" : [ 1376.0, 512.0, 44.0, 27.0 ]
				}

			}
, 			{
				"box" : 				{
					"maxclass" : "comment",
					"text" : "/ 20",
					"frgb" : [ 0.32549, 0.215686, 0.32549, 1.0 ],
					"patching_rect" : [ 1377.0, 395.0, 210.0, 27.0 ],
					"presentation" : 1,
					"id" : "obj-59",
					"fontname" : "Arial",
					"textcolor" : [ 0.32549, 0.215686, 0.32549, 1.0 ],
					"numinlets" : 1,
					"numoutlets" : 0,
					"fontface" : 3,
					"fontsize" : 18.0,
					"presentation_rect" : [ 1376.0, 396.0, 44.0, 27.0 ]
				}

			}
, 			{
				"box" : 				{
					"maxclass" : "comment",
					"text" : "/ 30",
					"frgb" : [ 0.32549, 0.215686, 0.32549, 1.0 ],
					"patching_rect" : [ 1377.0, 279.0, 210.0, 27.0 ],
					"presentation" : 1,
					"id" : "obj-58",
					"fontname" : "Arial",
					"textcolor" : [ 0.32549, 0.215686, 0.32549, 1.0 ],
					"numinlets" : 1,
					"numoutlets" : 0,
					"fontface" : 3,
					"fontsize" : 18.0,
					"presentation_rect" : [ 1376.0, 280.0, 44.0, 27.0 ]
				}

			}
, 			{
				"box" : 				{
					"maxclass" : "comment",
					"text" : "/ 60",
					"frgb" : [ 0.32549, 0.215686, 0.32549, 1.0 ],
					"patching_rect" : [ 192.0, 540.0, 210.0, 27.0 ],
					"presentation" : 1,
					"id" : "obj-57",
					"fontname" : "Arial",
					"textcolor" : [ 0.32549, 0.215686, 0.32549, 1.0 ],
					"numinlets" : 1,
					"numoutlets" : 0,
					"fontface" : 3,
					"fontsize" : 18.0,
					"presentation_rect" : [ 1376.0, 164.0, 44.0, 27.0 ]
				}

			}
, 			{
				"box" : 				{
					"maxclass" : "newobj",
					"text" : "s bufmenu",
					"patching_rect" : [ 40.0, 1000.0, 55.0, 17.0 ],
					"id" : "obj-52",
					"fontname" : "Arial",
					"numinlets" : 1,
					"numoutlets" : 0,
					"fontsize" : 9.0
				}

			}
, 			{
				"box" : 				{
					"maxclass" : "button",
					"patching_rect" : [ 292.0, 408.0, 20.0, 20.0 ],
					"presentation" : 1,
					"id" : "obj-48",
					"fgcolor" : [ 1.0, 0.003922, 0.003922, 1.0 ],
					"numinlets" : 1,
					"numoutlets" : 1,
					"outlettype" : [ "bang" ],
					"presentation_rect" : [ 20.0, 204.0, 20.0, 20.0 ],
					"bgcolor" : [ 0.109804, 0.133333, 0.141176, 0.0 ]
				}

			}
, 			{
				"box" : 				{
					"maxclass" : "comment",
					"text" : "< clear all soundfiles from memory",
					"linecount" : 5,
					"frgb" : [ 0.32549, 0.160784, 0.160784, 1.0 ],
					"patching_rect" : [ 312.0, 408.0, 61.0, 75.0 ],
					"presentation" : 1,
					"id" : "obj-45",
					"fontname" : "Arial",
					"textcolor" : [ 0.32549, 0.160784, 0.160784, 1.0 ],
					"numinlets" : 1,
					"numoutlets" : 0,
					"fontface" : 3,
					"fontsize" : 12.0,
					"presentation_rect" : [ 40.0, 204.0, 209.0, 20.0 ]
				}

			}
, 			{
				"box" : 				{
					"maxclass" : "comment",
					"text" : "global sample mute",
					"linecount" : 2,
					"frgb" : [ 1.0, 1.0, 1.0, 1.0 ],
					"patching_rect" : [ 180.0, 892.0, 115.0, 34.0 ],
					"presentation" : 1,
					"id" : "obj-40",
					"fontname" : "Arial",
					"textcolor" : [ 1.0, 1.0, 1.0, 1.0 ],
					"numinlets" : 1,
					"numoutlets" : 0,
					"fontface" : 3,
					"fontsize" : 12.0,
					"presentation_rect" : [ 848.0, 16.0, 123.0, 20.0 ]
				}

			}
, 			{
				"box" : 				{
					"maxclass" : "comment",
					"text" : "global click mute",
					"frgb" : [ 1.0, 1.0, 1.0, 1.0 ],
					"patching_rect" : [ 176.0, 832.0, 115.0, 20.0 ],
					"presentation" : 1,
					"id" : "obj-39",
					"fontname" : "Arial",
					"textcolor" : [ 1.0, 1.0, 1.0, 1.0 ],
					"numinlets" : 1,
					"numoutlets" : 0,
					"fontface" : 3,
					"fontsize" : 12.0,
					"presentation_rect" : [ 704.0, 16.0, 108.638535, 20.0 ]
				}

			}
, 			{
				"box" : 				{
					"maxclass" : "toggle",
					"patching_rect" : [ 152.0, 832.0, 25.0, 25.0 ],
					"presentation" : 1,
					"id" : "obj-15",
					"numinlets" : 1,
					"numoutlets" : 1,
					"outlettype" : [ "int" ],
					"presentation_rect" : [ 680.0, 16.0, 25.0, 25.0 ],
					"bgcolor" : [ 0.866667, 0.290196, 0.101961, 1.0 ]
				}

			}
, 			{
				"box" : 				{
					"maxclass" : "newobj",
					"text" : "s glob_clickmute",
					"patching_rect" : [ 152.0, 860.0, 99.0, 20.0 ],
					"id" : "obj-38",
					"fontname" : "Arial",
					"numinlets" : 1,
					"numoutlets" : 0,
					"fontsize" : 12.0
				}

			}
, 			{
				"box" : 				{
					"maxclass" : "toggle",
					"patching_rect" : [ 152.0, 892.0, 25.0, 25.0 ],
					"presentation" : 1,
					"id" : "obj-13",
					"numinlets" : 1,
					"numoutlets" : 1,
					"outlettype" : [ "int" ],
					"presentation_rect" : [ 824.0, 16.0, 25.0, 25.0 ],
					"bgcolor" : [ 0.407843, 0.945098, 0.862745, 1.0 ]
				}

			}
, 			{
				"box" : 				{
					"maxclass" : "newobj",
					"text" : "s glob_sampmute",
					"patching_rect" : [ 152.0, 920.0, 105.0, 20.0 ],
					"id" : "obj-14",
					"fontname" : "Arial",
					"numinlets" : 1,
					"numoutlets" : 0,
					"fontsize" : 12.0
				}

			}
, 			{
				"box" : 				{
					"maxclass" : "bpatcher",
					"varname" : "polyrhythm_small_module[4]",
					"patching_rect" : [ 1289.0, 880.0, 184.0, 132.0 ],
					"presentation" : 1,
					"id" : "obj-34",
					"name" : "polyrhythm_small_samp.maxpat",
					"numinlets" : 0,
					"args" : [ 1, 2 ],
					"numoutlets" : 0,
					"bgmode" : 1,
					"offset" : [ -2.911785, -2.397242 ],
					"presentation_rect" : [ 1172.0, 900.0, 272.0, 152.0 ]
				}

			}
, 			{
				"box" : 				{
					"maxclass" : "bpatcher",
					"varname" : "polyrhythm_small_module[3]",
					"patching_rect" : [ 1066.0, 880.0, 184.0, 132.0 ],
					"presentation" : 1,
					"id" : "obj-35",
					"name" : "polyrhythm_small_samp.maxpat",
					"numinlets" : 0,
					"args" : [ 2, 2 ],
					"numoutlets" : 0,
					"bgmode" : 1,
					"offset" : [ -2.549046, -2.230416 ],
					"presentation_rect" : [ 972.0, 900.0, 252.0, 152.0 ]
				}

			}
, 			{
				"box" : 				{
					"maxclass" : "bpatcher",
					"varname" : "polyrhythm_small_module[2]",
					"patching_rect" : [ 843.0, 880.0, 184.0, 132.0 ],
					"presentation" : 1,
					"id" : "obj-36",
					"name" : "polyrhythm_small_samp.maxpat",
					"numinlets" : 0,
					"args" : [ 3, 3 ],
					"numoutlets" : 0,
					"bgmode" : 1,
					"offset" : [ -2.230416, -2.230416 ],
					"presentation_rect" : [ 772.0, 900.0, 252.0, 152.0 ]
				}

			}
, 			{
				"box" : 				{
					"maxclass" : "bpatcher",
					"varname" : "polyrhythm_small_module[1]",
					"patching_rect" : [ 620.0, 880.0, 184.0, 132.0 ],
					"presentation" : 1,
					"id" : "obj-37",
					"name" : "polyrhythm_small_samp.maxpat",
					"numinlets" : 0,
					"args" : [ 4, 4 ],
					"numoutlets" : 0,
					"bgmode" : 1,
					"offset" : [ -2.230416, -2.549046 ],
					"presentation_rect" : [ 572.0, 900.0, 252.0, 152.0 ]
				}

			}
, 			{
				"box" : 				{
					"maxclass" : "bpatcher",
					"varname" : "polyrhythm_small_module",
					"patching_rect" : [ 400.0, 884.0, 182.0, 126.0 ],
					"presentation" : 1,
					"id" : "obj-1",
					"name" : "polyrhythm_small_samp.maxpat",
					"numinlets" : 0,
					"args" : [ 5, 5 ],
					"numoutlets" : 0,
					"bgmode" : 1,
					"offset" : [ -2.230416, -1.911785 ],
					"presentation_rect" : [ 372.0, 900.0, 250.0, 152.0 ]
				}

			}
, 			{
				"box" : 				{
					"maxclass" : "bpatcher",
					"varname" : "polyrhythm_basic_module[7]",
					"patching_rect" : [ 404.0, 760.0, 1068.0, 120.0 ],
					"presentation" : 1,
					"id" : "obj-32",
					"name" : "polyrhythm_basic_samp.maxpat",
					"numinlets" : 1,
					"args" : [ 6, "beat" ],
					"numoutlets" : 0,
					"offset" : [ -1.0, -1.0 ],
					"presentation_rect" : [ 372.0, 780.0, 1068.0, 122.0 ]
				}

			}
, 			{
				"box" : 				{
					"maxclass" : "bpatcher",
					"varname" : "polyrhythm_basic_module[5]",
					"patching_rect" : [ 404.0, 636.0, 1068.0, 120.0 ],
					"presentation" : 1,
					"id" : "obj-22",
					"name" : "polyrhythm_basic_samp.maxpat",
					"numinlets" : 1,
					"args" : [ 10, "beat" ],
					"numoutlets" : 0,
					"offset" : [ -1.0, -1.0 ],
					"presentation_rect" : [ 372.0, 660.0, 1068.0, 122.0 ]
				}

			}
, 			{
				"box" : 				{
					"maxclass" : "bpatcher",
					"varname" : "polyrhythm_basic_module[4]",
					"patching_rect" : [ 404.0, 512.0, 1068.0, 120.0 ],
					"presentation" : 1,
					"id" : "obj-21",
					"name" : "polyrhythm_basic_samp.maxpat",
					"numinlets" : 1,
					"args" : [ 12, "beat" ],
					"numoutlets" : 0,
					"offset" : [ -1.0, -1.0 ],
					"presentation_rect" : [ 372.0, 544.0, 1068.0, 122.0 ]
				}

			}
, 			{
				"box" : 				{
					"maxclass" : "bpatcher",
					"varname" : "polyrhythm_basic_module[3]",
					"patching_rect" : [ 404.0, 388.0, 1068.0, 120.0 ],
					"presentation" : 1,
					"id" : "obj-20",
					"name" : "polyrhythm_basic_samp.maxpat",
					"numinlets" : 1,
					"args" : [ 15, "beat" ],
					"numoutlets" : 0,
					"offset" : [ -1.0, -1.0 ],
					"presentation_rect" : [ 372.0, 428.0, 1068.0, 122.0 ]
				}

			}
, 			{
				"box" : 				{
					"maxclass" : "bpatcher",
					"varname" : "polyrhythm_basic_module[2]",
					"patching_rect" : [ 404.0, 264.0, 1068.0, 120.0 ],
					"presentation" : 1,
					"id" : "obj-19",
					"name" : "polyrhythm_basic_samp.maxpat",
					"numinlets" : 1,
					"args" : [ 20, "beat" ],
					"numoutlets" : 0,
					"offset" : [ -1.0, -1.0 ],
					"presentation_rect" : [ 372.0, 312.0, 1068.0, 122.0 ]
				}

			}
, 			{
				"box" : 				{
					"maxclass" : "bpatcher",
					"varname" : "polyrhythm_basic_module[1]",
					"patching_rect" : [ 404.0, 140.0, 1068.0, 120.0 ],
					"presentation" : 1,
					"id" : "obj-17",
					"name" : "polyrhythm_basic_samp.maxpat",
					"numinlets" : 1,
					"args" : [ 30, "beat" ],
					"numoutlets" : 0,
					"offset" : [ -1.0, -1.0 ],
					"presentation_rect" : [ 372.0, 196.0, 1068.0, 122.0 ]
				}

			}
, 			{
				"box" : 				{
					"maxclass" : "newobj",
					"text" : "p admin",
					"patching_rect" : [ 284.0, 540.0, 53.0, 20.0 ],
					"id" : "obj-16",
					"fontname" : "Arial",
					"numinlets" : 0,
					"numoutlets" : 1,
					"fontsize" : 12.0,
					"outlettype" : [ "clear" ],
					"patcher" : 					{
						"fileversion" : 1,
						"rect" : [ 25.0, 69.0, 640.0, 480.0 ],
						"bglocked" : 0,
						"defrect" : [ 25.0, 69.0, 640.0, 480.0 ],
						"openrect" : [ 0.0, 0.0, 0.0, 0.0 ],
						"openinpresentation" : 0,
						"default_fontsize" : 10.0,
						"default_fontface" : 0,
						"default_fontname" : "Arial",
						"gridonopen" : 0,
						"gridsize" : [ 4.0, 4.0 ],
						"gridsnaponopen" : 0,
						"toolbarvisible" : 1,
						"boxanimatetime" : 200,
						"imprint" : 0,
						"enablehscroll" : 1,
						"enablevscroll" : 1,
						"devicewidth" : 0.0,
						"boxes" : [ 							{
								"box" : 								{
									"maxclass" : "comment",
									"text" : "re-init menus",
									"frgb" : [ 0.0, 0.0, 0.0, 1.0 ],
									"patching_rect" : [ 70.0, 100.0, 150.0, 20.0 ],
									"id" : "obj-14",
									"fontname" : "Arial",
									"numinlets" : 1,
									"numoutlets" : 0,
									"fontsize" : 12.0
								}

							}
, 							{
								"box" : 								{
									"maxclass" : "newobj",
									"text" : "prepend append",
									"patching_rect" : [ 50.0, 200.0, 76.0, 17.0 ],
									"id" : "obj-35",
									"fontname" : "Arial",
									"numinlets" : 1,
									"numoutlets" : 1,
									"fontsize" : 9.0,
									"outlettype" : [ "" ]
								}

							}
, 							{
								"box" : 								{
									"maxclass" : "newobj",
									"text" : "route symbol",
									"patching_rect" : [ 50.0, 180.0, 62.0, 17.0 ],
									"id" : "obj-34",
									"fontname" : "Arial",
									"numinlets" : 1,
									"numoutlets" : 2,
									"fontsize" : 9.0,
									"outlettype" : [ "", "" ]
								}

							}
, 							{
								"box" : 								{
									"maxclass" : "button",
									"patching_rect" : [ 50.0, 100.0, 20.0, 20.0 ],
									"id" : "obj-32",
									"numinlets" : 1,
									"numoutlets" : 1,
									"outlettype" : [ "bang" ]
								}

							}
, 							{
								"box" : 								{
									"maxclass" : "newobj",
									"text" : "t dump clear",
									"patching_rect" : [ 50.0, 128.0, 77.0, 20.0 ],
									"id" : "obj-21",
									"fontname" : "Arial",
									"numinlets" : 1,
									"numoutlets" : 2,
									"fontsize" : 12.0,
									"outlettype" : [ "dump", "clear" ]
								}

							}
, 							{
								"box" : 								{
									"maxclass" : "newobj",
									"text" : "coll polyrhythm-exp 1",
									"patching_rect" : [ 50.0, 156.0, 96.0, 17.0 ],
									"id" : "obj-1",
									"fontname" : "Arial",
									"numinlets" : 1,
									"numoutlets" : 4,
									"fontsize" : 9.0,
									"outlettype" : [ "", "", "", "" ],
									"saved_object_attributes" : 									{
										"embed" : 0
									}

								}

							}
, 							{
								"box" : 								{
									"maxclass" : "outlet",
									"patching_rect" : [ 45.0, 277.0, 25.0, 25.0 ],
									"id" : "obj-15",
									"numinlets" : 1,
									"numoutlets" : 0,
									"comment" : ""
								}

							}
 ],
						"lines" : [ 							{
								"patchline" : 								{
									"source" : [ "obj-21", 1 ],
									"destination" : [ "obj-15", 0 ],
									"hidden" : 0,
									"midpoints" : [  ]
								}

							}
, 							{
								"patchline" : 								{
									"source" : [ "obj-35", 0 ],
									"destination" : [ "obj-15", 0 ],
									"hidden" : 0,
									"midpoints" : [  ]
								}

							}
, 							{
								"patchline" : 								{
									"source" : [ "obj-32", 0 ],
									"destination" : [ "obj-21", 0 ],
									"hidden" : 0,
									"midpoints" : [  ]
								}

							}
, 							{
								"patchline" : 								{
									"source" : [ "obj-21", 0 ],
									"destination" : [ "obj-1", 0 ],
									"hidden" : 0,
									"midpoints" : [  ]
								}

							}
, 							{
								"patchline" : 								{
									"source" : [ "obj-34", 0 ],
									"destination" : [ "obj-35", 0 ],
									"hidden" : 0,
									"midpoints" : [  ]
								}

							}
, 							{
								"patchline" : 								{
									"source" : [ "obj-34", 1 ],
									"destination" : [ "obj-35", 0 ],
									"hidden" : 0,
									"midpoints" : [  ]
								}

							}
, 							{
								"patchline" : 								{
									"source" : [ "obj-1", 0 ],
									"destination" : [ "obj-34", 0 ],
									"hidden" : 0,
									"midpoints" : [  ]
								}

							}
 ]
					}
,
					"saved_object_attributes" : 					{
						"default_fontsize" : 10.0,
						"fontname" : "Arial",
						"globalpatchername" : "",
						"fontface" : 0,
						"fontsize" : 10.0,
						"default_fontface" : 0,
						"default_fontname" : "Arial"
					}

				}

			}
, 			{
				"box" : 				{
					"maxclass" : "newobj",
					"text" : "s bufmenu",
					"patching_rect" : [ 216.0, 541.0, 55.0, 17.0 ],
					"id" : "obj-10",
					"fontname" : "Arial",
					"numinlets" : 1,
					"numoutlets" : 0,
					"fontsize" : 9.0
				}

			}
, 			{
				"box" : 				{
					"maxclass" : "newobj",
					"text" : "p prepare-and-load-buffers",
					"patching_rect" : [ 216.0, 520.0, 117.0, 17.0 ],
					"id" : "obj-11",
					"fontname" : "Arial",
					"numinlets" : 1,
					"numoutlets" : 1,
					"fontsize" : 9.0,
					"outlettype" : [ "" ],
					"patcher" : 					{
						"fileversion" : 1,
						"rect" : [ 310.0, 89.0, 664.0, 496.0 ],
						"bglocked" : 0,
						"defrect" : [ 310.0, 89.0, 664.0, 496.0 ],
						"openrect" : [ 0.0, 0.0, 0.0, 0.0 ],
						"openinpresentation" : 0,
						"default_fontsize" : 12.0,
						"default_fontface" : 0,
						"default_fontname" : "Arial",
						"gridonopen" : 0,
						"gridsize" : [ 4.0, 4.0 ],
						"gridsnaponopen" : 0,
						"toolbarvisible" : 1,
						"boxanimatetime" : 200,
						"imprint" : 0,
						"enablehscroll" : 1,
						"enablevscroll" : 1,
						"devicewidth" : 0.0,
						"boxes" : [ 							{
								"box" : 								{
									"maxclass" : "button",
									"patching_rect" : [ 288.0, 56.0, 20.0, 20.0 ],
									"id" : "obj-21",
									"numinlets" : 1,
									"numoutlets" : 1,
									"outlettype" : [ "bang" ]
								}

							}
, 							{
								"box" : 								{
									"maxclass" : "newobj",
									"text" : "buf_anything",
									"patching_rect" : [ 164.0, 192.0, 79.0, 20.0 ],
									"id" : "obj-19",
									"fontname" : "Arial",
									"numinlets" : 1,
									"numoutlets" : 0,
									"fontsize" : 12.0
								}

							}
, 							{
								"box" : 								{
									"maxclass" : "newobj",
									"text" : "route clear",
									"patching_rect" : [ 164.0, 60.0, 67.0, 20.0 ],
									"id" : "obj-18",
									"fontname" : "Arial",
									"numinlets" : 1,
									"numoutlets" : 2,
									"fontsize" : 12.0,
									"outlettype" : [ "", "" ]
								}

							}
, 							{
								"box" : 								{
									"maxclass" : "newobj",
									"text" : "samplefolder~ @name polyrhythm-exp @append 1",
									"patching_rect" : [ 164.0, 108.0, 283.0, 20.0 ],
									"id" : "obj-17",
									"fontname" : "Arial",
									"numinlets" : 1,
									"numoutlets" : 2,
									"fontsize" : 12.0,
									"outlettype" : [ "", "" ]
								}

							}
, 							{
								"box" : 								{
									"maxclass" : "newobj",
									"text" : "coll polyrhythm-exp 1",
									"patching_rect" : [ 288.0, 224.0, 96.0, 17.0 ],
									"id" : "obj-1",
									"fontname" : "Arial",
									"numinlets" : 1,
									"numoutlets" : 4,
									"fontsize" : 9.0,
									"outlettype" : [ "", "", "", "" ],
									"saved_object_attributes" : 									{
										"embed" : 0
									}

								}

							}
, 							{
								"box" : 								{
									"maxclass" : "message",
									"text" : "clear",
									"patching_rect" : [ 532.0, 340.0, 33.0, 15.0 ],
									"id" : "obj-3",
									"fontname" : "Arial",
									"numinlets" : 2,
									"numoutlets" : 1,
									"fontsize" : 9.0,
									"outlettype" : [ "" ]
								}

							}
, 							{
								"box" : 								{
									"maxclass" : "newobj",
									"text" : "loadbang",
									"patching_rect" : [ 532.0, 300.0, 48.0, 17.0 ],
									"id" : "obj-4",
									"fontname" : "Arial",
									"numinlets" : 1,
									"numoutlets" : 1,
									"fontsize" : 9.0,
									"outlettype" : [ "bang" ]
								}

							}
, 							{
								"box" : 								{
									"maxclass" : "inlet",
									"patching_rect" : [ 164.0, 16.0, 21.0, 21.0 ],
									"id" : "obj-15",
									"numinlets" : 0,
									"numoutlets" : 1,
									"outlettype" : [ "bang" ],
									"comment" : ""
								}

							}
, 							{
								"box" : 								{
									"maxclass" : "outlet",
									"patching_rect" : [ 404.0, 388.0, 24.0, 24.0 ],
									"id" : "obj-16",
									"numinlets" : 1,
									"numoutlets" : 0,
									"comment" : ""
								}

							}
 ],
						"lines" : [ 							{
								"patchline" : 								{
									"source" : [ "obj-15", 0 ],
									"destination" : [ "obj-18", 0 ],
									"hidden" : 0,
									"midpoints" : [  ]
								}

							}
, 							{
								"patchline" : 								{
									"source" : [ "obj-18", 0 ],
									"destination" : [ "obj-17", 0 ],
									"hidden" : 0,
									"midpoints" : [  ]
								}

							}
, 							{
								"patchline" : 								{
									"source" : [ "obj-18", 1 ],
									"destination" : [ "obj-17", 0 ],
									"hidden" : 0,
									"midpoints" : [  ]
								}

							}
, 							{
								"patchline" : 								{
									"source" : [ "obj-21", 0 ],
									"destination" : [ "obj-17", 0 ],
									"hidden" : 0,
									"midpoints" : [  ]
								}

							}
, 							{
								"patchline" : 								{
									"source" : [ "obj-17", 1 ],
									"destination" : [ "obj-16", 0 ],
									"hidden" : 0,
									"midpoints" : [  ]
								}

							}
, 							{
								"patchline" : 								{
									"source" : [ "obj-17", 0 ],
									"destination" : [ "obj-19", 0 ],
									"hidden" : 0,
									"midpoints" : [  ]
								}

							}
, 							{
								"patchline" : 								{
									"source" : [ "obj-3", 0 ],
									"destination" : [ "obj-16", 0 ],
									"hidden" : 0,
									"midpoints" : [  ]
								}

							}
, 							{
								"patchline" : 								{
									"source" : [ "obj-4", 0 ],
									"destination" : [ "obj-3", 0 ],
									"hidden" : 0,
									"midpoints" : [  ]
								}

							}
 ]
					}
,
					"saved_object_attributes" : 					{
						"default_fontsize" : 12.0,
						"fontname" : "Arial",
						"globalpatchername" : "",
						"fontface" : 0,
						"fontsize" : 12.0,
						"default_fontface" : 0,
						"default_fontname" : "Arial"
					}

				}

			}
, 			{
				"box" : 				{
					"maxclass" : "comment",
					"text" : "drop folder of sounds here",
					"linecount" : 4,
					"frgb" : [ 1.0, 1.0, 1.0, 1.0 ],
					"patching_rect" : [ 220.0, 410.0, 73.0, 75.0 ],
					"presentation" : 1,
					"id" : "obj-12",
					"fontname" : "Arial",
					"textcolor" : [ 1.0, 1.0, 1.0, 1.0 ],
					"numinlets" : 1,
					"numoutlets" : 0,
					"fontface" : 3,
					"fontsize" : 15.0,
					"presentation_rect" : [ 38.0, 127.0, 200.0, 24.0 ]
				}

			}
, 			{
				"box" : 				{
					"maxclass" : "dropfile",
					"types" : [  ],
					"patching_rect" : [ 216.0, 402.0, 79.0, 94.0 ],
					"presentation" : 1,
					"id" : "obj-73",
					"rounded" : 0.0,
					"numinlets" : 1,
					"bordercolor" : [ 0.392157, 0.435294, 0.482353, 1.0 ],
					"numoutlets" : 2,
					"outlettype" : [ "", "" ],
					"presentation_rect" : [ 20.0, 84.0, 227.0, 113.0 ],
					"ignoreclick" : 1
				}

			}
, 			{
				"box" : 				{
					"maxclass" : "panel",
					"patching_rect" : [ 214.0, 401.0, 80.0, 97.0 ],
					"presentation" : 1,
					"id" : "obj-103",
					"numinlets" : 1,
					"numoutlets" : 0,
					"presentation_rect" : [ 18.0, 83.0, 228.0, 116.0 ],
					"bgcolor" : [ 0.501961, 0.501961, 0.501961, 0.286275 ]
				}

			}
, 			{
				"box" : 				{
					"maxclass" : "newobj",
					"text" : "/ 8.",
					"patching_rect" : [ 120.0, 384.0, 32.5, 20.0 ],
					"id" : "obj-27",
					"fontname" : "Arial",
					"numinlets" : 2,
					"numoutlets" : 1,
					"fontsize" : 12.0,
					"outlettype" : [ "float" ]
				}

			}
, 			{
				"box" : 				{
					"maxclass" : "message",
					"text" : "set $1",
					"patching_rect" : [ 272.0, 340.0, 35.0, 15.0 ],
					"id" : "obj-33",
					"fontname" : "Arial",
					"numinlets" : 2,
					"numoutlets" : 1,
					"fontsize" : 9.0,
					"outlettype" : [ "" ]
				}

			}
, 			{
				"box" : 				{
					"maxclass" : "message",
					"text" : "/startBPM $1",
					"patching_rect" : [ 328.0, 348.0, 63.0, 15.0 ],
					"id" : "obj-49",
					"fontname" : "Arial",
					"numinlets" : 2,
					"numoutlets" : 1,
					"fontsize" : 9.0,
					"outlettype" : [ "" ]
				}

			}
, 			{
				"box" : 				{
					"maxclass" : "newobj",
					"text" : "r settempo",
					"patching_rect" : [ 328.0, 320.0, 67.0, 20.0 ],
					"id" : "obj-47",
					"fontname" : "Arial",
					"numinlets" : 0,
					"numoutlets" : 1,
					"fontsize" : 12.0,
					"outlettype" : [ "" ]
				}

			}
, 			{
				"box" : 				{
					"maxclass" : "newobj",
					"varname" : "divided-steps[2]",
					"text" : "print readstate",
					"patching_rect" : [ 92.0, 672.0, 74.0, 18.0 ],
					"id" : "obj-25",
					"fontname" : "Arial",
					"numinlets" : 1,
					"numoutlets" : 0,
					"fontsize" : 10.0
				}

			}
, 			{
				"box" : 				{
					"maxclass" : "newobj",
					"text" : "p init_audio",
					"patching_rect" : [ 240.0, 184.0, 72.0, 20.0 ],
					"id" : "obj-24",
					"fontname" : "Arial",
					"numinlets" : 0,
					"numoutlets" : 2,
					"fontsize" : 12.0,
					"outlettype" : [ "", "" ],
					"patcher" : 					{
						"fileversion" : 1,
						"rect" : [ 25.0, 69.0, 509.0, 451.0 ],
						"bglocked" : 0,
						"defrect" : [ 25.0, 69.0, 509.0, 451.0 ],
						"openrect" : [ 0.0, 0.0, 0.0, 0.0 ],
						"openinpresentation" : 0,
						"default_fontsize" : 10.0,
						"default_fontface" : 0,
						"default_fontname" : "Arial",
						"gridonopen" : 0,
						"gridsize" : [ 4.0, 4.0 ],
						"gridsnaponopen" : 0,
						"toolbarvisible" : 1,
						"boxanimatetime" : 200,
						"imprint" : 0,
						"enablehscroll" : 1,
						"enablevscroll" : 1,
						"devicewidth" : 0.0,
						"boxes" : [ 							{
								"box" : 								{
									"maxclass" : "outlet",
									"patching_rect" : [ 248.0, 284.0, 25.0, 25.0 ],
									"id" : "obj-4",
									"numinlets" : 1,
									"numoutlets" : 0,
									"comment" : ""
								}

							}
, 							{
								"box" : 								{
									"maxclass" : "message",
									"text" : "gain 140",
									"patching_rect" : [ 276.0, 240.0, 57.0, 18.0 ],
									"id" : "obj-3",
									"fontname" : "Arial",
									"numinlets" : 2,
									"numoutlets" : 1,
									"fontsize" : 12.0,
									"outlettype" : [ "" ]
								}

							}
, 							{
								"box" : 								{
									"maxclass" : "message",
									"text" : "1",
									"patching_rect" : [ 116.0, 200.0, 32.5, 18.0 ],
									"id" : "obj-2",
									"fontname" : "Arial",
									"numinlets" : 2,
									"numoutlets" : 1,
									"fontsize" : 12.0,
									"outlettype" : [ "" ]
								}

							}
, 							{
								"box" : 								{
									"maxclass" : "newobj",
									"text" : "delay 50",
									"patching_rect" : [ 116.0, 168.0, 56.0, 20.0 ],
									"id" : "obj-1",
									"fontname" : "Arial",
									"numinlets" : 2,
									"numoutlets" : 1,
									"fontsize" : 12.0,
									"outlettype" : [ "bang" ]
								}

							}
, 							{
								"box" : 								{
									"maxclass" : "message",
									"text" : "0",
									"patching_rect" : [ 52.0, 168.0, 32.5, 18.0 ],
									"id" : "obj-18",
									"fontname" : "Arial",
									"numinlets" : 2,
									"numoutlets" : 1,
									"fontsize" : 12.0,
									"outlettype" : [ "" ]
								}

							}
, 							{
								"box" : 								{
									"maxclass" : "newobj",
									"text" : "delay 800",
									"patching_rect" : [ 60.0, 120.0, 63.0, 20.0 ],
									"id" : "obj-13",
									"fontname" : "Arial",
									"numinlets" : 2,
									"numoutlets" : 1,
									"fontsize" : 12.0,
									"outlettype" : [ "bang" ]
								}

							}
, 							{
								"box" : 								{
									"maxclass" : "newobj",
									"text" : "loadbang",
									"patching_rect" : [ 48.0, 76.0, 60.0, 20.0 ],
									"id" : "obj-6",
									"fontname" : "Arial",
									"numinlets" : 1,
									"numoutlets" : 1,
									"fontsize" : 12.0,
									"outlettype" : [ "bang" ]
								}

							}
, 							{
								"box" : 								{
									"maxclass" : "outlet",
									"patching_rect" : [ 59.0, 242.0, 25.0, 25.0 ],
									"id" : "obj-30",
									"numinlets" : 1,
									"numoutlets" : 0,
									"comment" : ""
								}

							}
 ],
						"lines" : [ 							{
								"patchline" : 								{
									"source" : [ "obj-1", 0 ],
									"destination" : [ "obj-2", 0 ],
									"hidden" : 0,
									"midpoints" : [  ]
								}

							}
, 							{
								"patchline" : 								{
									"source" : [ "obj-18", 0 ],
									"destination" : [ "obj-30", 0 ],
									"hidden" : 0,
									"midpoints" : [  ]
								}

							}
, 							{
								"patchline" : 								{
									"source" : [ "obj-2", 0 ],
									"destination" : [ "obj-30", 0 ],
									"hidden" : 0,
									"midpoints" : [  ]
								}

							}
, 							{
								"patchline" : 								{
									"source" : [ "obj-3", 0 ],
									"destination" : [ "obj-30", 0 ],
									"hidden" : 0,
									"midpoints" : [  ]
								}

							}
, 							{
								"patchline" : 								{
									"source" : [ "obj-2", 0 ],
									"destination" : [ "obj-4", 0 ],
									"hidden" : 0,
									"midpoints" : [  ]
								}

							}
, 							{
								"patchline" : 								{
									"source" : [ "obj-13", 0 ],
									"destination" : [ "obj-3", 0 ],
									"hidden" : 0,
									"midpoints" : [  ]
								}

							}
, 							{
								"patchline" : 								{
									"source" : [ "obj-6", 0 ],
									"destination" : [ "obj-13", 0 ],
									"hidden" : 0,
									"midpoints" : [  ]
								}

							}
, 							{
								"patchline" : 								{
									"source" : [ "obj-13", 0 ],
									"destination" : [ "obj-18", 0 ],
									"hidden" : 0,
									"midpoints" : [  ]
								}

							}
, 							{
								"patchline" : 								{
									"source" : [ "obj-13", 0 ],
									"destination" : [ "obj-1", 0 ],
									"hidden" : 0,
									"midpoints" : [  ]
								}

							}
 ]
					}
,
					"saved_object_attributes" : 					{
						"default_fontsize" : 10.0,
						"fontname" : "Arial",
						"globalpatchername" : "",
						"fontface" : 0,
						"fontsize" : 10.0,
						"default_fontface" : 0,
						"default_fontname" : "Arial"
					}

				}

			}
, 			{
				"box" : 				{
					"maxclass" : "newobj",
					"varname" : "bpm",
					"text" : "pattr bpm",
					"patching_rect" : [ 228.0, 216.0, 61.0, 20.0 ],
					"id" : "obj-69",
					"fontname" : "Arial",
					"numinlets" : 1,
					"numoutlets" : 3,
					"fontsize" : 12.0,
					"outlettype" : [ "", "", "" ],
					"restore" : [ 120.0 ],
					"saved_object_attributes" : 					{
						"parameter_enable" : 0
					}

				}

			}
, 			{
				"box" : 				{
					"maxclass" : "message",
					"text" : "readagain",
					"patching_rect" : [ 160.0, 660.0, 64.0, 18.0 ],
					"id" : "obj-2",
					"fontname" : "Arial",
					"numinlets" : 2,
					"numoutlets" : 1,
					"fontsize" : 12.0,
					"outlettype" : [ "" ]
				}

			}
, 			{
				"box" : 				{
					"maxclass" : "newobj",
					"varname" : "divided-steps[1]",
					"text" : "prepend /pstoreget",
					"patching_rect" : [ 8.0, 664.0, 94.0, 18.0 ],
					"id" : "obj-18",
					"fontname" : "Arial",
					"numinlets" : 1,
					"numoutlets" : 1,
					"fontsize" : 10.0,
					"outlettype" : [ "" ]
				}

			}
, 			{
				"box" : 				{
					"maxclass" : "message",
					"text" : "writeagain",
					"patching_rect" : [ 160.0, 640.0, 65.0, 18.0 ],
					"id" : "obj-42",
					"fontname" : "Arial",
					"numinlets" : 2,
					"numoutlets" : 1,
					"fontsize" : 12.0,
					"outlettype" : [ "" ]
				}

			}
, 			{
				"box" : 				{
					"maxclass" : "newobj",
					"varname" : "polyrhythms",
					"text" : "pattrstorage polyrhythms",
					"patching_rect" : [ 8.0, 644.0, 121.0, 18.0 ],
					"id" : "obj-43",
					"fontname" : "Arial",
					"numinlets" : 1,
					"numoutlets" : 1,
					"fontsize" : 10.0,
					"outlettype" : [ "" ],
					"autorestore" : "polyrhythms.xml",
					"saved_object_attributes" : 					{
						"client_rect" : [ 4, 44, 358, 172 ],
						"parameter_enable" : 0,
						"storage_rect" : [ 365, 44, 816, 172 ],
						"paraminitmode" : 0
					}

				}

			}
, 			{
				"box" : 				{
					"maxclass" : "bpatcher",
					"patching_rect" : [ 8.0, 576.0, 352.0, 56.0 ],
					"presentation" : 1,
					"id" : "obj-61",
					"name" : "pstore-simple-storage.maxpat",
					"numinlets" : 1,
					"args" : [ "divided-steps.xml", 12 ],
					"numoutlets" : 2,
					"outlettype" : [ "", "" ],
					"offset" : [ 0.69639, 0.727707 ],
					"presentation_rect" : [ 12.0, 396.0, 352.0, 56.0 ]
				}

			}
, 			{
				"box" : 				{
					"maxclass" : "message",
					"text" : "setup_reverb",
					"patching_rect" : [ 8.0, 184.0, 81.0, 18.0 ],
					"presentation" : 1,
					"id" : "obj-74",
					"fontname" : "Arial",
					"numinlets" : 2,
					"numoutlets" : 1,
					"fontsize" : 12.0,
					"outlettype" : [ "" ],
					"presentation_rect" : [ 1340.0, 16.0, 81.0, 18.0 ]
				}

			}
, 			{
				"box" : 				{
					"maxclass" : "newobj",
					"text" : "loadbang",
					"patching_rect" : [ 8.0, 468.0, 48.0, 17.0 ],
					"id" : "obj-72",
					"fontname" : "Arial",
					"numinlets" : 1,
					"numoutlets" : 1,
					"fontsize" : 9.0,
					"outlettype" : [ "bang" ]
				}

			}
, 			{
				"box" : 				{
					"maxclass" : "comment",
					"text" : "global resonance",
					"frgb" : [ 1.0, 1.0, 1.0, 1.0 ],
					"patching_rect" : [ 64.0, 768.0, 115.0, 20.0 ],
					"presentation" : 1,
					"id" : "obj-75",
					"fontname" : "Arial",
					"textcolor" : [ 1.0, 1.0, 1.0, 1.0 ],
					"numinlets" : 1,
					"numoutlets" : 0,
					"fontface" : 3,
					"fontsize" : 12.0,
					"presentation_rect" : [ 584.0, 48.0, 115.0, 20.0 ]
				}

			}
, 			{
				"box" : 				{
					"maxclass" : "number",
					"patching_rect" : [ 12.0, 764.0, 50.0, 20.0 ],
					"presentation" : 1,
					"id" : "obj-50",
					"fontname" : "Arial",
					"numinlets" : 1,
					"maximum" : 2500,
					"numoutlets" : 2,
					"minimum" : 20,
					"fontsize" : 12.0,
					"outlettype" : [ "int", "bang" ],
					"presentation_rect" : [ 532.0, 48.0, 50.0, 20.0 ],
					"bgcolor" : [ 0.278431, 0.921569, 0.639216, 1.0 ]
				}

			}
, 			{
				"box" : 				{
					"maxclass" : "bpatcher",
					"patching_rect" : [ 12.0, 92.0, 296.0, 86.0 ],
					"presentation" : 1,
					"id" : "obj-51",
					"name" : "badge.maxpat",
					"numinlets" : 0,
					"args" : [ "polyrhythm-explorer-s", "1.0a", "E.Campion & J.Lubow", "polyrhythm-explorer-s", 6666 ],
					"numoutlets" : 0,
					"offset" : [ 2.0, 3.0 ],
					"presentation_rect" : [ 12.0, 304.0, 296.0, 88.0 ]
				}

			}
, 			{
				"box" : 				{
					"maxclass" : "comment",
					"text" : "New (immediate) TACTUS",
					"frgb" : [ 1.0, 1.0, 1.0, 1.0 ],
					"patching_rect" : [ 128.0, 332.0, 154.0, 20.0 ],
					"presentation" : 1,
					"id" : "obj-54",
					"fontname" : "Arial",
					"textcolor" : [ 1.0, 1.0, 1.0, 1.0 ],
					"numinlets" : 1,
					"numoutlets" : 0,
					"fontface" : 2,
					"fontsize" : 12.0,
					"presentation_rect" : [ 1112.0, 48.0, 152.0, 20.0 ]
				}

			}
, 			{
				"box" : 				{
					"maxclass" : "flonum",
					"varname" : "flonum",
					"patching_rect" : [ 212.0, 280.0, 84.0, 20.0 ],
					"presentation" : 1,
					"id" : "obj-202",
					"fontname" : "Arial",
					"textcolor" : [ 1.0, 1.0, 1.0, 1.0 ],
					"numinlets" : 1,
					"bordercolor" : [ 0.658824, 0.658824, 0.658824, 1.0 ],
					"triscale" : 0.9,
					"numoutlets" : 2,
					"fontsize" : 12.0,
					"outlettype" : [ "float", "bang" ],
					"htextcolor" : [ 0.870588, 0.870588, 0.870588, 1.0 ],
					"presentation_rect" : [ 1040.0, 48.0, 68.0, 20.0 ],
					"bgcolor" : [ 0.0, 0.0, 0.0, 1.0 ]
				}

			}
, 			{
				"box" : 				{
					"maxclass" : "toggle",
					"patching_rect" : [ 204.0, 744.0, 25.0, 25.0 ],
					"presentation" : 1,
					"id" : "obj-153",
					"numinlets" : 1,
					"numoutlets" : 1,
					"outlettype" : [ "int" ],
					"presentation_rect" : [ 544.0, 16.0, 24.0, 24.0 ],
					"bgcolor" : [ 0.945098, 0.913725, 0.407843, 1.0 ]
				}

			}
, 			{
				"box" : 				{
					"maxclass" : "comment",
					"text" : "global seq mute",
					"frgb" : [ 1.0, 1.0, 1.0, 1.0 ],
					"patching_rect" : [ 204.0, 704.0, 115.0, 20.0 ],
					"presentation" : 1,
					"id" : "obj-151",
					"fontname" : "Arial",
					"textcolor" : [ 1.0, 1.0, 1.0, 1.0 ],
					"numinlets" : 1,
					"numoutlets" : 0,
					"fontface" : 3,
					"fontsize" : 12.0,
					"presentation_rect" : [ 568.0, 16.0, 104.39756, 20.0 ]
				}

			}
, 			{
				"box" : 				{
					"maxclass" : "message",
					"text" : "40",
					"patching_rect" : [ 268.0, 256.0, 27.0, 15.0 ],
					"presentation" : 1,
					"id" : "obj-60",
					"fontname" : "Arial",
					"textcolor" : [ 0.192157, 0.290196, 0.290196, 1.0 ],
					"numinlets" : 2,
					"bgcolor2" : [ 1.0, 1.0, 1.0, 1.0 ],
					"numoutlets" : 1,
					"fontsize" : 9.0,
					"outlettype" : [ "" ],
					"presentation_rect" : [ 964.0, 52.0, 32.5, 15.0 ],
					"bgcolor" : [ 1.0, 1.0, 1.0, 1.0 ]
				}

			}
, 			{
				"box" : 				{
					"maxclass" : "comment",
					"text" : "global steps on/off",
					"linecount" : 2,
					"frgb" : [ 1.0, 1.0, 1.0, 1.0 ],
					"patching_rect" : [ 120.0, 704.0, 83.0, 34.0 ],
					"presentation" : 1,
					"id" : "obj-150",
					"fontname" : "Arial",
					"textcolor" : [ 1.0, 1.0, 1.0, 1.0 ],
					"numinlets" : 1,
					"numoutlets" : 0,
					"fontface" : 3,
					"fontsize" : 12.0,
					"presentation_rect" : [ 420.0, 16.0, 117.0, 20.0 ]
				}

			}
, 			{
				"box" : 				{
					"maxclass" : "toggle",
					"patching_rect" : [ 120.0, 744.0, 25.0, 25.0 ],
					"presentation" : 1,
					"id" : "obj-148",
					"numinlets" : 1,
					"bordercolor" : [ 1.0, 1.0, 1.0, 1.0 ],
					"numoutlets" : 1,
					"outlettype" : [ "int" ],
					"presentation_rect" : [ 392.0, 16.0, 24.0, 24.0 ],
					"bgcolor" : [ 0.917647, 0.839216, 0.917647, 1.0 ]
				}

			}
, 			{
				"box" : 				{
					"maxclass" : "comment",
					"text" : "global timbre",
					"frgb" : [ 1.0, 1.0, 1.0, 1.0 ],
					"patching_rect" : [ 12.0, 704.0, 107.0, 20.0 ],
					"presentation" : 1,
					"id" : "obj-147",
					"fontname" : "Arial",
					"textcolor" : [ 1.0, 1.0, 1.0, 1.0 ],
					"numinlets" : 1,
					"numoutlets" : 0,
					"fontface" : 3,
					"fontsize" : 12.0,
					"presentation_rect" : [ 436.0, 52.0, 107.0, 20.0 ]
				}

			}
, 			{
				"box" : 				{
					"maxclass" : "number",
					"patching_rect" : [ 12.0, 724.0, 50.0, 20.0 ],
					"presentation" : 1,
					"id" : "obj-146",
					"fontname" : "Arial",
					"textcolor" : [ 1.0, 1.0, 1.0, 1.0 ],
					"numinlets" : 1,
					"maximum" : 100,
					"bordercolor" : [ 0.27451, 0.254902, 0.254902, 1.0 ],
					"numoutlets" : 2,
					"tricolor" : [ 0.509804, 0.478431, 0.478431, 0.0 ],
					"minimum" : 0,
					"fontsize" : 12.0,
					"outlettype" : [ "int", "bang" ],
					"presentation_rect" : [ 396.0, 52.0, 32.0, 20.0 ],
					"bgcolor" : [ 0.27451, 0.254902, 0.254902, 1.0 ]
				}

			}
, 			{
				"box" : 				{
					"maxclass" : "message",
					"text" : "10",
					"patching_rect" : [ 308.0, 256.0, 27.0, 15.0 ],
					"presentation" : 1,
					"id" : "obj-62",
					"fontname" : "Arial",
					"textcolor" : [ 0.192157, 0.290196, 0.290196, 1.0 ],
					"numinlets" : 2,
					"bgcolor2" : [ 1.0, 1.0, 1.0, 1.0 ],
					"numoutlets" : 1,
					"fontsize" : 9.0,
					"outlettype" : [ "" ],
					"presentation_rect" : [ 1000.0, 52.0, 32.5, 15.0 ],
					"bgcolor" : [ 1.0, 1.0, 1.0, 1.0 ]
				}

			}
, 			{
				"box" : 				{
					"maxclass" : "message",
					"text" : "60",
					"patching_rect" : [ 228.0, 256.0, 27.0, 15.0 ],
					"presentation" : 1,
					"id" : "obj-64",
					"fontname" : "Arial",
					"textcolor" : [ 0.192157, 0.290196, 0.290196, 1.0 ],
					"numinlets" : 2,
					"bgcolor2" : [ 1.0, 1.0, 1.0, 1.0 ],
					"numoutlets" : 1,
					"fontsize" : 9.0,
					"outlettype" : [ "" ],
					"presentation_rect" : [ 928.0, 52.0, 32.5, 15.0 ],
					"bgcolor" : [ 1.0, 1.0, 1.0, 1.0 ]
				}

			}
, 			{
				"box" : 				{
					"maxclass" : "message",
					"text" : "120",
					"patching_rect" : [ 148.0, 256.0, 26.0, 15.0 ],
					"presentation" : 1,
					"id" : "obj-65",
					"fontname" : "Arial",
					"textcolor" : [ 0.192157, 0.290196, 0.290196, 1.0 ],
					"numinlets" : 2,
					"bgcolor2" : [ 1.0, 1.0, 1.0, 1.0 ],
					"numoutlets" : 1,
					"fontsize" : 9.0,
					"outlettype" : [ "" ],
					"presentation_rect" : [ 856.0, 52.0, 32.5, 15.0 ],
					"bgcolor" : [ 1.0, 1.0, 1.0, 1.0 ]
				}

			}
, 			{
				"box" : 				{
					"maxclass" : "message",
					"text" : "80",
					"patching_rect" : [ 188.0, 256.0, 27.0, 15.0 ],
					"presentation" : 1,
					"id" : "obj-66",
					"fontname" : "Arial",
					"textcolor" : [ 0.192157, 0.290196, 0.290196, 1.0 ],
					"numinlets" : 2,
					"bgcolor2" : [ 1.0, 1.0, 1.0, 1.0 ],
					"numoutlets" : 1,
					"fontsize" : 9.0,
					"outlettype" : [ "" ],
					"presentation_rect" : [ 892.0, 52.0, 32.5, 15.0 ],
					"bgcolor" : [ 1.0, 1.0, 1.0, 1.0 ]
				}

			}
, 			{
				"box" : 				{
					"maxclass" : "message",
					"text" : "/stop",
					"patching_rect" : [ 160.0, 356.0, 42.0, 19.0 ],
					"presentation" : 1,
					"id" : "obj-67",
					"fontname" : "Arial",
					"textcolor" : [ 0.082353, 0.407843, 0.407843, 1.0 ],
					"numinlets" : 2,
					"bgcolor2" : [ 1.0, 1.0, 1.0, 1.0 ],
					"numoutlets" : 1,
					"fontsize" : 13.0,
					"outlettype" : [ "" ],
					"presentation_rect" : [ 1384.0, 48.0, 39.0, 19.0 ],
					"bgcolor" : [ 1.0, 1.0, 1.0, 1.0 ]
				}

			}
, 			{
				"box" : 				{
					"maxclass" : "bpatcher",
					"prototypename" : "cnmat_stereoGain",
					"patching_rect" : [ 8.0, 240.0, 100.0, 192.0 ],
					"presentation" : 1,
					"id" : "obj-26",
					"name" : "simple-stereo-gain~.maxpat",
					"numinlets" : 3,
					"args" : [  ],
					"numoutlets" : 2,
					"outlettype" : [ "signal", "signal" ],
					"presentation_rect" : [ 256.0, 80.0, 100.0, 192.0 ]
				}

			}
, 			{
				"box" : 				{
					"maxclass" : "newobj",
					"text" : "s glob_polyvocstate",
					"patching_rect" : [ 120.0, 792.0, 116.0, 20.0 ],
					"id" : "obj-9",
					"fontname" : "Arial",
					"numinlets" : 1,
					"numoutlets" : 0,
					"fontsize" : 12.0
				}

			}
, 			{
				"box" : 				{
					"maxclass" : "newobj",
					"text" : "s glob_polyres",
					"patching_rect" : [ 12.0, 796.0, 88.0, 20.0 ],
					"id" : "obj-8",
					"fontname" : "Arial",
					"numinlets" : 1,
					"numoutlets" : 0,
					"fontsize" : 12.0
				}

			}
, 			{
				"box" : 				{
					"maxclass" : "newobj",
					"text" : "s glob_polytimbre",
					"patching_rect" : [ 12.0, 820.0, 105.0, 20.0 ],
					"id" : "obj-7",
					"fontname" : "Arial",
					"numinlets" : 1,
					"numoutlets" : 0,
					"fontsize" : 12.0
				}

			}
, 			{
				"box" : 				{
					"maxclass" : "newobj",
					"text" : "s glob_polymute",
					"patching_rect" : [ 204.0, 772.0, 98.0, 20.0 ],
					"id" : "obj-5",
					"fontname" : "Arial",
					"numinlets" : 1,
					"numoutlets" : 0,
					"fontsize" : 12.0
				}

			}
, 			{
				"box" : 				{
					"maxclass" : "bpatcher",
					"varname" : "polyrhythm_basic_module[6]",
					"patching_rect" : [ 404.0, 16.0, 1068.0, 120.0 ],
					"presentation" : 1,
					"id" : "obj-4",
					"name" : "polyrhythm_basic_samp.maxpat",
					"numinlets" : 1,
					"args" : [ 60, "beat" ],
					"numoutlets" : 0,
					"offset" : [ -1.0, -1.0 ],
					"presentation_rect" : [ 372.0, 80.0, 1068.0, 122.0 ]
				}

			}
, 			{
				"box" : 				{
					"maxclass" : "newobj",
					"text" : "receive~ main_clicks",
					"patching_rect" : [ 68.0, 208.0, 122.0, 20.0 ],
					"id" : "obj-3",
					"fontname" : "Arial",
					"numinlets" : 1,
					"numoutlets" : 1,
					"fontsize" : 12.0,
					"outlettype" : [ "signal" ]
				}

			}
, 			{
				"box" : 				{
					"maxclass" : "comment",
					"text" : "tempo control",
					"frgb" : [ 1.0, 1.0, 1.0, 1.0 ],
					"patching_rect" : [ 116.0, 232.0, 91.0, 20.0 ],
					"id" : "obj-79",
					"fontname" : "Arial",
					"textcolor" : [ 1.0, 1.0, 1.0, 1.0 ],
					"numinlets" : 1,
					"numoutlets" : 0,
					"fontface" : 3,
					"fontsize" : 12.0
				}

			}
, 			{
				"box" : 				{
					"maxclass" : "message",
					"text" : ";\rmax preempt 1;\rdsp takeover 1;\rdsp sigvs 64;\rdsp iovs 64;\rdsp sr 44100",
					"linecount" : 6,
					"patching_rect" : [ 8.0, 496.0, 82.0, 67.0 ],
					"id" : "obj-6",
					"fontname" : "Arial",
					"textcolor" : [ 1.0, 1.0, 1.0, 1.0 ],
					"numinlets" : 2,
					"bgcolor2" : [ 0.290196, 0.290196, 0.290196, 1.0 ],
					"numoutlets" : 1,
					"fontsize" : 9.0,
					"outlettype" : [ "" ],
					"bgcolor" : [ 0.290196, 0.290196, 0.290196, 1.0 ]
				}

			}
, 			{
				"box" : 				{
					"maxclass" : "message",
					"text" : "/BPM $1",
					"patching_rect" : [ 120.0, 412.0, 57.0, 18.0 ],
					"id" : "obj-1746",
					"fontname" : "Arial",
					"numinlets" : 2,
					"bgcolor2" : [ 0.8, 0.8, 0.8, 1.0 ],
					"numoutlets" : 1,
					"fontsize" : 12.0,
					"outlettype" : [ "" ],
					"bgcolor" : [ 0.8, 0.8, 0.8, 1.0 ]
				}

			}
, 			{
				"box" : 				{
					"maxclass" : "newobj",
					"varname" : "reverb",
					"text" : "p reverb",
					"patching_rect" : [ 8.0, 208.0, 55.0, 20.0 ],
					"id" : "obj-567",
					"fontname" : "Arial",
					"numinlets" : 1,
					"numoutlets" : 1,
					"fontsize" : 12.0,
					"outlettype" : [ "signal" ],
					"patcher" : 					{
						"fileversion" : 1,
						"rect" : [ 260.0, 179.0, 393.0, 125.0 ],
						"bglocked" : 0,
						"defrect" : [ 260.0, 179.0, 393.0, 125.0 ],
						"openrect" : [ 0.0, 0.0, 0.0, 0.0 ],
						"openinpresentation" : 1,
						"default_fontsize" : 12.0,
						"default_fontface" : 0,
						"default_fontname" : "Arial",
						"gridonopen" : 0,
						"gridsize" : [ 4.0, 4.0 ],
						"gridsnaponopen" : 0,
						"toolbarvisible" : 1,
						"boxanimatetime" : 200,
						"imprint" : 0,
						"enablehscroll" : 1,
						"enablevscroll" : 1,
						"devicewidth" : 0.0,
						"boxes" : [ 							{
								"box" : 								{
									"maxclass" : "newobj",
									"varname" : "u969001923",
									"text" : "autopattr @autorestore 0",
									"patching_rect" : [ 204.0, 244.0, 144.0, 20.0 ],
									"id" : "obj-6",
									"fontname" : "Arial",
									"numinlets" : 1,
									"numoutlets" : 4,
									"fontsize" : 12.0,
									"outlettype" : [ "", "", "", "" ],
									"restore" : 									{
										"HF_damping" : [ 1 ],
										"decay_time" : [ 34 ],
										"diffusion" : [ 0 ],
										"room_size" : [ 34 ]
									}

								}

							}
, 							{
								"box" : 								{
									"maxclass" : "newobj",
									"text" : "t front",
									"hidden" : 1,
									"patching_rect" : [ 12.0, 48.0, 41.0, 20.0 ],
									"id" : "obj-3",
									"fontname" : "Arial",
									"numinlets" : 1,
									"numoutlets" : 1,
									"fontsize" : 12.0,
									"outlettype" : [ "front" ]
								}

							}
, 							{
								"box" : 								{
									"maxclass" : "newobj",
									"text" : "thispatcher",
									"hidden" : 1,
									"patching_rect" : [ 12.0, 72.0, 69.0, 20.0 ],
									"id" : "obj-2",
									"fontname" : "Arial",
									"numinlets" : 1,
									"numoutlets" : 2,
									"fontsize" : 12.0,
									"outlettype" : [ "", "" ],
									"save" : [ "#N", "thispatcher", ";", "#Q", "end", ";" ]
								}

							}
, 							{
								"box" : 								{
									"maxclass" : "inlet",
									"hidden" : 1,
									"patching_rect" : [ 12.0, 20.0, 25.0, 25.0 ],
									"id" : "obj-1",
									"numinlets" : 0,
									"numoutlets" : 1,
									"outlettype" : [ "" ],
									"comment" : ""
								}

							}
, 							{
								"box" : 								{
									"maxclass" : "newobj",
									"text" : "receive~ reverb",
									"patching_rect" : [ 10.0, 99.0, 94.0, 20.0 ],
									"id" : "obj-556",
									"fontname" : "Arial",
									"numinlets" : 1,
									"numoutlets" : 1,
									"fontsize" : 12.0,
									"outlettype" : [ "signal" ]
								}

							}
, 							{
								"box" : 								{
									"maxclass" : "message",
									"text" : "0",
									"hidden" : 1,
									"patching_rect" : [ 320.0, 176.0, 32.5, 18.0 ],
									"id" : "obj-44",
									"fontname" : "Arial",
									"numinlets" : 2,
									"numoutlets" : 1,
									"fontsize" : 12.0,
									"outlettype" : [ "" ]
								}

							}
, 							{
								"box" : 								{
									"maxclass" : "comment",
									"text" : "diffusion",
									"frgb" : [ 0.0, 0.0, 0.0, 1.0 ],
									"patching_rect" : [ 397.0, 88.0, 55.0, 20.0 ],
									"presentation" : 1,
									"id" : "obj-43",
									"fontname" : "Arial",
									"numinlets" : 1,
									"numoutlets" : 0,
									"fontsize" : 12.0,
									"presentation_rect" : [ 212.0, 80.0, 55.0, 20.0 ]
								}

							}
, 							{
								"box" : 								{
									"maxclass" : "message",
									"text" : "/diffusion $1",
									"patching_rect" : [ 331.0, 117.0, 75.0, 18.0 ],
									"id" : "obj-40",
									"fontname" : "Arial",
									"numinlets" : 2,
									"numoutlets" : 1,
									"fontsize" : 12.0,
									"outlettype" : [ "" ]
								}

							}
, 							{
								"box" : 								{
									"maxclass" : "number",
									"patching_rect" : [ 331.0, 94.0, 50.0, 20.0 ],
									"presentation" : 1,
									"id" : "obj-41",
									"fontname" : "Arial",
									"numinlets" : 1,
									"numoutlets" : 2,
									"fontsize" : 12.0,
									"outlettype" : [ "int", "bang" ],
									"presentation_rect" : [ 6.0, 80.0, 48.0, 20.0 ]
								}

							}
, 							{
								"box" : 								{
									"maxclass" : "slider",
									"varname" : "diffusion",
									"patching_rect" : [ 331.0, 70.0, 144.0, 18.0 ],
									"presentation" : 1,
									"id" : "obj-42",
									"knobcolor" : [ 0.4, 0.4, 0.8, 1.0 ],
									"numinlets" : 1,
									"orientation" : 1,
									"bordercolor" : [ 0.588235, 0.588235, 0.709804, 1.0 ],
									"numoutlets" : 1,
									"outlettype" : [ "" ],
									"presentation_rect" : [ 60.0, 82.0, 144.0, 18.0 ]
								}

							}
, 							{
								"box" : 								{
									"maxclass" : "comment",
									"text" : "high frequency damping",
									"frgb" : [ 0.0, 0.0, 0.0, 1.0 ],
									"patching_rect" : [ 397.0, 48.0, 144.0, 20.0 ],
									"presentation" : 1,
									"id" : "obj-39",
									"fontname" : "Arial",
									"numinlets" : 1,
									"numoutlets" : 0,
									"fontsize" : 12.0,
									"presentation_rect" : [ 212.0, 56.0, 144.0, 20.0 ]
								}

							}
, 							{
								"box" : 								{
									"maxclass" : "message",
									"text" : "/damping $1",
									"patching_rect" : [ 254.0, 96.0, 77.0, 18.0 ],
									"id" : "obj-36",
									"fontname" : "Arial",
									"numinlets" : 2,
									"numoutlets" : 1,
									"fontsize" : 12.0,
									"outlettype" : [ "" ]
								}

							}
, 							{
								"box" : 								{
									"maxclass" : "number",
									"patching_rect" : [ 254.0, 73.0, 50.0, 20.0 ],
									"presentation" : 1,
									"id" : "obj-37",
									"fontname" : "Arial",
									"numinlets" : 1,
									"numoutlets" : 2,
									"fontsize" : 12.0,
									"outlettype" : [ "int", "bang" ],
									"presentation_rect" : [ 6.0, 56.0, 48.0, 20.0 ]
								}

							}
, 							{
								"box" : 								{
									"maxclass" : "slider",
									"varname" : "HF_damping",
									"patching_rect" : [ 254.0, 49.0, 144.0, 18.0 ],
									"presentation" : 1,
									"id" : "obj-38",
									"knobcolor" : [ 0.4, 0.4, 0.8, 1.0 ],
									"numinlets" : 1,
									"orientation" : 1,
									"bordercolor" : [ 0.588235, 0.588235, 0.709804, 1.0 ],
									"numoutlets" : 1,
									"outlettype" : [ "" ],
									"presentation_rect" : [ 60.0, 57.0, 144.0, 18.0 ]
								}

							}
, 							{
								"box" : 								{
									"maxclass" : "message",
									"text" : "/decay $1",
									"patching_rect" : [ 188.0, 75.0, 63.0, 18.0 ],
									"id" : "obj-35",
									"fontname" : "Arial",
									"numinlets" : 2,
									"numoutlets" : 1,
									"fontsize" : 12.0,
									"outlettype" : [ "" ]
								}

							}
, 							{
								"box" : 								{
									"maxclass" : "message",
									"text" : "/size $1",
									"patching_rect" : [ 134.0, 54.0, 52.0, 18.0 ],
									"id" : "obj-26",
									"fontname" : "Arial",
									"numinlets" : 2,
									"numoutlets" : 1,
									"fontsize" : 12.0,
									"outlettype" : [ "" ]
								}

							}
, 							{
								"box" : 								{
									"maxclass" : "number",
									"patching_rect" : [ 134.0, 28.0, 44.0, 20.0 ],
									"presentation" : 1,
									"id" : "obj-118",
									"fontname" : "Arial",
									"numinlets" : 1,
									"numoutlets" : 2,
									"fontsize" : 12.0,
									"outlettype" : [ "int", "bang" ],
									"presentation_rect" : [ 6.0, 8.0, 48.0, 20.0 ]
								}

							}
, 							{
								"box" : 								{
									"maxclass" : "number",
									"patching_rect" : [ 188.0, 52.0, 50.0, 20.0 ],
									"presentation" : 1,
									"id" : "obj-119",
									"fontname" : "Arial",
									"numinlets" : 1,
									"numoutlets" : 2,
									"fontsize" : 12.0,
									"outlettype" : [ "int", "bang" ],
									"presentation_rect" : [ 6.0, 32.0, 48.0, 20.0 ]
								}

							}
, 							{
								"box" : 								{
									"maxclass" : "slider",
									"varname" : "decay_time",
									"patching_rect" : [ 188.0, 28.0, 144.0, 18.0 ],
									"presentation" : 1,
									"id" : "obj-120",
									"knobcolor" : [ 0.4, 0.4, 0.8, 1.0 ],
									"numinlets" : 1,
									"orientation" : 1,
									"bordercolor" : [ 0.588235, 0.588235, 0.709804, 1.0 ],
									"numoutlets" : 1,
									"outlettype" : [ "" ],
									"presentation_rect" : [ 60.0, 32.0, 144.0, 18.0 ]
								}

							}
, 							{
								"box" : 								{
									"maxclass" : "slider",
									"varname" : "room_size",
									"patching_rect" : [ 134.0, 7.0, 144.0, 18.0 ],
									"presentation" : 1,
									"id" : "obj-121",
									"knobcolor" : [ 0.4, 0.4, 0.8, 1.0 ],
									"numinlets" : 1,
									"orientation" : 1,
									"bordercolor" : [ 0.588235, 0.588235, 0.709804, 1.0 ],
									"numoutlets" : 1,
									"outlettype" : [ "" ],
									"presentation_rect" : [ 60.0, 7.0, 144.0, 18.0 ]
								}

							}
, 							{
								"box" : 								{
									"maxclass" : "message",
									"text" : "1",
									"hidden" : 1,
									"patching_rect" : [ 287.0, 176.0, 32.5, 18.0 ],
									"id" : "obj-9",
									"fontname" : "Arial",
									"numinlets" : 2,
									"numoutlets" : 1,
									"fontsize" : 12.0,
									"outlettype" : [ "" ]
								}

							}
, 							{
								"box" : 								{
									"maxclass" : "newobj",
									"text" : "loadbang",
									"hidden" : 1,
									"patching_rect" : [ 218.0, 154.0, 60.0, 20.0 ],
									"id" : "obj-10",
									"fontname" : "Arial",
									"numinlets" : 1,
									"numoutlets" : 1,
									"fontsize" : 12.0,
									"outlettype" : [ "bang" ]
								}

							}
, 							{
								"box" : 								{
									"maxclass" : "message",
									"text" : "34",
									"hidden" : 1,
									"patching_rect" : [ 254.0, 179.0, 32.5, 18.0 ],
									"id" : "obj-11",
									"fontname" : "Arial",
									"numinlets" : 2,
									"numoutlets" : 1,
									"fontsize" : 12.0,
									"outlettype" : [ "" ]
								}

							}
, 							{
								"box" : 								{
									"maxclass" : "message",
									"text" : "34",
									"hidden" : 1,
									"patching_rect" : [ 219.0, 178.0, 32.5, 18.0 ],
									"id" : "obj-12",
									"fontname" : "Arial",
									"numinlets" : 2,
									"numoutlets" : 1,
									"fontsize" : 12.0,
									"outlettype" : [ "" ]
								}

							}
, 							{
								"box" : 								{
									"maxclass" : "comment",
									"text" : "room size",
									"frgb" : [ 0.0, 0.0, 0.0, 1.0 ],
									"patching_rect" : [ 278.0, 5.0, 71.0, 20.0 ],
									"presentation" : 1,
									"id" : "obj-17",
									"fontname" : "Arial",
									"numinlets" : 1,
									"numoutlets" : 0,
									"fontsize" : 12.0,
									"presentation_rect" : [ 212.0, 5.0, 71.0, 20.0 ]
								}

							}
, 							{
								"box" : 								{
									"maxclass" : "comment",
									"text" : "decay time",
									"frgb" : [ 0.0, 0.0, 0.0, 1.0 ],
									"patching_rect" : [ 334.0, 26.0, 71.0, 20.0 ],
									"presentation" : 1,
									"id" : "obj-18",
									"fontname" : "Arial",
									"numinlets" : 1,
									"numoutlets" : 0,
									"fontsize" : 12.0,
									"presentation_rect" : [ 212.0, 30.0, 71.0, 20.0 ]
								}

							}
, 							{
								"box" : 								{
									"maxclass" : "newobj",
									"text" : "OSC-yafr2~",
									"patching_rect" : [ 98.0, 174.0, 74.0, 20.0 ],
									"id" : "obj-19",
									"fontname" : "Arial",
									"numinlets" : 1,
									"numoutlets" : 2,
									"color" : [ 1.0, 0.74902, 0.0, 1.0 ],
									"fontsize" : 12.0,
									"outlettype" : [ "signal", "signal" ]
								}

							}
, 							{
								"box" : 								{
									"maxclass" : "outlet",
									"patching_rect" : [ 98.0, 254.0, 25.0, 25.0 ],
									"id" : "obj-566",
									"numinlets" : 1,
									"numoutlets" : 0,
									"comment" : ""
								}

							}
 ],
						"lines" : [ 							{
								"patchline" : 								{
									"source" : [ "obj-26", 0 ],
									"destination" : [ "obj-19", 0 ],
									"hidden" : 0,
									"midpoints" : [  ]
								}

							}
, 							{
								"patchline" : 								{
									"source" : [ "obj-35", 0 ],
									"destination" : [ "obj-19", 0 ],
									"hidden" : 0,
									"midpoints" : [  ]
								}

							}
, 							{
								"patchline" : 								{
									"source" : [ "obj-36", 0 ],
									"destination" : [ "obj-19", 0 ],
									"hidden" : 0,
									"midpoints" : [  ]
								}

							}
, 							{
								"patchline" : 								{
									"source" : [ "obj-40", 0 ],
									"destination" : [ "obj-19", 0 ],
									"hidden" : 0,
									"midpoints" : [  ]
								}

							}
, 							{
								"patchline" : 								{
									"source" : [ "obj-10", 0 ],
									"destination" : [ "obj-44", 0 ],
									"hidden" : 1,
									"midpoints" : [  ]
								}

							}
, 							{
								"patchline" : 								{
									"source" : [ "obj-44", 0 ],
									"destination" : [ "obj-42", 0 ],
									"hidden" : 1,
									"midpoints" : [  ]
								}

							}
, 							{
								"patchline" : 								{
									"source" : [ "obj-9", 0 ],
									"destination" : [ "obj-38", 0 ],
									"hidden" : 1,
									"midpoints" : [  ]
								}

							}
, 							{
								"patchline" : 								{
									"source" : [ "obj-41", 0 ],
									"destination" : [ "obj-40", 0 ],
									"hidden" : 0,
									"midpoints" : [  ]
								}

							}
, 							{
								"patchline" : 								{
									"source" : [ "obj-42", 0 ],
									"destination" : [ "obj-41", 0 ],
									"hidden" : 0,
									"midpoints" : [  ]
								}

							}
, 							{
								"patchline" : 								{
									"source" : [ "obj-38", 0 ],
									"destination" : [ "obj-37", 0 ],
									"hidden" : 0,
									"midpoints" : [  ]
								}

							}
, 							{
								"patchline" : 								{
									"source" : [ "obj-37", 0 ],
									"destination" : [ "obj-36", 0 ],
									"hidden" : 0,
									"midpoints" : [  ]
								}

							}
, 							{
								"patchline" : 								{
									"source" : [ "obj-119", 0 ],
									"destination" : [ "obj-35", 0 ],
									"hidden" : 0,
									"midpoints" : [  ]
								}

							}
, 							{
								"patchline" : 								{
									"source" : [ "obj-118", 0 ],
									"destination" : [ "obj-26", 0 ],
									"hidden" : 0,
									"midpoints" : [  ]
								}

							}
, 							{
								"patchline" : 								{
									"source" : [ "obj-10", 0 ],
									"destination" : [ "obj-9", 0 ],
									"hidden" : 1,
									"midpoints" : [  ]
								}

							}
, 							{
								"patchline" : 								{
									"source" : [ "obj-11", 0 ],
									"destination" : [ "obj-120", 0 ],
									"hidden" : 1,
									"midpoints" : [  ]
								}

							}
, 							{
								"patchline" : 								{
									"source" : [ "obj-10", 0 ],
									"destination" : [ "obj-11", 0 ],
									"hidden" : 1,
									"midpoints" : [  ]
								}

							}
, 							{
								"patchline" : 								{
									"source" : [ "obj-12", 0 ],
									"destination" : [ "obj-121", 0 ],
									"hidden" : 1,
									"midpoints" : [  ]
								}

							}
, 							{
								"patchline" : 								{
									"source" : [ "obj-10", 0 ],
									"destination" : [ "obj-12", 0 ],
									"hidden" : 1,
									"midpoints" : [  ]
								}

							}
, 							{
								"patchline" : 								{
									"source" : [ "obj-120", 0 ],
									"destination" : [ "obj-119", 0 ],
									"hidden" : 0,
									"midpoints" : [  ]
								}

							}
, 							{
								"patchline" : 								{
									"source" : [ "obj-121", 0 ],
									"destination" : [ "obj-118", 0 ],
									"hidden" : 0,
									"midpoints" : [  ]
								}

							}
, 							{
								"patchline" : 								{
									"source" : [ "obj-556", 0 ],
									"destination" : [ "obj-19", 0 ],
									"hidden" : 0,
									"midpoints" : [  ]
								}

							}
, 							{
								"patchline" : 								{
									"source" : [ "obj-19", 0 ],
									"destination" : [ "obj-566", 0 ],
									"hidden" : 0,
									"midpoints" : [  ]
								}

							}
, 							{
								"patchline" : 								{
									"source" : [ "obj-1", 0 ],
									"destination" : [ "obj-3", 0 ],
									"hidden" : 1,
									"midpoints" : [  ]
								}

							}
, 							{
								"patchline" : 								{
									"source" : [ "obj-3", 0 ],
									"destination" : [ "obj-2", 0 ],
									"hidden" : 1,
									"midpoints" : [  ]
								}

							}
 ]
					}
,
					"saved_object_attributes" : 					{
						"default_fontsize" : 12.0,
						"fontname" : "Arial",
						"globalpatchername" : "",
						"fontface" : 0,
						"fontsize" : 12.0,
						"default_fontface" : 0,
						"default_fontname" : "Arial"
					}

				}

			}
, 			{
				"box" : 				{
					"maxclass" : "comment",
					"text" : "audio must be on",
					"frgb" : [ 1.0, 1.0, 1.0, 1.0 ],
					"patching_rect" : [ 8.0, 436.0, 95.0, 18.0 ],
					"presentation" : 1,
					"id" : "obj-23",
					"fontname" : "Arial",
					"textcolor" : [ 1.0, 1.0, 1.0, 1.0 ],
					"numinlets" : 1,
					"numoutlets" : 0,
					"fontsize" : 10.178571,
					"presentation_rect" : [ 240.0, 272.0, 93.882355, 18.0 ]
				}

			}
, 			{
				"box" : 				{
					"maxclass" : "newobj",
					"text" : "loadbang",
					"patching_rect" : [ 132.0, 436.0, 48.0, 17.0 ],
					"id" : "obj-28",
					"fontname" : "Arial",
					"numinlets" : 1,
					"numoutlets" : 1,
					"fontsize" : 9.0,
					"outlettype" : [ "bang" ]
				}

			}
, 			{
				"box" : 				{
					"maxclass" : "message",
					"text" : "/BPM 10",
					"patching_rect" : [ 132.0, 456.0, 45.0, 15.0 ],
					"id" : "obj-29",
					"fontname" : "Arial",
					"numinlets" : 2,
					"numoutlets" : 1,
					"fontsize" : 9.0,
					"outlettype" : [ "" ]
				}

			}
, 			{
				"box" : 				{
					"maxclass" : "newobj",
					"text" : "tempo~ swinger",
					"patching_rect" : [ 120.0, 488.0, 74.0, 17.0 ],
					"id" : "obj-30",
					"fontname" : "Arial",
					"numinlets" : 1,
					"numoutlets" : 2,
					"fontsize" : 9.0,
					"outlettype" : [ "", "" ]
				}

			}
, 			{
				"box" : 				{
					"maxclass" : "panel",
					"patching_rect" : [ 8.0, 700.0, 320.0, 90.0 ],
					"presentation" : 1,
					"id" : "obj-68",
					"rounded" : 20,
					"numinlets" : 1,
					"numoutlets" : 0,
					"presentation_rect" : [ 388.0, 8.0, 1040.0, 68.0 ],
					"bgcolor" : [ 0.490196, 0.490196, 0.490196, 1.0 ]
				}

			}
, 			{
				"box" : 				{
					"maxclass" : "bpatcher",
					"prototypename" : "cnmat_banner",
					"patching_rect" : [ 12.0, 16.0, 348.0, 76.0 ],
					"presentation" : 1,
					"id" : "obj-31",
					"name" : "banner.maxpat",
					"numinlets" : 0,
					"args" : [ "Polyrhythm-Explorer-Samp", "explore rhythmic levels in a 60 beat cycle" ],
					"numoutlets" : 0,
					"offset" : [ -18.0, -67.0 ],
					"presentation_rect" : [ 4.0, 4.0, 393.0, 72.0 ],
					"lockeddragscroll" : 1
				}

			}
 ],
		"lines" : [ 			{
				"patchline" : 				{
					"source" : [ "obj-61", 0 ],
					"destination" : [ "obj-43", 0 ],
					"hidden" : 0,
					"midpoints" : [  ]
				}

			}
, 			{
				"patchline" : 				{
					"source" : [ "obj-18", 0 ],
					"destination" : [ "obj-61", 0 ],
					"hidden" : 0,
					"midpoints" : [ 17.5, 691.0, 2.5, 691.0, 2.5, 562.0, 17.5, 562.0 ]
				}

			}
, 			{
				"patchline" : 				{
					"source" : [ "obj-48", 0 ],
					"destination" : [ "obj-11", 0 ],
					"hidden" : 0,
					"midpoints" : [  ]
				}

			}
, 			{
				"patchline" : 				{
					"source" : [ "obj-15", 0 ],
					"destination" : [ "obj-38", 0 ],
					"hidden" : 0,
					"midpoints" : [  ]
				}

			}
, 			{
				"patchline" : 				{
					"source" : [ "obj-13", 0 ],
					"destination" : [ "obj-14", 0 ],
					"hidden" : 0,
					"midpoints" : [  ]
				}

			}
, 			{
				"patchline" : 				{
					"source" : [ "obj-73", 0 ],
					"destination" : [ "obj-11", 0 ],
					"hidden" : 0,
					"midpoints" : [  ]
				}

			}
, 			{
				"patchline" : 				{
					"source" : [ "obj-11", 0 ],
					"destination" : [ "obj-10", 0 ],
					"hidden" : 0,
					"midpoints" : [  ]
				}

			}
, 			{
				"patchline" : 				{
					"source" : [ "obj-43", 0 ],
					"destination" : [ "obj-25", 0 ],
					"hidden" : 0,
					"midpoints" : [  ]
				}

			}
, 			{
				"patchline" : 				{
					"source" : [ "obj-74", 0 ],
					"destination" : [ "obj-567", 0 ],
					"hidden" : 0,
					"midpoints" : [  ]
				}

			}
, 			{
				"patchline" : 				{
					"source" : [ "obj-567", 0 ],
					"destination" : [ "obj-26", 1 ],
					"hidden" : 0,
					"midpoints" : [  ]
				}

			}
, 			{
				"patchline" : 				{
					"source" : [ "obj-567", 0 ],
					"destination" : [ "obj-26", 0 ],
					"hidden" : 0,
					"midpoints" : [  ]
				}

			}
, 			{
				"patchline" : 				{
					"source" : [ "obj-69", 1 ],
					"destination" : [ "obj-202", 0 ],
					"hidden" : 0,
					"midpoints" : [  ]
				}

			}
, 			{
				"patchline" : 				{
					"source" : [ "obj-43", 0 ],
					"destination" : [ "obj-18", 0 ],
					"hidden" : 0,
					"midpoints" : [  ]
				}

			}
, 			{
				"patchline" : 				{
					"source" : [ "obj-42", 0 ],
					"destination" : [ "obj-43", 0 ],
					"hidden" : 0,
					"midpoints" : [  ]
				}

			}
, 			{
				"patchline" : 				{
					"source" : [ "obj-2", 0 ],
					"destination" : [ "obj-43", 0 ],
					"hidden" : 0,
					"midpoints" : [  ]
				}

			}
, 			{
				"patchline" : 				{
					"source" : [ "obj-1746", 0 ],
					"destination" : [ "obj-30", 0 ],
					"hidden" : 0,
					"midpoints" : [  ]
				}

			}
, 			{
				"patchline" : 				{
					"source" : [ "obj-29", 0 ],
					"destination" : [ "obj-30", 0 ],
					"hidden" : 0,
					"midpoints" : [  ]
				}

			}
, 			{
				"patchline" : 				{
					"source" : [ "obj-28", 0 ],
					"destination" : [ "obj-29", 0 ],
					"hidden" : 0,
					"midpoints" : [  ]
				}

			}
, 			{
				"patchline" : 				{
					"source" : [ "obj-50", 0 ],
					"destination" : [ "obj-8", 0 ],
					"hidden" : 0,
					"midpoints" : [  ]
				}

			}
, 			{
				"patchline" : 				{
					"source" : [ "obj-3", 0 ],
					"destination" : [ "obj-26", 0 ],
					"hidden" : 0,
					"midpoints" : [  ]
				}

			}
, 			{
				"patchline" : 				{
					"source" : [ "obj-3", 0 ],
					"destination" : [ "obj-26", 1 ],
					"hidden" : 0,
					"midpoints" : [  ]
				}

			}
, 			{
				"patchline" : 				{
					"source" : [ "obj-62", 0 ],
					"destination" : [ "obj-202", 0 ],
					"hidden" : 0,
					"midpoints" : [  ]
				}

			}
, 			{
				"patchline" : 				{
					"source" : [ "obj-65", 0 ],
					"destination" : [ "obj-202", 0 ],
					"hidden" : 0,
					"midpoints" : [  ]
				}

			}
, 			{
				"patchline" : 				{
					"source" : [ "obj-66", 0 ],
					"destination" : [ "obj-202", 0 ],
					"hidden" : 0,
					"midpoints" : [  ]
				}

			}
, 			{
				"patchline" : 				{
					"source" : [ "obj-64", 0 ],
					"destination" : [ "obj-202", 0 ],
					"hidden" : 0,
					"midpoints" : [  ]
				}

			}
, 			{
				"patchline" : 				{
					"source" : [ "obj-60", 0 ],
					"destination" : [ "obj-202", 0 ],
					"hidden" : 0,
					"midpoints" : [  ]
				}

			}
, 			{
				"patchline" : 				{
					"source" : [ "obj-67", 0 ],
					"destination" : [ "obj-30", 0 ],
					"hidden" : 0,
					"midpoints" : [  ]
				}

			}
, 			{
				"patchline" : 				{
					"source" : [ "obj-146", 0 ],
					"destination" : [ "obj-7", 0 ],
					"hidden" : 0,
					"midpoints" : [  ]
				}

			}
, 			{
				"patchline" : 				{
					"source" : [ "obj-148", 0 ],
					"destination" : [ "obj-9", 0 ],
					"hidden" : 0,
					"midpoints" : [  ]
				}

			}
, 			{
				"patchline" : 				{
					"source" : [ "obj-153", 0 ],
					"destination" : [ "obj-5", 0 ],
					"hidden" : 0,
					"midpoints" : [  ]
				}

			}
, 			{
				"patchline" : 				{
					"source" : [ "obj-72", 0 ],
					"destination" : [ "obj-6", 0 ],
					"hidden" : 0,
					"midpoints" : [  ]
				}

			}
, 			{
				"patchline" : 				{
					"source" : [ "obj-24", 0 ],
					"destination" : [ "obj-26", 2 ],
					"hidden" : 0,
					"midpoints" : [  ]
				}

			}
, 			{
				"patchline" : 				{
					"source" : [ "obj-24", 1 ],
					"destination" : [ "obj-43", 0 ],
					"hidden" : 0,
					"midpoints" : [  ]
				}

			}
, 			{
				"patchline" : 				{
					"source" : [ "obj-47", 0 ],
					"destination" : [ "obj-33", 0 ],
					"hidden" : 0,
					"midpoints" : [  ]
				}

			}
, 			{
				"patchline" : 				{
					"source" : [ "obj-47", 0 ],
					"destination" : [ "obj-49", 0 ],
					"hidden" : 0,
					"midpoints" : [  ]
				}

			}
, 			{
				"patchline" : 				{
					"source" : [ "obj-49", 0 ],
					"destination" : [ "obj-30", 0 ],
					"hidden" : 0,
					"midpoints" : [  ]
				}

			}
, 			{
				"patchline" : 				{
					"source" : [ "obj-27", 0 ],
					"destination" : [ "obj-1746", 0 ],
					"hidden" : 0,
					"midpoints" : [  ]
				}

			}
, 			{
				"patchline" : 				{
					"source" : [ "obj-202", 0 ],
					"destination" : [ "obj-27", 0 ],
					"hidden" : 0,
					"midpoints" : [  ]
				}

			}
, 			{
				"patchline" : 				{
					"source" : [ "obj-33", 0 ],
					"destination" : [ "obj-202", 0 ],
					"hidden" : 0,
					"midpoints" : [  ]
				}

			}
, 			{
				"patchline" : 				{
					"source" : [ "obj-16", 0 ],
					"destination" : [ "obj-10", 0 ],
					"hidden" : 0,
					"midpoints" : [  ]
				}

			}
 ],
		"parameters" : 		{

		}

	}

}
