{
	"patcher" : 	{
		"fileversion" : 1,
		"appversion" : 		{
			"major" : 6,
			"minor" : 0,
			"revision" : 4
		}
,
		"rect" : [ 30.0, 58.0, 522.0, 394.0 ],
		"bgcolor" : [ 0.094118, 0.117647, 0.333333, 1.0 ],
		"bglocked" : 0,
		"openinpresentation" : 1,
		"default_fontsize" : 10.0,
		"default_fontface" : 0,
		"default_fontname" : "Arial",
		"gridonopen" : 0,
		"gridsize" : [ 4.0, 4.0 ],
		"gridsnaponopen" : 0,
		"statusbarvisible" : 2,
		"toolbarvisible" : 1,
		"boxanimatetime" : 200,
		"imprint" : 0,
		"enablehscroll" : 1,
		"enablevscroll" : 1,
		"devicewidth" : 0.0,
		"description" : "",
		"digest" : "",
		"tags" : "",
		"boxes" : [ 			{
				"box" : 				{
					"fontname" : "Arial",
					"fontsize" : 10.0,
					"id" : "obj-35",
					"maxclass" : "message",
					"numinlets" : 2,
					"numoutlets" : 1,
					"outlettype" : [ "" ],
					"patching_rect" : [ 520.0, 160.0, 32.5, 16.0 ],
					"text" : "0"
				}

			}
, 			{
				"box" : 				{
					"fontname" : "Arial",
					"fontsize" : 10.0,
					"id" : "obj-34",
					"maxclass" : "message",
					"numinlets" : 2,
					"numoutlets" : 1,
					"outlettype" : [ "" ],
					"patching_rect" : [ 480.0, 128.0, 32.5, 16.0 ],
					"text" : "1"
				}

			}
, 			{
				"box" : 				{
					"fontname" : "Arial",
					"fontsize" : 10.0,
					"id" : "obj-33",
					"maxclass" : "message",
					"numinlets" : 2,
					"numoutlets" : 1,
					"outlettype" : [ "" ],
					"patching_rect" : [ 428.0, 128.0, 33.0, 16.0 ],
					"text" : "open"
				}

			}
, 			{
				"box" : 				{
					"fontname" : "Arial",
					"fontsize" : 10.0,
					"id" : "obj-31",
					"maxclass" : "newobj",
					"numinlets" : 2,
					"numoutlets" : 2,
					"outlettype" : [ "signal", "bang" ],
					"patching_rect" : [ 428.0, 192.0, 42.0, 18.0 ],
					"save" : [ "#N", "sfplay~", "", 1, 120960, 0, "", ";" ],
					"text" : "sfplay~"
				}

			}
, 			{
				"box" : 				{
					"args" : [ "tempo_tracker", "tap tempo spacebar and send resulting tempo out" ],
					"id" : "obj-30",
					"lockeddragscroll" : 1,
					"maxclass" : "bpatcher",
					"name" : "banner.maxpat",
					"numinlets" : 0,
					"numoutlets" : 0,
					"offset" : [ -18.0, -68.0 ],
					"patching_rect" : [ 20.0, 428.0, 511.0, 76.0 ],
					"presentation" : 1,
					"presentation_rect" : [ 4.0, 4.0, 511.0, 76.0 ]
				}

			}
, 			{
				"box" : 				{
					"args" : [ "tempo tracker", "0.1a", "Edmund Campion / Jeff Lubow", "tempo tracker", 6666 ],
					"id" : "obj-29",
					"maxclass" : "bpatcher",
					"name" : "badge.maxpat",
					"numinlets" : 0,
					"numoutlets" : 0,
					"offset" : [ 2.0, 4.0 ],
					"patching_rect" : [ 104.0, 268.0, 298.0, 89.0 ],
					"presentation" : 1,
					"presentation_rect" : [ 216.0, 304.0, 298.0, 89.0 ]
				}

			}
, 			{
				"box" : 				{
					"args" : [ 140 ],
					"id" : "obj-51",
					"maxclass" : "bpatcher",
					"name" : "simple-stereo-gain~.maxpat",
					"numinlets" : 3,
					"numoutlets" : 2,
					"outlettype" : [ "signal", "signal" ],
					"patching_rect" : [ 428.0, 224.0, 100.0, 192.0 ],
					"presentation" : 1,
					"presentation_rect" : [ 348.0, 96.0, 100.0, 192.0 ]
				}

			}
, 			{
				"box" : 				{
					"fontface" : 3,
					"fontname" : "Arial",
					"fontsize" : 12.0,
					"frgb" : [ 0.815686, 0.917647, 0.909804, 1.0 ],
					"id" : "obj-24",
					"maxclass" : "comment",
					"numinlets" : 1,
					"numoutlets" : 0,
					"patching_rect" : [ 556.0, 128.0, 95.0, 20.0 ],
					"presentation" : 1,
					"presentation_rect" : [ 52.0, 176.0, 95.0, 20.0 ],
					"text" : "Stop soundfile",
					"textcolor" : [ 0.815686, 0.917647, 0.909804, 1.0 ]
				}

			}
, 			{
				"box" : 				{
					"bgcolor" : [ 0.109804, 0.133333, 0.141176, 0.0 ],
					"fgcolor" : [ 0.717647, 0.4, 0.078431, 1.0 ],
					"id" : "obj-25",
					"maxclass" : "button",
					"numinlets" : 1,
					"numoutlets" : 1,
					"outlettype" : [ "bang" ],
					"patching_rect" : [ 520.0, 124.0, 32.0, 32.0 ],
					"presentation" : 1,
					"presentation_rect" : [ 16.0, 168.0, 36.0, 36.0 ]
				}

			}
, 			{
				"box" : 				{
					"fontface" : 3,
					"fontname" : "Arial",
					"fontsize" : 12.0,
					"frgb" : [ 0.815686, 0.917647, 0.909804, 1.0 ],
					"id" : "obj-22",
					"maxclass" : "comment",
					"numinlets" : 1,
					"numoutlets" : 0,
					"patching_rect" : [ 516.0, 92.0, 93.0, 20.0 ],
					"presentation" : 1,
					"presentation_rect" : [ 52.0, 140.0, 93.0, 20.0 ],
					"text" : "Play soundfile",
					"textcolor" : [ 0.815686, 0.917647, 0.909804, 1.0 ]
				}

			}
, 			{
				"box" : 				{
					"bgcolor" : [ 0.109804, 0.133333, 0.141176, 0.0 ],
					"fgcolor" : [ 0.25098, 0.576471, 0.235294, 1.0 ],
					"id" : "obj-23",
					"maxclass" : "button",
					"numinlets" : 1,
					"numoutlets" : 1,
					"outlettype" : [ "bang" ],
					"patching_rect" : [ 480.0, 88.0, 32.0, 32.0 ],
					"presentation" : 1,
					"presentation_rect" : [ 16.0, 132.0, 36.0, 36.0 ]
				}

			}
, 			{
				"box" : 				{
					"fontface" : 3,
					"fontname" : "Arial",
					"fontsize" : 12.0,
					"frgb" : [ 0.815686, 0.917647, 0.909804, 1.0 ],
					"id" : "obj-20",
					"maxclass" : "comment",
					"numinlets" : 1,
					"numoutlets" : 0,
					"patching_rect" : [ 468.0, 56.0, 175.0, 20.0 ],
					"presentation" : 1,
					"presentation_rect" : [ 52.0, 104.0, 175.0, 20.0 ],
					"text" : "Load tempo-based soundfile",
					"textcolor" : [ 0.815686, 0.917647, 0.909804, 1.0 ]
				}

			}
, 			{
				"box" : 				{
					"bgcolor" : [ 0.109804, 0.133333, 0.141176, 0.0 ],
					"fgcolor" : [ 0.176471, 0.317647, 0.34902, 1.0 ],
					"id" : "obj-21",
					"maxclass" : "button",
					"numinlets" : 1,
					"numoutlets" : 1,
					"outlettype" : [ "bang" ],
					"patching_rect" : [ 428.0, 52.0, 32.0, 32.0 ],
					"presentation" : 1,
					"presentation_rect" : [ 16.0, 96.0, 36.0, 36.0 ]
				}

			}
, 			{
				"box" : 				{
					"fontface" : 1,
					"fontname" : "Arial",
					"fontsize" : 14.513037,
					"frgb" : [ 0.776471, 0.945098, 1.0, 1.0 ],
					"id" : "obj-7",
					"maxclass" : "comment",
					"numinlets" : 1,
					"numoutlets" : 0,
					"patching_rect" : [ 56.0, 176.0, 165.0, 23.0 ],
					"presentation" : 1,
					"presentation_rect" : [ 156.0, 248.0, 153.834442, 23.0 ],
					"text" : "<- Resulting Tempo",
					"textcolor" : [ 0.776471, 0.945098, 1.0, 1.0 ]
				}

			}
, 			{
				"box" : 				{
					"fontface" : 3,
					"fontname" : "Arial",
					"fontsize" : 21.640991,
					"id" : "obj-2",
					"maxclass" : "flonum",
					"numinlets" : 1,
					"numoutlets" : 2,
					"outlettype" : [ "float", "bang" ],
					"parameter_enable" : 0,
					"patching_rect" : [ 12.0, 208.0, 167.0, 31.0 ],
					"presentation" : 1,
					"presentation_rect" : [ 20.0, 244.0, 131.0, 31.0 ]
				}

			}
, 			{
				"box" : 				{
					"fontname" : "Arial",
					"fontsize" : 10.0,
					"id" : "obj-10",
					"maxclass" : "newobj",
					"numinlets" : 1,
					"numoutlets" : 0,
					"patching_rect" : [ 12.0, 276.0, 59.0, 18.0 ],
					"text" : "s settempo"
				}

			}
, 			{
				"box" : 				{
					"fontname" : "Arial",
					"fontsize" : 10.0,
					"id" : "obj-6",
					"maxclass" : "newobj",
					"numinlets" : 2,
					"numoutlets" : 2,
					"outlettype" : [ "bang", "" ],
					"patching_rect" : [ 12.0, 36.0, 37.0, 18.0 ],
					"text" : "sel 32"
				}

			}
, 			{
				"box" : 				{
					"fontname" : "Arial",
					"fontsize" : 10.0,
					"id" : "obj-5",
					"maxclass" : "newobj",
					"numinlets" : 0,
					"numoutlets" : 4,
					"outlettype" : [ "int", "int", "int", "int" ],
					"patching_rect" : [ 12.0, 12.0, 59.5, 18.0 ],
					"text" : "key"
				}

			}
, 			{
				"box" : 				{
					"fontface" : 3,
					"fontname" : "Arial",
					"fontsize" : 12.0,
					"frgb" : [ 0.815686, 0.917647, 0.909804, 1.0 ],
					"id" : "obj-4",
					"maxclass" : "comment",
					"numinlets" : 1,
					"numoutlets" : 0,
					"patching_rect" : [ 48.0, 68.0, 307.0, 20.0 ],
					"presentation" : 1,
					"presentation_rect" : [ 52.0, 212.0, 211.0, 20.0 ],
					"text" : "Hit spacebar (or button) repeatedly",
					"textcolor" : [ 0.815686, 0.917647, 0.909804, 1.0 ]
				}

			}
, 			{
				"box" : 				{
					"bgcolor" : [ 0.109804, 0.133333, 0.141176, 0.0 ],
					"id" : "obj-78",
					"maxclass" : "button",
					"numinlets" : 1,
					"numoutlets" : 1,
					"outlettype" : [ "bang" ],
					"patching_rect" : [ 12.0, 64.0, 32.0, 32.0 ],
					"presentation" : 1,
					"presentation_rect" : [ 16.0, 204.0, 36.0, 36.0 ]
				}

			}
, 			{
				"box" : 				{
					"color" : [ 0.7, 0.7, 0.7, 1.0 ],
					"fontname" : "Arial",
					"fontsize" : 10.0,
					"id" : "obj-80",
					"maxclass" : "newobj",
					"numinlets" : 2,
					"numoutlets" : 1,
					"outlettype" : [ "float" ],
					"patching_rect" : [ 12.0, 138.0, 50.0, 18.0 ],
					"text" : "!/ 60000."
				}

			}
, 			{
				"box" : 				{
					"color" : [ 0.7, 0.7, 0.7, 1.0 ],
					"fontname" : "Arial",
					"fontsize" : 10.0,
					"id" : "obj-81",
					"maxclass" : "newobj",
					"numinlets" : 2,
					"numoutlets" : 2,
					"outlettype" : [ "float", "" ],
					"patching_rect" : [ 12.0, 116.0, 33.0, 18.0 ],
					"text" : "timer"
				}

			}
, 			{
				"box" : 				{
					"angle" : -90.0,
					"bgcolor" : [ 0.419608, 0.486275, 0.509804, 1.0 ],
					"grad1" : [ 0.023529, 0.192157, 0.658824, 1.0 ],
					"grad2" : [ 0.05098, 0.356863, 0.815686, 0.0 ],
					"id" : "obj-28",
					"ignoreclick" : 1,
					"maxclass" : "panel",
					"mode" : 1,
					"numinlets" : 1,
					"numoutlets" : 0,
					"patching_rect" : [ 304.0, 200.0, 44.0, 47.0 ],
					"presentation" : 1,
					"presentation_rect" : [ 12.0, 92.0, 440.0, 200.0 ],
					"rounded" : 16
				}

			}
 ],
		"lines" : [ 			{
				"patchline" : 				{
					"destination" : [ "obj-10", 0 ],
					"disabled" : 0,
					"hidden" : 0,
					"source" : [ "obj-2", 0 ]
				}

			}
, 			{
				"patchline" : 				{
					"destination" : [ "obj-33", 0 ],
					"disabled" : 0,
					"hidden" : 0,
					"source" : [ "obj-21", 0 ]
				}

			}
, 			{
				"patchline" : 				{
					"destination" : [ "obj-34", 0 ],
					"disabled" : 0,
					"hidden" : 0,
					"source" : [ "obj-23", 0 ]
				}

			}
, 			{
				"patchline" : 				{
					"destination" : [ "obj-35", 0 ],
					"disabled" : 0,
					"hidden" : 0,
					"source" : [ "obj-25", 0 ]
				}

			}
, 			{
				"patchline" : 				{
					"destination" : [ "obj-51", 1 ],
					"disabled" : 0,
					"hidden" : 0,
					"source" : [ "obj-31", 0 ]
				}

			}
, 			{
				"patchline" : 				{
					"destination" : [ "obj-51", 0 ],
					"disabled" : 0,
					"hidden" : 0,
					"source" : [ "obj-31", 0 ]
				}

			}
, 			{
				"patchline" : 				{
					"destination" : [ "obj-31", 0 ],
					"disabled" : 0,
					"hidden" : 0,
					"source" : [ "obj-33", 0 ]
				}

			}
, 			{
				"patchline" : 				{
					"destination" : [ "obj-31", 0 ],
					"disabled" : 0,
					"hidden" : 0,
					"source" : [ "obj-34", 0 ]
				}

			}
, 			{
				"patchline" : 				{
					"destination" : [ "obj-31", 0 ],
					"disabled" : 0,
					"hidden" : 0,
					"source" : [ "obj-35", 0 ]
				}

			}
, 			{
				"patchline" : 				{
					"destination" : [ "obj-6", 0 ],
					"disabled" : 0,
					"hidden" : 0,
					"source" : [ "obj-5", 0 ]
				}

			}
, 			{
				"patchline" : 				{
					"destination" : [ "obj-78", 0 ],
					"disabled" : 0,
					"hidden" : 0,
					"source" : [ "obj-6", 0 ]
				}

			}
, 			{
				"patchline" : 				{
					"destination" : [ "obj-81", 1 ],
					"disabled" : 0,
					"hidden" : 0,
					"source" : [ "obj-78", 0 ]
				}

			}
, 			{
				"patchline" : 				{
					"destination" : [ "obj-81", 0 ],
					"disabled" : 0,
					"hidden" : 0,
					"source" : [ "obj-78", 0 ]
				}

			}
, 			{
				"patchline" : 				{
					"destination" : [ "obj-2", 0 ],
					"disabled" : 0,
					"hidden" : 0,
					"source" : [ "obj-80", 0 ]
				}

			}
, 			{
				"patchline" : 				{
					"destination" : [ "obj-80", 0 ],
					"disabled" : 0,
					"hidden" : 0,
					"source" : [ "obj-81", 0 ]
				}

			}
 ],
		"dependency_cache" : [ 			{
				"name" : "simple-stereo-gain~.maxpat",
				"bootpath" : "/Users/jml/Documents/materials/programming/max_files/5_berkeley/projects/cnmat/repositories/main/trunk/max/patches/MMJ-DEPOT/CNMAT_MMJ-Depot/modules/Mixing_and_Gain",
				"patcherrelativepath" : "../../../modules/Mixing_and_Gain",
				"type" : "JSON",
				"implicit" : 1
			}
, 			{
				"name" : "badge.maxpat",
				"bootpath" : "/Users/jml/Documents/materials/programming/max_files/5_berkeley/projects/cnmat/repositories/main/trunk/max/patches/MMJ-DEPOT/CNMAT_MMJ-Depot/modules/Depot_Support",
				"patcherrelativepath" : "../../../modules/Depot_Support",
				"type" : "JSON",
				"implicit" : 1
			}
, 			{
				"name" : "uc_license.maxpat",
				"bootpath" : "/Users/jml/Documents/materials/programming/max_files/5_berkeley/projects/cnmat/repositories/main/trunk/max/patches/MMJ-DEPOT/CNMAT_MMJ-Depot/modules/Depot_Support",
				"patcherrelativepath" : "../../../modules/Depot_Support",
				"type" : "JSON",
				"implicit" : 1
			}
, 			{
				"name" : "cnmat_blue.gif",
				"bootpath" : "/Users/jml/Documents/materials/programming/max_files/5_berkeley/projects/cnmat/repositories/main/trunk/max/patches/MMJ-DEPOT/CNMAT_MMJ-Depot/modules/Depot_Support",
				"patcherrelativepath" : "../../../modules/Depot_Support",
				"type" : "GIFf",
				"implicit" : 1
			}
, 			{
				"name" : "myNotes.js",
				"bootpath" : "/Users/jml/Documents/materials/programming/max_files/5_berkeley/projects/cnmat/repositories/main/trunk/max/patches/MMJ-DEPOT/CNMAT_MMJ-Depot/modules/Depot_Support",
				"patcherrelativepath" : "../../../modules/Depot_Support",
				"type" : "TEXT",
				"implicit" : 1
			}
, 			{
				"name" : "take_notes.maxpat",
				"bootpath" : "/Users/jml/Documents/materials/programming/max_files/5_berkeley/projects/cnmat/repositories/main/trunk/max/patches/MMJ-DEPOT/CNMAT_MMJ-Depot/modules/Depot_Support",
				"patcherrelativepath" : "../../../modules/Depot_Support",
				"type" : "JSON",
				"implicit" : 1
			}
, 			{
				"name" : "banner.maxpat",
				"bootpath" : "/Users/jml/Documents/materials/programming/max_files/5_berkeley/projects/cnmat/repositories/main/trunk/max/patches/MMJ-DEPOT/CNMAT_MMJ-Depot/modules/Depot_Support",
				"patcherrelativepath" : "../../../modules/Depot_Support",
				"type" : "JSON",
				"implicit" : 1
			}
, 			{
				"name" : "cnmat_wht-trans.png",
				"bootpath" : "/Users/jml/Documents/materials/programming/max_files/5_berkeley/projects/cnmat/repositories/main/trunk/max/patches/MMJ-DEPOT/CNMAT_MMJ-Depot/modules/Depot_Support",
				"patcherrelativepath" : "../../../modules/Depot_Support",
				"type" : "PNG ",
				"implicit" : 1
			}
 ]
	}

}
