{
	"patcher" : 	{
		"fileversion" : 1,
		"rect" : [ 68.0, 44.0, 847.0, 586.0 ],
		"bgcolor" : [ 0.972549, 0.972549, 0.784314, 1.0 ],
		"bglocked" : 0,
		"defrect" : [ 68.0, 44.0, 847.0, 586.0 ],
		"openrect" : [ 0.0, 0.0, 0.0, 0.0 ],
		"openinpresentation" : 0,
		"default_fontsize" : 12.0,
		"default_fontface" : 0,
		"default_fontname" : "Arial",
		"gridonopen" : 0,
		"gridsize" : [ 15.0, 15.0 ],
		"gridsnaponopen" : 0,
		"toolbarvisible" : 0,
		"boxanimatetime" : 200,
		"imprint" : 0,
		"boxes" : [ 			{
				"box" : 				{
					"maxclass" : "comment",
					"text" : "• As a point of Max esoterica, you see reported in the max window messages with 1023 arguments.  True lists begin with numbers, not symbols.",
					"linecount" : 2,
					"numoutlets" : 0,
					"fontsize" : 12.0,
					"patching_rect" : [ 389.0, 421.0, 423.0, 30.0 ],
					"frgb" : [ 0.0, 0.0, 0.0, 1.0 ],
					"id" : "obj-57",
					"fontname" : "Helvetica",
					"numinlets" : 1
				}

			}
, 			{
				"box" : 				{
					"maxclass" : "message",
					"text" : "spectrum",
					"numoutlets" : 1,
					"fontsize" : 12.0,
					"patching_rect" : [ 701.0, 248.0, 66.0, 16.0 ],
					"outlettype" : [ "" ],
					"bgcolor" : [ 0.290196, 0.611765, 0.380392, 1.0 ],
					"id" : "obj-1",
					"fontname" : "Helvetica",
					"numinlets" : 2
				}

			}
, 			{
				"box" : 				{
					"maxclass" : "button",
					"numoutlets" : 1,
					"patching_rect" : [ 701.0, 187.0, 31.0, 31.0 ],
					"outlettype" : [ "bang" ],
					"id" : "obj-2",
					"fgcolor" : [ 0.290196, 0.611765, 0.380392, 1.0 ],
					"numinlets" : 1
				}

			}
, 			{
				"box" : 				{
					"maxclass" : "newobj",
					"text" : "Uzi 2048",
					"numoutlets" : 3,
					"fontsize" : 12.0,
					"patching_rect" : [ 701.0, 224.0, 65.0, 18.0 ],
					"outlettype" : [ "bang", "bang", "int" ],
					"id" : "obj-3",
					"fontname" : "Helvetica",
					"color" : [ 0.290196, 0.611765, 0.380392, 1.0 ],
					"numinlets" : 2
				}

			}
, 			{
				"box" : 				{
					"maxclass" : "button",
					"numoutlets" : 1,
					"patching_rect" : [ 811.0, 280.0, 15.0, 15.0 ],
					"hidden" : 1,
					"outlettype" : [ "bang" ],
					"id" : "obj-4",
					"numinlets" : 1
				}

			}
, 			{
				"box" : 				{
					"maxclass" : "button",
					"numoutlets" : 1,
					"patching_rect" : [ 787.0, 352.0, 15.0, 15.0 ],
					"hidden" : 1,
					"outlettype" : [ "bang" ],
					"id" : "obj-5",
					"numinlets" : 1
				}

			}
, 			{
				"box" : 				{
					"maxclass" : "button",
					"numoutlets" : 1,
					"patching_rect" : [ 810.0, 248.0, 15.0, 15.0 ],
					"hidden" : 1,
					"outlettype" : [ "bang" ],
					"id" : "obj-6",
					"numinlets" : 1
				}

			}
, 			{
				"box" : 				{
					"maxclass" : "comment",
					"text" : "Java",
					"numoutlets" : 0,
					"fontsize" : 12.0,
					"patching_rect" : [ 801.0, 266.0, 39.0, 18.0 ],
					"frgb" : [ 0.4, 0.4, 0.8, 1.0 ],
					"textcolor" : [ 0.4, 0.4, 0.8, 1.0 ],
					"id" : "obj-7",
					"fontname" : "Helvetica",
					"numinlets" : 1
				}

			}
, 			{
				"box" : 				{
					"maxclass" : "button",
					"numoutlets" : 1,
					"patching_rect" : [ 795.0, 166.0, 15.0, 15.0 ],
					"hidden" : 1,
					"outlettype" : [ "bang" ],
					"id" : "obj-8",
					"numinlets" : 1
				}

			}
, 			{
				"box" : 				{
					"maxclass" : "message",
					"text" : "spectrum",
					"numoutlets" : 1,
					"fontsize" : 12.0,
					"patching_rect" : [ 537.0, 248.0, 66.0, 16.0 ],
					"outlettype" : [ "" ],
					"bgcolor" : [ 1.0, 0.890196, 0.090196, 1.0 ],
					"id" : "obj-9",
					"fontname" : "Helvetica",
					"numinlets" : 2
				}

			}
, 			{
				"box" : 				{
					"maxclass" : "button",
					"numoutlets" : 1,
					"patching_rect" : [ 537.0, 187.0, 31.0, 31.0 ],
					"outlettype" : [ "bang" ],
					"id" : "obj-10",
					"numinlets" : 1
				}

			}
, 			{
				"box" : 				{
					"maxclass" : "newobj",
					"text" : "Uzi 1024",
					"numoutlets" : 3,
					"fontsize" : 12.0,
					"patching_rect" : [ 537.0, 224.0, 65.0, 18.0 ],
					"outlettype" : [ "bang", "bang", "int" ],
					"id" : "obj-11",
					"fontname" : "Helvetica",
					"color" : [ 1.0, 0.890196, 0.090196, 1.0 ],
					"numinlets" : 2
				}

			}
, 			{
				"box" : 				{
					"maxclass" : "newobj",
					"text" : "printit java",
					"numoutlets" : 0,
					"fontsize" : 12.0,
					"patching_rect" : [ 701.0, 324.0, 80.0, 18.0 ],
					"id" : "obj-12",
					"fontname" : "Helvetica",
					"color" : [ 0.290196, 0.611765, 0.380392, 1.0 ],
					"numinlets" : 1
				}

			}
, 			{
				"box" : 				{
					"maxclass" : "newobj",
					"text" : "mxj list.Group 2048",
					"numoutlets" : 2,
					"fontsize" : 12.0,
					"patching_rect" : [ 701.0, 287.0, 114.0, 18.0 ],
					"outlettype" : [ "", "" ],
					"id" : "obj-13",
					"fontname" : "Helvetica",
					"color" : [ 0.290196, 0.611765, 0.380392, 1.0 ],
					"numinlets" : 1
				}

			}
, 			{
				"box" : 				{
					"maxclass" : "ubutton",
					"numoutlets" : 4,
					"patching_rect" : [ 47.0, 297.0, 315.0, 25.0 ],
					"handoff" : "",
					"outlettype" : [ "bang", "bang", "", "int" ],
					"id" : "obj-14",
					"numinlets" : 1
				}

			}
, 			{
				"box" : 				{
					"maxclass" : "comment",
					"text" : "<click to see Max's Java listPackage>",
					"numoutlets" : 0,
					"fontsize" : 14.0,
					"patching_rect" : [ 49.0, 299.0, 307.0, 23.0 ],
					"frgb" : [ 0.4, 0.4, 0.8, 1.0 ],
					"textcolor" : [ 0.4, 0.4, 0.8, 1.0 ],
					"id" : "obj-15",
					"fontname" : "Arial",
					"numinlets" : 1
				}

			}
, 			{
				"box" : 				{
					"maxclass" : "message",
					"text" : "load listpackage.maxhelp",
					"numoutlets" : 1,
					"fontsize" : 9.0,
					"patching_rect" : [ 150.0, 334.0, 112.0, 15.0 ],
					"hidden" : 1,
					"outlettype" : [ "" ],
					"id" : "obj-16",
					"fontname" : "Arial",
					"numinlets" : 2
				}

			}
, 			{
				"box" : 				{
					"maxclass" : "ubutton",
					"numoutlets" : 4,
					"patching_rect" : [ 65.0, 380.0, 279.0, 41.0 ],
					"handoff" : "",
					"outlettype" : [ "bang", "bang", "", "int" ],
					"id" : "obj-17",
					"numinlets" : 1
				}

			}
, 			{
				"box" : 				{
					"maxclass" : "message",
					"text" : ";\rmax launch_browser http://recherche.ircam.fr/equipes/temps-reel/ftm/",
					"linecount" : 2,
					"numoutlets" : 1,
					"fontsize" : 9.0,
					"patching_rect" : [ 39.0, 437.0, 288.0, 25.0 ],
					"hidden" : 1,
					"outlettype" : [ "" ],
					"id" : "obj-18",
					"fontname" : "Arial",
					"numinlets" : 2
				}

			}
, 			{
				"box" : 				{
					"maxclass" : "comment",
					"text" : "http://recherche.ircam.fr/equipes/temps-reel/ftm/",
					"linecount" : 2,
					"numoutlets" : 0,
					"fontsize" : 14.0,
					"patching_rect" : [ 69.0, 380.0, 260.0, 39.0 ],
					"frgb" : [ 0.4, 0.4, 0.8, 1.0 ],
					"textcolor" : [ 0.4, 0.4, 0.8, 1.0 ],
					"id" : "obj-19",
					"fontname" : "Arial",
					"numinlets" : 1
				}

			}
, 			{
				"box" : 				{
					"maxclass" : "message",
					"text" : "spectrum",
					"numoutlets" : 1,
					"fontsize" : 12.0,
					"patching_rect" : [ 418.0, 248.0, 66.0, 16.0 ],
					"outlettype" : [ "" ],
					"bgcolor" : [ 0.4, 0.4, 0.8, 1.0 ],
					"textcolor" : [ 1.0, 1.0, 1.0, 1.0 ],
					"id" : "obj-20",
					"fontname" : "Helvetica",
					"numinlets" : 2
				}

			}
, 			{
				"box" : 				{
					"maxclass" : "comment",
					"text" : "• printit is handy for seeing what is going on behind the scenes in Max. It tells you a lot of detail about what it receives.",
					"linecount" : 2,
					"numoutlets" : 0,
					"fontsize" : 12.0,
					"patching_rect" : [ 389.0, 482.0, 421.0, 30.0 ],
					"frgb" : [ 0.0, 0.0, 0.0, 1.0 ],
					"id" : "obj-21",
					"fontname" : "Helvetica",
					"numinlets" : 1
				}

			}
, 			{
				"box" : 				{
					"maxclass" : "comment",
					"text" : "• list-accum is  obsolete as of Max 5.",
					"numoutlets" : 0,
					"fontsize" : 12.0,
					"patching_rect" : [ 389.0, 454.0, 214.0, 18.0 ],
					"frgb" : [ 0.0, 0.0, 0.0, 1.0 ],
					"id" : "obj-22",
					"fontname" : "Helvetica",
					"numinlets" : 1
				}

			}
, 			{
				"box" : 				{
					"maxclass" : "comment",
					"text" : "• Notice the extra argument to zl to get it to deal with lists with more than 256 elements.",
					"linecount" : 2,
					"numoutlets" : 0,
					"fontsize" : 12.0,
					"patching_rect" : [ 389.0, 383.0, 248.0, 34.0 ],
					"frgb" : [ 0.0, 0.0, 0.0, 1.0 ],
					"id" : "obj-23",
					"fontname" : "Arial",
					"numinlets" : 1
				}

			}
, 			{
				"box" : 				{
					"maxclass" : "comment",
					"text" : "Click these buttons and look at the Max window.",
					"linecount" : 2,
					"numoutlets" : 0,
					"fontsize" : 12.0,
					"patching_rect" : [ 430.0, 126.0, 137.0, 30.0 ],
					"frgb" : [ 0.0, 0.0, 0.0, 1.0 ],
					"id" : "obj-24",
					"fontname" : "Helvetica",
					"numinlets" : 1
				}

			}
, 			{
				"box" : 				{
					"maxclass" : "button",
					"numoutlets" : 1,
					"patching_rect" : [ 644.0, 280.0, 15.0, 15.0 ],
					"hidden" : 1,
					"outlettype" : [ "bang" ],
					"id" : "obj-25",
					"numinlets" : 1
				}

			}
, 			{
				"box" : 				{
					"maxclass" : "button",
					"numoutlets" : 1,
					"patching_rect" : [ 628.0, 348.0, 15.0, 15.0 ],
					"hidden" : 1,
					"outlettype" : [ "bang" ],
					"id" : "obj-26",
					"numinlets" : 1
				}

			}
, 			{
				"box" : 				{
					"maxclass" : "button",
					"numoutlets" : 1,
					"patching_rect" : [ 643.0, 248.0, 15.0, 15.0 ],
					"hidden" : 1,
					"outlettype" : [ "bang" ],
					"id" : "obj-27",
					"numinlets" : 1
				}

			}
, 			{
				"box" : 				{
					"maxclass" : "comment",
					"text" : "CNMAT objects",
					"numoutlets" : 0,
					"fontsize" : 12.0,
					"patching_rect" : [ 616.0, 266.0, 103.0, 18.0 ],
					"frgb" : [ 0.4, 0.4, 0.8, 1.0 ],
					"textcolor" : [ 0.4, 0.4, 0.8, 1.0 ],
					"id" : "obj-28",
					"fontname" : "Helvetica",
					"numinlets" : 1
				}

			}
, 			{
				"box" : 				{
					"maxclass" : "button",
					"numoutlets" : 1,
					"patching_rect" : [ 381.0, 348.0, 15.0, 15.0 ],
					"hidden" : 1,
					"outlettype" : [ "bang" ],
					"id" : "obj-29",
					"numinlets" : 1
				}

			}
, 			{
				"box" : 				{
					"maxclass" : "button",
					"numoutlets" : 1,
					"patching_rect" : [ 374.0, 280.0, 15.0, 15.0 ],
					"hidden" : 1,
					"outlettype" : [ "bang" ],
					"id" : "obj-30",
					"numinlets" : 1
				}

			}
, 			{
				"box" : 				{
					"maxclass" : "button",
					"numoutlets" : 1,
					"patching_rect" : [ 373.0, 248.0, 15.0, 15.0 ],
					"hidden" : 1,
					"outlettype" : [ "bang" ],
					"id" : "obj-31",
					"numinlets" : 1
				}

			}
, 			{
				"box" : 				{
					"maxclass" : "button",
					"numoutlets" : 1,
					"patching_rect" : [ 381.0, 166.0, 15.0, 15.0 ],
					"hidden" : 1,
					"outlettype" : [ "bang" ],
					"id" : "obj-32",
					"numinlets" : 1
				}

			}
, 			{
				"box" : 				{
					"maxclass" : "button",
					"numoutlets" : 1,
					"patching_rect" : [ 628.0, 166.0, 15.0, 15.0 ],
					"hidden" : 1,
					"outlettype" : [ "bang" ],
					"id" : "obj-33",
					"numinlets" : 1
				}

			}
, 			{
				"box" : 				{
					"maxclass" : "button",
					"numoutlets" : 1,
					"patching_rect" : [ 418.0, 187.0, 31.0, 31.0 ],
					"outlettype" : [ "bang" ],
					"id" : "obj-34",
					"fgcolor" : [ 0.4, 0.4, 0.8, 1.0 ],
					"numinlets" : 1
				}

			}
, 			{
				"box" : 				{
					"maxclass" : "newobj",
					"text" : "list-accum 1024",
					"numoutlets" : 2,
					"fontsize" : 12.0,
					"patching_rect" : [ 537.0, 287.0, 110.0, 18.0 ],
					"outlettype" : [ "", "int" ],
					"id" : "obj-35",
					"fontname" : "Helvetica",
					"color" : [ 1.0, 0.890196, 0.090196, 1.0 ],
					"numinlets" : 1
				}

			}
, 			{
				"box" : 				{
					"maxclass" : "newobj",
					"text" : "Uzi 1024",
					"numoutlets" : 3,
					"fontsize" : 12.0,
					"patching_rect" : [ 418.0, 224.0, 65.0, 18.0 ],
					"outlettype" : [ "bang", "bang", "int" ],
					"id" : "obj-36",
					"fontname" : "Helvetica",
					"color" : [ 0.4, 0.4, 0.8, 1.0 ],
					"numinlets" : 2
				}

			}
, 			{
				"box" : 				{
					"maxclass" : "newobj",
					"text" : "zl 1024 group 1024",
					"numoutlets" : 2,
					"fontsize" : 12.0,
					"patching_rect" : [ 418.0, 287.0, 114.0, 18.0 ],
					"outlettype" : [ "", "" ],
					"id" : "obj-37",
					"fontname" : "Helvetica",
					"color" : [ 0.4, 0.4, 0.8, 1.0 ],
					"numinlets" : 2
				}

			}
, 			{
				"box" : 				{
					"maxclass" : "newobj",
					"text" : "printit CNMAT",
					"numoutlets" : 0,
					"fontsize" : 12.0,
					"patching_rect" : [ 537.0, 324.0, 97.0, 18.0 ],
					"id" : "obj-38",
					"fontname" : "Helvetica",
					"color" : [ 1.0, 0.890196, 0.090196, 1.0 ],
					"numinlets" : 1
				}

			}
, 			{
				"box" : 				{
					"maxclass" : "newobj",
					"text" : "printit Max",
					"numoutlets" : 0,
					"fontsize" : 12.0,
					"patching_rect" : [ 418.0, 324.0, 67.0, 18.0 ],
					"id" : "obj-39",
					"fontname" : "Helvetica",
					"color" : [ 0.4, 0.4, 0.8, 1.0 ],
					"numinlets" : 1
				}

			}
, 			{
				"box" : 				{
					"maxclass" : "comment",
					"text" : "• FTM:",
					"numoutlets" : 0,
					"fontsize" : 14.0,
					"patching_rect" : [ 49.0, 360.0, 307.0, 23.0 ],
					"frgb" : [ 0.0, 0.0, 0.0, 1.0 ],
					"id" : "obj-40",
					"fontname" : "Arial",
					"numinlets" : 1
				}

			}
, 			{
				"box" : 				{
					"maxclass" : "comment",
					"text" : "• Jitter",
					"numoutlets" : 0,
					"fontsize" : 14.0,
					"patching_rect" : [ 49.0, 327.0, 87.0, 23.0 ],
					"frgb" : [ 0.0, 0.0, 0.0, 1.0 ],
					"id" : "obj-41",
					"fontname" : "Arial",
					"numinlets" : 1
				}

			}
, 			{
				"box" : 				{
					"maxclass" : "comment",
					"text" : "• custom programming in Java or Javascript",
					"numoutlets" : 0,
					"fontsize" : 14.0,
					"patching_rect" : [ 49.0, 277.0, 282.0, 20.0 ],
					"frgb" : [ 0.0, 0.0, 0.0, 1.0 ],
					"id" : "obj-42",
					"fontname" : "Helvetica",
					"numinlets" : 1
				}

			}
, 			{
				"box" : 				{
					"maxclass" : "comment",
					"text" : "• custom objects in C",
					"numoutlets" : 0,
					"fontsize" : 14.0,
					"patching_rect" : [ 49.0, 244.0, 141.0, 20.0 ],
					"frgb" : [ 0.0, 0.0, 0.0, 1.0 ],
					"id" : "obj-43",
					"fontname" : "Helvetica",
					"numinlets" : 1
				}

			}
, 			{
				"box" : 				{
					"maxclass" : "bpatcher",
					"args" : [  ],
					"offset" : [ 3.0, 2.0 ],
					"numoutlets" : 0,
					"patching_rect" : [ 17.0, 6.0, 829.0, 97.0 ],
					"id" : "obj-45",
					"name" : "z.banner.maxpat",
					"numinlets" : 0
				}

			}
, 			{
				"box" : 				{
					"maxclass" : "newobj",
					"text" : "pcontrol",
					"numoutlets" : 1,
					"fontsize" : 9.0,
					"patching_rect" : [ 672.0, 566.0, 47.0, 17.0 ],
					"hidden" : 1,
					"outlettype" : [ "" ],
					"id" : "obj-47",
					"fontname" : "Arial",
					"numinlets" : 1
				}

			}
, 			{
				"box" : 				{
					"maxclass" : "newobj",
					"text" : "thispatcher",
					"numoutlets" : 2,
					"fontsize" : 9.0,
					"patching_rect" : [ 31.0, 566.0, 61.0, 17.0 ],
					"hidden" : 1,
					"outlettype" : [ "", "" ],
					"id" : "obj-48",
					"fontname" : "Arial",
					"numinlets" : 1,
					"save" : [ "#N", "thispatcher", ";", "#Q", "end", ";" ]
				}

			}
, 			{
				"box" : 				{
					"maxclass" : "bpatcher",
					"args" : [  ],
					"offset" : [ -2.0, -39.0 ],
					"numoutlets" : 2,
					"patching_rect" : [ 31.0, 529.0, 779.0, 35.0 ],
					"outlettype" : [ "", "" ],
					"lockeddragscroll" : 1,
					"id" : "obj-49",
					"name" : "z.nav_buttons.maxpat",
					"numinlets" : 1
				}

			}
, 			{
				"box" : 				{
					"maxclass" : "newobj",
					"text" : "loadmess set 8",
					"numoutlets" : 1,
					"fontsize" : 9.0,
					"patching_rect" : [ 31.0, 503.0, 77.0, 17.0 ],
					"hidden" : 1,
					"outlettype" : [ "" ],
					"id" : "obj-50",
					"fontname" : "Arial",
					"numinlets" : 1
				}

			}
, 			{
				"box" : 				{
					"maxclass" : "comment",
					"text" : "As of Max 5, it is possible to work with much bigger lists. (Max 4 was limited to 256 items.)  However, it is still worth thinking about ways to work with such lists, such as:",
					"linecount" : 5,
					"numoutlets" : 0,
					"fontsize" : 18.0,
					"patching_rect" : [ 33.0, 146.0, 291.0, 96.0 ],
					"frgb" : [ 0.0, 0.0, 0.0, 1.0 ],
					"id" : "obj-51",
					"fontname" : "Helvetica",
					"numinlets" : 1
				}

			}
, 			{
				"box" : 				{
					"maxclass" : "comment",
					"text" : "standard Max",
					"numoutlets" : 0,
					"fontsize" : 12.0,
					"patching_rect" : [ 347.0, 266.0, 92.0, 18.0 ],
					"frgb" : [ 0.4, 0.4, 0.8, 1.0 ],
					"textcolor" : [ 0.4, 0.4, 0.8, 1.0 ],
					"id" : "obj-52",
					"fontname" : "Helvetica",
					"numinlets" : 1
				}

			}
, 			{
				"box" : 				{
					"maxclass" : "panel",
					"numoutlets" : 0,
					"bordercolor" : [ 0.4, 0.4, 0.8, 1.0 ],
					"patching_rect" : [ 22.0, 131.0, 327.0, 341.0 ],
					"bgcolor" : [ 1.0, 1.0, 1.0, 1.0 ],
					"rounded" : 15,
					"shadow" : 2,
					"id" : "obj-53",
					"background" : 1,
					"numinlets" : 1
				}

			}
, 			{
				"box" : 				{
					"maxclass" : "panel",
					"numoutlets" : 0,
					"bordercolor" : [ 0.4, 0.4, 0.8, 1.0 ],
					"patching_rect" : [ 425.0, 119.0, 148.0, 43.0 ],
					"bgcolor" : [ 1.0, 1.0, 1.0, 1.0 ],
					"rounded" : 0,
					"shadow" : 2,
					"id" : "obj-54",
					"background" : 1,
					"numinlets" : 1
				}

			}
, 			{
				"box" : 				{
					"maxclass" : "panel",
					"numoutlets" : 0,
					"bordercolor" : [ 0.4, 0.4, 0.8, 1.0 ],
					"patching_rect" : [ 384.0, 378.0, 440.0, 141.0 ],
					"bgcolor" : [ 1.0, 1.0, 1.0, 1.0 ],
					"rounded" : 15,
					"shadow" : 2,
					"id" : "obj-55",
					"background" : 1,
					"numinlets" : 1
				}

			}
 ],
		"lines" : [ 			{
				"patchline" : 				{
					"source" : [ "obj-50", 0 ],
					"destination" : [ "obj-49", 0 ],
					"hidden" : 1,
					"midpoints" : [  ]
				}

			}
, 			{
				"patchline" : 				{
					"source" : [ "obj-49", 0 ],
					"destination" : [ "obj-48", 0 ],
					"hidden" : 1,
					"midpoints" : [  ]
				}

			}
, 			{
				"patchline" : 				{
					"source" : [ "obj-17", 1 ],
					"destination" : [ "obj-18", 0 ],
					"hidden" : 1,
					"midpoints" : [  ]
				}

			}
, 			{
				"patchline" : 				{
					"source" : [ "obj-14", 1 ],
					"destination" : [ "obj-16", 0 ],
					"hidden" : 1,
					"midpoints" : [  ]
				}

			}
, 			{
				"patchline" : 				{
					"source" : [ "obj-32", 0 ],
					"destination" : [ "obj-31", 0 ],
					"hidden" : 0,
					"color" : [ 0.4, 0.4, 0.8, 1.0 ],
					"midpoints" : [ 390.0, 181.0, 382.0, 181.0 ]
				}

			}
, 			{
				"patchline" : 				{
					"source" : [ "obj-30", 0 ],
					"destination" : [ "obj-29", 0 ],
					"hidden" : 0,
					"color" : [ 0.4, 0.4, 0.8, 1.0 ],
					"midpoints" : [ 383.0, 347.0, 390.0, 347.0 ]
				}

			}
, 			{
				"patchline" : 				{
					"source" : [ "obj-34", 0 ],
					"destination" : [ "obj-36", 0 ],
					"hidden" : 0,
					"midpoints" : [  ]
				}

			}
, 			{
				"patchline" : 				{
					"source" : [ "obj-36", 0 ],
					"destination" : [ "obj-20", 0 ],
					"hidden" : 0,
					"midpoints" : [  ]
				}

			}
, 			{
				"patchline" : 				{
					"source" : [ "obj-10", 0 ],
					"destination" : [ "obj-11", 0 ],
					"hidden" : 0,
					"midpoints" : [  ]
				}

			}
, 			{
				"patchline" : 				{
					"source" : [ "obj-11", 0 ],
					"destination" : [ "obj-9", 0 ],
					"hidden" : 0,
					"midpoints" : [  ]
				}

			}
, 			{
				"patchline" : 				{
					"source" : [ "obj-9", 0 ],
					"destination" : [ "obj-35", 0 ],
					"hidden" : 0,
					"midpoints" : [  ]
				}

			}
, 			{
				"patchline" : 				{
					"source" : [ "obj-35", 0 ],
					"destination" : [ "obj-38", 0 ],
					"hidden" : 0,
					"midpoints" : [  ]
				}

			}
, 			{
				"patchline" : 				{
					"source" : [ "obj-25", 0 ],
					"destination" : [ "obj-26", 0 ],
					"hidden" : 0,
					"color" : [ 0.4, 0.4, 0.8, 1.0 ],
					"midpoints" : [ 653.0, 347.0, 637.0, 347.0 ]
				}

			}
, 			{
				"patchline" : 				{
					"source" : [ "obj-33", 0 ],
					"destination" : [ "obj-27", 0 ],
					"hidden" : 0,
					"color" : [ 0.4, 0.4, 0.8, 1.0 ],
					"midpoints" : [ 637.0, 181.0, 652.0, 181.0 ]
				}

			}
, 			{
				"patchline" : 				{
					"source" : [ "obj-16", 0 ],
					"destination" : [ "obj-47", 0 ],
					"hidden" : 1,
					"midpoints" : [  ]
				}

			}
, 			{
				"patchline" : 				{
					"source" : [ "obj-49", 1 ],
					"destination" : [ "obj-47", 0 ],
					"hidden" : 1,
					"midpoints" : [  ]
				}

			}
, 			{
				"patchline" : 				{
					"source" : [ "obj-2", 0 ],
					"destination" : [ "obj-3", 0 ],
					"hidden" : 0,
					"midpoints" : [  ]
				}

			}
, 			{
				"patchline" : 				{
					"source" : [ "obj-3", 0 ],
					"destination" : [ "obj-1", 0 ],
					"hidden" : 0,
					"midpoints" : [  ]
				}

			}
, 			{
				"patchline" : 				{
					"source" : [ "obj-1", 0 ],
					"destination" : [ "obj-13", 0 ],
					"hidden" : 0,
					"midpoints" : [  ]
				}

			}
, 			{
				"patchline" : 				{
					"source" : [ "obj-13", 0 ],
					"destination" : [ "obj-12", 0 ],
					"hidden" : 0,
					"midpoints" : [  ]
				}

			}
, 			{
				"patchline" : 				{
					"source" : [ "obj-4", 0 ],
					"destination" : [ "obj-5", 0 ],
					"hidden" : 0,
					"color" : [ 0.4, 0.4, 0.8, 1.0 ],
					"midpoints" : [ 820.0, 351.0, 796.0, 351.0 ]
				}

			}
, 			{
				"patchline" : 				{
					"source" : [ "obj-8", 0 ],
					"destination" : [ "obj-6", 0 ],
					"hidden" : 0,
					"color" : [ 0.4, 0.4, 0.8, 1.0 ],
					"midpoints" : [ 804.0, 181.0, 819.0, 181.0 ]
				}

			}
, 			{
				"patchline" : 				{
					"source" : [ "obj-20", 0 ],
					"destination" : [ "obj-37", 0 ],
					"hidden" : 0,
					"midpoints" : [  ]
				}

			}
, 			{
				"patchline" : 				{
					"source" : [ "obj-37", 0 ],
					"destination" : [ "obj-39", 0 ],
					"hidden" : 0,
					"midpoints" : [  ]
				}

			}
 ]
	}

}
