max v2;#N vpatcher 9 44 1083 891;#P origin 10 3;#P window setfont "Sans Serif" 14.;#P window linecount 3;#P comment 641 264 403 196622 several messages can be put into one message box and the order of arrival of messages will always be from top to bottom;#P number 931 198 76 14 0 0 0 3 0 0 0 221 221 221 222 222 222 0 0 0;#P window linecount 1;#P newex 931 154 117 196622 receive softcat;#P number 827 198 76 14 0 0 0 3 0 0 0 221 221 221 222 222 222 0 0 0;#P newex 827 154 100 196622 receive mary;#P number 728 198 76 14 0 0 0 3 0 0 0 221 221 221 222 222 222 0 0 0;#P newex 728 154 97 196622 receive toto;#P window linecount 2;#P message 650 102 63 196622 \; toto 33;#P number 961 82 76 14 0 0 0 3 0 0 0 221 221 221 222 222 222 0 0 0;#P window linecount 1;#P newex 961 38 97 196622 receive toto;#P window linecount 6;#P comment 714 37 234 196622 the special symbol \; (semi-colon) inside a message box tells the message box that the next item will be the name of a receive object;#P window linecount 2;#P message 650 39 54 196622 \; toto 3;#P window linecount 4;#P message 643 186 83 196622 \; toto 66 \; mary 44 \; softcat 13;#P window setfont "Sans Serif" 9.;#P window linecount 1;#P newex 32 379 69 196617 about_printit;#P window setfont "Sans Serif" 14.;#P flonum 436 565 51 14 0 0 0 3 0 0 0 221 221 221 222 222 222 0 0 0;#P flonum 493 566 51 14 0 0 0 3 0 0 0 221 221 221 222 222 222 0 0 0;#P window setfont "Sans Serif" 9.;#P flonum 612 522 35 9 0 0 0 3 0 0 0 221 221 221 222 222 222 0 0 0;#P window setfont "Sans Serif" 12.;#P window linecount 4;#P comment 651 530 391 196620 it is the special character " " \; " that informs the message box that the next symbol will be the name of a receive object.  The model is semi-colon" \, name of recieve object \, <space> \, message or value or variables;#P window linecount 3;#P comment 561 462 340 196620 input any numeric value and the message box replaces the \$1(variable) with the value and sends the message to the any receive obect with the same name;#P window linecount 4;#P comment 364 462 119 196620 bang the message to send the value to all "carp" receive objects;#P window setfont "Sans Serif" 9.;#P window linecount 1;#P message 366 534 26 196617 500;#P newex 366 564 38 196617 s carp;#P message 549 385 54 196617 set tigers;#P comment 60 490 46 196617 click me;#P window setfont "Sans Serif" 12.;#P comment 264 697 52 196620 Colors:;#P window setfont "Sans Serif" 9.;#P number 269 719 35 9 0 15 3 3 0 0 0 221 221 221 222 222 222 0 0 0;#P message 269 741 48 196617 color \$1;#P message 269 761 39 196617 pretty;#B color 2;#P comment 417 655 100 196617 ¥ opens an editor;#P message 431 673 30 196617 open;#P comment 288 509 46 196617 (works);#P message 234 509 55 196617 symbol no;#P comment 254 490 100 196617 (doesn't work);#P message 235 489 18 196617 no;#P comment 287 629 126 196617 ¥ set alone clears the box;#P comment 561 607 90 196617 ¥ prepend/append;#P message 592 650 69 196617 orangoutangs;#P message 671 632 41 196617 chimps;#P message 716 633 69 196617 orangoutangs;#P message 561 630 41 196617 chimps;#P message 299 644 22 196617 set;#P newex 661 690 78 196617 prepend append;#P newex 541 686 83 196617 prepend prepend;#P window setfont "Sans Serif" 12.;#P comment 286 601 267 196620 Ways to change the message box:;#P window setfont "Sans Serif" 9.;#P window linecount 0;#P message 379 783 370 196617;#P window setfont "Sans Serif" 12.;#P window linecount 1;#P comment 11 601 267 196620 Commas send messages sequentially;#P window setfont "Sans Serif" 9.;#P message 76 624 70 196617 1 \, 2 \, 3 \, 4 \, 5;#P newex 76 646 35 196617 print;#P window setfont "Sans Serif" 14.;#P newex 493 536 52 196622 r carp;#P newex 436 536 52 196622 r carp;#P window setfont "Sans Serif" 9.;#P number 570 521 35 9 0 0 0 3 0 0 0 221 221 221 222 222 222 0 0 0;#P window setfont "Sans Serif" 18.;#P window linecount 2;#P message 570 547 78 196626 \; carp \$1;#P window setfont "Sans Serif" 12.;#P window linecount 1;#P comment 365 417 334 196620 Message boxes can send messages to receive objects;#P window setfont "Sans Serif" 9.;#P number 188 495 35 9 0 0 0 3 0 0 0 221 221 221 222 222 222 0 0 0;#P message 188 533 97 196617 I have \$1 monkeys.;#P message 30 490 29 196617 date;#P newex 30 510 40 196617 date;#P newex 30 560 32 196617 print;#P message 155 698 69 196617 help message;#P message 30 533 141 196617 Day: \$2 Month: \$1 Year: \$3;#P newex 61 359 39 196617 printit;#P window setfont "Sans Serif" 12.;#P comment 11 462 325 196620 Message boxes can have variables;#P window setfont "Sans Serif" 9.;#P comment 0 277 30 196617 bang;#P message 282 307 36 196617 lemur;#P comment 282 291 126 196617 symbols;#P message 213 309 48 196617 100 -50;#P comment 212 273 126 196617 lists;#P message 213 290 43 196617 1. 7.3;#P message 153 288 31 196617 6.28;#P comment 120 274 126 196617 floats;#P message 120 288 30 196617 -0.2;#P message 78 288 14 196617 4;#P message 10 295 30 196617 bang;#P message 478 385 66 196617 set monkeys;#P window linecount 2;#P comment 173 378 236 196617 <- contents of message boxes can be changed without causing output by using the "set" message;#P window linecount 1;#P message 109 422 53 196617 3.;#P newex 109 383 62 196617 prepend set;#P newex 109 358 34 196617 + 3.2;#P comment 54 271 126 196617 integers;#P message 62 288 14 196617 1;#P window setfont "Sans Serif" 12.;#P comment 363 324 325 196620 INSERT: Max Data types;#P comment 7 247 325 196620 Message boxes can send any type of Max Data;#P window setfont "Sans Serif" 9.;#P window linecount 3;#P message 429 38 99 196617 comment box is here on the palette (unlock the patcher);#P hidden button 36 2 15 0;#P message 18 29 100 196617 the message box is on the palette here (unlock the patcher);#P hidden button 18 2 15 0;#P comment 395 212 227 196617 ¥ Unlock the patch \, and you'll see an inlet and an outlet on the message box. Comment boxes have no inlet or outlet \, and have a dotted line border.;#P comment 395 174 227 196617 ¥ When a patch is locked \, messages are surrounded by a grey rectangle. Comment boxes only show the text.;#P window linecount 1;#P comment 485 155 126 196617 comment;#P message 415 155 48 196617 message;#P window linecount 3;#P comment 396 112 228 196617 There are also a number of comment boxes in this patch. They don't do anything \, but are very useful to remind you how a patch works.;#P window linecount 1;#P comment 12 675 126 196617 See also \, Max tutorial $1:;#P newex 16 725 47 196617 pcontrol;#P message 16 697 131 196617 load "01. Saying Hello.pat";#P comment 62 201 126 196617 <- This object prints;#P comment 35 179 236 196617 <- message travels along this patch cord;#P comment 94 155 236 196617 <- click on this MESSAGE BOX to sent the message;#P newex 29 199 32 196617 print;#P message 29 154 63 196617 hello world!;#P window setfont "Sans Serif" 12.;#P window linecount 2;#P comment 4 116 325 196620 The basic metaphor of Max programming is that "messages" are sent along "patch cords" -- like this:;#P window setfont "Sans Serif" 14.;#P window linecount 1;#P comment 396 92 126 196622 Comment boxes;#P user panel 388 86 245 174;#X brgb 255 255 255;#X frgb 0 0 0;#X border 1;#X rounded 0;#X shadow 0;#X done;#P window setfont "Sans Serif" 9.;#P window linecount 4;#P comment 421 729 391 196617 the prepend object "prepends" the symbol "prepend" onto the incoming message. The message box understnads the symbol "prepend" as a special message instructing the message box to take the next message and prepend that message to whatever is currently in the message box -- with no output. Some for the "append" message.;#P user panel 632 38 426 284;#X brgb 255 255 255;#X frgb 0 0 0;#X border 1;#X rounded 0;#X shadow 0;#X done;#P background;#P connect 45 0 11 0;#P connect 10 0 11 0;#P connect 18 0 19 0;#P connect 5 0 6 0;#P connect 48 0 47 0;#P connect 47 0 44 0;#P fasten 49 0 46 0 193 554 35 554;#P connect 44 0 46 0;#P connect 32 0 43 0;#P connect 38 0 43 0;#P connect 33 0 43 0;#P connect 24 0 43 0;#P connect 40 0 43 0;#P connect 36 0 43 0;#P connect 31 0 43 0;#P connect 35 0 43 0;#P connect 57 0 56 0;#P connect 40 0 26 0;#P connect 38 0 26 0;#P connect 36 0 26 0;#P connect 33 0 26 0;#P connect 31 0 26 0;#P connect 24 0 26 0;#P connect 26 0 27 0;#P fasten 30 0 28 0 483 407 114 407;#P connect 27 0 28 0;#P fasten 81 0 28 0 554 411 114 411;#P connect 35 0 26 1;#P connect 32 0 26 1;#P connect 72 0 49 0;#P connect 70 0 49 0;#P connect 50 0 49 0;#P connect 78 0 77 0;#P connect 77 0 76 0;#P connect 83 0 82 0;#P connect 74 0 59 0;#P fasten 62 0 59 0 666 724 384 724;#P fasten 61 0 59 0 546 719 384 719;#P connect 63 0 59 0;#P fasten 20 0 21 0 41 26 434 26;#P connect 54 0 89 0;#P connect 55 0 88 0;#P connect 64 0 61 0;#P connect 67 0 61 0;#P connect 53 0 52 0;#P connect 87 0 52 0;#P connect 66 0 62 0;#P connect 65 0 62 0;#P connect 97 0 98 0;#P connect 99 0 100 0;#P connect 101 0 102 0;#P connect 94 0 95 0;#P pop;