max v2;#N vpatcher 79 119 592 670;#P window setfont "Sans Serif" 9.;#P window linecount 1;#P comment 174 437 115 196617 Also see UBU-menu;#P user ubumenu 63 433 100 196617 0 1 1 0;#X prefix_set 0 0 <none> 0;#P button 267 395 15 0;#P button 219 395 15 0;#P button 171 395 15 0;#P button 123 395 15 0;#P button 75 395 15 0;#P button 265 347 15 0;#P button 217 347 15 0;#P button 169 347 15 0;#P button 121 347 15 0;#P button 73 347 15 0;#P newex 75 372 252 196617 select 0 1 2 3 4;#P number 39 374 35 9 0 0 0 3 0 0 0 221 221 221 222 222 222 0 0 0;#P number 60 118 35 9 0 0 0 3 0 0 0 221 221 221 222 222 222 0 0 0;#P user umenu 60 141 100 196645 3 64 157 0;#X add a1;#X add a2;#X add a3;#X add a4;#X add a5;#X add a6;#X add a7;#X add a8;#X add a9;#X add a10;#X add a11;#X add a12;#X add a13;#X add a14;#X add a15;#X add a16;#X add a17;#X add a18;#X add a19;#X add a20;#X add a21;#X add a22;#X add a23;#X add a24;#X add b1;#X add b2;#X add b3;#X add b4;#X add b5;#X add b6;#X add b7;#X add b8;#X add b9;#X add b10;#X add b11;#X add b12;#X add b13;#X add b14;#X add b15;#X add b16;#X add b17;#X add b18;#X add b19;#X add b20;#X add b21;#X add b22;#X add b23;#X add b24;#P number 60 164 30 9 0 0 0 3 0 0 0 221 221 221 222 222 222 0 0 0;#P button 60 184 15 0;#P message 162 186 40 196617 mode 3;#P message 162 141 40 196617 mode 1;#P message 162 163 40 196617 mode 2;#P comment 204 141 115 196617 set normal (menu) mode;#P comment 204 163 100 196617 set scrolling mode;#P comment 204 186 100 196617 set label mode;#P window linecount 4;#P comment 60 208 185 196617 The right outlet puts out the displayed text as a message if "Evaluate Item Text" is checked in the Get Info… dialog.;#P user umenu 61 262 187 196647 1 64 278 0;#X add start;#X add stop;#X add record;#X add read;#X add write;#P window linecount 1;#P newex 73 325 251 196617 route start stop record read write;#P window setfont "Sans Serif" 18.;#P user umenu 60 72 337 196683 1 64 100 1;#X setrgb 136 34 108 221 221 221 255 255 255 221 221 221 170 170 170 119 119 119 187 187 187;#X add choose get info to configure menu;#P window setfont "Sans Serif" 20.;#P comment 60 38 100 196628 MENU;#P window setfont "Sans Serif" 9.;#P window linecount 3;#P comment 100 101 100 196617 examine the different modes for menu;#P connect 4 0 16 0;#P hidden connect 11 0 14 0;#P hidden connect 10 0 14 0;#P hidden connect 9 0 14 0;#P connect 15 0 14 0;#P connect 14 0 13 0;#P connect 13 0 12 0;#P connect 4 1 3 0;#P connect 3 0 18 0;#P connect 16 0 17 0;#P connect 17 0 23 0;#P connect 3 1 19 0;#P connect 17 1 24 0;#P connect 3 2 20 0;#P connect 17 2 25 0;#P connect 3 3 21 0;#P connect 17 3 26 0;#P connect 3 4 22 0;#P connect 17 4 27 0;#P pop;