max v2;#N vpatcher 10 93 725 720;#P window setfont "Sans Serif" 9.;#P window linecount 1;#P hidden newex 564 472 106 196617 bgcolor 223 238 255;#P bpatcher 375 493 292 86 0 0 badge.pat 4 about_printit 1.1a "Edmund Campion" about_printit 6666;#P window setfont "Sans Serif" 14.;#P window linecount 3;#P comment 29 469 304 196622 Max treats each data type (int \, float \, symbol \, list) in very different ways. Printit can be useful for debugging patches!!!;#P window setfont "Sans Serif" 20.;#P window linecount 1;#P message 248 192 150 196628 44 tomcat 3.4;#P message 166 192 63 196628 3 5 6;#P message 83 192 68 196628 5.554;#P message 27 191 21 196628 5;#P window setfont "Sans Serif" 14.;#P comment 28 439 215 196622 printit prints what max "sees";#P comment 279 440 317 196622 normal print object just prints what you see;#P window setfont "Sans Serif" 20.;#P newex 281 403 212 196628 print NORMAL_PRINT;#P window setfont "Sans Serif" 14.;#P window linecount 2;#P comment 17 74 393 196622 Printit is a CNMAT object that prints in the max window a complete breakdown of a max data structure;#P window setfont "Sans Serif" 20.;#P window linecount 1;#P newex 27 399 64 196628 printit;#P comment 19 39 100 196628 Printit;#P connect 9 0 1 0;#P connect 7 0 1 0;#P connect 8 0 1 0;#P connect 6 0 1 0;#P connect 9 0 3 0;#P connect 8 0 3 0;#P connect 7 0 3 0;#P connect 6 0 3 0;#P pop;