max v2;#N vpatcher 159 44 950 885;#P origin 0 32;#P window setfont "Sans Serif" 14.;#P newex 630 466 67 196622 print list;#P comment 629 367 86 196622 l = list;#P window setfont "Sans Serif" 9.;#P hidden newex 673 701 106 196617 bgcolor 223 238 255;#P bpatcher 484 722 292 86 0 0 badge.pat 4 about_trigger 1.1a "Campion\, Wright\, & Zbyszynski" about_trigger 6666;#P window setfont "Sans Serif" 14.;#P comment 418 594 182 196622 floating point input;#P comment 120 735 182 196622 integer input;#P flonum 357 593 57 14 0 0 0 3 0 0 0 221 221 221 222 222 222 0 0 0;#P newex 357 667 302 196622 print float-turned-into-bang-unintentionally;#P newex 357 628 72 196622 trigger b;#P window setfont "Sans Serif" 18.;#P window linecount 2;#P comment 31 530 618 196626 Be careful to use the proper data type arguments or problems can result;#P window setfont "Sans Serif" 14.;#P number 32 735 63 14 0 0 0 3 0 0 0 221 221 221 222 222 222 0 0 0;#P flonum 33 600 57 14 0 0 0 3 0 0 0 221 221 221 222 222 222 0 0 0;#P window linecount 1;#P newex 33 628 66 196622 trigger i;#P newex 32 763 68 196622 trigger f;#P comment 96 600 182 196622 floating point input;#P comment 32 704 86 196622 i = integer;#P newex 32 802 435 196622 print integer-turned-into-floating-point-numeral-unintentionally;#P newex 33 667 318 196622 print float-turned-into-integer-unintentionally;#P message 630 396 72 196622 list 3 4 5;#P button 93 396 20 0;#P message 496 396 58 196622 symbol;#P button 14 396 20 0;#P number 194 396 63 14 0 0 0 3 0 0 0 221 221 221 222 222 222 0 0 0;#P flonum 304 396 57 14 0 0 0 3 0 0 0 221 221 221 222 222 222 0 0 0;#P newex 93 424 97 196622 trigger bang;#P newex 630 427 66 196622 trigger l;#P newex 496 424 71 196622 trigger s;#P newex 496 463 95 196622 print symbol;#P newex 304 424 68 196622 trigger f;#P newex 194 424 66 196622 trigger i;#P window setfont "Sans Serif" 18.;#P window linecount 2;#P comment 108 94 540 196626 trigger takes any number of letter arguments \, each describing the date type to be processed;#P window linecount 1;#P comment 263 180 351 196626 bang and "b" mean the same to trigger;#P window setfont "Sans Serif" 14.;#P comment 15 365 86 196622 b = bang;#P comment 304 364 182 196622 f = floating point number;#P comment 194 365 86 196622 i = integer;#P window setfont "Sans Serif" 18.;#P newex 56 281 50 196626 print;#P message 56 245 20 196626 3;#P message 111 245 20 196626 2;#P message 166 245 20 196626 1;#P button 56 152 15 0;#P button 56 222 15 0;#P button 111 222 15 0;#P button 166 222 15 0;#P newex 56 178 151 196626 trigger b b bang;#P window setfont "Sans Serif" 14.;#P newex 194 463 97 196622 print integer;#P newex 304 463 78 196622 print float;#P newex 14 463 81 196622 print bang;#P newex 14 424 72 196622 trigger b;#P window setfont "Sans Serif" 18.;#P window linecount 2;#P comment 9 36 578 196626 Beginning and intermediate max users should use it all the time just to be sure things happen when you want them to.;#P window linecount 1;#P comment 9 0 644 196626 the object trigger is used to insure the order of a set of max operations;#P window linecount 5;#P comment 218 214 375 196626 no matter where the print object is placed in the patcher window \, the order of arrival of the three numbers will be the same. This is because trigger will always output from right to left in precise order.;#P window setfont "Sans Serif" 14.;#P window linecount 1;#P comment 495 364 86 196622 s = symbol;#P connect 30 0 4 0;#P connect 4 0 5 0;#P connect 27 0 5 0;#P connect 41 0 38 0;#P connect 38 0 35 0;#P connect 40 0 39 0;#P connect 39 0 34 0;#P connect 12 0 8 0;#P connect 8 0 11 0;#P connect 11 0 15 0;#P connect 13 0 16 0;#P connect 14 0 16 0;#P connect 15 0 16 0;#P connect 32 0 27 0;#P connect 8 1 10 0;#P connect 10 0 14 0;#P connect 8 2 9 0;#P connect 9 0 13 0;#P connect 29 0 22 0;#P connect 22 0 7 0;#P connect 28 0 23 0;#P connect 23 0 6 0;#P connect 45 0 43 0;#P connect 43 0 44 0;#P connect 31 0 25 0;#P connect 25 0 24 0;#P connect 33 0 26 0;#P connect 26 0 51 0;#P pop;