max v2;#N vpatcher 10 59 718 946;#P window setfont "Sans Serif" 14.;#P window linecount 1;#P comment 418 626 182 196622 floating point input;#P comment 120 767 182 196622 integer input;#P flonum 357 625 57 14 0 0 0 3 0 0 0 221 221 221 222 222 222 0 0 0;#P newex 357 699 302 196622 print float-turned-into-bang-unintentionally;#P newex 357 660 72 196622 trigger b;#P window setfont "Sans Serif" 18.;#P window linecount 2;#P comment 31 562 618 196626 Be careful to use the proper data type arguments or problems can result;#P window setfont "Sans Serif" 14.;#P number 32 767 63 14 0 0 0 3 0 0 0 221 221 221 222 222 222 0 0 0;#P flonum 33 632 57 14 0 0 0 3 0 0 0 221 221 221 222 222 222 0 0 0;#P window linecount 1;#P newex 33 660 66 196622 trigger i;#P newex 32 795 68 196622 trigger f;#P comment 96 632 182 196622 floating point input;#P comment 32 736 86 196622 i = integer;#P newex 32 834 435 196622 print integer-turned-into-floating-point-numeral-unintentionally;#P newex 33 699 318 196622 print float-turned-into-integer-unintentionally;#P message 572 428 58 196622 symbol;#P button 93 428 20 0;#P message 496 428 58 196622 symbol;#P button 14 428 20 0;#P number 194 428 63 14 0 0 0 3 0 0 0 221 221 221 222 222 222 0 0 0;#P flonum 304 428 57 14 0 0 0 3 0 0 0 221 221 221 222 222 222 0 0 0;#P newex 93 456 97 196622 trigger bang;#P newex 572 456 111 196622 trigger symbol;#P newex 496 456 71 196622 trigger s;#P newex 496 495 95 196622 print symbol;#P newex 304 456 68 196622 trigger f;#P newex 194 456 66 196622 trigger i;#P window setfont "Sans Serif" 18.;#P window linecount 2;#P comment 108 126 540 196626 trigger takes any number of letter arguments \, each describing the date type to be processed;#P window linecount 1;#P comment 263 212 351 196626 bang and "b" mean the same to trigger;#P window setfont "Sans Serif" 14.;#P comment 15 397 86 196622 b = bang;#P comment 304 396 182 196622 f = floating point number;#P comment 194 397 86 196622 i = integer;#P window setfont "Sans Serif" 18.;#P newex 56 313 50 196626 print;#P message 56 277 20 196626 3;#P message 111 277 20 196626 2;#P message 166 277 20 196626 1;#P button 56 184 15 0;#P button 56 254 15 0;#P button 111 254 15 0;#P button 166 254 15 0;#P newex 56 210 151 196626 trigger b b bang;#P window setfont "Sans Serif" 14.;#P newex 194 495 97 196622 print integer;#P newex 304 495 78 196622 print float;#P newex 14 495 81 196622 print bang;#P newex 14 456 72 196622 trigger b;#P window setfont "Sans Serif" 18.;#P window linecount 2;#P comment 9 68 578 196626 Beginning and intermediate max users should use it all the time just to be sure things happen when you want them to.;#P window linecount 1;#P comment 9 32 644 196626 the object trigger is used to insure the order of a set of max operations;#P window linecount 5;#P comment 218 246 375 196626 no matter where the print object is placed in the patcher window \, the order of arrival of the three numbers will be the same. This is because trigger will always output from right to left in precise order.;#P window setfont "Sans Serif" 14.;#P window linecount 1;#P comment 495 396 86 196622 s = symbol;#P connect 30 0 4 0;#P connect 27 0 5 0;#P connect 4 0 5 0;#P connect 41 0 38 0;#P connect 38 0 35 0;#P connect 40 0 39 0;#P connect 39 0 34 0;#P connect 12 0 8 0;#P connect 8 0 11 0;#P connect 11 0 15 0;#P connect 15 0 16 0;#P connect 14 0 16 0;#P connect 13 0 16 0;#P connect 32 0 27 0;#P connect 8 1 10 0;#P connect 10 0 14 0;#P connect 8 2 9 0;#P connect 9 0 13 0;#P connect 29 0 22 0;#P connect 22 0 7 0;#P connect 28 0 23 0;#P connect 23 0 6 0;#P connect 45 0 43 0;#P connect 43 0 44 0;#P connect 31 0 25 0;#P connect 25 0 24 0;#P connect 26 0 24 0;#P connect 33 0 26 0;#P pop;