max v2;#N vpatcher 113 44 608 647;#P window setfont "Sans Serif" 12.;#P window linecount 2;#P comment 16 136 318 196620 It mostly useful handy for when you want to make a neat user interface.;#P window setfont "Sans Serif" 9.;#P window linecount 1;#P comment 264 41 297 196617 here it is on the palette;#P hidden button 320 42 15 0;#P hidden button 209 4 15 0;#P window setfont "Sans Serif" 12.;#P window linecount 2;#P comment 22 481 318 196620 get info on the bpatcher to see how to control the features.;#P window linecount 3;#P comment 21 425 319 196620 If you hold down ctrl or apple + shift \, you can drag the patcher around in the bpatcher window. It is possible to disable this feature.;#P window setfont "Sans Serif" 9.;#P window linecount 1;#P comment 13 400 188 196617 (The border on the bpatcher is optional);#P window setfont "Sans Serif" 14.;#P window linecount 2;#P comment 209 339 146 196622 They both respond to the "z" key.;#P window setfont "Sans Serif" 12.;#P comment 16 176 318 196620 Here is the same patcher \, loaded in a bpatcher and in an object box:;#P button 59 382 15 0;#P button 257 298 15 0;#P user led 283 298 17 17 0 150;#P user led 149 381 17 17 0 150;#P window setfont "Sans Serif" 18.;#P window linecount 1;#P comment 219 239 115 196626 abstraction:;#P window setfont "Sans Serif" 9.;#P newex 257 271 44 196617 letter z;#P window setfont "Sans Serif" 18.;#P comment 20 236 100 196626 bpatcher:;#P bpatcher 59 273 100 100 4 6 letter.pat 1 z;#P comment 9 39 100 196626 bpatcher;#P window setfont "Sans Serif" 12.;#P window linecount 3;#P comment 16 81 297 196620 A bpatcher is a window into another patcher. It works like an abstraction \, but part of the patcher file that is loaded is visible.;#P user panel 204 229 161 106;#X brgb 255 255 255;#X frgb 0 0 0;#X border 1;#X rounded 0;#X shadow 0;#X done;#P user panel 12 229 188 187;#X brgb 255 255 255;#X frgb 0 0 0;#X border 1;#X rounded 0;#X shadow 0;#X done;#P connect 4 0 11 0;#P connect 4 1 8 0;#P connect 6 0 10 0;#P connect 6 1 9 0;#P fasten 17 0 18 0 214 25 325 25;#P pop;