{
	"patcher" : 	{
		"fileversion" : 1,
		"rect" : [ 282.0, 115.0, 657.0, 326.0 ],
		"bgcolor" : [ 0.807843, 0.807843, 0.807843, 1.0 ],
		"bglocked" : 0,
		"defrect" : [ 282.0, 115.0, 657.0, 326.0 ],
		"openrect" : [ 0.0, 0.0, 0.0, 0.0 ],
		"openinpresentation" : 1,
		"default_fontsize" : 12.0,
		"default_fontface" : 0,
		"default_fontname" : "Arial",
		"gridonopen" : 0,
		"gridsize" : [ 15.0, 15.0 ],
		"gridsnaponopen" : 0,
		"toolbarvisible" : 0,
		"boxanimatetime" : 200,
		"imprint" : 0,
		"title" : "Plucked String",
		"metadata" : [  ],
		"boxes" : [ 			{
				"box" : 				{
					"maxclass" : "newobj",
					"text" : "t b b",
					"numoutlets" : 2,
					"presentation_rect" : [ 626.0, 449.0, 0.0, 0.0 ],
					"fontname" : "Arial",
					"outlettype" : [ "bang", "bang" ],
					"patching_rect" : [ 414.0, 294.0, 34.0, 20.0 ],
					"id" : "obj-1",
					"fontsize" : 12.0,
					"numinlets" : 1
				}

			}
, 			{
				"box" : 				{
					"maxclass" : "message",
					"text" : "tune 1 0.432",
					"numoutlets" : 1,
					"presentation_rect" : [ 641.0, 480.0, 0.0, 0.0 ],
					"fontname" : "Arial",
					"outlettype" : [ "" ],
					"patching_rect" : [ 429.0, 325.0, 77.0, 18.0 ],
					"id" : "obj-4",
					"fontsize" : 12.0,
					"numinlets" : 2
				}

			}
, 			{
				"box" : 				{
					"maxclass" : "textbutton",
					"numoutlets" : 3,
					"presentation_rect" : [ 211.0, 217.0, 68.0, 27.0 ],
					"outputmode" : 0,
					"fontname" : "Arial",
					"outlettype" : [ "", "", "int" ],
					"patching_rect" : [ 414.0, 260.0, 69.0, 25.0 ],
					"presentation" : 1,
					"id" : "obj-24",
					"bordercolor" : [ 1.0, 1.0, 0.0, 1.0 ],
					"fontsize" : 12.0,
					"text" : "1311/1771",
					"numinlets" : 1
				}

			}
, 			{
				"box" : 				{
					"maxclass" : "comment",
					"text" : "A chinese Yu scale.",
					"numoutlets" : 0,
					"presentation_rect" : [ 213.0, 248.0, 116.0, 20.0 ],
					"fontname" : "Arial",
					"frgb" : [ 0.0, 0.0, 0.0, 1.0 ],
					"patching_rect" : [ 419.0, 396.0, 186.0, 20.0 ],
					"presentation" : 1,
					"id" : "obj-86",
					"fontsize" : 12.0,
					"numinlets" : 1
				}

			}
, 			{
				"box" : 				{
					"maxclass" : "newobj",
					"text" : "t b b",
					"numoutlets" : 2,
					"fontname" : "Arial",
					"outlettype" : [ "bang", "bang" ],
					"patching_rect" : [ 729.0, 293.0, 34.0, 20.0 ],
					"id" : "obj-83",
					"fontsize" : 12.0,
					"numinlets" : 1
				}

			}
, 			{
				"box" : 				{
					"maxclass" : "message",
					"text" : "tune 1 0.",
					"numoutlets" : 1,
					"fontname" : "Arial",
					"outlettype" : [ "" ],
					"patching_rect" : [ 743.0, 321.0, 57.0, 18.0 ],
					"id" : "obj-84",
					"fontsize" : 12.0,
					"numinlets" : 2
				}

			}
, 			{
				"box" : 				{
					"maxclass" : "textbutton",
					"numoutlets" : 3,
					"presentation_rect" : [ 401.428589, 217.0, 35.0, 27.0 ],
					"outputmode" : 0,
					"fontname" : "Arial",
					"outlettype" : [ "", "", "int" ],
					"patching_rect" : [ 729.0, 259.0, 35.0, 27.0 ],
					"presentation" : 1,
					"id" : "obj-85",
					"bordercolor" : [ 0.0, 0.0, 1.0, 1.0 ],
					"fontsize" : 12.0,
					"text" : "1/2",
					"numinlets" : 1
				}

			}
, 			{
				"box" : 				{
					"maxclass" : "newobj",
					"text" : "t b b",
					"numoutlets" : 2,
					"fontname" : "Arial",
					"outlettype" : [ "bang", "bang" ],
					"patching_rect" : [ 625.0, 291.0, 34.0, 20.0 ],
					"id" : "obj-80",
					"fontsize" : 12.0,
					"numinlets" : 1
				}

			}
, 			{
				"box" : 				{
					"maxclass" : "message",
					"text" : "tune 1 0.099",
					"numoutlets" : 1,
					"fontname" : "Arial",
					"outlettype" : [ "" ],
					"patching_rect" : [ 640.0, 322.0, 77.0, 18.0 ],
					"id" : "obj-81",
					"fontsize" : 12.0,
					"numinlets" : 2
				}

			}
, 			{
				"box" : 				{
					"maxclass" : "textbutton",
					"numoutlets" : 3,
					"presentation_rect" : [ 324.428589, 217.0, 74.0, 27.0 ],
					"outputmode" : 0,
					"fontname" : "Arial",
					"outlettype" : [ "", "", "int" ],
					"patching_rect" : [ 625.0, 257.0, 67.0, 26.0 ],
					"presentation" : 1,
					"id" : "obj-82",
					"bordercolor" : [ 1.0, 1.0, 0.0, 1.0 ],
					"fontsize" : 12.0,
					"text" : "3277/5905",
					"numinlets" : 1
				}

			}
, 			{
				"box" : 				{
					"maxclass" : "newobj",
					"text" : "t b b",
					"numoutlets" : 2,
					"fontname" : "Arial",
					"outlettype" : [ "bang", "bang" ],
					"patching_rect" : [ 511.0, 296.0, 34.0, 20.0 ],
					"id" : "obj-72",
					"fontsize" : 12.0,
					"numinlets" : 1
				}

			}
, 			{
				"box" : 				{
					"maxclass" : "message",
					"text" : "tune 1 0.3",
					"numoutlets" : 1,
					"fontname" : "Arial",
					"outlettype" : [ "" ],
					"patching_rect" : [ 525.0, 324.0, 64.0, 18.0 ],
					"id" : "obj-74",
					"fontsize" : 12.0,
					"numinlets" : 2
				}

			}
, 			{
				"box" : 				{
					"maxclass" : "textbutton",
					"numoutlets" : 3,
					"presentation_rect" : [ 283.0, 217.0, 35.0, 27.0 ],
					"outputmode" : 0,
					"fontname" : "Arial",
					"outlettype" : [ "", "", "int" ],
					"patching_rect" : [ 511.0, 262.0, 35.0, 27.0 ],
					"presentation" : 1,
					"id" : "obj-75",
					"bordercolor" : [ 0.0, 0.0, 1.0, 1.0 ],
					"fontsize" : 12.0,
					"text" : "2/3",
					"numinlets" : 1
				}

			}
, 			{
				"box" : 				{
					"maxclass" : "newobj",
					"text" : "t b b",
					"numoutlets" : 2,
					"fontname" : "Arial",
					"outlettype" : [ "bang", "bang" ],
					"patching_rect" : [ 208.0, 293.0, 34.0, 20.0 ],
					"id" : "obj-27",
					"fontsize" : 12.0,
					"numinlets" : 1
				}

			}
, 			{
				"box" : 				{
					"maxclass" : "message",
					"text" : "tune 1 0.9",
					"numoutlets" : 1,
					"fontname" : "Arial",
					"outlettype" : [ "" ],
					"patching_rect" : [ 221.0, 318.0, 64.0, 18.0 ],
					"id" : "obj-34",
					"fontsize" : 12.0,
					"numinlets" : 2
				}

			}
, 			{
				"box" : 				{
					"maxclass" : "textbutton",
					"numoutlets" : 3,
					"presentation_rect" : [ 104.0, 217.0, 35.0, 27.0 ],
					"outputmode" : 0,
					"fontname" : "Arial",
					"outlettype" : [ "", "", "int" ],
					"patching_rect" : [ 208.0, 258.0, 35.0, 27.0 ],
					"presentation" : 1,
					"id" : "obj-39",
					"bordercolor" : [ 0.0, 0.0, 1.0, 1.0 ],
					"fontsize" : 12.0,
					"text" : "1/1",
					"numinlets" : 1
				}

			}
, 			{
				"box" : 				{
					"maxclass" : "newobj",
					"text" : "t b b",
					"numoutlets" : 2,
					"fontname" : "Arial",
					"outlettype" : [ "bang", "bang" ],
					"patching_rect" : [ 309.0, 292.0, 34.0, 20.0 ],
					"id" : "obj-10",
					"fontsize" : 12.0,
					"numinlets" : 1
				}

			}
, 			{
				"box" : 				{
					"maxclass" : "message",
					"text" : "tune 1 0.598",
					"numoutlets" : 1,
					"fontname" : "Arial",
					"outlettype" : [ "" ],
					"patching_rect" : [ 324.0, 323.0, 77.0, 18.0 ],
					"id" : "obj-21",
					"fontsize" : 12.0,
					"numinlets" : 2
				}

			}
, 			{
				"box" : 				{
					"maxclass" : "textbutton",
					"numoutlets" : 3,
					"presentation_rect" : [ 141.428558, 217.0, 69.0, 27.0 ],
					"outputmode" : 0,
					"fontname" : "Arial",
					"outlettype" : [ "", "", "int" ],
					"patching_rect" : [ 309.0, 258.0, 79.0, 28.0 ],
					"presentation" : 1,
					"id" : "obj-23",
					"bordercolor" : [ 1.0, 1.0, 0.0, 1.0 ],
					"fontsize" : 12.0,
					"text" : "1638/1968",
					"numinlets" : 1
				}

			}
, 			{
				"box" : 				{
					"maxclass" : "message",
					"text" : "maximum $1",
					"numoutlets" : 1,
					"fontname" : "Arial",
					"outlettype" : [ "" ],
					"patching_rect" : [ 483.0, 569.0, 77.0, 18.0 ],
					"id" : "obj-2",
					"fontsize" : 12.0,
					"numinlets" : 2
				}

			}
, 			{
				"box" : 				{
					"maxclass" : "newobj",
					"text" : "t b i",
					"numoutlets" : 2,
					"fontname" : "Arial",
					"outlettype" : [ "bang", "int" ],
					"patching_rect" : [ 448.0, 567.0, 32.5, 20.0 ],
					"id" : "obj-73",
					"fontsize" : 12.0,
					"numinlets" : 1
				}

			}
, 			{
				"box" : 				{
					"maxclass" : "message",
					"text" : "tune 1 $1",
					"numoutlets" : 1,
					"fontname" : "Arial",
					"outlettype" : [ "" ],
					"patching_rect" : [ 420.0, 725.0, 61.0, 18.0 ],
					"id" : "obj-67",
					"fontsize" : 12.0,
					"numinlets" : 2
				}

			}
, 			{
				"box" : 				{
					"maxclass" : "comment",
					"text" : "_____________",
					"numoutlets" : 0,
					"presentation_rect" : [ 488.0, 203.0, 97.0, 20.0 ],
					"fontname" : "Arial",
					"frgb" : [ 0.0, 0.0, 0.0, 1.0 ],
					"patching_rect" : [ 440.0, 522.0, 186.0, 20.0 ],
					"presentation" : 1,
					"id" : "obj-65",
					"fontsize" : 12.0,
					"numinlets" : 1
				}

			}
, 			{
				"box" : 				{
					"maxclass" : "comment",
					"text" : "• Create your own ratio:",
					"numoutlets" : 0,
					"presentation_rect" : [ 476.0, 160.0, 136.0, 20.0 ],
					"fontname" : "Arial",
					"frgb" : [ 0.0, 0.0, 0.0, 1.0 ],
					"patching_rect" : [ 361.0, 458.0, 186.0, 20.0 ],
					"presentation" : 1,
					"id" : "obj-64",
					"fontsize" : 12.0,
					"numinlets" : 1
				}

			}
, 			{
				"box" : 				{
					"maxclass" : "comment",
					"text" : "These ratios make up a just major scale.",
					"linecount" : 2,
					"numoutlets" : 0,
					"presentation_rect" : [ 150.0, 187.0, 226.0, 20.0 ],
					"fontname" : "Arial",
					"frgb" : [ 0.0, 0.0, 0.0, 1.0 ],
					"patching_rect" : [ 382.0, 117.0, 186.0, 34.0 ],
					"presentation" : 1,
					"id" : "obj-63",
					"fontsize" : 12.0,
					"numinlets" : 1
				}

			}
, 			{
				"box" : 				{
					"maxclass" : "newobj",
					"text" : "t b b",
					"numoutlets" : 2,
					"fontname" : "Arial",
					"outlettype" : [ "bang", "bang" ],
					"patching_rect" : [ 692.0, 207.0, 34.0, 20.0 ],
					"id" : "obj-60",
					"fontsize" : 12.0,
					"numinlets" : 1
				}

			}
, 			{
				"box" : 				{
					"maxclass" : "message",
					"text" : "tune 1 0.",
					"numoutlets" : 1,
					"fontname" : "Arial",
					"outlettype" : [ "" ],
					"patching_rect" : [ 706.0, 235.0, 57.0, 18.0 ],
					"id" : "obj-61",
					"fontsize" : 12.0,
					"numinlets" : 2
				}

			}
, 			{
				"box" : 				{
					"maxclass" : "textbutton",
					"numoutlets" : 3,
					"presentation_rect" : [ 398.0, 159.0, 35.0, 27.0 ],
					"outputmode" : 0,
					"fontname" : "Arial",
					"outlettype" : [ "", "", "int" ],
					"patching_rect" : [ 692.0, 173.0, 35.0, 27.0 ],
					"presentation" : 1,
					"id" : "obj-62",
					"bordercolor" : [ 0.0, 0.0, 1.0, 1.0 ],
					"fontsize" : 12.0,
					"text" : "1/2",
					"numinlets" : 1
				}

			}
, 			{
				"box" : 				{
					"maxclass" : "newobj",
					"text" : "t b b",
					"numoutlets" : 2,
					"fontname" : "Arial",
					"outlettype" : [ "bang", "bang" ],
					"patching_rect" : [ 625.0, 206.0, 34.0, 20.0 ],
					"id" : "obj-57",
					"fontsize" : 12.0,
					"numinlets" : 1
				}

			}
, 			{
				"box" : 				{
					"maxclass" : "message",
					"text" : "tune 1 0.06",
					"numoutlets" : 1,
					"fontname" : "Arial",
					"outlettype" : [ "" ],
					"patching_rect" : [ 639.0, 234.0, 71.0, 18.0 ],
					"id" : "obj-58",
					"fontsize" : 12.0,
					"numinlets" : 2
				}

			}
, 			{
				"box" : 				{
					"maxclass" : "textbutton",
					"numoutlets" : 3,
					"presentation_rect" : [ 356.0, 159.0, 35.0, 27.0 ],
					"outputmode" : 0,
					"fontname" : "Arial",
					"outlettype" : [ "", "", "int" ],
					"patching_rect" : [ 625.0, 172.0, 35.0, 27.0 ],
					"presentation" : 1,
					"id" : "obj-59",
					"bordercolor" : [ 0.0, 0.0, 1.0, 1.0 ],
					"fontsize" : 12.0,
					"text" : "8/15",
					"numinlets" : 1
				}

			}
, 			{
				"box" : 				{
					"maxclass" : "newobj",
					"text" : "t b b",
					"numoutlets" : 2,
					"fontname" : "Arial",
					"outlettype" : [ "bang", "bang" ],
					"patching_rect" : [ 567.0, 205.0, 34.0, 20.0 ],
					"id" : "obj-54",
					"fontsize" : 12.0,
					"numinlets" : 1
				}

			}
, 			{
				"box" : 				{
					"maxclass" : "message",
					"text" : "tune 1 0.18",
					"numoutlets" : 1,
					"fontname" : "Arial",
					"outlettype" : [ "" ],
					"patching_rect" : [ 573.0, 235.0, 71.0, 18.0 ],
					"id" : "obj-55",
					"fontsize" : 12.0,
					"numinlets" : 2
				}

			}
, 			{
				"box" : 				{
					"maxclass" : "textbutton",
					"numoutlets" : 3,
					"presentation_rect" : [ 314.0, 159.0, 35.0, 27.0 ],
					"outputmode" : 0,
					"fontname" : "Arial",
					"outlettype" : [ "", "", "int" ],
					"patching_rect" : [ 558.0, 172.0, 35.0, 27.0 ],
					"presentation" : 1,
					"id" : "obj-56",
					"bordercolor" : [ 0.0, 0.0, 1.0, 1.0 ],
					"fontsize" : 12.0,
					"text" : "3/5",
					"numinlets" : 1
				}

			}
, 			{
				"box" : 				{
					"maxclass" : "newobj",
					"text" : "t b b",
					"numoutlets" : 2,
					"fontname" : "Arial",
					"outlettype" : [ "bang", "bang" ],
					"patching_rect" : [ 491.0, 204.0, 34.0, 20.0 ],
					"id" : "obj-50",
					"fontsize" : 12.0,
					"numinlets" : 1
				}

			}
, 			{
				"box" : 				{
					"maxclass" : "message",
					"text" : "tune 1 0.3",
					"numoutlets" : 1,
					"fontname" : "Arial",
					"outlettype" : [ "" ],
					"patching_rect" : [ 505.0, 232.0, 64.0, 18.0 ],
					"id" : "obj-51",
					"fontsize" : 12.0,
					"numinlets" : 2
				}

			}
, 			{
				"box" : 				{
					"maxclass" : "textbutton",
					"numoutlets" : 3,
					"presentation_rect" : [ 272.0, 159.0, 35.0, 27.0 ],
					"outputmode" : 0,
					"fontname" : "Arial",
					"outlettype" : [ "", "", "int" ],
					"patching_rect" : [ 491.0, 170.0, 35.0, 27.0 ],
					"presentation" : 1,
					"id" : "obj-52",
					"bordercolor" : [ 0.0, 0.0, 1.0, 1.0 ],
					"fontsize" : 12.0,
					"text" : "2/3",
					"numinlets" : 1
				}

			}
, 			{
				"box" : 				{
					"maxclass" : "newobj",
					"text" : "t b b",
					"numoutlets" : 2,
					"fontname" : "Arial",
					"outlettype" : [ "bang", "bang" ],
					"patching_rect" : [ 416.0, 204.0, 34.0, 20.0 ],
					"id" : "obj-47",
					"fontsize" : 12.0,
					"numinlets" : 1
				}

			}
, 			{
				"box" : 				{
					"maxclass" : "message",
					"text" : "tune 1 0.45",
					"numoutlets" : 1,
					"fontname" : "Arial",
					"outlettype" : [ "" ],
					"patching_rect" : [ 430.0, 232.0, 71.0, 18.0 ],
					"id" : "obj-48",
					"fontsize" : 12.0,
					"numinlets" : 2
				}

			}
, 			{
				"box" : 				{
					"maxclass" : "textbutton",
					"numoutlets" : 3,
					"presentation_rect" : [ 230.0, 159.0, 35.0, 27.0 ],
					"outputmode" : 0,
					"fontname" : "Arial",
					"outlettype" : [ "", "", "int" ],
					"patching_rect" : [ 416.0, 171.0, 35.0, 27.0 ],
					"presentation" : 1,
					"id" : "obj-49",
					"bordercolor" : [ 0.0, 0.0, 1.0, 1.0 ],
					"fontsize" : 12.0,
					"text" : "3/4",
					"numinlets" : 1
				}

			}
, 			{
				"box" : 				{
					"maxclass" : "newobj",
					"text" : "t b b",
					"numoutlets" : 2,
					"fontname" : "Arial",
					"outlettype" : [ "bang", "bang" ],
					"patching_rect" : [ 340.0, 204.0, 34.0, 20.0 ],
					"id" : "obj-44",
					"fontsize" : 12.0,
					"numinlets" : 1
				}

			}
, 			{
				"box" : 				{
					"maxclass" : "message",
					"text" : "tune 1 0.54",
					"numoutlets" : 1,
					"fontname" : "Arial",
					"outlettype" : [ "" ],
					"patching_rect" : [ 355.0, 232.0, 71.0, 18.0 ],
					"id" : "obj-45",
					"fontsize" : 12.0,
					"numinlets" : 2
				}

			}
, 			{
				"box" : 				{
					"maxclass" : "textbutton",
					"numoutlets" : 3,
					"presentation_rect" : [ 188.0, 159.0, 35.0, 27.0 ],
					"outputmode" : 0,
					"fontname" : "Arial",
					"outlettype" : [ "", "", "int" ],
					"patching_rect" : [ 340.0, 170.0, 35.0, 27.0 ],
					"presentation" : 1,
					"id" : "obj-46",
					"bordercolor" : [ 0.0, 0.0, 1.0, 1.0 ],
					"fontsize" : 12.0,
					"text" : "4/5",
					"numinlets" : 1
				}

			}
, 			{
				"box" : 				{
					"maxclass" : "newobj",
					"text" : "t b b",
					"numoutlets" : 2,
					"fontname" : "Arial",
					"outlettype" : [ "bang", "bang" ],
					"patching_rect" : [ 274.0, 203.0, 34.0, 20.0 ],
					"id" : "obj-43",
					"fontsize" : 12.0,
					"numinlets" : 1
				}

			}
, 			{
				"box" : 				{
					"maxclass" : "newobj",
					"text" : "t b b",
					"numoutlets" : 2,
					"fontname" : "Arial",
					"outlettype" : [ "bang", "bang" ],
					"patching_rect" : [ 207.0, 204.0, 34.0, 20.0 ],
					"id" : "obj-42",
					"fontsize" : 12.0,
					"numinlets" : 1
				}

			}
, 			{
				"box" : 				{
					"maxclass" : "flonum",
					"numoutlets" : 2,
					"fontname" : "Arial",
					"outlettype" : [ "float", "bang" ],
					"patching_rect" : [ 463.0, 624.0, 50.0, 20.0 ],
					"id" : "obj-40",
					"fontsize" : 12.0,
					"numinlets" : 1
				}

			}
, 			{
				"box" : 				{
					"maxclass" : "message",
					"text" : "tune 1 0.7",
					"numoutlets" : 1,
					"fontname" : "Arial",
					"outlettype" : [ "" ],
					"patching_rect" : [ 289.0, 231.0, 64.0, 18.0 ],
					"id" : "obj-35",
					"fontsize" : 12.0,
					"numinlets" : 2
				}

			}
, 			{
				"box" : 				{
					"maxclass" : "textbutton",
					"numoutlets" : 3,
					"presentation_rect" : [ 146.0, 159.0, 35.0, 27.0 ],
					"outputmode" : 0,
					"fontname" : "Arial",
					"outlettype" : [ "", "", "int" ],
					"patching_rect" : [ 274.0, 169.0, 35.0, 27.0 ],
					"presentation" : 1,
					"id" : "obj-37",
					"bordercolor" : [ 0.0, 0.0, 1.0, 1.0 ],
					"fontsize" : 12.0,
					"text" : "8/9",
					"numinlets" : 1
				}

			}
, 			{
				"box" : 				{
					"maxclass" : "flonum",
					"numoutlets" : 2,
					"fontname" : "Arial",
					"outlettype" : [ "float", "bang" ],
					"patching_rect" : [ 420.0, 698.0, 50.0, 20.0 ],
					"id" : "obj-33",
					"fontsize" : 12.0,
					"numinlets" : 1
				}

			}
, 			{
				"box" : 				{
					"maxclass" : "newobj",
					"text" : "scale 1. 0. 0.9 -0.9",
					"numoutlets" : 1,
					"fontname" : "Arial",
					"outlettype" : [ "float" ],
					"patching_rect" : [ 420.0, 648.0, 109.0, 20.0 ],
					"id" : "obj-31",
					"fontsize" : 12.0,
					"numinlets" : 6
				}

			}
, 			{
				"box" : 				{
					"maxclass" : "number",
					"numoutlets" : 2,
					"presentation_rect" : [ 510.0, 226.0, 50.0, 20.0 ],
					"fontname" : "Arial",
					"outlettype" : [ "int", "bang" ],
					"patching_rect" : [ 449.0, 545.0, 50.0, 20.0 ],
					"presentation" : 1,
					"id" : "obj-30",
					"minimum" : 1,
					"fontsize" : 12.0,
					"numinlets" : 1
				}

			}
, 			{
				"box" : 				{
					"maxclass" : "number",
					"numoutlets" : 2,
					"presentation_rect" : [ 509.0, 193.0, 50.0, 20.0 ],
					"fontname" : "Arial",
					"outlettype" : [ "int", "bang" ],
					"patching_rect" : [ 449.0, 510.0, 50.0, 20.0 ],
					"presentation" : 1,
					"id" : "obj-28",
					"minimum" : 1,
					"fontsize" : 12.0,
					"maximum" : 5905,
					"numinlets" : 1
				}

			}
, 			{
				"box" : 				{
					"maxclass" : "newobj",
					"text" : "/ 1.",
					"numoutlets" : 1,
					"fontname" : "Arial",
					"outlettype" : [ "float" ],
					"patching_rect" : [ 420.0, 598.0, 32.5, 20.0 ],
					"id" : "obj-26",
					"fontsize" : 12.0,
					"numinlets" : 2
				}

			}
, 			{
				"box" : 				{
					"maxclass" : "message",
					"text" : "tune 1 0.9",
					"numoutlets" : 1,
					"fontname" : "Arial",
					"outlettype" : [ "" ],
					"patching_rect" : [ 220.0, 229.0, 64.0, 18.0 ],
					"id" : "obj-22",
					"fontsize" : 12.0,
					"numinlets" : 2
				}

			}
, 			{
				"box" : 				{
					"maxclass" : "textbutton",
					"numoutlets" : 3,
					"presentation_rect" : [ 104.0, 159.0, 35.0, 27.0 ],
					"outputmode" : 0,
					"fontname" : "Arial",
					"outlettype" : [ "", "", "int" ],
					"patching_rect" : [ 207.0, 169.0, 35.0, 27.0 ],
					"presentation" : 1,
					"id" : "obj-20",
					"bordercolor" : [ 0.0, 0.0, 1.0, 1.0 ],
					"fontsize" : 12.0,
					"text" : "1/1",
					"numinlets" : 1
				}

			}
, 			{
				"box" : 				{
					"maxclass" : "comment",
					"text" : "• Click to tune the string to a specific ratio:",
					"linecount" : 2,
					"numoutlets" : 0,
					"presentation_rect" : [ 95.0, 132.0, 303.0, 20.0 ],
					"fontname" : "Arial",
					"frgb" : [ 0.0, 0.0, 0.0, 1.0 ],
					"patching_rect" : [ 182.0, 109.0, 186.0, 34.0 ],
					"presentation" : 1,
					"id" : "obj-19",
					"fontsize" : 12.0,
					"numinlets" : 1
				}

			}
, 			{
				"box" : 				{
					"maxclass" : "comment",
					"text" : "• The string can be tuned. Move the stopper to change the tuning of the string.",
					"linecount" : 3,
					"presentation_linecount" : 2,
					"numoutlets" : 0,
					"presentation_rect" : [ 94.0, 96.0, 303.0, 34.0 ],
					"fontname" : "Arial",
					"frgb" : [ 0.0, 0.0, 0.0, 1.0 ],
					"patching_rect" : [ 175.0, 61.0, 186.0, 48.0 ],
					"presentation" : 1,
					"id" : "obj-17",
					"fontsize" : 12.0,
					"numinlets" : 1
				}

			}
, 			{
				"box" : 				{
					"maxclass" : "comment",
					"text" : "• Click the \"pluck\" button to hear the string (make sure audio is on and the volume is up).",
					"linecount" : 3,
					"presentation_linecount" : 2,
					"numoutlets" : 0,
					"presentation_rect" : [ 94.0, 60.0, 303.0, 34.0 ],
					"fontname" : "Arial",
					"frgb" : [ 0.0, 0.0, 0.0, 1.0 ],
					"patching_rect" : [ 179.0, 28.0, 186.0, 48.0 ],
					"presentation" : 1,
					"id" : "obj-16",
					"fontsize" : 12.0,
					"numinlets" : 1
				}

			}
, 			{
				"box" : 				{
					"maxclass" : "comment",
					"text" : "Turn on audio & adjust the volume",
					"linecount" : 2,
					"numoutlets" : 0,
					"presentation_rect" : [ 445.0, 113.0, 193.0, 20.0 ],
					"fontname" : "Arial",
					"frgb" : [ 0.0, 0.0, 0.0, 1.0 ],
					"patching_rect" : [ 539.0, 86.0, 153.0, 34.0 ],
					"presentation" : 1,
					"id" : "obj-15",
					"fontsize" : 12.0,
					"numinlets" : 1
				}

			}
, 			{
				"box" : 				{
					"maxclass" : "comment",
					"text" : "This is a simulation of a single, plucked string.",
					"linecount" : 2,
					"numoutlets" : 0,
					"presentation_rect" : [ 92.0, 34.0, 295.0, 23.0 ],
					"fontname" : "Arial",
					"frgb" : [ 0.0, 0.0, 0.0, 1.0 ],
					"patching_rect" : [ 194.0, 516.0, 175.0, 39.0 ],
					"presentation" : 1,
					"id" : "obj-14",
					"fontsize" : 14.0,
					"numinlets" : 1
				}

			}
, 			{
				"box" : 				{
					"maxclass" : "textbutton",
					"numoutlets" : 3,
					"bgovercolor" : [ 0.639216, 0.890196, 1.0, 1.0 ],
					"presentation_rect" : [ 37.0, 241.0, 49.0, 30.0 ],
					"fontname" : "Arial",
					"outlettype" : [ "", "", "int" ],
					"patching_rect" : [ 151.0, 405.0, 49.0, 30.0 ],
					"presentation" : 1,
					"id" : "obj-6",
					"fontface" : 1,
					"fontsize" : 12.0,
					"text" : "pluck",
					"numinlets" : 1
				}

			}
, 			{
				"box" : 				{
					"maxclass" : "message",
					"text" : "pluck 1",
					"numoutlets" : 1,
					"fontname" : "Arial",
					"outlettype" : [ "" ],
					"patching_rect" : [ 17.0, 141.0, 49.0, 18.0 ],
					"id" : "obj-5",
					"fontsize" : 12.0,
					"numinlets" : 2
				}

			}
, 			{
				"box" : 				{
					"maxclass" : "button",
					"numoutlets" : 1,
					"outlettype" : [ "bang" ],
					"patching_rect" : [ 57.0, 340.0, 20.0, 20.0 ],
					"id" : "obj-3",
					"numinlets" : 1
				}

			}
, 			{
				"box" : 				{
					"maxclass" : "newobj",
					"text" : "loadbang",
					"numoutlets" : 1,
					"fontname" : "Arial",
					"outlettype" : [ "bang" ],
					"patching_rect" : [ 18.0, 16.0, 60.0, 20.0 ],
					"id" : "obj-25",
					"fontsize" : 12.0,
					"numinlets" : 1
				}

			}
, 			{
				"box" : 				{
					"maxclass" : "newobj",
					"text" : "one_string 1 1.",
					"numoutlets" : 2,
					"fontname" : "Arial",
					"outlettype" : [ "signal", "float" ],
					"patching_rect" : [ 63.209991, 511.369995, 90.0, 20.0 ],
					"id" : "obj-53",
					"fontsize" : 12.0,
					"numinlets" : 2
				}

			}
, 			{
				"box" : 				{
					"maxclass" : "ezdac~",
					"numoutlets" : 0,
					"presentation_rect" : [ 453.900024, 31.0, 83.0, 83.0 ],
					"patching_rect" : [ 220.0, 656.0, 45.0, 45.0 ],
					"presentation" : 1,
					"id" : "obj-38",
					"ongradcolor1" : [ 0.670588, 0.058824, 0.058824, 1.0 ],
					"numinlets" : 2
				}

			}
, 			{
				"box" : 				{
					"maxclass" : "comment",
					"text" : "decimal ratio:",
					"linecount" : 3,
					"numoutlets" : 0,
					"presentation_rect" : [ 29.0, 270.0, 82.0, 20.0 ],
					"fontname" : "Arial",
					"frgb" : [ 0.0, 0.0, 0.0, 1.0 ],
					"patching_rect" : [ 20.0, 500.0, 37.0, 48.0 ],
					"presentation" : 1,
					"id" : "obj-36",
					"fontsize" : 12.0,
					"numinlets" : 1
				}

			}
, 			{
				"box" : 				{
					"maxclass" : "toggle",
					"numoutlets" : 1,
					"outlettype" : [ "int" ],
					"patching_rect" : [ 30.76796, 695.716187, 20.0, 20.0 ],
					"id" : "obj-8",
					"numinlets" : 1
				}

			}
, 			{
				"box" : 				{
					"maxclass" : "newobj",
					"text" : "dac~",
					"numoutlets" : 0,
					"fontname" : "Arial",
					"patching_rect" : [ 63.76796, 754.716187, 37.0, 20.0 ],
					"id" : "obj-9",
					"fontsize" : 12.0,
					"numinlets" : 2
				}

			}
, 			{
				"box" : 				{
					"maxclass" : "gain~",
					"stripecolor" : [ 0.67451, 0.062745, 0.062745, 0.756863 ],
					"numoutlets" : 2,
					"presentation_rect" : [ 536.900024, 31.100006, 82.0, 83.0 ],
					"outlettype" : [ "signal", "int" ],
					"patching_rect" : [ 64.76796, 592.716187, 82.0, 140.0 ],
					"presentation" : 1,
					"id" : "obj-12",
					"numinlets" : 2
				}

			}
, 			{
				"box" : 				{
					"maxclass" : "flonum",
					"numoutlets" : 2,
					"presentation_rect" : [ 43.0, 289.0, 40.0, 20.0 ],
					"fontname" : "Arial",
					"outlettype" : [ "float", "bang" ],
					"cantchange" : 1,
					"patching_rect" : [ 89.209991, 536.369995, 37.0, 20.0 ],
					"presentation" : 1,
					"id" : "obj-18",
					"fontsize" : 12.0,
					"triangle" : 0,
					"numinlets" : 1
				}

			}
, 			{
				"box" : 				{
					"maxclass" : "toggle",
					"numoutlets" : 1,
					"outlettype" : [ "int" ],
					"patching_rect" : [ 18.0, 40.0, 20.0, 20.0 ],
					"id" : "obj-13",
					"numinlets" : 1
				}

			}
, 			{
				"box" : 				{
					"maxclass" : "newobj",
					"text" : "qmetro 5",
					"numoutlets" : 1,
					"fontname" : "Arial",
					"outlettype" : [ "bang" ],
					"patching_rect" : [ 18.0, 73.0, 58.0, 20.0 ],
					"id" : "obj-11",
					"fontsize" : 12.0,
					"numinlets" : 2
				}

			}
, 			{
				"box" : 				{
					"maxclass" : "jsui",
					"numoutlets" : 1,
					"presentation_rect" : [ 37.0, 37.0, 50.0, 202.0 ],
					"outlettype" : [ "" ],
					"patching_rect" : [ 93.0, 140.0, 50.0, 202.0 ],
					"presentation" : 1,
					"id" : "obj-7",
					"filename" : "monocord01.js",
					"numinlets" : 1,
					"jsarguments" : [  ]
				}

			}
 ],
		"lines" : [ 			{
				"patchline" : 				{
					"source" : [ "obj-1", 0 ],
					"destination" : [ "obj-6", 0 ],
					"hidden" : 0,
					"midpoints" : [  ]
				}

			}
, 			{
				"patchline" : 				{
					"source" : [ "obj-4", 0 ],
					"destination" : [ "obj-7", 0 ],
					"hidden" : 0,
					"midpoints" : [  ]
				}

			}
, 			{
				"patchline" : 				{
					"source" : [ "obj-24", 0 ],
					"destination" : [ "obj-1", 0 ],
					"hidden" : 0,
					"midpoints" : [  ]
				}

			}
, 			{
				"patchline" : 				{
					"source" : [ "obj-1", 1 ],
					"destination" : [ "obj-4", 0 ],
					"hidden" : 0,
					"midpoints" : [  ]
				}

			}
, 			{
				"patchline" : 				{
					"source" : [ "obj-53", 1 ],
					"destination" : [ "obj-18", 0 ],
					"hidden" : 0,
					"midpoints" : [  ]
				}

			}
, 			{
				"patchline" : 				{
					"source" : [ "obj-53", 0 ],
					"destination" : [ "obj-12", 0 ],
					"hidden" : 0,
					"midpoints" : [  ]
				}

			}
, 			{
				"patchline" : 				{
					"source" : [ "obj-25", 0 ],
					"destination" : [ "obj-13", 0 ],
					"hidden" : 0,
					"midpoints" : [  ]
				}

			}
, 			{
				"patchline" : 				{
					"source" : [ "obj-8", 0 ],
					"destination" : [ "obj-9", 0 ],
					"hidden" : 0,
					"midpoints" : [  ]
				}

			}
, 			{
				"patchline" : 				{
					"source" : [ "obj-11", 0 ],
					"destination" : [ "obj-7", 0 ],
					"hidden" : 0,
					"midpoints" : [  ]
				}

			}
, 			{
				"patchline" : 				{
					"source" : [ "obj-13", 0 ],
					"destination" : [ "obj-11", 0 ],
					"hidden" : 0,
					"midpoints" : [  ]
				}

			}
, 			{
				"patchline" : 				{
					"source" : [ "obj-12", 0 ],
					"destination" : [ "obj-9", 1 ],
					"hidden" : 0,
					"midpoints" : [  ]
				}

			}
, 			{
				"patchline" : 				{
					"source" : [ "obj-12", 0 ],
					"destination" : [ "obj-9", 0 ],
					"hidden" : 0,
					"midpoints" : [  ]
				}

			}
, 			{
				"patchline" : 				{
					"source" : [ "obj-3", 0 ],
					"destination" : [ "obj-53", 0 ],
					"hidden" : 0,
					"midpoints" : [  ]
				}

			}
, 			{
				"patchline" : 				{
					"source" : [ "obj-6", 0 ],
					"destination" : [ "obj-5", 0 ],
					"hidden" : 0,
					"midpoints" : [  ]
				}

			}
, 			{
				"patchline" : 				{
					"source" : [ "obj-5", 0 ],
					"destination" : [ "obj-7", 0 ],
					"hidden" : 0,
					"midpoints" : [  ]
				}

			}
, 			{
				"patchline" : 				{
					"source" : [ "obj-6", 0 ],
					"destination" : [ "obj-3", 0 ],
					"hidden" : 0,
					"midpoints" : [  ]
				}

			}
, 			{
				"patchline" : 				{
					"source" : [ "obj-22", 0 ],
					"destination" : [ "obj-7", 0 ],
					"hidden" : 0,
					"midpoints" : [  ]
				}

			}
, 			{
				"patchline" : 				{
					"source" : [ "obj-28", 0 ],
					"destination" : [ "obj-26", 0 ],
					"hidden" : 0,
					"midpoints" : [  ]
				}

			}
, 			{
				"patchline" : 				{
					"source" : [ "obj-26", 0 ],
					"destination" : [ "obj-31", 0 ],
					"hidden" : 0,
					"midpoints" : [  ]
				}

			}
, 			{
				"patchline" : 				{
					"source" : [ "obj-31", 0 ],
					"destination" : [ "obj-33", 0 ],
					"hidden" : 0,
					"midpoints" : [  ]
				}

			}
, 			{
				"patchline" : 				{
					"source" : [ "obj-35", 0 ],
					"destination" : [ "obj-7", 0 ],
					"hidden" : 0,
					"midpoints" : [  ]
				}

			}
, 			{
				"patchline" : 				{
					"source" : [ "obj-20", 0 ],
					"destination" : [ "obj-42", 0 ],
					"hidden" : 0,
					"midpoints" : [  ]
				}

			}
, 			{
				"patchline" : 				{
					"source" : [ "obj-42", 1 ],
					"destination" : [ "obj-22", 0 ],
					"hidden" : 0,
					"midpoints" : [  ]
				}

			}
, 			{
				"patchline" : 				{
					"source" : [ "obj-42", 0 ],
					"destination" : [ "obj-6", 0 ],
					"hidden" : 0,
					"midpoints" : [  ]
				}

			}
, 			{
				"patchline" : 				{
					"source" : [ "obj-37", 0 ],
					"destination" : [ "obj-43", 0 ],
					"hidden" : 0,
					"midpoints" : [  ]
				}

			}
, 			{
				"patchline" : 				{
					"source" : [ "obj-43", 1 ],
					"destination" : [ "obj-35", 0 ],
					"hidden" : 0,
					"midpoints" : [  ]
				}

			}
, 			{
				"patchline" : 				{
					"source" : [ "obj-43", 0 ],
					"destination" : [ "obj-6", 0 ],
					"hidden" : 0,
					"midpoints" : [  ]
				}

			}
, 			{
				"patchline" : 				{
					"source" : [ "obj-44", 1 ],
					"destination" : [ "obj-45", 0 ],
					"hidden" : 0,
					"midpoints" : [  ]
				}

			}
, 			{
				"patchline" : 				{
					"source" : [ "obj-46", 0 ],
					"destination" : [ "obj-44", 0 ],
					"hidden" : 0,
					"midpoints" : [  ]
				}

			}
, 			{
				"patchline" : 				{
					"source" : [ "obj-45", 0 ],
					"destination" : [ "obj-7", 0 ],
					"hidden" : 0,
					"midpoints" : [  ]
				}

			}
, 			{
				"patchline" : 				{
					"source" : [ "obj-44", 0 ],
					"destination" : [ "obj-6", 0 ],
					"hidden" : 0,
					"midpoints" : [  ]
				}

			}
, 			{
				"patchline" : 				{
					"source" : [ "obj-49", 0 ],
					"destination" : [ "obj-47", 0 ],
					"hidden" : 0,
					"midpoints" : [  ]
				}

			}
, 			{
				"patchline" : 				{
					"source" : [ "obj-47", 1 ],
					"destination" : [ "obj-48", 0 ],
					"hidden" : 0,
					"midpoints" : [  ]
				}

			}
, 			{
				"patchline" : 				{
					"source" : [ "obj-48", 0 ],
					"destination" : [ "obj-7", 0 ],
					"hidden" : 0,
					"midpoints" : [  ]
				}

			}
, 			{
				"patchline" : 				{
					"source" : [ "obj-47", 0 ],
					"destination" : [ "obj-6", 0 ],
					"hidden" : 0,
					"midpoints" : [  ]
				}

			}
, 			{
				"patchline" : 				{
					"source" : [ "obj-50", 1 ],
					"destination" : [ "obj-51", 0 ],
					"hidden" : 0,
					"midpoints" : [  ]
				}

			}
, 			{
				"patchline" : 				{
					"source" : [ "obj-52", 0 ],
					"destination" : [ "obj-50", 0 ],
					"hidden" : 0,
					"midpoints" : [  ]
				}

			}
, 			{
				"patchline" : 				{
					"source" : [ "obj-51", 0 ],
					"destination" : [ "obj-7", 0 ],
					"hidden" : 0,
					"midpoints" : [  ]
				}

			}
, 			{
				"patchline" : 				{
					"source" : [ "obj-50", 0 ],
					"destination" : [ "obj-6", 0 ],
					"hidden" : 0,
					"midpoints" : [  ]
				}

			}
, 			{
				"patchline" : 				{
					"source" : [ "obj-56", 0 ],
					"destination" : [ "obj-54", 0 ],
					"hidden" : 0,
					"midpoints" : [  ]
				}

			}
, 			{
				"patchline" : 				{
					"source" : [ "obj-54", 1 ],
					"destination" : [ "obj-55", 0 ],
					"hidden" : 0,
					"midpoints" : [  ]
				}

			}
, 			{
				"patchline" : 				{
					"source" : [ "obj-57", 1 ],
					"destination" : [ "obj-58", 0 ],
					"hidden" : 0,
					"midpoints" : [  ]
				}

			}
, 			{
				"patchline" : 				{
					"source" : [ "obj-59", 0 ],
					"destination" : [ "obj-57", 0 ],
					"hidden" : 0,
					"midpoints" : [  ]
				}

			}
, 			{
				"patchline" : 				{
					"source" : [ "obj-62", 0 ],
					"destination" : [ "obj-60", 0 ],
					"hidden" : 0,
					"midpoints" : [  ]
				}

			}
, 			{
				"patchline" : 				{
					"source" : [ "obj-60", 1 ],
					"destination" : [ "obj-61", 0 ],
					"hidden" : 0,
					"midpoints" : [  ]
				}

			}
, 			{
				"patchline" : 				{
					"source" : [ "obj-61", 0 ],
					"destination" : [ "obj-7", 0 ],
					"hidden" : 0,
					"midpoints" : [  ]
				}

			}
, 			{
				"patchline" : 				{
					"source" : [ "obj-60", 0 ],
					"destination" : [ "obj-6", 0 ],
					"hidden" : 0,
					"midpoints" : [  ]
				}

			}
, 			{
				"patchline" : 				{
					"source" : [ "obj-54", 0 ],
					"destination" : [ "obj-6", 0 ],
					"hidden" : 0,
					"midpoints" : [  ]
				}

			}
, 			{
				"patchline" : 				{
					"source" : [ "obj-57", 0 ],
					"destination" : [ "obj-6", 0 ],
					"hidden" : 0,
					"midpoints" : [  ]
				}

			}
, 			{
				"patchline" : 				{
					"source" : [ "obj-55", 0 ],
					"destination" : [ "obj-7", 0 ],
					"hidden" : 0,
					"midpoints" : [  ]
				}

			}
, 			{
				"patchline" : 				{
					"source" : [ "obj-58", 0 ],
					"destination" : [ "obj-7", 0 ],
					"hidden" : 0,
					"midpoints" : [  ]
				}

			}
, 			{
				"patchline" : 				{
					"source" : [ "obj-33", 0 ],
					"destination" : [ "obj-67", 0 ],
					"hidden" : 0,
					"midpoints" : [  ]
				}

			}
, 			{
				"patchline" : 				{
					"source" : [ "obj-67", 0 ],
					"destination" : [ "obj-7", 0 ],
					"hidden" : 0,
					"midpoints" : [  ]
				}

			}
, 			{
				"patchline" : 				{
					"source" : [ "obj-30", 0 ],
					"destination" : [ "obj-73", 0 ],
					"hidden" : 0,
					"midpoints" : [  ]
				}

			}
, 			{
				"patchline" : 				{
					"source" : [ "obj-73", 1 ],
					"destination" : [ "obj-26", 1 ],
					"hidden" : 0,
					"midpoints" : [  ]
				}

			}
, 			{
				"patchline" : 				{
					"source" : [ "obj-73", 0 ],
					"destination" : [ "obj-26", 0 ],
					"hidden" : 0,
					"midpoints" : [  ]
				}

			}
, 			{
				"patchline" : 				{
					"source" : [ "obj-30", 0 ],
					"destination" : [ "obj-2", 0 ],
					"hidden" : 0,
					"midpoints" : [  ]
				}

			}
, 			{
				"patchline" : 				{
					"source" : [ "obj-2", 0 ],
					"destination" : [ "obj-28", 0 ],
					"hidden" : 0,
					"midpoints" : [  ]
				}

			}
, 			{
				"patchline" : 				{
					"source" : [ "obj-26", 0 ],
					"destination" : [ "obj-40", 0 ],
					"hidden" : 0,
					"midpoints" : [  ]
				}

			}
, 			{
				"patchline" : 				{
					"source" : [ "obj-26", 0 ],
					"destination" : [ "obj-53", 1 ],
					"hidden" : 0,
					"midpoints" : [  ]
				}

			}
, 			{
				"patchline" : 				{
					"source" : [ "obj-7", 0 ],
					"destination" : [ "obj-53", 1 ],
					"hidden" : 0,
					"midpoints" : [  ]
				}

			}
, 			{
				"patchline" : 				{
					"source" : [ "obj-23", 0 ],
					"destination" : [ "obj-10", 0 ],
					"hidden" : 0,
					"midpoints" : [  ]
				}

			}
, 			{
				"patchline" : 				{
					"source" : [ "obj-10", 1 ],
					"destination" : [ "obj-21", 0 ],
					"hidden" : 0,
					"midpoints" : [  ]
				}

			}
, 			{
				"patchline" : 				{
					"source" : [ "obj-27", 1 ],
					"destination" : [ "obj-34", 0 ],
					"hidden" : 0,
					"midpoints" : [  ]
				}

			}
, 			{
				"patchline" : 				{
					"source" : [ "obj-39", 0 ],
					"destination" : [ "obj-27", 0 ],
					"hidden" : 0,
					"midpoints" : [  ]
				}

			}
, 			{
				"patchline" : 				{
					"source" : [ "obj-27", 0 ],
					"destination" : [ "obj-6", 0 ],
					"hidden" : 0,
					"midpoints" : [  ]
				}

			}
, 			{
				"patchline" : 				{
					"source" : [ "obj-34", 0 ],
					"destination" : [ "obj-7", 0 ],
					"hidden" : 0,
					"midpoints" : [  ]
				}

			}
, 			{
				"patchline" : 				{
					"source" : [ "obj-10", 0 ],
					"destination" : [ "obj-6", 0 ],
					"hidden" : 0,
					"midpoints" : [  ]
				}

			}
, 			{
				"patchline" : 				{
					"source" : [ "obj-21", 0 ],
					"destination" : [ "obj-7", 0 ],
					"hidden" : 0,
					"midpoints" : [  ]
				}

			}
, 			{
				"patchline" : 				{
					"source" : [ "obj-75", 0 ],
					"destination" : [ "obj-72", 0 ],
					"hidden" : 0,
					"midpoints" : [  ]
				}

			}
, 			{
				"patchline" : 				{
					"source" : [ "obj-72", 1 ],
					"destination" : [ "obj-74", 0 ],
					"hidden" : 0,
					"midpoints" : [  ]
				}

			}
, 			{
				"patchline" : 				{
					"source" : [ "obj-72", 0 ],
					"destination" : [ "obj-6", 0 ],
					"hidden" : 0,
					"midpoints" : [  ]
				}

			}
, 			{
				"patchline" : 				{
					"source" : [ "obj-74", 0 ],
					"destination" : [ "obj-7", 0 ],
					"hidden" : 0,
					"midpoints" : [  ]
				}

			}
, 			{
				"patchline" : 				{
					"source" : [ "obj-82", 0 ],
					"destination" : [ "obj-80", 0 ],
					"hidden" : 0,
					"midpoints" : [  ]
				}

			}
, 			{
				"patchline" : 				{
					"source" : [ "obj-80", 1 ],
					"destination" : [ "obj-81", 0 ],
					"hidden" : 0,
					"midpoints" : [  ]
				}

			}
, 			{
				"patchline" : 				{
					"source" : [ "obj-80", 0 ],
					"destination" : [ "obj-6", 0 ],
					"hidden" : 0,
					"midpoints" : [  ]
				}

			}
, 			{
				"patchline" : 				{
					"source" : [ "obj-81", 0 ],
					"destination" : [ "obj-7", 0 ],
					"hidden" : 0,
					"midpoints" : [  ]
				}

			}
, 			{
				"patchline" : 				{
					"source" : [ "obj-83", 1 ],
					"destination" : [ "obj-84", 0 ],
					"hidden" : 0,
					"midpoints" : [  ]
				}

			}
, 			{
				"patchline" : 				{
					"source" : [ "obj-85", 0 ],
					"destination" : [ "obj-83", 0 ],
					"hidden" : 0,
					"midpoints" : [  ]
				}

			}
, 			{
				"patchline" : 				{
					"source" : [ "obj-83", 0 ],
					"destination" : [ "obj-6", 0 ],
					"hidden" : 0,
					"midpoints" : [  ]
				}

			}
, 			{
				"patchline" : 				{
					"source" : [ "obj-84", 0 ],
					"destination" : [ "obj-7", 0 ],
					"hidden" : 0,
					"midpoints" : [  ]
				}

			}
 ]
	}

}
