{
	"patcher" : 	{
		"fileversion" : 1,
		"rect" : [ 68.0, 44.0, 620.0, 390.0 ],
		"bgcolor" : [ 0.807843, 0.807843, 0.807843, 1.0 ],
		"bglocked" : 0,
		"defrect" : [ 68.0, 44.0, 620.0, 390.0 ],
		"openrect" : [ 0.0, 0.0, 0.0, 0.0 ],
		"openinpresentation" : 1,
		"default_fontsize" : 12.0,
		"default_fontface" : 0,
		"default_fontname" : "Arial",
		"gridonopen" : 0,
		"gridsize" : [ 15.0, 15.0 ],
		"gridsnaponopen" : 0,
		"toolbarvisible" : 0,
		"boxanimatetime" : 200,
		"imprint" : 0,
		"title" : "8-string Harp",
		"metadata" : [  ],
		"boxes" : [ 			{
				"box" : 				{
					"maxclass" : "textbutton",
					"patching_rect" : [ 671.0, 79.0, 167.0, 20.0 ],
					"presentation" : 1,
					"bgoncolor" : [ 0.741176, 0.741176, 0.741176, 1.0 ],
					"id" : "obj-41",
					"text" : "click to audition these strings",
					"numoutlets" : 3,
					"texton" : "click to stop auditioning",
					"fontname" : "Arial",
					"outlettype" : [ "", "", "int" ],
					"bgovercolor" : [ 0.4, 0.756863, 0.87451, 1.0 ],
					"presentation_rect" : [ 169.0, 334.0, 167.0, 20.0 ],
					"bgcolor" : [ 0.807843, 0.807843, 0.807843, 1.0 ],
					"fontsize" : 12.0,
					"bgoveroncolor" : [ 1.0, 0.364706, 0.364706, 1.0 ],
					"mode" : 1,
					"numinlets" : 1
				}

			}
, 			{
				"box" : 				{
					"maxclass" : "message",
					"text" : "setmin $1",
					"patching_rect" : [ 614.000061, 69.0, 63.0, 18.0 ],
					"id" : "obj-113",
					"numoutlets" : 1,
					"fontname" : "Arial",
					"outlettype" : [ "" ],
					"fontsize" : 12.0,
					"numinlets" : 2
				}

			}
, 			{
				"box" : 				{
					"maxclass" : "rslider",
					"patching_rect" : [ 617.000061, 6.0, 245.0, 58.0 ],
					"presentation" : 1,
					"id" : "obj-109",
					"numoutlets" : 2,
					"outlettype" : [ "", "" ],
					"fgcolor" : [ 0.356863, 0.768627, 0.992157, 1.0 ],
					"size" : 8,
					"presentation_rect" : [ 46.0, 306.100006, 424.199982, 24.0 ],
					"min" : 1,
					"numinlets" : 2
				}

			}
, 			{
				"box" : 				{
					"maxclass" : "newobj",
					"text" : "s OSC",
					"patching_rect" : [ 538.0, 172.0, 46.0, 20.0 ],
					"id" : "obj-105",
					"numoutlets" : 0,
					"fontname" : "Arial",
					"fontsize" : 12.0,
					"numinlets" : 1
				}

			}
, 			{
				"box" : 				{
					"maxclass" : "newobj",
					"text" : "sprintf /pluck/%ld 1.",
					"patching_rect" : [ 537.0, 134.0, 115.0, 20.0 ],
					"id" : "obj-104",
					"numoutlets" : 1,
					"fontname" : "Arial",
					"outlettype" : [ "" ],
					"fontsize" : 12.0,
					"numinlets" : 1
				}

			}
, 			{
				"box" : 				{
					"maxclass" : "toggle",
					"patching_rect" : [ 537.0, 34.0, 20.0, 20.0 ],
					"id" : "obj-103",
					"numoutlets" : 1,
					"outlettype" : [ "int" ],
					"numinlets" : 1
				}

			}
, 			{
				"box" : 				{
					"maxclass" : "newobj",
					"text" : "metro 500",
					"patching_rect" : [ 537.0, 64.0, 65.0, 20.0 ],
					"id" : "obj-101",
					"numoutlets" : 1,
					"fontname" : "Arial",
					"outlettype" : [ "bang" ],
					"fontsize" : 12.0,
					"numinlets" : 2
				}

			}
, 			{
				"box" : 				{
					"maxclass" : "newobj",
					"text" : "counter 1 8",
					"patching_rect" : [ 537.0, 108.0, 73.0, 20.0 ],
					"id" : "obj-100",
					"numoutlets" : 4,
					"fontname" : "Arial",
					"outlettype" : [ "int", "", "", "int" ],
					"fontsize" : 12.0,
					"numinlets" : 5
				}

			}
, 			{
				"box" : 				{
					"maxclass" : "newobj",
					"text" : "OSC-route /pluck",
					"patching_rect" : [ 279.0, 25.0, 103.0, 20.0 ],
					"id" : "obj-26",
					"numoutlets" : 2,
					"fontname" : "Arial",
					"outlettype" : [ "list", "list" ],
					"fontsize" : 12.0,
					"numinlets" : 1
				}

			}
, 			{
				"box" : 				{
					"maxclass" : "newobj",
					"text" : "OSC-route /1 /2 /3 /4 /5 /6 /7 /8",
					"patching_rect" : [ 280.0, 50.0, 175.0, 20.0 ],
					"id" : "obj-28",
					"numoutlets" : 9,
					"fontname" : "Arial",
					"outlettype" : [ "list", "list", "list", "list", "list", "list", "list", "list", "list" ],
					"fontsize" : 12.0,
					"numinlets" : 1
				}

			}
, 			{
				"box" : 				{
					"maxclass" : "newobj",
					"text" : "r OSC",
					"patching_rect" : [ 279.0, 2.0, 44.0, 20.0 ],
					"id" : "obj-29",
					"numoutlets" : 1,
					"fontname" : "Arial",
					"outlettype" : [ "" ],
					"fontsize" : 12.0,
					"numinlets" : 0
				}

			}
, 			{
				"box" : 				{
					"maxclass" : "newobj",
					"text" : "loadbang",
					"patching_rect" : [ 159.0, -2.0, 60.0, 20.0 ],
					"id" : "obj-25",
					"numoutlets" : 1,
					"fontname" : "Arial",
					"outlettype" : [ "bang" ],
					"fontsize" : 12.0,
					"numinlets" : 1
				}

			}
, 			{
				"box" : 				{
					"maxclass" : "button",
					"patching_rect" : [ 400.0, 76.0, 20.0, 20.0 ],
					"presentation" : 1,
					"id" : "obj-21",
					"numoutlets" : 1,
					"outlettype" : [ "bang" ],
					"fgcolor" : [ 0.082353, 0.25098, 0.431373, 1.0 ],
					"presentation_rect" : [ 439.0, 261.0, 20.0, 20.0 ],
					"numinlets" : 1
				}

			}
, 			{
				"box" : 				{
					"maxclass" : "button",
					"patching_rect" : [ 379.0, 77.0, 20.0, 20.0 ],
					"presentation" : 1,
					"id" : "obj-22",
					"numoutlets" : 1,
					"outlettype" : [ "bang" ],
					"fgcolor" : [ 0.082353, 0.25098, 0.431373, 1.0 ],
					"presentation_rect" : [ 382.0, 261.0, 20.0, 20.0 ],
					"numinlets" : 1
				}

			}
, 			{
				"box" : 				{
					"maxclass" : "button",
					"patching_rect" : [ 358.0, 78.0, 20.0, 20.0 ],
					"presentation" : 1,
					"id" : "obj-23",
					"numoutlets" : 1,
					"outlettype" : [ "bang" ],
					"fgcolor" : [ 0.082353, 0.25098, 0.431373, 1.0 ],
					"presentation_rect" : [ 326.0, 261.0, 20.0, 20.0 ],
					"numinlets" : 1
				}

			}
, 			{
				"box" : 				{
					"maxclass" : "button",
					"patching_rect" : [ 334.0, 78.0, 20.0, 20.0 ],
					"presentation" : 1,
					"id" : "obj-24",
					"numoutlets" : 1,
					"outlettype" : [ "bang" ],
					"fgcolor" : [ 0.082353, 0.25098, 0.431373, 1.0 ],
					"presentation_rect" : [ 271.0, 261.0, 20.0, 20.0 ],
					"numinlets" : 1
				}

			}
, 			{
				"box" : 				{
					"maxclass" : "flonum",
					"patching_rect" : [ 695.209961, 560.369995, 37.0, 20.0 ],
					"presentation" : 1,
					"id" : "obj-15",
					"numoutlets" : 2,
					"triangle" : 0,
					"fontname" : "Arial",
					"outlettype" : [ "float", "bang" ],
					"cantchange" : 1,
					"presentation_rect" : [ 378.209961, 285.0, 41.0, 20.0 ],
					"fontsize" : 12.0,
					"numinlets" : 1
				}

			}
, 			{
				"box" : 				{
					"maxclass" : "newobj",
					"text" : "one_string 8 0.5",
					"patching_rect" : [ 775.209961, 509.369995, 97.0, 20.0 ],
					"id" : "obj-16",
					"numoutlets" : 2,
					"fontname" : "Arial",
					"outlettype" : [ "signal", "" ],
					"fontsize" : 12.0,
					"numinlets" : 2
				}

			}
, 			{
				"box" : 				{
					"maxclass" : "newobj",
					"text" : "one_string 7 0.533",
					"patching_rect" : [ 660.209961, 532.369995, 110.0, 20.0 ],
					"id" : "obj-17",
					"numoutlets" : 2,
					"fontname" : "Arial",
					"outlettype" : [ "signal", "" ],
					"fontsize" : 12.0,
					"numinlets" : 2
				}

			}
, 			{
				"box" : 				{
					"maxclass" : "flonum",
					"patching_rect" : [ 808.209961, 534.369995, 37.0, 20.0 ],
					"presentation" : 1,
					"id" : "obj-20",
					"numoutlets" : 2,
					"triangle" : 0,
					"fontname" : "Arial",
					"outlettype" : [ "float", "bang" ],
					"cantchange" : 1,
					"presentation_rect" : [ 435.209961, 285.0, 40.0, 20.0 ],
					"fontsize" : 12.0,
					"numinlets" : 1
				}

			}
, 			{
				"box" : 				{
					"maxclass" : "flonum",
					"patching_rect" : [ 498.209991, 537.369995, 37.0, 20.0 ],
					"presentation" : 1,
					"id" : "obj-2",
					"numoutlets" : 2,
					"triangle" : 0,
					"fontname" : "Arial",
					"outlettype" : [ "float", "bang" ],
					"cantchange" : 1,
					"presentation_rect" : [ 266.209991, 285.0, 42.0, 20.0 ],
					"fontsize" : 12.0,
					"numinlets" : 1
				}

			}
, 			{
				"box" : 				{
					"maxclass" : "newobj",
					"text" : "one_string 6 0.6",
					"patching_rect" : [ 570.209961, 510.369995, 97.0, 20.0 ],
					"id" : "obj-3",
					"numoutlets" : 2,
					"fontname" : "Arial",
					"outlettype" : [ "signal", "" ],
					"fontsize" : 12.0,
					"numinlets" : 2
				}

			}
, 			{
				"box" : 				{
					"maxclass" : "newobj",
					"text" : "one_string 5 0.667",
					"patching_rect" : [ 454.209991, 510.369995, 110.0, 20.0 ],
					"id" : "obj-5",
					"numoutlets" : 2,
					"fontname" : "Arial",
					"outlettype" : [ "signal", "" ],
					"fontsize" : 12.0,
					"numinlets" : 2
				}

			}
, 			{
				"box" : 				{
					"maxclass" : "flonum",
					"patching_rect" : [ 603.209961, 535.369995, 37.0, 20.0 ],
					"presentation" : 1,
					"id" : "obj-14",
					"numoutlets" : 2,
					"triangle" : 0,
					"fontname" : "Arial",
					"outlettype" : [ "float", "bang" ],
					"cantchange" : 1,
					"presentation_rect" : [ 319.209961, 285.0, 42.0, 20.0 ],
					"fontsize" : 12.0,
					"numinlets" : 1
				}

			}
, 			{
				"box" : 				{
					"maxclass" : "button",
					"patching_rect" : [ 313.0, 77.0, 20.0, 20.0 ],
					"presentation" : 1,
					"id" : "obj-63",
					"numoutlets" : 1,
					"outlettype" : [ "bang" ],
					"fgcolor" : [ 0.082353, 0.25098, 0.431373, 1.0 ],
					"presentation_rect" : [ 216.0, 261.0, 20.0, 20.0 ],
					"numinlets" : 1
				}

			}
, 			{
				"box" : 				{
					"maxclass" : "flonum",
					"patching_rect" : [ 297.209991, 537.369995, 37.0, 20.0 ],
					"presentation" : 1,
					"id" : "obj-62",
					"numoutlets" : 2,
					"triangle" : 0,
					"fontname" : "Arial",
					"outlettype" : [ "float", "bang" ],
					"cantchange" : 1,
					"presentation_rect" : [ 152.209991, 285.0, 44.0, 20.0 ],
					"fontsize" : 12.0,
					"numinlets" : 1
				}

			}
, 			{
				"box" : 				{
					"maxclass" : "newobj",
					"text" : "one_string 4 0.75",
					"patching_rect" : [ 358.209991, 534.369995, 103.0, 20.0 ],
					"id" : "obj-58",
					"numoutlets" : 2,
					"fontname" : "Arial",
					"outlettype" : [ "signal", "" ],
					"fontsize" : 12.0,
					"numinlets" : 2
				}

			}
, 			{
				"box" : 				{
					"maxclass" : "newobj",
					"text" : "one_string 3 0.8",
					"patching_rect" : [ 262.209991, 510.369995, 97.0, 20.0 ],
					"id" : "obj-59",
					"numoutlets" : 2,
					"fontname" : "Arial",
					"outlettype" : [ "signal", "" ],
					"fontsize" : 12.0,
					"numinlets" : 2
				}

			}
, 			{
				"box" : 				{
					"maxclass" : "flonum",
					"patching_rect" : [ 390.209991, 559.369995, 37.0, 20.0 ],
					"presentation" : 1,
					"id" : "obj-60",
					"numoutlets" : 2,
					"triangle" : 0,
					"fontname" : "Arial",
					"outlettype" : [ "float", "bang" ],
					"cantchange" : 1,
					"presentation_rect" : [ 210.209991, 285.0, 41.0, 20.0 ],
					"fontsize" : 12.0,
					"numinlets" : 1
				}

			}
, 			{
				"box" : 				{
					"maxclass" : "newobj",
					"text" : "one_string 2 0.88",
					"patching_rect" : [ 153.209991, 509.369995, 103.0, 20.0 ],
					"id" : "obj-57",
					"numoutlets" : 2,
					"fontname" : "Arial",
					"outlettype" : [ "signal", "" ],
					"fontsize" : 12.0,
					"numinlets" : 2
				}

			}
, 			{
				"box" : 				{
					"maxclass" : "newobj",
					"text" : "one_string 1 1.",
					"patching_rect" : [ 63.209991, 511.369995, 90.0, 20.0 ],
					"id" : "obj-53",
					"numoutlets" : 2,
					"fontname" : "Arial",
					"outlettype" : [ "signal", "" ],
					"fontsize" : 12.0,
					"numinlets" : 2
				}

			}
, 			{
				"box" : 				{
					"maxclass" : "button",
					"patching_rect" : [ 292.0, 78.0, 20.0, 20.0 ],
					"presentation" : 1,
					"id" : "obj-27",
					"numoutlets" : 1,
					"outlettype" : [ "bang" ],
					"fgcolor" : [ 0.082353, 0.25098, 0.431373, 1.0 ],
					"presentation_rect" : [ 161.0, 261.0, 20.0, 20.0 ],
					"numinlets" : 1
				}

			}
, 			{
				"box" : 				{
					"maxclass" : "flonum",
					"patching_rect" : [ 189.209991, 537.369995, 37.0, 20.0 ],
					"presentation" : 1,
					"id" : "obj-19",
					"numoutlets" : 2,
					"triangle" : 0,
					"fontname" : "Arial",
					"outlettype" : [ "float", "bang" ],
					"cantchange" : 1,
					"presentation_rect" : [ 97.209991, 285.0, 41.0, 20.0 ],
					"fontsize" : 12.0,
					"numinlets" : 1
				}

			}
, 			{
				"box" : 				{
					"maxclass" : "button",
					"patching_rect" : [ 271.0, 79.0, 20.0, 20.0 ],
					"presentation" : 1,
					"id" : "obj-1",
					"numoutlets" : 1,
					"outlettype" : [ "bang" ],
					"fgcolor" : [ 0.082353, 0.25098, 0.431373, 1.0 ],
					"presentation_rect" : [ 105.0, 261.0, 20.0, 20.0 ],
					"numinlets" : 1
				}

			}
, 			{
				"box" : 				{
					"maxclass" : "ezdac~",
					"patching_rect" : [ 220.0, 656.0, 45.0, 45.0 ],
					"presentation" : 1,
					"id" : "obj-38",
					"numoutlets" : 0,
					"ongradcolor1" : [ 0.670588, 0.058824, 0.058824, 1.0 ],
					"presentation_rect" : [ 483.900024, 258.0, 110.0, 110.0 ],
					"numinlets" : 2
				}

			}
, 			{
				"box" : 				{
					"maxclass" : "comment",
					"text" : "pluck:",
					"patching_rect" : [ 205.0, 78.0, 42.0, 20.0 ],
					"presentation" : 1,
					"id" : "obj-37",
					"numoutlets" : 0,
					"fontname" : "Arial",
					"presentation_rect" : [ 5.0, 262.0, 42.0, 20.0 ],
					"fontsize" : 12.0,
					"frgb" : [ 0.0, 0.0, 0.0, 1.0 ],
					"numinlets" : 1
				}

			}
, 			{
				"box" : 				{
					"maxclass" : "newobj",
					"text" : "p",
					"patching_rect" : [ 92.0, 109.0, 100.0, 20.0 ],
					"id" : "obj-34",
					"numoutlets" : 1,
					"fontname" : "Arial",
					"outlettype" : [ "" ],
					"fontsize" : 12.0,
					"numinlets" : 8,
					"patcher" : 					{
						"fileversion" : 1,
						"rect" : [ 162.0, 58.0, 1031.0, 694.0 ],
						"bglocked" : 0,
						"defrect" : [ 162.0, 58.0, 1031.0, 694.0 ],
						"openrect" : [ 0.0, 0.0, 0.0, 0.0 ],
						"openinpresentation" : 0,
						"default_fontsize" : 12.0,
						"default_fontface" : 0,
						"default_fontname" : "Arial",
						"gridonopen" : 0,
						"gridsize" : [ 15.0, 15.0 ],
						"gridsnaponopen" : 0,
						"toolbarvisible" : 1,
						"boxanimatetime" : 200,
						"imprint" : 0,
						"metadata" : [  ],
						"boxes" : [ 							{
								"box" : 								{
									"maxclass" : "flonum",
									"patching_rect" : [ 737.0, 395.0, 50.0, 20.0 ],
									"id" : "obj-31",
									"numoutlets" : 2,
									"fontname" : "Arial",
									"outlettype" : [ "float", "bang" ],
									"fontsize" : 12.0,
									"numinlets" : 1
								}

							}
, 							{
								"box" : 								{
									"maxclass" : "newobj",
									"text" : "scale 1. 0. 0.9 -0.9",
									"patching_rect" : [ 737.0, 424.0, 109.0, 20.0 ],
									"id" : "obj-34",
									"numoutlets" : 1,
									"fontname" : "Arial",
									"outlettype" : [ "float" ],
									"fontsize" : 12.0,
									"numinlets" : 6
								}

							}
, 							{
								"box" : 								{
									"maxclass" : "message",
									"text" : "tune 8 $1",
									"patching_rect" : [ 737.0, 460.0, 61.0, 18.0 ],
									"id" : "obj-35",
									"numoutlets" : 1,
									"fontname" : "Arial",
									"outlettype" : [ "" ],
									"fontsize" : 12.0,
									"numinlets" : 2
								}

							}
, 							{
								"box" : 								{
									"maxclass" : "flonum",
									"patching_rect" : [ 714.0, 297.0, 50.0, 20.0 ],
									"id" : "obj-36",
									"numoutlets" : 2,
									"fontname" : "Arial",
									"outlettype" : [ "float", "bang" ],
									"fontsize" : 12.0,
									"numinlets" : 1
								}

							}
, 							{
								"box" : 								{
									"maxclass" : "newobj",
									"text" : "scale 1. 0. 0.9 -0.9",
									"patching_rect" : [ 714.0, 326.0, 109.0, 20.0 ],
									"id" : "obj-37",
									"numoutlets" : 1,
									"fontname" : "Arial",
									"outlettype" : [ "float" ],
									"fontsize" : 12.0,
									"numinlets" : 6
								}

							}
, 							{
								"box" : 								{
									"maxclass" : "message",
									"text" : "tune 7 $1",
									"patching_rect" : [ 714.0, 362.0, 61.0, 18.0 ],
									"id" : "obj-38",
									"numoutlets" : 1,
									"fontname" : "Arial",
									"outlettype" : [ "" ],
									"fontsize" : 12.0,
									"numinlets" : 2
								}

							}
, 							{
								"box" : 								{
									"maxclass" : "flonum",
									"patching_rect" : [ 693.0, 208.0, 50.0, 20.0 ],
									"id" : "obj-39",
									"numoutlets" : 2,
									"fontname" : "Arial",
									"outlettype" : [ "float", "bang" ],
									"fontsize" : 12.0,
									"numinlets" : 1
								}

							}
, 							{
								"box" : 								{
									"maxclass" : "newobj",
									"text" : "scale 1. 0. 0.9 -0.9",
									"patching_rect" : [ 693.0, 237.0, 109.0, 20.0 ],
									"id" : "obj-40",
									"numoutlets" : 1,
									"fontname" : "Arial",
									"outlettype" : [ "float" ],
									"fontsize" : 12.0,
									"numinlets" : 6
								}

							}
, 							{
								"box" : 								{
									"maxclass" : "message",
									"text" : "tune 6 $1",
									"patching_rect" : [ 693.0, 273.0, 61.0, 18.0 ],
									"id" : "obj-41",
									"numoutlets" : 1,
									"fontname" : "Arial",
									"outlettype" : [ "" ],
									"fontsize" : 12.0,
									"numinlets" : 2
								}

							}
, 							{
								"box" : 								{
									"maxclass" : "flonum",
									"patching_rect" : [ 663.0, 110.0, 50.0, 20.0 ],
									"id" : "obj-42",
									"numoutlets" : 2,
									"fontname" : "Arial",
									"outlettype" : [ "float", "bang" ],
									"fontsize" : 12.0,
									"numinlets" : 1
								}

							}
, 							{
								"box" : 								{
									"maxclass" : "newobj",
									"text" : "scale 1. 0. 0.9 -0.9",
									"patching_rect" : [ 663.0, 139.0, 109.0, 20.0 ],
									"id" : "obj-43",
									"numoutlets" : 1,
									"fontname" : "Arial",
									"outlettype" : [ "float" ],
									"fontsize" : 12.0,
									"numinlets" : 6
								}

							}
, 							{
								"box" : 								{
									"maxclass" : "message",
									"text" : "tune 5 $1",
									"patching_rect" : [ 663.0, 175.0, 61.0, 18.0 ],
									"id" : "obj-44",
									"numoutlets" : 1,
									"fontname" : "Arial",
									"outlettype" : [ "" ],
									"fontsize" : 12.0,
									"numinlets" : 2
								}

							}
, 							{
								"box" : 								{
									"maxclass" : "flonum",
									"patching_rect" : [ 592.0, 394.0, 50.0, 20.0 ],
									"id" : "obj-25",
									"numoutlets" : 2,
									"fontname" : "Arial",
									"outlettype" : [ "float", "bang" ],
									"fontsize" : 12.0,
									"numinlets" : 1
								}

							}
, 							{
								"box" : 								{
									"maxclass" : "newobj",
									"text" : "scale 1. 0. 0.9 -0.9",
									"patching_rect" : [ 592.0, 423.0, 109.0, 20.0 ],
									"id" : "obj-26",
									"numoutlets" : 1,
									"fontname" : "Arial",
									"outlettype" : [ "float" ],
									"fontsize" : 12.0,
									"numinlets" : 6
								}

							}
, 							{
								"box" : 								{
									"maxclass" : "message",
									"text" : "tune 4 $1",
									"patching_rect" : [ 592.0, 459.0, 61.0, 18.0 ],
									"id" : "obj-27",
									"numoutlets" : 1,
									"fontname" : "Arial",
									"outlettype" : [ "" ],
									"fontsize" : 12.0,
									"numinlets" : 2
								}

							}
, 							{
								"box" : 								{
									"maxclass" : "flonum",
									"patching_rect" : [ 570.0, 296.0, 50.0, 20.0 ],
									"id" : "obj-28",
									"numoutlets" : 2,
									"fontname" : "Arial",
									"outlettype" : [ "float", "bang" ],
									"fontsize" : 12.0,
									"numinlets" : 1
								}

							}
, 							{
								"box" : 								{
									"maxclass" : "newobj",
									"text" : "scale 1. 0. 0.9 -0.9",
									"patching_rect" : [ 570.0, 325.0, 109.0, 20.0 ],
									"id" : "obj-29",
									"numoutlets" : 1,
									"fontname" : "Arial",
									"outlettype" : [ "float" ],
									"fontsize" : 12.0,
									"numinlets" : 6
								}

							}
, 							{
								"box" : 								{
									"maxclass" : "message",
									"text" : "tune 3 $1",
									"patching_rect" : [ 570.0, 361.0, 61.0, 18.0 ],
									"id" : "obj-30",
									"numoutlets" : 1,
									"fontname" : "Arial",
									"outlettype" : [ "" ],
									"fontsize" : 12.0,
									"numinlets" : 2
								}

							}
, 							{
								"box" : 								{
									"maxclass" : "flonum",
									"patching_rect" : [ 551.0, 207.0, 50.0, 20.0 ],
									"id" : "obj-22",
									"numoutlets" : 2,
									"fontname" : "Arial",
									"outlettype" : [ "float", "bang" ],
									"fontsize" : 12.0,
									"numinlets" : 1
								}

							}
, 							{
								"box" : 								{
									"maxclass" : "newobj",
									"text" : "scale 1. 0. 0.9 -0.9",
									"patching_rect" : [ 551.0, 236.0, 109.0, 20.0 ],
									"id" : "obj-23",
									"numoutlets" : 1,
									"fontname" : "Arial",
									"outlettype" : [ "float" ],
									"fontsize" : 12.0,
									"numinlets" : 6
								}

							}
, 							{
								"box" : 								{
									"maxclass" : "message",
									"text" : "tune 2 $1",
									"patching_rect" : [ 551.0, 272.0, 61.0, 18.0 ],
									"id" : "obj-24",
									"numoutlets" : 1,
									"fontname" : "Arial",
									"outlettype" : [ "" ],
									"fontsize" : 12.0,
									"numinlets" : 2
								}

							}
, 							{
								"box" : 								{
									"maxclass" : "newobj",
									"text" : "OSC-route /1 /2 /3 /4 /5 /6 /7 /8",
									"patching_rect" : [ 531.0, 78.0, 286.0, 20.0 ],
									"id" : "obj-20",
									"numoutlets" : 9,
									"fontname" : "Arial",
									"outlettype" : [ "list", "list", "list", "list", "list", "list", "list", "list", "list" ],
									"fontsize" : 12.0,
									"numinlets" : 1
								}

							}
, 							{
								"box" : 								{
									"maxclass" : "newobj",
									"text" : "OSC-route /tune",
									"patching_rect" : [ 531.0, 49.0, 98.0, 20.0 ],
									"id" : "obj-17",
									"numoutlets" : 2,
									"fontname" : "Arial",
									"outlettype" : [ "list", "list" ],
									"fontsize" : 12.0,
									"numinlets" : 1
								}

							}
, 							{
								"box" : 								{
									"maxclass" : "newobj",
									"text" : "r OSC",
									"patching_rect" : [ 531.0, 27.0, 44.0, 20.0 ],
									"id" : "obj-16",
									"numoutlets" : 1,
									"fontname" : "Arial",
									"outlettype" : [ "" ],
									"fontsize" : 12.0,
									"numinlets" : 0
								}

							}
, 							{
								"box" : 								{
									"maxclass" : "flonum",
									"patching_rect" : [ 531.0, 109.0, 50.0, 20.0 ],
									"id" : "obj-21",
									"numoutlets" : 2,
									"fontname" : "Arial",
									"outlettype" : [ "float", "bang" ],
									"fontsize" : 12.0,
									"numinlets" : 1
								}

							}
, 							{
								"box" : 								{
									"maxclass" : "newobj",
									"text" : "scale 1. 0. 0.9 -0.9",
									"patching_rect" : [ 531.0, 138.0, 109.0, 20.0 ],
									"id" : "obj-19",
									"numoutlets" : 1,
									"fontname" : "Arial",
									"outlettype" : [ "float" ],
									"fontsize" : 12.0,
									"numinlets" : 6
								}

							}
, 							{
								"box" : 								{
									"maxclass" : "message",
									"text" : "tune 1 $1",
									"patching_rect" : [ 531.0, 174.0, 61.0, 18.0 ],
									"id" : "obj-18",
									"numoutlets" : 1,
									"fontname" : "Arial",
									"outlettype" : [ "" ],
									"fontsize" : 12.0,
									"numinlets" : 2
								}

							}
, 							{
								"box" : 								{
									"maxclass" : "inlet",
									"patching_rect" : [ 443.0, 46.0, 25.0, 25.0 ],
									"id" : "obj-7",
									"numoutlets" : 1,
									"outlettype" : [ "bang" ],
									"numinlets" : 0,
									"comment" : ""
								}

							}
, 							{
								"box" : 								{
									"maxclass" : "message",
									"text" : "pluck 8",
									"patching_rect" : [ 447.0, 237.0, 49.0, 18.0 ],
									"id" : "obj-8",
									"numoutlets" : 1,
									"fontname" : "Arial",
									"outlettype" : [ "" ],
									"fontsize" : 12.0,
									"numinlets" : 2
								}

							}
, 							{
								"box" : 								{
									"maxclass" : "message",
									"text" : "pluck 7",
									"patching_rect" : [ 387.0, 234.0, 49.0, 18.0 ],
									"id" : "obj-9",
									"numoutlets" : 1,
									"fontname" : "Arial",
									"outlettype" : [ "" ],
									"fontsize" : 12.0,
									"numinlets" : 2
								}

							}
, 							{
								"box" : 								{
									"maxclass" : "inlet",
									"patching_rect" : [ 388.0, 45.0, 25.0, 25.0 ],
									"id" : "obj-10",
									"numoutlets" : 1,
									"outlettype" : [ "bang" ],
									"numinlets" : 0,
									"comment" : ""
								}

							}
, 							{
								"box" : 								{
									"maxclass" : "message",
									"text" : "pluck 6",
									"patching_rect" : [ 333.0, 234.0, 49.0, 18.0 ],
									"id" : "obj-11",
									"numoutlets" : 1,
									"fontname" : "Arial",
									"outlettype" : [ "" ],
									"fontsize" : 12.0,
									"numinlets" : 2
								}

							}
, 							{
								"box" : 								{
									"maxclass" : "inlet",
									"patching_rect" : [ 333.0, 45.0, 25.0, 25.0 ],
									"id" : "obj-12",
									"numoutlets" : 1,
									"outlettype" : [ "bang" ],
									"numinlets" : 0,
									"comment" : ""
								}

							}
, 							{
								"box" : 								{
									"maxclass" : "message",
									"text" : "pluck 5",
									"patching_rect" : [ 278.0, 234.0, 49.0, 18.0 ],
									"id" : "obj-13",
									"numoutlets" : 1,
									"fontname" : "Arial",
									"outlettype" : [ "" ],
									"fontsize" : 12.0,
									"numinlets" : 2
								}

							}
, 							{
								"box" : 								{
									"maxclass" : "inlet",
									"patching_rect" : [ 278.0, 45.0, 25.0, 25.0 ],
									"id" : "obj-15",
									"numoutlets" : 1,
									"outlettype" : [ "bang" ],
									"numinlets" : 0,
									"comment" : ""
								}

							}
, 							{
								"box" : 								{
									"maxclass" : "inlet",
									"patching_rect" : [ 220.0, 41.0, 25.0, 25.0 ],
									"id" : "obj-6",
									"numoutlets" : 1,
									"outlettype" : [ "bang" ],
									"numinlets" : 0,
									"comment" : ""
								}

							}
, 							{
								"box" : 								{
									"maxclass" : "message",
									"text" : "pluck 4",
									"patching_rect" : [ 224.0, 232.0, 49.0, 18.0 ],
									"id" : "obj-5",
									"numoutlets" : 1,
									"fontname" : "Arial",
									"outlettype" : [ "" ],
									"fontsize" : 12.0,
									"numinlets" : 2
								}

							}
, 							{
								"box" : 								{
									"maxclass" : "message",
									"text" : "pluck 3",
									"patching_rect" : [ 164.0, 229.0, 49.0, 18.0 ],
									"id" : "obj-3",
									"numoutlets" : 1,
									"fontname" : "Arial",
									"outlettype" : [ "" ],
									"fontsize" : 12.0,
									"numinlets" : 2
								}

							}
, 							{
								"box" : 								{
									"maxclass" : "inlet",
									"patching_rect" : [ 165.0, 40.0, 25.0, 25.0 ],
									"id" : "obj-4",
									"numoutlets" : 1,
									"outlettype" : [ "bang" ],
									"numinlets" : 0,
									"comment" : ""
								}

							}
, 							{
								"box" : 								{
									"maxclass" : "message",
									"text" : "pluck 2",
									"patching_rect" : [ 110.0, 229.0, 49.0, 18.0 ],
									"id" : "obj-1",
									"numoutlets" : 1,
									"fontname" : "Arial",
									"outlettype" : [ "" ],
									"fontsize" : 12.0,
									"numinlets" : 2
								}

							}
, 							{
								"box" : 								{
									"maxclass" : "inlet",
									"patching_rect" : [ 110.0, 40.0, 25.0, 25.0 ],
									"id" : "obj-2",
									"numoutlets" : 1,
									"outlettype" : [ "bang" ],
									"numinlets" : 0,
									"comment" : ""
								}

							}
, 							{
								"box" : 								{
									"maxclass" : "message",
									"text" : "pluck 1",
									"patching_rect" : [ 55.0, 229.0, 49.0, 18.0 ],
									"id" : "obj-14",
									"numoutlets" : 1,
									"fontname" : "Arial",
									"outlettype" : [ "" ],
									"fontsize" : 12.0,
									"numinlets" : 2
								}

							}
, 							{
								"box" : 								{
									"maxclass" : "inlet",
									"patching_rect" : [ 55.0, 40.0, 25.0, 25.0 ],
									"id" : "obj-32",
									"numoutlets" : 1,
									"outlettype" : [ "bang" ],
									"numinlets" : 0,
									"comment" : ""
								}

							}
, 							{
								"box" : 								{
									"maxclass" : "outlet",
									"patching_rect" : [ 62.0, 600.0, 25.0, 25.0 ],
									"id" : "obj-33",
									"numoutlets" : 0,
									"numinlets" : 1,
									"comment" : ""
								}

							}
 ],
						"lines" : [ 							{
								"patchline" : 								{
									"source" : [ "obj-38", 0 ],
									"destination" : [ "obj-33", 0 ],
									"hidden" : 0,
									"midpoints" : [  ]
								}

							}
, 							{
								"patchline" : 								{
									"source" : [ "obj-35", 0 ],
									"destination" : [ "obj-33", 0 ],
									"hidden" : 0,
									"midpoints" : [  ]
								}

							}
, 							{
								"patchline" : 								{
									"source" : [ "obj-41", 0 ],
									"destination" : [ "obj-33", 0 ],
									"hidden" : 0,
									"midpoints" : [  ]
								}

							}
, 							{
								"patchline" : 								{
									"source" : [ "obj-44", 0 ],
									"destination" : [ "obj-33", 0 ],
									"hidden" : 0,
									"midpoints" : [  ]
								}

							}
, 							{
								"patchline" : 								{
									"source" : [ "obj-20", 7 ],
									"destination" : [ "obj-31", 0 ],
									"hidden" : 0,
									"midpoints" : [  ]
								}

							}
, 							{
								"patchline" : 								{
									"source" : [ "obj-20", 6 ],
									"destination" : [ "obj-36", 0 ],
									"hidden" : 0,
									"midpoints" : [  ]
								}

							}
, 							{
								"patchline" : 								{
									"source" : [ "obj-20", 5 ],
									"destination" : [ "obj-39", 0 ],
									"hidden" : 0,
									"midpoints" : [  ]
								}

							}
, 							{
								"patchline" : 								{
									"source" : [ "obj-20", 4 ],
									"destination" : [ "obj-42", 0 ],
									"hidden" : 0,
									"midpoints" : [  ]
								}

							}
, 							{
								"patchline" : 								{
									"source" : [ "obj-27", 0 ],
									"destination" : [ "obj-33", 0 ],
									"hidden" : 0,
									"midpoints" : [  ]
								}

							}
, 							{
								"patchline" : 								{
									"source" : [ "obj-30", 0 ],
									"destination" : [ "obj-33", 0 ],
									"hidden" : 0,
									"midpoints" : [  ]
								}

							}
, 							{
								"patchline" : 								{
									"source" : [ "obj-20", 3 ],
									"destination" : [ "obj-25", 0 ],
									"hidden" : 0,
									"midpoints" : [  ]
								}

							}
, 							{
								"patchline" : 								{
									"source" : [ "obj-20", 2 ],
									"destination" : [ "obj-28", 0 ],
									"hidden" : 0,
									"midpoints" : [  ]
								}

							}
, 							{
								"patchline" : 								{
									"source" : [ "obj-42", 0 ],
									"destination" : [ "obj-43", 0 ],
									"hidden" : 0,
									"midpoints" : [  ]
								}

							}
, 							{
								"patchline" : 								{
									"source" : [ "obj-43", 0 ],
									"destination" : [ "obj-44", 0 ],
									"hidden" : 0,
									"midpoints" : [  ]
								}

							}
, 							{
								"patchline" : 								{
									"source" : [ "obj-40", 0 ],
									"destination" : [ "obj-41", 0 ],
									"hidden" : 0,
									"midpoints" : [  ]
								}

							}
, 							{
								"patchline" : 								{
									"source" : [ "obj-39", 0 ],
									"destination" : [ "obj-40", 0 ],
									"hidden" : 0,
									"midpoints" : [  ]
								}

							}
, 							{
								"patchline" : 								{
									"source" : [ "obj-31", 0 ],
									"destination" : [ "obj-34", 0 ],
									"hidden" : 0,
									"midpoints" : [  ]
								}

							}
, 							{
								"patchline" : 								{
									"source" : [ "obj-34", 0 ],
									"destination" : [ "obj-35", 0 ],
									"hidden" : 0,
									"midpoints" : [  ]
								}

							}
, 							{
								"patchline" : 								{
									"source" : [ "obj-37", 0 ],
									"destination" : [ "obj-38", 0 ],
									"hidden" : 0,
									"midpoints" : [  ]
								}

							}
, 							{
								"patchline" : 								{
									"source" : [ "obj-36", 0 ],
									"destination" : [ "obj-37", 0 ],
									"hidden" : 0,
									"midpoints" : [  ]
								}

							}
, 							{
								"patchline" : 								{
									"source" : [ "obj-28", 0 ],
									"destination" : [ "obj-29", 0 ],
									"hidden" : 0,
									"midpoints" : [  ]
								}

							}
, 							{
								"patchline" : 								{
									"source" : [ "obj-29", 0 ],
									"destination" : [ "obj-30", 0 ],
									"hidden" : 0,
									"midpoints" : [  ]
								}

							}
, 							{
								"patchline" : 								{
									"source" : [ "obj-26", 0 ],
									"destination" : [ "obj-27", 0 ],
									"hidden" : 0,
									"midpoints" : [  ]
								}

							}
, 							{
								"patchline" : 								{
									"source" : [ "obj-25", 0 ],
									"destination" : [ "obj-26", 0 ],
									"hidden" : 0,
									"midpoints" : [  ]
								}

							}
, 							{
								"patchline" : 								{
									"source" : [ "obj-20", 1 ],
									"destination" : [ "obj-22", 0 ],
									"hidden" : 0,
									"midpoints" : [  ]
								}

							}
, 							{
								"patchline" : 								{
									"source" : [ "obj-24", 0 ],
									"destination" : [ "obj-33", 0 ],
									"hidden" : 0,
									"midpoints" : [  ]
								}

							}
, 							{
								"patchline" : 								{
									"source" : [ "obj-22", 0 ],
									"destination" : [ "obj-23", 0 ],
									"hidden" : 0,
									"midpoints" : [  ]
								}

							}
, 							{
								"patchline" : 								{
									"source" : [ "obj-23", 0 ],
									"destination" : [ "obj-24", 0 ],
									"hidden" : 0,
									"midpoints" : [  ]
								}

							}
, 							{
								"patchline" : 								{
									"source" : [ "obj-20", 0 ],
									"destination" : [ "obj-21", 0 ],
									"hidden" : 0,
									"midpoints" : [  ]
								}

							}
, 							{
								"patchline" : 								{
									"source" : [ "obj-17", 0 ],
									"destination" : [ "obj-20", 0 ],
									"hidden" : 0,
									"midpoints" : [  ]
								}

							}
, 							{
								"patchline" : 								{
									"source" : [ "obj-16", 0 ],
									"destination" : [ "obj-17", 0 ],
									"hidden" : 0,
									"midpoints" : [  ]
								}

							}
, 							{
								"patchline" : 								{
									"source" : [ "obj-8", 0 ],
									"destination" : [ "obj-33", 0 ],
									"hidden" : 0,
									"midpoints" : [  ]
								}

							}
, 							{
								"patchline" : 								{
									"source" : [ "obj-9", 0 ],
									"destination" : [ "obj-33", 0 ],
									"hidden" : 0,
									"midpoints" : [  ]
								}

							}
, 							{
								"patchline" : 								{
									"source" : [ "obj-11", 0 ],
									"destination" : [ "obj-33", 0 ],
									"hidden" : 0,
									"midpoints" : [  ]
								}

							}
, 							{
								"patchline" : 								{
									"source" : [ "obj-13", 0 ],
									"destination" : [ "obj-33", 0 ],
									"hidden" : 0,
									"midpoints" : [  ]
								}

							}
, 							{
								"patchline" : 								{
									"source" : [ "obj-7", 0 ],
									"destination" : [ "obj-8", 0 ],
									"hidden" : 0,
									"midpoints" : [  ]
								}

							}
, 							{
								"patchline" : 								{
									"source" : [ "obj-10", 0 ],
									"destination" : [ "obj-9", 0 ],
									"hidden" : 0,
									"midpoints" : [  ]
								}

							}
, 							{
								"patchline" : 								{
									"source" : [ "obj-12", 0 ],
									"destination" : [ "obj-11", 0 ],
									"hidden" : 0,
									"midpoints" : [  ]
								}

							}
, 							{
								"patchline" : 								{
									"source" : [ "obj-15", 0 ],
									"destination" : [ "obj-13", 0 ],
									"hidden" : 0,
									"midpoints" : [  ]
								}

							}
, 							{
								"patchline" : 								{
									"source" : [ "obj-32", 0 ],
									"destination" : [ "obj-14", 0 ],
									"hidden" : 0,
									"midpoints" : [  ]
								}

							}
, 							{
								"patchline" : 								{
									"source" : [ "obj-14", 0 ],
									"destination" : [ "obj-33", 0 ],
									"hidden" : 0,
									"midpoints" : [  ]
								}

							}
, 							{
								"patchline" : 								{
									"source" : [ "obj-2", 0 ],
									"destination" : [ "obj-1", 0 ],
									"hidden" : 0,
									"midpoints" : [  ]
								}

							}
, 							{
								"patchline" : 								{
									"source" : [ "obj-1", 0 ],
									"destination" : [ "obj-33", 0 ],
									"hidden" : 0,
									"midpoints" : [  ]
								}

							}
, 							{
								"patchline" : 								{
									"source" : [ "obj-4", 0 ],
									"destination" : [ "obj-3", 0 ],
									"hidden" : 0,
									"midpoints" : [  ]
								}

							}
, 							{
								"patchline" : 								{
									"source" : [ "obj-3", 0 ],
									"destination" : [ "obj-33", 0 ],
									"hidden" : 0,
									"midpoints" : [  ]
								}

							}
, 							{
								"patchline" : 								{
									"source" : [ "obj-6", 0 ],
									"destination" : [ "obj-5", 0 ],
									"hidden" : 0,
									"midpoints" : [  ]
								}

							}
, 							{
								"patchline" : 								{
									"source" : [ "obj-5", 0 ],
									"destination" : [ "obj-33", 0 ],
									"hidden" : 0,
									"midpoints" : [  ]
								}

							}
, 							{
								"patchline" : 								{
									"source" : [ "obj-18", 0 ],
									"destination" : [ "obj-33", 0 ],
									"hidden" : 0,
									"midpoints" : [  ]
								}

							}
, 							{
								"patchline" : 								{
									"source" : [ "obj-19", 0 ],
									"destination" : [ "obj-18", 0 ],
									"hidden" : 0,
									"midpoints" : [  ]
								}

							}
, 							{
								"patchline" : 								{
									"source" : [ "obj-21", 0 ],
									"destination" : [ "obj-19", 0 ],
									"hidden" : 0,
									"midpoints" : [  ]
								}

							}
 ]
					}
,
					"saved_object_attributes" : 					{
						"default_fontname" : "Arial",
						"default_fontsize" : 12.0,
						"fontname" : "Arial",
						"globalpatchername" : "",
						"fontface" : 0,
						"fontsize" : 12.0,
						"default_fontface" : 0
					}

				}

			}
, 			{
				"box" : 				{
					"maxclass" : "comment",
					"text" : "ratio:",
					"patching_rect" : [ 16.0, 534.0, 37.0, 20.0 ],
					"presentation" : 1,
					"id" : "obj-36",
					"numoutlets" : 0,
					"fontname" : "Arial",
					"presentation_rect" : [ 5.0, 286.0, 37.0, 20.0 ],
					"fontsize" : 12.0,
					"frgb" : [ 0.0, 0.0, 0.0, 1.0 ],
					"numinlets" : 1
				}

			}
, 			{
				"box" : 				{
					"maxclass" : "button",
					"patching_rect" : [ 247.0, 79.0, 20.0, 20.0 ],
					"presentation" : 1,
					"id" : "obj-30",
					"numoutlets" : 1,
					"outlettype" : [ "bang" ],
					"fgcolor" : [ 0.082353, 0.25098, 0.431373, 1.0 ],
					"presentation_rect" : [ 50.0, 261.0, 20.0, 20.0 ],
					"numinlets" : 1
				}

			}
, 			{
				"box" : 				{
					"maxclass" : "toggle",
					"patching_rect" : [ 30.76796, 695.716187, 20.0, 20.0 ],
					"id" : "obj-8",
					"numoutlets" : 1,
					"outlettype" : [ "int" ],
					"numinlets" : 1
				}

			}
, 			{
				"box" : 				{
					"maxclass" : "newobj",
					"text" : "dac~",
					"patching_rect" : [ 63.76796, 754.716187, 37.0, 20.0 ],
					"id" : "obj-9",
					"numoutlets" : 0,
					"fontname" : "Arial",
					"fontsize" : 12.0,
					"numinlets" : 2
				}

			}
, 			{
				"box" : 				{
					"maxclass" : "gain~",
					"patching_rect" : [ 64.76796, 592.716187, 82.0, 140.0 ],
					"presentation" : 1,
					"id" : "obj-12",
					"numoutlets" : 2,
					"outlettype" : [ "signal", "int" ],
					"stripecolor" : [ 0.67451, 0.062745, 0.062745, 0.756863 ],
					"presentation_rect" : [ 483.900024, 36.099998, 110.0, 222.0 ],
					"numinlets" : 2
				}

			}
, 			{
				"box" : 				{
					"maxclass" : "flonum",
					"patching_rect" : [ 89.209991, 536.369995, 37.0, 20.0 ],
					"presentation" : 1,
					"id" : "obj-18",
					"numoutlets" : 2,
					"triangle" : 0,
					"fontname" : "Arial",
					"outlettype" : [ "float", "bang" ],
					"cantchange" : 1,
					"presentation_rect" : [ 43.0, 285.0, 40.0, 20.0 ],
					"fontsize" : 12.0,
					"numinlets" : 1
				}

			}
, 			{
				"box" : 				{
					"maxclass" : "toggle",
					"patching_rect" : [ 158.0, 22.0, 20.0, 20.0 ],
					"id" : "obj-13",
					"numoutlets" : 1,
					"outlettype" : [ "int" ],
					"numinlets" : 1
				}

			}
, 			{
				"box" : 				{
					"maxclass" : "newobj",
					"text" : "qmetro 5",
					"patching_rect" : [ 148.0, 55.0, 58.0, 20.0 ],
					"id" : "obj-11",
					"numoutlets" : 1,
					"fontname" : "Arial",
					"outlettype" : [ "bang" ],
					"fontsize" : 12.0,
					"numinlets" : 2
				}

			}
, 			{
				"box" : 				{
					"maxclass" : "message",
					"text" : "open",
					"patching_rect" : [ 237.0, 54.0, 37.0, 18.0 ],
					"id" : "obj-10",
					"numoutlets" : 1,
					"fontname" : "Arial",
					"outlettype" : [ "" ],
					"fontsize" : 12.0,
					"numinlets" : 2
				}

			}
, 			{
				"box" : 				{
					"maxclass" : "newobj",
					"text" : "route 0 1 2 3 4 5 6 7",
					"patching_rect" : [ 134.0, 393.0, 841.0, 17.0 ],
					"id" : "obj-4",
					"numoutlets" : 9,
					"fontname" : "Arial",
					"outlettype" : [ "", "", "", "", "", "", "", "", "" ],
					"fontsize" : 9.0,
					"numinlets" : 1
				}

			}
, 			{
				"box" : 				{
					"maxclass" : "button",
					"patching_rect" : [ 120.0, 61.0, 15.0, 15.0 ],
					"id" : "obj-6",
					"numoutlets" : 1,
					"outlettype" : [ "bang" ],
					"numinlets" : 1
				}

			}
, 			{
				"box" : 				{
					"maxclass" : "jsui",
					"patching_rect" : [ 92.0, 140.0, 444.0, 222.0 ],
					"jsarguments" : [  ],
					"presentation" : 1,
					"id" : "obj-7",
					"filename" : "harp02.js",
					"numoutlets" : 1,
					"outlettype" : [ "" ],
					"presentation_rect" : [ 37.0, 37.0, 444.0, 222.0 ],
					"numinlets" : 1
				}

			}
 ],
		"lines" : [ 			{
				"patchline" : 				{
					"source" : [ "obj-101", 0 ],
					"destination" : [ "obj-100", 0 ],
					"hidden" : 0,
					"midpoints" : [  ]
				}

			}
, 			{
				"patchline" : 				{
					"source" : [ "obj-100", 0 ],
					"destination" : [ "obj-104", 0 ],
					"hidden" : 0,
					"midpoints" : [  ]
				}

			}
, 			{
				"patchline" : 				{
					"source" : [ "obj-113", 0 ],
					"destination" : [ "obj-100", 0 ],
					"hidden" : 0,
					"midpoints" : [  ]
				}

			}
, 			{
				"patchline" : 				{
					"source" : [ "obj-109", 1 ],
					"destination" : [ "obj-100", 4 ],
					"hidden" : 0,
					"midpoints" : [  ]
				}

			}
, 			{
				"patchline" : 				{
					"source" : [ "obj-103", 0 ],
					"destination" : [ "obj-101", 0 ],
					"hidden" : 0,
					"midpoints" : [  ]
				}

			}
, 			{
				"patchline" : 				{
					"source" : [ "obj-104", 0 ],
					"destination" : [ "obj-105", 0 ],
					"hidden" : 0,
					"midpoints" : [  ]
				}

			}
, 			{
				"patchline" : 				{
					"source" : [ "obj-109", 0 ],
					"destination" : [ "obj-113", 0 ],
					"hidden" : 0,
					"midpoints" : [  ]
				}

			}
, 			{
				"patchline" : 				{
					"source" : [ "obj-21", 0 ],
					"destination" : [ "obj-16", 0 ],
					"hidden" : 0,
					"midpoints" : [  ]
				}

			}
, 			{
				"patchline" : 				{
					"source" : [ "obj-4", 7 ],
					"destination" : [ "obj-16", 1 ],
					"hidden" : 0,
					"midpoints" : [  ]
				}

			}
, 			{
				"patchline" : 				{
					"source" : [ "obj-16", 0 ],
					"destination" : [ "obj-12", 0 ],
					"hidden" : 0,
					"midpoints" : [  ]
				}

			}
, 			{
				"patchline" : 				{
					"source" : [ "obj-16", 1 ],
					"destination" : [ "obj-20", 0 ],
					"hidden" : 0,
					"midpoints" : [  ]
				}

			}
, 			{
				"patchline" : 				{
					"source" : [ "obj-22", 0 ],
					"destination" : [ "obj-17", 0 ],
					"hidden" : 0,
					"midpoints" : [  ]
				}

			}
, 			{
				"patchline" : 				{
					"source" : [ "obj-4", 6 ],
					"destination" : [ "obj-17", 1 ],
					"hidden" : 0,
					"midpoints" : [  ]
				}

			}
, 			{
				"patchline" : 				{
					"source" : [ "obj-17", 0 ],
					"destination" : [ "obj-12", 0 ],
					"hidden" : 0,
					"midpoints" : [  ]
				}

			}
, 			{
				"patchline" : 				{
					"source" : [ "obj-17", 1 ],
					"destination" : [ "obj-15", 0 ],
					"hidden" : 0,
					"midpoints" : [  ]
				}

			}
, 			{
				"patchline" : 				{
					"source" : [ "obj-23", 0 ],
					"destination" : [ "obj-3", 0 ],
					"hidden" : 0,
					"midpoints" : [  ]
				}

			}
, 			{
				"patchline" : 				{
					"source" : [ "obj-4", 5 ],
					"destination" : [ "obj-3", 1 ],
					"hidden" : 0,
					"midpoints" : [  ]
				}

			}
, 			{
				"patchline" : 				{
					"source" : [ "obj-3", 0 ],
					"destination" : [ "obj-12", 0 ],
					"hidden" : 0,
					"midpoints" : [  ]
				}

			}
, 			{
				"patchline" : 				{
					"source" : [ "obj-3", 1 ],
					"destination" : [ "obj-14", 0 ],
					"hidden" : 0,
					"midpoints" : [  ]
				}

			}
, 			{
				"patchline" : 				{
					"source" : [ "obj-24", 0 ],
					"destination" : [ "obj-5", 0 ],
					"hidden" : 0,
					"midpoints" : [  ]
				}

			}
, 			{
				"patchline" : 				{
					"source" : [ "obj-4", 4 ],
					"destination" : [ "obj-5", 1 ],
					"hidden" : 0,
					"midpoints" : [  ]
				}

			}
, 			{
				"patchline" : 				{
					"source" : [ "obj-5", 0 ],
					"destination" : [ "obj-12", 0 ],
					"hidden" : 0,
					"midpoints" : [  ]
				}

			}
, 			{
				"patchline" : 				{
					"source" : [ "obj-5", 1 ],
					"destination" : [ "obj-2", 0 ],
					"hidden" : 0,
					"midpoints" : [  ]
				}

			}
, 			{
				"patchline" : 				{
					"source" : [ "obj-4", 3 ],
					"destination" : [ "obj-58", 1 ],
					"hidden" : 0,
					"midpoints" : [  ]
				}

			}
, 			{
				"patchline" : 				{
					"source" : [ "obj-58", 0 ],
					"destination" : [ "obj-12", 0 ],
					"hidden" : 0,
					"midpoints" : [  ]
				}

			}
, 			{
				"patchline" : 				{
					"source" : [ "obj-63", 0 ],
					"destination" : [ "obj-58", 0 ],
					"hidden" : 0,
					"midpoints" : [  ]
				}

			}
, 			{
				"patchline" : 				{
					"source" : [ "obj-58", 1 ],
					"destination" : [ "obj-60", 0 ],
					"hidden" : 0,
					"midpoints" : [  ]
				}

			}
, 			{
				"patchline" : 				{
					"source" : [ "obj-4", 2 ],
					"destination" : [ "obj-59", 1 ],
					"hidden" : 0,
					"midpoints" : [  ]
				}

			}
, 			{
				"patchline" : 				{
					"source" : [ "obj-59", 0 ],
					"destination" : [ "obj-12", 0 ],
					"hidden" : 0,
					"midpoints" : [  ]
				}

			}
, 			{
				"patchline" : 				{
					"source" : [ "obj-59", 1 ],
					"destination" : [ "obj-62", 0 ],
					"hidden" : 0,
					"midpoints" : [  ]
				}

			}
, 			{
				"patchline" : 				{
					"source" : [ "obj-27", 0 ],
					"destination" : [ "obj-59", 0 ],
					"hidden" : 0,
					"midpoints" : [  ]
				}

			}
, 			{
				"patchline" : 				{
					"source" : [ "obj-4", 1 ],
					"destination" : [ "obj-57", 1 ],
					"hidden" : 0,
					"midpoints" : [  ]
				}

			}
, 			{
				"patchline" : 				{
					"source" : [ "obj-1", 0 ],
					"destination" : [ "obj-57", 0 ],
					"hidden" : 0,
					"midpoints" : [  ]
				}

			}
, 			{
				"patchline" : 				{
					"source" : [ "obj-57", 1 ],
					"destination" : [ "obj-19", 0 ],
					"hidden" : 0,
					"midpoints" : [  ]
				}

			}
, 			{
				"patchline" : 				{
					"source" : [ "obj-57", 0 ],
					"destination" : [ "obj-12", 0 ],
					"hidden" : 0,
					"midpoints" : [  ]
				}

			}
, 			{
				"patchline" : 				{
					"source" : [ "obj-4", 0 ],
					"destination" : [ "obj-53", 1 ],
					"hidden" : 0,
					"midpoints" : [  ]
				}

			}
, 			{
				"patchline" : 				{
					"source" : [ "obj-30", 0 ],
					"destination" : [ "obj-53", 0 ],
					"hidden" : 0,
					"midpoints" : [  ]
				}

			}
, 			{
				"patchline" : 				{
					"source" : [ "obj-53", 1 ],
					"destination" : [ "obj-18", 0 ],
					"hidden" : 0,
					"midpoints" : [  ]
				}

			}
, 			{
				"patchline" : 				{
					"source" : [ "obj-53", 0 ],
					"destination" : [ "obj-12", 0 ],
					"hidden" : 0,
					"midpoints" : [  ]
				}

			}
, 			{
				"patchline" : 				{
					"source" : [ "obj-28", 7 ],
					"destination" : [ "obj-21", 0 ],
					"hidden" : 0,
					"midpoints" : [  ]
				}

			}
, 			{
				"patchline" : 				{
					"source" : [ "obj-28", 6 ],
					"destination" : [ "obj-22", 0 ],
					"hidden" : 0,
					"midpoints" : [  ]
				}

			}
, 			{
				"patchline" : 				{
					"source" : [ "obj-28", 5 ],
					"destination" : [ "obj-23", 0 ],
					"hidden" : 0,
					"midpoints" : [  ]
				}

			}
, 			{
				"patchline" : 				{
					"source" : [ "obj-28", 4 ],
					"destination" : [ "obj-24", 0 ],
					"hidden" : 0,
					"midpoints" : [  ]
				}

			}
, 			{
				"patchline" : 				{
					"source" : [ "obj-28", 3 ],
					"destination" : [ "obj-63", 0 ],
					"hidden" : 0,
					"midpoints" : [  ]
				}

			}
, 			{
				"patchline" : 				{
					"source" : [ "obj-28", 2 ],
					"destination" : [ "obj-27", 0 ],
					"hidden" : 0,
					"midpoints" : [  ]
				}

			}
, 			{
				"patchline" : 				{
					"source" : [ "obj-28", 1 ],
					"destination" : [ "obj-1", 0 ],
					"hidden" : 0,
					"midpoints" : [  ]
				}

			}
, 			{
				"patchline" : 				{
					"source" : [ "obj-28", 0 ],
					"destination" : [ "obj-30", 0 ],
					"hidden" : 0,
					"midpoints" : [  ]
				}

			}
, 			{
				"patchline" : 				{
					"source" : [ "obj-26", 0 ],
					"destination" : [ "obj-28", 0 ],
					"hidden" : 0,
					"midpoints" : [  ]
				}

			}
, 			{
				"patchline" : 				{
					"source" : [ "obj-29", 0 ],
					"destination" : [ "obj-26", 0 ],
					"hidden" : 0,
					"midpoints" : [  ]
				}

			}
, 			{
				"patchline" : 				{
					"source" : [ "obj-25", 0 ],
					"destination" : [ "obj-13", 0 ],
					"hidden" : 0,
					"midpoints" : [  ]
				}

			}
, 			{
				"patchline" : 				{
					"source" : [ "obj-21", 0 ],
					"destination" : [ "obj-34", 7 ],
					"hidden" : 0,
					"midpoints" : [  ]
				}

			}
, 			{
				"patchline" : 				{
					"source" : [ "obj-22", 0 ],
					"destination" : [ "obj-34", 6 ],
					"hidden" : 0,
					"midpoints" : [  ]
				}

			}
, 			{
				"patchline" : 				{
					"source" : [ "obj-23", 0 ],
					"destination" : [ "obj-34", 5 ],
					"hidden" : 0,
					"midpoints" : [  ]
				}

			}
, 			{
				"patchline" : 				{
					"source" : [ "obj-24", 0 ],
					"destination" : [ "obj-34", 4 ],
					"hidden" : 0,
					"midpoints" : [  ]
				}

			}
, 			{
				"patchline" : 				{
					"source" : [ "obj-7", 0 ],
					"destination" : [ "obj-4", 0 ],
					"hidden" : 0,
					"midpoints" : [  ]
				}

			}
, 			{
				"patchline" : 				{
					"source" : [ "obj-30", 0 ],
					"destination" : [ "obj-34", 0 ],
					"hidden" : 0,
					"midpoints" : [  ]
				}

			}
, 			{
				"patchline" : 				{
					"source" : [ "obj-34", 0 ],
					"destination" : [ "obj-7", 0 ],
					"hidden" : 0,
					"midpoints" : [  ]
				}

			}
, 			{
				"patchline" : 				{
					"source" : [ "obj-8", 0 ],
					"destination" : [ "obj-9", 0 ],
					"hidden" : 0,
					"midpoints" : [  ]
				}

			}
, 			{
				"patchline" : 				{
					"source" : [ "obj-6", 0 ],
					"destination" : [ "obj-7", 0 ],
					"hidden" : 0,
					"midpoints" : [  ]
				}

			}
, 			{
				"patchline" : 				{
					"source" : [ "obj-10", 0 ],
					"destination" : [ "obj-7", 0 ],
					"hidden" : 0,
					"midpoints" : [  ]
				}

			}
, 			{
				"patchline" : 				{
					"source" : [ "obj-11", 0 ],
					"destination" : [ "obj-7", 0 ],
					"hidden" : 0,
					"midpoints" : [  ]
				}

			}
, 			{
				"patchline" : 				{
					"source" : [ "obj-13", 0 ],
					"destination" : [ "obj-11", 0 ],
					"hidden" : 0,
					"midpoints" : [  ]
				}

			}
, 			{
				"patchline" : 				{
					"source" : [ "obj-1", 0 ],
					"destination" : [ "obj-34", 1 ],
					"hidden" : 0,
					"midpoints" : [  ]
				}

			}
, 			{
				"patchline" : 				{
					"source" : [ "obj-27", 0 ],
					"destination" : [ "obj-34", 2 ],
					"hidden" : 0,
					"midpoints" : [  ]
				}

			}
, 			{
				"patchline" : 				{
					"source" : [ "obj-12", 0 ],
					"destination" : [ "obj-9", 1 ],
					"hidden" : 0,
					"midpoints" : [  ]
				}

			}
, 			{
				"patchline" : 				{
					"source" : [ "obj-12", 0 ],
					"destination" : [ "obj-9", 0 ],
					"hidden" : 0,
					"midpoints" : [  ]
				}

			}
, 			{
				"patchline" : 				{
					"source" : [ "obj-63", 0 ],
					"destination" : [ "obj-34", 3 ],
					"hidden" : 0,
					"midpoints" : [  ]
				}

			}
, 			{
				"patchline" : 				{
					"source" : [ "obj-41", 0 ],
					"destination" : [ "obj-103", 0 ],
					"hidden" : 0,
					"midpoints" : [  ]
				}

			}
 ]
	}

}
