max v2;#N vpatcher 34 44 1234 850;#P origin 20 -159;#P user ubutton 956 615 219 14 0 0;#P window setfont "Sans Serif" 9.;#P window linecount 2;#P hidden message 862 634 311 196617 \; max launch_browser http://crca.ucsd.edu/~msp/pdrp/latest/doc;#P window linecount 1;#P comment 956 615 212 196617 http://crca.ucsd.edu/~msp/pdrp/latest/doc;#B color 3;#P window linecount 4;#P comment 958 556 198 196617 The original Pd patch is named "wavepacket.pd" and was found in the "Philippe Manoury" \, "Jupiter section of the PD" Repertory Project:;#P window linecount 3;#P comment 960 515 198 196617 This was originally written in pd by Miller Puckette \, then ported to MSP by Ali Momeni with a little help from Matt Wright;#P window setfont "Sans Serif" 10.;#P window linecount 1;#P newex 960 492 62 196618 uc_license;#P newex 84 354 50 196618 phasor~;#P window setfont "Sans Serif" 9.;#P newex 380 156 41 196617 *~ 1.6;#P window setfont "Sans Serif" 10.;#P newex 664 490 155 196618 biquad~ 1. -1. 0. -0.9997 0.;#P outlet 787 744 15 0;#P window setfont "Sans Serif" 9.;#P flonum 870 420 35 9 0 0 0 3 0 0 0 221 221 221 222 222 222 0 0 0;#N vpatcher 0 44 600 444;#P window setfont "Sans Serif" 9.;#P newex 144 189 31 196617 mtof;#P newex 144 168 33 196617 - 12.;#P newex 144 146 31 196617 ftom;#P newex 50 64 76 196617 route list float;#P newex 50 208 66 196617 pack 1. 100.;#P newex 50 124 76 196617 unpack 1. 100.;#P newex 50 187 31 196617 mtof;#P newex 50 166 33 196617 - 12.;#P newex 50 144 31 196617 ftom;#P inlet 50 30 15 0;#P outlet 50 288 15 0;#P connect 1 0 7 0;#P connect 7 0 5 0;#P connect 5 0 2 0;#P connect 2 0 3 0;#P connect 3 0 4 0;#P connect 4 0 6 0;#P connect 6 0 0 0;#P connect 10 0 0 0;#P connect 5 1 6 1;#P connect 7 1 8 0;#P connect 8 0 9 0;#P connect 9 0 10 0;#P pop;#P newobj 92 65 70 196617 p list or float;#P window setfont "Sans Serif" 10.;#P newex 194 166 42 196618 cycle~;#P button 619 428 15 0;#P newex 502 94 65 196618 pack 1. 30.;#P window setfont "Sans Serif" 9.;#N vpatcher 134 367 734 767;#P window setfont "Sans Serif" 9.;#P newex 173 217 31 196617 cos~;#P newex 128 289 27 196617 +~;#P outlet 132 320 15 0;#P newex 213 123 57 196617 phasor~;#P newex 59 289 27 196617 -~;#P newex 109 252 35 196617 *~;#P newex 59 252 35 196617 *~;#P newex 107 182 31 196617 cos~;#P comment 181 72 109 196617 frequency of shift;#P comment 89 70 64 196617 imaginary;#P comment 52 71 33 196617 real;#P newex 178 182 44 196617 +~ 0.25;#P comment 157 312 171 196617 frequency shifted signal;#P comment 50 50 114 196617 signal to modulate;#P inlet 11 144 15 0;#P inlet 61 144 15 0;#P inlet 213 103 15 0;#P outlet 59 320 15 0;#P connect 3 0 11 0;#P connect 11 0 13 0;#P connect 13 0 0 0;#P connect 12 0 13 1;#P connect 10 0 11 1;#P connect 14 0 10 0;#P connect 2 0 12 0;#P connect 11 0 16 0;#P connect 16 0 15 0;#P connect 17 0 12 1;#P connect 12 0 16 1;#P connect 6 0 17 0;#P connect 14 0 6 0;#P connect 1 0 14 0;#P pop;#P newobj 663 560 84 196617 p complex-mod~;#P window setfont "Sans Serif" 10.;#P newex 260 214 41 196618 sig~ 1;#P inlet 223 0 15 0;#P outlet 358 764 15 0;#P newex 267 118 36 196618 line~;#P newex 347 113 36 196618 line~;#P newex 183 118 36 196618 line~;#P window setfont "Sans Serif" 9.;#P newex 223 36 407 196617 route freq vfr vib bw amp cf shift phase cfgliss;#P window setfont "Sans Serif" 10.;#P newex 168 552 27 196618 *~;#P newex 168 602 32 196618 cos~;#P newex 266 358 27 196618 *~;#P newex 326 323 27 196618 *~;#P comment 367 347 116 196618 divide by fundamental;#P newex 84 379 62 196618 clip~ 0. 1.;#P newex 448 414 45 196618 +~ 0.5;#P newex 448 439 40 196618 %~ 1.;#P comment 439 392 103 196618 second phase signal;#P newex 168 638 35 196618 +~ 1;#P newex 73 459 44 196618 -~ 0.5;#P newex 140 694 27 196618 +~;#P newex 53 556 27 196618 *~;#P newex 53 599 32 196618 cos~;#P window setfont "Sans Serif" 9.;#N vpatcher 0 44 600 444;#P inlet 144 38 15 0;#P window setfont "Sans Serif" 9.;#P newex 188 50 48 196617 loadbang;#P newex 89 88 40 196617 *~ -1.;#P message 185 95 17 196617 0.;#P newex 88 58 38 196617 delta~;#P newex 50 142 31 196617 sah~;#P inlet 88 38 15 0;#P inlet 50 122 15 0;#P outlet 50 164 15 0;#P connect 5 0 3 0;#P connect 1 0 3 0;#P connect 3 0 0 0;#P connect 8 0 3 1;#P connect 6 0 3 1;#P connect 2 0 4 0;#P connect 4 0 6 0;#P connect 7 0 5 0;#P pop;#P newobj 188 525 65 196617 p samphold~;#N vpatcher 0 44 600 444;#P inlet 144 38 15 0;#P window setfont "Sans Serif" 9.;#P newex 188 50 48 196617 loadbang;#P newex 89 88 40 196617 *~ -1.;#P message 185 95 17 196617 0.;#P newex 88 58 38 196617 delta~;#P newex 50 142 31 196617 sah~;#P inlet 88 38 15 0;#P inlet 50 122 15 0;#P outlet 50 164 15 0;#P connect 5 0 3 0;#P connect 1 0 3 0;#P connect 3 0 0 0;#P connect 8 0 3 1;#P connect 6 0 3 1;#P connect 2 0 4 0;#P connect 4 0 6 0;#P connect 7 0 5 0;#P pop;#P newobj 117 511 65 196617 p samphold~;#P window setfont "Sans Serif" 10.;#P newex 53 647 27 196618 *~;#P newex 168 577 83 196618 clip~ -0.5 0.5;#P newex 339 573 27 196618 *~;#P newex 339 636 32 196618 cos~;#P newex 339 657 35 196618 +~ 1;#P newex 285 460 44 196618 -~ 0.5;#P newex 286 573 27 196618 *~;#P newex 286 615 32 196618 cos~;#P window setfont "Sans Serif" 9.;#N vpatcher 0 44 600 444;#P inlet 144 38 15 0;#P window setfont "Sans Serif" 9.;#P newex 188 50 48 196617 loadbang;#P newex 89 88 40 196617 *~ -1.;#P message 185 95 17 196617 0.;#P newex 88 58 38 196617 delta~;#P newex 50 142 31 196617 sah~;#P inlet 88 38 15 0;#P inlet 50 122 15 0;#P outlet 50 164 15 0;#P connect 1 0 3 0;#P connect 5 0 3 0;#P connect 3 0 0 0;#P connect 6 0 3 1;#P connect 8 0 3 1;#P connect 2 0 4 0;#P connect 4 0 6 0;#P connect 7 0 5 0;#P pop;#P newobj 418 528 65 196617 p samphold~;#N vpatcher 0 44 600 444;#P inlet 144 38 15 0;#P window setfont "Sans Serif" 9.;#P newex 188 50 48 196617 loadbang;#P newex 89 88 40 196617 *~ -1.;#P message 185 95 17 196617 0.;#P newex 88 58 38 196617 delta~;#P newex 50 142 31 196617 sah~;#P inlet 88 38 15 0;#P inlet 50 122 15 0;#P outlet 50 164 15 0;#P connect 5 0 3 0;#P connect 1 0 3 0;#P connect 3 0 0 0;#P connect 8 0 3 1;#P connect 6 0 3 1;#P connect 2 0 4 0;#P connect 4 0 6 0;#P connect 7 0 5 0;#P pop;#P newobj 347 528 65 196617 p samphold~;#P window setfont "Sans Serif" 10.;#P newex 286 636 27 196618 *~;#P newex 339 615 83 196618 clip~ -0.5 0.5;#P newex 337 371 75 196618 maximum~ 1;#P newex 97 118 36 196618 line~;#P newex 201 242 27 196618 +~;#P newex 162 264 27 196618 *~;#P newex 201 207 27 196618 *~;#P newex 226 302 27 196618 /~;#P newex 718 212 22 196618 t 0;#P newex 570 151 36 196618 line~;#P newex 652 378 36 196618 line~;#P newex 718 183 49 196618 route 0.;#P newex 674 183 30 196618 t b f;#P newex 651 333 55 196618 pack 0. 0;#P newex 607 293 56 196618 route 0 1;#P newex 607 270 55 196618 pack 0 0.;#P newex 607 246 27 196618 > 0.;#P newex 607 224 59 196618 snapshot~;#P message 544 485 90 196618 -1000099968.;#P newex 733 332 56 196618 line 0 30;#P newex 537 442 27 196618 *~;#P comment 260 14 374 196618 hack to allow glissandi which aren't implemented in the controller window.;#P newex 570 128 150 196618 linedrive 154 0.02 1.06 30;#P newex 770 471 36 196618 line~;#P newex 856 474 27 196618 > 0.;#P newex 856 507 59 196618 pack 0 10;#P newex 856 531 36 196618 line~;#P newex 616 621 27 196618 -~;#P newex 636 649 27 196618 *~;#P newex 588 723 27 196618 +~;#P newex 742 420 25 196618 t 0.;#P newex 742 396 49 196618 route 0.;#P newex 920 375 32 196618 mtof;#P newex 920 344 37 196618 - 60.;#P newex 807 366 19 196618 t f;#P newex 69 169 123 196618 nothing osc2~ vib1.snd;#P window setfont "Sans Serif" 9.;#P window linecount 3;#P comment 960 449 131 196617 freepaf~ version 1. by Miller Puckette \, Ali Momeni \, and Matt Wright;#P connect 52 0 50 0;#P connect 50 0 49 0;#P connect 49 0 46 0;#P connect 47 0 50 1;#P connect 53 0 46 1;#P connect 57 0 52 0;#P connect 31 0 79 0;#P connect 79 0 57 0;#P connect 63 0 74 0;#P connect 74 0 33 0;#P connect 60 0 47 0;#P connect 46 0 51 0;#P connect 57 0 47 1;#P connect 36 0 51 1;#P connect 33 0 31 0;#P connect 52 0 62 0;#P connect 62 0 45 0;#P connect 45 0 61 0;#P connect 61 0 53 0;#P connect 18 0 47 2;#P connect 32 0 31 1;#P connect 63 1 64 0;#P connect 48 0 62 1;#P connect 34 0 48 0;#P connect 64 0 73 0;#P connect 73 0 30 0;#P connect 30 0 32 0;#P connect 57 0 48 1;#P connect 66 0 30 1;#P connect 69 0 32 1;#P connect 68 0 63 0;#P connect 69 0 29 0;#P connect 18 0 48 2;#P connect 31 0 29 1;#P connect 26 0 60 0;#P connect 63 2 66 0;#P connect 29 0 60 1;#P connect 55 0 41 0;#P connect 41 0 40 0;#P connect 40 0 39 0;#P connect 39 0 36 0;#P connect 37 0 40 1;#P connect 42 0 36 1;#P connect 78 0 59 0;#P connect 59 0 34 0;#P connect 41 0 44 0;#P connect 44 0 35 0;#P connect 35 0 43 0;#P connect 43 0 42 0;#P connect 29 0 59 1;#P connect 63 3 65 0;#P connect 60 0 37 0;#P connect 38 0 44 1;#P connect 7 0 67 0;#P connect 55 0 37 1;#P connect 65 0 78 0;#P connect 18 0 37 2;#P connect 34 0 38 0;#P connect 55 0 38 1;#P connect 57 0 56 0;#P connect 56 0 55 0;#P connect 18 0 38 2;#P connect 63 4 71 0;#P fasten 51 0 16 0 393 757;#P connect 27 0 16 1;#P connect 71 0 27 0;#P connect 14 0 27 0;#P connect 16 0 7 0;#P connect 8 0 7 1;#P connect 27 0 19 0;#P connect 24 0 19 0;#P connect 19 0 20 0;#P connect 20 0 21 0;#P connect 21 0 22 0;#P connect 70 0 9 0;#P connect 22 0 72 0;#P connect 16 0 9 1;#P connect 9 0 8 0;#P connect 22 1 23 0;#P connect 28 0 21 1;#P fasten 25 1 21 1 777 226;#P connect 22 0 26 0;#P connect 23 0 26 0;#P connect 10 0 8 1;#P connect 77 0 70 0;#P connect 16 0 77 0;#P fasten 63 5 24 0 742 113;#P connect 17 0 23 1;#P connect 24 1 25 0;#P connect 25 0 28 0;#P fasten 63 7 17 0 817 93 890 206;#P connect 13 0 70 2;#P connect 2 0 5 0;#P connect 5 0 6 0;#P connect 6 0 13 0;#P connect 4 0 13 0;#P connect 70 0 76 0;#P fasten 63 6 2 0 792 103 928 300;#P connect 2 0 12 0;#P connect 12 0 11 0;#P connect 11 0 10 0;#P hidden connect 85 1 84 0;#P connect 2 0 75 0;#P connect 5 1 3 0;#P connect 3 0 4 0;#P pop;