max v2;#N vpatcher 77 44 1035 851;#P origin 22 -9;#P window setfont "Sans Serif" 9.;#P window linecount 1;#P hidden newex 546 60 106 196617 bgcolor 223 238 255;#P bpatcher 24 3 511 76 -18 -68 banner.pat 0 multibuf "this abstraction helps you read sound files into buffer~'s";#P newex 107 662 67 196617 s build-menu;#P comment 205 684 99 196617 clear menu of items;#P message 190 753 114 196617 burning.aif;#P newex 190 731 60 196617 prepend set;#P comment 205 706 275 196617 use "dump" to store current contents of multibuf in a menu;#P message 171 684 33 196617 clear;#P newex 100 641 63 196617 prepend add;#P user umenu 100 705 100 196647 1 192 721 1;#X add bass.aif;#X add bird.aif;#X add burning.aif;#X add gbell.aif;#X add gsax.aif;#X add knock.aif;#X add kyorei.aiff;#X add moanin.aiff;#X add saxcry.aif;#X add shafqat.aif;#X add sss.aiff;#X add thatfile.aif;#X add thisfile.aif;#X add triangle1.aif;#X add some file.aiff;#P bpatcher 561 656 319 90 0 0 badge.pat 4 multibuf.help 1.4b "Momeni Wright and Zbyszynski" multibuf 2813;#P comment 746 122 105 196617 drop folders here.;#P user dropfile 731 101 860 159 0;#P user panel 732 101 128 59;#X brgb 255 252 75;#X frgb 255 255 255;#X border 1;#X rounded 0;#X shadow 0;#X done;#P comment 746 121 105 196617 drop folders here.;#P newex 732 164 80 196617 prepend /folder;#P user dropfile 732 100 861 158 0;#P user panel 732 100 128 59;#X brgb 191 191 191;#X frgb 255 255 255;#X border 1;#X rounded 0;#X shadow 0;#X done;#P comment 613 122 105 196617 drop sound files here.;#P newex 599 164 68 196617 prepend /file;#P comment 182 569 205 196617 bang when a buffer sucessfully reads a file.;#P button 135 590 15 0;#P newex 135 568 45 196617 sel bang;#P comment 312 221 289 196617 ...........................................load one file (spaces in name);#P message 207 220 103 196617 /file "some file.aiff";#B color 9;#P toggle 207 383 15 0;#P message 207 409 53 196617 /mono \$1;#B color 9;#P comment 332 282 427 196617 .....................................load a bunch of bunches of files itemised in a collection of collections;#P message 207 280 123 196617 /multicoll my-collections;#B color 9;#P newex 117 610 30 196617 print;#P message 207 447 31 196617 dump;#B color 9;#P message 170 619 468 196617 Berg:/Users/mzed/trunk/max/patches/MMJ-DEPOT/CNMAT_MMJ-Depot/baseline/media/bird.aif;#P newex 170 597 60 196617 prepend set;#P comment 364 351 460 196617 ...........................optional second arguement indicates file types \;;#P message 207 350 155 196617 /folder ./samples/uglyay MPG3;#B color 9;#P comment 333 328 490 196617 .....................................you may provide a relative path (starting in the max folder) by starting with a ".";#P comment 391 306 346 196617 .................load all files in a particular folder by providing the folder's path;#P message 207 305 185 196617 /folder Macintosh HD:samples/prettay;#B color 9;#N coll my-samples;#T flags 1 0;#T 1 this-sample.aiff;#T 2 "that sample.aiff";#P newobj 647 251 82 196617 coll my-samples;#P comment 296 254 349 196617 .................................................load a bunch of files itemised in a collection;#P message 207 253 88 196617 /coll my-samples;#B color 9;#P message 207 185 82 196617 /file thatfile.aif;#B color 9;#P window linecount 3;#P comment 43 99 472 196617 ¥ use quotes for file or folder names with spaces \; ¥ samples MUST be in max's search path \; ¥ you can give the same instance of multibuf more than one message.;#P window linecount 1;#P message 207 155 35 196617 /clear;#B color 9;#P message 207 327 125 196617 /folder ./samples/uglyay;#B color 9;#P toggle 134 526 15 0;#P newex 100 547 45 196617 multibuf;#B color 5;#P comment 151 526 352 196617 verbose mode: prints filenames to the max window as they're getting loaded;#P comment 243 156 288 196617 ...................................................................delete all buffers;#P comment 308 186 289 196617 .............................................load one file (no spaces in name);#P comment 237 601 152 196617 name of each file read;#P comment 5 549 94 196617 double-click on me!;#P window setfont "Sans Serif" 12.;#P comment 25 80 111 196620 important notes:;#P window setfont "Sans Serif" 9.;#P comment 261 411 538 196617 ..............................................................toggles loading all channels of a sound file \, or just the first;#P comment 445 365 145 196617 only those types will be loaded;#P user dropfile 599 101 728 159 0;#P user panel 598 101 128 59;#X brgb 191 202 255;#X frgb 255 255 255;#X border 1;#X rounded 0;#X shadow 0;#X done;#P window linecount 3;#P comment 444 475 452 196617 Each line of the collection says: buffer-n \, filename \; where 'n' is an integer incremented by one with each loaded buffer \; note: each buffer~ object is named so that you can send it messages using 'script send buffer-n';#P window linecount 1;#P comment 239 448 626 196617 ....................................................................multibuf stores all the names of the loaded buffers internally in a collection.;#P comment 239 447 626 196617 ....................................................................multibuf stores all the names of the loaded buffers internally in a collection.;#P fasten 44 0 13 0 737 207 105 207;#P fasten 35 0 13 0 212 239 105 239;#P fasten 40 0 13 0 604 207 105 207;#P fasten 15 0 13 0 212 344 105 344;#P fasten 16 0 13 0 212 175 105 175;#P fasten 18 0 13 0 212 207 105 207;#P fasten 19 0 13 0 212 272 105 272;#P fasten 22 0 13 0 212 321 105 321;#P fasten 25 0 13 0 212 376 105 376;#P fasten 31 0 13 0 212 299 105 299;#P fasten 33 0 13 0 212 428 105 428;#P connect 13 0 51 0;#P connect 52 0 50 0;#P connect 51 0 50 0;#P connect 51 0 57 0;#P fasten 29 0 13 1 212 508 122 508;#P connect 13 0 30 0;#P connect 14 0 13 2;#P connect 13 1 37 0;#P connect 37 0 38 0;#P connect 37 1 27 0;#P connect 27 0 28 0;#P connect 50 1 54 0;#P connect 54 0 55 0;#P connect 34 0 33 0;#P connect 4 0 40 0;#P connect 43 0 44 0;#P pop;