{
	"patcher" : 	{
		"fileversion" : 1,
		"rect" : [ 60.0, 68.0, 666.0, 405.0 ],
		"bglocked" : 0,
		"defrect" : [ 60.0, 68.0, 666.0, 405.0 ],
		"openrect" : [ 0.0, 0.0, 0.0, 0.0 ],
		"openinpresentation" : 0,
		"default_fontsize" : 10.0,
		"default_fontface" : 0,
		"default_fontname" : "Arial",
		"gridonopen" : 0,
		"gridsize" : [ 4.0, 4.0 ],
		"gridsnaponopen" : 0,
		"toolbarvisible" : 1,
		"boxanimatetime" : 200,
		"imprint" : 0,
		"enablehscroll" : 1,
		"enablevscroll" : 1,
		"devicewidth" : 0.0,
		"boxes" : [ 			{
				"box" : 				{
					"maxclass" : "button",
					"numoutlets" : 1,
					"outlettype" : [ "bang" ],
					"patching_rect" : [ 544.0, 304.0, 20.0, 20.0 ],
					"id" : "obj-4",
					"numinlets" : 1
				}

			}
, 			{
				"box" : 				{
					"maxclass" : "button",
					"numoutlets" : 1,
					"outlettype" : [ "bang" ],
					"patching_rect" : [ 504.0, 304.0, 20.0, 20.0 ],
					"id" : "obj-5",
					"numinlets" : 1
				}

			}
, 			{
				"box" : 				{
					"maxclass" : "button",
					"numoutlets" : 1,
					"outlettype" : [ "bang" ],
					"patching_rect" : [ 464.0, 304.0, 20.0, 20.0 ],
					"id" : "obj-7",
					"numinlets" : 1
				}

			}
, 			{
				"box" : 				{
					"maxclass" : "toggle",
					"numoutlets" : 1,
					"outlettype" : [ "int" ],
					"patching_rect" : [ 544.0, 276.0, 20.0, 20.0 ],
					"id" : "obj-8",
					"numinlets" : 1
				}

			}
, 			{
				"box" : 				{
					"maxclass" : "toggle",
					"numoutlets" : 1,
					"outlettype" : [ "int" ],
					"patching_rect" : [ 504.0, 276.0, 20.0, 20.0 ],
					"id" : "obj-9",
					"numinlets" : 1
				}

			}
, 			{
				"box" : 				{
					"maxclass" : "toggle",
					"numoutlets" : 1,
					"outlettype" : [ "int" ],
					"patching_rect" : [ 464.0, 276.0, 20.0, 20.0 ],
					"id" : "obj-10",
					"numinlets" : 1
				}

			}
, 			{
				"box" : 				{
					"maxclass" : "newobj",
					"text" : "r cue3",
					"numoutlets" : 1,
					"fontsize" : 10.0,
					"outlettype" : [ "" ],
					"patching_rect" : [ 544.0, 244.0, 38.0, 18.0 ],
					"id" : "obj-3",
					"fontname" : "Arial",
					"numinlets" : 0
				}

			}
, 			{
				"box" : 				{
					"maxclass" : "newobj",
					"text" : "r cue2",
					"numoutlets" : 1,
					"fontsize" : 10.0,
					"outlettype" : [ "" ],
					"patching_rect" : [ 504.0, 244.0, 38.0, 18.0 ],
					"id" : "obj-2",
					"fontname" : "Arial",
					"numinlets" : 0
				}

			}
, 			{
				"box" : 				{
					"maxclass" : "newobj",
					"text" : "r cue1",
					"numoutlets" : 1,
					"fontsize" : 10.0,
					"outlettype" : [ "" ],
					"patching_rect" : [ 464.0, 244.0, 38.0, 18.0 ],
					"id" : "obj-1",
					"fontname" : "Arial",
					"numinlets" : 0
				}

			}
, 			{
				"box" : 				{
					"maxclass" : "button",
					"numoutlets" : 1,
					"outlettype" : [ "bang" ],
					"patching_rect" : [ 508.0, 204.0, 20.0, 20.0 ],
					"id" : "obj-51",
					"numinlets" : 1
				}

			}
, 			{
				"box" : 				{
					"maxclass" : "button",
					"numoutlets" : 1,
					"outlettype" : [ "bang" ],
					"patching_rect" : [ 480.0, 204.0, 20.0, 20.0 ],
					"id" : "obj-50",
					"numinlets" : 1
				}

			}
, 			{
				"box" : 				{
					"maxclass" : "button",
					"numoutlets" : 1,
					"outlettype" : [ "bang" ],
					"patching_rect" : [ 452.0, 204.0, 20.0, 20.0 ],
					"id" : "obj-49",
					"numinlets" : 1
				}

			}
, 			{
				"box" : 				{
					"maxclass" : "toggle",
					"numoutlets" : 1,
					"outlettype" : [ "int" ],
					"patching_rect" : [ 508.0, 176.0, 20.0, 20.0 ],
					"id" : "obj-47",
					"numinlets" : 1
				}

			}
, 			{
				"box" : 				{
					"maxclass" : "toggle",
					"numoutlets" : 1,
					"outlettype" : [ "int" ],
					"patching_rect" : [ 480.0, 176.0, 20.0, 20.0 ],
					"id" : "obj-46",
					"numinlets" : 1
				}

			}
, 			{
				"box" : 				{
					"maxclass" : "toggle",
					"numoutlets" : 1,
					"outlettype" : [ "int" ],
					"patching_rect" : [ 452.0, 176.0, 20.0, 20.0 ],
					"id" : "obj-45",
					"numinlets" : 1
				}

			}
, 			{
				"box" : 				{
					"maxclass" : "bpatcher",
					"args" : [ 3, "my third cue" ],
					"numoutlets" : 0,
					"offset" : [ -1.0, -1.0 ],
					"patching_rect" : [ 232.0, 140.0, 106.0, 156.0 ],
					"id" : "obj-38",
					"name" : "cue_button.maxpat",
					"numinlets" : 0
				}

			}
, 			{
				"box" : 				{
					"maxclass" : "bpatcher",
					"args" : [ 2, "my second cue" ],
					"numoutlets" : 0,
					"offset" : [ -1.0, -1.0 ],
					"patching_rect" : [ 120.0, 140.0, 106.0, 156.0 ],
					"id" : "obj-37",
					"name" : "cue_button.maxpat",
					"numinlets" : 0
				}

			}
, 			{
				"box" : 				{
					"maxclass" : "newobj",
					"text" : "osc-route /1 /2 /3",
					"numoutlets" : 4,
					"fontsize" : 10.0,
					"outlettype" : [ "", "", "", "" ],
					"patching_rect" : [ 452.0, 132.0, 103.0, 18.0 ],
					"id" : "obj-24",
					"fontname" : "Arial",
					"numinlets" : 1
				}

			}
, 			{
				"box" : 				{
					"maxclass" : "newobj",
					"text" : "osc-route /cues",
					"numoutlets" : 2,
					"fontsize" : 10.0,
					"outlettype" : [ "", "" ],
					"patching_rect" : [ 452.0, 84.0, 79.0, 18.0 ],
					"id" : "obj-23",
					"fontname" : "Arial",
					"numinlets" : 1
				}

			}
, 			{
				"box" : 				{
					"maxclass" : "newobj",
					"text" : "r osc",
					"numoutlets" : 1,
					"fontsize" : 10.0,
					"outlettype" : [ "" ],
					"patching_rect" : [ 452.0, 56.0, 32.0, 18.0 ],
					"id" : "obj-22",
					"fontname" : "Arial",
					"numinlets" : 0
				}

			}
, 			{
				"box" : 				{
					"maxclass" : "comment",
					"text" : "The cue button bpatcher takes 2 arguments.\n1. the id of the cue, which is used for osc routing, and\n2. the text that describes the cue (enclosed in quotes)\n\nWhen you click on a given cue, it sets the state for all other cues to be off and it's own state to be on.",
					"linecount" : 6,
					"numoutlets" : 0,
					"fontsize" : 10.0,
					"frgb" : [ 0.0, 0.0, 0.0, 1.0 ],
					"patching_rect" : [ 12.0, 36.0, 247.0, 75.0 ],
					"id" : "obj-15",
					"fontname" : "Arial",
					"numinlets" : 1
				}

			}
, 			{
				"box" : 				{
					"maxclass" : "bpatcher",
					"args" : [ 1, "my first cue" ],
					"numoutlets" : 0,
					"offset" : [ -1.0, -1.0 ],
					"patching_rect" : [ 8.0, 140.0, 106.0, 156.0 ],
					"id" : "obj-14",
					"name" : "cue_button.maxpat",
					"numinlets" : 0
				}

			}
, 			{
				"box" : 				{
					"maxclass" : "comment",
					"text" : "CUE BUTTON",
					"numoutlets" : 0,
					"fontface" : 3,
					"fontsize" : 15.0,
					"frgb" : [ 0.0, 0.0, 0.0, 1.0 ],
					"patching_rect" : [ 12.0, 12.0, 112.0, 24.0 ],
					"id" : "obj-6",
					"fontname" : "Arial",
					"numinlets" : 1
				}

			}
 ],
		"lines" : [ 			{
				"patchline" : 				{
					"source" : [ "obj-3", 0 ],
					"destination" : [ "obj-8", 0 ],
					"hidden" : 0,
					"midpoints" : [  ]
				}

			}
, 			{
				"patchline" : 				{
					"source" : [ "obj-2", 0 ],
					"destination" : [ "obj-9", 0 ],
					"hidden" : 0,
					"midpoints" : [  ]
				}

			}
, 			{
				"patchline" : 				{
					"source" : [ "obj-1", 0 ],
					"destination" : [ "obj-10", 0 ],
					"hidden" : 0,
					"midpoints" : [  ]
				}

			}
, 			{
				"patchline" : 				{
					"source" : [ "obj-8", 0 ],
					"destination" : [ "obj-4", 0 ],
					"hidden" : 0,
					"midpoints" : [  ]
				}

			}
, 			{
				"patchline" : 				{
					"source" : [ "obj-9", 0 ],
					"destination" : [ "obj-5", 0 ],
					"hidden" : 0,
					"midpoints" : [  ]
				}

			}
, 			{
				"patchline" : 				{
					"source" : [ "obj-10", 0 ],
					"destination" : [ "obj-7", 0 ],
					"hidden" : 0,
					"midpoints" : [  ]
				}

			}
, 			{
				"patchline" : 				{
					"source" : [ "obj-23", 0 ],
					"destination" : [ "obj-24", 0 ],
					"hidden" : 0,
					"midpoints" : [  ]
				}

			}
, 			{
				"patchline" : 				{
					"source" : [ "obj-22", 0 ],
					"destination" : [ "obj-23", 0 ],
					"hidden" : 0,
					"midpoints" : [  ]
				}

			}
, 			{
				"patchline" : 				{
					"source" : [ "obj-24", 0 ],
					"destination" : [ "obj-45", 0 ],
					"hidden" : 0,
					"midpoints" : [  ]
				}

			}
, 			{
				"patchline" : 				{
					"source" : [ "obj-24", 1 ],
					"destination" : [ "obj-46", 0 ],
					"hidden" : 0,
					"midpoints" : [  ]
				}

			}
, 			{
				"patchline" : 				{
					"source" : [ "obj-24", 2 ],
					"destination" : [ "obj-47", 0 ],
					"hidden" : 0,
					"midpoints" : [  ]
				}

			}
, 			{
				"patchline" : 				{
					"source" : [ "obj-45", 0 ],
					"destination" : [ "obj-49", 0 ],
					"hidden" : 0,
					"midpoints" : [  ]
				}

			}
, 			{
				"patchline" : 				{
					"source" : [ "obj-46", 0 ],
					"destination" : [ "obj-50", 0 ],
					"hidden" : 0,
					"midpoints" : [  ]
				}

			}
, 			{
				"patchline" : 				{
					"source" : [ "obj-47", 0 ],
					"destination" : [ "obj-51", 0 ],
					"hidden" : 0,
					"midpoints" : [  ]
				}

			}
 ]
	}

}
