{
	"patcher" : 	{
		"fileversion" : 1,
		"rect" : [ 84.0, 45.0, 572.0, 521.0 ],
		"bgcolor" : [ 0.87451, 0.933333, 1.0, 1.0 ],
		"bglocked" : 0,
		"defrect" : [ 84.0, 45.0, 572.0, 521.0 ],
		"openrect" : [ 0.0, 0.0, 0.0, 0.0 ],
		"openinpresentation" : 0,
		"default_fontsize" : 12.0,
		"default_fontface" : 0,
		"default_fontname" : "Arial",
		"gridonopen" : 0,
		"gridsize" : [ 15.0, 15.0 ],
		"gridsnaponopen" : 0,
		"toolbarvisible" : 1,
		"boxanimatetime" : 200,
		"imprint" : 0,
		"boxes" : [ 			{
				"box" : 				{
					"maxclass" : "bpatcher",
					"offset" : [ -4.0, -23.0 ],
					"outlettype" : [ "" ],
					"name" : "startaudio.maxpat",
					"numinlets" : 0,
					"lockeddragscroll" : 1,
					"numoutlets" : 1,
					"patching_rect" : [ 88.0, 367.0, 139.0, 54.0 ],
					"id" : "obj-1",
					"args" : [  ]
				}

			}
, 			{
				"box" : 				{
					"maxclass" : "comment",
					"text" : "default = 200, 400, 600, 800",
					"fontsize" : 12.0,
					"frgb" : [ 0.0, 0.0, 0.0, 1.0 ],
					"numinlets" : 1,
					"fontname" : "Arial",
					"numoutlets" : 0,
					"patching_rect" : [ 227.0, 141.0, 160.0, 20.0 ],
					"id" : "obj-2"
				}

			}
, 			{
				"box" : 				{
					"maxclass" : "comment",
					"text" : "optional argument sets buffer size (default = 10000)",
					"fontsize" : 12.0,
					"frgb" : [ 0.0, 0.0, 0.0, 1.0 ],
					"numinlets" : 1,
					"fontname" : "Arial",
					"numoutlets" : 0,
					"patching_rect" : [ 76.0, 274.0, 328.0, 20.0 ],
					"id" : "obj-3"
				}

			}
, 			{
				"box" : 				{
					"maxclass" : "comment",
					"text" : "single int or float creates evenly spaced delays",
					"linecount" : 2,
					"fontsize" : 12.0,
					"frgb" : [ 0.0, 0.0, 0.0, 1.0 ],
					"numinlets" : 1,
					"fontname" : "Arial",
					"numoutlets" : 0,
					"patching_rect" : [ 427.0, 130.0, 144.0, 34.0 ],
					"id" : "obj-4"
				}

			}
, 			{
				"box" : 				{
					"maxclass" : "message",
					"text" : "200.",
					"outlettype" : [ "" ],
					"fontsize" : 12.0,
					"bgcolor" : [ 0.760784, 0.709804, 0.811765, 1.0 ],
					"numinlets" : 2,
					"fontname" : "Arial",
					"numoutlets" : 1,
					"patching_rect" : [ 392.0, 141.0, 34.0, 18.0 ],
					"id" : "obj-5"
				}

			}
, 			{
				"box" : 				{
					"maxclass" : "comment",
					"text" : "list of gains",
					"fontsize" : 12.0,
					"frgb" : [ 0.0, 0.0, 0.0, 1.0 ],
					"numinlets" : 1,
					"fontname" : "Arial",
					"numoutlets" : 0,
					"patching_rect" : [ 184.0, 197.0, 71.0, 20.0 ],
					"id" : "obj-6"
				}

			}
, 			{
				"box" : 				{
					"maxclass" : "message",
					"text" : "1. 0.6 0.4 0.25 0.1",
					"outlettype" : [ "" ],
					"fontsize" : 12.0,
					"bgcolor" : [ 0.6, 0.6, 1.0, 1.0 ],
					"numinlets" : 2,
					"fontname" : "Arial",
					"numoutlets" : 1,
					"patching_rect" : [ 143.0, 213.0, 107.0, 18.0 ],
					"id" : "obj-7"
				}

			}
, 			{
				"box" : 				{
					"maxclass" : "message",
					"text" : "200 500 900 1400",
					"outlettype" : [ "" ],
					"fontsize" : 12.0,
					"bgcolor" : [ 0.760784, 0.709804, 0.811765, 1.0 ],
					"numinlets" : 2,
					"fontname" : "Arial",
					"numoutlets" : 1,
					"patching_rect" : [ 118.0, 141.0, 107.0, 18.0 ],
					"id" : "obj-8"
				}

			}
, 			{
				"box" : 				{
					"maxclass" : "button",
					"outlettype" : [ "bang" ],
					"numinlets" : 1,
					"numoutlets" : 1,
					"patching_rect" : [ 48.0, 189.0, 20.0, 20.0 ],
					"id" : "obj-9"
				}

			}
, 			{
				"box" : 				{
					"maxclass" : "newobj",
					"text" : "click~",
					"outlettype" : [ "signal" ],
					"fontsize" : 12.0,
					"numinlets" : 1,
					"fontname" : "Arial",
					"numoutlets" : 1,
					"patching_rect" : [ 48.0, 215.0, 41.0, 20.0 ],
					"id" : "obj-10"
				}

			}
, 			{
				"box" : 				{
					"maxclass" : "newobj",
					"text" : "4-tap-delay~ 10000",
					"outlettype" : [ "signal" ],
					"fontsize" : 12.0,
					"numinlets" : 3,
					"fontname" : "Arial",
					"numoutlets" : 1,
					"color" : [ 1.0, 0.890196, 0.090196, 1.0 ],
					"patching_rect" : [ 48.0, 253.0, 114.0, 20.0 ],
					"id" : "obj-11"
				}

			}
, 			{
				"box" : 				{
					"maxclass" : "bpatcher",
					"offset" : [ -18.0, -68.0 ],
					"name" : "banner.maxpat",
					"numinlets" : 0,
					"lockeddragscroll" : 1,
					"numoutlets" : 0,
					"patching_rect" : [ 14.0, 10.0, 511.0, 76.0 ],
					"id" : "obj-12",
					"args" : [ "4-tap-delay~", "delay line with 4 taps" ]
				}

			}
, 			{
				"box" : 				{
					"maxclass" : "bpatcher",
					"name" : "badge.maxpat",
					"numinlets" : 0,
					"numoutlets" : 0,
					"patching_rect" : [ 247.0, 405.0, 302.0, 89.0 ],
					"id" : "obj-13",
					"args" : [ "4-tap-delay~.help", "1.1a", "Michael Zbyszynski", "4-tap-delay~", 2512 ]
				}

			}
, 			{
				"box" : 				{
					"maxclass" : "gain~",
					"outlettype" : [ "signal", "int" ],
					"orientation" : 2,
					"bgcolor" : [ 1.0, 0.890196, 0.090196, 1.0 ],
					"numinlets" : 2,
					"stripecolor" : [ 0.66667, 0.66667, 0.66667, 1.0 ],
					"numoutlets" : 2,
					"patching_rect" : [ 49.0, 316.0, 26.0, 81.0 ],
					"id" : "obj-15"
				}

			}
, 			{
				"box" : 				{
					"maxclass" : "newobj",
					"text" : "pcontrol",
					"outlettype" : [ "" ],
					"fontsize" : 9.0,
					"hidden" : 1,
					"numinlets" : 1,
					"fontname" : "Arial",
					"numoutlets" : 1,
					"patching_rect" : [ 35.0, 530.0, 45.0, 17.0 ],
					"id" : "obj-16"
				}

			}
, 			{
				"box" : 				{
					"maxclass" : "message",
					"text" : "tapout~",
					"outlettype" : [ "" ],
					"fontsize" : 12.0,
					"textcolor" : [ 1.0, 1.0, 1.0, 1.0 ],
					"bgcolor" : [ 0.4, 0.4, 0.8, 1.0 ],
					"numinlets" : 2,
					"fontname" : "Arial",
					"numoutlets" : 1,
					"patching_rect" : [ 81.0, 477.0, 51.0, 18.0 ],
					"id" : "obj-17"
				}

			}
, 			{
				"box" : 				{
					"maxclass" : "comment",
					"text" : "see also:",
					"fontsize" : 12.0,
					"textcolor" : [ 0.4, 0.4, 0.8, 1.0 ],
					"frgb" : [ 0.4, 0.4, 0.8, 1.0 ],
					"numinlets" : 1,
					"fontname" : "Arial",
					"numoutlets" : 0,
					"patching_rect" : [ 35.0, 455.0, 59.0, 20.0 ],
					"id" : "obj-18"
				}

			}
, 			{
				"box" : 				{
					"maxclass" : "message",
					"text" : "tapin~",
					"outlettype" : [ "" ],
					"fontsize" : 12.0,
					"textcolor" : [ 1.0, 1.0, 1.0, 1.0 ],
					"bgcolor" : [ 0.4, 0.4, 0.8, 1.0 ],
					"numinlets" : 2,
					"fontname" : "Arial",
					"numoutlets" : 1,
					"patching_rect" : [ 35.0, 477.0, 44.0, 18.0 ],
					"id" : "obj-19"
				}

			}
, 			{
				"box" : 				{
					"maxclass" : "newobj",
					"text" : "prepend help",
					"outlettype" : [ "" ],
					"fontsize" : 9.0,
					"hidden" : 1,
					"numinlets" : 1,
					"fontname" : "Arial",
					"numoutlets" : 1,
					"patching_rect" : [ 35.0, 508.0, 66.0, 17.0 ],
					"id" : "obj-20"
				}

			}
, 			{
				"box" : 				{
					"maxclass" : "newobj",
					"text" : "dac~",
					"fontsize" : 12.0,
					"numinlets" : 2,
					"fontname" : "Arial",
					"numoutlets" : 0,
					"patching_rect" : [ 48.0, 428.0, 37.0, 20.0 ],
					"id" : "obj-21"
				}

			}
, 			{
				"box" : 				{
					"maxclass" : "comment",
					"text" : "list of delay times",
					"fontsize" : 12.0,
					"frgb" : [ 0.0, 0.0, 0.0, 1.0 ],
					"numinlets" : 1,
					"fontname" : "Arial",
					"numoutlets" : 0,
					"patching_rect" : [ 121.0, 121.0, 130.0, 20.0 ],
					"id" : "obj-22"
				}

			}
, 			{
				"box" : 				{
					"maxclass" : "comment",
					"text" : "first gain is pass-tru",
					"fontsize" : 12.0,
					"frgb" : [ 0.0, 0.0, 0.0, 1.0 ],
					"numinlets" : 1,
					"fontname" : "Arial",
					"numoutlets" : 0,
					"patching_rect" : [ 195.0, 232.0, 115.0, 20.0 ],
					"id" : "obj-23"
				}

			}
 ],
		"lines" : [ 			{
				"patchline" : 				{
					"source" : [ "obj-10", 0 ],
					"destination" : [ "obj-11", 0 ],
					"hidden" : 0,
					"midpoints" : [  ]
				}

			}
, 			{
				"patchline" : 				{
					"source" : [ "obj-11", 0 ],
					"destination" : [ "obj-15", 0 ],
					"hidden" : 0,
					"midpoints" : [  ]
				}

			}
, 			{
				"patchline" : 				{
					"source" : [ "obj-5", 0 ],
					"destination" : [ "obj-11", 1 ],
					"hidden" : 0,
					"midpoints" : [ 401.5, 173.0, 105.0, 173.0 ]
				}

			}
, 			{
				"patchline" : 				{
					"source" : [ "obj-8", 0 ],
					"destination" : [ "obj-11", 1 ],
					"hidden" : 0,
					"midpoints" : [ 127.5, 173.0, 105.0, 173.0 ]
				}

			}
, 			{
				"patchline" : 				{
					"source" : [ "obj-7", 0 ],
					"destination" : [ "obj-11", 2 ],
					"hidden" : 0,
					"midpoints" : [  ]
				}

			}
, 			{
				"patchline" : 				{
					"source" : [ "obj-15", 0 ],
					"destination" : [ "obj-21", 1 ],
					"hidden" : 0,
					"midpoints" : [ 58.5, 419.0, 75.5, 419.0 ]
				}

			}
, 			{
				"patchline" : 				{
					"source" : [ "obj-15", 0 ],
					"destination" : [ "obj-21", 0 ],
					"hidden" : 0,
					"midpoints" : [  ]
				}

			}
, 			{
				"patchline" : 				{
					"source" : [ "obj-1", 0 ],
					"destination" : [ "obj-21", 0 ],
					"hidden" : 0,
					"midpoints" : [ 97.5, 419.0, 57.5, 419.0 ]
				}

			}
, 			{
				"patchline" : 				{
					"source" : [ "obj-9", 0 ],
					"destination" : [ "obj-10", 0 ],
					"hidden" : 0,
					"midpoints" : [  ]
				}

			}
, 			{
				"patchline" : 				{
					"source" : [ "obj-20", 0 ],
					"destination" : [ "obj-16", 0 ],
					"hidden" : 1,
					"midpoints" : [  ]
				}

			}
, 			{
				"patchline" : 				{
					"source" : [ "obj-17", 0 ],
					"destination" : [ "obj-20", 0 ],
					"hidden" : 1,
					"midpoints" : [  ]
				}

			}
, 			{
				"patchline" : 				{
					"source" : [ "obj-19", 0 ],
					"destination" : [ "obj-20", 0 ],
					"hidden" : 1,
					"midpoints" : [  ]
				}

			}
 ]
	}

}
