max v2;#N vpatcher 108 87 560 368;#P bpatcher 23 210 142 25 -6 -23 myNotes.pat 0 round;#P button 287 240 15 0;#P window setfont "Sans Serif" 9.;#P window linecount 1;#P comment 305 242 112 196617 ¥ view html reference.;#P window linecount 2;#P hidden message 181 271 315 196617 \; max launch_browser http://www.cnmat.berkeley.edu/patch/2956;#P window linecount 1;#P newex 22 237 73 196617 uc_disclaimer;#P newex 201 107 29 196617 adc~;#P user hslider 273 100 18 128 128 1 0 0;#P user hslider 237 80 18 128 128 1 0 0;#P hidden message 304 41 26 196617 100;#P hidden newex 237 17 45 196617 loadbang;#P hidden message 273 42 26 196617 106;#P hidden message 237 41 20 196617 70;#P newex 201 239 29 196617 dac~;#P user gain~ 248 164 44 38 158 0 1.071519 7.94321 10.;#P user gain~ 201 164 44 38 158 0 1.071519 7.94321 10.;#P window setfont "Sans Serif" 14.;#P comment 12 15 70 196622 newrev~;#P window setfont "Sans Serif" 9.;#P comment 174 82 60 196617 reverb gain;#P comment 312 118 62 196617 reverb time;#P newex 201 134 82 196617 newrev~;#P message 84 145 65 196617 startwindow;#P message 122 161 27 196617 stop;#P comment 31 39 102 196617 public domain reverb;#P hidden connect 20 0 18 0;#P connect 16 0 3 0;#P connect 16 1 3 0;#P hidden connect 13 0 7 0;#P connect 3 0 7 0;#P connect 7 0 9 0;#P connect 1 0 9 0;#P connect 2 0 9 0;#P connect 8 0 9 1;#P hidden connect 12 0 10 0;#P hidden connect 10 0 14 0;#P connect 14 0 3 1;#P hidden connect 13 0 8 0;#P connect 7 1 8 0;#P connect 3 1 8 0;#P hidden connect 12 0 11 0;#P hidden connect 11 0 15 0;#P connect 15 0 3 2;#P hidden connect 12 0 13 0;#P pop;