{
	"patcher" : 	{
		"fileversion" : 1,
		"rect" : [ 117.0, 49.0, 394.0, 548.0 ],
		"bglocked" : 0,
		"defrect" : [ 117.0, 49.0, 394.0, 548.0 ],
		"openrect" : [ 0.0, 0.0, 0.0, 0.0 ],
		"openinpresentation" : 0,
		"default_fontsize" : 12.0,
		"default_fontface" : 0,
		"default_fontname" : "Arial",
		"gridonopen" : 0,
		"gridsize" : [ 15.0, 15.0 ],
		"gridsnaponopen" : 0,
		"toolbarvisible" : 1,
		"boxanimatetime" : 200,
		"imprint" : 0,
		"boxes" : [ 			{
				"box" : 				{
					"maxclass" : "comment",
					"text" : "newrev~ version 1.0gamma",
					"linecount" : 2,
					"fontsize" : 9.0,
					"frgb" : [ 0.0, 0.0, 0.0, 1.0 ],
					"numinlets" : 1,
					"fontname" : "Arial",
					"numoutlets" : 0,
					"patching_rect" : [ 180.0, 399.0, 102.0, 27.0 ],
					"id" : "obj-1"
				}

			}
, 			{
				"box" : 				{
					"maxclass" : "newobj",
					"text" : "uc_disclaimer",
					"fontsize" : 9.0,
					"numinlets" : 0,
					"fontname" : "Arial",
					"numoutlets" : 0,
					"patching_rect" : [ 181.0, 377.0, 73.0, 17.0 ],
					"id" : "obj-2"
				}

			}
, 			{
				"box" : 				{
					"maxclass" : "comment",
					"text" : "This program is in the public domain.",
					"linecount" : 2,
					"fontsize" : 9.0,
					"frgb" : [ 0.0, 0.0, 0.0, 1.0 ],
					"numinlets" : 1,
					"fontname" : "Arial",
					"numoutlets" : 0,
					"patching_rect" : [ 179.0, 348.0, 102.0, 27.0 ],
					"id" : "obj-3"
				}

			}
, 			{
				"box" : 				{
					"maxclass" : "newobj",
					"text" : "+~",
					"outlettype" : [ "signal" ],
					"fontsize" : 9.0,
					"numinlets" : 2,
					"fontname" : "Arial",
					"numoutlets" : 1,
					"patching_rect" : [ 172.0, 213.0, 27.0, 17.0 ],
					"id" : "obj-4"
				}

			}
, 			{
				"box" : 				{
					"maxclass" : "newobj",
					"text" : "+~",
					"outlettype" : [ "signal" ],
					"fontsize" : 9.0,
					"numinlets" : 2,
					"fontname" : "Arial",
					"numoutlets" : 1,
					"patching_rect" : [ 143.0, 213.0, 27.0, 17.0 ],
					"id" : "obj-5"
				}

			}
, 			{
				"box" : 				{
					"maxclass" : "newobj",
					"text" : "p late_reverberence",
					"outlettype" : [ "signal", "signal", "signal", "signal" ],
					"fontsize" : 9.0,
					"numinlets" : 5,
					"fontname" : "Arial",
					"numoutlets" : 4,
					"patching_rect" : [ 145.0, 288.0, 107.0, 17.0 ],
					"id" : "obj-6",
					"patcher" : 					{
						"fileversion" : 1,
						"rect" : [ 166.0, 100.0, 599.0, 382.0 ],
						"bglocked" : 0,
						"defrect" : [ 166.0, 100.0, 599.0, 382.0 ],
						"openrect" : [ 0.0, 0.0, 0.0, 0.0 ],
						"openinpresentation" : 0,
						"default_fontsize" : 12.0,
						"default_fontface" : 0,
						"default_fontname" : "Arial",
						"gridonopen" : 0,
						"gridsize" : [ 15.0, 15.0 ],
						"gridsnaponopen" : 0,
						"toolbarvisible" : 1,
						"boxanimatetime" : 200,
						"imprint" : 0,
						"boxes" : [ 							{
								"box" : 								{
									"maxclass" : "outlet",
									"numinlets" : 1,
									"numoutlets" : 0,
									"patching_rect" : [ 378.0, 259.0, 15.0, 15.0 ],
									"id" : "obj-1",
									"comment" : ""
								}

							}
, 							{
								"box" : 								{
									"maxclass" : "outlet",
									"numinlets" : 1,
									"numoutlets" : 0,
									"patching_rect" : [ 278.0, 259.0, 15.0, 15.0 ],
									"id" : "obj-2",
									"comment" : ""
								}

							}
, 							{
								"box" : 								{
									"maxclass" : "outlet",
									"numinlets" : 1,
									"numoutlets" : 0,
									"patching_rect" : [ 173.0, 259.0, 15.0, 15.0 ],
									"id" : "obj-3",
									"comment" : ""
								}

							}
, 							{
								"box" : 								{
									"maxclass" : "outlet",
									"numinlets" : 1,
									"numoutlets" : 0,
									"patching_rect" : [ 73.0, 259.0, 15.0, 15.0 ],
									"id" : "obj-4",
									"comment" : ""
								}

							}
, 							{
								"box" : 								{
									"maxclass" : "inlet",
									"outlettype" : [ "" ],
									"numinlets" : 0,
									"numoutlets" : 1,
									"patching_rect" : [ 489.0, 65.0, 15.0, 15.0 ],
									"id" : "obj-5",
									"comment" : ""
								}

							}
, 							{
								"box" : 								{
									"maxclass" : "newobj",
									"text" : "tapin~ 88.994652",
									"outlettype" : [ "tapconnect" ],
									"fontsize" : 9.0,
									"numinlets" : 1,
									"fontname" : "Arial",
									"numoutlets" : 1,
									"patching_rect" : [ 378.0, 111.0, 90.0, 17.0 ],
									"id" : "obj-6"
								}

							}
, 							{
								"box" : 								{
									"maxclass" : "newobj",
									"text" : "tapin~ 75.468445",
									"outlettype" : [ "tapconnect" ],
									"fontsize" : 9.0,
									"numinlets" : 1,
									"fontname" : "Arial",
									"numoutlets" : 1,
									"patching_rect" : [ 278.0, 111.0, 90.0, 17.0 ],
									"id" : "obj-7"
								}

							}
, 							{
								"box" : 								{
									"maxclass" : "newobj",
									"text" : "tapin~ 69.965569",
									"outlettype" : [ "tapconnect" ],
									"fontsize" : 9.0,
									"numinlets" : 1,
									"fontname" : "Arial",
									"numoutlets" : 1,
									"patching_rect" : [ 173.0, 111.0, 90.0, 17.0 ],
									"id" : "obj-8"
								}

							}
, 							{
								"box" : 								{
									"maxclass" : "newobj",
									"text" : "tapin~ 57.226429",
									"outlettype" : [ "tapconnect" ],
									"fontsize" : 9.0,
									"numinlets" : 1,
									"fontname" : "Arial",
									"numoutlets" : 1,
									"patching_rect" : [ 73.0, 111.0, 90.0, 17.0 ],
									"id" : "obj-9"
								}

							}
, 							{
								"box" : 								{
									"maxclass" : "newobj",
									"text" : "*~",
									"outlettype" : [ "signal" ],
									"fontsize" : 9.0,
									"numinlets" : 2,
									"fontname" : "Arial",
									"numoutlets" : 1,
									"patching_rect" : [ 73.0, 227.0, 27.0, 17.0 ],
									"id" : "obj-10"
								}

							}
, 							{
								"box" : 								{
									"maxclass" : "newobj",
									"text" : "*~",
									"outlettype" : [ "signal" ],
									"fontsize" : 9.0,
									"numinlets" : 2,
									"fontname" : "Arial",
									"numoutlets" : 1,
									"patching_rect" : [ 378.0, 227.0, 27.0, 17.0 ],
									"id" : "obj-11"
								}

							}
, 							{
								"box" : 								{
									"maxclass" : "newobj",
									"text" : "*~",
									"outlettype" : [ "signal" ],
									"fontsize" : 9.0,
									"numinlets" : 2,
									"fontname" : "Arial",
									"numoutlets" : 1,
									"patching_rect" : [ 173.0, 227.0, 27.0, 17.0 ],
									"id" : "obj-12"
								}

							}
, 							{
								"box" : 								{
									"maxclass" : "newobj",
									"text" : "*~",
									"outlettype" : [ "signal" ],
									"fontsize" : 9.0,
									"numinlets" : 2,
									"fontname" : "Arial",
									"numoutlets" : 1,
									"patching_rect" : [ 278.0, 227.0, 27.0, 17.0 ],
									"id" : "obj-13"
								}

							}
, 							{
								"box" : 								{
									"maxclass" : "newobj",
									"text" : "line~",
									"outlettype" : [ "signal", "bang" ],
									"fontsize" : 9.0,
									"numinlets" : 2,
									"fontname" : "Arial",
									"numoutlets" : 2,
									"patching_rect" : [ 489.0, 185.0, 30.0, 17.0 ],
									"id" : "obj-14"
								}

							}
, 							{
								"box" : 								{
									"maxclass" : "newobj",
									"text" : "tapout~ 57.226429",
									"outlettype" : [ "signal" ],
									"fontsize" : 9.0,
									"numinlets" : 1,
									"fontname" : "Arial",
									"numoutlets" : 1,
									"patching_rect" : [ 73.0, 130.0, 95.0, 17.0 ],
									"id" : "obj-15"
								}

							}
, 							{
								"box" : 								{
									"maxclass" : "newobj",
									"text" : "tapout~ 75.468445",
									"outlettype" : [ "signal" ],
									"fontsize" : 9.0,
									"numinlets" : 1,
									"fontname" : "Arial",
									"numoutlets" : 1,
									"patching_rect" : [ 278.0, 130.0, 95.0, 17.0 ],
									"id" : "obj-16"
								}

							}
, 							{
								"box" : 								{
									"maxclass" : "newobj",
									"text" : "tapout~ 69.965569",
									"outlettype" : [ "signal" ],
									"fontsize" : 9.0,
									"numinlets" : 1,
									"fontname" : "Arial",
									"numoutlets" : 1,
									"patching_rect" : [ 173.0, 130.0, 95.0, 17.0 ],
									"id" : "obj-17"
								}

							}
, 							{
								"box" : 								{
									"maxclass" : "newobj",
									"text" : "tapout~ 88.994652",
									"outlettype" : [ "signal" ],
									"fontsize" : 9.0,
									"numinlets" : 1,
									"fontname" : "Arial",
									"numoutlets" : 1,
									"patching_rect" : [ 378.0, 130.0, 95.0, 17.0 ],
									"id" : "obj-18"
								}

							}
, 							{
								"box" : 								{
									"maxclass" : "inlet",
									"outlettype" : [ "signal" ],
									"numinlets" : 0,
									"numoutlets" : 1,
									"patching_rect" : [ 378.0, 65.0, 15.0, 15.0 ],
									"id" : "obj-19",
									"comment" : ""
								}

							}
, 							{
								"box" : 								{
									"maxclass" : "inlet",
									"outlettype" : [ "signal" ],
									"numinlets" : 0,
									"numoutlets" : 1,
									"patching_rect" : [ 278.0, 65.0, 15.0, 15.0 ],
									"id" : "obj-20",
									"comment" : ""
								}

							}
, 							{
								"box" : 								{
									"maxclass" : "inlet",
									"outlettype" : [ "signal" ],
									"numinlets" : 0,
									"numoutlets" : 1,
									"patching_rect" : [ 173.0, 65.0, 15.0, 15.0 ],
									"id" : "obj-21",
									"comment" : ""
								}

							}
, 							{
								"box" : 								{
									"maxclass" : "inlet",
									"outlettype" : [ "signal" ],
									"numinlets" : 0,
									"numoutlets" : 1,
									"patching_rect" : [ 73.0, 65.0, 15.0, 15.0 ],
									"id" : "obj-22",
									"comment" : ""
								}

							}
, 							{
								"box" : 								{
									"maxclass" : "comment",
									"text" : "you could also add a lowpass filter HERE to dampen the reverberation",
									"linecount" : 2,
									"fontsize" : 9.0,
									"frgb" : [ 0.0, 0.0, 0.0, 1.0 ],
									"numinlets" : 1,
									"fontname" : "Arial",
									"numoutlets" : 0,
									"patching_rect" : [ 151.0, 169.0, 199.0, 27.0 ],
									"id" : "obj-23"
								}

							}
 ],
						"lines" : [ 							{
								"patchline" : 								{
									"source" : [ "obj-5", 0 ],
									"destination" : [ "obj-14", 0 ],
									"hidden" : 0,
									"midpoints" : [  ]
								}

							}
, 							{
								"patchline" : 								{
									"source" : [ "obj-14", 0 ],
									"destination" : [ "obj-11", 1 ],
									"hidden" : 0,
									"midpoints" : [  ]
								}

							}
, 							{
								"patchline" : 								{
									"source" : [ "obj-11", 0 ],
									"destination" : [ "obj-1", 0 ],
									"hidden" : 0,
									"midpoints" : [  ]
								}

							}
, 							{
								"patchline" : 								{
									"source" : [ "obj-18", 0 ],
									"destination" : [ "obj-11", 0 ],
									"hidden" : 0,
									"midpoints" : [  ]
								}

							}
, 							{
								"patchline" : 								{
									"source" : [ "obj-6", 0 ],
									"destination" : [ "obj-18", 0 ],
									"hidden" : 0,
									"midpoints" : [  ]
								}

							}
, 							{
								"patchline" : 								{
									"source" : [ "obj-19", 0 ],
									"destination" : [ "obj-6", 0 ],
									"hidden" : 0,
									"midpoints" : [  ]
								}

							}
, 							{
								"patchline" : 								{
									"source" : [ "obj-14", 0 ],
									"destination" : [ "obj-13", 1 ],
									"hidden" : 0,
									"midpoints" : [  ]
								}

							}
, 							{
								"patchline" : 								{
									"source" : [ "obj-13", 0 ],
									"destination" : [ "obj-2", 0 ],
									"hidden" : 0,
									"midpoints" : [  ]
								}

							}
, 							{
								"patchline" : 								{
									"source" : [ "obj-16", 0 ],
									"destination" : [ "obj-13", 0 ],
									"hidden" : 0,
									"midpoints" : [  ]
								}

							}
, 							{
								"patchline" : 								{
									"source" : [ "obj-7", 0 ],
									"destination" : [ "obj-16", 0 ],
									"hidden" : 0,
									"midpoints" : [  ]
								}

							}
, 							{
								"patchline" : 								{
									"source" : [ "obj-20", 0 ],
									"destination" : [ "obj-7", 0 ],
									"hidden" : 0,
									"midpoints" : [  ]
								}

							}
, 							{
								"patchline" : 								{
									"source" : [ "obj-14", 0 ],
									"destination" : [ "obj-12", 1 ],
									"hidden" : 0,
									"midpoints" : [  ]
								}

							}
, 							{
								"patchline" : 								{
									"source" : [ "obj-12", 0 ],
									"destination" : [ "obj-3", 0 ],
									"hidden" : 0,
									"midpoints" : [  ]
								}

							}
, 							{
								"patchline" : 								{
									"source" : [ "obj-17", 0 ],
									"destination" : [ "obj-12", 0 ],
									"hidden" : 0,
									"midpoints" : [  ]
								}

							}
, 							{
								"patchline" : 								{
									"source" : [ "obj-8", 0 ],
									"destination" : [ "obj-17", 0 ],
									"hidden" : 0,
									"midpoints" : [  ]
								}

							}
, 							{
								"patchline" : 								{
									"source" : [ "obj-21", 0 ],
									"destination" : [ "obj-8", 0 ],
									"hidden" : 0,
									"midpoints" : [  ]
								}

							}
, 							{
								"patchline" : 								{
									"source" : [ "obj-14", 0 ],
									"destination" : [ "obj-10", 1 ],
									"hidden" : 0,
									"midpoints" : [  ]
								}

							}
, 							{
								"patchline" : 								{
									"source" : [ "obj-10", 0 ],
									"destination" : [ "obj-4", 0 ],
									"hidden" : 0,
									"midpoints" : [  ]
								}

							}
, 							{
								"patchline" : 								{
									"source" : [ "obj-15", 0 ],
									"destination" : [ "obj-10", 0 ],
									"hidden" : 0,
									"midpoints" : [  ]
								}

							}
, 							{
								"patchline" : 								{
									"source" : [ "obj-9", 0 ],
									"destination" : [ "obj-15", 0 ],
									"hidden" : 0,
									"midpoints" : [  ]
								}

							}
, 							{
								"patchline" : 								{
									"source" : [ "obj-22", 0 ],
									"destination" : [ "obj-9", 0 ],
									"hidden" : 0,
									"midpoints" : [  ]
								}

							}
 ]
					}
,
					"saved_object_attributes" : 					{
						"fontface" : 0,
						"fontsize" : 12.0,
						"globalpatchername" : "",
						"default_fontface" : 0,
						"fontname" : "Arial",
						"default_fontname" : "Arial",
						"default_fontsize" : 12.0
					}

				}

			}
, 			{
				"box" : 				{
					"maxclass" : "newobj",
					"text" : "+~",
					"outlettype" : [ "signal" ],
					"fontsize" : 9.0,
					"numinlets" : 2,
					"fontname" : "Arial",
					"numoutlets" : 1,
					"patching_rect" : [ 114.0, 213.0, 27.0, 17.0 ],
					"id" : "obj-7"
				}

			}
, 			{
				"box" : 				{
					"maxclass" : "newobj",
					"text" : "+~",
					"outlettype" : [ "signal" ],
					"fontsize" : 9.0,
					"numinlets" : 2,
					"fontname" : "Arial",
					"numoutlets" : 1,
					"patching_rect" : [ 85.0, 213.0, 27.0, 17.0 ],
					"id" : "obj-8"
				}

			}
, 			{
				"box" : 				{
					"maxclass" : "newobj",
					"text" : "p more_diffusion",
					"outlettype" : [ "signal", "signal", "signal", "signal" ],
					"fontsize" : 9.0,
					"numinlets" : 4,
					"fontname" : "Arial",
					"numoutlets" : 4,
					"patching_rect" : [ 145.0, 259.0, 84.0, 17.0 ],
					"id" : "obj-9",
					"patcher" : 					{
						"fileversion" : 1,
						"rect" : [ 169.0, 109.0, 319.0, 260.0 ],
						"bglocked" : 0,
						"defrect" : [ 169.0, 109.0, 319.0, 260.0 ],
						"openrect" : [ 0.0, 0.0, 0.0, 0.0 ],
						"openinpresentation" : 0,
						"default_fontsize" : 12.0,
						"default_fontface" : 0,
						"default_fontname" : "Arial",
						"gridonopen" : 0,
						"gridsize" : [ 15.0, 15.0 ],
						"gridsnaponopen" : 0,
						"toolbarvisible" : 1,
						"boxanimatetime" : 200,
						"imprint" : 0,
						"boxes" : [ 							{
								"box" : 								{
									"maxclass" : "outlet",
									"numinlets" : 1,
									"numoutlets" : 0,
									"patching_rect" : [ 185.0, 178.0, 15.0, 15.0 ],
									"id" : "obj-1",
									"comment" : ""
								}

							}
, 							{
								"box" : 								{
									"maxclass" : "outlet",
									"numinlets" : 1,
									"numoutlets" : 0,
									"patching_rect" : [ 142.0, 178.0, 15.0, 15.0 ],
									"id" : "obj-2",
									"comment" : ""
								}

							}
, 							{
								"box" : 								{
									"maxclass" : "outlet",
									"numinlets" : 1,
									"numoutlets" : 0,
									"patching_rect" : [ 109.0, 178.0, 15.0, 15.0 ],
									"id" : "obj-3",
									"comment" : ""
								}

							}
, 							{
								"box" : 								{
									"maxclass" : "outlet",
									"numinlets" : 1,
									"numoutlets" : 0,
									"patching_rect" : [ 65.0, 178.0, 15.0, 15.0 ],
									"id" : "obj-4",
									"comment" : ""
								}

							}
, 							{
								"box" : 								{
									"maxclass" : "inlet",
									"outlettype" : [ "signal" ],
									"numinlets" : 0,
									"numoutlets" : 1,
									"patching_rect" : [ 219.0, 48.0, 15.0, 15.0 ],
									"id" : "obj-5",
									"comment" : ""
								}

							}
, 							{
								"box" : 								{
									"maxclass" : "inlet",
									"outlettype" : [ "signal" ],
									"numinlets" : 0,
									"numoutlets" : 1,
									"patching_rect" : [ 159.0, 48.0, 15.0, 15.0 ],
									"id" : "obj-6",
									"comment" : ""
								}

							}
, 							{
								"box" : 								{
									"maxclass" : "inlet",
									"outlettype" : [ "signal" ],
									"numinlets" : 0,
									"numoutlets" : 1,
									"patching_rect" : [ 126.0, 48.0, 15.0, 15.0 ],
									"id" : "obj-7",
									"comment" : ""
								}

							}
, 							{
								"box" : 								{
									"maxclass" : "inlet",
									"outlettype" : [ "signal" ],
									"numinlets" : 0,
									"numoutlets" : 1,
									"patching_rect" : [ 65.0, 48.0, 15.0, 15.0 ],
									"id" : "obj-8",
									"comment" : ""
								}

							}
, 							{
								"box" : 								{
									"maxclass" : "newobj",
									"text" : "+~",
									"outlettype" : [ "signal" ],
									"fontsize" : 9.0,
									"numinlets" : 2,
									"fontname" : "Arial",
									"numoutlets" : 1,
									"patching_rect" : [ 65.0, 83.0, 27.0, 17.0 ],
									"id" : "obj-9"
								}

							}
, 							{
								"box" : 								{
									"maxclass" : "newobj",
									"text" : "-~",
									"outlettype" : [ "signal" ],
									"fontsize" : 9.0,
									"numinlets" : 2,
									"fontname" : "Arial",
									"numoutlets" : 1,
									"patching_rect" : [ 185.0, 141.0, 27.0, 17.0 ],
									"id" : "obj-10"
								}

							}
, 							{
								"box" : 								{
									"maxclass" : "newobj",
									"text" : "-~",
									"outlettype" : [ "signal" ],
									"fontsize" : 9.0,
									"numinlets" : 2,
									"fontname" : "Arial",
									"numoutlets" : 1,
									"patching_rect" : [ 142.0, 141.0, 27.0, 17.0 ],
									"id" : "obj-11"
								}

							}
, 							{
								"box" : 								{
									"maxclass" : "newobj",
									"text" : "+~",
									"outlettype" : [ "signal" ],
									"fontsize" : 9.0,
									"numinlets" : 2,
									"fontname" : "Arial",
									"numoutlets" : 1,
									"patching_rect" : [ 109.0, 141.0, 27.0, 17.0 ],
									"id" : "obj-12"
								}

							}
, 							{
								"box" : 								{
									"maxclass" : "newobj",
									"text" : "+~",
									"outlettype" : [ "signal" ],
									"fontsize" : 9.0,
									"numinlets" : 2,
									"fontname" : "Arial",
									"numoutlets" : 1,
									"patching_rect" : [ 65.0, 141.0, 27.0, 17.0 ],
									"id" : "obj-13"
								}

							}
, 							{
								"box" : 								{
									"maxclass" : "newobj",
									"text" : "-~",
									"outlettype" : [ "signal" ],
									"fontsize" : 9.0,
									"numinlets" : 2,
									"fontname" : "Arial",
									"numoutlets" : 1,
									"patching_rect" : [ 202.0, 83.0, 27.0, 17.0 ],
									"id" : "obj-14"
								}

							}
, 							{
								"box" : 								{
									"maxclass" : "newobj",
									"text" : "+~",
									"outlettype" : [ "signal" ],
									"fontsize" : 9.0,
									"numinlets" : 2,
									"fontname" : "Arial",
									"numoutlets" : 1,
									"patching_rect" : [ 159.0, 83.0, 27.0, 17.0 ],
									"id" : "obj-15"
								}

							}
, 							{
								"box" : 								{
									"maxclass" : "newobj",
									"text" : "-~",
									"outlettype" : [ "signal" ],
									"fontsize" : 9.0,
									"numinlets" : 2,
									"fontname" : "Arial",
									"numoutlets" : 1,
									"patching_rect" : [ 109.0, 83.0, 27.0, 17.0 ],
									"id" : "obj-16"
								}

							}
 ],
						"lines" : [ 							{
								"patchline" : 								{
									"source" : [ "obj-5", 0 ],
									"destination" : [ "obj-14", 1 ],
									"hidden" : 0,
									"midpoints" : [  ]
								}

							}
, 							{
								"patchline" : 								{
									"source" : [ "obj-14", 0 ],
									"destination" : [ "obj-10", 1 ],
									"hidden" : 0,
									"midpoints" : [  ]
								}

							}
, 							{
								"patchline" : 								{
									"source" : [ "obj-6", 0 ],
									"destination" : [ "obj-14", 0 ],
									"hidden" : 0,
									"midpoints" : [  ]
								}

							}
, 							{
								"patchline" : 								{
									"source" : [ "obj-10", 0 ],
									"destination" : [ "obj-1", 0 ],
									"hidden" : 0,
									"midpoints" : [  ]
								}

							}
, 							{
								"patchline" : 								{
									"source" : [ "obj-16", 0 ],
									"destination" : [ "obj-10", 0 ],
									"hidden" : 0,
									"midpoints" : [  ]
								}

							}
, 							{
								"patchline" : 								{
									"source" : [ "obj-5", 0 ],
									"destination" : [ "obj-15", 1 ],
									"hidden" : 0,
									"midpoints" : [  ]
								}

							}
, 							{
								"patchline" : 								{
									"source" : [ "obj-15", 0 ],
									"destination" : [ "obj-11", 1 ],
									"hidden" : 0,
									"midpoints" : [  ]
								}

							}
, 							{
								"patchline" : 								{
									"source" : [ "obj-6", 0 ],
									"destination" : [ "obj-15", 0 ],
									"hidden" : 0,
									"midpoints" : [  ]
								}

							}
, 							{
								"patchline" : 								{
									"source" : [ "obj-11", 0 ],
									"destination" : [ "obj-2", 0 ],
									"hidden" : 0,
									"midpoints" : [  ]
								}

							}
, 							{
								"patchline" : 								{
									"source" : [ "obj-9", 0 ],
									"destination" : [ "obj-11", 0 ],
									"hidden" : 0,
									"midpoints" : [  ]
								}

							}
, 							{
								"patchline" : 								{
									"source" : [ "obj-14", 0 ],
									"destination" : [ "obj-12", 1 ],
									"hidden" : 0,
									"midpoints" : [  ]
								}

							}
, 							{
								"patchline" : 								{
									"source" : [ "obj-7", 0 ],
									"destination" : [ "obj-16", 1 ],
									"hidden" : 0,
									"midpoints" : [  ]
								}

							}
, 							{
								"patchline" : 								{
									"source" : [ "obj-12", 0 ],
									"destination" : [ "obj-3", 0 ],
									"hidden" : 0,
									"midpoints" : [  ]
								}

							}
, 							{
								"patchline" : 								{
									"source" : [ "obj-16", 0 ],
									"destination" : [ "obj-12", 0 ],
									"hidden" : 0,
									"midpoints" : [  ]
								}

							}
, 							{
								"patchline" : 								{
									"source" : [ "obj-8", 0 ],
									"destination" : [ "obj-16", 0 ],
									"hidden" : 0,
									"midpoints" : [  ]
								}

							}
, 							{
								"patchline" : 								{
									"source" : [ "obj-15", 0 ],
									"destination" : [ "obj-13", 1 ],
									"hidden" : 0,
									"midpoints" : [  ]
								}

							}
, 							{
								"patchline" : 								{
									"source" : [ "obj-7", 0 ],
									"destination" : [ "obj-9", 1 ],
									"hidden" : 0,
									"midpoints" : [  ]
								}

							}
, 							{
								"patchline" : 								{
									"source" : [ "obj-13", 0 ],
									"destination" : [ "obj-4", 0 ],
									"hidden" : 0,
									"midpoints" : [  ]
								}

							}
, 							{
								"patchline" : 								{
									"source" : [ "obj-9", 0 ],
									"destination" : [ "obj-13", 0 ],
									"hidden" : 0,
									"midpoints" : [  ]
								}

							}
, 							{
								"patchline" : 								{
									"source" : [ "obj-8", 0 ],
									"destination" : [ "obj-9", 0 ],
									"hidden" : 0,
									"midpoints" : [  ]
								}

							}
 ]
					}
,
					"saved_object_attributes" : 					{
						"fontface" : 0,
						"fontsize" : 12.0,
						"globalpatchername" : "",
						"default_fontface" : 0,
						"fontname" : "Arial",
						"default_fontname" : "Arial",
						"default_fontsize" : 12.0
					}

				}

			}
, 			{
				"box" : 				{
					"maxclass" : "newobj",
					"text" : "p filtering",
					"outlettype" : [ "signal", "signal", "signal", "signal" ],
					"fontsize" : 9.0,
					"numinlets" : 4,
					"fontname" : "Arial",
					"numoutlets" : 4,
					"patching_rect" : [ 16.0, 151.0, 79.0, 17.0 ],
					"id" : "obj-10",
					"patcher" : 					{
						"fileversion" : 1,
						"rect" : [ 50.0, 40.0, 528.0, 311.0 ],
						"bglocked" : 0,
						"defrect" : [ 50.0, 40.0, 528.0, 311.0 ],
						"openrect" : [ 0.0, 0.0, 0.0, 0.0 ],
						"openinpresentation" : 0,
						"default_fontsize" : 12.0,
						"default_fontface" : 0,
						"default_fontname" : "Arial",
						"gridonopen" : 0,
						"gridsize" : [ 15.0, 15.0 ],
						"gridsnaponopen" : 0,
						"toolbarvisible" : 1,
						"boxanimatetime" : 200,
						"imprint" : 0,
						"boxes" : [ 							{
								"box" : 								{
									"maxclass" : "outlet",
									"numinlets" : 1,
									"numoutlets" : 0,
									"patching_rect" : [ 80.0, 180.0, 15.0, 15.0 ],
									"id" : "obj-1",
									"comment" : ""
								}

							}
, 							{
								"box" : 								{
									"maxclass" : "outlet",
									"numinlets" : 1,
									"numoutlets" : 0,
									"patching_rect" : [ 63.0, 180.0, 15.0, 15.0 ],
									"id" : "obj-2",
									"comment" : ""
								}

							}
, 							{
								"box" : 								{
									"maxclass" : "newobj",
									"text" : "biquad~ 0.329295 -0.425046 0.105002 -1.562412 0.571663",
									"outlettype" : [ "signal" ],
									"fontsize" : 9.0,
									"numinlets" : 6,
									"fontname" : "Arial",
									"numoutlets" : 1,
									"patching_rect" : [ 80.0, 133.0, 292.0, 17.0 ],
									"id" : "obj-3"
								}

							}
, 							{
								"box" : 								{
									"maxclass" : "newobj",
									"text" : "biquad~ 0.329295 -0.425046 0.105002 -1.562412 0.571663",
									"outlettype" : [ "signal" ],
									"fontsize" : 9.0,
									"numinlets" : 6,
									"fontname" : "Arial",
									"numoutlets" : 1,
									"patching_rect" : [ 63.0, 115.0, 292.0, 17.0 ],
									"id" : "obj-4"
								}

							}
, 							{
								"box" : 								{
									"maxclass" : "message",
									"text" : "1. 0.959184 0.897959 0.755102 0.632653 0.530612 0.489796 0.44898 0.428571 0.428571 0.428571 0.428571 0.428571 0.428571 0.408163 0.367347 0.306122 0.22449 0.183673 0.183673",
									"linecount" : 5,
									"outlettype" : [ "" ],
									"fontsize" : 9.0,
									"hidden" : 1,
									"numinlets" : 2,
									"fontname" : "Arial",
									"numoutlets" : 1,
									"patching_rect" : [ 358.0, 49.0, 194.0, 56.0 ],
									"id" : "obj-5"
								}

							}
, 							{
								"box" : 								{
									"maxclass" : "newobj",
									"text" : "loadbang",
									"linecount" : 2,
									"outlettype" : [ "bang" ],
									"fontsize" : 9.0,
									"hidden" : 1,
									"numinlets" : 1,
									"fontname" : "Arial",
									"numoutlets" : 1,
									"patching_rect" : [ 358.0, 25.0, 45.0, 27.0 ],
									"id" : "obj-6"
								}

							}
, 							{
								"box" : 								{
									"maxclass" : "multislider",
									"outlettype" : [ "", "" ],
									"candicane3" : [ 0.290196, 0.411765, 0.713726, 1.0 ],
									"candicane6" : [ 0.733333, 0.035294, 0.788235, 1.0 ],
									"peakcolor" : [ 0.498039, 0.498039, 0.498039, 1.0 ],
									"candicane4" : [ 0.439216, 0.619608, 0.070588, 1.0 ],
									"compatibility" : 1,
									"candicane7" : [ 0.878431, 0.243137, 0.145098, 1.0 ],
									"numinlets" : 1,
									"setminmax" : [ 0.0, 1.0 ],
									"candicane2" : [ 0.145098, 0.203922, 0.356863, 1.0 ],
									"candicane5" : [ 0.584314, 0.827451, 0.431373, 1.0 ],
									"numoutlets" : 2,
									"patching_rect" : [ 237.0, 162.0, 232.0, 51.0 ],
									"size" : 20,
									"candicane8" : [ 0.027451, 0.447059, 0.501961, 1.0 ],
									"id" : "obj-7"
								}

							}
, 							{
								"box" : 								{
									"maxclass" : "outlet",
									"numinlets" : 1,
									"numoutlets" : 0,
									"patching_rect" : [ 46.0, 180.0, 15.0, 15.0 ],
									"id" : "obj-8",
									"comment" : ""
								}

							}
, 							{
								"box" : 								{
									"maxclass" : "outlet",
									"numinlets" : 1,
									"numoutlets" : 0,
									"patching_rect" : [ 29.0, 180.0, 15.0, 15.0 ],
									"id" : "obj-9",
									"comment" : ""
								}

							}
, 							{
								"box" : 								{
									"maxclass" : "newobj",
									"text" : "biquad~ 0.329295 -0.425046 0.105002 -1.562412 0.571663",
									"outlettype" : [ "signal" ],
									"fontsize" : 9.0,
									"numinlets" : 6,
									"fontname" : "Arial",
									"numoutlets" : 1,
									"patching_rect" : [ 46.0, 97.0, 292.0, 17.0 ],
									"id" : "obj-10"
								}

							}
, 							{
								"box" : 								{
									"maxclass" : "newobj",
									"text" : "biquad~ 0.329295 -0.425046 0.105002 -1.562412 0.571663",
									"outlettype" : [ "signal" ],
									"fontsize" : 9.0,
									"numinlets" : 6,
									"fontname" : "Arial",
									"numoutlets" : 1,
									"patching_rect" : [ 29.0, 79.0, 292.0, 17.0 ],
									"id" : "obj-11"
								}

							}
, 							{
								"box" : 								{
									"maxclass" : "inlet",
									"outlettype" : [ "signal" ],
									"numinlets" : 0,
									"numoutlets" : 1,
									"patching_rect" : [ 80.0, 33.0, 15.0, 15.0 ],
									"id" : "obj-12",
									"comment" : ""
								}

							}
, 							{
								"box" : 								{
									"maxclass" : "inlet",
									"outlettype" : [ "signal" ],
									"numinlets" : 0,
									"numoutlets" : 1,
									"patching_rect" : [ 63.0, 33.0, 15.0, 15.0 ],
									"id" : "obj-13",
									"comment" : ""
								}

							}
, 							{
								"box" : 								{
									"maxclass" : "inlet",
									"outlettype" : [ "signal" ],
									"numinlets" : 0,
									"numoutlets" : 1,
									"patching_rect" : [ 46.0, 33.0, 15.0, 15.0 ],
									"id" : "obj-14",
									"comment" : ""
								}

							}
, 							{
								"box" : 								{
									"maxclass" : "inlet",
									"outlettype" : [ "signal" ],
									"numinlets" : 0,
									"numoutlets" : 1,
									"patching_rect" : [ 29.0, 33.0, 15.0, 15.0 ],
									"id" : "obj-15",
									"comment" : ""
								}

							}
, 							{
								"box" : 								{
									"maxclass" : "comment",
									"text" : "low pass filters whose freq response looks something like this:",
									"linecount" : 3,
									"fontsize" : 9.0,
									"frgb" : [ 0.0, 0.0, 0.0, 1.0 ],
									"numinlets" : 1,
									"fontname" : "Arial",
									"numoutlets" : 0,
									"patching_rect" : [ 101.0, 170.0, 128.0, 38.0 ],
									"id" : "obj-16"
								}

							}
, 							{
								"box" : 								{
									"maxclass" : "comment",
									"text" : "0 Hz",
									"fontsize" : 9.0,
									"frgb" : [ 0.0, 0.0, 0.0, 1.0 ],
									"numinlets" : 1,
									"fontname" : "Arial",
									"numoutlets" : 0,
									"patching_rect" : [ 237.0, 214.0, 28.0, 17.0 ],
									"id" : "obj-17"
								}

							}
, 							{
								"box" : 								{
									"maxclass" : "comment",
									"text" : "22kHz",
									"fontsize" : 9.0,
									"frgb" : [ 0.0, 0.0, 0.0, 1.0 ],
									"numinlets" : 1,
									"fontname" : "Arial",
									"numoutlets" : 0,
									"patching_rect" : [ 459.0, 215.0, 35.0, 17.0 ],
									"id" : "obj-18"
								}

							}
, 							{
								"box" : 								{
									"maxclass" : "comment",
									"text" : "11kHz",
									"fontsize" : 9.0,
									"frgb" : [ 0.0, 0.0, 0.0, 1.0 ],
									"numinlets" : 1,
									"fontname" : "Arial",
									"numoutlets" : 0,
									"patching_rect" : [ 339.0, 215.0, 35.0, 17.0 ],
									"id" : "obj-19"
								}

							}
, 							{
								"box" : 								{
									"maxclass" : "comment",
									"text" : "this filtering can be eliminated if you want to conserve on CPU usage",
									"linecount" : 2,
									"fontsize" : 9.0,
									"frgb" : [ 0.0, 0.0, 0.0, 1.0 ],
									"numinlets" : 1,
									"fontname" : "Arial",
									"numoutlets" : 0,
									"patching_rect" : [ 143.0, 36.0, 178.0, 27.0 ],
									"id" : "obj-20"
								}

							}
 ],
						"lines" : [ 							{
								"patchline" : 								{
									"source" : [ "obj-6", 0 ],
									"destination" : [ "obj-5", 0 ],
									"hidden" : 1,
									"midpoints" : [  ]
								}

							}
, 							{
								"patchline" : 								{
									"source" : [ "obj-5", 0 ],
									"destination" : [ "obj-7", 0 ],
									"hidden" : 1,
									"midpoints" : [  ]
								}

							}
, 							{
								"patchline" : 								{
									"source" : [ "obj-3", 0 ],
									"destination" : [ "obj-1", 0 ],
									"hidden" : 0,
									"midpoints" : [  ]
								}

							}
, 							{
								"patchline" : 								{
									"source" : [ "obj-12", 0 ],
									"destination" : [ "obj-3", 0 ],
									"hidden" : 0,
									"midpoints" : [  ]
								}

							}
, 							{
								"patchline" : 								{
									"source" : [ "obj-4", 0 ],
									"destination" : [ "obj-2", 0 ],
									"hidden" : 0,
									"midpoints" : [  ]
								}

							}
, 							{
								"patchline" : 								{
									"source" : [ "obj-13", 0 ],
									"destination" : [ "obj-4", 0 ],
									"hidden" : 0,
									"midpoints" : [  ]
								}

							}
, 							{
								"patchline" : 								{
									"source" : [ "obj-10", 0 ],
									"destination" : [ "obj-8", 0 ],
									"hidden" : 0,
									"midpoints" : [  ]
								}

							}
, 							{
								"patchline" : 								{
									"source" : [ "obj-14", 0 ],
									"destination" : [ "obj-10", 0 ],
									"hidden" : 0,
									"midpoints" : [  ]
								}

							}
, 							{
								"patchline" : 								{
									"source" : [ "obj-11", 0 ],
									"destination" : [ "obj-9", 0 ],
									"hidden" : 0,
									"midpoints" : [  ]
								}

							}
, 							{
								"patchline" : 								{
									"source" : [ "obj-15", 0 ],
									"destination" : [ "obj-11", 0 ],
									"hidden" : 0,
									"midpoints" : [  ]
								}

							}
 ]
					}
,
					"saved_object_attributes" : 					{
						"fontface" : 0,
						"fontsize" : 12.0,
						"globalpatchername" : "",
						"default_fontface" : 0,
						"fontname" : "Arial",
						"default_fontname" : "Arial",
						"default_fontsize" : 12.0
					}

				}

			}
, 			{
				"box" : 				{
					"maxclass" : "newobj",
					"text" : "p longer_echoes",
					"outlettype" : [ "signal", "signal", "signal", "signal" ],
					"fontsize" : 9.0,
					"numinlets" : 2,
					"fontname" : "Arial",
					"numoutlets" : 4,
					"patching_rect" : [ 16.0, 111.0, 80.0, 17.0 ],
					"id" : "obj-11",
					"patcher" : 					{
						"fileversion" : 1,
						"rect" : [ 308.0, 63.0, 534.0, 544.0 ],
						"bglocked" : 0,
						"defrect" : [ 308.0, 63.0, 534.0, 544.0 ],
						"openrect" : [ 0.0, 0.0, 0.0, 0.0 ],
						"openinpresentation" : 0,
						"default_fontsize" : 12.0,
						"default_fontface" : 0,
						"default_fontname" : "Arial",
						"gridonopen" : 0,
						"gridsize" : [ 15.0, 15.0 ],
						"gridsnaponopen" : 0,
						"toolbarvisible" : 1,
						"boxanimatetime" : 200,
						"imprint" : 0,
						"boxes" : [ 							{
								"box" : 								{
									"maxclass" : "newobj",
									"text" : "+~",
									"outlettype" : [ "signal" ],
									"fontsize" : 9.0,
									"numinlets" : 2,
									"fontname" : "Arial",
									"numoutlets" : 1,
									"patching_rect" : [ 272.0, 228.0, 27.0, 17.0 ],
									"id" : "obj-1"
								}

							}
, 							{
								"box" : 								{
									"maxclass" : "newobj",
									"text" : "-~",
									"outlettype" : [ "signal" ],
									"fontsize" : 9.0,
									"numinlets" : 2,
									"fontname" : "Arial",
									"numoutlets" : 1,
									"patching_rect" : [ 242.0, 228.0, 27.0, 17.0 ],
									"id" : "obj-2"
								}

							}
, 							{
								"box" : 								{
									"maxclass" : "newobj",
									"text" : "comb~ 31.638783 31.638783 0 0.93 0",
									"outlettype" : [ "signal" ],
									"fontsize" : 9.0,
									"numinlets" : 5,
									"fontname" : "Arial",
									"numoutlets" : 1,
									"patching_rect" : [ 242.0, 201.0, 185.0, 17.0 ],
									"id" : "obj-3"
								}

							}
, 							{
								"box" : 								{
									"maxclass" : "newobj",
									"text" : "+~",
									"outlettype" : [ "signal" ],
									"fontsize" : 9.0,
									"numinlets" : 2,
									"fontname" : "Arial",
									"numoutlets" : 1,
									"patching_rect" : [ 272.0, 171.0, 27.0, 17.0 ],
									"id" : "obj-4"
								}

							}
, 							{
								"box" : 								{
									"maxclass" : "newobj",
									"text" : "-~",
									"outlettype" : [ "signal" ],
									"fontsize" : 9.0,
									"numinlets" : 2,
									"fontname" : "Arial",
									"numoutlets" : 1,
									"patching_rect" : [ 242.0, 171.0, 27.0, 17.0 ],
									"id" : "obj-5"
								}

							}
, 							{
								"box" : 								{
									"maxclass" : "newobj",
									"text" : "comb~ 48.167542 48.167542 0 0.76 0",
									"outlettype" : [ "signal" ],
									"fontsize" : 9.0,
									"numinlets" : 5,
									"fontname" : "Arial",
									"numoutlets" : 1,
									"patching_rect" : [ 242.0, 144.0, 185.0, 17.0 ],
									"id" : "obj-6"
								}

							}
, 							{
								"box" : 								{
									"maxclass" : "newobj",
									"text" : "+~",
									"outlettype" : [ "signal" ],
									"fontsize" : 9.0,
									"numinlets" : 2,
									"fontname" : "Arial",
									"numoutlets" : 1,
									"patching_rect" : [ 272.0, 110.0, 27.0, 17.0 ],
									"id" : "obj-7"
								}

							}
, 							{
								"box" : 								{
									"maxclass" : "newobj",
									"text" : "-~",
									"outlettype" : [ "signal" ],
									"fontsize" : 9.0,
									"numinlets" : 2,
									"fontname" : "Arial",
									"numoutlets" : 1,
									"patching_rect" : [ 242.0, 110.0, 27.0, 17.0 ],
									"id" : "obj-8"
								}

							}
, 							{
								"box" : 								{
									"maxclass" : "newobj",
									"text" : "comb~ 68.497551 68.497551 0 0.74 0",
									"outlettype" : [ "signal" ],
									"fontsize" : 9.0,
									"numinlets" : 5,
									"fontname" : "Arial",
									"numoutlets" : 1,
									"patching_rect" : [ 242.0, 83.0, 185.0, 17.0 ],
									"id" : "obj-9"
								}

							}
, 							{
								"box" : 								{
									"maxclass" : "newobj",
									"text" : "comb~ 23.597775 23.597775 0 0.98 0",
									"outlettype" : [ "signal" ],
									"fontsize" : 9.0,
									"numinlets" : 5,
									"fontname" : "Arial",
									"numoutlets" : 1,
									"patching_rect" : [ 242.0, 401.0, 185.0, 17.0 ],
									"id" : "obj-10"
								}

							}
, 							{
								"box" : 								{
									"maxclass" : "outlet",
									"numinlets" : 1,
									"numoutlets" : 0,
									"patching_rect" : [ 272.0, 428.0, 15.0, 15.0 ],
									"id" : "obj-11",
									"comment" : ""
								}

							}
, 							{
								"box" : 								{
									"maxclass" : "outlet",
									"numinlets" : 1,
									"numoutlets" : 0,
									"patching_rect" : [ 242.0, 428.0, 15.0, 15.0 ],
									"id" : "obj-12",
									"comment" : ""
								}

							}
, 							{
								"box" : 								{
									"maxclass" : "inlet",
									"outlettype" : [ "signal" ],
									"numinlets" : 0,
									"numoutlets" : 1,
									"patching_rect" : [ 77.0, 25.0, 15.0, 15.0 ],
									"id" : "obj-13",
									"comment" : ""
								}

							}
, 							{
								"box" : 								{
									"maxclass" : "newobj",
									"text" : "+~",
									"outlettype" : [ "signal" ],
									"fontsize" : 9.0,
									"numinlets" : 2,
									"fontname" : "Arial",
									"numoutlets" : 1,
									"patching_rect" : [ 60.0, 228.0, 27.0, 17.0 ],
									"id" : "obj-14"
								}

							}
, 							{
								"box" : 								{
									"maxclass" : "newobj",
									"text" : "-~",
									"outlettype" : [ "signal" ],
									"fontsize" : 9.0,
									"numinlets" : 2,
									"fontname" : "Arial",
									"numoutlets" : 1,
									"patching_rect" : [ 29.0, 228.0, 27.0, 17.0 ],
									"id" : "obj-15"
								}

							}
, 							{
								"box" : 								{
									"maxclass" : "newobj",
									"text" : "comb~ 34.771645 34.771645 0 0.87 0",
									"outlettype" : [ "signal" ],
									"fontsize" : 9.0,
									"numinlets" : 5,
									"fontname" : "Arial",
									"numoutlets" : 1,
									"patching_rect" : [ 29.0, 201.0, 185.0, 17.0 ],
									"id" : "obj-16"
								}

							}
, 							{
								"box" : 								{
									"maxclass" : "newobj",
									"text" : "+~",
									"outlettype" : [ "signal" ],
									"fontsize" : 9.0,
									"numinlets" : 2,
									"fontname" : "Arial",
									"numoutlets" : 1,
									"patching_rect" : [ 60.0, 171.0, 27.0, 17.0 ],
									"id" : "obj-17"
								}

							}
, 							{
								"box" : 								{
									"maxclass" : "newobj",
									"text" : "-~",
									"outlettype" : [ "signal" ],
									"fontsize" : 9.0,
									"numinlets" : 2,
									"fontname" : "Arial",
									"numoutlets" : 1,
									"patching_rect" : [ 29.0, 171.0, 27.0, 17.0 ],
									"id" : "obj-18"
								}

							}
, 							{
								"box" : 								{
									"maxclass" : "newobj",
									"text" : "comb~ 41.89465 41.89465 0 0.83 0",
									"outlettype" : [ "signal" ],
									"fontsize" : 9.0,
									"numinlets" : 5,
									"fontname" : "Arial",
									"numoutlets" : 1,
									"patching_rect" : [ 29.0, 144.0, 175.0, 17.0 ],
									"id" : "obj-19"
								}

							}
, 							{
								"box" : 								{
									"maxclass" : "newobj",
									"text" : "+~",
									"outlettype" : [ "signal" ],
									"fontsize" : 9.0,
									"numinlets" : 2,
									"fontname" : "Arial",
									"numoutlets" : 1,
									"patching_rect" : [ 60.0, 110.0, 27.0, 17.0 ],
									"id" : "obj-20"
								}

							}
, 							{
								"box" : 								{
									"maxclass" : "newobj",
									"text" : "-~",
									"outlettype" : [ "signal" ],
									"fontsize" : 9.0,
									"numinlets" : 2,
									"fontname" : "Arial",
									"numoutlets" : 1,
									"patching_rect" : [ 29.0, 110.0, 27.0, 17.0 ],
									"id" : "obj-21"
								}

							}
, 							{
								"box" : 								{
									"maxclass" : "newobj",
									"text" : "comb~ 72.877129 72.877129 0 0.69 0",
									"outlettype" : [ "signal" ],
									"fontsize" : 9.0,
									"numinlets" : 5,
									"fontname" : "Arial",
									"numoutlets" : 1,
									"patching_rect" : [ 29.0, 83.0, 185.0, 17.0 ],
									"id" : "obj-22"
								}

							}
, 							{
								"box" : 								{
									"maxclass" : "newobj",
									"text" : "comb~ 21.524687 21.524687 0 0.99 0",
									"outlettype" : [ "signal" ],
									"fontsize" : 9.0,
									"numinlets" : 5,
									"fontname" : "Arial",
									"numoutlets" : 1,
									"patching_rect" : [ 29.0, 401.0, 185.0, 17.0 ],
									"id" : "obj-23"
								}

							}
, 							{
								"box" : 								{
									"maxclass" : "outlet",
									"numinlets" : 1,
									"numoutlets" : 0,
									"patching_rect" : [ 60.0, 428.0, 15.0, 15.0 ],
									"id" : "obj-24",
									"comment" : ""
								}

							}
, 							{
								"box" : 								{
									"maxclass" : "outlet",
									"numinlets" : 1,
									"numoutlets" : 0,
									"patching_rect" : [ 29.0, 428.0, 15.0, 15.0 ],
									"id" : "obj-25",
									"comment" : ""
								}

							}
, 							{
								"box" : 								{
									"maxclass" : "inlet",
									"outlettype" : [ "signal" ],
									"numinlets" : 0,
									"numoutlets" : 1,
									"patching_rect" : [ 29.0, 25.0, 15.0, 15.0 ],
									"id" : "obj-26",
									"comment" : ""
								}

							}
, 							{
								"box" : 								{
									"maxclass" : "comment",
									"text" : "<--add more reflections here if desired -->",
									"fontsize" : 9.0,
									"frgb" : [ 0.0, 0.0, 0.0, 1.0 ],
									"numinlets" : 1,
									"fontname" : "Arial",
									"numoutlets" : 0,
									"patching_rect" : [ 117.0, 322.0, 203.0, 17.0 ],
									"id" : "obj-27"
								}

							}
, 							{
								"box" : 								{
									"maxclass" : "comment",
									"text" : "this right column of delays may be eliminated for a cheaper reverb",
									"linecount" : 2,
									"fontsize" : 9.0,
									"frgb" : [ 0.0, 0.0, 0.0, 1.0 ],
									"numinlets" : 1,
									"fontname" : "Arial",
									"numoutlets" : 0,
									"patching_rect" : [ 242.0, 44.0, 160.0, 27.0 ],
									"id" : "obj-28"
								}

							}
 ],
						"lines" : [ 							{
								"patchline" : 								{
									"source" : [ "obj-4", 0 ],
									"destination" : [ "obj-1", 1 ],
									"hidden" : 0,
									"midpoints" : [  ]
								}

							}
, 							{
								"patchline" : 								{
									"source" : [ "obj-7", 0 ],
									"destination" : [ "obj-4", 1 ],
									"hidden" : 0,
									"midpoints" : [  ]
								}

							}
, 							{
								"patchline" : 								{
									"source" : [ "obj-13", 0 ],
									"destination" : [ "obj-7", 1 ],
									"hidden" : 0,
									"midpoints" : [  ]
								}

							}
, 							{
								"patchline" : 								{
									"source" : [ "obj-1", 0 ],
									"destination" : [ "obj-11", 0 ],
									"hidden" : 0,
									"midpoints" : [  ]
								}

							}
, 							{
								"patchline" : 								{
									"source" : [ "obj-3", 0 ],
									"destination" : [ "obj-1", 0 ],
									"hidden" : 0,
									"midpoints" : [  ]
								}

							}
, 							{
								"patchline" : 								{
									"source" : [ "obj-6", 0 ],
									"destination" : [ "obj-4", 0 ],
									"hidden" : 0,
									"midpoints" : [  ]
								}

							}
, 							{
								"patchline" : 								{
									"source" : [ "obj-9", 0 ],
									"destination" : [ "obj-7", 0 ],
									"hidden" : 0,
									"midpoints" : [  ]
								}

							}
, 							{
								"patchline" : 								{
									"source" : [ "obj-4", 0 ],
									"destination" : [ "obj-2", 1 ],
									"hidden" : 0,
									"midpoints" : [  ]
								}

							}
, 							{
								"patchline" : 								{
									"source" : [ "obj-7", 0 ],
									"destination" : [ "obj-5", 1 ],
									"hidden" : 0,
									"midpoints" : [  ]
								}

							}
, 							{
								"patchline" : 								{
									"source" : [ "obj-13", 0 ],
									"destination" : [ "obj-8", 1 ],
									"hidden" : 0,
									"midpoints" : [  ]
								}

							}
, 							{
								"patchline" : 								{
									"source" : [ "obj-10", 0 ],
									"destination" : [ "obj-12", 0 ],
									"hidden" : 0,
									"midpoints" : [  ]
								}

							}
, 							{
								"patchline" : 								{
									"source" : [ "obj-2", 0 ],
									"destination" : [ "obj-10", 0 ],
									"hidden" : 0,
									"midpoints" : [  ]
								}

							}
, 							{
								"patchline" : 								{
									"source" : [ "obj-3", 0 ],
									"destination" : [ "obj-2", 0 ],
									"hidden" : 0,
									"midpoints" : [  ]
								}

							}
, 							{
								"patchline" : 								{
									"source" : [ "obj-5", 0 ],
									"destination" : [ "obj-3", 0 ],
									"hidden" : 0,
									"midpoints" : [  ]
								}

							}
, 							{
								"patchline" : 								{
									"source" : [ "obj-6", 0 ],
									"destination" : [ "obj-5", 0 ],
									"hidden" : 0,
									"midpoints" : [  ]
								}

							}
, 							{
								"patchline" : 								{
									"source" : [ "obj-8", 0 ],
									"destination" : [ "obj-6", 0 ],
									"hidden" : 0,
									"midpoints" : [  ]
								}

							}
, 							{
								"patchline" : 								{
									"source" : [ "obj-9", 0 ],
									"destination" : [ "obj-8", 0 ],
									"hidden" : 0,
									"midpoints" : [  ]
								}

							}
, 							{
								"patchline" : 								{
									"source" : [ "obj-26", 0 ],
									"destination" : [ "obj-9", 0 ],
									"hidden" : 0,
									"midpoints" : [  ]
								}

							}
, 							{
								"patchline" : 								{
									"source" : [ "obj-17", 0 ],
									"destination" : [ "obj-14", 1 ],
									"hidden" : 0,
									"midpoints" : [  ]
								}

							}
, 							{
								"patchline" : 								{
									"source" : [ "obj-20", 0 ],
									"destination" : [ "obj-17", 1 ],
									"hidden" : 0,
									"midpoints" : [  ]
								}

							}
, 							{
								"patchline" : 								{
									"source" : [ "obj-13", 0 ],
									"destination" : [ "obj-20", 1 ],
									"hidden" : 0,
									"midpoints" : [  ]
								}

							}
, 							{
								"patchline" : 								{
									"source" : [ "obj-14", 0 ],
									"destination" : [ "obj-24", 0 ],
									"hidden" : 0,
									"midpoints" : [  ]
								}

							}
, 							{
								"patchline" : 								{
									"source" : [ "obj-16", 0 ],
									"destination" : [ "obj-14", 0 ],
									"hidden" : 0,
									"midpoints" : [  ]
								}

							}
, 							{
								"patchline" : 								{
									"source" : [ "obj-19", 0 ],
									"destination" : [ "obj-17", 0 ],
									"hidden" : 0,
									"midpoints" : [  ]
								}

							}
, 							{
								"patchline" : 								{
									"source" : [ "obj-22", 0 ],
									"destination" : [ "obj-20", 0 ],
									"hidden" : 0,
									"midpoints" : [  ]
								}

							}
, 							{
								"patchline" : 								{
									"source" : [ "obj-17", 0 ],
									"destination" : [ "obj-15", 1 ],
									"hidden" : 0,
									"midpoints" : [  ]
								}

							}
, 							{
								"patchline" : 								{
									"source" : [ "obj-20", 0 ],
									"destination" : [ "obj-18", 1 ],
									"hidden" : 0,
									"midpoints" : [  ]
								}

							}
, 							{
								"patchline" : 								{
									"source" : [ "obj-13", 0 ],
									"destination" : [ "obj-21", 1 ],
									"hidden" : 0,
									"midpoints" : [  ]
								}

							}
, 							{
								"patchline" : 								{
									"source" : [ "obj-23", 0 ],
									"destination" : [ "obj-25", 0 ],
									"hidden" : 0,
									"midpoints" : [  ]
								}

							}
, 							{
								"patchline" : 								{
									"source" : [ "obj-15", 0 ],
									"destination" : [ "obj-23", 0 ],
									"hidden" : 0,
									"midpoints" : [  ]
								}

							}
, 							{
								"patchline" : 								{
									"source" : [ "obj-16", 0 ],
									"destination" : [ "obj-15", 0 ],
									"hidden" : 0,
									"midpoints" : [  ]
								}

							}
, 							{
								"patchline" : 								{
									"source" : [ "obj-18", 0 ],
									"destination" : [ "obj-16", 0 ],
									"hidden" : 0,
									"midpoints" : [  ]
								}

							}
, 							{
								"patchline" : 								{
									"source" : [ "obj-19", 0 ],
									"destination" : [ "obj-18", 0 ],
									"hidden" : 0,
									"midpoints" : [  ]
								}

							}
, 							{
								"patchline" : 								{
									"source" : [ "obj-21", 0 ],
									"destination" : [ "obj-19", 0 ],
									"hidden" : 0,
									"midpoints" : [  ]
								}

							}
, 							{
								"patchline" : 								{
									"source" : [ "obj-22", 0 ],
									"destination" : [ "obj-21", 0 ],
									"hidden" : 0,
									"midpoints" : [  ]
								}

							}
, 							{
								"patchline" : 								{
									"source" : [ "obj-26", 0 ],
									"destination" : [ "obj-22", 0 ],
									"hidden" : 0,
									"midpoints" : [  ]
								}

							}
 ]
					}
,
					"saved_object_attributes" : 					{
						"fontface" : 0,
						"fontsize" : 12.0,
						"globalpatchername" : "",
						"default_fontface" : 0,
						"fontname" : "Arial",
						"default_fontname" : "Arial",
						"default_fontsize" : 12.0
					}

				}

			}
, 			{
				"box" : 				{
					"maxclass" : "newobj",
					"text" : "p first_echoes",
					"outlettype" : [ "signal", "signal" ],
					"fontsize" : 9.0,
					"numinlets" : 1,
					"fontname" : "Arial",
					"numoutlets" : 2,
					"patching_rect" : [ 16.0, 60.0, 80.0, 17.0 ],
					"id" : "obj-12",
					"patcher" : 					{
						"fileversion" : 1,
						"rect" : [ 210.0, 52.0, 331.0, 573.0 ],
						"bglocked" : 0,
						"defrect" : [ 210.0, 52.0, 331.0, 573.0 ],
						"openrect" : [ 0.0, 0.0, 0.0, 0.0 ],
						"openinpresentation" : 0,
						"default_fontsize" : 12.0,
						"default_fontface" : 0,
						"default_fontname" : "Arial",
						"gridonopen" : 0,
						"gridsize" : [ 15.0, 15.0 ],
						"gridsnaponopen" : 0,
						"toolbarvisible" : 1,
						"boxanimatetime" : 200,
						"imprint" : 0,
						"boxes" : [ 							{
								"box" : 								{
									"maxclass" : "newobj",
									"text" : "comb~ 9.65 9.65 0 1 0",
									"outlettype" : [ "signal" ],
									"fontsize" : 9.0,
									"numinlets" : 5,
									"fontname" : "Arial",
									"numoutlets" : 1,
									"patching_rect" : [ 23.0, 430.0, 160.0, 17.0 ],
									"id" : "obj-1"
								}

							}
, 							{
								"box" : 								{
									"maxclass" : "newobj",
									"text" : "+~",
									"outlettype" : [ "signal" ],
									"fontsize" : 9.0,
									"numinlets" : 2,
									"fontname" : "Arial",
									"numoutlets" : 1,
									"patching_rect" : [ 52.0, 239.0, 27.0, 17.0 ],
									"id" : "obj-2"
								}

							}
, 							{
								"box" : 								{
									"maxclass" : "newobj",
									"text" : "-~",
									"outlettype" : [ "signal" ],
									"fontsize" : 9.0,
									"numinlets" : 2,
									"fontname" : "Arial",
									"numoutlets" : 1,
									"patching_rect" : [ 23.0, 239.0, 27.0, 17.0 ],
									"id" : "obj-3"
								}

							}
, 							{
								"box" : 								{
									"maxclass" : "newobj",
									"text" : "comb~ 11.375587 11.375587 0 0.86 0",
									"outlettype" : [ "signal" ],
									"fontsize" : 9.0,
									"numinlets" : 5,
									"fontname" : "Arial",
									"numoutlets" : 1,
									"patching_rect" : [ 23.0, 212.0, 185.0, 17.0 ],
									"id" : "obj-4"
								}

							}
, 							{
								"box" : 								{
									"maxclass" : "newobj",
									"text" : "+~",
									"outlettype" : [ "signal" ],
									"fontsize" : 9.0,
									"numinlets" : 2,
									"fontname" : "Arial",
									"numoutlets" : 1,
									"patching_rect" : [ 52.0, 175.0, 27.0, 17.0 ],
									"id" : "obj-5"
								}

							}
, 							{
								"box" : 								{
									"maxclass" : "newobj",
									"text" : "-~",
									"outlettype" : [ "signal" ],
									"fontsize" : 9.0,
									"numinlets" : 2,
									"fontname" : "Arial",
									"numoutlets" : 1,
									"patching_rect" : [ 23.0, 175.0, 27.0, 17.0 ],
									"id" : "obj-6"
								}

							}
, 							{
								"box" : 								{
									"maxclass" : "newobj",
									"text" : "comb~ 14.788641 14.788641 0 0.93 0",
									"outlettype" : [ "signal" ],
									"fontsize" : 9.0,
									"numinlets" : 5,
									"fontname" : "Arial",
									"numoutlets" : 1,
									"patching_rect" : [ 23.0, 148.0, 185.0, 17.0 ],
									"id" : "obj-7"
								}

							}
, 							{
								"box" : 								{
									"maxclass" : "newobj",
									"text" : "+~",
									"outlettype" : [ "signal" ],
									"fontsize" : 9.0,
									"numinlets" : 2,
									"fontname" : "Arial",
									"numoutlets" : 1,
									"patching_rect" : [ 52.0, 110.0, 27.0, 17.0 ],
									"id" : "obj-8"
								}

							}
, 							{
								"box" : 								{
									"maxclass" : "newobj",
									"text" : "-~",
									"outlettype" : [ "signal" ],
									"fontsize" : 9.0,
									"numinlets" : 2,
									"fontname" : "Arial",
									"numoutlets" : 1,
									"patching_rect" : [ 23.0, 110.0, 27.0, 17.0 ],
									"id" : "obj-9"
								}

							}
, 							{
								"box" : 								{
									"maxclass" : "newobj",
									"text" : "comb~ 17.675589 17.675589 0 0.78 0",
									"outlettype" : [ "signal" ],
									"fontsize" : 9.0,
									"numinlets" : 5,
									"fontname" : "Arial",
									"numoutlets" : 1,
									"patching_rect" : [ 23.0, 83.0, 185.0, 17.0 ],
									"id" : "obj-10"
								}

							}
, 							{
								"box" : 								{
									"maxclass" : "outlet",
									"numinlets" : 1,
									"numoutlets" : 0,
									"patching_rect" : [ 52.0, 461.0, 15.0, 15.0 ],
									"id" : "obj-11",
									"comment" : ""
								}

							}
, 							{
								"box" : 								{
									"maxclass" : "outlet",
									"numinlets" : 1,
									"numoutlets" : 0,
									"patching_rect" : [ 23.0, 461.0, 15.0, 15.0 ],
									"id" : "obj-12",
									"comment" : ""
								}

							}
, 							{
								"box" : 								{
									"maxclass" : "inlet",
									"outlettype" : [ "" ],
									"numinlets" : 0,
									"numoutlets" : 1,
									"patching_rect" : [ 23.0, 25.0, 15.0, 15.0 ],
									"id" : "obj-13",
									"comment" : ""
								}

							}
, 							{
								"box" : 								{
									"maxclass" : "comment",
									"text" : "<-- add more early reflections here if desired",
									"linecount" : 3,
									"fontsize" : 9.0,
									"frgb" : [ 0.0, 0.0, 0.0, 1.0 ],
									"numinlets" : 1,
									"fontname" : "Arial",
									"numoutlets" : 0,
									"patching_rect" : [ 119.0, 322.0, 100.0, 38.0 ],
									"id" : "obj-14"
								}

							}
 ],
						"lines" : [ 							{
								"patchline" : 								{
									"source" : [ "obj-5", 0 ],
									"destination" : [ "obj-2", 1 ],
									"hidden" : 0,
									"midpoints" : [  ]
								}

							}
, 							{
								"patchline" : 								{
									"source" : [ "obj-8", 0 ],
									"destination" : [ "obj-5", 1 ],
									"hidden" : 0,
									"midpoints" : [  ]
								}

							}
, 							{
								"patchline" : 								{
									"source" : [ "obj-13", 0 ],
									"destination" : [ "obj-8", 1 ],
									"hidden" : 0,
									"midpoints" : [  ]
								}

							}
, 							{
								"patchline" : 								{
									"source" : [ "obj-2", 0 ],
									"destination" : [ "obj-11", 0 ],
									"hidden" : 0,
									"midpoints" : [  ]
								}

							}
, 							{
								"patchline" : 								{
									"source" : [ "obj-4", 0 ],
									"destination" : [ "obj-2", 0 ],
									"hidden" : 0,
									"midpoints" : [  ]
								}

							}
, 							{
								"patchline" : 								{
									"source" : [ "obj-7", 0 ],
									"destination" : [ "obj-5", 0 ],
									"hidden" : 0,
									"midpoints" : [  ]
								}

							}
, 							{
								"patchline" : 								{
									"source" : [ "obj-10", 0 ],
									"destination" : [ "obj-8", 0 ],
									"hidden" : 0,
									"midpoints" : [  ]
								}

							}
, 							{
								"patchline" : 								{
									"source" : [ "obj-5", 0 ],
									"destination" : [ "obj-3", 1 ],
									"hidden" : 0,
									"midpoints" : [  ]
								}

							}
, 							{
								"patchline" : 								{
									"source" : [ "obj-8", 0 ],
									"destination" : [ "obj-6", 1 ],
									"hidden" : 0,
									"midpoints" : [  ]
								}

							}
, 							{
								"patchline" : 								{
									"source" : [ "obj-13", 0 ],
									"destination" : [ "obj-9", 1 ],
									"hidden" : 0,
									"midpoints" : [  ]
								}

							}
, 							{
								"patchline" : 								{
									"source" : [ "obj-1", 0 ],
									"destination" : [ "obj-12", 0 ],
									"hidden" : 0,
									"midpoints" : [  ]
								}

							}
, 							{
								"patchline" : 								{
									"source" : [ "obj-3", 0 ],
									"destination" : [ "obj-1", 0 ],
									"hidden" : 0,
									"midpoints" : [  ]
								}

							}
, 							{
								"patchline" : 								{
									"source" : [ "obj-4", 0 ],
									"destination" : [ "obj-3", 0 ],
									"hidden" : 0,
									"midpoints" : [  ]
								}

							}
, 							{
								"patchline" : 								{
									"source" : [ "obj-6", 0 ],
									"destination" : [ "obj-4", 0 ],
									"hidden" : 0,
									"midpoints" : [  ]
								}

							}
, 							{
								"patchline" : 								{
									"source" : [ "obj-7", 0 ],
									"destination" : [ "obj-6", 0 ],
									"hidden" : 0,
									"midpoints" : [  ]
								}

							}
, 							{
								"patchline" : 								{
									"source" : [ "obj-9", 0 ],
									"destination" : [ "obj-7", 0 ],
									"hidden" : 0,
									"midpoints" : [  ]
								}

							}
, 							{
								"patchline" : 								{
									"source" : [ "obj-10", 0 ],
									"destination" : [ "obj-9", 0 ],
									"hidden" : 0,
									"midpoints" : [  ]
								}

							}
, 							{
								"patchline" : 								{
									"source" : [ "obj-13", 0 ],
									"destination" : [ "obj-10", 0 ],
									"hidden" : 0,
									"midpoints" : [  ]
								}

							}
 ]
					}
,
					"saved_object_attributes" : 					{
						"fontface" : 0,
						"fontsize" : 12.0,
						"globalpatchername" : "",
						"default_fontface" : 0,
						"fontname" : "Arial",
						"default_fontname" : "Arial",
						"default_fontsize" : 12.0
					}

				}

			}
, 			{
				"box" : 				{
					"maxclass" : "message",
					"text" : "$1 20",
					"outlettype" : [ "" ],
					"fontsize" : 9.0,
					"numinlets" : 2,
					"fontname" : "Arial",
					"numoutlets" : 1,
					"patching_rect" : [ 131.0, 127.0, 35.0, 15.0 ],
					"id" : "obj-13"
				}

			}
, 			{
				"box" : 				{
					"maxclass" : "newobj",
					"text" : "p exponential scaling",
					"outlettype" : [ "float" ],
					"fontsize" : 9.0,
					"numinlets" : 1,
					"fontname" : "Arial",
					"numoutlets" : 1,
					"patching_rect" : [ 131.0, 100.0, 101.0, 17.0 ],
					"id" : "obj-14",
					"patcher" : 					{
						"fileversion" : 1,
						"rect" : [ 40.0, 55.0, 310.0, 252.0 ],
						"bglocked" : 0,
						"defrect" : [ 40.0, 55.0, 310.0, 252.0 ],
						"openrect" : [ 0.0, 0.0, 0.0, 0.0 ],
						"openinpresentation" : 0,
						"default_fontsize" : 12.0,
						"default_fontface" : 0,
						"default_fontname" : "Arial",
						"gridonopen" : 0,
						"gridsize" : [ 15.0, 15.0 ],
						"gridsnaponopen" : 0,
						"toolbarvisible" : 1,
						"boxanimatetime" : 200,
						"imprint" : 0,
						"boxes" : [ 							{
								"box" : 								{
									"maxclass" : "newobj",
									"text" : "t f f",
									"outlettype" : [ "float", "float" ],
									"fontsize" : 9.0,
									"numinlets" : 1,
									"fontname" : "Arial",
									"numoutlets" : 2,
									"patching_rect" : [ 50.0, 43.0, 27.0, 17.0 ],
									"id" : "obj-1"
								}

							}
, 							{
								"box" : 								{
									"maxclass" : "newobj",
									"text" : "* 1.",
									"outlettype" : [ "float" ],
									"fontsize" : 9.0,
									"numinlets" : 2,
									"fontname" : "Arial",
									"numoutlets" : 1,
									"patching_rect" : [ 50.0, 118.0, 27.0, 17.0 ],
									"id" : "obj-2"
								}

							}
, 							{
								"box" : 								{
									"maxclass" : "outlet",
									"numinlets" : 1,
									"numoutlets" : 0,
									"patching_rect" : [ 50.0, 148.0, 15.0, 15.0 ],
									"id" : "obj-3",
									"comment" : ""
								}

							}
, 							{
								"box" : 								{
									"maxclass" : "newobj",
									"text" : "> 0.5",
									"outlettype" : [ "int" ],
									"fontsize" : 9.0,
									"numinlets" : 2,
									"fontname" : "Arial",
									"numoutlets" : 1,
									"patching_rect" : [ 67.0, 67.0, 31.0, 17.0 ],
									"id" : "obj-4"
								}

							}
, 							{
								"box" : 								{
									"maxclass" : "newobj",
									"text" : "expr 0.000612 * (exp($f1*0.058269))",
									"outlettype" : [ "" ],
									"fontsize" : 9.0,
									"numinlets" : 1,
									"fontname" : "Arial",
									"numoutlets" : 1,
									"patching_rect" : [ 50.0, 95.0, 190.0, 17.0 ],
									"id" : "obj-5"
								}

							}
, 							{
								"box" : 								{
									"maxclass" : "inlet",
									"outlettype" : [ "" ],
									"numinlets" : 0,
									"numoutlets" : 1,
									"patching_rect" : [ 50.0, 18.0, 15.0, 15.0 ],
									"id" : "obj-6",
									"comment" : ""
								}

							}
 ],
						"lines" : [ 							{
								"patchline" : 								{
									"source" : [ "obj-4", 0 ],
									"destination" : [ "obj-2", 1 ],
									"hidden" : 0,
									"midpoints" : [  ]
								}

							}
, 							{
								"patchline" : 								{
									"source" : [ "obj-1", 1 ],
									"destination" : [ "obj-4", 0 ],
									"hidden" : 0,
									"midpoints" : [  ]
								}

							}
, 							{
								"patchline" : 								{
									"source" : [ "obj-2", 0 ],
									"destination" : [ "obj-3", 0 ],
									"hidden" : 0,
									"midpoints" : [  ]
								}

							}
, 							{
								"patchline" : 								{
									"source" : [ "obj-5", 0 ],
									"destination" : [ "obj-2", 0 ],
									"hidden" : 0,
									"midpoints" : [  ]
								}

							}
, 							{
								"patchline" : 								{
									"source" : [ "obj-1", 0 ],
									"destination" : [ "obj-5", 0 ],
									"hidden" : 0,
									"midpoints" : [  ]
								}

							}
, 							{
								"patchline" : 								{
									"source" : [ "obj-6", 0 ],
									"destination" : [ "obj-1", 0 ],
									"hidden" : 0,
									"midpoints" : [  ]
								}

							}
 ]
					}
,
					"saved_object_attributes" : 					{
						"fontface" : 0,
						"fontsize" : 12.0,
						"globalpatchername" : "",
						"default_fontface" : 0,
						"fontname" : "Arial",
						"default_fontname" : "Arial",
						"default_fontsize" : 12.0
					}

				}

			}
, 			{
				"box" : 				{
					"maxclass" : "inlet",
					"outlettype" : [ "" ],
					"numinlets" : 0,
					"numoutlets" : 1,
					"patching_rect" : [ 131.0, 24.0, 15.0, 15.0 ],
					"id" : "obj-15",
					"comment" : "Reverb Time (0 - 127)"
				}

			}
, 			{
				"box" : 				{
					"maxclass" : "message",
					"text" : "$1 40",
					"outlettype" : [ "" ],
					"fontsize" : 9.0,
					"numinlets" : 2,
					"fontname" : "Arial",
					"numoutlets" : 1,
					"patching_rect" : [ 241.0, 127.0, 35.0, 15.0 ],
					"id" : "obj-16"
				}

			}
, 			{
				"box" : 				{
					"maxclass" : "newobj",
					"text" : "/ 255.",
					"outlettype" : [ "float" ],
					"fontsize" : 9.0,
					"numinlets" : 2,
					"fontname" : "Arial",
					"numoutlets" : 1,
					"patching_rect" : [ 241.0, 100.0, 38.0, 17.0 ],
					"id" : "obj-17"
				}

			}
, 			{
				"box" : 				{
					"maxclass" : "inlet",
					"outlettype" : [ "" ],
					"numinlets" : 0,
					"numoutlets" : 1,
					"patching_rect" : [ 241.0, 24.0, 15.0, 15.0 ],
					"id" : "obj-18",
					"comment" : "Output Level (0 - 127)"
				}

			}
, 			{
				"box" : 				{
					"maxclass" : "newobj",
					"text" : "line~",
					"outlettype" : [ "signal", "bang" ],
					"fontsize" : 9.0,
					"numinlets" : 2,
					"fontname" : "Arial",
					"numoutlets" : 2,
					"patching_rect" : [ 131.0, 332.0, 30.0, 17.0 ],
					"id" : "obj-19"
				}

			}
, 			{
				"box" : 				{
					"maxclass" : "newobj",
					"text" : "*~",
					"outlettype" : [ "signal" ],
					"fontsize" : 9.0,
					"numinlets" : 2,
					"fontname" : "Arial",
					"numoutlets" : 1,
					"patching_rect" : [ 85.0, 365.0, 27.0, 17.0 ],
					"id" : "obj-20"
				}

			}
, 			{
				"box" : 				{
					"maxclass" : "newobj",
					"text" : "*~",
					"outlettype" : [ "signal" ],
					"fontsize" : 9.0,
					"numinlets" : 2,
					"fontname" : "Arial",
					"numoutlets" : 1,
					"patching_rect" : [ 114.0, 365.0, 27.0, 17.0 ],
					"id" : "obj-21"
				}

			}
, 			{
				"box" : 				{
					"maxclass" : "outlet",
					"numinlets" : 1,
					"numoutlets" : 0,
					"patching_rect" : [ 114.0, 393.0, 15.0, 15.0 ],
					"id" : "obj-22",
					"comment" : "Reverb Out (Ch 2)"
				}

			}
, 			{
				"box" : 				{
					"maxclass" : "outlet",
					"numinlets" : 1,
					"numoutlets" : 0,
					"patching_rect" : [ 85.0, 393.0, 15.0, 15.0 ],
					"id" : "obj-23",
					"comment" : "Reverb Out (Ch 1)"
				}

			}
, 			{
				"box" : 				{
					"maxclass" : "inlet",
					"outlettype" : [ "" ],
					"numinlets" : 0,
					"numoutlets" : 1,
					"patching_rect" : [ 16.0, 24.0, 15.0, 15.0 ],
					"id" : "obj-24",
					"comment" : "Input Signal"
				}

			}
 ],
		"lines" : [ 			{
				"patchline" : 				{
					"source" : [ "obj-16", 0 ],
					"destination" : [ "obj-6", 4 ],
					"hidden" : 0,
					"midpoints" : [  ]
				}

			}
, 			{
				"patchline" : 				{
					"source" : [ "obj-17", 0 ],
					"destination" : [ "obj-16", 0 ],
					"hidden" : 0,
					"midpoints" : [  ]
				}

			}
, 			{
				"patchline" : 				{
					"source" : [ "obj-18", 0 ],
					"destination" : [ "obj-17", 0 ],
					"hidden" : 0,
					"midpoints" : [  ]
				}

			}
, 			{
				"patchline" : 				{
					"source" : [ "obj-9", 3 ],
					"destination" : [ "obj-6", 3 ],
					"hidden" : 0,
					"midpoints" : [  ]
				}

			}
, 			{
				"patchline" : 				{
					"source" : [ "obj-4", 0 ],
					"destination" : [ "obj-9", 3 ],
					"hidden" : 0,
					"midpoints" : [  ]
				}

			}
, 			{
				"patchline" : 				{
					"source" : [ "obj-9", 2 ],
					"destination" : [ "obj-6", 2 ],
					"hidden" : 0,
					"midpoints" : [  ]
				}

			}
, 			{
				"patchline" : 				{
					"source" : [ "obj-5", 0 ],
					"destination" : [ "obj-9", 2 ],
					"hidden" : 0,
					"midpoints" : [  ]
				}

			}
, 			{
				"patchline" : 				{
					"source" : [ "obj-6", 0 ],
					"destination" : [ "obj-4", 1 ],
					"hidden" : 0,
					"midpoints" : [ 154.5, 311.0, 276.0, 311.0, 276.0, 174.0, 189.5, 174.0 ]
				}

			}
, 			{
				"patchline" : 				{
					"source" : [ "obj-10", 3 ],
					"destination" : [ "obj-4", 0 ],
					"hidden" : 0,
					"midpoints" : [  ]
				}

			}
, 			{
				"patchline" : 				{
					"source" : [ "obj-9", 1 ],
					"destination" : [ "obj-6", 1 ],
					"hidden" : 0,
					"midpoints" : [  ]
				}

			}
, 			{
				"patchline" : 				{
					"source" : [ "obj-7", 0 ],
					"destination" : [ "obj-9", 1 ],
					"hidden" : 0,
					"midpoints" : [  ]
				}

			}
, 			{
				"patchline" : 				{
					"source" : [ "obj-6", 1 ],
					"destination" : [ "obj-5", 1 ],
					"hidden" : 0,
					"midpoints" : [ 183.833328, 319.0, 301.0, 319.0, 301.0, 182.0, 160.5, 182.0 ]
				}

			}
, 			{
				"patchline" : 				{
					"source" : [ "obj-9", 0 ],
					"destination" : [ "obj-6", 0 ],
					"hidden" : 0,
					"midpoints" : [  ]
				}

			}
, 			{
				"patchline" : 				{
					"source" : [ "obj-8", 0 ],
					"destination" : [ "obj-9", 0 ],
					"hidden" : 0,
					"midpoints" : [  ]
				}

			}
, 			{
				"patchline" : 				{
					"source" : [ "obj-10", 2 ],
					"destination" : [ "obj-5", 0 ],
					"hidden" : 0,
					"midpoints" : [  ]
				}

			}
, 			{
				"patchline" : 				{
					"source" : [ "obj-19", 0 ],
					"destination" : [ "obj-21", 1 ],
					"hidden" : 0,
					"midpoints" : [  ]
				}

			}
, 			{
				"patchline" : 				{
					"source" : [ "obj-13", 0 ],
					"destination" : [ "obj-19", 0 ],
					"hidden" : 0,
					"midpoints" : [  ]
				}

			}
, 			{
				"patchline" : 				{
					"source" : [ "obj-6", 3 ],
					"destination" : [ "obj-7", 1 ],
					"hidden" : 0,
					"midpoints" : [ 242.5, 335.0, 289.0, 335.0, 289.0, 190.0, 131.5, 190.0 ]
				}

			}
, 			{
				"patchline" : 				{
					"source" : [ "obj-14", 0 ],
					"destination" : [ "obj-13", 0 ],
					"hidden" : 0,
					"midpoints" : [  ]
				}

			}
, 			{
				"patchline" : 				{
					"source" : [ "obj-15", 0 ],
					"destination" : [ "obj-14", 0 ],
					"hidden" : 0,
					"midpoints" : [  ]
				}

			}
, 			{
				"patchline" : 				{
					"source" : [ "obj-21", 0 ],
					"destination" : [ "obj-22", 0 ],
					"hidden" : 0,
					"midpoints" : [  ]
				}

			}
, 			{
				"patchline" : 				{
					"source" : [ "obj-7", 0 ],
					"destination" : [ "obj-21", 0 ],
					"hidden" : 0,
					"midpoints" : [  ]
				}

			}
, 			{
				"patchline" : 				{
					"source" : [ "obj-10", 1 ],
					"destination" : [ "obj-7", 0 ],
					"hidden" : 0,
					"midpoints" : [  ]
				}

			}
, 			{
				"patchline" : 				{
					"source" : [ "obj-12", 1 ],
					"destination" : [ "obj-7", 0 ],
					"hidden" : 0,
					"midpoints" : [  ]
				}

			}
, 			{
				"patchline" : 				{
					"source" : [ "obj-19", 0 ],
					"destination" : [ "obj-20", 1 ],
					"hidden" : 0,
					"midpoints" : [  ]
				}

			}
, 			{
				"patchline" : 				{
					"source" : [ "obj-6", 2 ],
					"destination" : [ "obj-8", 1 ],
					"hidden" : 0,
					"midpoints" : [ 213.166672, 327.0, 264.0, 327.0, 264.0, 198.0, 102.5, 198.0 ]
				}

			}
, 			{
				"patchline" : 				{
					"source" : [ "obj-12", 1 ],
					"destination" : [ "obj-11", 1 ],
					"hidden" : 0,
					"midpoints" : [  ]
				}

			}
, 			{
				"patchline" : 				{
					"source" : [ "obj-20", 0 ],
					"destination" : [ "obj-23", 0 ],
					"hidden" : 0,
					"midpoints" : [  ]
				}

			}
, 			{
				"patchline" : 				{
					"source" : [ "obj-8", 0 ],
					"destination" : [ "obj-20", 0 ],
					"hidden" : 0,
					"midpoints" : [  ]
				}

			}
, 			{
				"patchline" : 				{
					"source" : [ "obj-12", 0 ],
					"destination" : [ "obj-8", 0 ],
					"hidden" : 0,
					"midpoints" : [  ]
				}

			}
, 			{
				"patchline" : 				{
					"source" : [ "obj-10", 0 ],
					"destination" : [ "obj-8", 0 ],
					"hidden" : 0,
					"midpoints" : [  ]
				}

			}
, 			{
				"patchline" : 				{
					"source" : [ "obj-11", 3 ],
					"destination" : [ "obj-10", 3 ],
					"hidden" : 0,
					"midpoints" : [  ]
				}

			}
, 			{
				"patchline" : 				{
					"source" : [ "obj-11", 2 ],
					"destination" : [ "obj-10", 2 ],
					"hidden" : 0,
					"midpoints" : [  ]
				}

			}
, 			{
				"patchline" : 				{
					"source" : [ "obj-11", 1 ],
					"destination" : [ "obj-10", 1 ],
					"hidden" : 0,
					"midpoints" : [  ]
				}

			}
, 			{
				"patchline" : 				{
					"source" : [ "obj-11", 0 ],
					"destination" : [ "obj-10", 0 ],
					"hidden" : 0,
					"midpoints" : [  ]
				}

			}
, 			{
				"patchline" : 				{
					"source" : [ "obj-12", 0 ],
					"destination" : [ "obj-11", 0 ],
					"hidden" : 0,
					"midpoints" : [  ]
				}

			}
, 			{
				"patchline" : 				{
					"source" : [ "obj-24", 0 ],
					"destination" : [ "obj-12", 0 ],
					"hidden" : 0,
					"midpoints" : [  ]
				}

			}
 ]
	}

}
