{
	"patcher" : 	{
		"fileversion" : 1,
		"rect" : [ 4.0, 45.0, 996.0, 608.0 ],
		"bgcolor" : [ 0.870588, 0.929412, 1.0, 1.0 ],
		"bglocked" : 0,
		"defrect" : [ 4.0, 45.0, 996.0, 608.0 ],
		"openrect" : [ 0.0, 0.0, 0.0, 0.0 ],
		"openinpresentation" : 0,
		"default_fontsize" : 12.0,
		"default_fontface" : 0,
		"default_fontname" : "Arial",
		"gridonopen" : 0,
		"gridsize" : [ 5.0, 5.0 ],
		"gridsnaponopen" : 0,
		"toolbarvisible" : 1,
		"boxanimatetime" : 200,
		"imprint" : 0,
		"enablehscroll" : 1,
		"enablevscroll" : 1,
		"devicewidth" : 0.0,
		"boxes" : [ 			{
				"box" : 				{
					"maxclass" : "comment",
					"text" : "tempo of playback in milleseconds",
					"fontsize" : 12.0,
					"numinlets" : 1,
					"numoutlets" : 0,
					"patching_rect" : [ 800.0, 6.0, 193.0, 20.0 ],
					"id" : "obj-12",
					"fontname" : "Arial"
				}

			}
, 			{
				"box" : 				{
					"maxclass" : "button",
					"hidden" : 1,
					"numinlets" : 1,
					"numoutlets" : 1,
					"patching_rect" : [ 819.0, 8.0, 20.0, 20.0 ],
					"outlettype" : [ "bang" ],
					"id" : "obj-9"
				}

			}
, 			{
				"box" : 				{
					"maxclass" : "message",
					"text" : "120",
					"hidden" : 1,
					"fontsize" : 12.0,
					"numinlets" : 2,
					"numoutlets" : 1,
					"patching_rect" : [ 839.0, 7.0, 32.5, 18.0 ],
					"outlettype" : [ "" ],
					"id" : "obj-8",
					"fontname" : "Arial"
				}

			}
, 			{
				"box" : 				{
					"maxclass" : "number",
					"fontsize" : 12.0,
					"minimum" : 120,
					"numinlets" : 1,
					"numoutlets" : 2,
					"patching_rect" : [ 922.0, 26.0, 50.0, 20.0 ],
					"outlettype" : [ "int", "bang" ],
					"id" : "obj-1",
					"fontname" : "Arial",
					"maximum" : 1000
				}

			}
, 			{
				"box" : 				{
					"maxclass" : "comment",
					"text" : "As higher partials are added \nthe pitch becomes brighter.",
					"linecount" : 2,
					"fontsize" : 14.0,
					"numinlets" : 1,
					"numoutlets" : 0,
					"patching_rect" : [ 624.0, 211.0, 194.0, 39.0 ],
					"id" : "obj-64",
					"fontname" : "Arial"
				}

			}
, 			{
				"box" : 				{
					"maxclass" : "comment",
					"text" : "Since all the partials share a common fate, they perceptually fuse into a single event - a pitch.",
					"linecount" : 2,
					"fontsize" : 14.0,
					"numinlets" : 1,
					"numoutlets" : 0,
					"patching_rect" : [ 624.0, 163.0, 309.0, 39.0 ],
					"id" : "obj-63",
					"fontname" : "Arial"
				}

			}
, 			{
				"box" : 				{
					"maxclass" : "newobj",
					"text" : "loadmess 1",
					"hidden" : 1,
					"fontsize" : 12.0,
					"numinlets" : 1,
					"numoutlets" : 1,
					"patching_rect" : [ 755.0, 29.0, 72.0, 20.0 ],
					"outlettype" : [ "" ],
					"id" : "obj-62",
					"fontname" : "Arial"
				}

			}
, 			{
				"box" : 				{
					"maxclass" : "comment",
					"text" : "523",
					"fontsize" : 12.0,
					"numinlets" : 1,
					"numoutlets" : 0,
					"patching_rect" : [ 885.0, 106.0, 31.0, 20.0 ],
					"id" : "obj-61",
					"fontname" : "Arial"
				}

			}
, 			{
				"box" : 				{
					"maxclass" : "comment",
					"text" : "261",
					"fontsize" : 12.0,
					"numinlets" : 1,
					"numoutlets" : 0,
					"patching_rect" : [ 801.0, 103.0, 31.0, 20.0 ],
					"id" : "obj-60",
					"fontname" : "Arial"
				}

			}
, 			{
				"box" : 				{
					"maxclass" : "comment",
					"text" : "131",
					"fontsize" : 12.0,
					"numinlets" : 1,
					"numoutlets" : 0,
					"patching_rect" : [ 720.0, 104.0, 31.0, 20.0 ],
					"id" : "obj-59",
					"fontname" : "Arial"
				}

			}
, 			{
				"box" : 				{
					"maxclass" : "comment",
					"text" : "number of cycles per second ",
					"fontsize" : 12.0,
					"numinlets" : 1,
					"numoutlets" : 0,
					"patching_rect" : [ 551.0, 106.0, 168.0, 20.0 ],
					"id" : "obj-54",
					"fontname" : "Arial"
				}

			}
, 			{
				"box" : 				{
					"maxclass" : "comment",
					"text" : "The number of times the waveform cycles per second equals the fundamental frequency or pitch. ",
					"linecount" : 4,
					"fontsize" : 12.0,
					"numinlets" : 1,
					"numoutlets" : 0,
					"patching_rect" : [ 550.0, 42.0, 168.0, 62.0 ],
					"id" : "obj-4",
					"fontname" : "Arial"
				}

			}
, 			{
				"box" : 				{
					"maxclass" : "comment",
					"text" : "When the waveform shown above is cycled at a frequency that is faster than 12-15 times a second, the ear begins to hear a steady, complex tone called a pitch.   ",
					"linecount" : 3,
					"fontface" : 2,
					"fontsize" : 16.0,
					"numinlets" : 1,
					"numoutlets" : 0,
					"patching_rect" : [ 84.5, 530.0, 482.0, 62.0 ],
					"id" : "obj-2",
					"fontname" : "Arial"
				}

			}
, 			{
				"box" : 				{
					"maxclass" : "bpatcher",
					"prototypename" : "aux_send",
					"numinlets" : 2,
					"args" : [ "music29" ],
					"numoutlets" : 1,
					"patching_rect" : [ 829.0, 410.5, 140.0, 58.0 ],
					"outlettype" : [ "" ],
					"id" : "obj-3",
					"name" : "aux_send.maxpat"
				}

			}
, 			{
				"box" : 				{
					"maxclass" : "bpatcher",
					"numinlets" : 3,
					"args" : [  ],
					"numoutlets" : 2,
					"patching_rect" : [ 870.0, 216.0, 100.0, 192.0 ],
					"outlettype" : [ "signal", "signal" ],
					"id" : "obj-58",
					"name" : "simple-stereo-gain~.maxpat"
				}

			}
, 			{
				"box" : 				{
					"maxclass" : "bpatcher",
					"numinlets" : 0,
					"args" : [ "harmonic waveform builder", "build and perform harmonic waveforms" ],
					"lockeddragscroll" : 1,
					"numoutlets" : 0,
					"patching_rect" : [ 23.0, 3.0, 511.0, 76.0 ],
					"id" : "obj-5",
					"offset" : [ -18.0, -68.0 ],
					"name" : "banner.maxpat"
				}

			}
, 			{
				"box" : 				{
					"maxclass" : "newobj",
					"text" : "p notes",
					"hidden" : 1,
					"fontsize" : 12.0,
					"numinlets" : 1,
					"numoutlets" : 7,
					"patching_rect" : [ 543.0, 40.0, 51.0, 20.0 ],
					"outlettype" : [ "", "", "", "", "", "", "" ],
					"id" : "obj-6",
					"fontname" : "Arial",
					"patcher" : 					{
						"fileversion" : 1,
						"rect" : [ 20.0, 74.0, 600.0, 426.0 ],
						"bglocked" : 0,
						"defrect" : [ 20.0, 74.0, 600.0, 426.0 ],
						"openrect" : [ 0.0, 0.0, 0.0, 0.0 ],
						"openinpresentation" : 0,
						"default_fontsize" : 12.0,
						"default_fontface" : 0,
						"default_fontname" : "Arial",
						"gridonopen" : 0,
						"gridsize" : [ 15.0, 15.0 ],
						"gridsnaponopen" : 0,
						"toolbarvisible" : 1,
						"boxanimatetime" : 200,
						"imprint" : 0,
						"enablehscroll" : 1,
						"enablevscroll" : 1,
						"devicewidth" : 0.0,
						"boxes" : [ 							{
								"box" : 								{
									"maxclass" : "message",
									"text" : "67",
									"fontsize" : 9.0,
									"numinlets" : 2,
									"numoutlets" : 1,
									"patching_rect" : [ 229.0, 98.0, 20.0, 15.0 ],
									"outlettype" : [ "" ],
									"id" : "obj-1",
									"fontname" : "Arial"
								}

							}
, 							{
								"box" : 								{
									"maxclass" : "message",
									"text" : "64",
									"fontsize" : 9.0,
									"numinlets" : 2,
									"numoutlets" : 1,
									"patching_rect" : [ 193.0, 98.0, 20.0, 15.0 ],
									"outlettype" : [ "" ],
									"id" : "obj-2",
									"fontname" : "Arial"
								}

							}
, 							{
								"box" : 								{
									"maxclass" : "message",
									"text" : "60",
									"fontsize" : 9.0,
									"numinlets" : 2,
									"numoutlets" : 1,
									"patching_rect" : [ 163.0, 98.0, 20.0, 15.0 ],
									"outlettype" : [ "" ],
									"id" : "obj-3",
									"fontname" : "Arial"
								}

							}
, 							{
								"box" : 								{
									"maxclass" : "message",
									"text" : "55",
									"fontsize" : 9.0,
									"numinlets" : 2,
									"numoutlets" : 1,
									"patching_rect" : [ 134.0, 98.0, 20.0, 15.0 ],
									"outlettype" : [ "" ],
									"id" : "obj-4",
									"fontname" : "Arial"
								}

							}
, 							{
								"box" : 								{
									"maxclass" : "message",
									"text" : "48",
									"fontsize" : 9.0,
									"numinlets" : 2,
									"numoutlets" : 1,
									"patching_rect" : [ 103.0, 98.0, 20.0, 15.0 ],
									"outlettype" : [ "" ],
									"id" : "obj-5",
									"fontname" : "Arial"
								}

							}
, 							{
								"box" : 								{
									"maxclass" : "message",
									"text" : "74",
									"fontsize" : 9.0,
									"numinlets" : 2,
									"numoutlets" : 1,
									"patching_rect" : [ 78.0, 98.0, 20.0, 15.0 ],
									"outlettype" : [ "" ],
									"id" : "obj-6",
									"fontname" : "Arial"
								}

							}
, 							{
								"box" : 								{
									"maxclass" : "newobj",
									"text" : "sel 0 1 2 3 4 5",
									"fontsize" : 9.0,
									"numinlets" : 1,
									"numoutlets" : 7,
									"patching_rect" : [ 50.0, 71.0, 200.0, 17.0 ],
									"outlettype" : [ "bang", "bang", "bang", "bang", "bang", "bang", "" ],
									"id" : "obj-7",
									"fontname" : "Arial"
								}

							}
, 							{
								"box" : 								{
									"maxclass" : "newobj",
									"text" : "random 6",
									"fontsize" : 9.0,
									"numinlets" : 2,
									"numoutlets" : 1,
									"patching_rect" : [ 50.0, 50.0, 52.0, 17.0 ],
									"outlettype" : [ "int" ],
									"id" : "obj-8",
									"fontname" : "Arial"
								}

							}
, 							{
								"box" : 								{
									"maxclass" : "message",
									"text" : "72",
									"fontsize" : 9.0,
									"numinlets" : 2,
									"numoutlets" : 1,
									"patching_rect" : [ 50.0, 98.0, 20.0, 15.0 ],
									"outlettype" : [ "" ],
									"id" : "obj-9",
									"fontname" : "Arial"
								}

							}
, 							{
								"box" : 								{
									"maxclass" : "inlet",
									"numinlets" : 0,
									"numoutlets" : 1,
									"patching_rect" : [ 50.0, 30.0, 15.0, 15.0 ],
									"outlettype" : [ "bang" ],
									"id" : "obj-10",
									"comment" : ""
								}

							}
, 							{
								"box" : 								{
									"maxclass" : "outlet",
									"numinlets" : 1,
									"numoutlets" : 0,
									"patching_rect" : [ 229.0, 118.0, 15.0, 15.0 ],
									"id" : "obj-11",
									"comment" : ""
								}

							}
, 							{
								"box" : 								{
									"maxclass" : "outlet",
									"numinlets" : 1,
									"numoutlets" : 0,
									"patching_rect" : [ 193.0, 118.0, 15.0, 15.0 ],
									"id" : "obj-12",
									"comment" : ""
								}

							}
, 							{
								"box" : 								{
									"maxclass" : "outlet",
									"numinlets" : 1,
									"numoutlets" : 0,
									"patching_rect" : [ 163.0, 118.0, 15.0, 15.0 ],
									"id" : "obj-13",
									"comment" : ""
								}

							}
, 							{
								"box" : 								{
									"maxclass" : "outlet",
									"numinlets" : 1,
									"numoutlets" : 0,
									"patching_rect" : [ 134.0, 118.0, 15.0, 15.0 ],
									"id" : "obj-14",
									"comment" : ""
								}

							}
, 							{
								"box" : 								{
									"maxclass" : "outlet",
									"numinlets" : 1,
									"numoutlets" : 0,
									"patching_rect" : [ 103.0, 118.0, 15.0, 15.0 ],
									"id" : "obj-15",
									"comment" : ""
								}

							}
, 							{
								"box" : 								{
									"maxclass" : "outlet",
									"numinlets" : 1,
									"numoutlets" : 0,
									"patching_rect" : [ 78.0, 118.0, 15.0, 15.0 ],
									"id" : "obj-16",
									"comment" : ""
								}

							}
, 							{
								"box" : 								{
									"maxclass" : "outlet",
									"numinlets" : 1,
									"numoutlets" : 0,
									"patching_rect" : [ 50.0, 118.0, 15.0, 15.0 ],
									"id" : "obj-17",
									"comment" : ""
								}

							}
 ],
						"lines" : [ 							{
								"patchline" : 								{
									"source" : [ "obj-9", 0 ],
									"destination" : [ "obj-17", 0 ],
									"hidden" : 0,
									"midpoints" : [  ]
								}

							}
, 							{
								"patchline" : 								{
									"source" : [ "obj-8", 0 ],
									"destination" : [ "obj-7", 0 ],
									"hidden" : 0,
									"midpoints" : [  ]
								}

							}
, 							{
								"patchline" : 								{
									"source" : [ "obj-7", 0 ],
									"destination" : [ "obj-9", 0 ],
									"hidden" : 0,
									"midpoints" : [  ]
								}

							}
, 							{
								"patchline" : 								{
									"source" : [ "obj-7", 1 ],
									"destination" : [ "obj-6", 0 ],
									"hidden" : 0,
									"midpoints" : [  ]
								}

							}
, 							{
								"patchline" : 								{
									"source" : [ "obj-7", 2 ],
									"destination" : [ "obj-5", 0 ],
									"hidden" : 0,
									"midpoints" : [  ]
								}

							}
, 							{
								"patchline" : 								{
									"source" : [ "obj-7", 3 ],
									"destination" : [ "obj-4", 0 ],
									"hidden" : 0,
									"midpoints" : [  ]
								}

							}
, 							{
								"patchline" : 								{
									"source" : [ "obj-7", 4 ],
									"destination" : [ "obj-3", 0 ],
									"hidden" : 0,
									"midpoints" : [  ]
								}

							}
, 							{
								"patchline" : 								{
									"source" : [ "obj-7", 5 ],
									"destination" : [ "obj-2", 0 ],
									"hidden" : 0,
									"midpoints" : [  ]
								}

							}
, 							{
								"patchline" : 								{
									"source" : [ "obj-7", 6 ],
									"destination" : [ "obj-1", 0 ],
									"hidden" : 0,
									"midpoints" : [  ]
								}

							}
, 							{
								"patchline" : 								{
									"source" : [ "obj-6", 0 ],
									"destination" : [ "obj-16", 0 ],
									"hidden" : 0,
									"midpoints" : [  ]
								}

							}
, 							{
								"patchline" : 								{
									"source" : [ "obj-5", 0 ],
									"destination" : [ "obj-15", 0 ],
									"hidden" : 0,
									"midpoints" : [  ]
								}

							}
, 							{
								"patchline" : 								{
									"source" : [ "obj-4", 0 ],
									"destination" : [ "obj-14", 0 ],
									"hidden" : 0,
									"midpoints" : [  ]
								}

							}
, 							{
								"patchline" : 								{
									"source" : [ "obj-3", 0 ],
									"destination" : [ "obj-13", 0 ],
									"hidden" : 0,
									"midpoints" : [  ]
								}

							}
, 							{
								"patchline" : 								{
									"source" : [ "obj-2", 0 ],
									"destination" : [ "obj-12", 0 ],
									"hidden" : 0,
									"midpoints" : [  ]
								}

							}
, 							{
								"patchline" : 								{
									"source" : [ "obj-10", 0 ],
									"destination" : [ "obj-8", 0 ],
									"hidden" : 0,
									"midpoints" : [  ]
								}

							}
, 							{
								"patchline" : 								{
									"source" : [ "obj-1", 0 ],
									"destination" : [ "obj-11", 0 ],
									"hidden" : 0,
									"midpoints" : [  ]
								}

							}
 ]
					}
,
					"saved_object_attributes" : 					{
						"fontface" : 0,
						"fontsize" : 12.0,
						"default_fontface" : 0,
						"default_fontname" : "Arial",
						"fontname" : "Arial",
						"default_fontsize" : 12.0,
						"globalpatchername" : ""
					}

				}

			}
, 			{
				"box" : 				{
					"maxclass" : "bpatcher",
					"numinlets" : 0,
					"args" : [ "simple_wavemaker", "alpha", "Richard Dudas" ],
					"numoutlets" : 0,
					"patching_rect" : [ 677.0, 506.0, 292.0, 86.0 ],
					"id" : "obj-7",
					"name" : "badge.maxpat"
				}

			}
, 			{
				"box" : 				{
					"maxclass" : "comment",
					"text" : "1.",
					"fontsize" : 12.0,
					"numinlets" : 1,
					"numoutlets" : 0,
					"patching_rect" : [ 38.0, 207.0, 28.0, 20.0 ],
					"id" : "obj-10",
					"fontname" : "Arial"
				}

			}
, 			{
				"box" : 				{
					"maxclass" : "comment",
					"text" : "Varying the amplitudes on any of 20 partials alters the resulting \nwaveform.  All partials in this case are related to one another in\na series of whole number ratios, thus all resulting waveforms \nare harmonic. ",
					"linecount" : 4,
					"fontsize" : 14.0,
					"numinlets" : 1,
					"numoutlets" : 0,
					"patching_rect" : [ 22.0, 85.0, 409.0, 71.0 ],
					"id" : "obj-11",
					"fontname" : "Arial"
				}

			}
, 			{
				"box" : 				{
					"maxclass" : "toggle",
					"hidden" : 1,
					"numinlets" : 1,
					"numoutlets" : 1,
					"patching_rect" : [ 730.0, 28.0, 26.0, 26.0 ],
					"outlettype" : [ "int" ],
					"id" : "obj-13"
				}

			}
, 			{
				"box" : 				{
					"maxclass" : "newobj",
					"text" : "metro 120",
					"hidden" : 1,
					"fontsize" : 12.0,
					"numinlets" : 2,
					"numoutlets" : 1,
					"patching_rect" : [ 543.0, 13.0, 65.0, 20.0 ],
					"outlettype" : [ "bang" ],
					"id" : "obj-14",
					"fontname" : "Arial"
				}

			}
, 			{
				"box" : 				{
					"maxclass" : "message",
					"text" : "20X",
					"fontsize" : 9.0,
					"numinlets" : 2,
					"numoutlets" : 1,
					"patching_rect" : [ 547.0, 195.0, 27.0, 15.0 ],
					"outlettype" : [ "" ],
					"id" : "obj-15",
					"fontname" : "Arial"
				}

			}
, 			{
				"box" : 				{
					"maxclass" : "message",
					"text" : "19X",
					"fontsize" : 9.0,
					"numinlets" : 2,
					"numoutlets" : 1,
					"patching_rect" : [ 521.0, 195.0, 27.0, 15.0 ],
					"outlettype" : [ "" ],
					"id" : "obj-16",
					"fontname" : "Arial"
				}

			}
, 			{
				"box" : 				{
					"maxclass" : "message",
					"text" : "18X",
					"fontsize" : 9.0,
					"numinlets" : 2,
					"numoutlets" : 1,
					"patching_rect" : [ 498.0, 195.0, 27.0, 15.0 ],
					"outlettype" : [ "" ],
					"id" : "obj-17",
					"fontname" : "Arial"
				}

			}
, 			{
				"box" : 				{
					"maxclass" : "message",
					"text" : "17X",
					"fontsize" : 9.0,
					"numinlets" : 2,
					"numoutlets" : 1,
					"patching_rect" : [ 473.0, 195.0, 27.0, 15.0 ],
					"outlettype" : [ "" ],
					"id" : "obj-18",
					"fontname" : "Arial"
				}

			}
, 			{
				"box" : 				{
					"maxclass" : "message",
					"text" : "16X",
					"fontsize" : 9.0,
					"numinlets" : 2,
					"numoutlets" : 1,
					"patching_rect" : [ 449.0, 195.0, 27.0, 15.0 ],
					"outlettype" : [ "" ],
					"id" : "obj-19",
					"fontname" : "Arial"
				}

			}
, 			{
				"box" : 				{
					"maxclass" : "message",
					"text" : "15X",
					"fontsize" : 9.0,
					"numinlets" : 2,
					"numoutlets" : 1,
					"patching_rect" : [ 424.0, 195.0, 27.0, 15.0 ],
					"outlettype" : [ "" ],
					"id" : "obj-20",
					"fontname" : "Arial"
				}

			}
, 			{
				"box" : 				{
					"maxclass" : "message",
					"text" : "14X",
					"fontsize" : 9.0,
					"numinlets" : 2,
					"numoutlets" : 1,
					"patching_rect" : [ 399.0, 195.0, 27.0, 15.0 ],
					"outlettype" : [ "" ],
					"id" : "obj-21",
					"fontname" : "Arial"
				}

			}
, 			{
				"box" : 				{
					"maxclass" : "message",
					"text" : "13X",
					"fontsize" : 9.0,
					"numinlets" : 2,
					"numoutlets" : 1,
					"patching_rect" : [ 374.0, 195.0, 27.0, 15.0 ],
					"outlettype" : [ "" ],
					"id" : "obj-22",
					"fontname" : "Arial"
				}

			}
, 			{
				"box" : 				{
					"maxclass" : "message",
					"text" : "12X",
					"fontsize" : 9.0,
					"numinlets" : 2,
					"numoutlets" : 1,
					"patching_rect" : [ 349.0, 195.0, 27.0, 15.0 ],
					"outlettype" : [ "" ],
					"id" : "obj-23",
					"fontname" : "Arial"
				}

			}
, 			{
				"box" : 				{
					"maxclass" : "message",
					"text" : "11X",
					"fontsize" : 9.0,
					"numinlets" : 2,
					"numoutlets" : 1,
					"patching_rect" : [ 323.0, 195.0, 27.0, 15.0 ],
					"outlettype" : [ "" ],
					"id" : "obj-24",
					"fontname" : "Arial"
				}

			}
, 			{
				"box" : 				{
					"maxclass" : "message",
					"text" : "10X",
					"fontsize" : 9.0,
					"numinlets" : 2,
					"numoutlets" : 1,
					"patching_rect" : [ 296.0, 195.0, 27.0, 15.0 ],
					"outlettype" : [ "" ],
					"id" : "obj-25",
					"fontname" : "Arial"
				}

			}
, 			{
				"box" : 				{
					"maxclass" : "message",
					"text" : "9X",
					"fontsize" : 9.0,
					"numinlets" : 2,
					"numoutlets" : 1,
					"patching_rect" : [ 274.0, 195.0, 20.0, 15.0 ],
					"outlettype" : [ "" ],
					"id" : "obj-26",
					"fontname" : "Arial"
				}

			}
, 			{
				"box" : 				{
					"maxclass" : "message",
					"text" : "8X",
					"fontsize" : 9.0,
					"numinlets" : 2,
					"numoutlets" : 1,
					"patching_rect" : [ 251.0, 195.0, 20.0, 15.0 ],
					"outlettype" : [ "" ],
					"id" : "obj-27",
					"fontname" : "Arial"
				}

			}
, 			{
				"box" : 				{
					"maxclass" : "message",
					"text" : "7X",
					"fontsize" : 9.0,
					"numinlets" : 2,
					"numoutlets" : 1,
					"patching_rect" : [ 226.0, 195.0, 20.0, 15.0 ],
					"outlettype" : [ "" ],
					"id" : "obj-28",
					"fontname" : "Arial"
				}

			}
, 			{
				"box" : 				{
					"maxclass" : "message",
					"text" : "6X",
					"fontsize" : 9.0,
					"numinlets" : 2,
					"numoutlets" : 1,
					"patching_rect" : [ 201.0, 195.0, 20.0, 15.0 ],
					"outlettype" : [ "" ],
					"id" : "obj-29",
					"fontname" : "Arial"
				}

			}
, 			{
				"box" : 				{
					"maxclass" : "message",
					"text" : "5X",
					"fontsize" : 9.0,
					"numinlets" : 2,
					"numoutlets" : 1,
					"patching_rect" : [ 176.0, 195.0, 20.0, 15.0 ],
					"outlettype" : [ "" ],
					"id" : "obj-30",
					"fontname" : "Arial"
				}

			}
, 			{
				"box" : 				{
					"maxclass" : "message",
					"text" : "4X",
					"fontsize" : 9.0,
					"numinlets" : 2,
					"numoutlets" : 1,
					"patching_rect" : [ 151.0, 195.0, 20.0, 15.0 ],
					"outlettype" : [ "" ],
					"id" : "obj-31",
					"fontname" : "Arial"
				}

			}
, 			{
				"box" : 				{
					"maxclass" : "message",
					"text" : "3X",
					"fontsize" : 9.0,
					"numinlets" : 2,
					"numoutlets" : 1,
					"patching_rect" : [ 126.0, 195.0, 20.0, 15.0 ],
					"outlettype" : [ "" ],
					"id" : "obj-32",
					"fontname" : "Arial"
				}

			}
, 			{
				"box" : 				{
					"maxclass" : "message",
					"text" : "2X",
					"fontsize" : 9.0,
					"numinlets" : 2,
					"numoutlets" : 1,
					"patching_rect" : [ 101.0, 195.0, 20.0, 15.0 ],
					"outlettype" : [ "" ],
					"id" : "obj-33",
					"fontname" : "Arial"
				}

			}
, 			{
				"box" : 				{
					"maxclass" : "message",
					"text" : "1X",
					"fontsize" : 9.0,
					"numinlets" : 2,
					"numoutlets" : 1,
					"patching_rect" : [ 77.0, 195.0, 20.0, 15.0 ],
					"outlettype" : [ "" ],
					"id" : "obj-34",
					"fontname" : "Arial"
				}

			}
, 			{
				"box" : 				{
					"maxclass" : "message",
					"text" : "0, 0.1 10 0. 100",
					"hidden" : 1,
					"fontsize" : 9.0,
					"numinlets" : 2,
					"numoutlets" : 1,
					"patching_rect" : [ 598.0, 392.0, 73.0, 15.0 ],
					"outlettype" : [ "" ],
					"id" : "obj-35",
					"fontname" : "Arial"
				}

			}
, 			{
				"box" : 				{
					"maxclass" : "newobj",
					"text" : "t b f",
					"hidden" : 1,
					"fontsize" : 9.0,
					"numinlets" : 1,
					"numoutlets" : 2,
					"patching_rect" : [ 599.0, 309.0, 29.0, 17.0 ],
					"outlettype" : [ "bang", "float" ],
					"id" : "obj-36",
					"fontname" : "Arial"
				}

			}
, 			{
				"box" : 				{
					"maxclass" : "newobj",
					"text" : "mtof",
					"hidden" : 1,
					"fontsize" : 9.0,
					"numinlets" : 1,
					"numoutlets" : 1,
					"patching_rect" : [ 599.0, 287.0, 31.0, 17.0 ],
					"outlettype" : [ "" ],
					"id" : "obj-37",
					"fontname" : "Arial"
				}

			}
, 			{
				"box" : 				{
					"maxclass" : "newobj",
					"text" : "line~",
					"hidden" : 1,
					"fontsize" : 9.0,
					"numinlets" : 2,
					"numoutlets" : 2,
					"patching_rect" : [ 720.0, 417.0, 32.0, 17.0 ],
					"outlettype" : [ "signal", "bang" ],
					"id" : "obj-38",
					"fontname" : "Arial"
				}

			}
, 			{
				"box" : 				{
					"maxclass" : "kslider",
					"numinlets" : 2,
					"presentation_rect" : [ 0.0, 0.0, 252.0, 53.0 ],
					"numoutlets" : 2,
					"patching_rect" : [ 718.0, 49.0, 252.0, 53.0 ],
					"outlettype" : [ "int", "int" ],
					"id" : "obj-39",
					"offset" : 48,
					"range" : 36,
					"hkeycolor" : [ 0.501961, 0.501961, 0.501961, 1.0 ]
				}

			}
, 			{
				"box" : 				{
					"maxclass" : "newobj",
					"text" : "t b b l",
					"hidden" : 1,
					"fontsize" : 9.0,
					"numinlets" : 1,
					"numoutlets" : 3,
					"patching_rect" : [ 686.0, 284.0, 70.0, 17.0 ],
					"outlettype" : [ "bang", "bang", "" ],
					"id" : "obj-40",
					"fontname" : "Arial"
				}

			}
, 			{
				"box" : 				{
					"maxclass" : "multislider",
					"candicane5" : [ 0.0, 0.901961, 0.972549, 1.0 ],
					"numinlets" : 1,
					"candicane4" : [ 0.368627, 0.909804, 0.0, 1.0 ],
					"setminmax" : [ 0.0, 1.0 ],
					"numoutlets" : 2,
					"candycane" : 8,
					"peakcolor" : [ 0.498039, 0.498039, 0.498039, 1.0 ],
					"candicane3" : [ 0.972549, 1.0, 0.035294, 1.0 ],
					"candicane8" : [ 0.776471, 0.0, 0.094118, 1.0 ],
					"size" : 20,
					"slidercolor" : [ 0.196078, 0.0, 0.0, 1.0 ],
					"patching_rect" : [ 68.0, 211.0, 514.0, 110.0 ],
					"outlettype" : [ "", "" ],
					"thickness" : 5,
					"id" : "obj-41",
					"contdata" : 1,
					"bgcolor" : [ 0.913725, 0.933333, 1.0, 1.0 ],
					"candicane2" : [ 1.0, 0.356863, 0.356863, 1.0 ],
					"candicane7" : [ 0.67451, 0.0, 0.776471, 1.0 ],
					"setstyle" : 1,
					"spacing" : 9,
					"bordercolor" : [ 0.4, 0.4, 0.8, 1.0 ],
					"candicane6" : [ 0.247059, 0.070588, 0.964706, 1.0 ]
				}

			}
, 			{
				"box" : 				{
					"maxclass" : "message",
					"text" : "set gretademo",
					"hidden" : 1,
					"fontsize" : 10.0,
					"numinlets" : 2,
					"numoutlets" : 1,
					"patching_rect" : [ 686.0, 365.0, 76.0, 16.0 ],
					"outlettype" : [ "" ],
					"id" : "obj-42",
					"fontname" : "Arial"
				}

			}
, 			{
				"box" : 				{
					"maxclass" : "newobj",
					"text" : "del 200",
					"hidden" : 1,
					"fontsize" : 10.0,
					"numinlets" : 2,
					"numoutlets" : 1,
					"patching_rect" : [ 686.0, 342.0, 45.0, 18.0 ],
					"outlettype" : [ "bang" ],
					"id" : "obj-43",
					"fontname" : "Arial"
				}

			}
, 			{
				"box" : 				{
					"maxclass" : "newobj",
					"text" : "cycle~ 220 gretademo",
					"hidden" : 1,
					"fontsize" : 10.0,
					"numinlets" : 2,
					"numoutlets" : 1,
					"patching_rect" : [ 686.0, 391.0, 118.0, 18.0 ],
					"outlettype" : [ "signal" ],
					"id" : "obj-44",
					"fontname" : "Arial"
				}

			}
, 			{
				"box" : 				{
					"maxclass" : "newobj",
					"text" : "*~ 0.",
					"hidden" : 1,
					"fontsize" : 10.0,
					"numinlets" : 2,
					"numoutlets" : 1,
					"patching_rect" : [ 686.0, 440.0, 44.0, 18.0 ],
					"outlettype" : [ "signal" ],
					"id" : "obj-45",
					"fontname" : "Arial"
				}

			}
, 			{
				"box" : 				{
					"maxclass" : "newobj",
					"text" : "peek~ gretademo",
					"hidden" : 1,
					"fontsize" : 9.0,
					"numinlets" : 3,
					"numoutlets" : 1,
					"patching_rect" : [ 749.0, 338.0, 86.0, 17.0 ],
					"outlettype" : [ "float" ],
					"id" : "obj-46",
					"fontname" : "Arial"
				}

			}
, 			{
				"box" : 				{
					"maxclass" : "newobj",
					"text" : "buffer~ gretademo gretademo",
					"hidden" : 1,
					"fontsize" : 12.0,
					"numinlets" : 1,
					"numoutlets" : 2,
					"patching_rect" : [ 612.0, 5.0, 189.0, 20.0 ],
					"outlettype" : [ "float", "bang" ],
					"id" : "obj-47",
					"fontname" : "Arial"
				}

			}
, 			{
				"box" : 				{
					"maxclass" : "button",
					"hidden" : 1,
					"numinlets" : 1,
					"numoutlets" : 1,
					"patching_rect" : [ 686.0, 314.0, 22.0, 22.0 ],
					"outlettype" : [ "bang" ],
					"id" : "obj-48"
				}

			}
, 			{
				"box" : 				{
					"maxclass" : "newobj",
					"text" : "loadbang",
					"hidden" : 1,
					"fontsize" : 9.0,
					"numinlets" : 1,
					"numoutlets" : 1,
					"patching_rect" : [ 68.0, 87.0, 46.0, 17.0 ],
					"outlettype" : [ "bang" ],
					"id" : "obj-49",
					"fontname" : "Arial"
				}

			}
, 			{
				"box" : 				{
					"maxclass" : "message",
					"text" : "1 0 0 0 0 0 0 0 0 0 0 0 0 0 0 0 0 0 0 0",
					"hidden" : 1,
					"fontsize" : 9.0,
					"numinlets" : 2,
					"numoutlets" : 1,
					"patching_rect" : [ 68.0, 142.0, 185.0, 15.0 ],
					"outlettype" : [ "" ],
					"id" : "obj-50",
					"fontname" : "Arial"
				}

			}
, 			{
				"box" : 				{
					"maxclass" : "lcd",
					"numinlets" : 1,
					"numoutlets" : 4,
					"patching_rect" : [ 69.0, 322.0, 513.0, 201.0 ],
					"outlettype" : [ "list", "list", "int", "" ],
					"id" : "obj-51"
				}

			}
, 			{
				"box" : 				{
					"maxclass" : "newobj",
					"text" : "p wavemaker_Richard_Dudas",
					"hidden" : 1,
					"fontsize" : 9.0,
					"numinlets" : 5,
					"numoutlets" : 2,
					"patching_rect" : [ 709.0, 315.0, 142.0, 17.0 ],
					"outlettype" : [ "", "" ],
					"id" : "obj-52",
					"fontname" : "Arial",
					"patcher" : 					{
						"fileversion" : 1,
						"rect" : [ 579.0, 122.0, 635.0, 548.0 ],
						"bglocked" : 0,
						"defrect" : [ 579.0, 122.0, 635.0, 548.0 ],
						"openrect" : [ 0.0, 0.0, 0.0, 0.0 ],
						"openinpresentation" : 0,
						"default_fontsize" : 12.0,
						"default_fontface" : 0,
						"default_fontname" : "Arial",
						"gridonopen" : 0,
						"gridsize" : [ 15.0, 15.0 ],
						"gridsnaponopen" : 0,
						"toolbarvisible" : 1,
						"boxanimatetime" : 200,
						"imprint" : 0,
						"enablehscroll" : 1,
						"enablevscroll" : 1,
						"devicewidth" : 0.0,
						"boxes" : [ 							{
								"box" : 								{
									"maxclass" : "message",
									"text" : "clear, MoveTo 500 100, LineTo 0 100, MoveTo 0 0, MoveTo 250 0, LineTo 250 200",
									"fontsize" : 9.0,
									"numinlets" : 2,
									"numoutlets" : 1,
									"patching_rect" : [ 291.0, 276.0, 393.0, 15.0 ],
									"outlettype" : [ "" ],
									"id" : "obj-1",
									"fontname" : "Arial"
								}

							}
, 							{
								"box" : 								{
									"maxclass" : "button",
									"numinlets" : 1,
									"numoutlets" : 1,
									"patching_rect" : [ 64.0, 24.0, 15.0, 15.0 ],
									"outlettype" : [ "bang" ],
									"id" : "obj-2"
								}

							}
, 							{
								"box" : 								{
									"maxclass" : "message",
									"text" : "clear",
									"fontsize" : 9.0,
									"numinlets" : 2,
									"numoutlets" : 1,
									"patching_rect" : [ 315.0, 400.0, 33.0, 15.0 ],
									"outlettype" : [ "" ],
									"id" : "obj-3",
									"fontname" : "Arial"
								}

							}
, 							{
								"box" : 								{
									"maxclass" : "newobj",
									"text" : "loadbang",
									"fontsize" : 9.0,
									"numinlets" : 1,
									"numoutlets" : 1,
									"patching_rect" : [ 277.0, 58.0, 48.0, 17.0 ],
									"outlettype" : [ "bang" ],
									"id" : "obj-4",
									"fontname" : "Arial"
								}

							}
, 							{
								"box" : 								{
									"maxclass" : "message",
									"text" : "0 0 0 0 0 0 0 0 0 0 0 0 0 0 0 0 0 0 0 0",
									"fontsize" : 9.0,
									"numinlets" : 2,
									"numoutlets" : 1,
									"patching_rect" : [ 231.0, 93.0, 185.0, 15.0 ],
									"outlettype" : [ "" ],
									"id" : "obj-5",
									"fontname" : "Arial"
								}

							}
, 							{
								"box" : 								{
									"maxclass" : "outlet",
									"numinlets" : 1,
									"numoutlets" : 0,
									"patching_rect" : [ 149.0, 464.0, 15.0, 15.0 ],
									"id" : "obj-6",
									"comment" : ""
								}

							}
, 							{
								"box" : 								{
									"maxclass" : "newobj",
									"text" : "float",
									"fontsize" : 9.0,
									"numinlets" : 2,
									"numoutlets" : 1,
									"patching_rect" : [ 145.0, 282.0, 29.0, 17.0 ],
									"outlettype" : [ "float" ],
									"id" : "obj-7",
									"fontname" : "Arial"
								}

							}
, 							{
								"box" : 								{
									"maxclass" : "inlet",
									"numinlets" : 0,
									"numoutlets" : 1,
									"patching_rect" : [ 36.0, 34.0, 15.0, 15.0 ],
									"outlettype" : [ "bang" ],
									"id" : "obj-8",
									"comment" : ""
								}

							}
, 							{
								"box" : 								{
									"maxclass" : "newobj",
									"text" : "expr pow(2\\,$i1)",
									"fontsize" : 9.0,
									"numinlets" : 1,
									"numoutlets" : 1,
									"patching_rect" : [ 448.0, 54.0, 89.0, 17.0 ],
									"outlettype" : [ "" ],
									"id" : "obj-9",
									"fontname" : "Arial"
								}

							}
, 							{
								"box" : 								{
									"maxclass" : "inlet",
									"numinlets" : 0,
									"numoutlets" : 1,
									"patching_rect" : [ 448.0, 34.0, 15.0, 15.0 ],
									"outlettype" : [ "" ],
									"id" : "obj-10",
									"comment" : ""
								}

							}
, 							{
								"box" : 								{
									"maxclass" : "newobj",
									"text" : "p FM_wavemaker",
									"fontsize" : 9.0,
									"numinlets" : 4,
									"numoutlets" : 1,
									"patching_rect" : [ 145.0, 145.0, 314.0, 17.0 ],
									"outlettype" : [ "float" ],
									"id" : "obj-11",
									"fontname" : "Arial",
									"patcher" : 									{
										"fileversion" : 1,
										"rect" : [ 316.0, 119.0, 561.0, 429.0 ],
										"bglocked" : 0,
										"defrect" : [ 316.0, 119.0, 561.0, 429.0 ],
										"openrect" : [ 0.0, 0.0, 0.0, 0.0 ],
										"openinpresentation" : 0,
										"default_fontsize" : 12.0,
										"default_fontface" : 0,
										"default_fontname" : "Arial",
										"gridonopen" : 0,
										"gridsize" : [ 15.0, 15.0 ],
										"gridsnaponopen" : 0,
										"toolbarvisible" : 1,
										"boxanimatetime" : 200,
										"imprint" : 0,
										"enablehscroll" : 1,
										"enablevscroll" : 1,
										"devicewidth" : 0.0,
										"boxes" : [ 											{
												"box" : 												{
													"maxclass" : "newobj",
													"text" : "* 64.",
													"fontsize" : 9.0,
													"numinlets" : 2,
													"numoutlets" : 1,
													"patching_rect" : [ 218.0, 66.0, 33.0, 17.0 ],
													"outlettype" : [ "float" ],
													"id" : "obj-1",
													"fontname" : "Arial"
												}

											}
, 											{
												"box" : 												{
													"maxclass" : "inlet",
													"numinlets" : 0,
													"numoutlets" : 1,
													"patching_rect" : [ 218.0, 34.0, 15.0, 15.0 ],
													"outlettype" : [ "" ],
													"id" : "obj-2",
													"comment" : ""
												}

											}
, 											{
												"box" : 												{
													"maxclass" : "newobj",
													"text" : "* 64.",
													"fontsize" : 9.0,
													"numinlets" : 2,
													"numoutlets" : 1,
													"patching_rect" : [ 45.0, 290.0, 33.0, 17.0 ],
													"outlettype" : [ "float" ],
													"id" : "obj-3",
													"fontname" : "Arial"
												}

											}
, 											{
												"box" : 												{
													"maxclass" : "newobj",
													"text" : "+ 0.",
													"fontsize" : 9.0,
													"numinlets" : 2,
													"numoutlets" : 1,
													"patching_rect" : [ 26.0, 329.0, 29.0, 17.0 ],
													"outlettype" : [ "float" ],
													"id" : "obj-4",
													"fontname" : "Arial"
												}

											}
, 											{
												"box" : 												{
													"maxclass" : "newobj",
													"text" : "t f b f b",
													"fontsize" : 9.0,
													"numinlets" : 1,
													"numoutlets" : 4,
													"patching_rect" : [ 26.0, 96.0, 69.0, 17.0 ],
													"outlettype" : [ "float", "bang", "float", "bang" ],
													"id" : "obj-5",
													"fontname" : "Arial"
												}

											}
, 											{
												"box" : 												{
													"maxclass" : "inlet",
													"numinlets" : 0,
													"numoutlets" : 1,
													"patching_rect" : [ 26.0, 34.0, 15.0, 15.0 ],
													"outlettype" : [ "float" ],
													"id" : "obj-6",
													"comment" : ""
												}

											}
, 											{
												"box" : 												{
													"maxclass" : "outlet",
													"numinlets" : 1,
													"numoutlets" : 0,
													"patching_rect" : [ 26.0, 355.0, 15.0, 15.0 ],
													"id" : "obj-7",
													"comment" : ""
												}

											}
, 											{
												"box" : 												{
													"maxclass" : "newobj",
													"text" : "loadbang",
													"linecount" : 2,
													"fontsize" : 9.0,
													"numinlets" : 1,
													"numoutlets" : 1,
													"patching_rect" : [ 220.0, 126.0, 45.0, 27.0 ],
													"outlettype" : [ "bang" ],
													"id" : "obj-8",
													"fontname" : "Arial"
												}

											}
, 											{
												"box" : 												{
													"maxclass" : "inlet",
													"numinlets" : 0,
													"numoutlets" : 1,
													"patching_rect" : [ 142.0, 34.0, 15.0, 15.0 ],
													"outlettype" : [ "" ],
													"id" : "obj-9",
													"comment" : ""
												}

											}
, 											{
												"box" : 												{
													"maxclass" : "inlet",
													"numinlets" : 0,
													"numoutlets" : 1,
													"patching_rect" : [ 82.0, 34.0, 15.0, 15.0 ],
													"outlettype" : [ "" ],
													"id" : "obj-10",
													"comment" : ""
												}

											}
, 											{
												"box" : 												{
													"maxclass" : "newobj",
													"text" : "accum 0.",
													"fontsize" : 9.0,
													"numinlets" : 3,
													"numoutlets" : 1,
													"patching_rect" : [ 45.0, 262.0, 48.0, 17.0 ],
													"outlettype" : [ "float" ],
													"id" : "obj-11",
													"fontname" : "Arial"
												}

											}
, 											{
												"box" : 												{
													"maxclass" : "newobj",
													"text" : "vexpr sin(($f1+$f2)/((256./$f3)/3.141593)) *$f4",
													"fontsize" : 9.0,
													"numinlets" : 4,
													"numoutlets" : 1,
													"patching_rect" : [ 64.0, 192.0, 245.0, 17.0 ],
													"outlettype" : [ "" ],
													"id" : "obj-12",
													"fontname" : "Arial"
												}

											}
, 											{
												"box" : 												{
													"maxclass" : "message",
													"text" : "$1 $1 $1 $1 $1 $1 $1 $1 $1 $1 $1 $1 $1 $1 $1 $1 $1 $1 $1 $1",
													"fontsize" : 9.0,
													"numinlets" : 2,
													"numoutlets" : 1,
													"patching_rect" : [ 64.0, 172.0, 305.0, 15.0 ],
													"outlettype" : [ "" ],
													"id" : "obj-13",
													"fontname" : "Arial"
												}

											}
, 											{
												"box" : 												{
													"maxclass" : "message",
													"text" : "1. 2. 3. 4. 5. 6. 7. 8. 9. 10. 11. 12. 13. 14. 15. 16. 17. 18. 19. 20.",
													"fontsize" : 9.0,
													"numinlets" : 2,
													"numoutlets" : 1,
													"patching_rect" : [ 220.0, 152.0, 311.0, 15.0 ],
													"outlettype" : [ "" ],
													"id" : "obj-14",
													"fontname" : "Arial"
												}

											}
, 											{
												"box" : 												{
													"maxclass" : "newobj",
													"text" : "zl iter",
													"fontsize" : 9.0,
													"numinlets" : 2,
													"numoutlets" : 2,
													"patching_rect" : [ 64.0, 217.0, 38.0, 17.0 ],
													"outlettype" : [ "", "" ],
													"id" : "obj-15",
													"fontname" : "Arial"
												}

											}
, 											{
												"box" : 												{
													"maxclass" : "message",
													"text" : "0",
													"fontsize" : 9.0,
													"numinlets" : 2,
													"numoutlets" : 1,
													"patching_rect" : [ 108.0, 217.0, 16.0, 15.0 ],
													"outlettype" : [ "" ],
													"id" : "obj-16",
													"fontname" : "Arial"
												}

											}
, 											{
												"box" : 												{
													"maxclass" : "newobj",
													"text" : "float",
													"fontsize" : 9.0,
													"numinlets" : 2,
													"numoutlets" : 1,
													"patching_rect" : [ 64.0, 239.0, 29.0, 17.0 ],
													"outlettype" : [ "float" ],
													"id" : "obj-17",
													"fontname" : "Arial"
												}

											}
, 											{
												"box" : 												{
													"maxclass" : "comment",
													"text" : "modulation index",
													"fontsize" : 9.0,
													"numinlets" : 1,
													"numoutlets" : 0,
													"patching_rect" : [ 253.0, 68.0, 100.0, 17.0 ],
													"id" : "obj-18",
													"fontname" : "Arial"
												}

											}
 ],
										"lines" : [ 											{
												"patchline" : 												{
													"source" : [ "obj-9", 0 ],
													"destination" : [ "obj-12", 1 ],
													"hidden" : 0,
													"midpoints" : [  ]
												}

											}
, 											{
												"patchline" : 												{
													"source" : [ "obj-8", 0 ],
													"destination" : [ "obj-14", 0 ],
													"hidden" : 0,
													"midpoints" : [  ]
												}

											}
, 											{
												"patchline" : 												{
													"source" : [ "obj-6", 0 ],
													"destination" : [ "obj-5", 0 ],
													"hidden" : 0,
													"midpoints" : [  ]
												}

											}
, 											{
												"patchline" : 												{
													"source" : [ "obj-5", 0 ],
													"destination" : [ "obj-4", 0 ],
													"hidden" : 0,
													"midpoints" : [  ]
												}

											}
, 											{
												"patchline" : 												{
													"source" : [ "obj-5", 3 ],
													"destination" : [ "obj-16", 0 ],
													"hidden" : 0,
													"midpoints" : [  ]
												}

											}
, 											{
												"patchline" : 												{
													"source" : [ "obj-5", 2 ],
													"destination" : [ "obj-13", 0 ],
													"hidden" : 0,
													"midpoints" : [  ]
												}

											}
, 											{
												"patchline" : 												{
													"source" : [ "obj-5", 1 ],
													"destination" : [ "obj-11", 0 ],
													"hidden" : 0,
													"midpoints" : [  ]
												}

											}
, 											{
												"patchline" : 												{
													"source" : [ "obj-4", 0 ],
													"destination" : [ "obj-7", 0 ],
													"hidden" : 0,
													"midpoints" : [  ]
												}

											}
, 											{
												"patchline" : 												{
													"source" : [ "obj-3", 0 ],
													"destination" : [ "obj-4", 1 ],
													"hidden" : 0,
													"midpoints" : [  ]
												}

											}
, 											{
												"patchline" : 												{
													"source" : [ "obj-2", 0 ],
													"destination" : [ "obj-1", 0 ],
													"hidden" : 0,
													"midpoints" : [  ]
												}

											}
, 											{
												"patchline" : 												{
													"source" : [ "obj-17", 0 ],
													"destination" : [ "obj-11", 1 ],
													"hidden" : 0,
													"midpoints" : [  ]
												}

											}
, 											{
												"patchline" : 												{
													"source" : [ "obj-16", 0 ],
													"destination" : [ "obj-11", 2 ],
													"hidden" : 0,
													"midpoints" : [  ]
												}

											}
, 											{
												"patchline" : 												{
													"source" : [ "obj-15", 0 ],
													"destination" : [ "obj-17", 0 ],
													"hidden" : 0,
													"midpoints" : [  ]
												}

											}
, 											{
												"patchline" : 												{
													"source" : [ "obj-14", 0 ],
													"destination" : [ "obj-12", 2 ],
													"hidden" : 0,
													"midpoints" : [  ]
												}

											}
, 											{
												"patchline" : 												{
													"source" : [ "obj-13", 0 ],
													"destination" : [ "obj-12", 0 ],
													"hidden" : 0,
													"midpoints" : [  ]
												}

											}
, 											{
												"patchline" : 												{
													"source" : [ "obj-12", 0 ],
													"destination" : [ "obj-15", 0 ],
													"hidden" : 0,
													"midpoints" : [  ]
												}

											}
, 											{
												"patchline" : 												{
													"source" : [ "obj-11", 0 ],
													"destination" : [ "obj-3", 0 ],
													"hidden" : 0,
													"midpoints" : [  ]
												}

											}
, 											{
												"patchline" : 												{
													"source" : [ "obj-10", 0 ],
													"destination" : [ "obj-12", 3 ],
													"hidden" : 0,
													"midpoints" : [  ]
												}

											}
, 											{
												"patchline" : 												{
													"source" : [ "obj-1", 0 ],
													"destination" : [ "obj-3", 1 ],
													"hidden" : 0,
													"midpoints" : [  ]
												}

											}
 ]
									}
,
									"saved_object_attributes" : 									{
										"fontface" : 0,
										"fontsize" : 12.0,
										"default_fontface" : 0,
										"default_fontname" : "Arial",
										"fontname" : "Arial",
										"default_fontsize" : 12.0,
										"globalpatchername" : ""
									}

								}

							}
, 							{
								"box" : 								{
									"maxclass" : "inlet",
									"numinlets" : 0,
									"numoutlets" : 1,
									"patching_rect" : [ 347.0, 34.0, 15.0, 15.0 ],
									"outlettype" : [ "" ],
									"id" : "obj-12",
									"comment" : ""
								}

							}
, 							{
								"box" : 								{
									"maxclass" : "inlet",
									"numinlets" : 0,
									"numoutlets" : 1,
									"patching_rect" : [ 246.0, 34.0, 15.0, 15.0 ],
									"outlettype" : [ "" ],
									"id" : "obj-13",
									"comment" : ""
								}

							}
, 							{
								"box" : 								{
									"maxclass" : "message",
									"text" : "clear, MoveTo 250 0, LineTo 250 200, MoveTo 500 100",
									"fontsize" : 9.0,
									"numinlets" : 2,
									"numoutlets" : 1,
									"patching_rect" : [ 227.0, 317.0, 267.0, 15.0 ],
									"outlettype" : [ "" ],
									"id" : "obj-14",
									"fontname" : "Arial"
								}

							}
, 							{
								"box" : 								{
									"maxclass" : "newobj",
									"text" : "pack 0 0.",
									"fontsize" : 9.0,
									"numinlets" : 2,
									"numoutlets" : 1,
									"patching_rect" : [ 68.0, 410.0, 49.0, 17.0 ],
									"outlettype" : [ "" ],
									"id" : "obj-15",
									"fontname" : "Arial"
								}

							}
, 							{
								"box" : 								{
									"maxclass" : "newobj",
									"text" : "- 1",
									"fontsize" : 9.0,
									"numinlets" : 2,
									"numoutlets" : 1,
									"patching_rect" : [ 68.0, 316.0, 27.0, 17.0 ],
									"outlettype" : [ "int" ],
									"id" : "obj-16",
									"fontname" : "Arial"
								}

							}
, 							{
								"box" : 								{
									"maxclass" : "newobj",
									"text" : "Uzi 512",
									"fontsize" : 9.0,
									"numinlets" : 2,
									"numoutlets" : 3,
									"patching_rect" : [ 36.0, 294.0, 43.0, 17.0 ],
									"outlettype" : [ "bang", "bang", "int" ],
									"id" : "obj-17",
									"fontname" : "Arial"
								}

							}
, 							{
								"box" : 								{
									"maxclass" : "outlet",
									"numinlets" : 1,
									"numoutlets" : 0,
									"patching_rect" : [ 68.0, 463.0, 15.0, 15.0 ],
									"id" : "obj-18",
									"comment" : ""
								}

							}
, 							{
								"box" : 								{
									"maxclass" : "newobj",
									"text" : "p lcdformat",
									"fontsize" : 9.0,
									"numinlets" : 1,
									"numoutlets" : 1,
									"patching_rect" : [ 68.0, 439.0, 60.0, 17.0 ],
									"outlettype" : [ "" ],
									"id" : "obj-19",
									"fontname" : "Arial",
									"patcher" : 									{
										"fileversion" : 1,
										"rect" : [ 643.0, 196.0, 296.0, 331.0 ],
										"bglocked" : 0,
										"defrect" : [ 643.0, 196.0, 296.0, 331.0 ],
										"openrect" : [ 0.0, 0.0, 0.0, 0.0 ],
										"openinpresentation" : 0,
										"default_fontsize" : 12.0,
										"default_fontface" : 0,
										"default_fontname" : "Arial",
										"gridonopen" : 0,
										"gridsize" : [ 15.0, 15.0 ],
										"gridsnaponopen" : 0,
										"toolbarvisible" : 1,
										"boxanimatetime" : 200,
										"imprint" : 0,
										"enablehscroll" : 1,
										"enablevscroll" : 1,
										"devicewidth" : 0.0,
										"boxes" : [ 											{
												"box" : 												{
													"maxclass" : "newobj",
													"text" : "unpack i 0.",
													"fontsize" : 9.0,
													"numinlets" : 1,
													"numoutlets" : 2,
													"patching_rect" : [ 46.0, 75.0, 56.0, 17.0 ],
													"outlettype" : [ "int", "float" ],
													"id" : "obj-1",
													"fontname" : "Arial"
												}

											}
, 											{
												"box" : 												{
													"maxclass" : "inlet",
													"numinlets" : 0,
													"numoutlets" : 1,
													"patching_rect" : [ 46.0, 54.0, 15.0, 15.0 ],
													"outlettype" : [ "" ],
													"id" : "obj-2",
													"comment" : ""
												}

											}
, 											{
												"box" : 												{
													"maxclass" : "newobj",
													"text" : "pack i i",
													"fontsize" : 9.0,
													"numinlets" : 2,
													"numoutlets" : 1,
													"patching_rect" : [ 65.0, 168.0, 56.0, 17.0 ],
													"outlettype" : [ "" ],
													"id" : "obj-3",
													"fontname" : "Arial"
												}

											}
, 											{
												"box" : 												{
													"maxclass" : "newobj",
													"text" : "prepend LineTo",
													"fontsize" : 9.0,
													"numinlets" : 1,
													"numoutlets" : 1,
													"patching_rect" : [ 46.0, 190.0, 75.0, 17.0 ],
													"outlettype" : [ "" ],
													"id" : "obj-4",
													"fontname" : "Arial"
												}

											}
, 											{
												"box" : 												{
													"maxclass" : "outlet",
													"numinlets" : 1,
													"numoutlets" : 0,
													"patching_rect" : [ 46.0, 213.0, 15.0, 15.0 ],
													"id" : "obj-5",
													"comment" : ""
												}

											}
, 											{
												"box" : 												{
													"maxclass" : "newobj",
													"text" : "expr $f1/ 512. * 500.",
													"fontsize" : 9.0,
													"numinlets" : 1,
													"numoutlets" : 1,
													"patching_rect" : [ 46.0, 123.0, 114.0, 17.0 ],
													"outlettype" : [ "" ],
													"id" : "obj-6",
													"fontname" : "Arial"
												}

											}
, 											{
												"box" : 												{
													"maxclass" : "newobj",
													"text" : "change",
													"fontsize" : 9.0,
													"numinlets" : 1,
													"numoutlets" : 3,
													"patching_rect" : [ 46.0, 144.0, 40.0, 17.0 ],
													"outlettype" : [ "", "int", "int" ],
													"id" : "obj-7",
													"fontname" : "Arial"
												}

											}
, 											{
												"box" : 												{
													"maxclass" : "newobj",
													"text" : "expr ($f1 * -98.)+100",
													"fontsize" : 9.0,
													"numinlets" : 1,
													"numoutlets" : 1,
													"patching_rect" : [ 92.0, 97.0, 115.0, 17.0 ],
													"outlettype" : [ "" ],
													"id" : "obj-8",
													"fontname" : "Arial"
												}

											}
, 											{
												"box" : 												{
													"maxclass" : "newobj",
													"text" : "change",
													"fontsize" : 9.0,
													"numinlets" : 1,
													"numoutlets" : 3,
													"patching_rect" : [ 92.0, 144.0, 40.0, 17.0 ],
													"outlettype" : [ "", "int", "int" ],
													"id" : "obj-9",
													"fontname" : "Arial"
												}

											}
 ],
										"lines" : [ 											{
												"patchline" : 												{
													"source" : [ "obj-9", 0 ],
													"destination" : [ "obj-3", 1 ],
													"hidden" : 0,
													"midpoints" : [  ]
												}

											}
, 											{
												"patchline" : 												{
													"source" : [ "obj-8", 0 ],
													"destination" : [ "obj-9", 0 ],
													"hidden" : 0,
													"midpoints" : [  ]
												}

											}
, 											{
												"patchline" : 												{
													"source" : [ "obj-7", 0 ],
													"destination" : [ "obj-3", 0 ],
													"hidden" : 0,
													"midpoints" : [  ]
												}

											}
, 											{
												"patchline" : 												{
													"source" : [ "obj-6", 0 ],
													"destination" : [ "obj-7", 0 ],
													"hidden" : 0,
													"midpoints" : [  ]
												}

											}
, 											{
												"patchline" : 												{
													"source" : [ "obj-4", 0 ],
													"destination" : [ "obj-5", 0 ],
													"hidden" : 0,
													"midpoints" : [  ]
												}

											}
, 											{
												"patchline" : 												{
													"source" : [ "obj-3", 0 ],
													"destination" : [ "obj-4", 0 ],
													"hidden" : 0,
													"midpoints" : [  ]
												}

											}
, 											{
												"patchline" : 												{
													"source" : [ "obj-2", 0 ],
													"destination" : [ "obj-1", 0 ],
													"hidden" : 0,
													"midpoints" : [  ]
												}

											}
, 											{
												"patchline" : 												{
													"source" : [ "obj-1", 1 ],
													"destination" : [ "obj-8", 0 ],
													"hidden" : 0,
													"midpoints" : [  ]
												}

											}
, 											{
												"patchline" : 												{
													"source" : [ "obj-1", 0 ],
													"destination" : [ "obj-6", 0 ],
													"hidden" : 0,
													"midpoints" : [  ]
												}

											}
 ]
									}
,
									"saved_object_attributes" : 									{
										"fontface" : 0,
										"fontsize" : 12.0,
										"default_fontface" : 0,
										"default_fontname" : "Arial",
										"fontname" : "Arial",
										"default_fontsize" : 12.0,
										"globalpatchername" : ""
									}

								}

							}
, 							{
								"box" : 								{
									"maxclass" : "newobj",
									"text" : "loadbang",
									"linecount" : 2,
									"fontsize" : 9.0,
									"numinlets" : 1,
									"numoutlets" : 1,
									"patching_rect" : [ 301.0, 173.0, 45.0, 27.0 ],
									"outlettype" : [ "bang" ],
									"id" : "obj-20",
									"fontname" : "Arial"
								}

							}
, 							{
								"box" : 								{
									"maxclass" : "inlet",
									"numinlets" : 0,
									"numoutlets" : 1,
									"patching_rect" : [ 194.0, 34.0, 15.0, 15.0 ],
									"outlettype" : [ "" ],
									"id" : "obj-21",
									"comment" : ""
								}

							}
, 							{
								"box" : 								{
									"maxclass" : "newobj",
									"text" : "Uzi 512",
									"fontsize" : 9.0,
									"numinlets" : 2,
									"numoutlets" : 3,
									"patching_rect" : [ 75.0, 76.0, 43.0, 17.0 ],
									"outlettype" : [ "bang", "bang", "int" ],
									"id" : "obj-22",
									"fontname" : "Arial"
								}

							}
, 							{
								"box" : 								{
									"maxclass" : "newobj",
									"text" : "- 1",
									"fontsize" : 9.0,
									"numinlets" : 2,
									"numoutlets" : 1,
									"patching_rect" : [ 107.0, 99.0, 27.0, 17.0 ],
									"outlettype" : [ "int" ],
									"id" : "obj-23",
									"fontname" : "Arial"
								}

							}
, 							{
								"box" : 								{
									"maxclass" : "newobj",
									"text" : "coll",
									"fontsize" : 9.0,
									"numinlets" : 1,
									"numoutlets" : 4,
									"patching_rect" : [ 107.0, 357.0, 40.0, 17.0 ],
									"outlettype" : [ "", "", "", "" ],
									"id" : "obj-24",
									"fontname" : "Arial",
									"saved_object_attributes" : 									{
										"embed" : 0
									}

								}

							}
, 							{
								"box" : 								{
									"maxclass" : "newobj",
									"text" : "pack 0 0.",
									"fontsize" : 9.0,
									"numinlets" : 2,
									"numoutlets" : 1,
									"patching_rect" : [ 107.0, 333.0, 49.0, 17.0 ],
									"outlettype" : [ "" ],
									"id" : "obj-25",
									"fontname" : "Arial"
								}

							}
, 							{
								"box" : 								{
									"maxclass" : "newobj",
									"text" : "accum 0.",
									"fontsize" : 9.0,
									"numinlets" : 3,
									"numoutlets" : 1,
									"patching_rect" : [ 126.0, 306.0, 48.0, 17.0 ],
									"outlettype" : [ "float" ],
									"id" : "obj-26",
									"fontname" : "Arial"
								}

							}
, 							{
								"box" : 								{
									"maxclass" : "newobj",
									"text" : "vexpr sin(($f1+$f2)/((256./$f3)/3.141593)) *$f4",
									"fontsize" : 9.0,
									"numinlets" : 4,
									"numoutlets" : 1,
									"patching_rect" : [ 145.0, 236.0, 245.0, 17.0 ],
									"outlettype" : [ "" ],
									"id" : "obj-27",
									"fontname" : "Arial"
								}

							}
, 							{
								"box" : 								{
									"maxclass" : "message",
									"text" : "$1 $1 $1 $1 $1 $1 $1 $1 $1 $1 $1 $1 $1 $1 $1 $1 $1 $1 $1 $1",
									"fontsize" : 9.0,
									"numinlets" : 2,
									"numoutlets" : 1,
									"patching_rect" : [ 145.0, 216.0, 305.0, 15.0 ],
									"outlettype" : [ "" ],
									"id" : "obj-28",
									"fontname" : "Arial"
								}

							}
, 							{
								"box" : 								{
									"maxclass" : "message",
									"text" : "1. 2. 3. 4. 5. 6. 7. 8. 9. 10. 11. 12. 13. 14. 15. 16. 17. 18. 19. 20.",
									"fontsize" : 9.0,
									"numinlets" : 2,
									"numoutlets" : 1,
									"patching_rect" : [ 301.0, 196.0, 311.0, 15.0 ],
									"outlettype" : [ "" ],
									"id" : "obj-29",
									"fontname" : "Arial"
								}

							}
, 							{
								"box" : 								{
									"maxclass" : "newobj",
									"text" : "iter",
									"fontsize" : 9.0,
									"numinlets" : 1,
									"numoutlets" : 1,
									"patching_rect" : [ 145.0, 261.0, 25.0, 17.0 ],
									"outlettype" : [ "" ],
									"id" : "obj-30",
									"fontname" : "Arial"
								}

							}
, 							{
								"box" : 								{
									"maxclass" : "newobj",
									"text" : "t i b f b",
									"fontsize" : 9.0,
									"numinlets" : 1,
									"numoutlets" : 4,
									"patching_rect" : [ 107.0, 121.0, 67.0, 17.0 ],
									"outlettype" : [ "int", "bang", "float", "bang" ],
									"id" : "obj-31",
									"fontname" : "Arial"
								}

							}
, 							{
								"box" : 								{
									"maxclass" : "message",
									"text" : "0.",
									"fontsize" : 9.0,
									"numinlets" : 2,
									"numoutlets" : 1,
									"patching_rect" : [ 194.0, 262.0, 17.0, 15.0 ],
									"outlettype" : [ "" ],
									"id" : "obj-32",
									"fontname" : "Arial"
								}

							}
, 							{
								"box" : 								{
									"maxclass" : "newobj",
									"text" : "p abs.peak.float",
									"fontsize" : 9.0,
									"numinlets" : 2,
									"numoutlets" : 1,
									"patching_rect" : [ 149.0, 357.0, 78.0, 17.0 ],
									"outlettype" : [ "float" ],
									"id" : "obj-33",
									"fontname" : "Arial",
									"patcher" : 									{
										"fileversion" : 1,
										"rect" : [ 50.0, 40.0, 237.0, 286.0 ],
										"bglocked" : 0,
										"defrect" : [ 50.0, 40.0, 237.0, 286.0 ],
										"openrect" : [ 0.0, 0.0, 0.0, 0.0 ],
										"openinpresentation" : 0,
										"default_fontsize" : 12.0,
										"default_fontface" : 0,
										"default_fontname" : "Arial",
										"gridonopen" : 0,
										"gridsize" : [ 15.0, 15.0 ],
										"gridsnaponopen" : 0,
										"toolbarvisible" : 1,
										"boxanimatetime" : 200,
										"imprint" : 0,
										"enablehscroll" : 1,
										"enablevscroll" : 1,
										"devicewidth" : 0.0,
										"boxes" : [ 											{
												"box" : 												{
													"maxclass" : "inlet",
													"numinlets" : 0,
													"numoutlets" : 1,
													"patching_rect" : [ 124.0, 25.0, 15.0, 15.0 ],
													"outlettype" : [ "bang" ],
													"id" : "obj-1",
													"comment" : ""
												}

											}
, 											{
												"box" : 												{
													"maxclass" : "comment",
													"text" : "reset",
													"fontsize" : 9.0,
													"numinlets" : 1,
													"numoutlets" : 0,
													"patching_rect" : [ 141.0, 25.0, 38.0, 17.0 ],
													"id" : "obj-2",
													"fontname" : "Arial"
												}

											}
, 											{
												"box" : 												{
													"maxclass" : "message",
													"text" : "0",
													"fontsize" : 9.0,
													"numinlets" : 2,
													"numoutlets" : 1,
													"patching_rect" : [ 124.0, 64.0, 16.0, 15.0 ],
													"outlettype" : [ "" ],
													"id" : "obj-3",
													"fontname" : "Arial"
												}

											}
, 											{
												"box" : 												{
													"maxclass" : "newobj",
													"text" : "> 0.",
													"fontsize" : 9.0,
													"numinlets" : 2,
													"numoutlets" : 1,
													"patching_rect" : [ 88.0, 65.0, 27.0, 17.0 ],
													"outlettype" : [ "int" ],
													"id" : "obj-4",
													"fontname" : "Arial"
												}

											}
, 											{
												"box" : 												{
													"maxclass" : "newobj",
													"text" : "sel 0",
													"fontsize" : 9.0,
													"numinlets" : 2,
													"numoutlets" : 2,
													"patching_rect" : [ 88.0, 85.0, 30.0, 17.0 ],
													"outlettype" : [ "bang", "" ],
													"id" : "obj-5",
													"fontname" : "Arial"
												}

											}
, 											{
												"box" : 												{
													"maxclass" : "newobj",
													"text" : "t f f",
													"fontsize" : 9.0,
													"numinlets" : 1,
													"numoutlets" : 2,
													"patching_rect" : [ 71.0, 45.0, 27.0, 17.0 ],
													"outlettype" : [ "float", "float" ],
													"id" : "obj-6",
													"fontname" : "Arial"
												}

											}
, 											{
												"box" : 												{
													"maxclass" : "message",
													"text" : "-1",
													"fontsize" : 9.0,
													"numinlets" : 2,
													"numoutlets" : 1,
													"patching_rect" : [ 88.0, 105.0, 19.0, 15.0 ],
													"outlettype" : [ "" ],
													"id" : "obj-7",
													"fontname" : "Arial"
												}

											}
, 											{
												"box" : 												{
													"maxclass" : "newobj",
													"text" : "* 1.",
													"fontsize" : 9.0,
													"numinlets" : 2,
													"numoutlets" : 1,
													"patching_rect" : [ 71.0, 124.0, 27.0, 17.0 ],
													"outlettype" : [ "float" ],
													"id" : "obj-8",
													"fontname" : "Arial"
												}

											}
, 											{
												"box" : 												{
													"maxclass" : "newobj",
													"text" : "maximum 0.",
													"fontsize" : 9.0,
													"numinlets" : 2,
													"numoutlets" : 2,
													"patching_rect" : [ 71.0, 145.0, 63.0, 17.0 ],
													"outlettype" : [ "float", "int" ],
													"id" : "obj-9",
													"fontname" : "Arial"
												}

											}
, 											{
												"box" : 												{
													"maxclass" : "newobj",
													"text" : "t f f",
													"fontsize" : 9.0,
													"numinlets" : 1,
													"numoutlets" : 2,
													"patching_rect" : [ 71.0, 166.0, 27.0, 17.0 ],
													"outlettype" : [ "float", "float" ],
													"id" : "obj-10",
													"fontname" : "Arial"
												}

											}
, 											{
												"box" : 												{
													"maxclass" : "inlet",
													"numinlets" : 0,
													"numoutlets" : 1,
													"patching_rect" : [ 71.0, 25.0, 15.0, 15.0 ],
													"outlettype" : [ "float" ],
													"id" : "obj-11",
													"comment" : ""
												}

											}
, 											{
												"box" : 												{
													"maxclass" : "outlet",
													"numinlets" : 1,
													"numoutlets" : 0,
													"patching_rect" : [ 71.0, 189.0, 15.0, 15.0 ],
													"id" : "obj-12",
													"comment" : ""
												}

											}
 ],
										"lines" : [ 											{
												"patchline" : 												{
													"source" : [ "obj-9", 0 ],
													"destination" : [ "obj-10", 0 ],
													"hidden" : 0,
													"midpoints" : [  ]
												}

											}
, 											{
												"patchline" : 												{
													"source" : [ "obj-8", 0 ],
													"destination" : [ "obj-9", 0 ],
													"hidden" : 0,
													"midpoints" : [  ]
												}

											}
, 											{
												"patchline" : 												{
													"source" : [ "obj-7", 0 ],
													"destination" : [ "obj-8", 1 ],
													"hidden" : 0,
													"midpoints" : [  ]
												}

											}
, 											{
												"patchline" : 												{
													"source" : [ "obj-6", 0 ],
													"destination" : [ "obj-8", 0 ],
													"hidden" : 0,
													"midpoints" : [  ]
												}

											}
, 											{
												"patchline" : 												{
													"source" : [ "obj-6", 1 ],
													"destination" : [ "obj-4", 0 ],
													"hidden" : 0,
													"midpoints" : [  ]
												}

											}
, 											{
												"patchline" : 												{
													"source" : [ "obj-5", 1 ],
													"destination" : [ "obj-8", 1 ],
													"hidden" : 0,
													"midpoints" : [  ]
												}

											}
, 											{
												"patchline" : 												{
													"source" : [ "obj-5", 0 ],
													"destination" : [ "obj-7", 0 ],
													"hidden" : 0,
													"midpoints" : [  ]
												}

											}
, 											{
												"patchline" : 												{
													"source" : [ "obj-4", 0 ],
													"destination" : [ "obj-5", 0 ],
													"hidden" : 0,
													"midpoints" : [  ]
												}

											}
, 											{
												"patchline" : 												{
													"source" : [ "obj-3", 0 ],
													"destination" : [ "obj-9", 1 ],
													"hidden" : 0,
													"midpoints" : [  ]
												}

											}
, 											{
												"patchline" : 												{
													"source" : [ "obj-11", 0 ],
													"destination" : [ "obj-6", 0 ],
													"hidden" : 0,
													"midpoints" : [  ]
												}

											}
, 											{
												"patchline" : 												{
													"source" : [ "obj-10", 1 ],
													"destination" : [ "obj-9", 1 ],
													"hidden" : 0,
													"midpoints" : [  ]
												}

											}
, 											{
												"patchline" : 												{
													"source" : [ "obj-10", 0 ],
													"destination" : [ "obj-12", 0 ],
													"hidden" : 0,
													"midpoints" : [  ]
												}

											}
, 											{
												"patchline" : 												{
													"source" : [ "obj-1", 0 ],
													"destination" : [ "obj-3", 0 ],
													"hidden" : 0,
													"midpoints" : [  ]
												}

											}
 ]
									}
,
									"saved_object_attributes" : 									{
										"fontface" : 0,
										"fontsize" : 12.0,
										"default_fontface" : 0,
										"default_fontname" : "Arial",
										"fontname" : "Arial",
										"default_fontsize" : 12.0,
										"globalpatchername" : ""
									}

								}

							}
, 							{
								"box" : 								{
									"maxclass" : "newobj",
									"text" : "/ 1.",
									"fontsize" : 9.0,
									"numinlets" : 2,
									"numoutlets" : 1,
									"patching_rect" : [ 107.0, 382.0, 52.0, 17.0 ],
									"outlettype" : [ "float" ],
									"id" : "obj-34",
									"fontname" : "Arial"
								}

							}
, 							{
								"box" : 								{
									"maxclass" : "newobj",
									"text" : "coll addwavecoll",
									"fontsize" : 9.0,
									"numinlets" : 1,
									"numoutlets" : 4,
									"patching_rect" : [ 131.0, 440.0, 82.0, 17.0 ],
									"outlettype" : [ "", "", "", "" ],
									"id" : "obj-35",
									"fontname" : "Arial",
									"saved_object_attributes" : 									{
										"embed" : 0
									}

								}

							}
, 							{
								"box" : 								{
									"maxclass" : "newobj",
									"text" : "b 3",
									"fontsize" : 9.0,
									"numinlets" : 1,
									"numoutlets" : 3,
									"patching_rect" : [ 36.0, 54.0, 89.0, 17.0 ],
									"outlettype" : [ "bang", "bang", "bang" ],
									"id" : "obj-36",
									"fontname" : "Arial"
								}

							}
, 							{
								"box" : 								{
									"maxclass" : "comment",
									"text" : "modulating waveform",
									"fontsize" : 9.0,
									"numinlets" : 1,
									"numoutlets" : 0,
									"patching_rect" : [ 460.0, 147.0, 107.0, 17.0 ],
									"id" : "obj-37",
									"fontname" : "Arial"
								}

							}
 ],
						"lines" : [ 							{
								"patchline" : 								{
									"source" : [ "obj-9", 0 ],
									"destination" : [ "obj-11", 3 ],
									"hidden" : 0,
									"midpoints" : [  ]
								}

							}
, 							{
								"patchline" : 								{
									"source" : [ "obj-8", 0 ],
									"destination" : [ "obj-36", 0 ],
									"hidden" : 0,
									"midpoints" : [  ]
								}

							}
, 							{
								"patchline" : 								{
									"source" : [ "obj-7", 0 ],
									"destination" : [ "obj-26", 1 ],
									"hidden" : 0,
									"midpoints" : [  ]
								}

							}
, 							{
								"patchline" : 								{
									"source" : [ "obj-5", 0 ],
									"destination" : [ "obj-27", 1 ],
									"hidden" : 0,
									"midpoints" : [  ]
								}

							}
, 							{
								"patchline" : 								{
									"source" : [ "obj-4", 0 ],
									"destination" : [ "obj-5", 0 ],
									"hidden" : 0,
									"midpoints" : [  ]
								}

							}
, 							{
								"patchline" : 								{
									"source" : [ "obj-4", 0 ],
									"destination" : [ "obj-14", 0 ],
									"hidden" : 0,
									"midpoints" : [  ]
								}

							}
, 							{
								"patchline" : 								{
									"source" : [ "obj-36", 2 ],
									"destination" : [ "obj-33", 1 ],
									"hidden" : 0,
									"midpoints" : [  ]
								}

							}
, 							{
								"patchline" : 								{
									"source" : [ "obj-36", 1 ],
									"destination" : [ "obj-22", 0 ],
									"hidden" : 0,
									"midpoints" : [  ]
								}

							}
, 							{
								"patchline" : 								{
									"source" : [ "obj-36", 0 ],
									"destination" : [ "obj-17", 0 ],
									"hidden" : 0,
									"midpoints" : [  ]
								}

							}
, 							{
								"patchline" : 								{
									"source" : [ "obj-36", 2 ],
									"destination" : [ "obj-14", 0 ],
									"hidden" : 0,
									"midpoints" : [  ]
								}

							}
, 							{
								"patchline" : 								{
									"source" : [ "obj-34", 0 ],
									"destination" : [ "obj-15", 1 ],
									"hidden" : 0,
									"midpoints" : [  ]
								}

							}
, 							{
								"patchline" : 								{
									"source" : [ "obj-33", 0 ],
									"destination" : [ "obj-34", 1 ],
									"hidden" : 0,
									"midpoints" : [  ]
								}

							}
, 							{
								"patchline" : 								{
									"source" : [ "obj-32", 0 ],
									"destination" : [ "obj-26", 2 ],
									"hidden" : 0,
									"midpoints" : [  ]
								}

							}
, 							{
								"patchline" : 								{
									"source" : [ "obj-31", 3 ],
									"destination" : [ "obj-32", 0 ],
									"hidden" : 0,
									"midpoints" : [  ]
								}

							}
, 							{
								"patchline" : 								{
									"source" : [ "obj-31", 1 ],
									"destination" : [ "obj-26", 0 ],
									"hidden" : 0,
									"midpoints" : [  ]
								}

							}
, 							{
								"patchline" : 								{
									"source" : [ "obj-31", 0 ],
									"destination" : [ "obj-25", 0 ],
									"hidden" : 0,
									"midpoints" : [  ]
								}

							}
, 							{
								"patchline" : 								{
									"source" : [ "obj-31", 2 ],
									"destination" : [ "obj-11", 0 ],
									"hidden" : 0,
									"midpoints" : [  ]
								}

							}
, 							{
								"patchline" : 								{
									"source" : [ "obj-30", 0 ],
									"destination" : [ "obj-7", 0 ],
									"hidden" : 0,
									"midpoints" : [  ]
								}

							}
, 							{
								"patchline" : 								{
									"source" : [ "obj-3", 0 ],
									"destination" : [ "obj-18", 0 ],
									"hidden" : 0,
									"midpoints" : [  ]
								}

							}
, 							{
								"patchline" : 								{
									"source" : [ "obj-29", 0 ],
									"destination" : [ "obj-27", 2 ],
									"hidden" : 0,
									"midpoints" : [  ]
								}

							}
, 							{
								"patchline" : 								{
									"source" : [ "obj-28", 0 ],
									"destination" : [ "obj-27", 0 ],
									"hidden" : 0,
									"midpoints" : [  ]
								}

							}
, 							{
								"patchline" : 								{
									"source" : [ "obj-27", 0 ],
									"destination" : [ "obj-30", 0 ],
									"hidden" : 0,
									"midpoints" : [  ]
								}

							}
, 							{
								"patchline" : 								{
									"source" : [ "obj-26", 0 ],
									"destination" : [ "obj-33", 0 ],
									"hidden" : 0,
									"midpoints" : [  ]
								}

							}
, 							{
								"patchline" : 								{
									"source" : [ "obj-26", 0 ],
									"destination" : [ "obj-25", 1 ],
									"hidden" : 0,
									"midpoints" : [  ]
								}

							}
, 							{
								"patchline" : 								{
									"source" : [ "obj-25", 0 ],
									"destination" : [ "obj-24", 0 ],
									"hidden" : 0,
									"midpoints" : [  ]
								}

							}
, 							{
								"patchline" : 								{
									"source" : [ "obj-24", 0 ],
									"destination" : [ "obj-34", 0 ],
									"hidden" : 0,
									"midpoints" : [  ]
								}

							}
, 							{
								"patchline" : 								{
									"source" : [ "obj-23", 0 ],
									"destination" : [ "obj-31", 0 ],
									"hidden" : 0,
									"midpoints" : [  ]
								}

							}
, 							{
								"patchline" : 								{
									"source" : [ "obj-22", 2 ],
									"destination" : [ "obj-23", 0 ],
									"hidden" : 0,
									"midpoints" : [  ]
								}

							}
, 							{
								"patchline" : 								{
									"source" : [ "obj-21", 0 ],
									"destination" : [ "obj-27", 3 ],
									"hidden" : 0,
									"midpoints" : [  ]
								}

							}
, 							{
								"patchline" : 								{
									"source" : [ "obj-20", 0 ],
									"destination" : [ "obj-29", 0 ],
									"hidden" : 0,
									"midpoints" : [  ]
								}

							}
, 							{
								"patchline" : 								{
									"source" : [ "obj-2", 0 ],
									"destination" : [ "obj-36", 0 ],
									"hidden" : 0,
									"midpoints" : [  ]
								}

							}
, 							{
								"patchline" : 								{
									"source" : [ "obj-19", 0 ],
									"destination" : [ "obj-18", 0 ],
									"hidden" : 0,
									"midpoints" : [  ]
								}

							}
, 							{
								"patchline" : 								{
									"source" : [ "obj-17", 2 ],
									"destination" : [ "obj-16", 0 ],
									"hidden" : 0,
									"midpoints" : [  ]
								}

							}
, 							{
								"patchline" : 								{
									"source" : [ "obj-16", 0 ],
									"destination" : [ "obj-24", 0 ],
									"hidden" : 0,
									"midpoints" : [  ]
								}

							}
, 							{
								"patchline" : 								{
									"source" : [ "obj-16", 0 ],
									"destination" : [ "obj-15", 0 ],
									"hidden" : 0,
									"midpoints" : [  ]
								}

							}
, 							{
								"patchline" : 								{
									"source" : [ "obj-15", 0 ],
									"destination" : [ "obj-6", 0 ],
									"hidden" : 0,
									"midpoints" : [  ]
								}

							}
, 							{
								"patchline" : 								{
									"source" : [ "obj-15", 0 ],
									"destination" : [ "obj-35", 0 ],
									"hidden" : 0,
									"midpoints" : [  ]
								}

							}
, 							{
								"patchline" : 								{
									"source" : [ "obj-15", 0 ],
									"destination" : [ "obj-19", 0 ],
									"hidden" : 0,
									"midpoints" : [  ]
								}

							}
, 							{
								"patchline" : 								{
									"source" : [ "obj-14", 0 ],
									"destination" : [ "obj-18", 0 ],
									"hidden" : 0,
									"midpoints" : [  ]
								}

							}
, 							{
								"patchline" : 								{
									"source" : [ "obj-13", 0 ],
									"destination" : [ "obj-11", 1 ],
									"hidden" : 0,
									"midpoints" : [  ]
								}

							}
, 							{
								"patchline" : 								{
									"source" : [ "obj-12", 0 ],
									"destination" : [ "obj-11", 2 ],
									"hidden" : 0,
									"midpoints" : [  ]
								}

							}
, 							{
								"patchline" : 								{
									"source" : [ "obj-11", 0 ],
									"destination" : [ "obj-28", 0 ],
									"hidden" : 0,
									"midpoints" : [  ]
								}

							}
, 							{
								"patchline" : 								{
									"source" : [ "obj-10", 0 ],
									"destination" : [ "obj-9", 0 ],
									"hidden" : 0,
									"midpoints" : [  ]
								}

							}
 ]
					}
,
					"saved_object_attributes" : 					{
						"fontface" : 0,
						"fontsize" : 12.0,
						"default_fontface" : 0,
						"default_fontname" : "Arial",
						"fontname" : "Arial",
						"default_fontsize" : 12.0,
						"globalpatchername" : ""
					}

				}

			}
, 			{
				"box" : 				{
					"maxclass" : "comment",
					"text" : "resultant wave",
					"linecount" : 2,
					"fontsize" : 12.0,
					"numinlets" : 1,
					"numoutlets" : 0,
					"patching_rect" : [ 9.0, 406.0, 58.0, 34.0 ],
					"id" : "obj-53",
					"fontname" : "Arial"
				}

			}
, 			{
				"box" : 				{
					"maxclass" : "comment",
					"text" : "amplitude",
					"fontsize" : 12.0,
					"numinlets" : 1,
					"numoutlets" : 0,
					"patching_rect" : [ 16.0, 190.0, 68.0, 20.0 ],
					"id" : "obj-55",
					"fontname" : "Arial"
				}

			}
, 			{
				"box" : 				{
					"maxclass" : "comment",
					"text" : "0.",
					"fontsize" : 12.0,
					"numinlets" : 1,
					"numoutlets" : 0,
					"patching_rect" : [ 41.0, 309.0, 28.0, 20.0 ],
					"id" : "obj-56",
					"fontname" : "Arial"
				}

			}
, 			{
				"box" : 				{
					"maxclass" : "comment",
					"text" : "partial number",
					"fontsize" : 12.0,
					"numinlets" : 1,
					"numoutlets" : 0,
					"patching_rect" : [ 252.0, 172.0, 87.0, 20.0 ],
					"id" : "obj-57",
					"fontname" : "Arial"
				}

			}
 ],
		"lines" : [ 			{
				"patchline" : 				{
					"source" : [ "obj-1", 0 ],
					"destination" : [ "obj-14", 1 ],
					"hidden" : 1,
					"midpoints" : [  ]
				}

			}
, 			{
				"patchline" : 				{
					"source" : [ "obj-8", 0 ],
					"destination" : [ "obj-1", 0 ],
					"hidden" : 1,
					"midpoints" : [  ]
				}

			}
, 			{
				"patchline" : 				{
					"source" : [ "obj-9", 0 ],
					"destination" : [ "obj-8", 0 ],
					"hidden" : 1,
					"midpoints" : [  ]
				}

			}
, 			{
				"patchline" : 				{
					"source" : [ "obj-62", 0 ],
					"destination" : [ "obj-9", 0 ],
					"hidden" : 1,
					"midpoints" : [  ]
				}

			}
, 			{
				"patchline" : 				{
					"source" : [ "obj-62", 0 ],
					"destination" : [ "obj-13", 0 ],
					"hidden" : 1,
					"midpoints" : [  ]
				}

			}
, 			{
				"patchline" : 				{
					"source" : [ "obj-6", 0 ],
					"destination" : [ "obj-39", 0 ],
					"hidden" : 1,
					"midpoints" : [  ]
				}

			}
, 			{
				"patchline" : 				{
					"source" : [ "obj-6", 1 ],
					"destination" : [ "obj-39", 0 ],
					"hidden" : 1,
					"midpoints" : [  ]
				}

			}
, 			{
				"patchline" : 				{
					"source" : [ "obj-6", 2 ],
					"destination" : [ "obj-39", 0 ],
					"hidden" : 1,
					"midpoints" : [  ]
				}

			}
, 			{
				"patchline" : 				{
					"source" : [ "obj-6", 3 ],
					"destination" : [ "obj-39", 0 ],
					"hidden" : 1,
					"midpoints" : [  ]
				}

			}
, 			{
				"patchline" : 				{
					"source" : [ "obj-6", 4 ],
					"destination" : [ "obj-39", 0 ],
					"hidden" : 1,
					"midpoints" : [  ]
				}

			}
, 			{
				"patchline" : 				{
					"source" : [ "obj-6", 5 ],
					"destination" : [ "obj-39", 0 ],
					"hidden" : 1,
					"midpoints" : [  ]
				}

			}
, 			{
				"patchline" : 				{
					"source" : [ "obj-6", 6 ],
					"destination" : [ "obj-39", 0 ],
					"hidden" : 1,
					"midpoints" : [  ]
				}

			}
, 			{
				"patchline" : 				{
					"source" : [ "obj-52", 0 ],
					"destination" : [ "obj-51", 0 ],
					"hidden" : 1,
					"midpoints" : [  ]
				}

			}
, 			{
				"patchline" : 				{
					"source" : [ "obj-52", 1 ],
					"destination" : [ "obj-46", 0 ],
					"hidden" : 1,
					"midpoints" : [  ]
				}

			}
, 			{
				"patchline" : 				{
					"source" : [ "obj-50", 0 ],
					"destination" : [ "obj-41", 0 ],
					"hidden" : 1,
					"midpoints" : [  ]
				}

			}
, 			{
				"patchline" : 				{
					"source" : [ "obj-49", 0 ],
					"destination" : [ "obj-50", 0 ],
					"hidden" : 1,
					"midpoints" : [  ]
				}

			}
, 			{
				"patchline" : 				{
					"source" : [ "obj-48", 0 ],
					"destination" : [ "obj-52", 0 ],
					"hidden" : 1,
					"midpoints" : [  ]
				}

			}
, 			{
				"patchline" : 				{
					"source" : [ "obj-48", 0 ],
					"destination" : [ "obj-43", 0 ],
					"hidden" : 1,
					"midpoints" : [  ]
				}

			}
, 			{
				"patchline" : 				{
					"source" : [ "obj-45", 0 ],
					"destination" : [ "obj-58", 0 ],
					"hidden" : 1,
					"midpoints" : [  ]
				}

			}
, 			{
				"patchline" : 				{
					"source" : [ "obj-45", 0 ],
					"destination" : [ "obj-58", 1 ],
					"hidden" : 1,
					"midpoints" : [  ]
				}

			}
, 			{
				"patchline" : 				{
					"source" : [ "obj-45", 0 ],
					"destination" : [ "obj-3", 0 ],
					"hidden" : 1,
					"midpoints" : [  ]
				}

			}
, 			{
				"patchline" : 				{
					"source" : [ "obj-45", 0 ],
					"destination" : [ "obj-3", 1 ],
					"hidden" : 1,
					"midpoints" : [  ]
				}

			}
, 			{
				"patchline" : 				{
					"source" : [ "obj-44", 0 ],
					"destination" : [ "obj-45", 0 ],
					"hidden" : 1,
					"midpoints" : [  ]
				}

			}
, 			{
				"patchline" : 				{
					"source" : [ "obj-43", 0 ],
					"destination" : [ "obj-42", 0 ],
					"hidden" : 1,
					"midpoints" : [  ]
				}

			}
, 			{
				"patchline" : 				{
					"source" : [ "obj-42", 0 ],
					"destination" : [ "obj-44", 0 ],
					"hidden" : 1,
					"midpoints" : [  ]
				}

			}
, 			{
				"patchline" : 				{
					"source" : [ "obj-41", 0 ],
					"destination" : [ "obj-40", 0 ],
					"hidden" : 1,
					"midpoints" : [  ]
				}

			}
, 			{
				"patchline" : 				{
					"source" : [ "obj-40", 1 ],
					"destination" : [ "obj-52", 0 ],
					"hidden" : 1,
					"midpoints" : [  ]
				}

			}
, 			{
				"patchline" : 				{
					"source" : [ "obj-40", 2 ],
					"destination" : [ "obj-52", 1 ],
					"hidden" : 1,
					"midpoints" : [  ]
				}

			}
, 			{
				"patchline" : 				{
					"source" : [ "obj-40", 0 ],
					"destination" : [ "obj-48", 0 ],
					"hidden" : 1,
					"midpoints" : [  ]
				}

			}
, 			{
				"patchline" : 				{
					"source" : [ "obj-39", 0 ],
					"destination" : [ "obj-37", 0 ],
					"hidden" : 1,
					"midpoints" : [  ]
				}

			}
, 			{
				"patchline" : 				{
					"source" : [ "obj-38", 0 ],
					"destination" : [ "obj-45", 1 ],
					"hidden" : 1,
					"midpoints" : [  ]
				}

			}
, 			{
				"patchline" : 				{
					"source" : [ "obj-37", 0 ],
					"destination" : [ "obj-36", 0 ],
					"hidden" : 1,
					"midpoints" : [  ]
				}

			}
, 			{
				"patchline" : 				{
					"source" : [ "obj-36", 1 ],
					"destination" : [ "obj-44", 0 ],
					"hidden" : 1,
					"midpoints" : [  ]
				}

			}
, 			{
				"patchline" : 				{
					"source" : [ "obj-36", 0 ],
					"destination" : [ "obj-35", 0 ],
					"hidden" : 1,
					"midpoints" : [  ]
				}

			}
, 			{
				"patchline" : 				{
					"source" : [ "obj-35", 0 ],
					"destination" : [ "obj-38", 0 ],
					"hidden" : 1,
					"midpoints" : [  ]
				}

			}
, 			{
				"patchline" : 				{
					"source" : [ "obj-14", 0 ],
					"destination" : [ "obj-6", 0 ],
					"hidden" : 1,
					"midpoints" : [  ]
				}

			}
, 			{
				"patchline" : 				{
					"source" : [ "obj-13", 0 ],
					"destination" : [ "obj-14", 0 ],
					"hidden" : 1,
					"midpoints" : [  ]
				}

			}
 ],
		"parameters" : 		{
			"obj-3::obj-24" : [ "live.gain~", " ", 0 ]
		}

	}

}
