{
	"patcher" : 	{
		"fileversion" : 1,
		"rect" : [ 14.0, 52.0, 701.0, 507.0 ],
		"bglocked" : 0,
		"defrect" : [ 14.0, 52.0, 701.0, 507.0 ],
		"openrect" : [ 0.0, 0.0, 0.0, 0.0 ],
		"openinpresentation" : 0,
		"default_fontsize" : 12.0,
		"default_fontface" : 0,
		"default_fontname" : "Arial",
		"gridonopen" : 0,
		"gridsize" : [ 4.0, 4.0 ],
		"gridsnaponopen" : 0,
		"toolbarvisible" : 1,
		"boxanimatetime" : 200,
		"imprint" : 0,
		"enablehscroll" : 1,
		"enablevscroll" : 1,
		"devicewidth" : 0.0,
		"boxes" : [ 			{
				"box" : 				{
					"maxclass" : "bpatcher",
					"args" : [ 80 ],
					"numinlets" : 3,
					"patching_rect" : [ 8.0, 296.0, 100.0, 192.0 ],
					"numoutlets" : 2,
					"id" : "obj-82",
					"name" : "simple-stereo-gain~.maxpat",
					"outlettype" : [ "signal", "signal" ]
				}

			}
, 			{
				"box" : 				{
					"maxclass" : "newobj",
					"text" : "loadmess 1",
					"fontsize" : 12.0,
					"hidden" : 1,
					"numinlets" : 1,
					"patching_rect" : [ 603.0, 86.0, 72.0, 20.0 ],
					"numoutlets" : 1,
					"id" : "obj-18",
					"fontname" : "Arial",
					"outlettype" : [ "" ]
				}

			}
, 			{
				"box" : 				{
					"maxclass" : "comment",
					"text" : "Select a waveform and perform the timbre in the key of C Major",
					"fontsize" : 20.0,
					"numinlets" : 1,
					"patching_rect" : [ 110.0, 114.0, 572.0, 29.0 ],
					"numoutlets" : 0,
					"id" : "obj-5",
					"fontname" : "Arial"
				}

			}
, 			{
				"box" : 				{
					"maxclass" : "bpatcher",
					"args" : [ "music29" ],
					"numinlets" : 2,
					"patching_rect" : [ 560.0, 3.0, 140.0, 58.0 ],
					"numoutlets" : 1,
					"id" : "obj-43",
					"name" : "aux_send.maxpat",
					"outlettype" : [ "" ]
				}

			}
, 			{
				"box" : 				{
					"maxclass" : "comment",
					"text" : "Displayed is the frequency domain representation of the current waveform performed.  As  the fundamental frequency changes the relative distance between partials changes. Western music practice identifies the fundamental frequency or first partial as the \"note\" or \"pitch\".  Music notation does not account for timbre, only the fundamental frequency. As the waveform is changed partials are added and subtrated to produce new timbres.  If these notes were represented in traditional music notation, they would all be notated in the same way, but the frequency domain representation demonstrates that notes and pitches are complex and very different from one another.  ",
					"linecount" : 7,
					"fontsize" : 12.0,
					"numinlets" : 1,
					"patching_rect" : [ 156.0, 179.0, 538.0, 103.0 ],
					"numoutlets" : 0,
					"id" : "obj-1",
					"fontname" : "Arial"
				}

			}
, 			{
				"box" : 				{
					"maxclass" : "spectroscope~",
					"bordercolor" : [ 0.0, 0.0, 0.0, 1.0 ],
					"markercolor" : [ 0.721569, 0.721569, 0.721569, 1.0 ],
					"sonomedhicolor" : [ 1.0, 0.74902, 0.0, 1.0 ],
					"sonomedcolor" : [ 0.0, 0.74902, 0.498039, 1.0 ],
					"peakcolor" : [ 0.952941, 0.8, 0.8, 1.0 ],
					"numinlets" : 2,
					"sonomedlocolor" : [ 0.498039, 0.0, 0.498039, 1.0 ],
					"bgcolor" : [ 1.0, 1.0, 1.0, 1.0 ],
					"patching_rect" : [ 156.0, 294.0, 524.0, 184.0 ],
					"numoutlets" : 1,
					"id" : "obj-2",
					"domain" : [ 0.0, 10000.0 ],
					"rounded" : 0,
					"fgcolor" : [ 0.878431, 0.878431, 0.878431, 1.0 ],
					"outlettype" : [ "" ]
				}

			}
, 			{
				"box" : 				{
					"maxclass" : "comment",
					"text" : "10000 Hz",
					"fontsize" : 12.0,
					"numinlets" : 1,
					"patching_rect" : [ 609.0, 480.0, 69.0, 20.0 ],
					"numoutlets" : 0,
					"id" : "obj-3",
					"fontname" : "Arial"
				}

			}
, 			{
				"box" : 				{
					"maxclass" : "comment",
					"text" : "0 Hz",
					"fontsize" : 12.0,
					"numinlets" : 1,
					"patching_rect" : [ 155.0, 481.0, 37.0, 20.0 ],
					"numoutlets" : 0,
					"id" : "obj-4",
					"fontname" : "Arial"
				}

			}
, 			{
				"box" : 				{
					"maxclass" : "toggle",
					"hidden" : 1,
					"numinlets" : 1,
					"patching_rect" : [ 498.0, 62.0, 20.0, 20.0 ],
					"numoutlets" : 1,
					"id" : "obj-7",
					"outlettype" : [ "int" ]
				}

			}
, 			{
				"box" : 				{
					"maxclass" : "newobj",
					"text" : "p AUTOMATION",
					"fontsize" : 12.0,
					"hidden" : 1,
					"numinlets" : 1,
					"patching_rect" : [ 498.0, 83.0, 101.0, 20.0 ],
					"numoutlets" : 1,
					"id" : "obj-8",
					"fontname" : "Arial",
					"outlettype" : [ "" ],
					"patcher" : 					{
						"fileversion" : 1,
						"rect" : [ 320.0, 301.0, 349.0, 388.0 ],
						"bglocked" : 0,
						"defrect" : [ 320.0, 301.0, 349.0, 388.0 ],
						"openrect" : [ 0.0, 0.0, 0.0, 0.0 ],
						"openinpresentation" : 0,
						"default_fontsize" : 12.0,
						"default_fontface" : 0,
						"default_fontname" : "Arial",
						"gridonopen" : 0,
						"gridsize" : [ 15.0, 15.0 ],
						"gridsnaponopen" : 0,
						"toolbarvisible" : 1,
						"boxanimatetime" : 200,
						"imprint" : 0,
						"enablehscroll" : 1,
						"enablevscroll" : 1,
						"devicewidth" : 0.0,
						"boxes" : [ 							{
								"box" : 								{
									"maxclass" : "message",
									"text" : "72",
									"fontsize" : 12.0,
									"numinlets" : 2,
									"patching_rect" : [ 259.0, 349.0, 32.5, 18.0 ],
									"numoutlets" : 1,
									"id" : "obj-22",
									"fontname" : "Arial",
									"outlettype" : [ "" ]
								}

							}
, 							{
								"box" : 								{
									"maxclass" : "message",
									"text" : "71",
									"fontsize" : 12.0,
									"numinlets" : 2,
									"patching_rect" : [ 244.0, 334.0, 32.5, 18.0 ],
									"numoutlets" : 1,
									"id" : "obj-21",
									"fontname" : "Arial",
									"outlettype" : [ "" ]
								}

							}
, 							{
								"box" : 								{
									"maxclass" : "message",
									"text" : "69",
									"fontsize" : 12.0,
									"numinlets" : 2,
									"patching_rect" : [ 229.0, 319.0, 32.5, 18.0 ],
									"numoutlets" : 1,
									"id" : "obj-20",
									"fontname" : "Arial",
									"outlettype" : [ "" ]
								}

							}
, 							{
								"box" : 								{
									"maxclass" : "message",
									"text" : "67",
									"fontsize" : 12.0,
									"numinlets" : 2,
									"patching_rect" : [ 214.0, 304.0, 32.5, 18.0 ],
									"numoutlets" : 1,
									"id" : "obj-19",
									"fontname" : "Arial",
									"outlettype" : [ "" ]
								}

							}
, 							{
								"box" : 								{
									"maxclass" : "message",
									"text" : "65",
									"fontsize" : 12.0,
									"numinlets" : 2,
									"patching_rect" : [ 200.0, 289.0, 32.5, 18.0 ],
									"numoutlets" : 1,
									"id" : "obj-18",
									"fontname" : "Arial",
									"outlettype" : [ "" ]
								}

							}
, 							{
								"box" : 								{
									"maxclass" : "message",
									"text" : "64",
									"fontsize" : 12.0,
									"numinlets" : 2,
									"patching_rect" : [ 184.0, 274.0, 32.5, 18.0 ],
									"numoutlets" : 1,
									"id" : "obj-17",
									"fontname" : "Arial",
									"outlettype" : [ "" ]
								}

							}
, 							{
								"box" : 								{
									"maxclass" : "message",
									"text" : "62",
									"fontsize" : 12.0,
									"numinlets" : 2,
									"patching_rect" : [ 169.0, 259.0, 32.5, 18.0 ],
									"numoutlets" : 1,
									"id" : "obj-16",
									"fontname" : "Arial",
									"outlettype" : [ "" ]
								}

							}
, 							{
								"box" : 								{
									"maxclass" : "message",
									"text" : "60",
									"fontsize" : 12.0,
									"numinlets" : 2,
									"patching_rect" : [ 154.0, 244.0, 32.5, 18.0 ],
									"numoutlets" : 1,
									"id" : "obj-15",
									"fontname" : "Arial",
									"outlettype" : [ "" ]
								}

							}
, 							{
								"box" : 								{
									"maxclass" : "message",
									"text" : "59",
									"fontsize" : 12.0,
									"numinlets" : 2,
									"patching_rect" : [ 139.0, 229.0, 32.5, 18.0 ],
									"numoutlets" : 1,
									"id" : "obj-14",
									"fontname" : "Arial",
									"outlettype" : [ "" ]
								}

							}
, 							{
								"box" : 								{
									"maxclass" : "message",
									"text" : "57",
									"fontsize" : 12.0,
									"numinlets" : 2,
									"patching_rect" : [ 124.0, 214.0, 32.5, 18.0 ],
									"numoutlets" : 1,
									"id" : "obj-13",
									"fontname" : "Arial",
									"outlettype" : [ "" ]
								}

							}
, 							{
								"box" : 								{
									"maxclass" : "message",
									"text" : "55",
									"fontsize" : 12.0,
									"numinlets" : 2,
									"patching_rect" : [ 109.0, 199.0, 32.5, 18.0 ],
									"numoutlets" : 1,
									"id" : "obj-12",
									"fontname" : "Arial",
									"outlettype" : [ "" ]
								}

							}
, 							{
								"box" : 								{
									"maxclass" : "message",
									"text" : "53",
									"fontsize" : 12.0,
									"numinlets" : 2,
									"patching_rect" : [ 94.0, 184.0, 32.5, 18.0 ],
									"numoutlets" : 1,
									"id" : "obj-11",
									"fontname" : "Arial",
									"outlettype" : [ "" ]
								}

							}
, 							{
								"box" : 								{
									"maxclass" : "message",
									"text" : "52",
									"fontsize" : 12.0,
									"numinlets" : 2,
									"patching_rect" : [ 79.0, 169.0, 32.5, 18.0 ],
									"numoutlets" : 1,
									"id" : "obj-10",
									"fontname" : "Arial",
									"outlettype" : [ "" ]
								}

							}
, 							{
								"box" : 								{
									"maxclass" : "message",
									"text" : "50",
									"fontsize" : 12.0,
									"numinlets" : 2,
									"patching_rect" : [ 64.0, 154.0, 32.5, 18.0 ],
									"numoutlets" : 1,
									"id" : "obj-9",
									"fontname" : "Arial",
									"outlettype" : [ "" ]
								}

							}
, 							{
								"box" : 								{
									"maxclass" : "message",
									"text" : "48",
									"fontsize" : 12.0,
									"numinlets" : 2,
									"patching_rect" : [ 49.0, 139.0, 32.5, 18.0 ],
									"numoutlets" : 1,
									"id" : "obj-8",
									"fontname" : "Arial",
									"outlettype" : [ "" ]
								}

							}
, 							{
								"box" : 								{
									"maxclass" : "newobj",
									"text" : "sel 36 37 38 39 40 41 42 43 44 45 46 47 48 49 50",
									"fontsize" : 12.0,
									"numinlets" : 1,
									"patching_rect" : [ 47.0, 109.0, 276.0, 20.0 ],
									"numoutlets" : 16,
									"id" : "obj-7",
									"fontname" : "Arial",
									"outlettype" : [ "bang", "bang", "bang", "bang", "bang", "bang", "bang", "bang", "bang", "bang", "bang", "bang", "bang", "bang", "bang", "" ]
								}

							}
, 							{
								"box" : 								{
									"maxclass" : "number",
									"fontsize" : 12.0,
									"numinlets" : 1,
									"patching_rect" : [ 142.0, 75.0, 50.0, 20.0 ],
									"numoutlets" : 2,
									"id" : "obj-6",
									"fontname" : "Arial",
									"outlettype" : [ "int", "bang" ]
								}

							}
, 							{
								"box" : 								{
									"maxclass" : "newobj",
									"text" : "+ 36",
									"fontsize" : 9.0,
									"numinlets" : 2,
									"patching_rect" : [ 19.0, 87.0, 32.5, 17.0 ],
									"numoutlets" : 1,
									"id" : "obj-1",
									"fontname" : "Arial",
									"outlettype" : [ "int" ]
								}

							}
, 							{
								"box" : 								{
									"maxclass" : "newobj",
									"text" : "metro 150",
									"fontsize" : 9.0,
									"numinlets" : 2,
									"patching_rect" : [ 18.0, 40.0, 55.0, 17.0 ],
									"numoutlets" : 1,
									"id" : "obj-2",
									"fontname" : "Arial",
									"outlettype" : [ "bang" ]
								}

							}
, 							{
								"box" : 								{
									"maxclass" : "newobj",
									"text" : "drunk 15 6",
									"fontsize" : 9.0,
									"numinlets" : 3,
									"patching_rect" : [ 18.0, 64.0, 53.0, 17.0 ],
									"numoutlets" : 1,
									"id" : "obj-3",
									"fontname" : "Arial",
									"outlettype" : [ "int" ]
								}

							}
, 							{
								"box" : 								{
									"maxclass" : "inlet",
									"numinlets" : 0,
									"patching_rect" : [ 18.0, 11.0, 15.0, 15.0 ],
									"numoutlets" : 1,
									"id" : "obj-4",
									"outlettype" : [ "int" ],
									"comment" : ""
								}

							}
, 							{
								"box" : 								{
									"maxclass" : "outlet",
									"numinlets" : 1,
									"patching_rect" : [ 18.0, 247.0, 15.0, 15.0 ],
									"numoutlets" : 0,
									"id" : "obj-5",
									"comment" : ""
								}

							}
 ],
						"lines" : [ 							{
								"patchline" : 								{
									"source" : [ "obj-3", 0 ],
									"destination" : [ "obj-1", 0 ],
									"hidden" : 0,
									"midpoints" : [  ]
								}

							}
, 							{
								"patchline" : 								{
									"source" : [ "obj-1", 0 ],
									"destination" : [ "obj-6", 0 ],
									"hidden" : 0,
									"midpoints" : [  ]
								}

							}
, 							{
								"patchline" : 								{
									"source" : [ "obj-1", 0 ],
									"destination" : [ "obj-7", 0 ],
									"hidden" : 0,
									"midpoints" : [  ]
								}

							}
, 							{
								"patchline" : 								{
									"source" : [ "obj-7", 0 ],
									"destination" : [ "obj-8", 0 ],
									"hidden" : 0,
									"midpoints" : [  ]
								}

							}
, 							{
								"patchline" : 								{
									"source" : [ "obj-7", 1 ],
									"destination" : [ "obj-9", 0 ],
									"hidden" : 0,
									"midpoints" : [  ]
								}

							}
, 							{
								"patchline" : 								{
									"source" : [ "obj-7", 2 ],
									"destination" : [ "obj-10", 0 ],
									"hidden" : 0,
									"midpoints" : [  ]
								}

							}
, 							{
								"patchline" : 								{
									"source" : [ "obj-7", 3 ],
									"destination" : [ "obj-11", 0 ],
									"hidden" : 0,
									"midpoints" : [  ]
								}

							}
, 							{
								"patchline" : 								{
									"source" : [ "obj-7", 4 ],
									"destination" : [ "obj-12", 0 ],
									"hidden" : 0,
									"midpoints" : [  ]
								}

							}
, 							{
								"patchline" : 								{
									"source" : [ "obj-7", 5 ],
									"destination" : [ "obj-13", 0 ],
									"hidden" : 0,
									"midpoints" : [  ]
								}

							}
, 							{
								"patchline" : 								{
									"source" : [ "obj-7", 6 ],
									"destination" : [ "obj-14", 0 ],
									"hidden" : 0,
									"midpoints" : [  ]
								}

							}
, 							{
								"patchline" : 								{
									"source" : [ "obj-7", 7 ],
									"destination" : [ "obj-15", 0 ],
									"hidden" : 0,
									"midpoints" : [  ]
								}

							}
, 							{
								"patchline" : 								{
									"source" : [ "obj-7", 8 ],
									"destination" : [ "obj-16", 0 ],
									"hidden" : 0,
									"midpoints" : [  ]
								}

							}
, 							{
								"patchline" : 								{
									"source" : [ "obj-7", 9 ],
									"destination" : [ "obj-17", 0 ],
									"hidden" : 0,
									"midpoints" : [  ]
								}

							}
, 							{
								"patchline" : 								{
									"source" : [ "obj-7", 10 ],
									"destination" : [ "obj-18", 0 ],
									"hidden" : 0,
									"midpoints" : [  ]
								}

							}
, 							{
								"patchline" : 								{
									"source" : [ "obj-7", 11 ],
									"destination" : [ "obj-19", 0 ],
									"hidden" : 0,
									"midpoints" : [  ]
								}

							}
, 							{
								"patchline" : 								{
									"source" : [ "obj-7", 12 ],
									"destination" : [ "obj-20", 0 ],
									"hidden" : 0,
									"midpoints" : [  ]
								}

							}
, 							{
								"patchline" : 								{
									"source" : [ "obj-7", 13 ],
									"destination" : [ "obj-21", 0 ],
									"hidden" : 0,
									"midpoints" : [  ]
								}

							}
, 							{
								"patchline" : 								{
									"source" : [ "obj-7", 14 ],
									"destination" : [ "obj-22", 0 ],
									"hidden" : 0,
									"midpoints" : [  ]
								}

							}
, 							{
								"patchline" : 								{
									"source" : [ "obj-22", 0 ],
									"destination" : [ "obj-5", 0 ],
									"hidden" : 0,
									"midpoints" : [  ]
								}

							}
, 							{
								"patchline" : 								{
									"source" : [ "obj-21", 0 ],
									"destination" : [ "obj-5", 0 ],
									"hidden" : 0,
									"midpoints" : [  ]
								}

							}
, 							{
								"patchline" : 								{
									"source" : [ "obj-20", 0 ],
									"destination" : [ "obj-5", 0 ],
									"hidden" : 0,
									"midpoints" : [  ]
								}

							}
, 							{
								"patchline" : 								{
									"source" : [ "obj-19", 0 ],
									"destination" : [ "obj-5", 0 ],
									"hidden" : 0,
									"midpoints" : [  ]
								}

							}
, 							{
								"patchline" : 								{
									"source" : [ "obj-18", 0 ],
									"destination" : [ "obj-5", 0 ],
									"hidden" : 0,
									"midpoints" : [  ]
								}

							}
, 							{
								"patchline" : 								{
									"source" : [ "obj-17", 0 ],
									"destination" : [ "obj-5", 0 ],
									"hidden" : 0,
									"midpoints" : [  ]
								}

							}
, 							{
								"patchline" : 								{
									"source" : [ "obj-16", 0 ],
									"destination" : [ "obj-5", 0 ],
									"hidden" : 0,
									"midpoints" : [  ]
								}

							}
, 							{
								"patchline" : 								{
									"source" : [ "obj-15", 0 ],
									"destination" : [ "obj-5", 0 ],
									"hidden" : 0,
									"midpoints" : [  ]
								}

							}
, 							{
								"patchline" : 								{
									"source" : [ "obj-14", 0 ],
									"destination" : [ "obj-5", 0 ],
									"hidden" : 0,
									"midpoints" : [  ]
								}

							}
, 							{
								"patchline" : 								{
									"source" : [ "obj-13", 0 ],
									"destination" : [ "obj-5", 0 ],
									"hidden" : 0,
									"midpoints" : [  ]
								}

							}
, 							{
								"patchline" : 								{
									"source" : [ "obj-12", 0 ],
									"destination" : [ "obj-5", 0 ],
									"hidden" : 0,
									"midpoints" : [  ]
								}

							}
, 							{
								"patchline" : 								{
									"source" : [ "obj-11", 0 ],
									"destination" : [ "obj-5", 0 ],
									"hidden" : 0,
									"midpoints" : [  ]
								}

							}
, 							{
								"patchline" : 								{
									"source" : [ "obj-10", 0 ],
									"destination" : [ "obj-5", 0 ],
									"hidden" : 0,
									"midpoints" : [  ]
								}

							}
, 							{
								"patchline" : 								{
									"source" : [ "obj-9", 0 ],
									"destination" : [ "obj-5", 0 ],
									"hidden" : 0,
									"midpoints" : [  ]
								}

							}
, 							{
								"patchline" : 								{
									"source" : [ "obj-8", 0 ],
									"destination" : [ "obj-5", 0 ],
									"hidden" : 0,
									"midpoints" : [  ]
								}

							}
, 							{
								"patchline" : 								{
									"source" : [ "obj-2", 0 ],
									"destination" : [ "obj-3", 0 ],
									"hidden" : 0,
									"midpoints" : [  ]
								}

							}
, 							{
								"patchline" : 								{
									"source" : [ "obj-4", 0 ],
									"destination" : [ "obj-2", 0 ],
									"hidden" : 0,
									"midpoints" : [  ]
								}

							}
 ]
					}
,
					"saved_object_attributes" : 					{
						"globalpatchername" : "",
						"default_fontface" : 0,
						"fontface" : 0,
						"fontsize" : 12.0,
						"default_fontname" : "Arial",
						"default_fontsize" : 12.0,
						"fontname" : "Arial"
					}

				}

			}
, 			{
				"box" : 				{
					"maxclass" : "message",
					"text" : "set wave7",
					"fontsize" : 12.0,
					"numinlets" : 2,
					"patching_rect" : [ 598.0, 152.0, 65.0, 18.0 ],
					"numoutlets" : 1,
					"id" : "obj-9",
					"fontname" : "Arial",
					"outlettype" : [ "" ]
				}

			}
, 			{
				"box" : 				{
					"maxclass" : "message",
					"text" : "set wave6",
					"fontsize" : 12.0,
					"numinlets" : 2,
					"patching_rect" : [ 528.0, 152.0, 65.0, 18.0 ],
					"numoutlets" : 1,
					"id" : "obj-10",
					"fontname" : "Arial",
					"outlettype" : [ "" ]
				}

			}
, 			{
				"box" : 				{
					"maxclass" : "message",
					"text" : "set wave5",
					"fontsize" : 12.0,
					"numinlets" : 2,
					"patching_rect" : [ 459.0, 152.0, 65.0, 18.0 ],
					"numoutlets" : 1,
					"id" : "obj-11",
					"fontname" : "Arial",
					"outlettype" : [ "" ]
				}

			}
, 			{
				"box" : 				{
					"maxclass" : "message",
					"text" : "set wave4",
					"fontsize" : 12.0,
					"numinlets" : 2,
					"patching_rect" : [ 391.0, 152.0, 65.0, 18.0 ],
					"numoutlets" : 1,
					"id" : "obj-12",
					"fontname" : "Arial",
					"outlettype" : [ "" ]
				}

			}
, 			{
				"box" : 				{
					"maxclass" : "message",
					"text" : "set wave3",
					"fontsize" : 12.0,
					"numinlets" : 2,
					"patching_rect" : [ 322.0, 152.0, 65.0, 18.0 ],
					"numoutlets" : 1,
					"id" : "obj-13",
					"fontname" : "Arial",
					"outlettype" : [ "" ]
				}

			}
, 			{
				"box" : 				{
					"maxclass" : "message",
					"text" : "set wave2",
					"fontsize" : 12.0,
					"numinlets" : 2,
					"patching_rect" : [ 251.0, 152.0, 65.0, 18.0 ],
					"numoutlets" : 1,
					"id" : "obj-14",
					"fontname" : "Arial",
					"outlettype" : [ "" ]
				}

			}
, 			{
				"box" : 				{
					"maxclass" : "message",
					"text" : "set wave1",
					"fontsize" : 12.0,
					"numinlets" : 2,
					"patching_rect" : [ 182.0, 152.0, 65.0, 18.0 ],
					"numoutlets" : 1,
					"id" : "obj-15",
					"fontname" : "Arial",
					"outlettype" : [ "" ]
				}

			}
, 			{
				"box" : 				{
					"maxclass" : "newobj",
					"text" : "p wavetables_stored_here_in_buffers",
					"fontsize" : 12.0,
					"hidden" : 1,
					"numinlets" : 0,
					"patching_rect" : [ 350.0, 26.0, 211.0, 20.0 ],
					"numoutlets" : 0,
					"id" : "obj-16",
					"fontname" : "Arial",
					"patcher" : 					{
						"fileversion" : 1,
						"rect" : [ 52.0, 44.0, 529.0, 345.0 ],
						"bglocked" : 0,
						"defrect" : [ 52.0, 44.0, 529.0, 345.0 ],
						"openrect" : [ 0.0, 0.0, 0.0, 0.0 ],
						"openinpresentation" : 0,
						"default_fontsize" : 12.0,
						"default_fontface" : 0,
						"default_fontname" : "Arial",
						"gridonopen" : 0,
						"gridsize" : [ 15.0, 15.0 ],
						"gridsnaponopen" : 0,
						"toolbarvisible" : 1,
						"boxanimatetime" : 200,
						"imprint" : 0,
						"enablehscroll" : 1,
						"enablevscroll" : 1,
						"devicewidth" : 0.0,
						"boxes" : [ 							{
								"box" : 								{
									"maxclass" : "newobj",
									"text" : "buffer~ sinewave1 sinewave1",
									"fontsize" : 12.0,
									"numinlets" : 1,
									"patching_rect" : [ 109.0, 49.0, 168.0, 20.0 ],
									"numoutlets" : 2,
									"id" : "obj-1",
									"fontname" : "Arial",
									"outlettype" : [ "float", "bang" ]
								}

							}
, 							{
								"box" : 								{
									"maxclass" : "newobj",
									"text" : "buffer~ wave7 mywave7",
									"fontsize" : 12.0,
									"numinlets" : 1,
									"patching_rect" : [ 109.0, 210.428574, 140.0, 20.0 ],
									"numoutlets" : 2,
									"id" : "obj-2",
									"fontname" : "Arial",
									"outlettype" : [ "float", "bang" ]
								}

							}
, 							{
								"box" : 								{
									"maxclass" : "newobj",
									"text" : "buffer~ wave6 mywave6",
									"fontsize" : 12.0,
									"numinlets" : 1,
									"patching_rect" : [ 109.0, 187.428574, 140.0, 20.0 ],
									"numoutlets" : 2,
									"id" : "obj-3",
									"fontname" : "Arial",
									"outlettype" : [ "float", "bang" ]
								}

							}
, 							{
								"box" : 								{
									"maxclass" : "newobj",
									"text" : "buffer~ wave5 mywave5",
									"fontsize" : 12.0,
									"numinlets" : 1,
									"patching_rect" : [ 109.0, 164.428574, 140.0, 20.0 ],
									"numoutlets" : 2,
									"id" : "obj-4",
									"fontname" : "Arial",
									"outlettype" : [ "float", "bang" ]
								}

							}
, 							{
								"box" : 								{
									"maxclass" : "newobj",
									"text" : "buffer~ wave4 mywave4",
									"fontsize" : 12.0,
									"numinlets" : 1,
									"patching_rect" : [ 109.0, 141.428574, 140.0, 20.0 ],
									"numoutlets" : 2,
									"id" : "obj-5",
									"fontname" : "Arial",
									"outlettype" : [ "float", "bang" ]
								}

							}
, 							{
								"box" : 								{
									"maxclass" : "newobj",
									"text" : "buffer~ wave3 mywave3",
									"fontsize" : 12.0,
									"numinlets" : 1,
									"patching_rect" : [ 109.0, 118.428574, 140.0, 20.0 ],
									"numoutlets" : 2,
									"id" : "obj-6",
									"fontname" : "Arial",
									"outlettype" : [ "float", "bang" ]
								}

							}
, 							{
								"box" : 								{
									"maxclass" : "newobj",
									"text" : "buffer~ wave2 mywave2",
									"fontsize" : 12.0,
									"numinlets" : 1,
									"patching_rect" : [ 109.0, 95.428574, 140.0, 20.0 ],
									"numoutlets" : 2,
									"id" : "obj-7",
									"fontname" : "Arial",
									"outlettype" : [ "float", "bang" ]
								}

							}
, 							{
								"box" : 								{
									"maxclass" : "newobj",
									"text" : "buffer~ wave1 mywave1",
									"fontsize" : 12.0,
									"numinlets" : 1,
									"patching_rect" : [ 109.0, 72.428574, 140.0, 20.0 ],
									"numoutlets" : 2,
									"id" : "obj-8",
									"fontname" : "Arial",
									"outlettype" : [ "float", "bang" ]
								}

							}
, 							{
								"box" : 								{
									"maxclass" : "comment",
									"text" : "double click on a buffer~ object to see the wave shape that is stored inside.",
									"linecount" : 6,
									"fontsize" : 14.0,
									"numinlets" : 1,
									"patching_rect" : [ 272.0, 103.0, 100.0, 103.0 ],
									"numoutlets" : 0,
									"id" : "obj-9",
									"fontname" : "Arial"
								}

							}
 ],
						"lines" : [  ]
					}
,
					"saved_object_attributes" : 					{
						"globalpatchername" : "",
						"default_fontface" : 0,
						"fontface" : 0,
						"fontsize" : 12.0,
						"default_fontname" : "Arial",
						"default_fontsize" : 12.0,
						"fontname" : "Arial"
					}

				}

			}
, 			{
				"box" : 				{
					"maxclass" : "message",
					"text" : "set sinewave1",
					"fontsize" : 12.0,
					"numinlets" : 2,
					"patching_rect" : [ 93.0, 152.0, 87.0, 18.0 ],
					"numoutlets" : 1,
					"id" : "obj-17",
					"fontname" : "Arial",
					"outlettype" : [ "" ]
				}

			}
, 			{
				"box" : 				{
					"maxclass" : "flonum",
					"fontsize" : 12.0,
					"hidden" : 1,
					"numinlets" : 1,
					"bgcolor" : [ 0.866667, 0.866667, 0.866667, 1.0 ],
					"patching_rect" : [ 31.0, 103.0, 70.0, 20.0 ],
					"numoutlets" : 2,
					"id" : "obj-30",
					"fontname" : "Arial",
					"triscale" : 0.9,
					"htextcolor" : [ 0.870588, 0.870588, 0.870588, 1.0 ],
					"outlettype" : [ "float", "bang" ]
				}

			}
, 			{
				"box" : 				{
					"maxclass" : "newobj",
					"text" : "t f b",
					"fontsize" : 12.0,
					"hidden" : 1,
					"numinlets" : 1,
					"patching_rect" : [ 8.0, 124.0, 32.5, 20.0 ],
					"numoutlets" : 2,
					"id" : "obj-33",
					"fontname" : "Arial",
					"outlettype" : [ "float", "bang" ]
				}

			}
, 			{
				"box" : 				{
					"maxclass" : "message",
					"text" : "0 1 0.1 10 0 100",
					"fontsize" : 12.0,
					"hidden" : 1,
					"numinlets" : 2,
					"patching_rect" : [ 41.0, 204.0, 97.0, 18.0 ],
					"numoutlets" : 1,
					"id" : "obj-34",
					"fontname" : "Arial",
					"outlettype" : [ "" ]
				}

			}
, 			{
				"box" : 				{
					"maxclass" : "newobj",
					"text" : "line~",
					"fontsize" : 12.0,
					"hidden" : 1,
					"numinlets" : 2,
					"patching_rect" : [ 41.0, 235.0, 36.0, 20.0 ],
					"numoutlets" : 2,
					"id" : "obj-35",
					"fontname" : "Arial",
					"outlettype" : [ "signal", "bang" ]
				}

			}
, 			{
				"box" : 				{
					"maxclass" : "kslider",
					"presentation_rect" : [ 0.0, 0.0, 336.0, 54.0 ],
					"numinlets" : 2,
					"hkeycolor" : [ 0.501961, 0.501961, 0.501961, 1.0 ],
					"patching_rect" : [ 9.0, 18.0, 336.0, 53.0 ],
					"numoutlets" : 2,
					"id" : "obj-36",
					"outlettype" : [ "int", "int" ]
				}

			}
, 			{
				"box" : 				{
					"maxclass" : "newobj",
					"text" : "mtof",
					"fontsize" : 12.0,
					"hidden" : 1,
					"numinlets" : 1,
					"patching_rect" : [ 8.0, 77.0, 34.0, 20.0 ],
					"numoutlets" : 1,
					"id" : "obj-37",
					"fontname" : "Arial",
					"outlettype" : [ "" ]
				}

			}
, 			{
				"box" : 				{
					"maxclass" : "newobj",
					"text" : "*~ 0.25",
					"fontsize" : 12.0,
					"hidden" : 1,
					"numinlets" : 2,
					"patching_rect" : [ 10.0, 175.0, 49.0, 20.0 ],
					"numoutlets" : 1,
					"id" : "obj-38",
					"fontname" : "Arial",
					"outlettype" : [ "signal" ]
				}

			}
, 			{
				"box" : 				{
					"maxclass" : "newobj",
					"text" : "cycle~",
					"fontsize" : 12.0,
					"hidden" : 1,
					"numinlets" : 2,
					"patching_rect" : [ 8.0, 151.0, 45.0, 20.0 ],
					"numoutlets" : 1,
					"id" : "obj-39",
					"fontname" : "Arial",
					"outlettype" : [ "signal" ]
				}

			}
, 			{
				"box" : 				{
					"maxclass" : "comment",
					"text" : "turn a pitch generator on/off",
					"fontsize" : 12.0,
					"hidden" : 1,
					"numinlets" : 1,
					"patching_rect" : [ 522.0, 63.0, 158.0, 20.0 ],
					"numoutlets" : 0,
					"id" : "obj-52",
					"fontname" : "Arial"
				}

			}
 ],
		"lines" : [ 			{
				"patchline" : 				{
					"source" : [ "obj-18", 0 ],
					"destination" : [ "obj-7", 0 ],
					"hidden" : 1,
					"midpoints" : [  ]
				}

			}
, 			{
				"patchline" : 				{
					"source" : [ "obj-9", 0 ],
					"destination" : [ "obj-39", 0 ],
					"hidden" : 1,
					"midpoints" : [  ]
				}

			}
, 			{
				"patchline" : 				{
					"source" : [ "obj-8", 0 ],
					"destination" : [ "obj-36", 0 ],
					"hidden" : 1,
					"midpoints" : [  ]
				}

			}
, 			{
				"patchline" : 				{
					"source" : [ "obj-7", 0 ],
					"destination" : [ "obj-8", 0 ],
					"hidden" : 1,
					"midpoints" : [  ]
				}

			}
, 			{
				"patchline" : 				{
					"source" : [ "obj-39", 0 ],
					"destination" : [ "obj-38", 0 ],
					"hidden" : 1,
					"midpoints" : [  ]
				}

			}
, 			{
				"patchline" : 				{
					"source" : [ "obj-38", 0 ],
					"destination" : [ "obj-43", 0 ],
					"hidden" : 1,
					"midpoints" : [  ]
				}

			}
, 			{
				"patchline" : 				{
					"source" : [ "obj-38", 0 ],
					"destination" : [ "obj-43", 1 ],
					"hidden" : 1,
					"midpoints" : [  ]
				}

			}
, 			{
				"patchline" : 				{
					"source" : [ "obj-38", 0 ],
					"destination" : [ "obj-2", 0 ],
					"hidden" : 1,
					"midpoints" : [ 19.5, 286.5, 165.5, 286.5 ]
				}

			}
, 			{
				"patchline" : 				{
					"source" : [ "obj-37", 0 ],
					"destination" : [ "obj-33", 0 ],
					"hidden" : 1,
					"midpoints" : [  ]
				}

			}
, 			{
				"patchline" : 				{
					"source" : [ "obj-37", 0 ],
					"destination" : [ "obj-30", 0 ],
					"hidden" : 1,
					"midpoints" : [  ]
				}

			}
, 			{
				"patchline" : 				{
					"source" : [ "obj-36", 0 ],
					"destination" : [ "obj-37", 0 ],
					"hidden" : 1,
					"midpoints" : [  ]
				}

			}
, 			{
				"patchline" : 				{
					"source" : [ "obj-35", 0 ],
					"destination" : [ "obj-38", 1 ],
					"hidden" : 1,
					"midpoints" : [  ]
				}

			}
, 			{
				"patchline" : 				{
					"source" : [ "obj-34", 0 ],
					"destination" : [ "obj-35", 0 ],
					"hidden" : 1,
					"midpoints" : [  ]
				}

			}
, 			{
				"patchline" : 				{
					"source" : [ "obj-33", 0 ],
					"destination" : [ "obj-39", 0 ],
					"hidden" : 1,
					"midpoints" : [  ]
				}

			}
, 			{
				"patchline" : 				{
					"source" : [ "obj-33", 1 ],
					"destination" : [ "obj-34", 0 ],
					"hidden" : 1,
					"midpoints" : [  ]
				}

			}
, 			{
				"patchline" : 				{
					"source" : [ "obj-17", 0 ],
					"destination" : [ "obj-39", 0 ],
					"hidden" : 1,
					"midpoints" : [  ]
				}

			}
, 			{
				"patchline" : 				{
					"source" : [ "obj-15", 0 ],
					"destination" : [ "obj-39", 0 ],
					"hidden" : 1,
					"midpoints" : [  ]
				}

			}
, 			{
				"patchline" : 				{
					"source" : [ "obj-14", 0 ],
					"destination" : [ "obj-39", 0 ],
					"hidden" : 1,
					"midpoints" : [  ]
				}

			}
, 			{
				"patchline" : 				{
					"source" : [ "obj-13", 0 ],
					"destination" : [ "obj-39", 0 ],
					"hidden" : 1,
					"midpoints" : [  ]
				}

			}
, 			{
				"patchline" : 				{
					"source" : [ "obj-12", 0 ],
					"destination" : [ "obj-39", 0 ],
					"hidden" : 1,
					"midpoints" : [  ]
				}

			}
, 			{
				"patchline" : 				{
					"source" : [ "obj-11", 0 ],
					"destination" : [ "obj-39", 0 ],
					"hidden" : 1,
					"midpoints" : [  ]
				}

			}
, 			{
				"patchline" : 				{
					"source" : [ "obj-10", 0 ],
					"destination" : [ "obj-39", 0 ],
					"hidden" : 1,
					"midpoints" : [  ]
				}

			}
, 			{
				"patchline" : 				{
					"source" : [ "obj-38", 0 ],
					"destination" : [ "obj-82", 0 ],
					"hidden" : 1,
					"midpoints" : [  ]
				}

			}
, 			{
				"patchline" : 				{
					"source" : [ "obj-38", 0 ],
					"destination" : [ "obj-82", 1 ],
					"hidden" : 1,
					"midpoints" : [  ]
				}

			}
 ],
		"parameters" : 		{
			"obj-43::obj-24" : [ "live.gain~", " ", 0 ]
		}

	}

}
