{
	"patcher" : 	{
		"fileversion" : 1,
		"rect" : [ 573.0, 162.0, 530.0, 506.0 ],
		"bglocked" : 0,
		"defrect" : [ 573.0, 162.0, 530.0, 506.0 ],
		"openrect" : [ 0.0, 0.0, 0.0, 0.0 ],
		"openinpresentation" : 0,
		"default_fontsize" : 10.0,
		"default_fontface" : 0,
		"default_fontname" : "Arial",
		"gridonopen" : 0,
		"gridsize" : [ 4.0, 4.0 ],
		"gridsnaponopen" : 0,
		"toolbarvisible" : 1,
		"boxanimatetime" : 200,
		"imprint" : 0,
		"enablehscroll" : 1,
		"enablevscroll" : 1,
		"devicewidth" : 0.0,
		"boxes" : [ 			{
				"box" : 				{
					"maxclass" : "newobj",
					"text" : "sprintf /%d",
					"patching_rect" : [ 30.0, 224.0, 58.0, 18.0 ],
					"numoutlets" : 1,
					"id" : "obj-5",
					"fontname" : "Arial",
					"outlettype" : [ "" ],
					"fontsize" : 10.0,
					"numinlets" : 1
				}

			}
, 			{
				"box" : 				{
					"maxclass" : "newobj",
					"text" : "unpack s f",
					"patching_rect" : [ 152.0, 224.0, 145.0, 20.0 ],
					"numoutlets" : 2,
					"id" : "obj-17",
					"fontname" : "Arial",
					"outlettype" : [ "", "float" ],
					"fontsize" : 12.0,
					"numinlets" : 1
				}

			}
, 			{
				"box" : 				{
					"maxclass" : "message",
					"text" : "/play/1 0.4",
					"patching_rect" : [ 188.0, 32.0, 57.0, 16.0 ],
					"numoutlets" : 1,
					"id" : "obj-16",
					"fontname" : "Arial",
					"outlettype" : [ "" ],
					"fontsize" : 10.0,
					"numinlets" : 2
				}

			}
, 			{
				"box" : 				{
					"maxclass" : "newobj",
					"text" : "osc-route /choose /folder /play /gain",
					"patching_rect" : [ 28.0, 72.0, 450.0, 20.0 ],
					"numoutlets" : 5,
					"id" : "obj-4",
					"fontname" : "Arial",
					"outlettype" : [ "", "", "", "", "" ],
					"fontsize" : 12.0,
					"numinlets" : 1
				}

			}
, 			{
				"box" : 				{
					"maxclass" : "message",
					"text" : "numfiles $1",
					"patching_rect" : [ 352.0, 384.0, 62.0, 16.0 ],
					"numoutlets" : 1,
					"id" : "obj-2",
					"fontname" : "Arial",
					"outlettype" : [ "" ],
					"fontsize" : 10.0,
					"numinlets" : 2
				}

			}
, 			{
				"box" : 				{
					"maxclass" : "message",
					"text" : "/clear, /coll #0-player_files",
					"patching_rect" : [ 264.0, 160.0, 126.0, 16.0 ],
					"numoutlets" : 1,
					"id" : "obj-34",
					"fontname" : "Arial",
					"outlettype" : [ "" ],
					"fontsize" : 10.0,
					"numinlets" : 2
				}

			}
, 			{
				"box" : 				{
					"maxclass" : "message",
					"text" : "target 0, set do-not-worry",
					"patching_rect" : [ 228.0, 352.0, 122.0, 16.0 ],
					"numoutlets" : 1,
					"id" : "obj-11",
					"fontname" : "Arial",
					"outlettype" : [ "" ],
					"fontsize" : 10.0,
					"numinlets" : 2
				}

			}
, 			{
				"box" : 				{
					"maxclass" : "newobj",
					"text" : "route symbol",
					"patching_rect" : [ 136.0, 284.0, 68.0, 18.0 ],
					"numoutlets" : 2,
					"id" : "obj-9",
					"fontname" : "Arial",
					"outlettype" : [ "", "" ],
					"fontsize" : 10.0,
					"numinlets" : 1
				}

			}
, 			{
				"box" : 				{
					"maxclass" : "newobj",
					"text" : "pack s #1",
					"patching_rect" : [ 136.0, 308.0, 161.0, 18.0 ],
					"numoutlets" : 1,
					"id" : "obj-7",
					"fontname" : "Arial",
					"outlettype" : [ "" ],
					"fontsize" : 10.0,
					"numinlets" : 2
				}

			}
, 			{
				"box" : 				{
					"maxclass" : "newobj",
					"text" : "buffer~ do-not-worry",
					"patching_rect" : [ 32.0, 380.0, 100.0, 18.0 ],
					"numoutlets" : 2,
					"id" : "obj-6",
					"fontname" : "Arial",
					"outlettype" : [ "float", "bang" ],
					"fontsize" : 10.0,
					"numinlets" : 1
				}

			}
, 			{
				"box" : 				{
					"maxclass" : "newobj",
					"text" : "prepend note",
					"patching_rect" : [ 136.0, 332.0, 69.0, 18.0 ],
					"numoutlets" : 1,
					"id" : "obj-33",
					"fontname" : "Arial",
					"outlettype" : [ "" ],
					"fontsize" : 10.0,
					"numinlets" : 1
				}

			}
, 			{
				"box" : 				{
					"maxclass" : "newobj",
					"text" : "coll #0-player_files -1",
					"patching_rect" : [ 136.0, 260.0, 105.0, 18.0 ],
					"numoutlets" : 4,
					"id" : "obj-30",
					"fontname" : "Arial",
					"outlettype" : [ "", "", "", "" ],
					"fontsize" : 10.0,
					"numinlets" : 1,
					"saved_object_attributes" : 					{
						"embed" : 0
					}

				}

			}
, 			{
				"box" : 				{
					"maxclass" : "newobj",
					"text" : "poly~ samp-nt-nl.voi @voices 16 @steal 1",
					"patching_rect" : [ 136.0, 380.0, 198.0, 18.0 ],
					"numoutlets" : 2,
					"id" : "obj-29",
					"fontname" : "Arial",
					"outlettype" : [ "signal", "" ],
					"fontsize" : 10.0,
					"numinlets" : 1
				}

			}
, 			{
				"box" : 				{
					"maxclass" : "newobj",
					"text" : "+ 1",
					"patching_rect" : [ 30.0, 200.0, 32.5, 18.0 ],
					"numoutlets" : 1,
					"id" : "obj-26",
					"fontname" : "Arial",
					"outlettype" : [ "int" ],
					"fontsize" : 10.0,
					"numinlets" : 2
				}

			}
, 			{
				"box" : 				{
					"maxclass" : "newobj",
					"text" : "random",
					"patching_rect" : [ 30.0, 168.0, 44.0, 18.0 ],
					"numoutlets" : 1,
					"id" : "obj-20",
					"fontname" : "Arial",
					"outlettype" : [ "int" ],
					"fontsize" : 10.0,
					"numinlets" : 2
				}

			}
, 			{
				"box" : 				{
					"maxclass" : "newobj",
					"text" : "p files",
					"patching_rect" : [ 136.0, 112.0, 107.0, 20.0 ],
					"numoutlets" : 3,
					"id" : "obj-43",
					"fontname" : "Arial",
					"outlettype" : [ "", "int", "bang" ],
					"fontsize" : 12.0,
					"numinlets" : 1,
					"patcher" : 					{
						"fileversion" : 1,
						"rect" : [ 426.0, 44.0, 584.0, 499.0 ],
						"bglocked" : 0,
						"defrect" : [ 426.0, 44.0, 584.0, 499.0 ],
						"openrect" : [ 0.0, 0.0, 0.0, 0.0 ],
						"openinpresentation" : 0,
						"default_fontsize" : 12.0,
						"default_fontface" : 0,
						"default_fontname" : "Arial",
						"gridonopen" : 0,
						"gridsize" : [ 4.0, 4.0 ],
						"gridsnaponopen" : 0,
						"toolbarvisible" : 1,
						"boxanimatetime" : 200,
						"imprint" : 0,
						"enablehscroll" : 1,
						"enablevscroll" : 1,
						"devicewidth" : 0.0,
						"boxes" : [ 							{
								"box" : 								{
									"maxclass" : "newobj",
									"text" : "sprintf /%d %s",
									"patching_rect" : [ 84.0, 316.0, 87.0, 20.0 ],
									"numoutlets" : 1,
									"id" : "obj-9",
									"fontname" : "Arial",
									"outlettype" : [ "" ],
									"fontsize" : 12.0,
									"numinlets" : 2
								}

							}
, 							{
								"box" : 								{
									"maxclass" : "newobj",
									"text" : "print folder-of-sounds__numfiles",
									"patching_rect" : [ 312.0, 284.0, 183.0, 20.0 ],
									"numoutlets" : 0,
									"id" : "obj-8",
									"fontname" : "Arial",
									"fontsize" : 12.0,
									"numinlets" : 1
								}

							}
, 							{
								"box" : 								{
									"maxclass" : "outlet",
									"patching_rect" : [ 232.0, 408.0, 25.0, 25.0 ],
									"numoutlets" : 0,
									"id" : "obj-7",
									"numinlets" : 1,
									"comment" : ""
								}

							}
, 							{
								"box" : 								{
									"maxclass" : "outlet",
									"patching_rect" : [ 296.0, 408.0, 25.0, 25.0 ],
									"numoutlets" : 0,
									"id" : "obj-1",
									"numinlets" : 1,
									"comment" : ""
								}

							}
, 							{
								"box" : 								{
									"maxclass" : "newobj",
									"text" : "prepend store",
									"patching_rect" : [ 84.0, 348.0, 85.0, 20.0 ],
									"numoutlets" : 1,
									"id" : "obj-4",
									"fontname" : "Arial",
									"outlettype" : [ "" ],
									"fontsize" : 12.0,
									"numinlets" : 1
								}

							}
, 							{
								"box" : 								{
									"maxclass" : "newobj",
									"text" : "t b l clear 1",
									"patching_rect" : [ 16.0, 64.0, 115.0, 20.0 ],
									"numoutlets" : 4,
									"id" : "obj-2",
									"fontname" : "Arial",
									"outlettype" : [ "bang", "", "clear", "int" ],
									"fontsize" : 12.0,
									"numinlets" : 1
								}

							}
, 							{
								"box" : 								{
									"maxclass" : "newobj",
									"text" : "t b s",
									"patching_rect" : [ 84.0, 252.0, 56.0, 20.0 ],
									"numoutlets" : 2,
									"id" : "obj-37",
									"fontname" : "Arial",
									"outlettype" : [ "bang", "" ],
									"fontsize" : 12.0,
									"numinlets" : 1
								}

							}
, 							{
								"box" : 								{
									"maxclass" : "newobj",
									"text" : "loadmess 1",
									"patching_rect" : [ 360.0, 148.0, 72.0, 20.0 ],
									"numoutlets" : 1,
									"id" : "obj-35",
									"fontname" : "Arial",
									"outlettype" : [ "" ],
									"fontsize" : 12.0,
									"numinlets" : 1
								}

							}
, 							{
								"box" : 								{
									"maxclass" : "newobj",
									"text" : "counter",
									"patching_rect" : [ 84.0, 284.0, 159.0, 20.0 ],
									"numoutlets" : 4,
									"id" : "obj-33",
									"fontname" : "Arial",
									"outlettype" : [ "int", "", "", "int" ],
									"fontsize" : 12.0,
									"numinlets" : 5
								}

							}
, 							{
								"box" : 								{
									"maxclass" : "newobj",
									"text" : "loadmess types AIFF WAVE",
									"patching_rect" : [ 176.0, 64.0, 162.0, 20.0 ],
									"numoutlets" : 1,
									"id" : "obj-30",
									"fontname" : "Arial",
									"outlettype" : [ "" ],
									"fontsize" : 12.0,
									"numinlets" : 1
								}

							}
, 							{
								"box" : 								{
									"maxclass" : "newobj",
									"text" : "route append",
									"patching_rect" : [ 16.0, 172.0, 82.0, 20.0 ],
									"numoutlets" : 2,
									"id" : "obj-6",
									"fontname" : "Arial",
									"outlettype" : [ "", "" ],
									"fontsize" : 12.0,
									"numinlets" : 1
								}

							}
, 							{
								"box" : 								{
									"maxclass" : "newobj",
									"text" : "folder",
									"patching_rect" : [ 176.0, 116.0, 41.0, 20.0 ],
									"numoutlets" : 2,
									"id" : "obj-3",
									"fontname" : "Arial",
									"outlettype" : [ "", "int" ],
									"fontsize" : 12.0,
									"numinlets" : 1
								}

							}
, 							{
								"box" : 								{
									"maxclass" : "inlet",
									"patching_rect" : [ 16.0, 20.0, 25.0, 25.0 ],
									"numoutlets" : 1,
									"id" : "obj-22",
									"outlettype" : [ "" ],
									"numinlets" : 0,
									"comment" : ""
								}

							}
, 							{
								"box" : 								{
									"maxclass" : "outlet",
									"patching_rect" : [ 156.0, 412.0, 25.0, 25.0 ],
									"numoutlets" : 0,
									"id" : "obj-34",
									"numinlets" : 1,
									"comment" : ""
								}

							}
 ],
						"lines" : [ 							{
								"patchline" : 								{
									"source" : [ "obj-3", 1 ],
									"destination" : [ "obj-8", 0 ],
									"hidden" : 0,
									"midpoints" : [  ]
								}

							}
, 							{
								"patchline" : 								{
									"source" : [ "obj-9", 0 ],
									"destination" : [ "obj-4", 0 ],
									"hidden" : 0,
									"midpoints" : [  ]
								}

							}
, 							{
								"patchline" : 								{
									"source" : [ "obj-33", 0 ],
									"destination" : [ "obj-9", 0 ],
									"hidden" : 0,
									"midpoints" : [  ]
								}

							}
, 							{
								"patchline" : 								{
									"source" : [ "obj-37", 1 ],
									"destination" : [ "obj-9", 1 ],
									"hidden" : 0,
									"midpoints" : [  ]
								}

							}
, 							{
								"patchline" : 								{
									"source" : [ "obj-2", 0 ],
									"destination" : [ "obj-1", 0 ],
									"hidden" : 0,
									"midpoints" : [  ]
								}

							}
, 							{
								"patchline" : 								{
									"source" : [ "obj-4", 0 ],
									"destination" : [ "obj-34", 0 ],
									"hidden" : 0,
									"midpoints" : [  ]
								}

							}
, 							{
								"patchline" : 								{
									"source" : [ "obj-3", 1 ],
									"destination" : [ "obj-7", 0 ],
									"hidden" : 0,
									"midpoints" : [  ]
								}

							}
, 							{
								"patchline" : 								{
									"source" : [ "obj-2", 1 ],
									"destination" : [ "obj-3", 0 ],
									"hidden" : 0,
									"midpoints" : [  ]
								}

							}
, 							{
								"patchline" : 								{
									"source" : [ "obj-2", 2 ],
									"destination" : [ "obj-34", 0 ],
									"hidden" : 0,
									"midpoints" : [  ]
								}

							}
, 							{
								"patchline" : 								{
									"source" : [ "obj-2", 3 ],
									"destination" : [ "obj-33", 2 ],
									"hidden" : 0,
									"midpoints" : [  ]
								}

							}
, 							{
								"patchline" : 								{
									"source" : [ "obj-22", 0 ],
									"destination" : [ "obj-2", 0 ],
									"hidden" : 0,
									"midpoints" : [  ]
								}

							}
, 							{
								"patchline" : 								{
									"source" : [ "obj-35", 0 ],
									"destination" : [ "obj-33", 2 ],
									"hidden" : 0,
									"midpoints" : [  ]
								}

							}
, 							{
								"patchline" : 								{
									"source" : [ "obj-3", 1 ],
									"destination" : [ "obj-33", 4 ],
									"hidden" : 0,
									"midpoints" : [  ]
								}

							}
, 							{
								"patchline" : 								{
									"source" : [ "obj-37", 0 ],
									"destination" : [ "obj-33", 0 ],
									"hidden" : 0,
									"midpoints" : [  ]
								}

							}
, 							{
								"patchline" : 								{
									"source" : [ "obj-3", 0 ],
									"destination" : [ "obj-6", 0 ],
									"hidden" : 0,
									"midpoints" : [  ]
								}

							}
, 							{
								"patchline" : 								{
									"source" : [ "obj-30", 0 ],
									"destination" : [ "obj-3", 0 ],
									"hidden" : 0,
									"midpoints" : [  ]
								}

							}
, 							{
								"patchline" : 								{
									"source" : [ "obj-6", 0 ],
									"destination" : [ "obj-37", 0 ],
									"hidden" : 0,
									"midpoints" : [  ]
								}

							}
 ]
					}
,
					"saved_object_attributes" : 					{
						"default_fontname" : "Arial",
						"fontname" : "Arial",
						"default_fontsize" : 12.0,
						"globalpatchername" : "",
						"fontface" : 0,
						"fontsize" : 12.0,
						"default_fontface" : 0
					}

				}

			}
, 			{
				"box" : 				{
					"maxclass" : "newobj",
					"text" : "multibuf",
					"patching_rect" : [ 264.0, 184.0, 46.0, 18.0 ],
					"numoutlets" : 2,
					"id" : "obj-1",
					"fontname" : "Arial",
					"outlettype" : [ "", "" ],
					"fontsize" : 10.0,
					"numinlets" : 3
				}

			}
, 			{
				"box" : 				{
					"maxclass" : "inlet",
					"patching_rect" : [ 28.0, 40.0, 25.0, 25.0 ],
					"numoutlets" : 1,
					"id" : "obj-3",
					"outlettype" : [ "" ],
					"numinlets" : 0,
					"comment" : ""
				}

			}
, 			{
				"box" : 				{
					"maxclass" : "outlet",
					"patching_rect" : [ 296.0, 440.0, 25.0, 25.0 ],
					"numoutlets" : 0,
					"id" : "obj-13",
					"numinlets" : 1,
					"comment" : ""
				}

			}
, 			{
				"box" : 				{
					"maxclass" : "outlet",
					"patching_rect" : [ 136.0, 434.0, 25.0, 25.0 ],
					"numoutlets" : 0,
					"id" : "obj-15",
					"numinlets" : 1,
					"comment" : ""
				}

			}
 ],
		"lines" : [ 			{
				"patchline" : 				{
					"source" : [ "obj-4", 3 ],
					"destination" : [ "obj-7", 1 ],
					"hidden" : 0,
					"midpoints" : [  ]
				}

			}
, 			{
				"patchline" : 				{
					"source" : [ "obj-17", 1 ],
					"destination" : [ "obj-7", 1 ],
					"hidden" : 0,
					"midpoints" : [  ]
				}

			}
, 			{
				"patchline" : 				{
					"source" : [ "obj-7", 0 ],
					"destination" : [ "obj-33", 0 ],
					"hidden" : 0,
					"midpoints" : [  ]
				}

			}
, 			{
				"patchline" : 				{
					"source" : [ "obj-9", 0 ],
					"destination" : [ "obj-7", 0 ],
					"hidden" : 0,
					"midpoints" : [  ]
				}

			}
, 			{
				"patchline" : 				{
					"source" : [ "obj-17", 0 ],
					"destination" : [ "obj-30", 0 ],
					"hidden" : 0,
					"midpoints" : [  ]
				}

			}
, 			{
				"patchline" : 				{
					"source" : [ "obj-4", 2 ],
					"destination" : [ "obj-17", 0 ],
					"hidden" : 0,
					"midpoints" : [  ]
				}

			}
, 			{
				"patchline" : 				{
					"source" : [ "obj-43", 1 ],
					"destination" : [ "obj-2", 0 ],
					"hidden" : 0,
					"midpoints" : [  ]
				}

			}
, 			{
				"patchline" : 				{
					"source" : [ "obj-16", 0 ],
					"destination" : [ "obj-4", 0 ],
					"hidden" : 0,
					"midpoints" : [  ]
				}

			}
, 			{
				"patchline" : 				{
					"source" : [ "obj-4", 0 ],
					"destination" : [ "obj-20", 0 ],
					"hidden" : 0,
					"midpoints" : [  ]
				}

			}
, 			{
				"patchline" : 				{
					"source" : [ "obj-4", 1 ],
					"destination" : [ "obj-43", 0 ],
					"hidden" : 0,
					"midpoints" : [  ]
				}

			}
, 			{
				"patchline" : 				{
					"source" : [ "obj-3", 0 ],
					"destination" : [ "obj-4", 0 ],
					"hidden" : 0,
					"midpoints" : [  ]
				}

			}
, 			{
				"patchline" : 				{
					"source" : [ "obj-2", 0 ],
					"destination" : [ "obj-13", 0 ],
					"hidden" : 0,
					"midpoints" : [  ]
				}

			}
, 			{
				"patchline" : 				{
					"source" : [ "obj-43", 0 ],
					"destination" : [ "obj-30", 0 ],
					"hidden" : 0,
					"midpoints" : [  ]
				}

			}
, 			{
				"patchline" : 				{
					"source" : [ "obj-30", 0 ],
					"destination" : [ "obj-9", 0 ],
					"hidden" : 0,
					"midpoints" : [  ]
				}

			}
, 			{
				"patchline" : 				{
					"source" : [ "obj-43", 2 ],
					"destination" : [ "obj-11", 0 ],
					"hidden" : 0,
					"midpoints" : [  ]
				}

			}
, 			{
				"patchline" : 				{
					"source" : [ "obj-43", 2 ],
					"destination" : [ "obj-34", 0 ],
					"hidden" : 0,
					"midpoints" : [  ]
				}

			}
, 			{
				"patchline" : 				{
					"source" : [ "obj-34", 0 ],
					"destination" : [ "obj-1", 0 ],
					"hidden" : 0,
					"midpoints" : [  ]
				}

			}
, 			{
				"patchline" : 				{
					"source" : [ "obj-11", 0 ],
					"destination" : [ "obj-29", 0 ],
					"hidden" : 0,
					"midpoints" : [  ]
				}

			}
, 			{
				"patchline" : 				{
					"source" : [ "obj-33", 0 ],
					"destination" : [ "obj-29", 0 ],
					"hidden" : 0,
					"midpoints" : [  ]
				}

			}
, 			{
				"patchline" : 				{
					"source" : [ "obj-20", 0 ],
					"destination" : [ "obj-26", 0 ],
					"hidden" : 0,
					"midpoints" : [  ]
				}

			}
, 			{
				"patchline" : 				{
					"source" : [ "obj-43", 1 ],
					"destination" : [ "obj-20", 1 ],
					"hidden" : 0,
					"midpoints" : [  ]
				}

			}
, 			{
				"patchline" : 				{
					"source" : [ "obj-33", 0 ],
					"destination" : [ "obj-13", 0 ],
					"hidden" : 0,
					"midpoints" : [  ]
				}

			}
, 			{
				"patchline" : 				{
					"source" : [ "obj-29", 0 ],
					"destination" : [ "obj-15", 0 ],
					"hidden" : 0,
					"midpoints" : [  ]
				}

			}
, 			{
				"patchline" : 				{
					"source" : [ "obj-5", 0 ],
					"destination" : [ "obj-30", 0 ],
					"hidden" : 0,
					"midpoints" : [  ]
				}

			}
, 			{
				"patchline" : 				{
					"source" : [ "obj-26", 0 ],
					"destination" : [ "obj-5", 0 ],
					"hidden" : 0,
					"midpoints" : [  ]
				}

			}
 ]
	}

}
