max v2;#N vpatcher 101 62 669 582;#P newex 322 269 138 196617 linedrive 127 2. 1.06848 30;#P newex 176 269 138 196617 linedrive 127 2. 1.06848 30;#P newex 94 164 112 196617 r $1;#P comment 189 225 113 196617 fpos amp in midi values;#P newex 176 239 112 196617 r $2;#P comment 322 223 113 196617 fneg amp in midi values;#P newex 322 239 112 196617 r $3;#P newex 94 244 44 196617 +~ 0.25;#P newex 49 303 27 196617 *~;#P newex 94 210 44 196617 phasor~;#P newex 49 412 27 196617 *~;#P outlet 49 459 15 0;#P outlet 130 459 15 0;#P comment 129 475 44 196617 positive;#P comment 49 475 26 196617 sum;#P newex 91 303 27 196617 *~;#P newex 94 187 29 196617 mtof;#P newex 108 269 38 196617 cycle~;#P newex 66 269 38 196617 cycle~;#P newex 176 303 30 196617 line~;#P newex 322 303 30 196617 line~;#P newex 212 412 27 196617 *~;#P outlet 212 459 15 0;#P comment 211 476 45 196617 negative;#P newex 212 376 27 196617 -~;#P comment 94 147 60 196617 freq in midi;#P newex 290 111 232 196617 biquad~ 0.87069 -1.8685 1. -1.8685 0.87069;#P newex 290 87 244 196617 biquad~ -0.260506 0.02569 1. 0.02569 -0.260506;#P newex 49 88 232 196617 biquad~ 0.94657 -1.94632 1. -1.94632 0.94657;#P inlet 49 43 15 0;#P newex 49 112 232 196617 biquad~ 0.06338 -0.83774 1. -0.83774 0.06338;#P connect 1 0 2 0;#P connect 2 0 0 0;#P connect 0 0 22 0;#P connect 15 0 20 0;#P connect 22 0 20 0;#P connect 9 0 19 0;#P connect 20 0 19 0;#P connect 12 0 22 1;#P connect 11 0 20 1;#P connect 4 0 15 0;#P connect 28 0 14 0;#P connect 14 0 21 0;#P connect 21 0 23 0;#P connect 23 0 12 1;#P connect 13 0 15 1;#P connect 20 0 18 0;#P connect 21 0 13 1;#P connect 26 0 29 0;#P connect 29 0 11 0;#P connect 22 0 6 0;#P connect 6 0 9 0;#P connect 9 0 8 0;#P connect 15 0 6 1;#P connect 10 0 9 1;#P connect 1 0 3 0;#P connect 3 0 4 0;#P connect 24 0 30 0;#P connect 30 0 10 0;#P pop;