max v2;#N vpatcher 669 82 1108 599;#P message 308 153 77 1 \; 1-start bang \;;#P number 57 38 35 1;#P newex 104 64 50 1 s ishiro;#P newex 30 75 50 1 r ishiro;#P newex 104 41 50 1 stripnote;#P newex 105 17 50 1 notein;#P newex 148 295 58 1 print cycle;#P newex 269 293 91 1 print FINISHED;#P button 29 224;#P newex 29 293 50 1 print;#P comment 25 317 93 1 start and next message as output to drive explodes;#P newex 30 98 345 1 sel 21 108;#P newex 30 121 50 1 t b b;#P message 70 147 98 1 \; 1-rec-debut 8 4 \;;#P newex 197 203 50 1 t b b;#P message 304 224 77 1 \; 1-rec-fin bang \;;#P button 4 102;#P button 222 169;#P newex 29 266 251 1 interpol2.pat 1 1 1 1 1 1 1 1 1 1 1 1;#P connect 13 0 17 0;#P connect 14 0 16 0;#P connect 13 1 14 1;#P connect 13 0 14 0;#P connect 6 0 10 0;#P connect 4 0 10 0;#P connect 4 1 3 0;#P connect 7 1 4 0;#P connect 15 0 7 0;#P connect 7 0 6 0;#P connect 6 1 5 0;#P connect 2 0 6 0;#P connect 1 0 4 0;#P connect 7 2 10 0;#P connect 0 2 11 0;#P connect 0 1 12 0;#P connect 0 0 9 0;#P connect 10 0 0 0;#P pop;