max v2;#N vpatcher 81 415 519 635;#P message 350 153 70 1 \; interdel stop;#P newex 267 134 50 1 t b b;#P newex 267 110 115 1 r $1-start;#P message 267 161 78 1 start \, next;#P newex 191 148 50 1 r $1;#P newex 183 104 69 1 s samp-note;#P inlet 183 45 15;#P inlet 212 45 15;#P inlet 241 45 15;#P message 116 123 36 1 next;#P newex 116 98 36 1 del;#P newex 116 75 36 1 t b i;#P outlet 112 179 15;#P outlet 191 179 15;#P inlet 117 45 15;#P newex 44 78 52 1 r interdel;#P newex 183 67 99 1 pack 0 0 0 $2 0;#P connect 15 1 16 0;#P connect 15 0 13 0;#P connect 14 0 15 0;#P connect 13 0 3 0;#P connect 5 0 6 0;#P connect 5 1 6 1;#P connect 2 0 5 0;#P connect 6 0 7 0;#P connect 7 0 3 0;#P connect 12 0 3 0;#P connect 1 0 6 0;#P connect 0 0 11 0;#P connect 10 0 0 0;#P connect 9 0 0 1;#P connect 8 0 0 2;#P pop;