max v2;#N vpatcher 308 75 895 660;#P newex 258 170 53 196617 * $4;#P newex 316 170 53 196617 * $4;#P newex 324 352 120 196617 vd~ $2 2 $3;#P newex 197 352 120 196617 vd~ $2 2 $3;#P newex 163 535 50 196617 send~ $1;#P newex 341 398 82 196617 cycle~ harm.snd;#P newex 197 421 27 196617 *~;#P newex 214 398 82 196617 cycle~ harm.snd;#P comment 311 55 27 196617 freq;#P inlet 311 71 15 0;#P comment 251 55 42 196617 window;#P inlet 258 71 15 0;#P comment 195 58 38 196617 switch;#P inlet 201 75 15 0;#P comment 18 34 301 196617 args: throw-name \, delay-name \, sampling-rate-shift switch-num;#P newex 185 511 74 196617 send~ th-harm;#P newex 324 421 27 196617 *~;#P newex 324 298 27 196617 *~;#P newex 324 326 27 196617 +~;#P comment 125 57 65 196617 delay (msec);#P inlet 132 73 15 0;#P newex 197 326 27 196617 +~;#P newex 197 298 27 196617 *~;#P newex 197 195 44 196617 phasor~;#P newex 324 270 80 196617 trapezoid~ 1. 1.;#P newex 324 242 38 196617 +~ 0.5;#P inlet 30 71 15 0;#P inlet 75 71 15 0;#P newex 180 454 27 196617 *~;#P newex 83 414 30 196617 line~;#P newex 163 479 27 196617 *~;#P newex 143 389 30 196617 line~;#P connect 5 0 2 0;#P connect 4 0 0 0;#P connect 2 0 1 0;#P connect 1 0 27 0;#P connect 0 0 3 0;#P connect 3 0 1 1;#P connect 1 0 16 0;#P connect 22 0 8 0;#P connect 8 0 9 0;#P connect 9 0 10 0;#P connect 10 0 28 0;#P connect 28 0 25 0;#P connect 25 0 3 1;#P connect 15 0 3 1;#P connect 31 0 9 1;#P connect 30 0 10 1;#P connect 24 0 25 1;#P connect 20 0 31 0;#P connect 8 0 24 1;#P connect 11 0 30 0;#P connect 8 0 6 0;#P connect 6 0 7 0;#P connect 7 0 14 0;#P connect 14 0 13 0;#P connect 13 0 29 0;#P connect 29 0 15 0;#P connect 31 0 14 1;#P connect 30 0 13 1;#P connect 26 0 15 1;#P connect 7 0 26 1;#P pop;