max v2;#N vpatcher 138 29 1010 714 -1;#P newex 77 105 269 1 2p2z~ 1. 0.83774 -0.06338 0.06338 -0.83774 1.;#P inlet 78 24 15 1;#P newex 77 69 267 1 2p2z~ 1. 1.94632 -0.94657 0.94657 -1.94632 1.;#P comment 103 49 53 1 hilbert1;#P comment 394 42 53 1 hilbert2;#P newex 371 67 265 1 2p2z~ 1. -0.02569 0.260502 -0.260502 0.02569 1.;#P newex 371 105 263 1 2p2z~ 1. 1.8685 -0.870686 0.870686 -1.8685 1.;#P comment 135 141 66 1 freq in midi;#P newex 542 497 40 1 -~;#P comment 637 604 64 1 negative;#P outlet 610 604 15 1;#P newex 542 547 36 1 *~;#P newex 662 489 184 1 linedrive 127 1. 1.06848 30;#P newex 662 519 46 1 line~;#P newex 212 514 44 1 line~;#P newex 212 481 183 1 linedrive 127 1. 1.06848 30;#P newex 153 367 66 1 osc1~;#P newex 273 377 64 1 osc1~;#P newex 211 163 37 1 mtof;#P newex 201 398 45 1 *~;#P newex 211 201 64 1 sig~;#P comment 71 685 64 1 sum;#P comment 167 582 65 1 positive;#P outlet 143 581 15 1;#P newex 78 610 475 1 +~;#P outlet 78 654 15 1;#P newex 78 533 35 1 *~;#P newex 78 438 43 1 +~;#P newex 211 234 64 1 phasor~;#P newex 78 388 44 1 *~;#P newex 210 328 51 1 +~;#P newex 210 290 74 1 sig~ 0.25;#P newex 662 460 84 1 r $3;#P comment 651 436 155 1 fneg amp in midi values;#P newex 211 446 84 1 r $2;#P comment 220 465 153 1 fpos amp in midi values;#P newex 212 135 84 1 r $1;#P connect 34 0 36 0;#P connect 36 0 7 0;#P connect 35 0 31 0;#P connect 35 0 34 0;#P connect 30 0 17 0;#P connect 30 0 16 0;#P connect 31 0 30 0;#P connect 8 0 5 0;#P connect 5 0 6 0;#P connect 9 0 10 0;#P connect 9 0 22 0;#P connect 21 0 22 0;#P connect 22 0 10 1;#P connect 18 0 16 0;#P connect 16 0 8 0;#P connect 19 0 17 1;#P connect 20 0 7 1;#P connect 17 0 9 1;#P connect 7 0 9 0;#P connect 6 0 20 1;#P connect 8 0 6 1;#P connect 8 0 19 1;#P connect 12 0 11 0;#P connect 23 0 25 1;#P connect 24 0 23 0;#P connect 10 0 12 0;#P connect 25 0 12 1;#P connect 25 0 26 0;#P connect 10 0 13 0;#P connect 28 0 25 0;#P connect 28 0 23 0;#P connect 17 0 28 1;#P connect 7 0 28 0;#P connect 4 0 24 0;#P connect 2 0 21 0;#P connect 0 0 18 0;#P pop;