max v2;#N vpatcher 302 353 664 643 -1;#P newex 210 157 51 1 line~;#P inlet 140 95 15;#P comment 64 74 66 1 signal bus;#P newex 140 210 38 1 +~;#P newex 168 179 39 1 *~;#P outlet 140 243 15;#P newex 167 110 42 1 sig~;#P newex 168 137 42 1 osc1~;#P newex 167 85 42 1 mtof;#P newex 167 63 42 1 * 0.01;#P newex 167 39 94 1 unpack 0 0 0;#P comment 194 18 98 1 pit \, amp \, time;#P inlet 167 19 15;#P connect 12 0 8 1;#P connect 5 0 8 0;#P connect 5 0 12 0;#P connect 11 0 6 0;#P connect 2 2 12 1;#P connect 2 1 12 0;#P connect 6 0 5 0;#P connect 4 0 6 0;#P connect 3 0 4 0;#P connect 2 0 3 0;#P connect 0 0 2 0;#P connect 9 0 7 0;#P connect 8 0 9 1;#P connect 11 0 9 0;#P pop;