max v2;#N vpatcher 318 400 718 696;#P number 17 67 35 14 0 0 0 3 0 0 0 221 221 221 222 222 222 0 0 0;#P newex 58 227 50 196617 s $4;#P newex 58 180 41 196617 - 50;#P newex 58 134 50 196617 split 50 9500;#P newex 114 186 45 196617 s $3;#P newex 183 178 50 196617 s $2;#P newex 214 96 50 196617 r $2;#P newex 159 90 49 196617 r $1;#P newex 114 135 42 196617 del 20;#P newex 114 160 55 196617 i;#P message 98 204 30 196617 0;#P newex 58 110 50 196617 timer;#P newex 183 153 38 196617 127;#P message 214 119 50 196617 stop;#P newex 114 110 26 196617 t b;#P newex 58 88 26 196617 t b;#P newex 58 64 135 196617 r ------------------------;#P newex 17 30 74 196617 r transp-fudge;#P comment 174 33 100 196617 what the hell is this??;#P connect 1 0 18 0;#P connect 2 0 3 0;#P connect 3 0 7 0;#P connect 7 0 15 0;#P connect 15 0 16 0;#P connect 8 0 17 0;#P connect 16 0 17 0;#P connect 18 0 16 1;#P connect 4 0 7 1;#P connect 15 1 8 0;#P connect 11 0 4 0;#P connect 5 0 10 0;#P connect 4 0 10 0;#P connect 10 0 9 0;#P connect 9 0 14 0;#P connect 11 0 9 1;#P connect 10 0 6 0;#P connect 6 0 13 0;#P connect 12 0 5 0;#P pop;