max v2;#N vpatcher 166 95 769 742;#P message 399 528 27 196617 stop;#P newex 210 544 48 196617 del 1000;#P message 417 118 26 196617 100;#P number 425 348 35 9 0 0 0 3 0 0 0 221 221 221 222 222 222 0 0 0;#P newex 397 93 30 196617 sel 1;#P newex 397 72 27 196617 > 1;#P flonum 117 367 35 9 0 0 0 3 0 0 0 221 221 221 222 222 222 0 0 0;#P newex 222 488 50 196617 change 1.;#P button 210 523 15 0;#P comment 144 508 150 196617 checks for 0 to mute poly voice;#P newex 56 342 40 196617 line 0.;#P newex 170 488 50 196617 change 1.;#P newex 170 464 43 196617 > 0.001;#P newex 469 534 31 196617 out 1;#P message 397 197 52 196617 mute 0 \, 1;#P message 465 198 52 196617 mute 1 \, 0;#P number 452 268 35 9 0 0 0 3 0 0 0 221 221 221 222 222 222 0 0 0;#P newex 465 163 45 196617 loadbang;#P newex 83 37 25 196617 in 1;#P newex 30 517 35 196617 out~ 1;#P newex 397 250 50 196617 thispoly~;#P newex 410 321 102 196617 print undefined-table;#P newex 293 298 131 196617 sel 3 4 5 6 7 8 9 10 0;#P message 74 208 27 196617 stop;#P newex 340 194 45 196617 pack 0 5;#P newex 209 229 39 196617 * 0.01;#P newex 31 317 27 196617 *~;#P newex 31 292 38 196617 cycle~;#P newex 209 250 29 196617 mtof;#P newex 114 55 210 196617 unpack 0 0 0 0 0 0. 0. 0;#P newex 125 181 27 196617 i;#P newex 125 268 38 196617 i;#P newex 125 245 27 196617 del;#P newex 125 224 27 196617 t b i;#P newex 97 181 27 196617 i;#P newex 153 181 27 196617 i;#P comment 132 39 254 196617 amp1 time1 amp2 time2 pitch vib-depth vib-freq table;#P newex 181 181 27 196617 i;#P newex 209 181 27 196617 i;#P newex 237 181 27 196617 f;#P newex 265 181 27 196617 f;#P newex 293 181 27 196617 i;#P inlet 113 28 15 0;#P newex 97 132 38 196617 t b b;#P button 74 85 15 0;#P newex 97 109 30 196617 del 5;#P newex 31 482 27 196617 *~;#P newex 31 454 38 196617 cycle~;#P newex 31 369 27 196617 +~;#P newex 97 464 30 196617 line~;#P button 340 172 15 0;#P message 332 370 70 196617 set add06.snd;#P message 319 353 70 196617 set add05.snd;#P message 293 319 70 196617 set add03.snd;#P message 306 336 70 196617 set add04.snd;#P message 345 387 70 196617 set add07.snd;#P message 358 404 70 196617 set add08.snd;#P message 371 421 70 196617 set add09.snd;#P message 384 438 70 196617 set add10.snd;#P newex 97 301 144 196617 linedrive 157 8. 1.07177 100;#P newex 125 323 144 196617 linedrive 157 8. 1.07177 100;#P comment 443 521 100 196617 for busy/mute maps;#P comment 489 268 68 196617 voice number;#P connect 16 0 43 0;#P connect 22 0 35 0;#P connect 35 0 36 0;#P connect 36 0 14 0;#P connect 14 0 15 0;#P connect 7 0 15 0;#P connect 8 0 15 0;#P connect 9 0 15 0;#P connect 10 0 15 0;#P connect 11 0 15 0;#P connect 4 0 15 0;#P connect 5 0 15 0;#P connect 6 0 15 0;#P connect 15 0 16 0;#P connect 23 0 36 1;#P connect 34 0 14 1;#P connect 13 0 16 1;#P connect 2 0 52 0;#P connect 3 0 52 0;#P connect 33 0 18 0;#P connect 18 0 39 0;#P connect 18 0 17 0;#P connect 17 0 19 0;#P connect 19 0 28 0;#P connect 28 0 3 0;#P connect 3 0 13 0;#P connect 2 0 13 0;#P connect 38 0 13 0;#P connect 20 0 33 0;#P connect 44 0 33 0;#P connect 33 0 28 1;#P connect 52 0 56 0;#P connect 19 1 32 0;#P connect 32 0 29 0;#P connect 39 0 30 0;#P connect 29 0 30 0;#P connect 30 0 31 0;#P connect 31 0 2 0;#P connect 33 1 32 1;#P connect 29 1 30 1;#P connect 19 1 27 0;#P connect 27 0 31 1;#P connect 33 2 27 1;#P connect 52 0 50 0;#P connect 50 0 51 0;#P connect 60 0 51 0;#P connect 19 1 25 0;#P connect 33 3 25 1;#P connect 19 1 24 0;#P connect 24 0 37 0;#P connect 37 0 34 0;#P connect 51 2 54 0;#P connect 62 0 61 0;#P connect 54 0 61 0;#P connect 33 4 24 1;#P connect 32 0 3 1;#P connect 19 1 23 0;#P connect 33 5 23 1;#P connect 25 0 2 1;#P connect 19 1 22 0;#P connect 33 6 22 1;#P connect 19 1 21 0;#P connect 21 0 40 0;#P connect 40 0 9 0;#P connect 40 1 8 0;#P connect 33 7 21 1;#P connect 40 2 10 0;#P connect 40 3 11 0;#P connect 33 7 12 0;#P connect 12 0 38 0;#P connect 40 4 7 0;#P connect 40 5 6 0;#P connect 40 6 5 0;#P connect 40 7 4 0;#P connect 33 0 57 0;#P connect 33 2 57 0;#P connect 57 0 58 0;#P connect 58 0 48 0;#P connect 45 0 42 0;#P connect 47 0 42 0;#P connect 48 0 42 0;#P connect 58 0 62 0;#P connect 40 9 41 0;#P connect 58 1 60 0;#P connect 40 9 59 0;#P connect 42 0 46 0;#P fasten 61 0 47 0 215 569 568 569 568 187 470 187;#P connect 45 0 47 0;#P pop;