max v2;#N vpatcher -31 -44 996 719 -1;#P newex 15 25 100 1 delread~ revdel1 0;#P newex 56 55 150 1 delread~ revdel1 75.254601;#P newex 50 407 148 1 delread~ rev4-ref5 16.364;#P newex 50 381 148 1 delwrite~ rev4-ref5 16.364;#P newex 50 355 31 1 -~;#P newex 14 355 33 1 +~;#P newex 50 297 148 1 delwrite~ rev4-ref4 19.392;#P newex 50 323 148 1 delread~ rev4-ref4 19.392;#P newex 49 234 148 1 delread~ rev4-ref3 25.796;#P newex 50 139 158 1 delread~ rev4-ref2 43.533699;#P newex 49 181 31 1 -~;#P newex 13 181 33 1 +~;#P newex 49 207 148 1 delwrite~ rev4-ref3 25.796;#P newex 50 271 31 1 -~;#P newex 14 271 33 1 +~;#P newex 50 111 158 1 delwrite~ rev4-ref2 43.533699;#P newex 50 85 31 1 -~;#P newex 14 85 33 1 +~;#P newex 14 450 31 1 +~;#P newex 49 449 31 1 -~;#P newex 48 480 139 1 delwrite~ rev4-ref6 13.645;#P newex 48 507 139 1 delread~ rev4-ref6 13.645;#P comment 885 270 100 1 reverb time;#P newex 887 291 81 1 r $3;#P newex 887 353 70 1 pack 0. 50;#P newex 887 316 80 1 / 254.;#P newex 887 387 80 1 line~;#P newex 242 337 152 1 delread~ rev4-del1 58.643501;#P newex 726 338 155 1 delread~ rev4-del4 86.12439;#P newex 561 338 154 1 delread~ rev4-del3 74.523399;#P newex 396 338 155 1 delread~ rev4-del2 69.432503;#P newex 701 419 30 1 *~;#P newex 530 419 29 1 *~;#P newex 866 419 30 1 *~;#P newex 354 419 29 1 *~;#P newex 331 454 34 1 +~;#P newex 506 456 34 1 +~;#P newex 350 511 35 1 +~;#P newex 830 565 35 1 -~;#P newex 690 563 35 1 -~;#P newex 500 562 35 1 +~;#P newex 351 561 36 1 +~;#P newex 854 507 35 1 -~;#P newex 714 503 36 1 +~;#P newex 500 511 35 1 -~;#P newex 842 592 154 1 delwrite~ rev4-del4 86.12439;#P newex 679 592 156 1 delwrite~ rev4-del3 74.523399;#P newex 351 593 161 1 delwrite~ rev4-del1 58.643501;#P newex 516 593 158 1 delwrite~ rev4-del2 69.432503;#P newex 363 707 30 1 *~;#P newex 306 709 30 1 *~;#P newex 391 680 44 1 line~;#P newex 516 702 144 1 linedrive 157 8. 1.07177 30;#P outlet 362 736 15 1;#P outlet 302 739 15 1;#P newex 134 672 30 1 *~;#P outlet 133 713 15;#P newex 134 599 81 1 r $2;#P comment 134 582 100 1 output control;#P newex 134 623 136 1 linedrive 127 1. 1.06 30;#P newex 134 646 55 1 line~;#P newex 516 679 60 1 r $1;#P connect 38 0 36 0;#P connect 4 0 2 0;#P connect 37 0 35 0;#P connect 36 0 37 0;#P connect 23 0 16 0;#P connect 32 0 33 0;#P connect 33 0 35 0;#P connect 33 0 28 0;#P connect 22 0 15 0;#P connect 32 0 30 0;#P connect 31 0 32 0;#P connect 31 0 29 0;#P connect 34 0 31 0;#P connect 21 0 13 0;#P connect 34 0 27 0;#P connect 20 0 14 0;#P connect 1 0 6 0;#P connect 26 0 6 1;#P connect 26 0 1 0;#P connect 19 0 23 1;#P connect 17 0 23 0;#P connect 19 0 21 1;#P connect 17 0 21 0;#P connect 18 0 22 1;#P connect 24 0 22 0;#P connect 18 0 20 1;#P connect 24 0 20 0;#P connect 25 0 17 1;#P connect 25 0 24 1;#P connect 29 0 25 1;#P connect 30 0 19 0;#P connect 30 0 18 0;#P connect 35 0 28 1;#P connect 35 0 30 1;#P connect 28 0 18 1;#P connect 28 0 19 1;#P connect 35 0 27 1;#P connect 35 0 29 1;#P connect 27 0 26 1;#P connect 26 0 24 0;#P connect 26 0 17 0;#P connect 2 0 1 0;#P connect 6 0 5 0;#P connect 44 0 50 0;#P connect 44 0 51 0;#P connect 50 0 48 0;#P connect 50 0 47 0;#P connect 47 0 57 0;#P connect 47 0 56 0;#P connect 56 0 42 0;#P connect 56 0 43 0;#P connect 43 0 26 0;#P connect 45 0 46 0;#P connect 51 0 49 0;#P connect 48 0 55 0;#P connect 57 0 58 0;#P connect 42 0 41 0;#P connect 46 0 52 0;#P connect 52 0 51 1;#P connect 52 0 50 1;#P connect 49 0 53 0;#P connect 53 0 48 1;#P connect 53 0 47 1;#P connect 55 0 54 0;#P connect 54 0 57 1;#P connect 54 0 56 1;#P connect 58 0 59 0;#P connect 59 0 42 1;#P connect 59 0 43 1;#P connect 41 0 40 0;#P connect 40 0 25 0;#P connect 40 0 34 0;#P connect 60 0 44 1;#P connect 60 0 45 1;#P connect 61 0 60 0;#P connect 61 0 45 0;#P connect 61 0 44 0;#P connect 9 0 10 0;#P connect 10 0 11 1;#P connect 10 0 12 1;#P connect 26 0 11 0;#P connect 25 0 12 0;#P connect 11 0 7 0;#P connect 12 0 8 0;#P connect 14 0 10 0;#P connect 13 0 10 0;#P connect 15 0 10 0;#P connect 16 0 10 0;#P connect 10 0 1 0;#P connect 0 0 9 0;#P pop;