max v2;#N vpatcher 163 104 869 675;#P newex 4 385 80 196617 linedrive 157 4. 1.07177 30;#P newex 300 385 27 196617 f;#P flonum 344 386 49 9 0 0 0 3;#P message 421 344 14 196617 1;#P newex 361 322 70 196617 split 1 10000;#P newex 344 360 27 196617 / 1.;#P newex 270 385 27 196617 i;#P newex 4 515 164 196617 jup-doharm.pat $5 harm-del1 0 1.;#P newex 219 118 107 196617 r $3;#P number 259 184 45 9 0 0 0 3;#P comment 214 92 104 196617 window (logarithmic \; 127 -> 4.096 sec);#P newex 219 142 99 196617 linedrive 127 4096 1.07177 0;#P newex 219 182 27 196617 t b i;#P newex 205 385 27 196617 i;#P newex 238 385 27 196617 i;#P newex 4 360 72 196617 r $1;#P comment 344 37 62 196617 freq (cents);#P newex 344 82 41 196617 + 6000;#P newex 344 104 39 196617 * 0.01;#P newex 344 128 29 196617 mtof;#P newex 344 153 73 196617 - 261.625977;#P newex 344 182 55 196617 * -3.8224;#P comment 416 185 139 196617 that's 1000msec/261.626hz;#P newex 436 254 205 196617 buffer~ nowrap-ramp.snd nowrap-ramp.snd;#P newex 436 231 130 196617 buffer~ harm.snd harm.snd;#P comment 58 25 245 196617 args: amp \, switch \, delay-time \, window \, freq \, throw;#P newex 72 176 27 196617 t i b;#P newex 344 49 83 196617 r $4;#P number 47 129 35 9 0 0 0 3;#P newex 46 263 35 196617 del 20;#P newex 89 263 35 196617 del 22;#P newex 196 515 170 196617 jup-doharm.pat $5 harm-del2 1 0.5;#P newex 394 515 175 196617 jup-doharm.pat $5 harm-del3 2 0.25;#P newex 130 137 64 196617 r $2;#P newex 130 159 27 196617 + 2;#P newex 130 181 27 196617 t i b;#P comment 104 119 89 196617 delay time (msec);#P newex 89 385 55 196617 pack 1. 18;#P newex 72 74 230 196617 expr ($i1 > 1150) + ($i1 > 2350) + ($i1 > 3550);#P message 428 115 14 196617 0;#P newex 428 89 40 196617 r reset;#P toggle 461 145 15 0;#P newex 461 115 99 196617 r harm-mute-defeat;#P newex 147 385 55 196617 pack 0. 18;#P newex 147 363 27 196617 f;#P connect 5 0 3 0;#P connect 41 0 39 1;#P connect 3 0 0 1;#P connect 44 0 37 0;#P connect 44 0 13 0;#P connect 44 0 12 0;#P connect 43 0 37 5;#P connect 43 0 13 5;#P connect 43 0 12 5;#P connect 40 0 39 1;#P connect 40 1 41 0;#P connect 39 0 43 1;#P connect 39 0 42 0;#P connect 38 0 37 4;#P connect 38 0 13 4;#P connect 38 0 12 4;#P connect 18 1 15 0;#P connect 18 1 14 0;#P connect 18 1 0 0;#P connect 18 0 30 1;#P connect 17 0 6 0;#P connect 17 0 27 0;#P connect 2 0 3 0;#P connect 1 0 37 1;#P connect 1 0 13 1;#P connect 1 0 12 1;#P connect 0 0 1 0;#P connect 7 0 37 1;#P connect 7 0 13 1;#P connect 7 0 12 1;#P connect 6 0 16 0;#P connect 6 0 18 0;#P connect 4 0 5 0;#P connect 10 0 9 0;#P connect 9 1 15 0;#P connect 9 1 14 0;#P connect 9 1 0 0;#P connect 9 0 31 1;#P connect 36 0 33 0;#P connect 33 0 32 0;#P connect 32 0 15 0;#P connect 32 0 14 0;#P connect 32 0 0 0;#P connect 32 1 35 0;#P connect 32 1 38 1;#P connect 32 0 39 0;#P connect 32 1 40 0;#P connect 31 0 37 2;#P connect 31 0 13 2;#P connect 31 0 12 2;#P connect 30 0 37 3;#P connect 30 0 13 3;#P connect 30 0 12 3;#P connect 29 0 44 0;#P connect 27 0 26 0;#P connect 26 0 25 0;#P connect 25 0 24 0;#P connect 24 0 23 0;#P connect 23 0 39 0;#P connect 15 0 31 0;#P connect 15 0 30 0;#P connect 15 0 38 0;#P connect 15 0 43 0;#P connect 14 0 7 0;#P connect 11 0 10 0;#P pop;