max v2;#N vpatcher 370 51 930 756;#P newex 61 152 45 196617 sel 0. 1.;#P newex 61 124 59 196617 unpack 0. 0;#P message 19 286 27 196617 stop;#P newex 19 432 30 196617 del 4;#P button 404 171 15 0;#P flonum 137 152 35 9 0 0 0 3 0 0 0 221 221 221 222 222 222 0 0 0;#P flonum 312 169 35 9 0 0 0 3 0 0 0 221 221 221 222 222 222 0 0 0;#P flonum 263 165 35 9 0 0 0 3 0 0 0 221 221 221 222 222 222 0 0 0;#P flonum 95 376 43 9 0 0 0 3 0 0 0 221 221 221 222 222 222 0 0 0;#P newex 397 529 31 196617 out 1;#P newex 42 392 33 196617 sel 0.;#P newex 42 339 40 196617 line 0.;#P message 405 457 52 196617 mute 0 \, 1;#P message 236 467 52 196617 mute 1 \, 0;#P number 356 503 35 9 0 0 0 3 0 0 0 221 221 221 222 222 222 0 0 0;#P newex 314 94 25 196617 in 5;#P newex 256 94 25 196617 in 4;#P newex 135 94 25 196617 in 3;#P newex 84 94 25 196617 in 2;#P newex 40 94 25 196617 in 1;#P newex 162 525 35 196617 out~ 1;#P newex 295 445 45 196617 loadbang;#P newex 295 486 50 196617 thispoly~;#P newex 324 352 93 196617 vd~ harm-del1 2 0;#P newex 197 352 93 196617 vd~ harm-del1 2 0;#P newex 341 398 82 196617 cycle~ harm.snd;#P newex 197 421 27 196617 *~;#P newex 214 398 82 196617 cycle~ harm.snd;#P comment 311 55 27 196617 freq;#P inlet 311 71 15 0;#P comment 251 55 42 196617 window;#P inlet 258 71 15 0;#P comment 195 58 38 196617 switch;#P inlet 201 71 15 0;#P comment 18 34 301 196617 args: throw-name \, delay-name \, sampling-rate-shift switch-num;#P newex 324 421 27 196617 *~;#P newex 324 298 33 196617 *~ 1.;#P newex 324 326 32 196617 +~ 2.;#P comment 125 57 65 196617 delay (msec);#P inlet 132 71 15 0;#P newex 197 326 32 196617 +~ 2.;#P newex 197 298 33 196617 *~ 1.;#P newex 197 195 44 196617 phasor~;#P newex 324 270 80 196617 trapezoid~ 1. 1.;#P newex 324 242 38 196617 +~ 0.5;#P inlet 30 71 15 0;#P inlet 75 71 15 0;#P newex 180 454 27 196617 *~;#P newex 83 414 30 196617 line~;#P newex 163 479 27 196617 *~;#P newex 143 389 30 196617 line~;#P comment 99 581 100 196617 better way to mute voice??;#P connect 51 1 49 0;#P connect 41 0 48 0;#P connect 49 0 48 0;#P connect 32 0 40 0;#P connect 40 0 41 0;#P connect 33 0 50 0;#P connect 50 0 51 0;#P connect 32 0 3 0;#P connect 6 0 3 0;#P connect 40 0 43 0;#P connect 34 0 46 0;#P connect 33 0 1 0;#P connect 5 0 1 0;#P connect 2 0 31 0;#P connect 3 0 2 0;#P connect 1 0 4 0;#P connect 4 0 2 1;#P connect 36 0 9 0;#P connect 22 0 9 0;#P connect 9 0 10 0;#P connect 10 0 11 0;#P connect 11 0 27 0;#P connect 27 0 25 0;#P connect 16 0 4 1;#P connect 25 0 4 1;#P connect 24 0 25 1;#P connect 34 0 11 1;#P connect 35 0 10 1;#P connect 30 0 38 0;#P connect 48 0 38 0;#P connect 35 0 44 0;#P connect 9 0 24 1;#P connect 30 0 29 0;#P connect 39 0 29 0;#P connect 38 0 29 0;#P connect 36 0 45 0;#P connect 9 0 7 0;#P connect 7 0 8 0;#P connect 8 0 15 0;#P connect 15 0 14 0;#P connect 14 0 28 0;#P connect 28 0 16 0;#P connect 26 0 16 1;#P connect 34 0 14 1;#P connect 35 0 15 1;#P connect 29 0 37 0;#P connect 51 1 47 0;#P connect 47 0 39 0;#P connect 8 0 26 1;#P pop;