max v2;#N vpatcher 17 57 984 724;#P newex 15 13 94 196617 delread~ revdel1 0;#P newex 67 41 139 196617 delread~ revdel1 75.254602;#P newex 67 329 151 196617 delread~ rev4-ref5 16.364;#P newex 67 309 155 196617 delwrite~ rev4-ref5 16.364;#P newex 50 285 27 196617 -~;#P newex 15 285 27 196617 +~;#P newex 67 237 155 196617 delwrite~ rev4-ref4 19.392;#P newex 67 257 151 196617 delread~ rev4-ref4 19.392;#P newex 67 185 133 196617 delread~ rev4-ref3 25.796;#P newex 67 111 151 196617 delread~ rev4-ref2 43.533692;#P newex 50 141 27 196617 -~;#P newex 15 141 27 196617 +~;#P newex 67 165 138 196617 delwrite~ rev4-ref3 25.796;#P newex 50 213 27 196617 -~;#P newex 15 213 27 196617 +~;#P newex 67 91 155 196617 delwrite~ rev4-ref2 43.533692;#P newex 50 67 27 196617 -~;#P newex 15 67 27 196617 +~;#P newex 15 361 27 196617 +~;#P newex 50 360 27 196617 -~;#P newex 67 385 138 196617 delwrite~ rev4-ref6 13.645;#P newex 67 405 133 196617 delread~ rev4-ref6 13.645;#P newex 244 601 27 196617 *~;#P newex 187 601 27 196617 *~;#P newex 362 557 30 196617 line~;#P outlet 244 624 15 0;#P outlet 187 624 15 0;#P newex 152 534 30 196617 line~;#P newex 152 511 120 196617 linedrive 127 1. 1.06 30;#P comment 152 470 71 196617 output control;#P newex 152 487 80 196617 r $2;#P outlet 152 624 15 0;#P newex 152 560 27 196617 *~;#P newex 224 562 27 196617 *~;#P newex 224 536 30 196617 line~;#P comment 669 532 268 196617 Put output control BEFORE stereo out control - 22-oct-96;#P comment 882 140 62 196617 reverb time;#P newex 887 158 92 196617 r $3;#P newex 887 220 55 196617 pack 0. 50;#P newex 887 183 38 196617 / 254.;#P newex 887 254 30 196617 line~;#P newex 239 204 150 196617 delread~ rev4-del1 58.643498;#P newex 723 205 144 196617 delread~ rev4-del4 86.12439;#P newex 558 205 150 196617 delread~ rev4-del3 74.523393;#P newex 393 205 150 196617 delread~ rev4-del2 69.432504;#P newex 693 301 27 196617 *~;#P newex 541 301 27 196617 *~;#P newex 870 301 27 196617 *~;#P newex 364 301 27 196617 *~;#P newex 347 336 27 196617 +~;#P newex 524 336 27 196617 +~;#P newex 347 378 27 196617 +~;#P newex 836 428 27 196617 -~;#P newex 676 428 27 196617 -~;#P newex 507 428 27 196617 +~;#P newex 347 428 27 196617 +~;#P newex 853 378 27 196617 -~;#P newex 693 378 27 196617 +~;#P newex 507 378 27 196617 -~;#P newex 836 459 149 196617 delwrite~ rev4-del4 86.12439;#P newex 676 459 155 196617 delwrite~ rev4-del3 74.523393;#P newex 347 460 155 196617 delwrite~ rev4-del1 58.643498;#P newex 507 460 155 196617 delwrite~ rev4-del2 69.432504;#P newex 362 532 138 196617 linedrive 157 8. 1.07177 30;#P newex 362 509 117 196617 r $1;#P connect 64 0 47 0;#P connect 47 0 53 0;#P connect 53 0 50 0;#P connect 50 0 59 0;#P connect 59 0 46 0;#P connect 63 0 47 1;#P connect 55 0 53 1;#P connect 56 0 50 1;#P connect 57 0 59 1;#P connect 62 0 46 1;#P connect 64 0 48 0;#P connect 47 0 54 0;#P connect 53 0 51 0;#P connect 50 0 60 0;#P connect 59 0 45 0;#P connect 64 0 63 0;#P connect 63 0 48 1;#P connect 48 0 49 0;#P connect 49 0 55 0;#P connect 55 0 54 1;#P connect 54 0 52 0;#P connect 52 0 56 0;#P connect 56 0 51 1;#P connect 51 0 58 0;#P connect 58 0 57 0;#P connect 57 0 60 1;#P connect 60 0 61 0;#P connect 61 0 62 0;#P connect 62 0 45 1;#P connect 45 0 44 0;#P connect 44 0 43 0;#P connect 34 0 36 0;#P connect 36 0 37 0;#P connect 37 0 32 0;#P connect 32 0 33 0;#P connect 15 0 32 1;#P connect 32 0 41 0;#P connect 41 0 38 0;#P connect 40 0 41 1;#P connect 36 0 30 0;#P connect 30 0 31 0;#P connect 14 0 31 1;#P connect 31 0 42 0;#P connect 42 0 39 0;#P connect 40 0 42 1;#P connect 46 0 15 0;#P connect 15 0 13 0;#P connect 13 0 9 0;#P connect 9 0 3 0;#P connect 0 0 1 0;#P connect 1 0 40 0;#P connect 23 0 16 0;#P connect 16 0 15 1;#P connect 14 0 13 1;#P connect 7 0 9 1;#P connect 24 0 16 1;#P connect 15 0 6 0;#P connect 6 0 10 0;#P connect 10 0 2 0;#P connect 43 0 14 0;#P connect 14 0 6 1;#P connect 8 0 10 1;#P connect 20 0 18 0;#P connect 18 0 14 1;#P connect 24 0 18 1;#P connect 13 0 11 0;#P connect 11 0 4 0;#P connect 21 0 19 0;#P connect 19 0 7 0;#P connect 7 0 11 1;#P connect 24 0 19 1;#P connect 17 0 7 1;#P connect 6 0 12 0;#P connect 12 0 5 0;#P connect 19 0 8 0;#P connect 8 0 12 1;#P connect 22 0 17 0;#P connect 17 0 8 1;#P connect 27 0 25 0;#P connect 25 0 26 0;#P connect 26 0 24 0;#P connect 24 0 17 1;#P pop;