max v2;#N vpatcher 57 220 616 447;#P comment 347 85 19 1 __;#P comment 301 84 19 1 __;#P comment 254 85 19 1 __;#P comment 209 85 19 1 __;#P comment 162 85 19 1 __;#P comment 117 85 19 1 __;#P comment 82 16 41 1 Master;#P slider 90 32 28 128;#P slider 136 32 28 128;#P slider 183 32 28 128;#P slider 228 32 28 128;#P comment 219 2 58 1 Echantillo-nage;#P slider 321 32 28 128;#P comment 264 14 53 1 Synthese;#P comment 321 3 36 1 Traitment;#N vpatcher -146 227 1023 704;#P outlet 36 171 15;#P message 36 148 50 1 set \$1;#P inlet 34 44 15;#P newex 34 67 89 1 s enable-midi-mix;#P inlet 852 100 15;#P inlet 729 104 15;#P inlet 608 107 15;#P inlet 348 102 15;#P inlet 474 102 15;#P inlet 241 92 15;#P newex 141 107 89 1 r enable-midi-mix;#P newex 364 216 37 1 pack;#N vpatcher 250 295 641 650;#P outlet 41 354 15;#P inlet 130 31 15;#P newex 40 56 68 1 t b l;#P newex 97 116 50 1 swap;#P newex 97 93 50 1 unpack;#P message 97 141 60 1 append \$1;#P message 129 55 68 1 set;#P message 41 160 340 1 0 0 \, 1 16 \, 2 30 \, 3 34 \, 4 35 \, 5 36 \, 6 37 \, 7 38 \, 8 39 \, 9 40 \, 10 41 \, 11 42 \, 12 43 \, 13 44 \, 14 45 \, 15 46 \, 16 47 \, 17 48 \, 18 49 \, 19 50 \, 20 51 \, 21 51 \, 22 52 \, 23 53 \, 24 54 \, 25 54 \, 26 55 \, 27 56 \, 28 56 \, 29 57 \, 30 57 \, 31 58 \, 32 58 \, 33 58 \, 34 59 \, 35 59 \, 36 60 \, 37 60 \, 38 60 \, 39 61 \, 40 61 \, 41 61 \, 42 62 \, 43 62 \, 44 62 \, 45 62 \, 46 63 \, 47 63 \, 48 63 \, 49 64 \, 50 64 \, 51 64 \, 52 64 \, 53 64 \, 54 64 \, 55 64 \, 56 64 \, 57 64 \, 58 64 \, 59 64 \, 60 64 \, 61 64 \, 62 64 \, 63 64 \, 64 64 \, 65 64 \, 66 64 \, 67 64 \, 68 64 \, 69 64 \, 70 64 \, 71 64 \, 72 64 \, 73 64 \, 74 64 \, 75 64 \, 76 64 \, 77 64 \, 78 64 \, 79 64 \, 80 64 \, 81 64 \, 82 65 \, 83;#P message 40 93 45 1 append \\\,;#P inlet 41 33 15;#P connect 2 0 9 0;#P connect 0 0 7 0;#P connect 7 0 1 0;#P connect 7 1 5 0;#P connect 3 0 2 0;#P connect 8 0 3 0;#P connect 6 0 4 0;#P connect 6 1 4 0;#P connect 5 1 6 1;#P connect 5 0 6 0;#P connect 4 0 2 0;#P connect 1 0 2 0;#P pop;#P newobj 363 240 51 1 patcher storage;#P newex 364 155 34 1 t i i;#P newex 177 150 74 1 gate;#P toggle 141 136 14;#P newex 177 181 74 1 speedlim 50;#P number 177 218 74 2;#P number 177 276 74 2;#N vtable 128 227 460 443 691 16 158;#T set 0 0 3 6 10 13 16 19 23 26 29 32 35 39 42 45 48 52 55 58 61 64 68 71 74 77 80 84 87 90 93 97 100 103 106 109 113 116 119 122 126 127 127 127 127 127 127 127 127 127 127 127 127 127 127 127 127 127 127 127 127 127 127 127 127 127 127 127 127 127 127 127 127 127 127 127 128 128 129 129 130 130 131 132 132 133 133 134 134 135 135 136 137 137 138 138 139 139 140 141 141 142 142 143 143 144 145 145 146 146 147 147 148 149 149 150 150 151 151 152 152 153 154 154 155 155 156 156 157;#P newobj 177 239 75 1 table MixMaster;#P newex 300 150 59 1 gate;#P number 300 218 59 2;#P newex 300 277 60 1 / 64.;#P newex 300 238 59 1 speedlim 50;#N vtable 128 641 39 980 377 16 128 MixFactor;#T set 0 0 16 30 34 35 36 37 38 39 40 41 42 43 44 45 46 47 48 49 50 51 51 52 53 54 54 55 56 56 57 57 58 58 58 59 59 60 60 60 61 61 61 62 62 62 62 63 63 63 64 64 64 64 64 64 64 64 64 64 64 64 64 64 64 64 64 64 64 64 64 64 64 64 64 64 64 64 64 64 64 64 64 65 65 65 65 65 65 66 66 66 66 66 67 67 68 68 69 69 69 70 70 70 71 71 71 71 72 72 73 73 74 74 75 75 76 77 77 78 79 80 81 81 82 82 83 83 84;#P newobj 300 180 60 1 table MixFactor;#P newex 241 122 50 1 ctlin 7 1;#P newex 300 302 84 1 expr pow(\\\$f1 \\\,\\\$f2);#P newex 349 125 50 1 ctlin 7 3;#P newex 141 297 29 1 sel 0;#P message 141 357 29 1 1.;#P flonum 322 349 52 1;#P newex 424 150 59 1 gate;#P number 424 218 59 2;#P newex 424 277 60 1 / 64.;#P newex 424 238 59 1 speedlim 50;#N vtable 128 641 39 980 377 16 128 MixFactor;#P newobj 424 176 60 1 table MixFactor;#P newex 424 302 84 1 expr pow(\\\$f1 \\\,\\\$f2);#P flonum 446 349 52 1;#P newex 473 125 50 1 ctlin 7 4;#P newex 557 150 59 1 gate;#P number 557 218 59 2;#P newex 557 277 60 1 / 64.;#P newex 557 238 59 1 speedlim 50;#N vtable 128 641 39 980 377 16 128 MixFactor;#P newobj 557 176 60 1 table MixFactor;#P newex 557 302 84 1 expr pow(\\\$f1 \\\,\\\$f2);#P flonum 579 349 52 1;#P newex 681 150 59 1 gate;#P number 681 218 59 2;#P newex 681 277 60 1 / 64.;#P newex 681 238 59 1 speedlim 50;#N vtable 128 641 39 980 377 16 128 MixFactor;#P newobj 681 176 60 1 table MixFactor;#P newex 681 302 84 1 expr pow(\\\$f1 \\\,\\\$f2);#P flonum 703 349 52 1;#P newex 606 125 50 1 ctlin 7 6;#P newex 730 125 50 1 ctlin 7 7;#P newex 803 150 59 1 gate;#P number 803 218 59 2;#P newex 803 277 60 1 / 64.;#P newex 803 238 59 1 speedlim 50;#N vtable 128 641 39 980 377 16 128 MixFactor;#P newobj 803 176 60 1 table MixFactor;#P newex 803 302 84 1 expr pow(\\\$f1 \\\,\\\$f2);#P flonum 825 349 52 1;#P newex 852 125 50 1 ctlin 7 8;#N vpatcher 150 536 360 750;#P newex 108 106 26 2 + 1;#P newex 79 52 50 1 t b b;#P newex 79 106 25 2 i;#P newex 79 132 70 1 split 0 127;#P newex 39 107 32 1 del 1;#P message 94 80 19 2 0;#P newex 79 156 50 1 t b i;#P outlet 119 182 15;#P inlet 79 28 15;#P connect 2 1 1 0;#P connect 4 0 6 0;#P connect 2 0 4 0;#P connect 5 0 2 0;#P connect 6 0 5 0;#P connect 7 0 6 0;#P connect 7 1 3 0;#P connect 0 0 7 0;#P connect 3 0 6 1;#P connect 8 0 6 1;#P connect 6 0 8 0;#P pop;#P newobj 364 87 50 1 patcher count;#P newex 364 64 50 1 t b b;#P button 346 65;#P comment 128 65 215 1 to store table contents in message box ---->;#P outlet 427 424 15;#P message 88 202 50 1 set \$1;#P outlet 88 224 15;#P message 547 400 50 1 set \$1;#P outlet 547 422 15;#P message 410 403 50 1 set \$1;#P outlet 283 421 15;#P message 283 399 50 1 set \$1;#P message 664 400 50 1 set \$1;#P outlet 664 422 15;#P newex 176 337 74 1 s MixMaster;#P newex 299 375 83 1 s MixFactor2;#P newex 423 375 83 1 s MixFactor4;#P newex 440 75 88 1 r MixFactor2M;#P newex 259 97 78 1 r MixMasterM;#P newex 494 100 82 1 r MixFactor4M;#P newex 556 375 83 1 s MixFactorE;#P newex 628 103 86 1 r MixFactorEM;#P newex 680 375 83 1 s MixFactorS;#P newex 802 375 83 1 s MixFactorT;#P newex 879 100 86 1 r MixFactorTM;#P newex 754 103 86 1 r MixFactorSM;#P newex 36 124 89 1 r enable-midi-mix;#P newex 1039 216 60 1 loadbang;#P message 1038 238 70 1 1.000001;#P flonum 1039 264 70 1;#P inlet 977 98 15;#P newex 928 149 59 1 gate;#P number 928 217 59 2;#P newex 928 276 60 1 / 64.;#P newex 928 237 59 1 speedlim 50;#N vtable 128 641 39 980 377 16 128 MixFactor;#P newobj 928 175 60 1 table MixFactor;#P newex 928 301 84 1 expr pow(\\\$f1 \\\,\\\$f2);#P flonum 950 347 52 1;#P message 792 405 50 1 set \$1;#P outlet 792 427 15;#P message 915 399 50 1 set \$1;#P outlet 915 421 15;#P newex 977 123 50 1 ctlin 7 9;#P newex 927 375 83 1 s MixFactorN;#P newex 1004 98 86 1 r MixFactorNM;#P newex 1039 281 36 1 f;#P connect 20 0 62 1;#P connect 21 0 53 1;#P connect 24 0 69 1;#P connect 26 0 77 1;#P connect 28 0 88 1;#P connect 27 0 94 1;#P connect 53 0 7 0;#P connect 62 0 33 0;#P connect 69 0 38 0;#P connect 77 0 36 0;#P connect 88 0 34 0;#P connect 92 0 40 0;#P connect 7 0 6 0;#P connect 33 0 32 0;#P connect 38 0 37 0;#P connect 36 0 41 0;#P connect 34 0 35 0;#P connect 40 0 39 0;#P connect 104 0 53 1;#P connect 103 0 62 1;#P connect 102 0 69 1;#P connect 101 0 88 1;#P connect 100 0 77 1;#P connect 99 0 94 1;#P connect 44 0 45 0;#P connect 44 1 96 1;#P connect 43 0 44 0;#P connect 97 0 96 0;#P connect 45 0 95 0;#P connect 95 1 84 0;#P connect 95 0 97 0;#P connect 84 0 97 1;#P connect 79 0 23 0;#P connect 57 0 23 0;#P connect 18 0 17 0;#P connect 0 0 82 1;#P connect 0 0 72 1;#P connect 0 0 64 1;#P connect 0 0 57 1;#P connect 46 0 53 1;#P connect 48 0 22 0;#P connect 79 0 22 0;#P connect 93 0 53 0;#P connect 16 0 0 0;#P connect 17 0 16 0;#P connect 52 0 50 0;#P connect 50 0 51 0;#P connect 49 0 52 0;#P connect 53 0 49 0;#P connect 0 0 48 1;#P connect 51 0 48 0;#P connect 48 0 47 0;#P connect 54 0 62 1;#P connect 55 0 69 1;#P connect 64 0 25 0;#P connect 79 0 25 0;#P connect 93 0 62 0;#P connect 93 0 69 0;#P connect 68 0 66 0;#P connect 66 0 67 0;#P connect 65 0 68 0;#P connect 69 0 65 0;#P connect 67 0 64 0;#P connect 64 0 63 0;#P connect 57 0 56 0;#P connect 60 0 57 0;#P connect 62 0 58 0;#P connect 58 0 61 0;#P connect 59 0 60 0;#P connect 61 0 59 0;#P connect 79 0 29 0;#P connect 93 0 77 0;#P connect 70 0 77 1;#P connect 72 0 29 0;#P connect 76 0 74 0;#P connect 74 0 75 0;#P connect 73 0 76 0;#P connect 77 0 73 0;#P connect 75 0 72 0;#P connect 72 0 71 0;#P connect 79 0 30 0;#P connect 80 0 79 0;#P connect 93 0 80 0;#P connect 81 0 88 1;#P connect 82 0 78 0;#P connect 82 0 30 0;#P connect 86 0 82 0;#P connect 88 0 84 0;#P connect 84 0 87 0;#P connect 85 0 86 0;#P connect 87 0 85 0;#P connect 93 0 88 0;#P connect 91 0 89 0;#P connect 89 0 90 0;#P connect 90 0 31 0;#P connect 92 0 91 0;#P connect 94 0 92 0;#P connect 98 0 93 0;#P connect 93 0 94 0;#P connect 83 0 94 1;#P connect 107 0 108 0;#P connect 106 0 105 0;#P connect 19 0 107 0;#P connect 9 0 8 0;#P connect 12 0 9 0;#P connect 14 0 10 0;#P connect 10 0 13 0;#P connect 11 0 12 0;#P connect 13 0 11 0;#P connect 15 0 14 1;#P connect 5 0 4 0;#P connect 14 0 5 0;#P connect 3 0 14 1;#P connect 9 0 2 0;#P connect 1 0 14 1;#P connect 93 0 14 0;#P connect 0 0 9 1;#P connect 79 0 2 0;#P pop;#P newobj 44 166 337 3 patcher MidiMix;#P slider 275 31 28 128;#P toggle 44 138 24;#P comment 40 107 46 1 enable-midi-mix;#P newex 428 60 50 1 del 50;#P newex 428 35 50 1 r reset;#P comment 364 13 36 1 Noise;#P slider 366 31 28 128;#P comment 392 84 19 1 __;#P message 428 86 115 1 \; enable-midi-mix 1 \; MixMasterM 64 \; MixFactor2M 64 \; MixFactor4M 64 \; MixFactorEM 64 \; MixFactorSM 64 \; MixFactorTM 64 \; MixFactorNM 64;#P comment 135 16 29 1 Fixe;#P comment 178 16 39 1 Mobile;#P connect 11 6 14 0;#P connect 11 5 10 0;#P connect 14 0 11 6;#P connect 10 0 11 5;#P connect 11 4 16 0;#P connect 11 3 17 0;#P connect 16 0 11 4;#P connect 17 0 11 3;#P connect 11 2 18 0;#P connect 18 0 11 2;#P connect 11 1 19 0;#P connect 19 0 11 1;#P connect 11 0 9 0;#P connect 9 0 11 0;#P connect 7 0 2 0;#P connect 6 0 7 0;#P connect 4 0 11 7;#P connect 11 7 4 0;#P pop;