max v2;#N vpatcher 102 81 929 749;#P origin 0 -36;#P user number~ 556 378 595 393 9 3 3 2 0. 0. 0 0. 250 0. 0 0 0 222 222 222 222 222 222 0 0 0;#P flonum 223 396 35 9 0 0 0 3 0 0 0 221 221 221 222 222 222 0 0 0;#P flonum 529 202 35 9 0 0 0 3 0 0 0 221 221 221 222 222 222 0 0 0;#P flonum 515 184 35 9 0 0 0 3 0 0 0 221 221 221 222 222 222 0 0 0;#P flonum 586 144 35 9 0 0 0 3 0 0 0 221 221 221 222 222 222 0 0 0;#P flonum 629 50 35 9 0 0 0 3 0 0 0 221 221 221 222 222 222 0 0 0;#P flonum 693 195 35 9 0 0 0 3 0 0 0 221 221 221 222 222 222 0 0 0;#P flonum 371 316 35 9 0 0 0 3 0 0 0 221 221 221 222 222 222 0 0 0;#P flonum 110 372 35 9 0 0 0 3 0 0 0 221 221 221 222 222 222 0 0 0;#P flonum 228 332 35 9 0 0 0 3 0 0 0 221 221 221 222 222 222 0 0 0;#P comment 621 637 55 196617 phase shift;#P comment 453 642 41 196617 1/freq;#P comment 139 642 68 196617 sine wave;#P inlet 40 182 15 0;#P inlet 10 182 15 0;#P newex 559 120 38 196617 mtof;#P newex 519 95 26 196617 0;#P newex 182 308 38 196617 mtof;#P comment 180 266 27 196617 bw;#P comment 623 254 55 196617 phase shift;#P inlet 603 250 15 0;#P comment 142 180 68 196617 sine wave;#P newex 502 284 31 196617 *~;#P newex 73 320 36 196617 / 127.;#P newex 73 342 56 196617 pack 0. 30;#P newex 73 289 78 196617 r $2;#P comment 73 273 34 196617 noise;#P newex 522 303 120 196617 cycle~ nowrap-ramp.snd;#P comment 57 642 62 196617 noise send;#P comment 11 659 67 196617 sum bus;#P outlet 10 642 15 0;#P newex 100 602 25 196617 -~;#P newex 482 424 53 196617 sah~ 0.01;#P newex 393 427 38 196617 cycle~;#P newex 441 427 38 196617 cycle~;#P newex 289 363 34 196617 line~;#P newex 161 378 31 196617 *~;#P outlet 40 642 15 0;#P newex 146 405 25 196617 *~;#P newex 146 433 25 196617 *~;#P newex 100 522 25 196617 *~;#P newex 100 499 25 196617 /~;#P newex 146 456 32 196617 +~ 1.;#P newex 58 560 25 196617 *~;#P newex 501 323 28 196617 -~;#P newex 100 405 41 196617 sig~ 1.;#P newex 182 284 92 196617 r $5;#P newex 182 341 30 196617 line~;#P outlet 123 642 15 0;#P outlet 492 642 15 0;#P newex 436 380 25 196617 *~;#P newex 449 357 53 196617 sah~ 0.01;#P newex 523 257 36 196617 line~;#P outlet 603 635 15 0;#P newex 458 462 27 196617 -~;#P newex 458 483 34 196617 *~;#P newex 421 406 25 196617 +~;#P comment 466 241 41 196617 1/freq;#P inlet 492 255 15 0;#P inlet 123 179 15 0;#P newex 426 527 25 196617 *~;#P newex 73 366 32 196617 line~;#P newex 519 73 50 196617 sel 0;#P comment 451 21 41 196617 cf;#P newex 451 35 92 196617 r $3;#P newex 451 55 50 196617 t b i;#P newex 523 232 56 196617 pack 0. 0;#P newex 289 311 70 196617 linedrive 154 0.1 1.06 30;#P comment 289 269 32 196617 amp;#P newex 289 285 80 196617 r $1;#P outlet 396 642 15 0;#P inlet 396 252 15 0;#P newex 451 159 72 196617 route 0 1;#P newex 451 138 56 196617 pack 0 0.;#P newex 451 118 33 196617 > 0.;#P newex 451 97 63 196617 snapshot~;#P comment 372 234 68 196617 sawtooth;#P message 451 207 50 196617 reset;#P newex 559 97 38 196617 - 12;#P comment 570 166 77 196617 cf gliss time;#P newex 569 182 97 196617 r $4;#P newex 569 207 97 196617 line 0 30;#P connect 50 0 51 0;#P connect 67 0 51 0;#P connect 38 0 44 0;#P connect 68 0 44 0;#P connect 41 0 38 0;#P connect 56 0 58 0;#P connect 58 0 57 0;#P connect 57 0 20 0;#P connect 20 0 38 1;#P connect 36 0 40 0;#P connect 40 0 41 0;#P connect 41 0 50 0;#P connect 58 0 73 0;#P connect 39 0 40 1;#P connect 21 0 41 1;#P connect 38 0 50 1;#P connect 22 0 33 0;#P connect 22 0 43 0;#P connect 43 0 42 0;#P connect 42 0 39 0;#P connect 23 0 45 0;#P connect 45 0 43 1;#P connect 43 0 42 1;#P connect 35 0 64 0;#P connect 64 0 34 0;#P connect 34 0 45 1;#P connect 14 0 80 0;#P connect 64 0 72 0;#P connect 12 0 14 0;#P connect 14 0 46 0;#P connect 12 0 74 0;#P connect 10 0 11 0;#P connect 10 0 25 0;#P connect 25 0 48 1;#P connect 46 0 21 0;#P connect 10 0 31 0;#P connect 61 0 25 1;#P connect 31 0 25 1;#P connect 47 0 21 1;#P connect 26 0 21 1;#P connect 37 0 30 0;#P connect 17 0 16 0;#P connect 46 0 6 0;#P connect 16 0 6 0;#P connect 6 0 7 0;#P connect 7 0 8 0;#P connect 8 0 9 0;#P connect 9 0 4 0;#P connect 30 0 31 1;#P connect 48 0 27 0;#P connect 27 0 26 0;#P connect 61 0 47 1;#P connect 31 0 47 1;#P connect 47 0 27 1;#P connect 54 0 49 0;#P connect 49 0 26 1;#P connect 10 0 30 1;#P connect 23 0 32 0;#P connect 66 0 8 1;#P connect 65 0 8 1;#P connect 59 0 37 0;#P connect 23 0 59 0;#P connect 9 1 78 0;#P connect 16 1 19 0;#P connect 19 0 65 0;#P connect 54 0 37 1;#P connect 9 1 15 0;#P connect 9 0 29 0;#P connect 15 0 29 0;#P connect 29 0 59 1;#P connect 10 0 49 1;#P connect 9 0 79 0;#P connect 61 0 81 0;#P connect 19 1 3 0;#P connect 3 0 66 0;#P connect 1 0 0 0;#P connect 0 0 15 1;#P connect 66 0 77 0;#P connect 61 0 28 0;#P connect 17 0 76 0;#P connect 59 0 54 1;#P connect 1 0 75 0;#P pop;