max v2;#N vpatcher 332 103 926 762;#P origin 0 -17;#P message 157 531 27 196617 stop;#P newex 157 551 30 196617 del 4;#P flonum 47 329 35 9 0 0 0 3 0 0 0 221 221 221 222 222 222 0 0 0;#P newex 140 41 27 196617 t l b;#P newex 27 306 40 196617 line 0.;#P button 67 594 15 0;#P comment 1 579 150 196617 checks for 0 to mute poly voice;#P newex 27 559 50 196617 change 1.;#P newex 27 535 43 196617 > 0.001;#P message 432 470 52 196617 mute 0 \, 1;#P newex 373 439 45 196617 loadbang;#P message 373 470 52 196617 mute 1 \, 0;#P newex 279 510 31 196617 out 1;#P newex 279 486 50 196617 thispoly~;#P newex 140 492 35 196617 out~ 1;#P newex 171 104 29 196617 t i b;#P newex 140 21 25 196617 in 1;#P newex 422 404 53 196617 0.72563;#P newex 140 456 27 196617 *~;#P newex 140 409 30 196617 line~;#P newex 50 206 27 196617 i;#P newex 50 234 138 196617 linedrive 127 0.8 1.07717 5;#P newex 80 206 27 196617 i;#P newex 50 153 30 196617 del 4;#P newex 79 181 27 196617 del;#P message 80 91 27 196617 stop;#P newex 140 60 41 196617 route 0;#P comment 189 64 315 196617 velocity \, pitch \, onset \, risetime \, decaytime \, steadystate;#P newex 171 81 92 196617 unpack 0 0 0 0 0 0;#P newex 80 256 138 196617 linedrive 127 0.8 1.07717 5;#P newex 190 309 49 196617 pack 0. 4;#P newex 140 280 55 196617 pack 0. 50;#P button 140 103 15 0;#P newex 239 195 114 196617 t b b;#P newex 239 248 55 196617 % 100000;#P newex 239 271 39 196617 * 0.01;#P newex 239 227 27 196617 i;#P newex 239 296 29 196617 mtof;#P newex 239 318 99 196617 expr 2616256./$f1;#P newex 239 339 73 196617 pack 0. 10000;#P newex 239 360 40 196617 swap;#P message 343 404 45 196617 jump \$1;#P newex 239 411 40 196617 line~;#P newex 381 330 65 196617 / 10000000;#P newex 239 380 27 196617 + 0.;#P newex 343 331 27 196617 i;#P comment 266 83 203 196617 (pitch also encodes sample number -- ouch);#P comment 333 388 223 196617 read 44.1k samples at 32k \, factor of 0.72563;#P comment 324 456 23 196617 2.1;#P newex 239 438 115 196617 sampread~ sample1 2.1;#P newex 269 385 63 196617 * 0.72563;#P comment 445 332 49 196617 sample #;#P connect 20 0 47 0;#P connect 30 0 47 0;#P connect 22 0 47 0;#P connect 47 0 43 0;#P connect 43 0 44 0;#P connect 47 0 49 0;#P connect 36 1 28 0;#P connect 26 0 28 0;#P connect 28 0 31 0;#P connect 31 0 30 0;#P connect 36 0 31 1;#P connect 44 2 46 0;#P connect 28 0 27 0;#P connect 26 0 27 0;#P connect 25 0 26 0;#P connect 27 0 29 0;#P connect 29 0 22 0;#P connect 23 3 27 1;#P connect 23 5 29 1;#P connect 35 0 48 0;#P connect 48 0 25 0;#P connect 25 0 19 0;#P connect 19 0 20 0;#P connect 20 0 32 0;#P connect 21 0 32 0;#P connect 22 0 32 0;#P connect 30 0 32 0;#P connect 32 0 33 0;#P connect 33 0 37 0;#P connect 2 0 33 1;#P connect 48 1 51 0;#P connect 46 0 50 0;#P connect 51 0 50 0;#P connect 25 1 23 0;#P connect 23 0 36 0;#P connect 23 3 30 1;#P connect 36 1 21 0;#P connect 23 4 22 1;#P connect 28 0 18 0;#P connect 18 0 15 0;#P connect 15 0 17 0;#P connect 17 0 16 0;#P connect 16 0 14 0;#P connect 14 0 13 0;#P connect 13 0 12 0;#P connect 12 0 11 0;#P connect 11 0 7 0;#P connect 6 0 9 0;#P connect 7 0 9 0;#P connect 10 0 2 0;#P connect 9 0 2 0;#P connect 8 0 2 0;#P connect 23 1 15 1;#P connect 6 0 7 1;#P connect 11 1 1 0;#P connect 1 0 9 1;#P connect 32 0 38 0;#P connect 42 0 38 0;#P connect 40 0 38 0;#P connect 38 0 39 0;#P connect 18 1 6 0;#P connect 6 0 10 0;#P connect 23 2 6 1;#P connect 50 0 40 0;#P connect 41 0 40 0;#P connect 15 0 8 0;#P connect 48 1 42 0;#P pop;