max v2;#N vpatcher 322 121 915 620;#P user number~ 71 412 110 427 9 3 3 2 0. 0. 0 0. 250 0. 0 0 0 222 222 222 222 222 222 0 0 0;#P newex 273 460 53 196617 print done;#P newex 344 160 53 196617 print time;#P newex 179 145 33 196617 timer;#P newex 324 116 43 196617 print on;#P newex 270 118 45 196617 print off;#P flonum 111 161 35 9 0 0 0 3 0 0 0 221 221 221 222 222 222 0 0 0;#P flonum 7 205 35 9 0 0 0 3 0 0 0 221 221 221 222 222 222 0 0 0;#P flonum 112 183 35 9 0 0 0 3 0 0 0 221 221 221 222 222 222 0 0 0;#P newex 319 135 50 196617;#P outlet 439 446 15 0;#P newex 422 384 53 196617 0.72563;#P flonum 432 331 62 9 0 0 0 3 0 0 0 221 221 221 222 222 222 0 0 0;#P flonum 381 339 35 9 0 0 0 3 0 0 0 221 221 221 222 222 222 0 0 0;#P flonum 188 374 35 9 0 0 0 3 0 0 0 221 221 221 222 222 222 0 0 0;#P flonum 292 384 35 9 0 0 0 3 0 0 0 221 221 221 222 222 222 0 0 0;#P flonum 381 269 35 9 0 0 0 3 0 0 0 221 221 221 222 222 222 0 0 0;#P flonum 386 405 35 9 0 0 0 3 0 0 0 221 221 221 222 222 222 0 0 0;#P outlet 34 464 15 0;#P newex 140 436 27 196617 *~;#P newex 140 389 30 196617 line~;#P inlet 34 20 15 0;#P comment 54 20 52 196617 signal bus;#P newex 50 186 27 196617 i;#P newex 50 214 138 196617 linedrive 127 0.8 1.07717 5;#P newex 80 186 27 196617 i;#P newex 50 133 30 196617 del 4;#P newex 79 161 27 196617 del;#P message 80 71 27 196617 stop;#P button 171 83 15 0;#P newex 140 40 41 196617 route 0;#P inlet 140 20 15 0;#P comment 188 42 263 196617 velocity \, pitch \, onset \, risetime \, decaytime \, steadystate;#P newex 171 61 92 196617 unpack 0 0 0 0 0 0;#P newex 80 236 138 196617 linedrive 127 0.8 1.07717 5;#P newex 171 289 49 196617 pack 0. 4;#P newex 140 260 55 196617 pack 0. 50;#P button 140 83 15 0;#P newex 231 175 114 196617 t b b;#P newex 231 228 55 196617 % 100000;#P newex 231 251 39 196617 * 0.01;#P newex 231 207 27 196617 i;#P newex 231 276 29 196617 mtof;#P newex 231 298 99 196617 expr 2616256./$f1;#P newex 231 319 73 196617 pack 0. 10000;#P newex 231 340 40 196617 swap;#P message 335 384 45 196617 jump \$1;#P newex 231 391 40 196617 line~;#P newex 373 310 65 196617 / 10000000;#P newex 231 360 27 196617 + 0.;#P newex 335 311 27 196617 i;#P comment 274 79 203 196617 (pitch also encodes sample number -- ouch);#P comment 316 362 223 196617 read 44.1k samples at 32k \, factor of 0.72563;#P comment 324 436 23 196617 2.1;#P newex 231 418 115 196617 sampread~ sample1 2.1;#P newex 261 365 63 196617 * 0.72563;#P comment 90 135 35 196617 was 4;#P connect 33 0 49 0;#P connect 37 0 38 0;#P connect 35 0 38 0;#P connect 27 0 30 0;#P connect 28 0 30 0;#P connect 30 0 33 0;#P connect 33 0 32 0;#P connect 23 0 33 1;#P connect 36 0 56 0;#P connect 30 0 29 0;#P connect 28 0 29 0;#P connect 26 0 28 0;#P connect 29 0 31 0;#P connect 31 0 22 0;#P connect 23 3 29 1;#P connect 23 5 31 1;#P connect 23 3 50 0;#P connect 31 0 48 0;#P connect 25 0 26 0;#P connect 26 0 19 0;#P connect 19 0 20 0;#P connect 32 0 36 0;#P connect 22 0 36 0;#P connect 21 0 36 0;#P connect 20 0 36 0;#P connect 36 0 37 0;#P connect 2 0 37 1;#P connect 26 1 23 0;#P connect 23 0 27 0;#P connect 27 0 21 0;#P connect 23 3 32 1;#P connect 19 0 53 0;#P connect 7 0 42 0;#P connect 27 0 53 1;#P connect 23 4 22 1;#P connect 30 0 18 0;#P connect 18 0 15 0;#P connect 15 0 17 0;#P connect 17 0 16 0;#P connect 16 0 14 0;#P connect 14 0 13 0;#P connect 13 0 12 0;#P connect 12 0 11 0;#P connect 11 0 7 0;#P connect 6 0 9 0;#P connect 7 0 9 0;#P connect 8 0 2 0;#P connect 10 0 2 0;#P connect 9 0 2 0;#P connect 23 1 15 1;#P connect 6 0 7 1;#P connect 11 1 1 0;#P connect 1 0 9 1;#P connect 11 1 41 0;#P connect 18 1 6 0;#P connect 6 0 10 0;#P connect 23 2 6 1;#P connect 15 0 8 0;#P connect 14 0 40 0;#P connect 6 0 43 0;#P connect 6 0 39 0;#P connect 8 0 44 0;#P connect 44 0 46 0;#P pop;