max v2;#N vpatcher 153 54 939 745;#P message 294 114 32 196617 $1;#P newex 76 45 144 196617 linedrive 157 1.2 1.06848 30;#P newex 78 432 78 196617 tapout~ 13.645;#P newex 78 412 72 196617 tapin~ 13.645;#P newex 78 371 95 196617 tapout~ 16.363997;#P newex 78 350 90 196617 tapin~ 16.363997;#P newex 78 309 95 196617 tapout~ 19.391994;#P newex 78 288 90 196617 tapin~ 19.391994;#P newex 78 102 90 196617 tapin~ 75.254601;#P newex 76 25 84 196617 r $2;#P newex 78 123 95 196617 tapout~ 75.254601;#P newex 78 164 90 196617 tapin~ 43.533688;#P newex 78 185 95 196617 tapout~ 43.533688;#P newex 78 226 72 196617 tapin~ 25.796;#P newex 78 247 78 196617 tapout~ 25.796;#P comment 162 28 61 196617 reverb gate;#P newex 61 394 27 196617 -~;#P newex 25 394 27 196617 +~;#P newex 61 332 27 196617 -~;#P newex 25 332 27 196617 +~;#P newex 61 208 27 196617 -~;#P newex 25 208 27 196617 +~;#P newex 61 270 27 196617 -~;#P newex 25 270 27 196617 +~;#P newex 61 146 27 196617 -~;#P newex 25 146 27 196617 +~;#P inlet 25 27 15 0;#P newex 25 84 27 196617 *~;#P newex 76 66 30 196617 line~;#P comment 12 13 59 196617 input signal;#P newex 200 309 120 196617 linedrive 127 1. 1.06 30;#P comment 200 266 71 196617 output control;#P newex 200 283 106 196617 r $3;#P newex 281 621 27 196617 *~;#P outlet 281 648 15 0;#P newex 200 589 30 196617 line~;#P newex 626 621 27 196617 *~;#P outlet 626 648 15 0;#P newex 511 621 27 196617 *~;#P outlet 511 648 15 0;#P newex 386 621 27 196617 *~;#P outlet 386 648 15 0;#P newex 238 571 90 196617 tapin~ 58.643494;#P newex 337 571 90 196617 tapin~ 69.432503;#P newex 458 571 90 196617 tapin~ 74.523392;#P newex 559 571 84 196617 tapin~ 86.12439;#P newex 238 547 27 196617 +~;#P newex 337 547 27 196617 +~;#P newex 458 547 27 196617 -~;#P newex 559 547 27 196617 -~;#P newex 337 492 27 196617 -~;#P newex 475 492 27 196617 +~;#P newex 576 492 27 196617 -~;#P newex 238 492 27 196617 +~;#P newex 238 464 27 196617 +~;#P newex 354 464 27 196617 +~;#P newex 690 394 30 196617 line~;#P newex 690 274 38 196617 / 254.;#P newex 475 431 27 196617 *~;#P newex 371 431 27 196617 *~;#P newex 593 431 27 196617 *~;#P newex 255 431 27 196617 *~;#P newex 690 311 55 196617 pack 0. 50;#P comment 688 228 62 196617 reverb time;#P newex 690 249 73 196617 r $4;#P newex 255 366 95 196617 tapout~ 58.643494;#P newex 371 366 95 196617 tapout~ 69.432503;#P newex 475 366 95 196617 tapout~ 74.523392;#P newex 593 366 90 196617 tapout~ 86.12439;#P comment 328 116 159 196617 was the delread/write base name;#P connect 68 0 41 0;#P connect 43 0 42 0;#P connect 67 0 14 0;#P connect 65 0 52 1;#P connect 66 0 67 0;#P connect 65 0 53 1;#P connect 63 0 50 1;#P connect 64 0 65 0;#P connect 63 0 51 1;#P connect 61 0 59 0;#P connect 62 0 63 0;#P connect 60 0 68 0;#P connect 59 0 45 1;#P connect 59 0 44 1;#P connect 58 0 57 0;#P connect 57 0 49 1;#P connect 57 0 48 1;#P connect 56 0 55 0;#P connect 55 0 47 1;#P connect 55 0 46 1;#P connect 53 0 66 0;#P connect 52 0 15 0;#P connect 51 0 64 0;#P connect 50 0 52 0;#P connect 49 0 56 0;#P connect 50 0 53 0;#P connect 48 0 46 0;#P connect 47 0 62 0;#P connect 48 0 47 0;#P connect 46 0 50 0;#P connect 45 0 58 0;#P connect 46 0 51 0;#P connect 44 0 48 0;#P connect 44 0 49 0;#P connect 42 0 44 0;#P connect 42 0 45 0;#P connect 42 0 61 0;#P connect 39 0 34 0;#P connect 41 0 42 1;#P connect 37 0 39 0;#P connect 34 0 36 0;#P connect 36 0 35 0;#P connect 34 0 29 0;#P connect 34 0 31 0;#P connect 34 0 33 0;#P connect 31 0 30 0;#P connect 33 0 32 0;#P connect 29 0 28 0;#P connect 26 0 3 0;#P connect 27 0 4 0;#P connect 25 0 2 0;#P connect 23 0 27 0;#P connect 24 0 1 0;#P connect 22 0 26 0;#P connect 21 0 25 0;#P connect 20 0 24 0;#P connect 19 0 20 0;#P connect 19 0 22 0;#P connect 18 0 23 1;#P connect 17 0 22 1;#P connect 18 0 21 1;#P connect 17 0 20 1;#P connect 16 0 21 0;#P connect 16 0 23 0;#P connect 15 0 16 0;#P connect 15 0 36 1;#P connect 15 0 19 0;#P connect 14 0 19 1;#P connect 14 0 16 1;#P connect 14 0 29 1;#P connect 13 0 10 1;#P connect 13 0 8 1;#P connect 13 0 11 1;#P connect 12 0 7 0;#P connect 13 0 9 1;#P connect 11 0 18 0;#P connect 11 0 31 1;#P connect 11 0 17 0;#P connect 9 0 18 1;#P connect 10 0 14 1;#P connect 9 0 17 1;#P connect 8 0 15 1;#P connect 9 0 33 1;#P connect 7 0 13 0;#P connect 4 0 8 0;#P connect 5 0 12 0;#P connect 3 0 10 0;#P connect 2 0 11 0;#P connect 1 0 9 0;#P pop;