max v2;#N vpatcher 331 249 860 664;#P newex 296 123 61 9 pack 0 100;#P newex 188 224 55 9 tapin~ 100;#P newex 131 307 40 9 +~;#P outlet 131 338 15 0;#P newex 173 280 133 9 *~;#P comment 287 44 64 196618 feedback;#P inlet 296 68 15 0;#P comment 50 158 50 196618 input;#P inlet 54 183 15 0;#P newex 173 199 35 9 +~;#P newex 296 94 48 9 / 128.;#P newex 296 154 45 9 line~;#P newex 199 173 33 9 *~;#P newex 199 143 34 9 -~;#P comment 131 52 79 196618 delay (signal);#P inlet 131 68 15 0;#P newex 131 104 52 9 tapout~ 0;#P connect 8 0 7 0;#P connect 1 0 0 0;#P connect 16 0 5 0;#P fasten 15 0 0 0 193 256 275 256 275 90 136 90;#P connect 12 0 14 1;#P connect 14 0 13 0;#P connect 7 0 12 0;#P connect 7 0 15 0;#P connect 6 0 16 0;#P connect 5 0 4 1;#P connect 5 0 12 1;#P connect 4 0 7 1;#P connect 3 0 4 0;#P connect 0 0 14 0;#P connect 0 0 3 1;#P connect 10 0 6 0;#P pop;