max v2;#N vpatcher 112 264 512 664;#N vpatcher 61 56 1083 571;#P newex 870 289 79 1 s env-vfreq12;#P newex 870 265 79 1 s env-vfreq11;#P newex 870 239 79 1 s env-vfreq10;#P newex 870 214 79 1 s env-vfreq9;#P newex 871 188 86 1 r env-vfreq9-12;#P newex 873 133 79 1 s env-vamp12;#P newex 873 108 79 1 s env-vamp11;#P newex 873 83 79 1 s env-vamp10;#P newex 873 58 79 1 s env-vamp9;#P newex 872 30 81 1 r env-amp9-12;#N vpatcher 9 28 884 504;#P newex 693 453 80 1 s go-vfreq12;#P newex 726 244 87 1 r vfreq-decay12;#P newex 640 219 100 1 r vfreq-sustain12;#P newex 405 423 64 1 s vfreq12;#P newex 279 267 101 1 r vfreq-sustain12;#P newex 226 239 83 1 r vamp-freq12;#P button 385 264;#P newex 385 238 50 1 del;#P newex 385 215 50 1 t b i;#P newex 595 146 50 1 t b b;#P number 225 293 35 1;#P number 278 296 35 1;#P number 701 271 35 1;#P newex 757 165 112 1 random 3500;#P newex 757 190 50 1 + 500;#P number 171 409 35 1;#P newex 770 345 50 1 r reset;#P message 772 369 41 1 stop;#P newex 594 383 50 1 line 0 10;#P number 594 408 35 1;#P newex 444 137 87 1 random 6000;#P newex 445 166 50 1 + 1;#P newex 444 215 50 1 t b i;#P newex 444 238 50 1 del;#P number 446 192 35 1;#P message 595 316 77 1 \$2 \, \$3 \$4;#P newex 594 288 173 1 pack 0 0 0 0;#P newex 171 372 50 1 line 0 10;#P message 171 344 77 1 \$2 \, \$3 \$4;#P newex 170 316 173 1 pack 0 0 0 0;#P number 333 192 35 1;#P newex 331 135 96 1 random 3500;#P newex 332 164 50 1 + 500;#P button 595 246;#P button 595 124;#P number 641 270 35 1;#P newex 103 195 50 1 r reset;#P message 105 219 41 1 stop;#P newex 171 184 50 1 t b b;#P inlet 171 111 15;#P button 170 285;#P button 77 167;#P number 756 221 35 1;#P newex 692 427 50 1 del 10;#P newex 738 403 50 1 + 10;#P connect 1 0 44 0;#P connect 43 0 32 0;#P connect 42 0 9 0;#P connect 29 0 41 0;#P connect 25 0 41 0;#P connect 40 0 33 0;#P connect 39 0 34 0;#P connect 27 0 26 0;#P connect 28 0 27 0;#P connect 7 0 21 0;#P connect 7 0 37 0;#P connect 8 0 7 0;#P connect 7 0 17 0;#P connect 35 0 11 0;#P connect 35 1 31 0;#P connect 10 0 35 0;#P connect 3 0 6 0;#P connect 6 0 4 0;#P connect 6 1 13 0;#P connect 5 0 6 0;#P connect 2 0 18 3;#P connect 19 0 26 0;#P connect 18 0 19 0;#P connect 11 0 18 0;#P connect 9 0 18 1;#P connect 32 0 18 2;#P connect 16 0 17 0;#P connect 33 0 15 2;#P connect 14 0 15 3;#P connect 34 0 15 1;#P connect 4 0 15 0;#P connect 15 0 16 0;#P connect 20 0 22 0;#P connect 21 0 10 0;#P connect 22 1 21 1;#P connect 22 0 21 0;#P connect 38 0 24 0;#P connect 23 0 20 0;#P connect 24 0 23 0;#P connect 30 0 2 0;#P connect 31 0 30 0;#P connect 26 0 25 0;#P connect 36 0 37 0;#P connect 36 1 37 1;#P connect 14 0 36 0;#P connect 37 0 38 0;#P connect 13 0 12 0;#P connect 12 0 14 0;#P connect 17 0 29 0;#P connect 11 0 1 0;#P connect 2 0 0 0;#P connect 0 0 1 1;#P pop;#P newobj 725 214 69 1 patcher vfreq-env12;#N vpatcher 9 39 887 504;#P newex 684 446 80 1 s go-vamp12;#P newex 719 237 87 1 r vamp-decay12;#P newex 635 216 95 1 r vamp-sustain12;#P newex 398 414 63 1 s vamp12;#P newex 272 260 92 1 r vamp-sustain12;#P newex 219 232 75 1 r vamp-deb12;#P newex 731 396 50 1 + 10;#P button 771 432 32;#P newex 685 420 50 1 del 10;#P number 749 214 35 1;#P button 70 160;#P button 163 278;#P inlet 164 104 15;#P newex 164 177 50 1 t b b;#P message 98 212 41 1 stop;#P newex 96 188 50 1 r reset;#P number 634 263 35 1;#P button 588 117;#P button 588 239;#P newex 325 157 50 1 + 500;#P newex 324 128 96 1 random 3500;#P number 326 185 35 1;#P newex 163 309 173 1 pack 0 0 0 0;#P message 164 337 77 1 \$2 \, \$3 \$4;#P newex 164 365 50 1 line 0 10;#P newex 587 281 173 1 pack 0 0 0 0;#P message 588 309 77 1 \$2 \, \$3 \$4;#P number 439 185 35 1;#P newex 437 231 50 1 del;#P newex 437 208 50 1 t b i;#P newex 438 159 50 1 + 1;#P newex 437 130 87 1 random 6000;#P number 587 401 35 1;#P newex 587 376 50 1 line 0 10;#P message 765 362 41 1 stop;#P newex 763 338 50 1 r reset;#P number 164 402 35 1;#P newex 750 183 50 1 + 500;#P newex 750 158 112 1 random 3500;#P number 694 264 35 1;#P number 271 289 35 1;#P number 218 286 35 1;#P newex 588 139 50 1 t b b;#P newex 378 208 50 1 t b i;#P newex 378 231 50 1 del;#P button 378 257;#P connect 37 0 45 0;#P connect 44 0 6 0;#P connect 43 0 29 0;#P connect 13 0 42 0;#P connect 9 0 42 0;#P connect 41 0 5 0;#P connect 40 0 4 0;#P connect 39 0 37 1;#P connect 36 0 39 0;#P connect 27 0 37 0;#P connect 21 0 9 0;#P connect 26 0 24 0;#P connect 25 0 26 0;#P connect 1 0 0 0;#P connect 24 0 2 0;#P connect 2 1 1 1;#P connect 2 0 1 0;#P connect 12 0 13 0;#P connect 7 0 8 0;#P connect 8 0 36 0;#P connect 14 0 15 0;#P connect 15 0 18 0;#P connect 0 0 14 0;#P connect 16 0 17 0;#P connect 16 1 17 1;#P connect 17 0 28 0;#P connect 18 0 16 0;#P connect 23 0 22 0;#P connect 34 0 23 0;#P connect 4 0 23 1;#P connect 24 0 23 3;#P connect 5 0 23 2;#P connect 22 0 21 0;#P connect 6 0 20 2;#P connect 29 0 20 1;#P connect 27 0 20 0;#P connect 20 0 19 0;#P connect 19 0 12 0;#P connect 36 0 20 3;#P connect 33 0 32 0;#P connect 32 1 25 0;#P connect 32 0 34 0;#P connect 35 0 32 0;#P connect 28 0 3 0;#P connect 3 1 7 0;#P connect 3 0 27 0;#P connect 31 0 21 0;#P connect 30 0 31 0;#P connect 31 0 1 0;#P connect 31 0 17 0;#P connect 10 0 11 0;#P connect 11 0 12 0;#P pop;#P newobj 648 213 70 1 patcher vamp-env12;#N vpatcher 9 9 896 504;#P newex 684 446 80 1 s go-vfreq11;#P newex 719 237 99 1 r vfreq-decay11;#P newex 635 215 92 1 r vfreq-sustain11;#P newex 398 416 63 1 s vfreq11;#P newex 272 260 94 1 r vfreq-sustain11;#P newex 219 232 75 1 r vamp-freq11;#P newex 731 396 50 1 + 10;#P button 771 432 32;#P newex 685 420 50 1 del 10;#P number 749 214 35 1;#P button 70 160;#P button 163 278;#P inlet 164 104 15;#P newex 164 177 50 1 t b b;#P message 98 212 41 1 stop;#P newex 96 188 50 1 r reset;#P number 634 263 35 1;#P button 588 117;#P button 588 239;#P newex 325 157 50 1 + 500;#P newex 324 128 96 1 random 3500;#P number 326 185 35 1;#P newex 163 309 173 1 pack 0 0 0 0;#P message 164 337 77 1 \$2 \, \$3 \$4;#P newex 164 365 50 1 line 0 10;#P newex 587 281 173 1 pack 0 0 0 0;#P message 588 309 77 1 \$2 \, \$3 \$4;#P number 439 185 35 1;#P newex 437 231 50 1 del;#P newex 437 208 50 1 t b i;#P newex 438 159 50 1 + 1;#P newex 437 130 87 1 random 6000;#P number 587 401 35 1;#P newex 587 376 50 1 line 0 10;#P message 765 362 41 1 stop;#P newex 763 338 50 1 r reset;#P number 164 402 35 1;#P newex 750 183 50 1 + 500;#P newex 750 158 112 1 random 3500;#P number 694 264 35 1;#P number 271 289 35 1;#P number 218 286 35 1;#P newex 588 139 50 1 t b b;#P newex 378 208 50 1 t b i;#P newex 378 231 50 1 del;#P button 378 257;#P connect 37 0 45 0;#P connect 44 0 6 0;#P connect 43 0 29 0;#P connect 13 0 42 0;#P connect 9 0 42 0;#P connect 41 0 5 0;#P connect 40 0 4 0;#P connect 39 0 37 1;#P connect 36 0 39 0;#P connect 27 0 37 0;#P connect 21 0 9 0;#P connect 26 0 24 0;#P connect 25 0 26 0;#P connect 1 0 0 0;#P connect 24 0 2 0;#P connect 2 1 1 1;#P connect 2 0 1 0;#P connect 12 0 13 0;#P connect 7 0 8 0;#P connect 8 0 36 0;#P connect 14 0 15 0;#P connect 15 0 18 0;#P connect 0 0 14 0;#P connect 16 0 17 0;#P connect 16 1 17 1;#P connect 17 0 28 0;#P connect 18 0 16 0;#P connect 23 0 22 0;#P connect 34 0 23 0;#P connect 4 0 23 1;#P connect 24 0 23 3;#P connect 5 0 23 2;#P connect 22 0 21 0;#P connect 6 0 20 2;#P connect 29 0 20 1;#P connect 27 0 20 0;#P connect 20 0 19 0;#P connect 19 0 12 0;#P connect 36 0 20 3;#P connect 33 0 32 0;#P connect 32 1 25 0;#P connect 32 0 34 0;#P connect 35 0 32 0;#P connect 28 0 3 0;#P connect 3 1 7 0;#P connect 3 0 27 0;#P connect 31 0 21 0;#P connect 30 0 31 0;#P connect 31 0 1 0;#P connect 31 0 17 0;#P connect 10 0 11 0;#P connect 11 0 12 0;#P pop;#P newobj 525 213 69 1 patcher vfreq-env11;#N vpatcher 9 28 912 504;#P newex 677 439 80 1 s go-vamp11;#P newex 712 230 103 1 r vamp-decay11;#P newex 628 209 96 1 r vamp-sustain11;#P newex 391 409 66 1 s vamp11;#P newex 265 253 95 1 r vamp-sustain11;#P newex 212 225 75 1 r vamp-deb11;#P button 371 250;#P newex 371 224 50 1 del;#P newex 371 201 50 1 t b i;#P newex 581 132 50 1 t b b;#P number 211 279 35 1;#P number 264 282 35 1;#P number 687 257 35 1;#P newex 743 151 112 1 random 3500;#P newex 743 176 50 1 + 500;#P number 157 395 35 1;#P newex 756 331 50 1 r reset;#P message 758 355 41 1 stop;#P newex 580 369 50 1 line 0 10;#P number 580 394 35 1;#P newex 430 123 87 1 random 6000;#P newex 431 152 50 1 + 1;#P newex 430 201 50 1 t b i;#P newex 430 224 50 1 del;#P number 432 178 35 1;#P message 581 302 77 1 \$2 \, \$3 \$4;#P newex 580 274 173 1 pack 0 0 0 0;#P newex 157 358 50 1 line 0 10;#P message 157 330 77 1 \$2 \, \$3 \$4;#P newex 156 302 173 1 pack 0 0 0 0;#P number 319 178 35 1;#P newex 317 121 96 1 random 3500;#P newex 318 150 50 1 + 500;#P button 581 232;#P button 581 110;#P number 627 256 35 1;#P newex 89 181 50 1 r reset;#P message 91 205 41 1 stop;#P newex 157 170 50 1 t b b;#P inlet 157 97 15;#P button 156 271;#P button 63 153;#P number 742 207 35 1;#P newex 678 413 50 1 del 10;#P newex 724 389 50 1 + 10;#P connect 1 0 44 0;#P connect 43 0 32 0;#P connect 42 0 9 0;#P connect 25 0 41 0;#P connect 29 0 41 0;#P connect 40 0 33 0;#P connect 39 0 34 0;#P connect 27 0 26 0;#P connect 28 0 27 0;#P connect 7 0 21 0;#P connect 7 0 37 0;#P connect 8 0 7 0;#P connect 7 0 17 0;#P connect 35 0 11 0;#P connect 35 1 31 0;#P connect 10 0 35 0;#P connect 3 0 6 0;#P connect 6 0 4 0;#P connect 6 1 13 0;#P connect 5 0 6 0;#P connect 2 0 18 3;#P connect 19 0 26 0;#P connect 18 0 19 0;#P connect 11 0 18 0;#P connect 9 0 18 1;#P connect 32 0 18 2;#P connect 16 0 17 0;#P connect 33 0 15 2;#P connect 14 0 15 3;#P connect 34 0 15 1;#P connect 4 0 15 0;#P connect 15 0 16 0;#P connect 20 0 22 0;#P connect 21 0 10 0;#P connect 22 1 21 1;#P connect 22 0 21 0;#P connect 38 0 24 0;#P connect 23 0 20 0;#P connect 24 0 23 0;#P connect 30 0 2 0;#P connect 31 0 30 0;#P connect 26 0 25 0;#P connect 36 0 37 0;#P connect 36 1 37 1;#P connect 14 0 36 0;#P connect 37 0 38 0;#P connect 13 0 12 0;#P connect 12 0 14 0;#P connect 17 0 29 0;#P connect 11 0 1 0;#P connect 2 0 0 0;#P connect 0 0 1 1;#P pop;#P newobj 449 210 70 1 patcher vamp-env11;#P newex 738 349 87 1 s vfreq-decay12;#P newex 738 311 90 1 s vfreq-sustain12;#P newex 738 275 74 1 s vfreq-deb12;#P newex 649 349 87 1 s vamp-decay12;#P newex 649 311 90 1 s vamp-sustain12;#P newex 649 275 74 1 s vamp-deb12;#P newex 541 345 87 1 s vfreq-decay11;#P newex 541 307 90 1 s vfreq-sustain11;#P newex 541 271 74 1 s vfreq-deb11;#P newex 445 345 87 1 s vamp-decay11;#P newex 445 307 90 1 s vamp-sustain11;#P newex 445 271 74 1 s vamp-deb11;#P number 541 328 35 1;#P number 541 291 35 1;#P number 540 252 35 1;#P newex 332 345 87 1 s vfreq-decay10;#P newex 332 307 92 1 s vfreq-sustain10;#P newex 332 271 74 1 s vfreq-deb10;#P number 234 249 35 1;#P number 235 288 35 1;#P number 235 325 35 1;#P newex 235 268 74 1 s vamp-deb10;#P newex 235 304 92 1 s vamp-sustain10;#P newex 235 342 86 1 s vamp-decay10;#N vpatcher 9 30 887 504;#P newex 684 446 80 1 s go-vfreq10;#P newex 719 237 87 1 r vfreq-decay10;#P newex 635 216 89 1 r vfreq-sustain10;#P newex 398 416 62 1 s vfreq10;#P newex 272 260 95 1 r vfreq-sustain10;#P newex 219 232 75 1 r vamp-freq10;#P newex 731 396 50 1 + 10;#P newex 685 420 50 1 del 10;#P number 749 214 35 1;#P button 70 160;#P button 163 278;#P inlet 164 104 15;#P newex 164 177 50 1 t b b;#P message 98 212 41 1 stop;#P newex 96 188 50 1 r reset;#P number 634 263 35 1;#P button 588 117;#P button 588 239;#P newex 325 157 50 1 + 500;#P newex 324 128 96 1 random 3500;#P number 326 185 35 1;#P newex 163 309 173 1 pack 0 0 0 0;#P message 164 337 77 1 \$2 \, \$3 \$4;#P newex 164 365 50 1 line 0 10;#P newex 587 281 173 1 pack 0 0 0 0;#P message 588 309 77 1 \$2 \, \$3 \$4;#P number 439 185 35 1;#P newex 437 231 50 1 del;#P newex 437 208 50 1 t b i;#P newex 438 159 50 1 + 1;#P newex 437 130 87 1 random 6000;#P number 587 401 35 1;#P newex 587 376 50 1 line 0 10;#P message 765 362 41 1 stop;#P newex 763 338 50 1 r reset;#P number 164 402 35 1;#P newex 750 183 50 1 + 500;#P newex 750 158 112 1 random 3500;#P number 694 264 35 1;#P number 271 289 35 1;#P number 218 286 35 1;#P newex 588 139 50 1 t b b;#P newex 378 208 50 1 t b i;#P newex 378 231 50 1 del;#P button 378 257;#P connect 37 0 44 0;#P connect 43 0 6 0;#P connect 42 0 29 0;#P connect 13 0 41 0;#P connect 9 0 41 0;#P connect 40 0 5 0;#P connect 39 0 4 0;#P connect 38 0 37 1;#P connect 36 0 38 0;#P connect 27 0 37 0;#P connect 21 0 9 0;#P connect 26 0 24 0;#P connect 25 0 26 0;#P connect 1 0 0 0;#P connect 24 0 2 0;#P connect 2 1 1 1;#P connect 2 0 1 0;#P connect 12 0 13 0;#P connect 7 0 8 0;#P connect 8 0 36 0;#P connect 14 0 15 0;#P connect 15 0 18 0;#P connect 0 0 14 0;#P connect 16 0 17 0;#P connect 16 1 17 1;#P connect 17 0 28 0;#P connect 18 0 16 0;#P connect 23 0 22 0;#P connect 34 0 23 0;#P connect 4 0 23 1;#P connect 24 0 23 3;#P connect 5 0 23 2;#P connect 22 0 21 0;#P connect 6 0 20 2;#P connect 29 0 20 1;#P connect 27 0 20 0;#P connect 20 0 19 0;#P connect 19 0 12 0;#P connect 36 0 20 3;#P connect 33 0 32 0;#P connect 32 1 25 0;#P connect 32 0 34 0;#P connect 35 0 32 0;#P connect 28 0 3 0;#P connect 3 1 7 0;#P connect 3 0 27 0;#P connect 31 0 21 0;#P connect 30 0 31 0;#P connect 31 0 1 0;#P connect 31 0 17 0;#P connect 10 0 11 0;#P connect 11 0 12 0;#P pop;#P newobj 319 214 69 1 patcher vfreq-env10;#N vpatcher 9 11 907 504;#P newex 677 439 80 1 s go-vamp10;#P newex 712 230 87 1 r vamp-decay10;#P newex 628 209 96 1 r vamp-sustain10;#P newex 391 407 62 1 s vamp10;#P newex 265 253 97 1 r vamp-sustain10;#P newex 212 225 75 1 r vamp-deb10;#P button 371 250;#P newex 371 224 50 1 del;#P newex 371 201 50 1 t b i;#P newex 581 132 50 1 t b b;#P number 211 279 35 1;#P number 264 282 35 1;#P number 687 257 35 1;#P newex 743 151 112 1 random 3500;#P newex 743 176 50 1 + 500;#P number 157 395 35 1;#P newex 756 331 50 1 r reset;#P message 758 355 41 1 stop;#P newex 580 369 50 1 line 0 10;#P number 580 394 35 1;#P newex 430 123 87 1 random 6000;#P newex 431 152 50 1 + 1;#P newex 430 201 50 1 t b i;#P newex 430 224 50 1 del;#P number 432 178 35 1;#P message 581 302 77 1 \$2 \, \$3 \$4;#P newex 580 274 173 1 pack 0 0 0 0;#P newex 157 358 50 1 line 0 10;#P message 157 330 77 1 \$2 \, \$3 \$4;#P newex 156 302 173 1 pack 0 0 0 0;#P number 319 178 35 1;#P newex 317 121 96 1 random 3500;#P newex 318 150 50 1 + 500;#P button 581 232;#P button 581 110;#P number 627 256 35 1;#P newex 89 181 50 1 r reset;#P message 91 205 41 1 stop;#P newex 157 170 50 1 t b b;#P inlet 157 97 15;#P button 156 271;#P button 63 153;#P number 742 207 35 1;#P newex 678 413 50 1 del 10;#P button 764 425 32;#P newex 724 389 50 1 + 10;#P connect 2 0 45 0;#P connect 44 0 33 0;#P connect 43 0 10 0;#P connect 26 0 42 0;#P connect 30 0 42 0;#P connect 41 0 34 0;#P connect 40 0 35 0;#P connect 28 0 27 0;#P connect 29 0 28 0;#P connect 8 0 22 0;#P connect 8 0 38 0;#P connect 9 0 8 0;#P connect 8 0 18 0;#P connect 36 0 12 0;#P connect 36 1 32 0;#P connect 11 0 36 0;#P connect 4 0 7 0;#P connect 7 0 5 0;#P connect 7 1 14 0;#P connect 6 0 7 0;#P connect 3 0 19 3;#P connect 20 0 27 0;#P connect 19 0 20 0;#P connect 12 0 19 0;#P connect 10 0 19 1;#P connect 33 0 19 2;#P connect 17 0 18 0;#P connect 34 0 16 2;#P connect 15 0 16 3;#P connect 35 0 16 1;#P connect 5 0 16 0;#P connect 16 0 17 0;#P connect 21 0 23 0;#P connect 22 0 11 0;#P connect 23 1 22 1;#P connect 23 0 22 0;#P connect 39 0 25 0;#P connect 24 0 21 0;#P connect 25 0 24 0;#P connect 31 0 3 0;#P connect 32 0 31 0;#P connect 27 0 26 0;#P connect 37 0 38 0;#P connect 37 1 38 1;#P connect 15 0 37 0;#P connect 38 0 39 0;#P connect 14 0 13 0;#P connect 13 0 15 0;#P connect 18 0 30 0;#P connect 12 0 2 0;#P connect 3 0 0 0;#P connect 0 0 2 1;#P pop;#P newobj 242 213 72 1 patcher vamp-env10;#P newex 142 344 81 1 s vfreq-decay9;#P newex 142 306 85 1 s vfreq-sustain9;#P newex 142 270 74 1 s vfreq-deb9;#N vpatcher 9 16 897 504;#P newex 677 439 80 1 s go-vfreq9;#P newex 712 230 87 1 r vfreq-decay9;#P newex 628 209 83 1 r vfreq-sustain9;#P newex 391 409 50 1 s vfreq9;#P newex 265 253 85 1 r vfreq-sustain9;#P newex 212 225 75 1 r vamp-freq9;#P button 371 250;#P newex 371 224 50 1 del;#P newex 371 201 50 1 t b i;#P newex 581 132 50 1 t b b;#P number 211 279 35 1;#P number 264 282 35 1;#P number 687 257 35 1;#P newex 743 151 112 1 random 3500;#P newex 743 176 50 1 + 500;#P number 157 395 35 1;#P newex 756 331 50 1 r reset;#P message 758 355 41 1 stop;#P newex 580 369 50 1 line 0 10;#P number 580 394 35 1;#P newex 430 123 87 1 random 6000;#P newex 431 152 50 1 + 1;#P newex 430 201 50 1 t b i;#P newex 430 224 50 1 del;#P number 432 178 35 1;#P message 581 302 77 1 \$2 \, \$3 \$4;#P newex 580 274 173 1 pack 0 0 0 0;#P newex 157 358 50 1 line 0 10;#P message 157 330 77 1 \$2 \, \$3 \$4;#P newex 156 302 173 1 pack 0 0 0 0;#P number 319 178 35 1;#P newex 317 121 96 1 random 3500;#P newex 318 150 50 1 + 500;#P button 581 232;#P button 581 110;#P number 627 256 35 1;#P newex 89 181 50 1 r reset;#P message 91 205 41 1 stop;#P newex 157 170 50 1 t b b;#P inlet 157 97 15;#P button 156 271;#P button 63 153;#P number 742 207 35 1;#P newex 678 413 50 1 del 10;#P button 764 425 32;#P newex 724 389 50 1 + 10;#P connect 2 0 45 0;#P connect 44 0 33 0;#P connect 43 0 10 0;#P connect 26 0 42 0;#P connect 30 0 42 0;#P connect 41 0 34 0;#P connect 40 0 35 0;#P connect 28 0 27 0;#P connect 29 0 28 0;#P connect 8 0 22 0;#P connect 8 0 38 0;#P connect 9 0 8 0;#P connect 8 0 18 0;#P connect 36 0 12 0;#P connect 36 1 32 0;#P connect 11 0 36 0;#P connect 4 0 7 0;#P connect 7 0 5 0;#P connect 7 1 14 0;#P connect 6 0 7 0;#P connect 3 0 19 3;#P connect 20 0 27 0;#P connect 19 0 20 0;#P connect 12 0 19 0;#P connect 10 0 19 1;#P connect 33 0 19 2;#P connect 17 0 18 0;#P connect 34 0 16 2;#P connect 15 0 16 3;#P connect 35 0 16 1;#P connect 5 0 16 0;#P connect 16 0 17 0;#P connect 21 0 23 0;#P connect 22 0 11 0;#P connect 23 1 22 1;#P connect 23 0 22 0;#P connect 39 0 25 0;#P connect 24 0 21 0;#P connect 25 0 24 0;#P connect 31 0 3 0;#P connect 32 0 31 0;#P connect 27 0 26 0;#P connect 37 0 38 0;#P connect 37 1 38 1;#P connect 15 0 37 0;#P connect 38 0 39 0;#P connect 14 0 13 0;#P connect 13 0 15 0;#P connect 18 0 30 0;#P connect 12 0 2 0;#P connect 3 0 0 0;#P connect 0 0 2 1;#P pop;#P newobj 147 214 61 1 patcher vfreq-env9;#N vpatcher 9 60 880 504;#P newex 670 432 80 1 s go-vamp9;#P newex 705 223 87 1 r vamp-decay9;#P newex 621 202 83 1 r vamp-sustain9;#P newex 384 402 50 1 s vamp9;#P newex 258 246 85 1 r vamp-sustain9;#P newex 205 218 75 1 r vamp-deb9;#P newex 717 382 50 1 + 10;#P button 757 418 32;#P newex 671 406 50 1 del 10;#P number 735 200 35 1;#P button 56 146;#P button 149 264;#P inlet 150 90 15;#P newex 150 163 50 1 t b b;#P message 84 198 41 1 stop;#P newex 82 174 50 1 r reset;#P number 620 249 35 1;#P button 574 103;#P button 574 225;#P newex 311 143 50 1 + 500;#P newex 310 114 96 1 random 3500;#P number 312 171 35 1;#P newex 149 295 173 1 pack 0 0 0 0;#P message 150 323 77 1 \$2 \, \$3 \$4;#P newex 150 351 50 1 line 0 10;#P newex 573 267 173 1 pack 0 0 0 0;#P message 574 295 77 1 \$2 \, \$3 \$4;#P number 425 171 35 1;#P newex 423 217 50 1 del;#P newex 423 194 50 1 t b i;#P newex 424 145 50 1 + 1;#P newex 423 116 87 1 random 6000;#P number 573 387 35 1;#P newex 573 362 50 1 line 0 10;#P message 751 348 41 1 stop;#P newex 749 324 50 1 r reset;#P number 150 388 35 1;#P newex 736 169 50 1 + 500;#P newex 736 144 112 1 random 3500;#P number 680 250 35 1;#P number 257 275 35 1;#P number 204 272 35 1;#P newex 574 125 50 1 t b b;#P newex 364 194 50 1 t b i;#P newex 364 217 50 1 del;#P button 364 243;#P connect 37 0 45 0;#P connect 44 0 6 0;#P connect 43 0 29 0;#P connect 13 0 42 0;#P connect 9 0 42 0;#P connect 41 0 5 0;#P connect 40 0 4 0;#P connect 39 0 37 1;#P connect 36 0 39 0;#P connect 27 0 37 0;#P connect 21 0 9 0;#P connect 26 0 24 0;#P connect 25 0 26 0;#P connect 1 0 0 0;#P connect 24 0 2 0;#P connect 2 1 1 1;#P connect 2 0 1 0;#P connect 12 0 13 0;#P connect 7 0 8 0;#P connect 8 0 36 0;#P connect 14 0 15 0;#P connect 15 0 18 0;#P connect 0 0 14 0;#P connect 16 0 17 0;#P connect 16 1 17 1;#P connect 17 0 28 0;#P connect 18 0 16 0;#P connect 23 0 22 0;#P connect 34 0 23 0;#P connect 4 0 23 1;#P connect 24 0 23 3;#P connect 5 0 23 2;#P connect 22 0 21 0;#P connect 6 0 20 2;#P connect 29 0 20 1;#P connect 27 0 20 0;#P connect 20 0 19 0;#P connect 19 0 12 0;#P connect 36 0 20 3;#P connect 33 0 32 0;#P connect 32 1 25 0;#P connect 32 0 34 0;#P connect 35 0 32 0;#P connect 28 0 3 0;#P connect 3 1 7 0;#P connect 3 0 27 0;#P connect 31 0 21 0;#P connect 30 0 31 0;#P connect 31 0 1 0;#P connect 31 0 17 0;#P connect 10 0 11 0;#P connect 11 0 12 0;#P pop;#P newobj 70 212 62 1 patcher vamp-env9;#P newex 53 342 81 1 s vamp-decay9;#P newex 53 304 84 1 s vamp-sustain9;#P newex 53 268 74 1 s vamp-deb9;#P newex 735 126 68 1 r go-vfreq12;#P newex 725 105 76 1 r env-vfreq12;#P newex 657 125 69 1 r go-vamp12;#P newex 648 103 77 1 r env-vamp12;#P newex 535 125 68 1 r go-vfreq11;#P newex 525 104 76 1 r env-vfreq11;#P newex 458 122 69 1 r go-vamp11;#P newex 449 100 77 1 r env-vamp11;#P newex 329 123 72 1 r go-vfreq10;#P newex 319 102 80 1 r env-vfreq10;#P newex 251 125 73 1 r go-vamp10;#P newex 242 103 81 1 r env-vamp10;#P newex 157 123 63 1 r go-vfreq9;#P newex 147 102 71 1 r env-vfreq9;#P newex 79 124 64 1 r go-vamp9;#P newex 70 102 72 1 r env-vamp9;#P number 738 332 35 1;#P number 738 295 35 1;#P number 737 256 35 1;#P number 648 256 35 1;#P number 649 295 35 1;#P number 649 332 35 1;#P number 444 252 35 1;#P number 445 291 35 1;#P number 445 328 35 1;#P number 53 325 35 1;#P number 53 288 35 1;#P number 52 249 35 1;#P button 725 192;#P newex 725 168 50 1 gate;#P toggle 725 147;#P button 648 193;#P newex 648 167 50 1 gate;#P toggle 648 147;#P newex 525 167 50 1 gate;#P button 526 188;#P toggle 526 147;#P toggle 449 147;#P button 447 190;#P newex 449 164 50 1 gate;#P toggle 319 147;#P newex 319 168 50 1 gate;#P button 319 192;#P toggle 72 149;#P button 242 193;#P newex 242 167 50 1 gate;#P toggle 242 147;#P number 331 252 35 1;#P number 332 291 35 1;#P number 332 328 35 1;#P number 142 327 35 1;#P number 142 290 35 1;#P number 141 251 35 1;#P button 147 192;#P newex 147 168 50 1 gate;#P toggle 147 147;#P button 70 192;#P newex 70 166 50 1 gate;#P newex 47 70 50 1 r reset;#P message 46 130 21 1 0;#P connect 103 0 107 0;#P connect 103 0 106 0;#P connect 103 0 105 0;#P connect 103 0 104 0;#P connect 98 0 102 0;#P connect 98 0 101 0;#P connect 98 0 100 0;#P connect 98 0 99 0;#P connect 43 0 93 0;#P connect 42 0 92 0;#P connect 41 0 91 0;#P connect 38 0 90 0;#P connect 39 0 89 0;#P connect 40 0 88 0;#P connect 81 0 87 0;#P connect 80 0 86 0;#P connect 79 0 85 0;#P connect 35 0 84 0;#P connect 36 0 83 0;#P connect 37 0 82 0;#P connect 10 0 78 0;#P connect 11 0 77 0;#P connect 12 0 76 0;#P connect 73 0 70 0;#P connect 74 0 71 0;#P connect 75 0 72 0;#P connect 9 0 67 0;#P connect 8 0 66 0;#P connect 7 0 65 0;#P connect 34 0 62 0;#P connect 33 0 61 0;#P connect 32 0 60 0;#P connect 59 0 30 1;#P connect 58 0 29 0;#P connect 57 0 27 1;#P connect 56 0 26 0;#P connect 55 0 25 1;#P connect 54 0 23 0;#P connect 53 0 20 1;#P connect 52 0 22 0;#P connect 51 0 18 1;#P connect 50 0 19 0;#P connect 49 0 14 1;#P connect 48 0 13 0;#P connect 47 0 5 1;#P connect 46 0 4 0;#P connect 45 0 2 1;#P connect 44 0 16 0;#P connect 0 0 29 0;#P connect 0 0 26 0;#P connect 0 0 23 0;#P connect 0 0 22 0;#P connect 21 0 94 0;#P connect 22 0 20 0;#P connect 20 0 21 0;#P connect 25 0 24 0;#P connect 23 0 25 0;#P connect 24 0 95 0;#P connect 31 0 97 0;#P connect 29 0 30 0;#P connect 30 0 31 0;#P connect 27 0 28 0;#P connect 26 0 27 0;#P connect 28 0 96 0;#P connect 0 0 19 0;#P connect 0 0 13 0;#P connect 15 0 68 0;#P connect 13 0 14 0;#P connect 14 0 15 0;#P connect 18 0 17 0;#P connect 19 0 18 0;#P connect 17 0 69 0;#P connect 0 0 4 0;#P connect 6 0 64 0;#P connect 4 0 5 0;#P connect 5 0 6 0;#P connect 2 0 3 0;#P connect 16 0 2 0;#P connect 1 0 0 0;#P connect 0 0 16 0;#P connect 3 0 63 0;#P pop;#P newobj 230 54 86 1 patcher vib9-12;#N vpatcher 61 56 1083 571;#P newex 863 282 72 1 s env-vfreq8;#P newex 863 258 72 1 s env-vfreq7;#P newex 863 232 72 1 s env-vfreq6;#P newex 863 207 72 1 s env-vfreq5;#P newex 864 181 79 1 r env-vfreq5-8;#P newex 866 126 72 1 s env-vamp8;#P newex 866 101 72 1 s env-vamp7;#P newex 866 76 72 1 s env-vamp6;#P newex 866 51 72 1 s env-vamp5;#P newex 865 24 74 1 r env-amp5-8;#P newex 706 342 81 1 s vfreq-decay8;#P newex 706 304 85 1 s vfreq-sustain8;#P newex 706 268 74 1 s vfreq-deb8;#P newex 617 342 81 1 s vamp-decay8;#P newex 617 304 85 1 s vamp-sustain8;#P newex 617 268 74 1 s vamp-deb8;#P newex 513 340 81 1 s vfreq-decay7;#P newex 513 302 85 1 s vfreq-sustain7;#P newex 513 266 74 1 s vfreq-deb7;#P newex 425 338 81 1 s vamp-decay7;#P newex 425 300 85 1 s vamp-sustain7;#P newex 425 264 74 1 s vamp-deb7;#P newex 325 338 81 1 s vfreq-decay6;#P newex 325 300 85 1 s vfreq-sustain6;#P newex 325 264 74 1 s vfreq-deb6;#P newex 236 337 81 1 s vamp-decay6;#P newex 236 299 85 1 s vamp-sustain6;#P newex 236 263 74 1 s vamp-deb6;#P newex 135 337 81 1 s vfreq-decay5;#P newex 135 299 85 1 s vfreq-sustain5;#P newex 46 335 81 1 s vamp-decay5;#P newex 46 297 84 1 s vamp-sustain5;#P newex 135 263 74 1 s vfreq-deb5;#P newex 46 261 74 1 s vamp-deb5;#N vpatcher 9 28 884 504;#P newex 691 453 80 1 s go-vfreq8;#P newex 684 446 80 1 s go-vfreq8;#P newex 719 237 87 1 r vfreq-decay8;#P newex 633 212 100 1 r vfreq-sustain8;#P newex 398 416 64 1 s vfreq8;#P newex 272 260 101 1 r vfreq-sustain8;#P newex 219 232 83 1 r vamp-freq8;#P newex 731 396 50 1 + 10;#P newex 685 420 50 1 del 10;#P number 749 214 35 1;#P button 70 160;#P button 163 278;#P inlet 164 104 15;#P newex 164 177 50 1 t b b;#P message 98 212 41 1 stop;#P newex 96 188 50 1 r reset;#P number 634 263 35 1;#P button 588 117;#P button 588 239;#P newex 325 157 50 1 + 500;#P newex 324 128 96 1 random 3500;#P number 326 185 35 1;#P newex 163 309 173 1 pack 0 0 0 0;#P message 164 337 77 1 \$2 \, \$3 \$4;#P newex 164 365 50 1 line 0 10;#P newex 587 281 173 1 pack 0 0 0 0;#P message 588 309 77 1 \$2 \, \$3 \$4;#P number 439 185 35 1;#P newex 437 231 50 1 del;#P newex 437 208 50 1 t b i;#P newex 438 159 50 1 + 1;#P newex 437 130 87 1 random 6000;#P number 587 401 35 1;#P newex 587 376 50 1 line 0 10;#P message 765 362 41 1 stop;#P newex 763 338 50 1 r reset;#P number 164 402 35 1;#P newex 750 183 50 1 + 500;#P newex 750 158 112 1 random 3500;#P number 694 264 35 1;#P number 271 289 35 1;#P number 218 286 35 1;#P newex 588 139 50 1 t b b;#P newex 378 208 50 1 t b i;#P newex 378 231 50 1 del;#P button 378 257;#P connect 37 0 44 0;#P connect 43 0 6 0;#P connect 42 0 29 0;#P connect 9 0 41 0;#P connect 13 0 41 0;#P connect 40 0 5 0;#P connect 39 0 4 0;#P connect 38 0 37 1;#P connect 36 0 38 0;#P connect 27 0 37 0;#P connect 21 0 9 0;#P connect 26 0 24 0;#P connect 25 0 26 0;#P connect 1 0 0 0;#P connect 24 0 2 0;#P connect 2 1 1 1;#P connect 2 0 1 0;#P connect 12 0 13 0;#P connect 7 0 8 0;#P connect 8 0 36 0;#P connect 14 0 15 0;#P connect 15 0 18 0;#P connect 0 0 14 0;#P connect 16 0 17 0;#P connect 16 1 17 1;#P connect 17 0 28 0;#P connect 18 0 16 0;#P connect 23 0 22 0;#P connect 34 0 23 0;#P connect 4 0 23 1;#P connect 24 0 23 3;#P connect 5 0 23 2;#P connect 22 0 21 0;#P connect 6 0 20 2;#P connect 29 0 20 1;#P connect 27 0 20 0;#P connect 20 0 19 0;#P connect 19 0 12 0;#P connect 36 0 20 3;#P connect 33 0 32 0;#P connect 32 1 25 0;#P connect 32 0 34 0;#P connect 35 0 32 0;#P connect 28 0 3 0;#P connect 3 1 7 0;#P connect 3 0 27 0;#P connect 31 0 21 0;#P connect 30 0 31 0;#P connect 31 0 1 0;#P connect 31 0 17 0;#P connect 10 0 11 0;#P connect 11 0 12 0;#P pop;#P newobj 693 207 61 1 patcher vfreq-env8;#N vpatcher 9 39 887 504;#P newex 677 439 80 1 s go-vamp8;#P newex 712 230 87 1 r vamp-decay8;#P newex 628 209 95 1 r vamp-sustain8;#P newex 391 407 63 1 s vamp8;#P newex 265 253 92 1 r vamp-sustain8;#P newex 212 225 75 1 r vamp-deb8;#P button 371 250;#P newex 371 224 50 1 del;#P newex 371 201 50 1 t b i;#P newex 581 132 50 1 t b b;#P number 211 279 35 1;#P number 264 282 35 1;#P number 687 257 35 1;#P newex 743 151 112 1 random 3500;#P newex 743 176 50 1 + 500;#P number 157 395 35 1;#P newex 756 331 50 1 r reset;#P message 758 355 41 1 stop;#P newex 580 369 50 1 line 0 10;#P number 580 394 35 1;#P newex 430 123 87 1 random 6000;#P newex 431 152 50 1 + 1;#P newex 430 201 50 1 t b i;#P newex 430 224 50 1 del;#P number 432 178 35 1;#P message 581 302 77 1 \$2 \, \$3 \$4;#P newex 580 274 173 1 pack 0 0 0 0;#P newex 157 358 50 1 line 0 10;#P message 157 330 77 1 \$2 \, \$3 \$4;#P newex 156 302 173 1 pack 0 0 0 0;#P number 319 178 35 1;#P newex 317 121 96 1 random 3500;#P newex 318 150 50 1 + 500;#P button 581 232;#P button 581 110;#P number 627 256 35 1;#P newex 89 181 50 1 r reset;#P message 91 205 41 1 stop;#P newex 157 170 50 1 t b b;#P inlet 157 97 15;#P button 156 271;#P button 63 153;#P number 742 207 35 1;#P newex 678 413 50 1 del 10;#P button 764 425 32;#P newex 724 389 50 1 + 10;#P connect 2 0 45 0;#P connect 44 0 33 0;#P connect 43 0 10 0;#P connect 26 0 42 0;#P connect 30 0 42 0;#P connect 41 0 34 0;#P connect 40 0 35 0;#P connect 28 0 27 0;#P connect 29 0 28 0;#P connect 8 0 22 0;#P connect 8 0 38 0;#P connect 9 0 8 0;#P connect 8 0 18 0;#P connect 36 0 12 0;#P connect 36 1 32 0;#P connect 11 0 36 0;#P connect 4 0 7 0;#P connect 7 0 5 0;#P connect 7 1 14 0;#P connect 6 0 7 0;#P connect 3 0 19 3;#P connect 20 0 27 0;#P connect 19 0 20 0;#P connect 12 0 19 0;#P connect 10 0 19 1;#P connect 33 0 19 2;#P connect 17 0 18 0;#P connect 34 0 16 2;#P connect 15 0 16 3;#P connect 35 0 16 1;#P connect 5 0 16 0;#P connect 16 0 17 0;#P connect 21 0 23 0;#P connect 22 0 11 0;#P connect 23 1 22 1;#P connect 23 0 22 0;#P connect 39 0 25 0;#P connect 24 0 21 0;#P connect 25 0 24 0;#P connect 31 0 3 0;#P connect 32 0 31 0;#P connect 27 0 26 0;#P connect 37 0 38 0;#P connect 37 1 38 1;#P connect 15 0 37 0;#P connect 38 0 39 0;#P connect 14 0 13 0;#P connect 13 0 15 0;#P connect 18 0 30 0;#P connect 12 0 2 0;#P connect 3 0 0 0;#P connect 0 0 2 1;#P pop;#P newobj 616 206 62 1 patcher vamp-env8;#N vpatcher 9 9 896 504;#P newex 677 439 80 1 s go-vfreq7;#P newex 712 230 99 1 r vfreq-decay7;#P newex 628 208 92 1 r vfreq-sustain7;#P newex 391 409 63 1 s vfreq7;#P newex 265 253 94 1 r vfreq-sustain7;#P newex 212 225 75 1 r vamp-freq7;#P button 371 250;#P newex 371 224 50 1 del;#P newex 371 201 50 1 t b i;#P newex 581 132 50 1 t b b;#P number 211 279 35 1;#P number 264 282 35 1;#P number 687 257 35 1;#P newex 743 151 112 1 random 3500;#P newex 743 176 50 1 + 500;#P number 157 395 35 1;#P newex 756 331 50 1 r reset;#P message 758 355 41 1 stop;#P newex 580 369 50 1 line 0 10;#P number 580 394 35 1;#P newex 430 123 87 1 random 6000;#P newex 431 152 50 1 + 1;#P newex 430 201 50 1 t b i;#P newex 430 224 50 1 del;#P number 432 178 35 1;#P message 581 302 77 1 \$2 \, \$3 \$4;#P newex 580 274 173 1 pack 0 0 0 0;#P newex 157 358 50 1 line 0 10;#P message 157 330 77 1 \$2 \, \$3 \$4;#P newex 156 302 173 1 pack 0 0 0 0;#P number 319 178 35 1;#P newex 317 121 96 1 random 3500;#P newex 318 150 50 1 + 500;#P button 581 232;#P button 581 110;#P number 627 256 35 1;#P newex 89 181 50 1 r reset;#P message 91 205 41 1 stop;#P newex 157 170 50 1 t b b;#P inlet 157 97 15;#P button 156 271;#P button 63 153;#P number 742 207 35 1;#P newex 678 413 50 1 del 10;#P button 764 425 32;#P newex 724 389 50 1 + 10;#P connect 2 0 45 0;#P connect 44 0 33 0;#P connect 43 0 10 0;#P connect 26 0 42 0;#P connect 30 0 42 0;#P connect 41 0 34 0;#P connect 40 0 35 0;#P connect 28 0 27 0;#P connect 29 0 28 0;#P connect 8 0 22 0;#P connect 8 0 38 0;#P connect 9 0 8 0;#P connect 8 0 18 0;#P connect 36 0 12 0;#P connect 36 1 32 0;#P connect 11 0 36 0;#P connect 4 0 7 0;#P connect 7 0 5 0;#P connect 7 1 14 0;#P connect 6 0 7 0;#P connect 3 0 19 3;#P connect 20 0 27 0;#P connect 19 0 20 0;#P connect 12 0 19 0;#P connect 10 0 19 1;#P connect 33 0 19 2;#P connect 17 0 18 0;#P connect 34 0 16 2;#P connect 15 0 16 3;#P connect 35 0 16 1;#P connect 5 0 16 0;#P connect 16 0 17 0;#P connect 21 0 23 0;#P connect 22 0 11 0;#P connect 23 1 22 1;#P connect 23 0 22 0;#P connect 39 0 25 0;#P connect 24 0 21 0;#P connect 25 0 24 0;#P connect 31 0 3 0;#P connect 32 0 31 0;#P connect 27 0 26 0;#P connect 37 0 38 0;#P connect 37 1 38 1;#P connect 15 0 37 0;#P connect 38 0 39 0;#P connect 14 0 13 0;#P connect 13 0 15 0;#P connect 18 0 30 0;#P connect 12 0 2 0;#P connect 3 0 0 0;#P connect 0 0 2 1;#P pop;#P newobj 505 206 61 1 patcher vfreq-env7;#N vpatcher 9 60 880 504;#P newex 670 432 80 1 s go-vamp7;#P newex 705 223 103 1 r vamp-decay7;#P newex 621 202 96 1 r vamp-sustain7;#P newex 384 402 66 1 s vamp7;#P newex 258 246 95 1 r vamp-sustain7;#P newex 205 218 75 1 r vamp-deb7;#P newex 717 382 50 1 + 10;#P newex 671 406 50 1 del 10;#P number 735 200 35 1;#P button 56 146;#P button 149 264;#P inlet 150 90 15;#P newex 150 163 50 1 t b b;#P message 84 198 41 1 stop;#P newex 82 174 50 1 r reset;#P number 620 249 35 1;#P button 574 103;#P button 574 225;#P newex 311 143 50 1 + 500;#P newex 310 114 96 1 random 3500;#P number 312 171 35 1;#P newex 149 295 173 1 pack 0 0 0 0;#P message 150 323 77 1 \$2 \, \$3 \$4;#P newex 150 351 50 1 line 0 10;#P newex 573 267 173 1 pack 0 0 0 0;#P message 574 295 77 1 \$2 \, \$3 \$4;#P number 425 171 35 1;#P newex 423 217 50 1 del;#P newex 423 194 50 1 t b i;#P newex 424 145 50 1 + 1;#P newex 423 116 87 1 random 6000;#P number 573 387 35 1;#P newex 573 362 50 1 line 0 10;#P message 751 348 41 1 stop;#P newex 749 324 50 1 r reset;#P number 150 388 35 1;#P newex 736 169 50 1 + 500;#P newex 736 144 112 1 random 3500;#P number 680 250 35 1;#P number 257 275 35 1;#P number 204 272 35 1;#P newex 574 125 50 1 t b b;#P newex 364 194 50 1 t b i;#P newex 364 217 50 1 del;#P button 364 243;#P connect 37 0 44 0;#P connect 43 0 6 0;#P connect 42 0 29 0;#P connect 13 0 41 0;#P connect 9 0 41 0;#P connect 40 0 5 0;#P connect 39 0 4 0;#P connect 38 0 37 1;#P connect 36 0 38 0;#P connect 27 0 37 0;#P connect 21 0 9 0;#P connect 26 0 24 0;#P connect 25 0 26 0;#P connect 1 0 0 0;#P connect 24 0 2 0;#P connect 2 1 1 1;#P connect 2 0 1 0;#P connect 12 0 13 0;#P connect 7 0 8 0;#P connect 8 0 36 0;#P connect 14 0 15 0;#P connect 15 0 18 0;#P connect 0 0 14 0;#P connect 16 0 17 0;#P connect 16 1 17 1;#P connect 17 0 28 0;#P connect 18 0 16 0;#P connect 23 0 22 0;#P connect 34 0 23 0;#P connect 4 0 23 1;#P connect 24 0 23 3;#P connect 5 0 23 2;#P connect 22 0 21 0;#P connect 6 0 20 2;#P connect 29 0 20 1;#P connect 27 0 20 0;#P connect 20 0 19 0;#P connect 19 0 12 0;#P connect 36 0 20 3;#P connect 33 0 32 0;#P connect 32 1 25 0;#P connect 32 0 34 0;#P connect 35 0 32 0;#P connect 28 0 3 0;#P connect 3 1 7 0;#P connect 3 0 27 0;#P connect 31 0 21 0;#P connect 30 0 31 0;#P connect 31 0 1 0;#P connect 31 0 17 0;#P connect 10 0 11 0;#P connect 11 0 12 0;#P pop;#P newobj 429 203 62 1 patcher vamp-env7;#N vpatcher 9 30 887 504;#P newex 677 439 80 1 s go-vfreq6;#P newex 712 230 87 1 r vfreq-decay6;#P newex 628 209 83 1 r vfreq-sustain6;#P newex 391 409 50 1 s vfreq6;#P newex 265 253 85 1 r vfreq-sustain6;#P newex 212 225 75 1 r vamp-freq6;#P button 371 250;#P newex 371 224 50 1 del;#P newex 371 201 50 1 t b i;#P newex 581 132 50 1 t b b;#P number 211 279 35 1;#P number 264 282 35 1;#P number 687 257 35 1;#P newex 743 151 112 1 random 3500;#P newex 743 176 50 1 + 500;#P number 157 395 35 1;#P newex 756 331 50 1 r reset;#P message 758 355 41 1 stop;#P newex 580 369 50 1 line 0 10;#P number 580 394 35 1;#P newex 430 123 87 1 random 6000;#P newex 431 152 50 1 + 1;#P newex 430 201 50 1 t b i;#P newex 430 224 50 1 del;#P number 432 178 35 1;#P message 581 302 77 1 \$2 \, \$3 \$4;#P newex 580 274 173 1 pack 0 0 0 0;#P newex 157 358 50 1 line 0 10;#P message 157 330 77 1 \$2 \, \$3 \$4;#P newex 156 302 173 1 pack 0 0 0 0;#P number 319 178 35 1;#P newex 317 121 96 1 random 3500;#P newex 318 150 50 1 + 500;#P button 581 232;#P button 581 110;#P number 627 256 35 1;#P newex 89 181 50 1 r reset;#P message 91 205 41 1 stop;#P newex 157 170 50 1 t b b;#P inlet 157 97 15;#P button 156 271;#P button 63 153;#P number 742 207 35 1;#P newex 678 413 50 1 del 10;#P newex 724 389 50 1 + 10;#P connect 1 0 44 0;#P connect 43 0 32 0;#P connect 42 0 9 0;#P connect 25 0 41 0;#P connect 29 0 41 0;#P connect 40 0 33 0;#P connect 39 0 34 0;#P connect 27 0 26 0;#P connect 28 0 27 0;#P connect 7 0 21 0;#P connect 7 0 37 0;#P connect 8 0 7 0;#P connect 7 0 17 0;#P connect 35 0 11 0;#P connect 35 1 31 0;#P connect 10 0 35 0;#P connect 3 0 6 0;#P connect 6 0 4 0;#P connect 6 1 13 0;#P connect 5 0 6 0;#P connect 2 0 18 3;#P connect 19 0 26 0;#P connect 18 0 19 0;#P connect 11 0 18 0;#P connect 9 0 18 1;#P connect 32 0 18 2;#P connect 16 0 17 0;#P connect 33 0 15 2;#P connect 14 0 15 3;#P connect 34 0 15 1;#P connect 4 0 15 0;#P connect 15 0 16 0;#P connect 20 0 22 0;#P connect 21 0 10 0;#P connect 22 1 21 1;#P connect 22 0 21 0;#P connect 38 0 24 0;#P connect 23 0 20 0;#P connect 24 0 23 0;#P connect 30 0 2 0;#P connect 31 0 30 0;#P connect 26 0 25 0;#P connect 36 0 37 0;#P connect 36 1 37 1;#P connect 14 0 36 0;#P connect 37 0 38 0;#P connect 13 0 12 0;#P connect 12 0 14 0;#P connect 17 0 29 0;#P connect 11 0 1 0;#P connect 2 0 0 0;#P connect 0 0 1 1;#P pop;#P newobj 312 207 61 1 patcher vfreq-env6;#N vpatcher 9 60 880 504;#P newex 670 432 80 1 s go-vamp6;#P newex 705 223 87 1 r vamp-decay6;#P newex 621 202 96 1 r vamp-sustain6;#P newex 384 400 62 1 s vamp6;#P newex 258 246 97 1 r vamp-sustain6;#P newex 205 218 75 1 r vamp-deb6;#P newex 717 382 50 1 + 10;#P button 757 418 32;#P newex 671 406 50 1 del 10;#P number 735 200 35 1;#P button 56 146;#P button 149 264;#P inlet 150 90 15;#P newex 150 163 50 1 t b b;#P message 84 198 41 1 stop;#P newex 82 174 50 1 r reset;#P number 620 249 35 1;#P button 574 103;#P button 574 225;#P newex 311 143 50 1 + 500;#P newex 310 114 96 1 random 3500;#P number 312 171 35 1;#P newex 149 295 173 1 pack 0 0 0 0;#P message 150 323 77 1 \$2 \, \$3 \$4;#P newex 150 351 50 1 line 0 10;#P newex 573 267 173 1 pack 0 0 0 0;#P message 574 295 77 1 \$2 \, \$3 \$4;#P number 425 171 35 1;#P newex 423 217 50 1 del;#P newex 423 194 50 1 t b i;#P newex 424 145 50 1 + 1;#P newex 423 116 87 1 random 6000;#P number 573 387 35 1;#P newex 573 362 50 1 line 0 10;#P message 751 348 41 1 stop;#P newex 749 324 50 1 r reset;#P number 150 388 35 1;#P newex 736 169 50 1 + 500;#P newex 736 144 112 1 random 3500;#P number 680 250 35 1;#P number 257 275 35 1;#P number 204 272 35 1;#P newex 574 125 50 1 t b b;#P newex 364 194 50 1 t b i;#P newex 364 217 50 1 del;#P button 364 243;#P connect 37 0 45 0;#P connect 44 0 6 0;#P connect 43 0 29 0;#P connect 13 0 42 0;#P connect 9 0 42 0;#P connect 41 0 5 0;#P connect 40 0 4 0;#P connect 39 0 37 1;#P connect 36 0 39 0;#P connect 27 0 37 0;#P connect 21 0 9 0;#P connect 26 0 24 0;#P connect 25 0 26 0;#P connect 1 0 0 0;#P connect 24 0 2 0;#P connect 2 1 1 1;#P connect 2 0 1 0;#P connect 12 0 13 0;#P connect 7 0 8 0;#P connect 8 0 36 0;#P connect 14 0 15 0;#P connect 15 0 18 0;#P connect 0 0 14 0;#P connect 16 0 17 0;#P connect 16 1 17 1;#P connect 17 0 28 0;#P connect 18 0 16 0;#P connect 23 0 22 0;#P connect 34 0 23 0;#P connect 4 0 23 1;#P connect 24 0 23 3;#P connect 5 0 23 2;#P connect 22 0 21 0;#P connect 6 0 20 2;#P connect 29 0 20 1;#P connect 27 0 20 0;#P connect 20 0 19 0;#P connect 19 0 12 0;#P connect 36 0 20 3;#P connect 33 0 32 0;#P connect 32 1 25 0;#P connect 32 0 34 0;#P connect 35 0 32 0;#P connect 28 0 3 0;#P connect 3 1 7 0;#P connect 3 0 27 0;#P connect 31 0 21 0;#P connect 30 0 31 0;#P connect 31 0 1 0;#P connect 31 0 17 0;#P connect 10 0 11 0;#P connect 11 0 12 0;#P pop;#P newobj 235 206 62 1 patcher vamp-env6;#N vpatcher 9 60 880 504;#P newex 670 432 80 1 s go-vfreq5;#P newex 705 223 87 1 r vfreq-decay5;#P newex 621 202 83 1 r vfreq-sustain5;#P newex 384 402 50 1 s vfreq5;#P newex 258 246 85 1 r vfreq-sustain5;#P newex 205 218 75 1 r vamp-freq5;#P newex 717 382 50 1 + 10;#P button 757 418 32;#P newex 671 406 50 1 del 10;#P number 735 200 35 1;#P button 56 146;#P button 149 264;#P inlet 150 90 15;#P newex 150 163 50 1 t b b;#P message 84 198 41 1 stop;#P newex 82 174 50 1 r reset;#P number 620 249 35 1;#P button 574 103;#P button 574 225;#P newex 311 143 50 1 + 500;#P newex 310 114 96 1 random 3500;#P number 312 171 35 1;#P newex 149 295 173 1 pack 0 0 0 0;#P message 150 323 77 1 \$2 \, \$3 \$4;#P newex 150 351 50 1 line 0 10;#P newex 573 267 173 1 pack 0 0 0 0;#P message 574 295 77 1 \$2 \, \$3 \$4;#P number 425 171 35 1;#P newex 423 217 50 1 del;#P newex 423 194 50 1 t b i;#P newex 424 145 50 1 + 1;#P newex 423 116 87 1 random 6000;#P number 573 387 35 1;#P newex 573 362 50 1 line 0 10;#P message 751 348 41 1 stop;#P newex 749 324 50 1 r reset;#P number 150 388 35 1;#P newex 736 169 50 1 + 500;#P newex 736 144 112 1 random 3500;#P number 680 250 35 1;#P number 257 275 35 1;#P number 204 272 35 1;#P newex 574 125 50 1 t b b;#P newex 364 194 50 1 t b i;#P newex 364 217 50 1 del;#P button 364 243;#P connect 37 0 45 0;#P connect 44 0 6 0;#P connect 43 0 29 0;#P connect 13 0 42 0;#P connect 9 0 42 0;#P connect 41 0 5 0;#P connect 40 0 4 0;#P connect 39 0 37 1;#P connect 36 0 39 0;#P connect 27 0 37 0;#P connect 21 0 9 0;#P connect 26 0 24 0;#P connect 25 0 26 0;#P connect 1 0 0 0;#P connect 24 0 2 0;#P connect 2 1 1 1;#P connect 2 0 1 0;#P connect 12 0 13 0;#P connect 7 0 8 0;#P connect 8 0 36 0;#P connect 14 0 15 0;#P connect 15 0 18 0;#P connect 0 0 14 0;#P connect 16 0 17 0;#P connect 16 1 17 1;#P connect 17 0 28 0;#P connect 18 0 16 0;#P connect 23 0 22 0;#P connect 34 0 23 0;#P connect 4 0 23 1;#P connect 24 0 23 3;#P connect 5 0 23 2;#P connect 22 0 21 0;#P connect 6 0 20 2;#P connect 29 0 20 1;#P connect 27 0 20 0;#P connect 20 0 19 0;#P connect 19 0 12 0;#P connect 36 0 20 3;#P connect 33 0 32 0;#P connect 32 1 25 0;#P connect 32 0 34 0;#P connect 35 0 32 0;#P connect 28 0 3 0;#P connect 3 1 7 0;#P connect 3 0 27 0;#P connect 31 0 21 0;#P connect 30 0 31 0;#P connect 31 0 1 0;#P connect 31 0 17 0;#P connect 10 0 11 0;#P connect 11 0 12 0;#P pop;#P newobj 140 207 61 1 patcher vfreq-env5;#N vpatcher 9 60 880 504;#P newex 663 425 80 1 s go-vamp5;#P newex 698 216 87 1 r vamp-decay5;#P newex 614 195 83 1 r vamp-sustain5;#P newex 377 395 50 1 s vamp5;#P newex 251 239 85 1 r vamp-sustain5;#P newex 198 211 75 1 r vamp-deb5;#P button 357 236;#P newex 357 210 50 1 del;#P newex 357 187 50 1 t b i;#P newex 567 118 50 1 t b b;#P number 197 265 35 1;#P number 250 268 35 1;#P number 673 243 35 1;#P newex 729 137 112 1 random 3500;#P newex 729 162 50 1 + 500;#P number 143 381 35 1;#P newex 742 317 50 1 r reset;#P message 744 341 41 1 stop;#P newex 566 355 50 1 line 0 10;#P number 566 380 35 1;#P newex 416 109 87 1 random 6000;#P newex 417 138 50 1 + 1;#P newex 416 187 50 1 t b i;#P newex 416 210 50 1 del;#P number 418 164 35 1;#P message 567 288 77 1 \$2 \, \$3 \$4;#P newex 566 260 173 1 pack 0 0 0 0;#P newex 143 344 50 1 line 0 10;#P message 143 316 77 1 \$2 \, \$3 \$4;#P newex 142 288 173 1 pack 0 0 0 0;#P number 305 164 35 1;#P newex 303 107 96 1 random 3500;#P newex 304 136 50 1 + 500;#P button 567 218;#P button 567 96;#P number 613 242 35 1;#P newex 75 167 50 1 r reset;#P message 77 191 41 1 stop;#P newex 143 156 50 1 t b b;#P inlet 143 83 15;#P button 142 257;#P button 49 139;#P number 728 193 35 1;#P newex 664 399 50 1 del 10;#P button 750 411 32;#P newex 710 375 50 1 + 10;#P connect 2 0 45 0;#P connect 44 0 33 0;#P connect 43 0 10 0;#P connect 26 0 42 0;#P connect 30 0 42 0;#P connect 41 0 34 0;#P connect 40 0 35 0;#P connect 28 0 27 0;#P connect 29 0 28 0;#P connect 8 0 22 0;#P connect 8 0 38 0;#P connect 9 0 8 0;#P connect 8 0 18 0;#P connect 36 0 12 0;#P connect 36 1 32 0;#P connect 11 0 36 0;#P connect 4 0 7 0;#P connect 7 0 5 0;#P connect 7 1 14 0;#P connect 6 0 7 0;#P connect 3 0 19 3;#P connect 20 0 27 0;#P connect 19 0 20 0;#P connect 12 0 19 0;#P connect 10 0 19 1;#P connect 33 0 19 2;#P connect 17 0 18 0;#P connect 34 0 16 2;#P connect 15 0 16 3;#P connect 35 0 16 1;#P connect 5 0 16 0;#P connect 16 0 17 0;#P connect 21 0 23 0;#P connect 22 0 11 0;#P connect 23 1 22 1;#P connect 23 0 22 0;#P connect 39 0 25 0;#P connect 24 0 21 0;#P connect 25 0 24 0;#P connect 31 0 3 0;#P connect 32 0 31 0;#P connect 27 0 26 0;#P connect 37 0 38 0;#P connect 37 1 38 1;#P connect 15 0 37 0;#P connect 38 0 39 0;#P connect 14 0 13 0;#P connect 13 0 15 0;#P connect 18 0 30 0;#P connect 12 0 2 0;#P connect 3 0 0 0;#P connect 0 0 2 1;#P pop;#P newobj 63 205 62 1 patcher vamp-env5;#P newex 703 119 63 1 r go-vfreq8;#P newex 693 98 71 1 r env-vfreq8;#P newex 625 118 64 1 r go-vamp8;#P newex 616 96 72 1 r env-vamp8;#P newex 515 118 63 1 r go-vfreq7;#P newex 505 97 71 1 r env-vfreq7;#P newex 438 115 64 1 r go-vamp7;#P newex 429 93 72 1 r env-vamp7;#P newex 322 116 63 1 r go-vfreq6;#P newex 312 95 71 1 r env-vfreq6;#P newex 244 118 64 1 r go-vamp6;#P newex 235 96 72 1 r env-vamp6;#P newex 150 116 63 1 r go-vfreq5;#P newex 140 95 71 1 r env-vfreq5;#P newex 72 117 64 1 r go-vamp5;#P newex 63 95 72 1 r env-vamp5;#P message 39 123 21 1 0;#P newex 40 63 50 1 r reset;#P newex 63 159 50 1 gate;#P button 63 185;#P toggle 140 140;#P newex 140 161 50 1 gate;#P button 140 185;#P number 134 244 35 1;#P number 135 283 35 1;#P number 135 320 35 1;#P number 235 244 35 1;#P number 236 283 35 1;#P number 236 320 35 1;#P number 325 321 35 1;#P number 325 284 35 1;#P number 324 245 35 1;#P toggle 235 140;#P newex 235 160 50 1 gate;#P button 235 186;#P toggle 65 142;#P button 312 185;#P newex 312 161 50 1 gate;#P toggle 312 140;#P newex 429 157 50 1 gate;#P button 427 183;#P toggle 429 140;#P toggle 506 140;#P button 506 181;#P newex 505 160 50 1 gate;#P toggle 616 140;#P newex 616 160 50 1 gate;#P button 616 186;#P toggle 693 140;#P newex 693 161 50 1 gate;#P button 693 185;#P number 45 242 35 1;#P number 46 281 35 1;#P number 46 318 35 1;#P number 425 321 35 1;#P number 425 284 35 1;#P number 424 245 35 1;#P number 513 323 35 1;#P number 513 286 35 1;#P number 512 247 35 1;#P number 617 325 35 1;#P number 617 288 35 1;#P number 616 249 35 1;#P number 705 249 35 1;#P number 706 288 35 1;#P number 706 325 35 1;#P connect 103 0 107 0;#P connect 103 0 106 0;#P connect 103 0 105 0;#P connect 103 0 104 0;#P connect 98 0 102 0;#P connect 98 0 101 0;#P connect 98 0 100 0;#P connect 98 0 99 0;#P connect 0 0 97 0;#P connect 1 0 96 0;#P connect 2 0 95 0;#P connect 5 0 94 0;#P connect 4 0 93 0;#P connect 3 0 92 0;#P connect 8 0 91 0;#P connect 7 0 90 0;#P connect 6 0 89 0;#P connect 11 0 88 0;#P connect 10 0 87 0;#P connect 9 0 86 0;#P connect 36 0 85 0;#P connect 35 0 84 0;#P connect 34 0 83 0;#P connect 37 0 82 0;#P connect 38 0 81 0;#P connect 39 0 80 0;#P connect 40 0 79 0;#P connect 41 0 78 0;#P connect 12 0 77 0;#P connect 13 0 76 0;#P connect 42 0 75 0;#P connect 14 0 74 0;#P connect 65 0 16 1;#P connect 64 0 17 0;#P connect 63 0 19 1;#P connect 62 0 20 0;#P connect 61 0 21 1;#P connect 60 0 23 0;#P connect 59 0 26 1;#P connect 58 0 24 0;#P connect 57 0 28 1;#P connect 56 0 27 0;#P connect 55 0 32 1;#P connect 54 0 33 0;#P connect 53 0 44 1;#P connect 52 0 45 0;#P connect 51 0 47 1;#P connect 50 0 30 0;#P connect 46 0 66 0;#P connect 49 0 30 0;#P connect 48 0 49 0;#P connect 30 0 47 0;#P connect 47 0 46 0;#P connect 44 0 43 0;#P connect 45 0 44 0;#P connect 43 0 67 0;#P connect 49 0 45 0;#P connect 29 0 69 0;#P connect 27 0 28 0;#P connect 28 0 29 0;#P connect 32 0 31 0;#P connect 33 0 32 0;#P connect 31 0 68 0;#P connect 49 0 33 0;#P connect 49 0 27 0;#P connect 18 0 72 0;#P connect 20 0 19 0;#P connect 19 0 18 0;#P connect 16 0 15 0;#P connect 17 0 16 0;#P connect 15 0 73 0;#P connect 22 0 71 0;#P connect 23 0 21 0;#P connect 21 0 22 0;#P connect 26 0 25 0;#P connect 24 0 26 0;#P connect 25 0 70 0;#P connect 49 0 24 0;#P connect 49 0 23 0;#P connect 49 0 20 0;#P connect 49 0 17 0;#P pop;#P newobj 136 55 86 1 patcher vib5-8;#N vpatcher -108 -56 914 459;#P newex 859 44 72 1 s env-vamp1;#P newex 859 69 72 1 s env-vamp2;#P newex 859 94 72 1 s env-vamp3;#P newex 859 119 72 1 s env-vamp4;#P newex 860 17 74 1 r env-amp1-4;#P newex 856 200 72 1 s env-vfreq1;#P newex 856 225 72 1 s env-vfreq2;#P newex 856 251 72 1 s env-vfreq3;#P newex 856 275 72 1 s env-vfreq4;#P newex 857 174 79 1 r env-vfreq1-4;#P number 699 318 35 1;#P number 699 281 35 1;#P number 698 242 35 1;#P newex 699 261 74 1 s vfreq-deb4;#P newex 699 297 85 1 s vfreq-sustain4;#P newex 699 335 81 1 s vfreq-decay4;#P number 609 242 35 1;#P number 610 281 35 1;#P number 610 318 35 1;#P newex 610 261 74 1 s vamp-deb4;#P newex 610 297 85 1 s vamp-sustain4;#P newex 610 335 81 1 s vamp-decay4;#P newex 506 333 81 1 s vfreq-decay3;#P newex 506 295 85 1 s vfreq-sustain3;#P newex 506 259 74 1 s vfreq-deb3;#P number 505 240 35 1;#P number 506 279 35 1;#P number 506 316 35 1;#P number 417 238 35 1;#P number 418 277 35 1;#P number 418 314 35 1;#P newex 418 257 74 1 s vamp-deb3;#P newex 418 293 85 1 s vamp-sustain3;#P newex 418 331 81 1 s vamp-decay3;#P newex 39 328 81 1 s vamp-decay1;#P number 39 311 35 1;#P newex 39 290 84 1 s vamp-sustain1;#P number 39 274 35 1;#P newex 39 254 74 1 s vamp-deb1;#P number 38 235 35 1;#N vpatcher 9 28 884 504;#P newex 677 439 80 1 s go-vfreq4;#P newex 712 230 87 1 r vfreq-decay4;#P newex 628 209 83 1 r vfreq-sustain4;#P newex 391 409 50 1 s vfreq4;#P newex 265 253 85 1 r vfreq-sustain4;#P newex 212 225 75 1 r vamp-freq4;#P button 371 250;#P newex 371 224 50 1 del;#P newex 371 201 50 1 t b i;#P newex 581 132 50 1 t b b;#P number 211 279 35 1;#P number 264 282 35 1;#P number 687 257 35 1;#P newex 743 151 112 1 random 3500;#P newex 743 176 50 1 + 500;#P number 157 395 35 1;#P newex 756 331 50 1 r reset;#P message 758 355 41 1 stop;#P newex 580 369 50 1 line 0 10;#P number 580 394 35 1;#P newex 430 123 87 1 random 6000;#P newex 431 152 50 1 + 1;#P newex 430 201 50 1 t b i;#P newex 430 224 50 1 del;#P number 432 178 35 1;#P message 581 302 77 1 \$2 \, \$3 \$4;#P newex 580 274 173 1 pack 0 0 0 0;#P newex 157 358 50 1 line 0 10;#P message 157 330 77 1 \$2 \, \$3 \$4;#P newex 156 302 173 1 pack 0 0 0 0;#P number 319 178 35 1;#P newex 317 121 96 1 random 3500;#P newex 318 150 50 1 + 500;#P button 581 232;#P button 581 110;#P number 627 256 35 1;#P newex 89 181 50 1 r reset;#P message 91 205 41 1 stop;#P newex 157 170 50 1 t b b;#P inlet 157 97 15;#P button 156 271;#P button 63 153;#P number 742 207 35 1;#P newex 678 413 50 1 del 10;#P newex 724 389 50 1 + 10;#P connect 1 0 44 0;#P connect 43 0 32 0;#P connect 42 0 9 0;#P connect 25 0 41 0;#P connect 29 0 41 0;#P connect 40 0 33 0;#P connect 39 0 34 0;#P connect 27 0 26 0;#P connect 28 0 27 0;#P connect 7 0 21 0;#P connect 7 0 37 0;#P connect 8 0 7 0;#P connect 7 0 17 0;#P connect 35 0 11 0;#P connect 35 1 31 0;#P connect 10 0 35 0;#P connect 3 0 6 0;#P connect 6 0 4 0;#P connect 6 1 13 0;#P connect 5 0 6 0;#P connect 2 0 18 3;#P connect 19 0 26 0;#P connect 18 0 19 0;#P connect 11 0 18 0;#P connect 9 0 18 1;#P connect 32 0 18 2;#P connect 16 0 17 0;#P connect 33 0 15 2;#P connect 14 0 15 3;#P connect 34 0 15 1;#P connect 4 0 15 0;#P connect 15 0 16 0;#P connect 20 0 22 0;#P connect 21 0 10 0;#P connect 22 1 21 1;#P connect 22 0 21 0;#P connect 38 0 24 0;#P connect 23 0 20 0;#P connect 24 0 23 0;#P connect 30 0 2 0;#P connect 31 0 30 0;#P connect 26 0 25 0;#P connect 36 0 37 0;#P connect 36 1 37 1;#P connect 14 0 36 0;#P connect 37 0 38 0;#P connect 13 0 12 0;#P connect 12 0 14 0;#P connect 17 0 29 0;#P connect 11 0 1 0;#P connect 2 0 0 0;#P connect 0 0 1 1;#P pop;#P newobj 686 200 61 1 patcher vfreq-env4;#P newex 696 112 63 1 r go-vfreq4;#P newex 686 91 71 1 r env-vfreq4;#N vpatcher 9 60 880 504;#P newex 670 432 80 1 s go-vamp4;#P newex 705 223 87 1 r vamp-decay4;#P newex 621 202 83 1 r vamp-sustain4;#P newex 384 400 50 1 s vamp4;#P newex 258 246 85 1 r vamp-sustain4;#P newex 205 218 75 1 r vamp-deb4;#P newex 717 382 50 1 + 10;#P button 757 418 32;#P newex 671 406 50 1 del 10;#P number 735 200 35 1;#P button 56 146;#P button 149 264;#P inlet 150 90 15;#P newex 150 163 50 1 t b b;#P message 84 198 41 1 stop;#P newex 82 174 50 1 r reset;#P number 620 249 35 1;#P button 574 103;#P button 574 225;#P newex 311 143 50 1 + 500;#P newex 310 114 96 1 random 3500;#P number 312 171 35 1;#P newex 149 295 173 1 pack 0 0 0 0;#P message 150 323 77 1 \$2 \, \$3 \$4;#P newex 150 351 50 1 line 0 10;#P newex 573 267 173 1 pack 0 0 0 0;#P message 574 295 77 1 \$2 \, \$3 \$4;#P number 425 171 35 1;#P newex 423 217 50 1 del;#P newex 423 194 50 1 t b i;#P newex 424 145 50 1 + 1;#P newex 423 116 87 1 random 6000;#P number 573 387 35 1;#P newex 573 362 50 1 line 0 10;#P message 751 348 41 1 stop;#P newex 749 324 50 1 r reset;#P number 150 388 35 1;#P newex 736 169 50 1 + 500;#P newex 736 144 112 1 random 3500;#P number 680 250 35 1;#P number 257 275 35 1;#P number 204 272 35 1;#P newex 574 125 50 1 t b b;#P newex 364 194 50 1 t b i;#P newex 364 217 50 1 del;#P button 364 243;#P connect 37 0 45 0;#P connect 44 0 6 0;#P connect 43 0 29 0;#P connect 13 0 42 0;#P connect 9 0 42 0;#P connect 41 0 5 0;#P connect 40 0 4 0;#P connect 39 0 37 1;#P connect 36 0 39 0;#P connect 27 0 37 0;#P connect 21 0 9 0;#P connect 26 0 24 0;#P connect 25 0 26 0;#P connect 1 0 0 0;#P connect 24 0 2 0;#P connect 2 1 1 1;#P connect 2 0 1 0;#P connect 12 0 13 0;#P connect 7 0 8 0;#P connect 8 0 36 0;#P connect 14 0 15 0;#P connect 15 0 18 0;#P connect 0 0 14 0;#P connect 16 0 17 0;#P connect 16 1 17 1;#P connect 17 0 28 0;#P connect 18 0 16 0;#P connect 23 0 22 0;#P connect 34 0 23 0;#P connect 4 0 23 1;#P connect 24 0 23 3;#P connect 5 0 23 2;#P connect 22 0 21 0;#P connect 6 0 20 2;#P connect 29 0 20 1;#P connect 27 0 20 0;#P connect 20 0 19 0;#P connect 19 0 12 0;#P connect 36 0 20 3;#P connect 33 0 32 0;#P connect 32 1 25 0;#P connect 32 0 34 0;#P connect 35 0 32 0;#P connect 28 0 3 0;#P connect 3 1 7 0;#P connect 3 0 27 0;#P connect 31 0 21 0;#P connect 30 0 31 0;#P connect 31 0 1 0;#P connect 31 0 17 0;#P connect 10 0 11 0;#P connect 11 0 12 0;#P pop;#P newobj 609 199 62 1 patcher vamp-env4;#P newex 618 111 64 1 r go-vamp4;#P newex 609 89 72 1 r env-vamp4;#N vpatcher 9 9 896 504;#P newex 670 432 80 1 s go-vfreq3;#P newex 705 223 87 1 r vfreq-decay3;#P newex 621 202 83 1 r vfreq-sustain3;#P newex 384 402 50 1 s vfreq3;#P newex 258 246 85 1 r vfreq-sustain3;#P newex 205 218 75 1 r vamp-freq3;#P newex 717 382 50 1 + 10;#P button 757 418 32;#P newex 671 406 50 1 del 10;#P number 735 200 35 1;#P button 56 146;#P button 149 264;#P inlet 150 90 15;#P newex 150 163 50 1 t b b;#P message 84 198 41 1 stop;#P newex 82 174 50 1 r reset;#P number 620 249 35 1;#P button 574 103;#P button 574 225;#P newex 311 143 50 1 + 500;#P newex 310 114 96 1 random 3500;#P number 312 171 35 1;#P newex 149 295 173 1 pack 0 0 0 0;#P message 150 323 77 1 \$2 \, \$3 \$4;#P newex 150 351 50 1 line 0 10;#P newex 573 267 173 1 pack 0 0 0 0;#P message 574 295 77 1 \$2 \, \$3 \$4;#P number 425 171 35 1;#P newex 423 217 50 1 del;#P newex 423 194 50 1 t b i;#P newex 424 145 50 1 + 1;#P newex 423 116 87 1 random 6000;#P number 573 387 35 1;#P newex 573 362 50 1 line 0 10;#P message 751 348 41 1 stop;#P newex 749 324 50 1 r reset;#P number 150 388 35 1;#P newex 736 169 50 1 + 500;#P newex 736 144 112 1 random 3500;#P number 680 250 35 1;#P number 257 275 35 1;#P number 204 272 35 1;#P newex 574 125 50 1 t b b;#P newex 364 194 50 1 t b i;#P newex 364 217 50 1 del;#P button 364 243;#P connect 37 0 45 0;#P connect 44 0 6 0;#P connect 43 0 29 0;#P connect 13 0 42 0;#P connect 9 0 42 0;#P connect 41 0 5 0;#P connect 40 0 4 0;#P connect 39 0 37 1;#P connect 36 0 39 0;#P connect 27 0 37 0;#P connect 21 0 9 0;#P connect 26 0 24 0;#P connect 25 0 26 0;#P connect 1 0 0 0;#P connect 24 0 2 0;#P connect 2 1 1 1;#P connect 2 0 1 0;#P connect 12 0 13 0;#P connect 7 0 8 0;#P connect 8 0 36 0;#P connect 14 0 15 0;#P connect 15 0 18 0;#P connect 0 0 14 0;#P connect 16 0 17 0;#P connect 16 1 17 1;#P connect 17 0 28 0;#P connect 18 0 16 0;#P connect 23 0 22 0;#P connect 34 0 23 0;#P connect 4 0 23 1;#P connect 24 0 23 3;#P connect 5 0 23 2;#P connect 22 0 21 0;#P connect 6 0 20 2;#P connect 29 0 20 1;#P connect 27 0 20 0;#P connect 20 0 19 0;#P connect 19 0 12 0;#P connect 36 0 20 3;#P connect 33 0 32 0;#P connect 32 1 25 0;#P connect 32 0 34 0;#P connect 35 0 32 0;#P connect 28 0 3 0;#P connect 3 1 7 0;#P connect 3 0 27 0;#P connect 31 0 21 0;#P connect 30 0 31 0;#P connect 31 0 1 0;#P connect 31 0 17 0;#P connect 10 0 11 0;#P connect 11 0 12 0;#P pop;#P newobj 498 199 61 1 patcher vfreq-env3;#P newex 508 111 63 1 r go-vfreq3;#P newex 498 90 71 1 r env-vfreq3;#N vpatcher 9 60 880 504;#P newex 663 425 80 1 s go-vamp3;#P newex 614 195 83 1 r vamp-sustain3;#P newex 377 395 50 1 s vamp3;#P newex 251 239 85 1 r vamp-sustain3;#P newex 198 211 75 1 r vamp-deb3;#P newex 698 216 87 1 r vamp-decay1;#P button 357 236;#P newex 357 210 50 1 del;#P newex 357 187 50 1 t b i;#P newex 567 118 50 1 t b b;#P number 197 265 35 1;#P number 250 268 35 1;#P number 673 243 35 1;#P newex 729 137 112 1 random 3500;#P newex 729 162 50 1 + 500;#P number 143 381 35 1;#P newex 742 317 50 1 r reset;#P message 744 341 41 1 stop;#P newex 566 355 50 1 line 0 10;#P number 566 380 35 1;#P newex 416 109 87 1 random 6000;#P newex 417 138 50 1 + 1;#P newex 416 187 50 1 t b i;#P newex 416 210 50 1 del;#P number 418 164 35 1;#P message 567 288 77 1 \$2 \, \$3 \$4;#P newex 566 260 173 1 pack 0 0 0 0;#P newex 143 344 50 1 line 0 10;#P message 143 316 77 1 \$2 \, \$3 \$4;#P newex 142 288 173 1 pack 0 0 0 0;#P number 305 164 35 1;#P newex 303 107 96 1 random 3500;#P newex 304 136 50 1 + 500;#P button 567 218;#P button 567 96;#P number 613 242 35 1;#P newex 75 167 50 1 r reset;#P message 77 191 41 1 stop;#P newex 143 156 50 1 t b b;#P inlet 143 83 15;#P button 142 257;#P button 49 139;#P number 728 193 35 1;#P newex 664 399 50 1 del 10;#P button 750 411 32;#P newex 710 375 50 1 + 10;#P connect 2 0 45 0;#P connect 44 0 10 0;#P connect 26 0 43 0;#P connect 30 0 43 0;#P connect 42 0 34 0;#P connect 41 0 35 0;#P connect 40 0 33 0;#P connect 28 0 27 0;#P connect 29 0 28 0;#P connect 8 0 22 0;#P connect 8 0 38 0;#P connect 9 0 8 0;#P connect 8 0 18 0;#P connect 36 0 12 0;#P connect 36 1 32 0;#P connect 11 0 36 0;#P connect 4 0 7 0;#P connect 7 0 5 0;#P connect 7 1 14 0;#P connect 6 0 7 0;#P connect 3 0 19 3;#P connect 20 0 27 0;#P connect 19 0 20 0;#P connect 12 0 19 0;#P connect 10 0 19 1;#P connect 33 0 19 2;#P connect 17 0 18 0;#P connect 34 0 16 2;#P connect 15 0 16 3;#P connect 35 0 16 1;#P connect 5 0 16 0;#P connect 16 0 17 0;#P connect 21 0 23 0;#P connect 22 0 11 0;#P connect 23 1 22 1;#P connect 23 0 22 0;#P connect 39 0 25 0;#P connect 24 0 21 0;#P connect 25 0 24 0;#P connect 31 0 3 0;#P connect 32 0 31 0;#P connect 27 0 26 0;#P connect 37 0 38 0;#P connect 37 1 38 1;#P connect 15 0 37 0;#P connect 38 0 39 0;#P connect 14 0 13 0;#P connect 13 0 15 0;#P connect 18 0 30 0;#P connect 12 0 2 0;#P connect 3 0 0 0;#P connect 0 0 2 1;#P pop;#P newobj 422 196 62 1 patcher vamp-env3;#P newex 431 108 64 1 r go-vamp3;#P newex 422 86 72 1 r env-vamp3;#P button 686 178;#P newex 686 154 50 1 gate;#P toggle 686 133;#P button 609 179;#P newex 609 153 50 1 gate;#P toggle 609 133;#P newex 498 153 50 1 gate;#P button 499 174;#P toggle 499 133;#P toggle 422 133;#P button 420 176;#P newex 422 150 50 1 gate;#P newex 143 109 63 1 r go-vfreq1;#P newex 133 88 71 1 r env-vfreq1;#P newex 315 109 63 1 r go-vfreq2;#P newex 305 88 71 1 r env-vfreq2;#P toggle 305 133;#P newex 305 154 50 1 gate;#P button 305 178;#N vpatcher 9 30 887 504;#P newex 670 432 80 1 s go-vfreq2;#P newex 705 223 87 1 r vfreq-decay2;#P newex 621 202 83 1 r vfreq-sustain2;#P newex 384 402 50 1 s vfreq2;#P newex 258 246 85 1 r vfreq-sustain2;#P newex 205 218 75 1 r vamp-freq2;#P newex 717 382 50 1 + 10;#P newex 671 406 50 1 del 10;#P number 735 200 35 1;#P button 56 146;#P button 149 264;#P inlet 150 90 15;#P newex 150 163 50 1 t b b;#P message 84 198 41 1 stop;#P newex 82 174 50 1 r reset;#P number 620 249 35 1;#P button 574 103;#P button 574 225;#P newex 311 143 50 1 + 500;#P newex 310 114 96 1 random 3500;#P number 312 171 35 1;#P newex 149 295 173 1 pack 0 0 0 0;#P message 150 323 77 1 \$2 \, \$3 \$4;#P newex 150 351 50 1 line 0 10;#P newex 573 267 173 1 pack 0 0 0 0;#P message 574 295 77 1 \$2 \, \$3 \$4;#P number 425 171 35 1;#P newex 423 217 50 1 del;#P newex 423 194 50 1 t b i;#P newex 424 145 50 1 + 1;#P newex 423 116 87 1 random 6000;#P number 573 387 35 1;#P newex 573 362 50 1 line 0 10;#P message 751 348 41 1 stop;#P newex 749 324 50 1 r reset;#P number 150 388 35 1;#P newex 736 169 50 1 + 500;#P newex 736 144 112 1 random 3500;#P number 680 250 35 1;#P number 257 275 35 1;#P number 204 272 35 1;#P newex 574 125 50 1 t b b;#P newex 364 194 50 1 t b i;#P newex 364 217 50 1 del;#P button 364 243;#P connect 37 0 44 0;#P connect 43 0 6 0;#P connect 42 0 29 0;#P connect 13 0 41 0;#P connect 9 0 41 0;#P connect 40 0 5 0;#P connect 39 0 4 0;#P connect 38 0 37 1;#P connect 36 0 38 0;#P connect 27 0 37 0;#P connect 21 0 9 0;#P connect 26 0 24 0;#P connect 25 0 26 0;#P connect 1 0 0 0;#P connect 24 0 2 0;#P connect 2 1 1 1;#P connect 2 0 1 0;#P connect 12 0 13 0;#P connect 7 0 8 0;#P connect 8 0 36 0;#P connect 14 0 15 0;#P connect 15 0 18 0;#P connect 0 0 14 0;#P connect 16 0 17 0;#P connect 16 1 17 1;#P connect 17 0 28 0;#P connect 18 0 16 0;#P connect 23 0 22 0;#P connect 34 0 23 0;#P connect 4 0 23 1;#P connect 24 0 23 3;#P connect 5 0 23 2;#P connect 22 0 21 0;#P connect 6 0 20 2;#P connect 29 0 20 1;#P connect 27 0 20 0;#P connect 20 0 19 0;#P connect 19 0 12 0;#P connect 36 0 20 3;#P connect 33 0 32 0;#P connect 32 1 25 0;#P connect 32 0 34 0;#P connect 35 0 32 0;#P connect 28 0 3 0;#P connect 3 1 7 0;#P connect 3 0 27 0;#P connect 31 0 21 0;#P connect 30 0 31 0;#P connect 31 0 1 0;#P connect 31 0 17 0;#P connect 10 0 11 0;#P connect 11 0 12 0;#P pop;#P newobj 305 200 61 1 patcher vfreq-env2;#P toggle 58 135;#N vpatcher 9 60 880 504;#P newex 663 425 80 1 s go-vamp2;#P newex 698 216 87 1 r vamp-decay2;#P newex 614 195 83 1 r vamp-sustain2;#P newex 377 393 50 1 s vamp2;#P newex 251 239 85 1 r vamp-sustain2;#P newex 198 211 75 1 r vamp-deb2;#P button 357 236;#P newex 357 210 50 1 del;#P newex 357 187 50 1 t b i;#P newex 567 118 50 1 t b b;#P number 197 265 35 1;#P number 250 268 35 1;#P number 673 243 35 1;#P newex 729 137 112 1 random 3500;#P newex 729 162 50 1 + 500;#P number 143 381 35 1;#P newex 742 317 50 1 r reset;#P message 744 341 41 1 stop;#P newex 566 355 50 1 line 0 10;#P number 566 380 35 1;#P newex 416 109 87 1 random 6000;#P newex 417 138 50 1 + 1;#P newex 416 187 50 1 t b i;#P newex 416 210 50 1 del;#P number 418 164 35 1;#P message 567 288 77 1 \$2 \, \$3 \$4;#P newex 566 260 173 1 pack 0 0 0 0;#P newex 143 344 50 1 line 0 10;#P message 143 316 77 1 \$2 \, \$3 \$4;#P newex 142 288 173 1 pack 0 0 0 0;#P number 305 164 35 1;#P newex 303 107 96 1 random 3500;#P newex 304 136 50 1 + 500;#P button 567 218;#P button 567 96;#P number 613 242 35 1;#P newex 75 167 50 1 r reset;#P message 77 191 41 1 stop;#P newex 143 156 50 1 t b b;#P inlet 143 83 15;#P button 142 257;#P button 49 139;#P number 728 193 35 1;#P newex 664 399 50 1 del 10;#P button 750 411 32;#P newex 710 375 50 1 + 10;#P connect 2 0 45 0;#P connect 44 0 33 0;#P connect 43 0 10 0;#P connect 26 0 42 0;#P connect 30 0 42 0;#P connect 41 0 34 0;#P connect 40 0 35 0;#P connect 28 0 27 0;#P connect 29 0 28 0;#P connect 8 0 22 0;#P connect 8 0 38 0;#P connect 9 0 8 0;#P connect 8 0 18 0;#P connect 36 0 12 0;#P connect 36 1 32 0;#P connect 11 0 36 0;#P connect 4 0 7 0;#P connect 7 0 5 0;#P connect 7 1 14 0;#P connect 6 0 7 0;#P connect 3 0 19 3;#P connect 20 0 27 0;#P connect 19 0 20 0;#P connect 12 0 19 0;#P connect 10 0 19 1;#P connect 33 0 19 2;#P connect 17 0 18 0;#P connect 34 0 16 2;#P connect 15 0 16 3;#P connect 35 0 16 1;#P connect 5 0 16 0;#P connect 16 0 17 0;#P connect 21 0 23 0;#P connect 22 0 11 0;#P connect 23 1 22 1;#P connect 23 0 22 0;#P connect 39 0 25 0;#P connect 24 0 21 0;#P connect 25 0 24 0;#P connect 31 0 3 0;#P connect 32 0 31 0;#P connect 27 0 26 0;#P connect 37 0 38 0;#P connect 37 1 38 1;#P connect 15 0 37 0;#P connect 38 0 39 0;#P connect 14 0 13 0;#P connect 13 0 15 0;#P connect 18 0 30 0;#P connect 12 0 2 0;#P connect 3 0 0 0;#P connect 0 0 2 1;#P pop;#P newobj 228 199 62 1 patcher vamp-env2;#P newex 237 111 64 1 r go-vamp2;#P newex 228 89 72 1 r env-vamp2;#P button 228 179;#P newex 228 153 50 1 gate;#P toggle 228 133;#P newex 318 331 81 1 s vfreq-decay2;#P newex 318 293 85 1 s vfreq-sustain2;#P newex 318 257 74 1 s vfreq-deb2;#P number 317 238 35 1;#P number 318 277 35 1;#P number 318 314 35 1;#P newex 229 330 81 1 s vamp-decay2;#P newex 229 292 85 1 s vamp-sustain2;#P newex 229 256 74 1 s vamp-deb2;#P number 229 313 35 1;#P number 229 276 35 1;#P number 228 237 35 1;#P number 128 313 35 1;#P number 128 276 35 1;#P number 127 237 35 1;#P newex 128 256 74 1 s vfreq-deb1;#P newex 128 292 85 1 s vfreq-sustain1;#P newex 128 330 81 1 s vfreq-decay1;#P button 133 178;#P newex 133 154 50 1 gate;#P toggle 133 133;#N vpatcher 9 60 880 504;#P newex 663 425 80 1 s go-vfreq1;#P newex 377 395 50 1 s vfreq1;#P newex 698 216 87 1 r vfreq-decay1;#P newex 614 195 83 1 r vfreq-sustain1;#P newex 251 239 85 1 r vfreq-sustain1;#P newex 198 211 75 1 r vamp-freq1;#P button 357 236;#P newex 357 210 50 1 del;#P newex 357 187 50 1 t b i;#P newex 567 118 50 1 t b b;#P number 197 265 35 1;#P number 250 268 35 1;#P number 673 243 35 1;#P newex 729 137 112 1 random 3500;#P newex 729 162 50 1 + 500;#P number 143 381 35 1;#P newex 742 317 50 1 r reset;#P message 744 341 41 1 stop;#P newex 566 355 50 1 line 0 10;#P number 566 380 35 1;#P newex 416 109 87 1 random 6000;#P newex 417 138 50 1 + 1;#P newex 416 187 50 1 t b i;#P newex 416 210 50 1 del;#P number 418 164 35 1;#P message 567 288 77 1 \$2 \, \$3 \$4;#P newex 566 260 173 1 pack 0 0 0 0;#P newex 143 344 50 1 line 0 10;#P message 143 316 77 1 \$2 \, \$3 \$4;#P newex 142 288 173 1 pack 0 0 0 0;#P number 305 164 35 1;#P newex 303 107 96 1 random 3500;#P newex 304 136 50 1 + 500;#P button 567 218;#P button 567 96;#P number 613 242 35 1;#P newex 75 167 50 1 r reset;#P message 77 191 41 1 stop;#P newex 143 156 50 1 t b b;#P inlet 143 83 15;#P button 142 257;#P button 49 139;#P number 728 193 35 1;#P newex 664 399 50 1 del 10;#P button 750 411 32;#P newex 710 375 50 1 + 10;#P connect 2 0 45 0;#P connect 26 0 44 0;#P connect 30 0 44 0;#P connect 43 0 33 0;#P connect 42 0 10 0;#P connect 41 0 34 0;#P connect 40 0 35 0;#P connect 28 0 27 0;#P connect 29 0 28 0;#P connect 8 0 22 0;#P connect 8 0 38 0;#P connect 9 0 8 0;#P connect 8 0 18 0;#P connect 36 0 12 0;#P connect 36 1 32 0;#P connect 11 0 36 0;#P connect 4 0 7 0;#P connect 7 0 5 0;#P connect 7 1 14 0;#P connect 6 0 7 0;#P connect 3 0 19 3;#P connect 20 0 27 0;#P connect 19 0 20 0;#P connect 12 0 19 0;#P connect 10 0 19 1;#P connect 33 0 19 2;#P connect 17 0 18 0;#P connect 34 0 16 2;#P connect 15 0 16 3;#P connect 35 0 16 1;#P connect 5 0 16 0;#P connect 16 0 17 0;#P connect 21 0 23 0;#P connect 22 0 11 0;#P connect 23 1 22 1;#P connect 23 0 22 0;#P connect 39 0 25 0;#P connect 24 0 21 0;#P connect 25 0 24 0;#P connect 31 0 3 0;#P connect 32 0 31 0;#P connect 27 0 26 0;#P connect 37 0 38 0;#P connect 37 1 38 1;#P connect 15 0 37 0;#P connect 38 0 39 0;#P connect 14 0 13 0;#P connect 13 0 15 0;#P connect 18 0 30 0;#P connect 12 0 2 0;#P connect 3 0 0 0;#P connect 0 0 2 1;#P pop 1;#P newobj 133 200 61 1 patcher vfreq-env1;#P newex 65 110 64 1 r go-vamp1;#P newex 56 88 72 1 r env-vamp1;#N vpatcher 9 60 880 504;#P newex 656 418 80 1 s go-vamp1;#P newex 703 368 50 1 + 10;#P button 743 404 32;#P newex 657 392 50 1 del 10;#P number 721 186 35 1;#P button 42 132;#P button 135 250;#P inlet 136 76 15;#P newex 136 149 50 1 t b b;#P message 70 184 41 1 stop;#P newex 68 160 50 1 r reset;#P number 606 235 35 1;#P button 560 89;#P button 560 211;#P newex 297 129 50 1 + 500;#P newex 296 100 96 1 random 3500;#P number 298 157 35 1;#P newex 135 281 173 1 pack 0 0 0 0;#P message 136 309 77 1 \$2 \, \$3 \$4;#P newex 136 337 50 1 line 0 10;#P newex 559 253 173 1 pack 0 0 0 0;#P message 560 281 77 1 \$2 \, \$3 \$4;#P number 411 157 35 1;#P newex 409 203 50 1 del;#P newex 409 180 50 1 t b i;#P newex 410 131 50 1 + 1;#P newex 409 102 87 1 random 6000;#P number 559 373 35 1;#P newex 559 348 50 1 line 0 10;#P message 737 334 41 1 stop;#P newex 735 310 50 1 r reset;#P number 136 374 35 1;#P newex 722 155 50 1 + 500;#P newex 722 130 112 1 random 3500;#P number 666 236 35 1;#P number 243 261 35 1;#P number 190 258 35 1;#P newex 560 111 50 1 t b b;#P newex 350 180 50 1 t b i;#P newex 350 203 50 1 del;#P button 350 229;#P newex 191 204 75 1 r vamp-deb1;#P newex 244 232 85 1 r vamp-sustain1;#P newex 370 388 50 1 s vamp1;#P newex 607 188 83 1 r vamp-sustain1;#P newex 691 209 87 1 r vamp-decay1;#P connect 42 0 45 0;#P connect 44 0 42 1;#P connect 41 0 44 0;#P connect 32 0 42 0;#P connect 26 0 14 0;#P connect 31 0 29 0;#P connect 30 0 31 0;#P connect 6 0 5 0;#P connect 29 0 7 0;#P connect 7 1 6 1;#P connect 7 0 6 0;#P connect 17 0 18 0;#P connect 12 0 13 0;#P connect 13 0 41 0;#P connect 19 0 20 0;#P connect 20 0 23 0;#P connect 5 0 19 0;#P connect 21 0 22 0;#P connect 21 1 22 1;#P connect 22 0 33 0;#P connect 23 0 21 0;#P connect 28 0 27 0;#P connect 39 0 28 0;#P connect 9 0 28 1;#P connect 29 0 28 3;#P connect 10 0 28 2;#P connect 27 0 26 0;#P connect 11 0 25 2;#P connect 34 0 25 1;#P connect 32 0 25 0;#P connect 25 0 24 0;#P connect 24 0 17 0;#P connect 41 0 25 3;#P connect 38 0 37 0;#P connect 37 1 30 0;#P connect 37 0 39 0;#P connect 40 0 37 0;#P connect 33 0 8 0;#P connect 8 1 12 0;#P connect 8 0 32 0;#P connect 36 0 26 0;#P connect 35 0 36 0;#P connect 36 0 6 0;#P connect 36 0 22 0;#P connect 15 0 16 0;#P connect 16 0 17 0;#P connect 4 0 9 0;#P connect 3 0 10 0;#P connect 18 0 2 0;#P connect 14 0 2 0;#P connect 1 0 34 0;#P connect 0 0 11 0;#P pop 1;#P newobj 56 198 62 1 patcher vamp-env1;#P button 56 178;#P newex 56 152 50 1 gate;#P newex 33 56 50 1 r reset;#P message 32 116 21 1 0;#P connect 98 0 99 0;#P connect 98 0 100 0;#P connect 98 0 101 0;#P connect 98 0 102 0;#P connect 103 0 104 0;#P connect 103 0 105 0;#P connect 103 0 106 0;#P connect 103 0 107 0;#P connect 66 0 54 1;#P connect 65 0 53 0;#P connect 63 0 51 1;#P connect 62 0 50 0;#P connect 60 0 49 1;#P connect 59 0 47 0;#P connect 57 0 44 1;#P connect 56 0 46 0;#P connect 0 0 53 0;#P connect 0 0 50 0;#P connect 0 0 47 0;#P connect 0 0 46 0;#P connect 45 0 58 0;#P connect 46 0 44 0;#P connect 44 0 45 0;#P connect 49 0 48 0;#P connect 47 0 49 0;#P connect 48 0 61 0;#P connect 55 0 67 0;#P connect 53 0 54 0;#P connect 54 0 55 0;#P connect 51 0 52 0;#P connect 50 0 51 0;#P connect 52 0 64 0;#P connect 41 0 38 1;#P connect 40 0 39 0;#P connect 33 0 30 1;#P connect 32 0 29 0;#P connect 0 0 39 0;#P connect 0 0 29 0;#P connect 31 0 34 0;#P connect 29 0 30 0;#P connect 30 0 31 0;#P connect 38 0 37 0;#P connect 39 0 38 0;#P connect 37 0 36 0;#P connect 42 0 8 0;#P connect 5 0 35 0;#P connect 97 0 92 0;#P connect 96 0 93 0;#P connect 95 0 94 0;#P connect 80 0 85 0;#P connect 81 0 84 0;#P connect 82 0 83 0;#P connect 23 0 28 0;#P connect 24 0 27 0;#P connect 25 0 26 0;#P connect 16 0 11 0;#P connect 15 0 12 0;#P connect 14 0 13 0;#P connect 0 0 8 0;#P connect 43 0 9 1;#P connect 10 0 7 0;#P connect 8 0 9 0;#P connect 9 0 10 0;#P connect 2 0 3 0;#P connect 35 0 2 0;#P connect 6 0 2 1;#P connect 1 0 0 0;#P connect 0 0 35 0;#P connect 68 0 69 0;#P connect 70 0 71 0;#P connect 72 0 73 0;#P connect 17 0 20 0;#P connect 18 0 21 0;#P connect 19 0 22 0;#P connect 79 0 76 0;#P connect 78 0 75 0;#P connect 77 0 74 0;#P connect 91 0 88 0;#P connect 90 0 87 0;#P connect 89 0 86 0;#P connect 3 0 4 0;#P pop;#P newobj 37 55 86 1 patcher vib1-4;#P pop;