max v2;#N vpatcher 296 205 668 476;#P newex 92 73 27 196617 *~;#P inlet 92 49 15 0;#P newex 92 101 155 196617 biquad~ 0.0001 0. 0. -0.9999 0.;#P newex 92 125 53 196617 snapshot~;#P newex 92 147 214 196617 expr 100 + 8.6858 *log(sqrt($f1) + .00001);#P newex 24 48 59 196617 r vu-metro;#P newex 92 183 150 196617 s $1;#P connect 3 0 2 0;#P connect 2 0 0 0;#P connect 1 0 3 0;#P connect 4 0 3 0;#P connect 5 0 6 0;#P connect 6 0 4 0;#P connect 5 0 6 1;#P pop;