max v2;#N vpatcher 160 180 700 462;#P newex 347 150 50 196617 change 0.;#P user number~ 208 176 247 191 9 3 3 2 0. 0. 0 0. 250 0. 0 0 0 222 222 222 222 222 222 0 0 0;#P flonum 338 183 35 9 0 0 0 3 0 0 0 221 221 221 222 222 222 0 0 0;#P flonum 276 186 35 9 0 0 0 3 0 0 0 221 221 221 222 222 222 0 0 0;#P inlet 104 23 15 0;#P comment 127 23 124 196617 freq in HZ or 0 to turn off;#P outlet 76 219 15 0;#P newex 104 180 27 196617 *~;#P newex 104 133 84 196617 cycle~ chapo.snd;#P comment 10 23 52 196617 signal bus;#P inlet 76 23 15 0;#P newex 196 126 55 196617 pack 0. 20;#P newex 196 147 30 196617 line~;#P newex 196 64 73 196617 r chapo-metro;#P newex 119 63 68 196617 r chapo-table;#P newex 196 86 298 196617 expr ($f2 > 0) * chapo_spect[min(127\\\,$f1 * $f2)] * 0.00012;#P connect 8 0 9 0;#P connect 5 0 9 0;#P connect 11 0 7 0;#P connect 1 0 7 0;#P connect 7 0 8 0;#P connect 3 0 8 1;#P connect 2 0 0 0;#P connect 15 0 4 0;#P connect 4 0 3 0;#P connect 3 0 14 0;#P connect 15 0 12 0;#P connect 15 0 13 0;#P connect 0 0 15 0;#P connect 11 0 0 1;#P pop;