max v2;#N vpatcher 381 162 958 668;#P button 274 103 15 0;#P newex 251 75 33 196617 sel 0.;#P newex 188 52 27 196617 t f f;#P message 300 297 52 196617 mute 0 \, 1;#P newex 241 266 45 196617 loadbang;#P message 241 297 52 196617 mute 1 \, 0;#P newex 147 337 31 196617 out 1;#P newex 147 313 50 196617 thispoly~;#P newex 211 148 30 196617 sel 0;#P newex 211 176 35 196617 del 24;#P newex 39 250 35 196617 out~ 1;#P newex 188 32 25 196617 in 1;#P inlet 39 33 15 0;#P comment 62 33 124 196617 freq in HZ or 0 to turn off;#P outlet 11 257 15 0;#P newex 39 218 27 196617 *~;#P newex 39 171 84 196617 cycle~ chapo.snd;#P newex 131 147 55 196617 pack 0. 20;#P newex 131 170 30 196617 line~;#P newex 131 102 73 196617 r chapo-metro;#P newex 54 101 68 196617 r chapo-table;#P newex 131 124 298 196617 expr ($f2 > 0) * chapo_spect[min(127\\\,$f1 * $f2)] * 0.00012;#P connect 19 0 5 0;#P connect 1 0 5 0;#P connect 9 0 5 0;#P connect 5 0 6 0;#P connect 6 0 11 0;#P connect 3 0 6 1;#P connect 2 0 0 0;#P connect 0 0 4 0;#P connect 4 0 3 0;#P connect 18 0 14 0;#P connect 16 0 14 0;#P connect 14 0 15 0;#P connect 10 0 19 0;#P connect 0 0 13 0;#P connect 13 0 12 0;#P connect 20 0 16 0;#P connect 17 0 16 0;#P connect 12 0 16 0;#P connect 19 1 20 0;#P connect 20 1 21 0;#P connect 21 0 18 0;#P connect 19 0 0 1;#P connect 9 0 0 1;#P pop;