max v2;#N vpatcher 542 365 918 778;#P newex 27 95 251 1 interpol.pat 1 1 1 1 1 1 1 1 1 1 1 1;#P message 14 229 98 1 \; 1-rec-debut 8 4 \;;#P comment 23 146 93 1 start and next message as output to drive explodes;#P newex 28 26 50 1 r ishiro;#P newex 27 122 50 1 print;#P button 27 53;#P message 15 282 77 1 \; 1-rec-fin bang \;;#P message 16 332 77 1 \; 1-playback bang \;;#P newex 267 122 91 1 print FINISHED;#P newex 146 124 58 1 print cycle;#P connect 4 0 9 0;#P connect 9 0 5 0;#P connect 9 2 1 0;#P connect 9 1 0 0;#P connect 6 0 4 0;#P pop;