max v2;#N vpatcher 324 214 824 657 -1;#P newex 378 118 31 1 i 1;#P button 123 81;#P newex 64 200 65 1 pack 0. 50;#P newex 116 169 65 1 pack 0. 50;#P newex 18 140 55 1 del 6;#P newex 71 112 45 1 del 4;#P newex 89 378 38 1 +~;#P newex 116 347 39 1 *~;#P button 93 66;#P newex 167 42 55 1 route 0;#P newex 64 171 44 1 * 0.01;#P newex 116 248 40 1 line~;#P inlet 89 312 15;#P comment 36 293 66 1 signal bus;#P newex 225 273 44 1 / 1.;#P newex 225 300 48 1 pack f i;#P message 225 251 72 1 2616256 \$1;#P newex 225 201 42 1 * 0.01;#P newex 225 225 42 1 mtof;#P newex 225 176 63 1 % 100000;#P message 34 63 47 1 stop;#P newex 212 129 31 1 i;#P message 158 199 34 1 0. 4;#P newex 224 328 55 1 swap;#P newex 224 358 55 1 line~;#P newex 224 385 115 1 sampread~ sample1;#P inlet 167 19 15;#P outlet 89 411 15;#P comment 194 18 180 1 velo \, pit \, sample number;#P newex 323 136 31 1 i 0;#P newex 234 64 174 1 unpack 0 0 0;#P newex 324 279 55 1 + 10000;#P newex 251 99 35 1 t b b;#P newex 253 135 53 1 i;#P connect 3 2 33 1;#P connect 1 1 33 0;#P connect 33 0 8 0;#P connect 32 0 30 0;#P connect 24 0 32 0;#P connect 31 0 22 0;#P connect 23 0 31 0;#P connect 30 0 22 0;#P connect 29 0 12 0;#P connect 25 0 29 0;#P connect 13 0 29 0;#P connect 25 0 28 0;#P connect 13 0 28 0;#P connect 28 0 1 0;#P connect 1 0 0 0;#P connect 14 0 16 0;#P connect 16 0 15 0;#P connect 21 0 9 0;#P connect 21 0 22 0;#P connect 22 0 26 0;#P connect 21 0 27 0;#P connect 26 0 27 1;#P connect 27 0 6 0;#P connect 7 0 24 0;#P connect 15 0 17 0;#P connect 17 0 19 0;#P connect 2 0 18 1;#P connect 19 0 18 0;#P connect 0 0 14 0;#P connect 12 0 23 0;#P connect 24 0 13 0;#P connect 11 0 22 0;#P connect 18 0 10 0;#P connect 10 1 9 1;#P connect 10 0 9 0;#P connect 8 0 26 1;#P connect 9 0 8 0;#P connect 4 0 9 0;#P connect 4 0 2 0;#P connect 1 1 4 0;#P connect 24 1 3 0;#P connect 3 1 0 1;#P connect 3 0 12 1;#P connect 3 0 25 0;#P connect 3 0 11 0;#P pop;