max v2;#N vpatcher 217 108 814 690;#P button 208 544 15 0;#P button 170 527 15 0;#P button 194 526 15 0;#P button 237 94 15 0;#P newex 171 464 43 196617 >~ 0.01;#P user led 375 116 17 17 0 150;#P newex 397 527 31 196617 out 1;#P user number~ 85 518 124 533 9 3 3 2 0. 0. 0 0. 250 0. 0 0 0 222 222 222 222 222 222 0 0 0;#P newex 170 487 34 196617 edge~;#P button 397 174 15 0;#P message 397 199 52 196617 mute 0 \, 1;#P message 452 198 52 196617 mute 1 \, 0;#P number 452 268 35 9 0 0 0 3 0 0 0 221 221 221 222 222 222 0 0 0;#P newex 353 219 45 196617 loadbang;#P newex 83 37 25 196617 in 1;#P newex 31 514 35 196617 out~ 1;#P newex 397 250 50 196617 thispoly~;#P newex 410 321 102 196617 print undefined-table;#P newex 293 298 131 196617 sel 3 4 5 6 7 8 9 10 0;#P message 74 208 27 196617 stop;#P newex 340 194 45 196617 pack 0 5;#P newex 209 229 39 196617 * 0.01;#P newex 31 317 27 196617 *~;#P newex 31 292 38 196617 cycle~;#P newex 209 250 29 196617 mtof;#P newex 114 55 210 196617 unpack 0 0 0 0 0 0. 0. 0;#P newex 125 181 27 196617 i;#P newex 125 268 38 196617 i;#P newex 125 245 27 196617 del;#P newex 125 224 27 196617 t b i;#P newex 97 181 27 196617 i;#P newex 153 181 27 196617 i;#P comment 132 39 254 196617 amp1 time1 amp2 time2 pitch vib-depth vib-freq table;#P newex 181 181 27 196617 i;#P newex 209 181 27 196617 i;#P newex 237 181 27 196617 f;#P newex 265 181 27 196617 f;#P newex 293 181 27 196617 i;#P inlet 113 28 15 0;#P newex 97 132 38 196617 t b b;#P button 74 85 15 0;#P newex 97 109 30 196617 del 5;#P newex 31 482 27 196617 *~;#P newex 31 454 38 196617 cycle~;#P outlet 10 516 15 0;#P newex 31 369 27 196617 +~;#P newex 97 464 30 196617 line~;#P button 340 172 15 0;#P message 332 370 70 196617 set add06.snd;#P message 319 353 70 196617 set add05.snd;#P message 293 319 70 196617 set add03.snd;#P message 306 336 70 196617 set add04.snd;#P message 345 387 70 196617 set add07.snd;#P message 358 404 70 196617 set add08.snd;#P message 371 421 70 196617 set add09.snd;#P message 384 438 70 196617 set add10.snd;#P newex 97 301 144 196617 linedrive 157 8. 1.07177 100;#P newex 125 323 144 196617 linedrive 157 8. 1.07177 100;#P connect 15 0 13 0;#P connect 21 0 34 0;#P connect 34 0 35 0;#P connect 35 0 12 0;#P connect 4 0 14 0;#P connect 3 0 14 0;#P connect 2 0 14 0;#P connect 9 0 14 0;#P connect 8 0 14 0;#P connect 7 0 14 0;#P connect 6 0 14 0;#P connect 5 0 14 0;#P connect 12 0 14 0;#P connect 14 0 15 0;#P connect 15 0 42 0;#P connect 22 0 35 1;#P connect 33 0 12 1;#P connect 11 0 15 1;#P connect 32 0 17 0;#P connect 17 0 38 0;#P connect 11 0 50 0;#P connect 17 0 16 0;#P connect 16 0 18 0;#P connect 18 0 27 0;#P connect 27 0 1 0;#P connect 0 0 11 0;#P connect 37 0 11 0;#P connect 1 0 11 0;#P connect 43 0 32 0;#P connect 19 0 32 0;#P connect 32 0 27 1;#P connect 18 1 31 0;#P connect 31 0 28 0;#P connect 28 0 29 0;#P connect 38 0 29 0;#P connect 29 0 30 0;#P connect 30 0 0 0;#P connect 32 1 31 1;#P connect 28 1 29 1;#P connect 18 1 26 0;#P connect 26 0 30 1;#P connect 32 2 26 1;#P connect 53 0 49 0;#P connect 49 0 56 0;#P connect 11 0 53 0;#P connect 18 1 24 0;#P connect 32 3 24 1;#P connect 49 1 57 0;#P connect 18 1 23 0;#P connect 23 0 36 0;#P connect 36 0 33 0;#P connect 32 4 23 1;#P connect 31 0 1 1;#P connect 32 3 54 0;#P connect 18 1 22 0;#P connect 32 5 22 1;#P connect 24 0 0 1;#P connect 18 1 21 0;#P connect 32 6 21 1;#P connect 18 1 20 0;#P connect 20 0 39 0;#P connect 39 0 7 0;#P connect 39 1 6 0;#P connect 32 7 20 1;#P connect 39 2 8 0;#P connect 39 3 9 0;#P connect 32 7 10 0;#P connect 10 0 37 0;#P connect 39 4 5 0;#P connect 39 5 4 0;#P connect 39 6 3 0;#P connect 48 0 52 0;#P connect 39 7 2 0;#P connect 43 0 48 0;#P connect 48 0 47 0;#P connect 44 0 41 0;#P connect 47 0 41 0;#P connect 46 0 41 0;#P connect 39 9 40 0;#P fasten 49 1 46 0 199 520 527 520 527 193 457 193;#P connect 44 0 46 0;#P connect 41 0 45 0;#P pop;