max v2;#N vpatcher 104 87 795 652;#P comment 116 25 65 196617 order forcer;#P inlet 134 39 15 0;#P newex 513 321 102 196617 print undefined-table;#P newex 396 298 131 196617 sel 3 4 5 6 7 8 9 10 0;#P message 177 208 27 196617 stop;#P newex 443 194 45 196617 pack 0 5;#P newex 312 229 39 196617 * 0.01;#P newex 134 317 27 196617 *~;#P newex 134 292 38 196617 cycle~;#P comment 21 39 52 196617 signal bus;#P inlet 81 39 15 0;#P newex 312 250 29 196617 mtof;#P newex 217 55 210 196617 unpack 0 0 0 0 0 0. 0. 0;#P newex 228 181 27 196617 i;#P newex 228 268 38 196617 i;#P newex 228 245 27 196617 del;#P newex 228 224 27 196617 t b i;#P newex 200 181 27 196617 i;#P newex 256 181 27 196617 i;#P comment 235 39 254 196617 amp1 time1 amp2 time2 pitch vib-depth vib-freq table;#P newex 284 181 27 196617 i;#P newex 312 181 27 196617 i;#P newex 340 181 27 196617 f;#P newex 368 181 27 196617 f;#P newex 396 181 27 196617 i;#P inlet 217 39 15 0;#P newex 200 132 38 196617 t b b;#P button 177 85 15 0;#P newex 200 109 30 196617 del 5;#P newex 134 482 27 196617 *~;#P newex 134 454 38 196617 cycle~;#P outlet 81 521 15 0;#P newex 134 369 27 196617 +~;#P newex 200 464 30 196617 line~;#P button 443 172 15 0;#P message 435 370 70 196617 set add06.snd;#P message 422 353 70 196617 set add05.snd;#P message 396 319 70 196617 set add03.snd;#P message 409 336 70 196617 set add04.snd;#P message 448 387 70 196617 set add07.snd;#P message 461 404 70 196617 set add08.snd;#P message 474 421 70 196617 set add09.snd;#P message 487 438 70 196617 set add10.snd;#P newex 200 301 144 196617 linedrive 157 8. 1.07177 100;#P newex 228 323 144 196617 linedrive 157 8. 1.07177 100;#P connect 4 0 14 0;#P connect 0 0 11 0;#P connect 19 0 32 0;#P connect 17 0 40 0;#P connect 17 0 16 0;#P connect 39 0 11 0;#P connect 38 0 33 0;#P connect 37 0 12 0;#P connect 1 0 11 0;#P connect 3 0 14 0;#P connect 2 0 14 0;#P connect 9 0 14 0;#P connect 8 0 14 0;#P connect 7 0 14 0;#P connect 6 0 14 0;#P connect 5 0 14 0;#P connect 33 0 12 1;#P connect 32 0 17 0;#P connect 32 0 27 1;#P connect 32 1 31 1;#P connect 32 2 26 1;#P connect 32 3 24 1;#P connect 32 4 23 1;#P connect 32 5 22 1;#P connect 32 6 21 1;#P connect 32 7 20 1;#P connect 32 7 10 0;#P connect 31 0 28 0;#P connect 31 0 1 1;#P connect 30 0 0 0;#P connect 29 0 30 0;#P connect 28 0 29 0;#P connect 28 1 29 1;#P connect 27 0 1 0;#P connect 26 0 30 1;#P connect 23 0 38 0;#P connect 22 0 37 1;#P connect 21 0 36 0;#P connect 41 0 7 0;#P connect 41 1 6 0;#P connect 41 2 8 0;#P connect 41 3 9 0;#P connect 41 4 5 0;#P connect 41 5 4 0;#P connect 41 6 3 0;#P connect 41 7 2 0;#P connect 41 9 42 0;#P connect 20 0 41 0;#P connect 18 0 27 0;#P connect 18 1 31 0;#P connect 18 1 26 0;#P connect 18 1 24 0;#P connect 18 1 23 0;#P connect 18 1 22 0;#P connect 18 1 21 0;#P connect 18 1 20 0;#P connect 16 0 18 0;#P connect 15 0 13 0;#P connect 11 0 15 1;#P connect 14 0 15 0;#P connect 36 0 37 0;#P connect 24 0 0 1;#P connect 10 0 39 0;#P connect 12 0 14 0;#P connect 34 0 13 0;#P connect 40 0 29 0;#P pop;