max v2;#N vpatcher 92 46 823 636;#P message 340 29 28 196617 read;#P newex 366 42 130 196617 buffer~ noise.snd noise.snd;#P newex 107 43 28 196617 - 54;#P newex 483 104 55 196617 * 0.24344;#P newex 357 104 55 196617 * 0.25361;#P newex 170 104 55 196617 * 0.23724;#P newex 233 104 55 196617 * 0.22321;#P newex 296 104 55 196617 * 0.27674;#P newex 107 104 55 196617 * 0.29999;#P newex 107 64 29 196617 mtof;#P newex 420 104 55 196617 * 0.28554;#P newex 546 104 55 196617 * 0.29424;#P newex 107 277 27 196617 *~;#P newex 233 277 27 196617 *~;#P newex 357 276 27 196617 *~;#P newex 483 276 27 196617 *~;#P newex 152 323 27 196617 -~;#P newex 107 323 27 196617 +~;#P newex 243 323 27 196617 -~;#P newex 198 323 27 196617 +~;#P newex 198 359 27 196617 +~;#P newex 243 359 27 196617 -~;#P newex 107 359 27 196617 +~;#P newex 152 359 27 196617 -~;#P newex 154 464 27 196617 *~;#P newex 262 464 27 196617 *~;#P newex 407 440 134 196617 delread~ noisedel 9.3;#P newex 407 464 27 196617 *~;#P outlet 46 539 15 0;#P newex 262 440 140 196617 delread~ noisedel 17.700002;#P newex 46 464 27 196617 *~;#P newex 154 439 104 196617 delread~ noisedel 25.;#P newex 46 439 104 196617 delread~ noisedel 25.;#P comment 21 70 51 196617 trigger in;#P newex 296 242 82 196617 cycle~ noise.snd;#P newex 546 241 82 196617 cycle~ noise.snd;#P newex 483 214 82 196617 cycle~ noise.snd;#P newex 420 190 82 196617 cycle~ noise.snd;#P newex 357 160 82 196617 cycle~ noise.snd;#P newex 233 215 82 196617 cycle~ noise.snd;#P newex 170 188 82 196617 cycle~ noise.snd;#P newex 107 161 82 196617 cycle~ noise.snd;#P newex 107 23 106 196617 r $1;#P comment 222 25 85 196617 fnois (mod index);#P comment 65 540 50 196617 sound out;#P connect 12 0 14 0;#P connect 14 0 16 0;#P connect 17 0 16 0;#P connect 19 0 16 0;#P connect 20 0 16 0;#P connect 22 0 14 1;#P connect 2 0 42 0;#P connect 42 0 35 0;#P connect 35 0 36 0;#P connect 36 0 3 0;#P connect 3 0 32 0;#P connect 32 0 27 0;#P connect 27 0 22 0;#P connect 4 0 32 1;#P connect 31 0 27 1;#P connect 25 0 22 1;#P connect 32 0 28 0;#P connect 27 0 21 0;#P connect 13 0 20 0;#P connect 31 0 28 1;#P connect 25 0 21 1;#P connect 35 0 39 0;#P connect 39 0 4 0;#P connect 21 0 20 1;#P connect 30 0 25 0;#P connect 28 0 24 0;#P connect 29 0 25 1;#P connect 26 0 24 1;#P connect 35 0 38 0;#P connect 38 0 5 0;#P connect 5 0 31 0;#P connect 30 0 26 0;#P connect 26 0 23 0;#P connect 28 0 23 0;#P connect 10 0 31 1;#P connect 29 0 26 1;#P connect 15 0 19 0;#P connect 24 0 19 1;#P connect 35 0 37 0;#P connect 37 0 10 0;#P connect 35 0 40 0;#P connect 40 0 6 0;#P connect 6 0 30 0;#P connect 44 0 43 0;#P connect 7 0 30 1;#P connect 18 0 17 0;#P connect 35 0 34 0;#P connect 34 0 7 0;#P connect 23 0 17 1;#P connect 35 0 41 0;#P connect 41 0 8 0;#P connect 8 0 29 0;#P connect 9 0 29 1;#P connect 35 0 33 0;#P connect 33 0 9 0;#P pop;