max v2;#N vpatcher 81 72 992 746;#P message 524 601 52 3 59si;#P message 506 575 52 3 58la#;#P message 487 547 52 3 57la;#P message 468 509 62 3 56sol#;#P message 449 642 52 3 55sol;#P message 430 614 52 3 54fa#;#P message 411 588 52 3 53fa;#P message 393 561 52 3 52mi;#P message 373 531 52 3 51re#;#P message 354 502 52 3 50re;#P newex 354 470 206 3 sel 50 51 52 53 54 55 56 57 58 59;#P newex 1 45 48 3 sel 60;#P newex 53 44 206 3 sel 61 62 63 64 65 66 67 68 69 70;#P newex 264 44 206 3 sel 71 72 73 74 75 76 77 78 79 80;#P newex 473 43 206 3 sel 81 82 83 84 85 86 87 88 89 90;#P newex 682 43 164 3 sel 91 92 93 94 95 96;#P message 0 86 41 3 60do;#P message 52 140 65 3 61* do#;#P message 92 207 72 3 63*** re#;#P message 111 238 72 3 64**** mi;#P message 129 269 75 3 65***** fa;#P message 166 333 98 3 67******* sol;#P message 72 176 57 3 62** re;#P message 147 305 93 3 66****** fa#;#P message 206 387 106 3 69********* la;#P message 185 360 108 3 68******** sol#;#P message 224 419 117 3 70********** la#;#P message 264 131 140 3 71*********** si;#P message 284 167 132 3 72************ do;#P message 304 198 147 3 73************* do#;#P message 323 229 145 3 74************** re;#P message 341 260 156 3 75*************** re#;#P message 359 296 159 3 76**************** mi;#P message 378 324 163 3 77***************** fa;#P message 397 351 176 3 78****************** fa#;#P message 414 378 181 3 79******************* sol;#P message 436 410 197 3 80******************** sol#;#P message 474 133 187 3 81********************* la;#P message 512 194 204 3 83*********************** si;#P message 532 225 214 3 84************************ do;#P message 550 256 226 3 85************************* do#;#P message 568 292 227 3 86************************** re;#P message 587 320 241 3 87*************************** re#;#P message 606 347 241 3 88**************************** mi;#P message 645 406 262 3 90****************************** fa#;#P message 624 374 246 3 89***************************** fa;#P message 683 107 274 3 91******************************* sol;#P message 707 137 286 3 92******************************** sol#;#P message 730 168 302 3 93********************************* la;#P message 756 199 302 3 94********************************** la#;#P message 781 230 317 3 95*********************************** si;#P message 806 266 336 3 96************************************ do;#P message 491 163 201 3 82********************** la#;#P newex 0 482 101 3 print NOTE;#P inlet 1 17 15;#P connect 54 0 1 0;#P connect 53 0 1 0;#P connect 52 0 1 0;#P connect 51 0 1 0;#P connect 50 0 1 0;#P connect 49 0 1 0;#P connect 48 0 1 0;#P connect 47 0 1 0;#P connect 46 0 1 0;#P connect 45 0 1 0;#P connect 39 6 44 0;#P connect 44 9 54 0;#P connect 44 8 53 0;#P connect 44 7 52 0;#P connect 44 6 51 0;#P connect 44 5 50 0;#P connect 44 4 49 0;#P connect 44 3 48 0;#P connect 44 2 47 0;#P connect 44 1 46 0;#P connect 44 0 45 0;#P connect 43 1 42 0;#P connect 42 10 41 0;#P connect 41 10 40 0;#P connect 40 10 39 0;#P connect 43 0 38 0;#P connect 38 0 1 0;#P connect 42 0 37 0;#P connect 42 1 32 0;#P connect 42 2 36 0;#P connect 42 3 35 0;#P connect 42 4 34 0;#P connect 42 5 31 0;#P connect 42 6 33 0;#P connect 42 7 29 0;#P connect 42 8 30 0;#P connect 42 9 28 0;#P connect 37 0 1 0;#P connect 32 0 1 0;#P connect 36 0 1 0;#P connect 35 0 1 0;#P connect 34 0 1 0;#P connect 31 0 1 0;#P connect 33 0 1 0;#P connect 29 0 1 0;#P connect 30 0 1 0;#P connect 28 0 1 0;#P connect 41 0 27 0;#P connect 41 1 26 0;#P connect 41 2 25 0;#P connect 41 3 24 0;#P connect 41 4 23 0;#P connect 41 5 22 0;#P connect 41 6 21 0;#P connect 41 7 20 0;#P connect 41 8 19 0;#P connect 41 9 18 0;#P connect 40 0 17 0;#P connect 40 1 2 0;#P connect 40 2 16 0;#P connect 40 3 15 0;#P connect 40 4 14 0;#P connect 40 5 13 0;#P connect 40 6 12 0;#P connect 40 7 11 0;#P connect 40 8 9 0;#P connect 40 9 10 0;#P connect 39 0 8 0;#P connect 39 1 7 0;#P connect 39 2 6 0;#P connect 39 3 5 0;#P connect 39 4 4 0;#P connect 39 5 3 0;#P connect 27 0 1 0;#P connect 26 0 1 0;#P connect 25 0 1 0;#P connect 24 0 1 0;#P connect 23 0 1 0;#P connect 22 0 1 0;#P connect 21 0 1 0;#P connect 20 0 1 0;#P connect 19 0 1 0;#P connect 18 0 1 0;#P connect 17 0 1 0;#P connect 2 0 1 0;#P connect 16 0 1 0;#P connect 15 0 1 0;#P connect 14 0 1 0;#P connect 13 0 1 0;#P connect 12 0 1 0;#P connect 11 0 1 0;#P connect 9 0 1 0;#P connect 10 0 1 0;#P connect 8 0 1 0;#P connect 7 0 1 0;#P connect 6 0 1 0;#P connect 5 0 1 0;#P connect 4 0 1 0;#P connect 3 0 1 0;#P connect 0 0 43 0;#P pop;