max v2;#N vpatcher 249 134 884 672;#P flonum 280 400 35 9 0 0 0 3 0 0 0 221 221 221 222 222 222 0 0 0;#P flonum 444 436 35 9 0 0 0 3 0 0 0 221 221 221 222 222 222 0 0 0;#P flonum 272 183 35 9 0 0 0 3 0 0 0 221 221 221 222 222 222 0 0 0;#P flonum 329 237 35 9 0 0 0 3 0 0 0 221 221 221 222 222 222 0 0 0;#P flonum 390 263 35 9 0 0 0 3 0 0 0 221 221 221 222 222 222 0 0 0;#P flonum 222 107 35 9 0 0 0 3 0 0 0 221 221 221 222 222 222 0 0 0;#P flonum 258 98 35 9 0 0 0 3 0 0 0 221 221 221 222 222 222 0 0 0;#P flonum 244 80 35 9 0 0 0 3 0 0 0 221 221 221 222 222 222 0 0 0;#P flonum 243 62 35 9 0 0 0 3 0 0 0 221 221 221 222 222 222 0 0 0;#P newex 227 166 36 196617 / 80.;#P newex 251 356 28 196617 /~;#P newex 251 309 45 196617 sig~ 1.;#P newex 227 247 26 196617 *~;#P newex 170 305 29 196617 *~;#P newex 170 166 43 196617 line~ 3;#P newex 227 281 32 196617 +~ 1.;#P newex 326 206 37 196617 / 512.;#P newex 227 214 79 196617 cycle~ vib1.snd;#P newex 170 356 50 196617 phasor~;#P newex 170 386 33 196617 *~ 2.;#P newex 72 382 72 196617 cycle~ sin.snd;#P outlet 72 453 15 0;#P outlet 170 453 15 0;#P outlet 251 453 15 0;#P comment 251 470 68 196617 1/freq;#P comment 15 100 50 196617 order forcing;#P inlet 28 134 15 0;#P comment 340 470 62 196617 phase shift;#P outlet 340 453 15 0;#P comment 442 250 58 196617 freqshift;#P newex 340 421 58 196617 phasor~;#P newex 440 395 141 196617 expr int($f1 + .5) - $f1;#P newex 440 373 64 196617 snapshot~;#P newex 440 296 50 196617 == 0;#P newex 480 325 66 196617 r paf-metro;#P newex 440 347 50 196617 gate;#P newex 340 370 32 196617 0.;#P newex 380 370 38 196617 mtof;#P newex 380 347 38 196617 - 60;#P newex 340 305 50 196617 sel 0;#P comment 167 470 68 196617 sawtooth;#P comment 71 470 68 196617 sine wave;#P newex 440 268 92 196617 r $2;#P newex 326 178 92 196617 r $3;#P newex 392 52 94 196617 r $1-line;#P number 392 78 35 9 0 0 0 3 0 0 0 221 221 221 222 222 222 0 0 0;#P comment 424 94 113 196617 this is a hook to allow glissandi which isn't implemented in the controller window.;#P message 504 62 46 196617 0;#P newex 504 36 44 196617 r reset;#P newex 227 143 92 196617 r $4;#P newex 170 37 92 196617 r $1;#P comment 208 23 51 196617 pitch;#P newex 170 111 38 196617 mtof;#P newex 170 133 50 196617 pack 0. 0;#P newex 170 85 38 196617 - 12.;#P newex 170 60 37 196617 * 0.01;#P comment 360 165 57 196617 vib depth;#P comment 271 129 50 196617 vib freq;#P connect 37 0 36 0;#P connect 39 0 37 1;#P connect 7 0 2 0;#P connect 2 0 3 0;#P connect 3 0 5 0;#P connect 5 0 4 0;#P connect 4 0 43 0;#P connect 43 0 44 0;#P connect 44 0 39 0;#P connect 39 0 38 0;#P connect 38 0 35 0;#P connect 42 0 44 1;#P connect 12 0 4 1;#P connect 5 0 52 0;#P connect 8 0 48 0;#P connect 48 0 40 0;#P connect 40 0 45 0;#P connect 45 0 42 0;#P connect 7 0 49 0;#P connect 41 0 45 1;#P connect 2 0 50 0;#P connect 46 0 47 0;#P connect 47 0 34 0;#P connect 3 0 51 0;#P connect 44 0 47 1;#P connect 48 0 55 0;#P connect 20 0 57 0;#P connect 14 0 41 0;#P connect 41 0 54 0;#P connect 15 0 18 0;#P connect 18 0 21 0;#P connect 20 0 27 0;#P connect 26 0 27 0;#P connect 21 0 27 0;#P connect 27 0 29 0;#P connect 18 1 19 0;#P connect 19 0 20 0;#P connect 15 0 53 0;#P connect 10 0 12 0;#P connect 13 0 12 0;#P connect 15 0 24 0;#P connect 24 0 22 0;#P connect 27 0 25 0;#P connect 22 0 25 0;#P connect 25 0 26 0;#P connect 26 0 56 0;#P connect 23 0 22 1;#P connect 9 0 10 0;#P pop;