max v2;#N vpatcher 125 44 544 445 -1;#P message 13 126 34 1 stop;#P message 242 109 23 1 0;#P message 307 209 71 1 rewind \, next;#P newex 251 331 55 1 unpack;#P message 151 333 29 1 0;#P message 200 272 40 1 next 0;#P newex 101 247 110 1 t b i b;#P newex 101 225 85 1 split 0 100000;#P newex 101 204 152 1 -;#P newex 151 274 46 1 split 1 100000;#P inlet 251 308 15;#P outlet 307 290 15;#P newex 74 38 42 1 i;#P inlet 74 19 15;#P newex 74 62 50 1 sel 0;#P newex 74 89 33 1 t b b;#P newex 13 351 31 1 del;#P connect 1 0 16 0;#P connect 1 0 14 0;#P connect 1 1 15 0;#P connect 2 0 1 0;#P connect 10 2 11 0;#P connect 10 1 7 0;#P connect 9 0 10 0;#P connect 10 0 0 0;#P connect 13 1 8 1;#P connect 13 0 0 1;#P connect 16 0 0 0;#P connect 0 0 8 0;#P connect 2 1 8 0;#P connect 15 0 8 1;#P connect 8 0 9 0;#P connect 7 0 12 0;#P connect 12 0 0 1;#P connect 14 0 5 0;#P connect 11 0 5 0;#P connect 6 0 13 0;#P connect 3 0 4 0;#P connect 4 0 2 0;#P pop;