max v2;#N vpatcher 205 225 901 681;#P newex 245 417 74 1 pack 0 0 0;#P newex 245 380 74 1 poly 16 1;#P newex 245 341 96 1 makenote;#P newex 434 208 74 1 * 10000000;#P newex 20 289 53 1 +;#P newex 20 266 39 1 +;#P message 405 294 35 1 2000;#P newex 351 270 64 1 split 0 2000;#P comment 419 48 79 1 sample number;#P comment 335 46 50 1 duration;#P inlet 434 67 15;#P message 194 223 61 1 100000000;#P newex 42 214 51 1 * 100000;#P newex 167 131 37 1 t i b;#P newex 42 187 31 1 i;#P newex 20 241 32 1 +;#P newex 20 164 32 1 t i b;#P newex 143 156 32 1 t i b;#P newex 105 192 39 1 + 1;#P newex 105 215 40 1 % 100;#P message 165 223 25 1 0;#P newex 93 59 63 1 split 0 8300;#P comment 50 40 35 1 pitch;#P inlet 93 39 15;#P newex 167 105 50 1 - 2400;#P newex 167 80 73 1 split 0 10700;#P inlet 287 63 15;#P comment 275 43 50 1 velocity;#P inlet 348 65 15;#P newex 556 262 50 1 r reset;#P outlet 245 441 15;#P message 576 362 37 1 stop;#P connect 31 0 1 0;#P connect 30 2 31 1;#P connect 30 1 31 2;#P connect 30 0 31 0;#P connect 29 0 30 0;#P connect 29 1 30 1;#P connect 0 0 30 0;#P connect 27 0 29 0;#P connect 28 0 27 1;#P connect 26 0 27 0;#P connect 21 0 28 0;#P connect 18 1 20 0;#P connect 17 0 13 0;#P connect 15 1 17 0;#P connect 15 0 16 0;#P connect 12 0 17 1;#P connect 13 0 12 0;#P connect 19 0 16 1;#P connect 17 0 19 0;#P connect 24 1 25 0;#P connect 24 0 29 2;#P connect 25 0 29 2;#P connect 16 0 26 0;#P connect 11 0 26 1;#P connect 14 0 15 0;#P connect 14 1 11 0;#P connect 10 1 6 0;#P connect 10 0 14 0;#P connect 6 0 7 0;#P connect 18 0 15 0;#P connect 7 0 18 0;#P connect 20 0 26 1;#P connect 8 0 10 0;#P connect 5 0 29 1;#P connect 3 0 24 0;#P connect 2 0 0 0;#P pop;