max v2;#N vpatcher 7 210 727 723 -1;#P outlet 215 482 15;#P newex 240 424 35 1 *~;#P newex 215 452 35 1 +~;#P newex 240 255 36 1 line~;#P inlet 215 313 15;#P comment 167 296 60 1 signal bus;#P newex 97 181 28 1 i;#P newex 97 209 61 1 linedrive 127 0.8 1.07717 5;#P newex 165 176 28 1 i;#P newex 125 117 38 1 del 4;#P newex 188 116 38 1 del;#P message 137 49 43 1 stop;#P button 276 73;#P newex 272 47 50 1 route 0;#P inlet 272 26 15;#P comment 327 53 280 1 velocity \, pitch \, onset \, risetime \, decaytime \, steadystate;#P newex 321 82 207 1 unpack 0 0 0 0 0 0;#P newex 165 208 61 1 linedrive 127 0.8 1.07717 5;#P newex 277 208 34 1 pack 0. 4;#P newex 239 208 34 1 pack 0. 50;#P button 241 75;#P newex 332 181 50 1 t b b;#P newex 331 231 57 1 % 100000;#P newex 331 254 46 1 * 0.01;#P newex 332 206 28 1 i;#P newex 331 279 38 1 mtof;#P newex 331 301 103 1 expr 2616256./\\\$f1;#P newex 331 326 78 1 pack 0. 10000;#P newex 330 352 50 1 swap;#P message 470 425 50 1 jump \$1;#P newex 329 447 134 1 sampread~ sample1 2.1;#P newex 329 423 50 1 line~;#P newex 503 227 78 1 / 10000000;#P newex 330 384 34 1 + 0.;#P newex 471 364 37 1 i;#P comment 547 133 135 1 (pitch also encodes sample number -- ouch);#P connect 4 0 5 0;#P connect 5 0 34 1;#P connect 3 0 5 0;#P connect 26 0 14 0;#P connect 14 0 11 0;#P connect 11 0 3 0;#P connect 7 1 4 1;#P connect 22 0 24 0;#P connect 11 0 13 0;#P connect 21 0 22 0;#P connect 33 0 35 0;#P connect 34 0 33 1;#P connect 31 0 33 0;#P connect 32 0 34 0;#P connect 31 0 32 0;#P connect 31 0 4 0;#P connect 12 0 10 0;#P connect 13 0 12 0;#P connect 24 0 26 0;#P connect 23 0 26 0;#P connect 8 0 7 0;#P connect 10 0 9 0;#P connect 9 0 8 0;#P connect 22 0 15 0;#P connect 15 0 16 0;#P connect 23 0 17 0;#P connect 16 0 32 0;#P connect 17 0 32 0;#P connect 29 0 28 0;#P connect 28 0 32 0;#P connect 26 0 29 0;#P connect 6 0 5 0;#P connect 1 0 6 0;#P connect 1 0 4 0;#P connect 14 1 1 0;#P connect 1 0 2 1;#P connect 7 0 2 0;#P connect 2 0 4 0;#P connect 27 0 18 0;#P connect 18 0 32 0;#P connect 24 0 25 0;#P connect 26 0 25 0;#P connect 19 2 1 1;#P connect 22 1 19 0;#P connect 19 1 11 1;#P connect 19 0 29 1;#P connect 19 0 23 0;#P connect 19 3 28 1;#P connect 19 3 25 1;#P connect 19 4 18 1;#P connect 25 0 27 0;#P connect 19 5 27 1;#P pop;