{
	"patcher" : 	{
		"fileversion" : 1,
		"rect" : [ 17.0, 61.0, 959.0, 652.0 ],
		"bglocked" : 0,
		"defrect" : [ 17.0, 61.0, 959.0, 652.0 ],
		"openrect" : [ 0.0, 0.0, 0.0, 0.0 ],
		"openinpresentation" : 0,
		"default_fontsize" : 12.0,
		"default_fontface" : 0,
		"default_fontname" : "Arial",
		"gridonopen" : 0,
		"gridsize" : [ 4.0, 4.0 ],
		"gridsnaponopen" : 0,
		"toolbarvisible" : 1,
		"boxanimatetime" : 200,
		"imprint" : 0,
		"enablehscroll" : 1,
		"enablevscroll" : 1,
		"devicewidth" : 0.0,
		"boxes" : [ 			{
				"box" : 				{
					"maxclass" : "comment",
					"text" : "full group of tools in one patch",
					"numoutlets" : 0,
					"patching_rect" : [ 196.0, 608.0, 257.0, 20.0 ],
					"id" : "obj-82",
					"fontname" : "Arial",
					"textcolor" : [ 1.0, 1.0, 1.0, 1.0 ],
					"frgb" : [ 1.0, 1.0, 1.0, 1.0 ],
					"fontface" : 2,
					"fontsize" : 12.0,
					"presentation_rect" : [ 197.0, 606.0, 0.0, 0.0 ],
					"numinlets" : 1
				}

			}
, 			{
				"box" : 				{
					"maxclass" : "comment",
					"text" : "intro to probabilistic sequence playback",
					"numoutlets" : 0,
					"patching_rect" : [ 196.0, 584.0, 257.0, 20.0 ],
					"id" : "obj-81",
					"fontname" : "Arial",
					"textcolor" : [ 1.0, 1.0, 1.0, 1.0 ],
					"frgb" : [ 1.0, 1.0, 1.0, 1.0 ],
					"fontface" : 2,
					"fontsize" : 12.0,
					"presentation_rect" : [ 196.0, 583.0, 0.0, 0.0 ],
					"numinlets" : 1
				}

			}
, 			{
				"box" : 				{
					"maxclass" : "comment",
					"text" : "intro to sequencing scale data",
					"numoutlets" : 0,
					"patching_rect" : [ 196.0, 560.0, 257.0, 20.0 ],
					"id" : "obj-80",
					"fontname" : "Arial",
					"textcolor" : [ 1.0, 1.0, 1.0, 1.0 ],
					"frgb" : [ 1.0, 1.0, 1.0, 1.0 ],
					"fontface" : 2,
					"fontsize" : 12.0,
					"presentation_rect" : [ 197.0, 559.0, 0.0, 0.0 ],
					"numinlets" : 1
				}

			}
, 			{
				"box" : 				{
					"maxclass" : "comment",
					"text" : "visualize and design scales",
					"numoutlets" : 0,
					"patching_rect" : [ 196.0, 536.0, 257.0, 20.0 ],
					"id" : "obj-79",
					"fontname" : "Arial",
					"textcolor" : [ 1.0, 1.0, 1.0, 1.0 ],
					"frgb" : [ 1.0, 1.0, 1.0, 1.0 ],
					"fontface" : 2,
					"fontsize" : 12.0,
					"presentation_rect" : [ 195.0, 537.0, 0.0, 0.0 ],
					"numinlets" : 1
				}

			}
, 			{
				"box" : 				{
					"maxclass" : "comment",
					"text" : "explore scales of multiple chords in sequence",
					"numoutlets" : 0,
					"patching_rect" : [ 195.0, 511.0, 257.0, 20.0 ],
					"id" : "obj-78",
					"fontname" : "Arial",
					"textcolor" : [ 1.0, 1.0, 1.0, 1.0 ],
					"frgb" : [ 1.0, 1.0, 1.0, 1.0 ],
					"fontface" : 2,
					"fontsize" : 12.0,
					"numinlets" : 1
				}

			}
, 			{
				"box" : 				{
					"maxclass" : "comment",
					"text" : "explore scales of a single chord",
					"numoutlets" : 0,
					"patching_rect" : [ 196.0, 488.0, 257.0, 20.0 ],
					"id" : "obj-77",
					"fontname" : "Arial",
					"textcolor" : [ 1.0, 1.0, 1.0, 1.0 ],
					"frgb" : [ 1.0, 1.0, 1.0, 1.0 ],
					"fontface" : 2,
					"fontsize" : 12.0,
					"presentation_rect" : [ 194.0, 488.0, 0.0, 0.0 ],
					"numinlets" : 1
				}

			}
, 			{
				"box" : 				{
					"maxclass" : "comment",
					"text" : "interpolate playback of from a folder of sounds",
					"numoutlets" : 0,
					"patching_rect" : [ 196.0, 416.0, 257.0, 20.0 ],
					"id" : "obj-76",
					"fontname" : "Arial",
					"textcolor" : [ 1.0, 1.0, 1.0, 1.0 ],
					"frgb" : [ 1.0, 1.0, 1.0, 1.0 ],
					"fontface" : 2,
					"fontsize" : 12.0,
					"presentation_rect" : [ 203.0, 419.0, 0.0, 0.0 ],
					"numinlets" : 1
				}

			}
, 			{
				"box" : 				{
					"maxclass" : "comment",
					"text" : "choose soundfiles from a folder for playback ",
					"numoutlets" : 0,
					"patching_rect" : [ 196.0, 392.0, 249.0, 20.0 ],
					"id" : "obj-75",
					"fontname" : "Arial",
					"textcolor" : [ 1.0, 1.0, 1.0, 1.0 ],
					"frgb" : [ 1.0, 1.0, 1.0, 1.0 ],
					"fontface" : 2,
					"fontsize" : 12.0,
					"presentation_rect" : [ 204.0, 395.0, 0.0, 0.0 ],
					"numinlets" : 1
				}

			}
, 			{
				"box" : 				{
					"maxclass" : "message",
					"text" : "6-monocords_playspace",
					"numoutlets" : 1,
					"patching_rect" : [ 12.0, 608.0, 180.0, 18.0 ],
					"id" : "obj-74",
					"fontname" : "Arial",
					"outlettype" : [ "" ],
					"fontsize" : 12.0,
					"numinlets" : 2
				}

			}
, 			{
				"box" : 				{
					"maxclass" : "message",
					"text" : "5-probability_player",
					"numoutlets" : 1,
					"patching_rect" : [ 12.0, 584.0, 180.0, 18.0 ],
					"id" : "obj-73",
					"fontname" : "Arial",
					"outlettype" : [ "" ],
					"fontsize" : 12.0,
					"numinlets" : 2
				}

			}
, 			{
				"box" : 				{
					"maxclass" : "message",
					"text" : "4-sequencer",
					"numoutlets" : 1,
					"patching_rect" : [ 12.0, 560.0, 180.0, 18.0 ],
					"id" : "obj-72",
					"fontname" : "Arial",
					"outlettype" : [ "" ],
					"fontsize" : 12.0,
					"numinlets" : 2
				}

			}
, 			{
				"box" : 				{
					"maxclass" : "message",
					"text" : "3-tuner",
					"numoutlets" : 1,
					"patching_rect" : [ 12.0, 536.0, 180.0, 18.0 ],
					"id" : "obj-38",
					"fontname" : "Arial",
					"outlettype" : [ "" ],
					"fontsize" : 12.0,
					"numinlets" : 2
				}

			}
, 			{
				"box" : 				{
					"maxclass" : "message",
					"text" : "2-monocords",
					"numoutlets" : 1,
					"patching_rect" : [ 12.0, 512.0, 180.0, 18.0 ],
					"id" : "obj-37",
					"fontname" : "Arial",
					"outlettype" : [ "" ],
					"fontsize" : 12.0,
					"numinlets" : 2
				}

			}
, 			{
				"box" : 				{
					"maxclass" : "message",
					"text" : "sfinterp.maxhelp",
					"numoutlets" : 1,
					"patching_rect" : [ 12.0, 416.0, 180.0, 18.0 ],
					"id" : "obj-36",
					"fontname" : "Arial",
					"outlettype" : [ "" ],
					"fontsize" : 12.0,
					"numinlets" : 2
				}

			}
, 			{
				"box" : 				{
					"maxclass" : "comment",
					"text" : "LAB - Tuning and Temperament Tools ",
					"numoutlets" : 0,
					"patching_rect" : [ 12.0, 456.0, 235.0, 20.0 ],
					"id" : "obj-27",
					"fontname" : "Arial",
					"textcolor" : [ 1.0, 1.0, 1.0, 1.0 ],
					"frgb" : [ 1.0, 1.0, 1.0, 1.0 ],
					"fontface" : 3,
					"fontsize" : 12.0,
					"numinlets" : 1
				}

			}
, 			{
				"box" : 				{
					"maxclass" : "message",
					"text" : "1-monocord_explorer",
					"numoutlets" : 1,
					"patching_rect" : [ 12.0, 488.0, 180.0, 18.0 ],
					"id" : "obj-28",
					"fontname" : "Arial",
					"outlettype" : [ "" ],
					"fontsize" : 12.0,
					"numinlets" : 2
				}

			}
, 			{
				"box" : 				{
					"maxclass" : "panel",
					"numoutlets" : 0,
					"bgcolor" : [ 0.270588, 0.294118, 0.298039, 1.0 ],
					"patching_rect" : [ 8.0, 452.0, 448.0, 180.0 ],
					"id" : "obj-29",
					"rounded" : 15,
					"numinlets" : 1
				}

			}
, 			{
				"box" : 				{
					"maxclass" : "comment",
					"text" : "This patch provides access to the LAB Software for Music 29.  The actual software is located in the CNMAT MaxMSPJitter Depot software and is dependent on the CNMAT everything Download",
					"linecount" : 2,
					"numoutlets" : 0,
					"patching_rect" : [ 264.0, 16.0, 630.0, 39.0 ],
					"id" : "obj-70",
					"fontname" : "Arial",
					"textcolor" : [ 1.0, 1.0, 1.0, 1.0 ],
					"frgb" : [ 1.0, 1.0, 1.0, 1.0 ],
					"fontface" : 2,
					"fontsize" : 14.0,
					"numinlets" : 1
				}

			}
, 			{
				"box" : 				{
					"maxclass" : "comment",
					"text" : "Click on a given link (message box) to load the patch.  Keep in mind that some patches are larger than others, so you might need to wait a few moments for a given patch to load.",
					"linecount" : 3,
					"numoutlets" : 0,
					"patching_rect" : [ 464.0, 588.0, 448.0, 48.0 ],
					"id" : "obj-71",
					"fontname" : "Arial",
					"frgb" : [ 0.0, 0.0, 0.0, 1.0 ],
					"fontface" : 2,
					"fontsize" : 12.0,
					"numinlets" : 1
				}

			}
, 			{
				"box" : 				{
					"maxclass" : "comment",
					"text" : "visualization of frequency modulation",
					"numoutlets" : 0,
					"patching_rect" : [ 204.0, 160.0, 243.0, 20.0 ],
					"id" : "obj-69",
					"fontname" : "Arial",
					"textcolor" : [ 1.0, 1.0, 1.0, 1.0 ],
					"frgb" : [ 1.0, 1.0, 1.0, 1.0 ],
					"fontface" : 2,
					"fontsize" : 12.0,
					"numinlets" : 1
				}

			}
, 			{
				"box" : 				{
					"maxclass" : "message",
					"text" : "Freq-Domain-display.maxhelp",
					"numoutlets" : 1,
					"patching_rect" : [ 12.0, 160.0, 184.0, 18.0 ],
					"id" : "obj-68",
					"fontname" : "Arial",
					"outlettype" : [ "" ],
					"fontsize" : 12.0,
					"numinlets" : 2
				}

			}
, 			{
				"box" : 				{
					"maxclass" : "comment",
					"numoutlets" : 0,
					"patching_rect" : [ 660.0, 348.0, 248.0, 20.0 ],
					"id" : "obj-53",
					"fontname" : "Arial",
					"textcolor" : [ 1.0, 1.0, 1.0, 1.0 ],
					"frgb" : [ 1.0, 1.0, 1.0, 1.0 ],
					"fontface" : 2,
					"fontsize" : 12.0,
					"numinlets" : 1
				}

			}
, 			{
				"box" : 				{
					"maxclass" : "comment",
					"numoutlets" : 0,
					"patching_rect" : [ 660.0, 324.0, 243.0, 20.0 ],
					"id" : "obj-54",
					"fontname" : "Arial",
					"textcolor" : [ 1.0, 1.0, 1.0, 1.0 ],
					"frgb" : [ 1.0, 1.0, 1.0, 1.0 ],
					"fontface" : 2,
					"fontsize" : 12.0,
					"numinlets" : 1
				}

			}
, 			{
				"box" : 				{
					"maxclass" : "comment",
					"text" : "use keyboard/mouse to play an additive synth",
					"numoutlets" : 0,
					"patching_rect" : [ 656.0, 300.0, 254.0, 20.0 ],
					"id" : "obj-55",
					"fontname" : "Arial",
					"textcolor" : [ 1.0, 1.0, 1.0, 1.0 ],
					"frgb" : [ 1.0, 1.0, 1.0, 1.0 ],
					"fontface" : 2,
					"fontsize" : 12.0,
					"numinlets" : 1
				}

			}
, 			{
				"box" : 				{
					"maxclass" : "comment",
					"text" : "Internal SYNTH player",
					"numoutlets" : 0,
					"patching_rect" : [ 660.0, 276.0, 243.0, 20.0 ],
					"id" : "obj-56",
					"fontname" : "Arial",
					"textcolor" : [ 1.0, 1.0, 1.0, 1.0 ],
					"frgb" : [ 1.0, 1.0, 1.0, 1.0 ],
					"fontface" : 2,
					"fontsize" : 12.0,
					"numinlets" : 1
				}

			}
, 			{
				"box" : 				{
					"maxclass" : "message",
					"numoutlets" : 1,
					"patching_rect" : [ 468.0, 348.0, 184.0, 18.0 ],
					"id" : "obj-62",
					"fontname" : "Arial",
					"outlettype" : [ "" ],
					"fontsize" : 12.0,
					"numinlets" : 2
				}

			}
, 			{
				"box" : 				{
					"maxclass" : "message",
					"numoutlets" : 1,
					"patching_rect" : [ 468.0, 324.0, 184.0, 18.0 ],
					"id" : "obj-63",
					"fontname" : "Arial",
					"outlettype" : [ "" ],
					"fontsize" : 12.0,
					"numinlets" : 2
				}

			}
, 			{
				"box" : 				{
					"maxclass" : "message",
					"text" : "additive-keymouse-synthesizer",
					"numoutlets" : 1,
					"patching_rect" : [ 468.0, 300.0, 180.0, 18.0 ],
					"id" : "obj-64",
					"fontname" : "Arial",
					"outlettype" : [ "" ],
					"fontsize" : 12.0,
					"numinlets" : 2
				}

			}
, 			{
				"box" : 				{
					"maxclass" : "comment",
					"text" : "LAB - Timbre and Texture Domain Tools",
					"numoutlets" : 0,
					"patching_rect" : [ 468.0, 244.0, 242.0, 20.0 ],
					"id" : "obj-65",
					"fontname" : "Arial",
					"textcolor" : [ 1.0, 1.0, 1.0, 1.0 ],
					"frgb" : [ 1.0, 1.0, 1.0, 1.0 ],
					"fontface" : 3,
					"fontsize" : 12.0,
					"numinlets" : 1
				}

			}
, 			{
				"box" : 				{
					"maxclass" : "message",
					"text" : "Internal_Synth_OSC.maxpat",
					"numoutlets" : 1,
					"patching_rect" : [ 468.0, 276.0, 184.0, 18.0 ],
					"id" : "obj-66",
					"fontname" : "Arial",
					"outlettype" : [ "" ],
					"fontsize" : 12.0,
					"numinlets" : 2
				}

			}
, 			{
				"box" : 				{
					"maxclass" : "panel",
					"numoutlets" : 0,
					"bgcolor" : [ 0.270588, 0.294118, 0.298039, 1.0 ],
					"patching_rect" : [ 464.0, 240.0, 444.0, 132.0 ],
					"id" : "obj-67",
					"rounded" : 15,
					"numinlets" : 1
				}

			}
, 			{
				"box" : 				{
					"maxclass" : "comment",
					"numoutlets" : 0,
					"patching_rect" : [ 660.0, 208.0, 243.0, 20.0 ],
					"id" : "obj-31",
					"fontname" : "Arial",
					"textcolor" : [ 1.0, 1.0, 1.0, 1.0 ],
					"frgb" : [ 1.0, 1.0, 1.0, 1.0 ],
					"fontface" : 2,
					"fontsize" : 12.0,
					"numinlets" : 1
				}

			}
, 			{
				"box" : 				{
					"maxclass" : "comment",
					"numoutlets" : 0,
					"patching_rect" : [ 660.0, 184.0, 248.0, 20.0 ],
					"id" : "obj-32",
					"fontname" : "Arial",
					"textcolor" : [ 1.0, 1.0, 1.0, 1.0 ],
					"frgb" : [ 1.0, 1.0, 1.0, 1.0 ],
					"fontface" : 2,
					"fontsize" : 12.0,
					"numinlets" : 1
				}

			}
, 			{
				"box" : 				{
					"maxclass" : "comment",
					"text" : "control divisions of a master pattern",
					"numoutlets" : 0,
					"patching_rect" : [ 660.0, 160.0, 243.0, 20.0 ],
					"id" : "obj-33",
					"fontname" : "Arial",
					"textcolor" : [ 1.0, 1.0, 1.0, 1.0 ],
					"frgb" : [ 1.0, 1.0, 1.0, 1.0 ],
					"fontface" : 2,
					"fontsize" : 12.0,
					"numinlets" : 1
				}

			}
, 			{
				"box" : 				{
					"maxclass" : "comment",
					"text" : "independent rhythms in tandem",
					"numoutlets" : 0,
					"patching_rect" : [ 660.0, 136.0, 255.0, 20.0 ],
					"id" : "obj-34",
					"fontname" : "Arial",
					"textcolor" : [ 1.0, 1.0, 1.0, 1.0 ],
					"frgb" : [ 1.0, 1.0, 1.0, 1.0 ],
					"fontface" : 2,
					"fontsize" : 12.0,
					"numinlets" : 1
				}

			}
, 			{
				"box" : 				{
					"maxclass" : "comment",
					"text" : "dividing a beat into various segments",
					"numoutlets" : 0,
					"patching_rect" : [ 660.0, 112.0, 243.0, 20.0 ],
					"id" : "obj-35",
					"fontname" : "Arial",
					"textcolor" : [ 1.0, 1.0, 1.0, 1.0 ],
					"frgb" : [ 1.0, 1.0, 1.0, 1.0 ],
					"fontface" : 2,
					"fontsize" : 12.0,
					"numinlets" : 1
				}

			}
, 			{
				"box" : 				{
					"maxclass" : "message",
					"numoutlets" : 1,
					"patching_rect" : [ 468.0, 208.0, 184.0, 18.0 ],
					"id" : "obj-40",
					"fontname" : "Arial",
					"outlettype" : [ "" ],
					"fontsize" : 12.0,
					"numinlets" : 2
				}

			}
, 			{
				"box" : 				{
					"maxclass" : "message",
					"numoutlets" : 1,
					"patching_rect" : [ 468.0, 184.0, 184.0, 18.0 ],
					"id" : "obj-42",
					"fontname" : "Arial",
					"outlettype" : [ "" ],
					"fontsize" : 12.0,
					"numinlets" : 2
				}

			}
, 			{
				"box" : 				{
					"maxclass" : "message",
					"text" : "divided-step-sequencer.maxpat",
					"numoutlets" : 1,
					"patching_rect" : [ 468.0, 160.0, 184.0, 18.0 ],
					"id" : "obj-43",
					"fontname" : "Arial",
					"outlettype" : [ "" ],
					"fontsize" : 12.0,
					"numinlets" : 2
				}

			}
, 			{
				"box" : 				{
					"maxclass" : "message",
					"text" : "polyrhythm-explorer.maxpat",
					"numoutlets" : 1,
					"patching_rect" : [ 468.0, 136.0, 184.0, 18.0 ],
					"id" : "obj-44",
					"fontname" : "Arial",
					"outlettype" : [ "" ],
					"fontsize" : 12.0,
					"numinlets" : 2
				}

			}
, 			{
				"box" : 				{
					"maxclass" : "comment",
					"text" : "LAB - Time Domain Tools",
					"numoutlets" : 0,
					"patching_rect" : [ 468.0, 76.0, 209.0, 20.0 ],
					"id" : "obj-45",
					"fontname" : "Arial",
					"textcolor" : [ 1.0, 1.0, 1.0, 1.0 ],
					"frgb" : [ 1.0, 1.0, 1.0, 1.0 ],
					"fontface" : 3,
					"fontsize" : 12.0,
					"numinlets" : 1
				}

			}
, 			{
				"box" : 				{
					"maxclass" : "message",
					"text" : "beat-slicer.maxpat",
					"numoutlets" : 1,
					"patching_rect" : [ 468.0, 112.0, 184.0, 18.0 ],
					"id" : "obj-46",
					"fontname" : "Arial",
					"outlettype" : [ "" ],
					"fontsize" : 12.0,
					"numinlets" : 2
				}

			}
, 			{
				"box" : 				{
					"maxclass" : "panel",
					"numoutlets" : 0,
					"bgcolor" : [ 0.270588, 0.294118, 0.298039, 1.0 ],
					"patching_rect" : [ 464.0, 72.0, 456.0, 160.0 ],
					"id" : "obj-48",
					"rounded" : 15,
					"numinlets" : 1
				}

			}
, 			{
				"box" : 				{
					"maxclass" : "comment",
					"text" : "sequence series generation",
					"numoutlets" : 0,
					"patching_rect" : [ 204.0, 328.0, 243.0, 20.0 ],
					"id" : "obj-26",
					"fontname" : "Arial",
					"textcolor" : [ 1.0, 1.0, 1.0, 1.0 ],
					"frgb" : [ 1.0, 1.0, 1.0, 1.0 ],
					"fontface" : 2,
					"fontsize" : 12.0,
					"numinlets" : 1
				}

			}
, 			{
				"box" : 				{
					"maxclass" : "comment",
					"text" : "altering pitch in real time",
					"numoutlets" : 0,
					"patching_rect" : [ 204.0, 304.0, 244.0, 20.0 ],
					"id" : "obj-25",
					"fontname" : "Arial",
					"textcolor" : [ 1.0, 1.0, 1.0, 1.0 ],
					"frgb" : [ 1.0, 1.0, 1.0, 1.0 ],
					"fontface" : 2,
					"fontsize" : 12.0,
					"numinlets" : 1
				}

			}
, 			{
				"box" : 				{
					"maxclass" : "comment",
					"text" : "vocal synthesis using harmonics",
					"numoutlets" : 0,
					"patching_rect" : [ 204.0, 280.0, 243.0, 20.0 ],
					"id" : "obj-24",
					"fontname" : "Arial",
					"textcolor" : [ 1.0, 1.0, 1.0, 1.0 ],
					"frgb" : [ 1.0, 1.0, 1.0, 1.0 ],
					"fontface" : 2,
					"fontsize" : 12.0,
					"numinlets" : 1
				}

			}
, 			{
				"box" : 				{
					"maxclass" : "comment",
					"text" : "basic synthesis explained",
					"numoutlets" : 0,
					"patching_rect" : [ 204.0, 256.0, 243.0, 20.0 ],
					"id" : "obj-23",
					"fontname" : "Arial",
					"textcolor" : [ 1.0, 1.0, 1.0, 1.0 ],
					"frgb" : [ 1.0, 1.0, 1.0, 1.0 ],
					"fontface" : 2,
					"fontsize" : 12.0,
					"numinlets" : 1
				}

			}
, 			{
				"box" : 				{
					"maxclass" : "comment",
					"text" : "harmonic series and partials of F0",
					"numoutlets" : 0,
					"patching_rect" : [ 204.0, 232.0, 263.0, 20.0 ],
					"id" : "obj-22",
					"fontname" : "Arial",
					"textcolor" : [ 1.0, 1.0, 1.0, 1.0 ],
					"frgb" : [ 1.0, 1.0, 1.0, 1.0 ],
					"fontface" : 2,
					"fontsize" : 12.0,
					"numinlets" : 1
				}

			}
, 			{
				"box" : 				{
					"maxclass" : "comment",
					"text" : "basics on creating rich sinusoidal waveforms",
					"numoutlets" : 0,
					"patching_rect" : [ 204.0, 208.0, 248.0, 20.0 ],
					"id" : "obj-21",
					"fontname" : "Arial",
					"textcolor" : [ 1.0, 1.0, 1.0, 1.0 ],
					"frgb" : [ 1.0, 1.0, 1.0, 1.0 ],
					"fontface" : 2,
					"fontsize" : 12.0,
					"numinlets" : 1
				}

			}
, 			{
				"box" : 				{
					"maxclass" : "comment",
					"text" : "how the cycle~ object relates to sine waves",
					"numoutlets" : 0,
					"patching_rect" : [ 204.0, 184.0, 243.0, 20.0 ],
					"id" : "obj-20",
					"fontname" : "Arial",
					"textcolor" : [ 1.0, 1.0, 1.0, 1.0 ],
					"frgb" : [ 1.0, 1.0, 1.0, 1.0 ],
					"fontface" : 2,
					"fontsize" : 12.0,
					"numinlets" : 1
				}

			}
, 			{
				"box" : 				{
					"maxclass" : "comment",
					"text" : "differences between time and freq",
					"numoutlets" : 0,
					"patching_rect" : [ 204.0, 136.0, 243.0, 20.0 ],
					"id" : "obj-19",
					"fontname" : "Arial",
					"textcolor" : [ 1.0, 1.0, 1.0, 1.0 ],
					"frgb" : [ 1.0, 1.0, 1.0, 1.0 ],
					"fontface" : 2,
					"fontsize" : 12.0,
					"numinlets" : 1
				}

			}
, 			{
				"box" : 				{
					"maxclass" : "comment",
					"text" : "the physics of sine waves",
					"numoutlets" : 0,
					"patching_rect" : [ 204.0, 112.0, 243.0, 20.0 ],
					"id" : "obj-18",
					"fontname" : "Arial",
					"textcolor" : [ 1.0, 1.0, 1.0, 1.0 ],
					"frgb" : [ 1.0, 1.0, 1.0, 1.0 ],
					"fontface" : 2,
					"fontsize" : 12.0,
					"numinlets" : 1
				}

			}
, 			{
				"box" : 				{
					"maxclass" : "message",
					"text" : "Lucas-sequence-maker.maxhelp",
					"numoutlets" : 1,
					"patching_rect" : [ 12.0, 328.0, 184.0, 18.0 ],
					"id" : "obj-14",
					"fontname" : "Arial",
					"outlettype" : [ "" ],
					"fontsize" : 12.0,
					"numinlets" : 2
				}

			}
, 			{
				"box" : 				{
					"maxclass" : "message",
					"text" : "03-pitch_processing.maxpat",
					"numoutlets" : 1,
					"patching_rect" : [ 12.0, 304.0, 184.0, 18.0 ],
					"id" : "obj-13",
					"fontname" : "Arial",
					"outlettype" : [ "" ],
					"fontsize" : 12.0,
					"numinlets" : 2
				}

			}
, 			{
				"box" : 				{
					"maxclass" : "message",
					"text" : "singing-voice~.help.pat",
					"numoutlets" : 1,
					"patching_rect" : [ 12.0, 280.0, 184.0, 18.0 ],
					"id" : "obj-12",
					"fontname" : "Arial",
					"outlettype" : [ "" ],
					"fontsize" : 12.0,
					"numinlets" : 2
				}

			}
, 			{
				"box" : 				{
					"maxclass" : "message",
					"text" : "08-Simple-synthesis.maxpat",
					"numoutlets" : 1,
					"patching_rect" : [ 12.0, 256.0, 184.0, 18.0 ],
					"id" : "obj-11",
					"fontname" : "Arial",
					"outlettype" : [ "" ],
					"fontsize" : 12.0,
					"numinlets" : 2
				}

			}
, 			{
				"box" : 				{
					"maxclass" : "message",
					"text" : "07-harmonic-waves.maxpat",
					"numoutlets" : 1,
					"patching_rect" : [ 12.0, 232.0, 184.0, 18.0 ],
					"id" : "obj-10",
					"fontname" : "Arial",
					"outlettype" : [ "" ],
					"fontsize" : 12.0,
					"numinlets" : 2
				}

			}
, 			{
				"box" : 				{
					"maxclass" : "message",
					"text" : "06-additive-synthesis.maxpat",
					"numoutlets" : 1,
					"patching_rect" : [ 12.0, 208.0, 184.0, 18.0 ],
					"id" : "obj-9",
					"fontname" : "Arial",
					"outlettype" : [ "" ],
					"fontsize" : 12.0,
					"numinlets" : 2
				}

			}
, 			{
				"box" : 				{
					"maxclass" : "message",
					"text" : "03-MSP_cycle_object.maxpat",
					"numoutlets" : 1,
					"patching_rect" : [ 12.0, 184.0, 184.0, 18.0 ],
					"id" : "obj-8",
					"fontname" : "Arial",
					"outlettype" : [ "" ],
					"fontsize" : 12.0,
					"numinlets" : 2
				}

			}
, 			{
				"box" : 				{
					"maxclass" : "message",
					"text" : "00-frequency_domain.maxpat",
					"numoutlets" : 1,
					"patching_rect" : [ 12.0, 136.0, 184.0, 18.0 ],
					"id" : "obj-7",
					"fontname" : "Arial",
					"outlettype" : [ "" ],
					"fontsize" : 12.0,
					"numinlets" : 2
				}

			}
, 			{
				"box" : 				{
					"maxclass" : "comment",
					"text" : "LAB - Frequency Domain Tools",
					"numoutlets" : 0,
					"patching_rect" : [ 12.0, 76.0, 209.0, 20.0 ],
					"id" : "obj-5",
					"fontname" : "Arial",
					"textcolor" : [ 1.0, 1.0, 1.0, 1.0 ],
					"frgb" : [ 1.0, 1.0, 1.0, 1.0 ],
					"fontface" : 3,
					"fontsize" : 12.0,
					"numinlets" : 1
				}

			}
, 			{
				"box" : 				{
					"maxclass" : "message",
					"text" : "02-sinewaves-sampling.maxpat",
					"numoutlets" : 1,
					"patching_rect" : [ 12.0, 112.0, 184.0, 18.0 ],
					"id" : "obj-6",
					"fontname" : "Arial",
					"outlettype" : [ "" ],
					"fontsize" : 12.0,
					"numinlets" : 2
				}

			}
, 			{
				"box" : 				{
					"maxclass" : "comment",
					"text" : "LAB - Sound File Interpolaton Tools",
					"numoutlets" : 0,
					"patching_rect" : [ 12.0, 364.0, 215.0, 20.0 ],
					"id" : "obj-4",
					"fontname" : "Arial",
					"textcolor" : [ 1.0, 1.0, 1.0, 1.0 ],
					"frgb" : [ 1.0, 1.0, 1.0, 1.0 ],
					"fontface" : 3,
					"fontsize" : 12.0,
					"numinlets" : 1
				}

			}
, 			{
				"box" : 				{
					"maxclass" : "comment",
					"text" : "MUS29 Overview:  ",
					"numoutlets" : 0,
					"patching_rect" : [ 16.0, 20.0, 435.0, 35.0 ],
					"id" : "obj-3",
					"fontname" : "Arial",
					"textcolor" : [ 1.0, 1.0, 1.0, 1.0 ],
					"frgb" : [ 1.0, 1.0, 1.0, 1.0 ],
					"fontface" : 1,
					"fontsize" : 25.0,
					"numinlets" : 1
				}

			}
, 			{
				"box" : 				{
					"maxclass" : "message",
					"text" : "samplemixer.maxpat",
					"numoutlets" : 1,
					"patching_rect" : [ 13.0, 392.0, 179.0, 18.0 ],
					"id" : "obj-2",
					"fontname" : "Arial",
					"outlettype" : [ "" ],
					"fontsize" : 12.0,
					"numinlets" : 2
				}

			}
, 			{
				"box" : 				{
					"maxclass" : "newobj",
					"text" : "pcontrol",
					"numoutlets" : 1,
					"patching_rect" : [ 260.0, 696.0, 43.0, 17.0 ],
					"id" : "obj-1",
					"hidden" : 1,
					"fontname" : "Arial",
					"outlettype" : [ "" ],
					"fontsize" : 9.0,
					"numinlets" : 1
				}

			}
, 			{
				"box" : 				{
					"maxclass" : "newobj",
					"text" : "prepend load",
					"numoutlets" : 1,
					"patching_rect" : [ 260.0, 669.0, 63.0, 17.0 ],
					"id" : "obj-41",
					"hidden" : 1,
					"fontname" : "Arial",
					"outlettype" : [ "" ],
					"fontsize" : 9.0,
					"numinlets" : 1
				}

			}
, 			{
				"box" : 				{
					"maxclass" : "panel",
					"numoutlets" : 0,
					"bgcolor" : [ 0.270588, 0.294118, 0.298039, 1.0 ],
					"patching_rect" : [ 8.0, 72.0, 448.0, 280.0 ],
					"id" : "obj-15",
					"rounded" : 15,
					"numinlets" : 1
				}

			}
, 			{
				"box" : 				{
					"maxclass" : "panel",
					"numoutlets" : 0,
					"bgcolor" : [ 0.270588, 0.294118, 0.298039, 1.0 ],
					"patching_rect" : [ 8.0, 360.0, 448.0, 84.0 ],
					"id" : "obj-16",
					"rounded" : 15,
					"numinlets" : 1
				}

			}
, 			{
				"box" : 				{
					"maxclass" : "panel",
					"numoutlets" : 0,
					"bgcolor" : [ 0.254902, 0.580392, 0.643137, 1.0 ],
					"patching_rect" : [ 8.0, 8.0, 912.0, 56.0 ],
					"id" : "obj-17",
					"rounded" : 15,
					"numinlets" : 1
				}

			}
 ],
		"lines" : [ 			{
				"patchline" : 				{
					"source" : [ "obj-28", 0 ],
					"destination" : [ "obj-41", 0 ],
					"hidden" : 1,
					"midpoints" : [  ]
				}

			}
, 			{
				"patchline" : 				{
					"source" : [ "obj-37", 0 ],
					"destination" : [ "obj-41", 0 ],
					"hidden" : 1,
					"midpoints" : [  ]
				}

			}
, 			{
				"patchline" : 				{
					"source" : [ "obj-38", 0 ],
					"destination" : [ "obj-41", 0 ],
					"hidden" : 1,
					"midpoints" : [  ]
				}

			}
, 			{
				"patchline" : 				{
					"source" : [ "obj-72", 0 ],
					"destination" : [ "obj-41", 0 ],
					"hidden" : 1,
					"midpoints" : [  ]
				}

			}
, 			{
				"patchline" : 				{
					"source" : [ "obj-73", 0 ],
					"destination" : [ "obj-41", 0 ],
					"hidden" : 1,
					"midpoints" : [  ]
				}

			}
, 			{
				"patchline" : 				{
					"source" : [ "obj-74", 0 ],
					"destination" : [ "obj-41", 0 ],
					"hidden" : 1,
					"midpoints" : [  ]
				}

			}
, 			{
				"patchline" : 				{
					"source" : [ "obj-2", 0 ],
					"destination" : [ "obj-41", 0 ],
					"hidden" : 1,
					"midpoints" : [  ]
				}

			}
, 			{
				"patchline" : 				{
					"source" : [ "obj-40", 0 ],
					"destination" : [ "obj-41", 0 ],
					"hidden" : 1,
					"midpoints" : [  ]
				}

			}
, 			{
				"patchline" : 				{
					"source" : [ "obj-42", 0 ],
					"destination" : [ "obj-41", 0 ],
					"hidden" : 1,
					"midpoints" : [  ]
				}

			}
, 			{
				"patchline" : 				{
					"source" : [ "obj-66", 0 ],
					"destination" : [ "obj-41", 0 ],
					"hidden" : 1,
					"midpoints" : [  ]
				}

			}
, 			{
				"patchline" : 				{
					"source" : [ "obj-41", 0 ],
					"destination" : [ "obj-1", 0 ],
					"hidden" : 1,
					"midpoints" : [  ]
				}

			}
, 			{
				"patchline" : 				{
					"source" : [ "obj-6", 0 ],
					"destination" : [ "obj-41", 0 ],
					"hidden" : 1,
					"midpoints" : [  ]
				}

			}
, 			{
				"patchline" : 				{
					"source" : [ "obj-7", 0 ],
					"destination" : [ "obj-41", 0 ],
					"hidden" : 1,
					"midpoints" : [  ]
				}

			}
, 			{
				"patchline" : 				{
					"source" : [ "obj-8", 0 ],
					"destination" : [ "obj-41", 0 ],
					"hidden" : 1,
					"midpoints" : [  ]
				}

			}
, 			{
				"patchline" : 				{
					"source" : [ "obj-9", 0 ],
					"destination" : [ "obj-41", 0 ],
					"hidden" : 1,
					"midpoints" : [  ]
				}

			}
, 			{
				"patchline" : 				{
					"source" : [ "obj-10", 0 ],
					"destination" : [ "obj-41", 0 ],
					"hidden" : 1,
					"midpoints" : [  ]
				}

			}
, 			{
				"patchline" : 				{
					"source" : [ "obj-11", 0 ],
					"destination" : [ "obj-41", 0 ],
					"hidden" : 1,
					"midpoints" : [  ]
				}

			}
, 			{
				"patchline" : 				{
					"source" : [ "obj-12", 0 ],
					"destination" : [ "obj-41", 0 ],
					"hidden" : 1,
					"midpoints" : [  ]
				}

			}
, 			{
				"patchline" : 				{
					"source" : [ "obj-13", 0 ],
					"destination" : [ "obj-41", 0 ],
					"hidden" : 1,
					"midpoints" : [  ]
				}

			}
, 			{
				"patchline" : 				{
					"source" : [ "obj-14", 0 ],
					"destination" : [ "obj-41", 0 ],
					"hidden" : 1,
					"midpoints" : [  ]
				}

			}
, 			{
				"patchline" : 				{
					"source" : [ "obj-68", 0 ],
					"destination" : [ "obj-41", 0 ],
					"hidden" : 1,
					"midpoints" : [  ]
				}

			}
, 			{
				"patchline" : 				{
					"source" : [ "obj-46", 0 ],
					"destination" : [ "obj-41", 0 ],
					"hidden" : 1,
					"midpoints" : [  ]
				}

			}
, 			{
				"patchline" : 				{
					"source" : [ "obj-44", 0 ],
					"destination" : [ "obj-41", 0 ],
					"hidden" : 1,
					"midpoints" : [  ]
				}

			}
, 			{
				"patchline" : 				{
					"source" : [ "obj-43", 0 ],
					"destination" : [ "obj-41", 0 ],
					"hidden" : 1,
					"midpoints" : [  ]
				}

			}
, 			{
				"patchline" : 				{
					"source" : [ "obj-36", 0 ],
					"destination" : [ "obj-41", 0 ],
					"hidden" : 1,
					"midpoints" : [  ]
				}

			}
, 			{
				"patchline" : 				{
					"source" : [ "obj-64", 0 ],
					"destination" : [ "obj-41", 0 ],
					"hidden" : 1,
					"midpoints" : [  ]
				}

			}
 ]
	}

}
