{
	"patcher" : 	{
		"fileversion" : 1,
		"rect" : [ 0.0, 44.0, 1280.0, 726.0 ],
		"bglocked" : 0,
		"defrect" : [ 0.0, 44.0, 1280.0, 726.0 ],
		"openrect" : [ 0.0, 0.0, 0.0, 0.0 ],
		"openinpresentation" : 0,
		"default_fontsize" : 12.0,
		"default_fontface" : 0,
		"default_fontname" : "Arial",
		"gridonopen" : 0,
		"gridsize" : [ 4.0, 4.0 ],
		"gridsnaponopen" : 0,
		"toolbarvisible" : 1,
		"boxanimatetime" : 200,
		"imprint" : 0,
		"enablehscroll" : 1,
		"enablevscroll" : 1,
		"devicewidth" : 0.0,
		"boxes" : [ 			{
				"box" : 				{
					"maxclass" : "comment",
					"text" : "sequence series generation",
					"frgb" : [ 1.0, 1.0, 1.0, 1.0 ],
					"numoutlets" : 0,
					"fontname" : "Arial",
					"presentation_rect" : [ 875.0, 333.0, 0.0, 0.0 ],
					"fontface" : 2,
					"patching_rect" : [ 876.0, 332.0, 243.0, 20.0 ],
					"fontsize" : 12.0,
					"id" : "obj-27",
					"textcolor" : [ 1.0, 1.0, 1.0, 1.0 ],
					"numinlets" : 1
				}

			}
, 			{
				"box" : 				{
					"maxclass" : "comment",
					"text" : "altering pitch in real time",
					"frgb" : [ 1.0, 1.0, 1.0, 1.0 ],
					"numoutlets" : 0,
					"fontname" : "Arial",
					"presentation_rect" : [ 875.0, 305.0, 0.0, 0.0 ],
					"fontface" : 2,
					"patching_rect" : [ 876.0, 304.0, 244.0, 20.0 ],
					"fontsize" : 12.0,
					"id" : "obj-28",
					"textcolor" : [ 1.0, 1.0, 1.0, 1.0 ],
					"numinlets" : 1
				}

			}
, 			{
				"box" : 				{
					"maxclass" : "comment",
					"text" : "vocal synthesis using harmonics",
					"frgb" : [ 1.0, 1.0, 1.0, 1.0 ],
					"numoutlets" : 0,
					"fontname" : "Arial",
					"presentation_rect" : [ 875.0, 277.0, 0.0, 0.0 ],
					"fontface" : 2,
					"patching_rect" : [ 876.0, 276.0, 243.0, 20.0 ],
					"fontsize" : 12.0,
					"id" : "obj-29",
					"textcolor" : [ 1.0, 1.0, 1.0, 1.0 ],
					"numinlets" : 1
				}

			}
, 			{
				"box" : 				{
					"maxclass" : "comment",
					"text" : "basic synthesis",
					"frgb" : [ 1.0, 1.0, 1.0, 1.0 ],
					"numoutlets" : 0,
					"fontname" : "Arial",
					"presentation_rect" : [ 875.0, 249.0, 0.0, 0.0 ],
					"fontface" : 2,
					"patching_rect" : [ 876.0, 248.0, 243.0, 20.0 ],
					"fontsize" : 12.0,
					"id" : "obj-30",
					"textcolor" : [ 1.0, 1.0, 1.0, 1.0 ],
					"numinlets" : 1
				}

			}
, 			{
				"box" : 				{
					"maxclass" : "comment",
					"text" : "the harmonic series and partials",
					"frgb" : [ 1.0, 1.0, 1.0, 1.0 ],
					"numoutlets" : 0,
					"fontname" : "Arial",
					"presentation_rect" : [ 875.0, 221.0, 0.0, 0.0 ],
					"fontface" : 2,
					"patching_rect" : [ 876.0, 220.0, 243.0, 20.0 ],
					"fontsize" : 12.0,
					"id" : "obj-31",
					"textcolor" : [ 1.0, 1.0, 1.0, 1.0 ],
					"numinlets" : 1
				}

			}
, 			{
				"box" : 				{
					"maxclass" : "comment",
					"text" : "basics on creating rich sinusoidal waveforms",
					"frgb" : [ 1.0, 1.0, 1.0, 1.0 ],
					"numoutlets" : 0,
					"fontname" : "Arial",
					"presentation_rect" : [ 875.0, 193.0, 0.0, 0.0 ],
					"fontface" : 2,
					"patching_rect" : [ 876.0, 192.0, 248.0, 20.0 ],
					"fontsize" : 12.0,
					"id" : "obj-32",
					"textcolor" : [ 1.0, 1.0, 1.0, 1.0 ],
					"numinlets" : 1
				}

			}
, 			{
				"box" : 				{
					"maxclass" : "comment",
					"text" : "how the cycle~ object relates to sine waves",
					"frgb" : [ 1.0, 1.0, 1.0, 1.0 ],
					"numoutlets" : 0,
					"fontname" : "Arial",
					"presentation_rect" : [ 875.0, 165.0, 0.0, 0.0 ],
					"fontface" : 2,
					"patching_rect" : [ 876.0, 164.0, 243.0, 20.0 ],
					"fontsize" : 12.0,
					"id" : "obj-33",
					"textcolor" : [ 1.0, 1.0, 1.0, 1.0 ],
					"numinlets" : 1
				}

			}
, 			{
				"box" : 				{
					"maxclass" : "comment",
					"text" : "differences between time and freq",
					"frgb" : [ 1.0, 1.0, 1.0, 1.0 ],
					"numoutlets" : 0,
					"fontname" : "Arial",
					"presentation_rect" : [ 875.0, 137.0, 0.0, 0.0 ],
					"fontface" : 2,
					"patching_rect" : [ 876.0, 136.0, 243.0, 20.0 ],
					"fontsize" : 12.0,
					"id" : "obj-34",
					"textcolor" : [ 1.0, 1.0, 1.0, 1.0 ],
					"numinlets" : 1
				}

			}
, 			{
				"box" : 				{
					"maxclass" : "comment",
					"text" : "the physics of sine waves",
					"frgb" : [ 1.0, 1.0, 1.0, 1.0 ],
					"numoutlets" : 0,
					"fontname" : "Arial",
					"presentation_rect" : [ 875.0, 109.0, 0.0, 0.0 ],
					"fontface" : 2,
					"patching_rect" : [ 876.0, 108.0, 243.0, 20.0 ],
					"fontsize" : 12.0,
					"id" : "obj-35",
					"textcolor" : [ 1.0, 1.0, 1.0, 1.0 ],
					"numinlets" : 1
				}

			}
, 			{
				"box" : 				{
					"maxclass" : "message",
					"numoutlets" : 1,
					"fontname" : "Arial",
					"presentation_rect" : [ 683.0, 333.0, 0.0, 0.0 ],
					"outlettype" : [ "" ],
					"patching_rect" : [ 684.0, 332.0, 185.0, 18.0 ],
					"fontsize" : 12.0,
					"id" : "obj-36",
					"numinlets" : 2
				}

			}
, 			{
				"box" : 				{
					"maxclass" : "message",
					"numoutlets" : 1,
					"fontname" : "Arial",
					"presentation_rect" : [ 683.0, 305.0, 0.0, 0.0 ],
					"outlettype" : [ "" ],
					"patching_rect" : [ 684.0, 304.0, 161.0, 18.0 ],
					"fontsize" : 12.0,
					"id" : "obj-37",
					"numinlets" : 2
				}

			}
, 			{
				"box" : 				{
					"maxclass" : "message",
					"numoutlets" : 1,
					"fontname" : "Arial",
					"presentation_rect" : [ 683.0, 277.0, 0.0, 0.0 ],
					"outlettype" : [ "" ],
					"patching_rect" : [ 684.0, 276.0, 134.0, 18.0 ],
					"fontsize" : 12.0,
					"id" : "obj-38",
					"numinlets" : 2
				}

			}
, 			{
				"box" : 				{
					"maxclass" : "message",
					"numoutlets" : 1,
					"fontname" : "Arial",
					"presentation_rect" : [ 683.0, 249.0, 0.0, 0.0 ],
					"outlettype" : [ "" ],
					"patching_rect" : [ 684.0, 248.0, 161.0, 18.0 ],
					"fontsize" : 12.0,
					"id" : "obj-39",
					"numinlets" : 2
				}

			}
, 			{
				"box" : 				{
					"maxclass" : "message",
					"numoutlets" : 1,
					"fontname" : "Arial",
					"presentation_rect" : [ 683.0, 221.0, 0.0, 0.0 ],
					"outlettype" : [ "" ],
					"patching_rect" : [ 684.0, 220.0, 158.0, 18.0 ],
					"fontsize" : 12.0,
					"id" : "obj-40",
					"numinlets" : 2
				}

			}
, 			{
				"box" : 				{
					"maxclass" : "message",
					"numoutlets" : 1,
					"fontname" : "Arial",
					"presentation_rect" : [ 683.0, 193.0, 0.0, 0.0 ],
					"outlettype" : [ "" ],
					"patching_rect" : [ 684.0, 192.0, 166.0, 18.0 ],
					"fontsize" : 12.0,
					"id" : "obj-42",
					"numinlets" : 2
				}

			}
, 			{
				"box" : 				{
					"maxclass" : "message",
					"numoutlets" : 1,
					"fontname" : "Arial",
					"presentation_rect" : [ 683.0, 165.0, 0.0, 0.0 ],
					"outlettype" : [ "" ],
					"patching_rect" : [ 684.0, 164.0, 169.0, 18.0 ],
					"fontsize" : 12.0,
					"id" : "obj-43",
					"numinlets" : 2
				}

			}
, 			{
				"box" : 				{
					"maxclass" : "message",
					"numoutlets" : 1,
					"fontname" : "Arial",
					"presentation_rect" : [ 683.0, 137.0, 0.0, 0.0 ],
					"outlettype" : [ "" ],
					"patching_rect" : [ 684.0, 136.0, 169.0, 18.0 ],
					"fontsize" : 12.0,
					"id" : "obj-44",
					"numinlets" : 2
				}

			}
, 			{
				"box" : 				{
					"maxclass" : "comment",
					"text" : "LAB-Time_Domain_Tools",
					"frgb" : [ 1.0, 1.0, 1.0, 1.0 ],
					"numoutlets" : 0,
					"fontname" : "Arial",
					"presentation_rect" : [ 683.0, 73.0, 0.0, 0.0 ],
					"fontface" : 3,
					"patching_rect" : [ 684.0, 72.0, 209.0, 20.0 ],
					"fontsize" : 12.0,
					"id" : "obj-45",
					"textcolor" : [ 1.0, 1.0, 1.0, 1.0 ],
					"numinlets" : 1
				}

			}
, 			{
				"box" : 				{
					"maxclass" : "message",
					"numoutlets" : 1,
					"fontname" : "Arial",
					"presentation_rect" : [ 683.0, 109.0, 0.0, 0.0 ],
					"outlettype" : [ "" ],
					"patching_rect" : [ 684.0, 108.0, 179.0, 18.0 ],
					"fontsize" : 12.0,
					"id" : "obj-46",
					"numinlets" : 2
				}

			}
, 			{
				"box" : 				{
					"maxclass" : "panel",
					"bgcolor" : [ 0.270588, 0.294118, 0.298039, 1.0 ],
					"numoutlets" : 0,
					"presentation_rect" : [ 679.0, 69.0, 0.0, 0.0 ],
					"patching_rect" : [ 680.0, 68.0, 452.0, 292.0 ],
					"id" : "obj-48",
					"rounded" : 15,
					"numinlets" : 1
				}

			}
, 			{
				"box" : 				{
					"maxclass" : "comment",
					"text" : "sequence series generation",
					"frgb" : [ 1.0, 1.0, 1.0, 1.0 ],
					"numoutlets" : 0,
					"fontname" : "Arial",
					"fontface" : 2,
					"patching_rect" : [ 420.0, 332.0, 243.0, 20.0 ],
					"fontsize" : 12.0,
					"id" : "obj-26",
					"textcolor" : [ 1.0, 1.0, 1.0, 1.0 ],
					"numinlets" : 1
				}

			}
, 			{
				"box" : 				{
					"maxclass" : "comment",
					"text" : "altering pitch in real time",
					"frgb" : [ 1.0, 1.0, 1.0, 1.0 ],
					"numoutlets" : 0,
					"fontname" : "Arial",
					"fontface" : 2,
					"patching_rect" : [ 420.0, 304.0, 244.0, 20.0 ],
					"fontsize" : 12.0,
					"id" : "obj-25",
					"textcolor" : [ 1.0, 1.0, 1.0, 1.0 ],
					"numinlets" : 1
				}

			}
, 			{
				"box" : 				{
					"maxclass" : "comment",
					"text" : "vocal synthesis using harmonics",
					"frgb" : [ 1.0, 1.0, 1.0, 1.0 ],
					"numoutlets" : 0,
					"fontname" : "Arial",
					"fontface" : 2,
					"patching_rect" : [ 420.0, 276.0, 243.0, 20.0 ],
					"fontsize" : 12.0,
					"id" : "obj-24",
					"textcolor" : [ 1.0, 1.0, 1.0, 1.0 ],
					"numinlets" : 1
				}

			}
, 			{
				"box" : 				{
					"maxclass" : "comment",
					"text" : "basic synthesis",
					"frgb" : [ 1.0, 1.0, 1.0, 1.0 ],
					"numoutlets" : 0,
					"fontname" : "Arial",
					"fontface" : 2,
					"patching_rect" : [ 420.0, 248.0, 243.0, 20.0 ],
					"fontsize" : 12.0,
					"id" : "obj-23",
					"textcolor" : [ 1.0, 1.0, 1.0, 1.0 ],
					"numinlets" : 1
				}

			}
, 			{
				"box" : 				{
					"maxclass" : "comment",
					"text" : "the harmonic series and partials",
					"frgb" : [ 1.0, 1.0, 1.0, 1.0 ],
					"numoutlets" : 0,
					"fontname" : "Arial",
					"fontface" : 2,
					"patching_rect" : [ 420.0, 220.0, 243.0, 20.0 ],
					"fontsize" : 12.0,
					"id" : "obj-22",
					"textcolor" : [ 1.0, 1.0, 1.0, 1.0 ],
					"numinlets" : 1
				}

			}
, 			{
				"box" : 				{
					"maxclass" : "comment",
					"text" : "basics on creating rich sinusoidal waveforms",
					"frgb" : [ 1.0, 1.0, 1.0, 1.0 ],
					"numoutlets" : 0,
					"fontname" : "Arial",
					"fontface" : 2,
					"patching_rect" : [ 420.0, 192.0, 248.0, 20.0 ],
					"fontsize" : 12.0,
					"id" : "obj-21",
					"textcolor" : [ 1.0, 1.0, 1.0, 1.0 ],
					"numinlets" : 1
				}

			}
, 			{
				"box" : 				{
					"maxclass" : "comment",
					"text" : "how the cycle~ object relates to sine waves",
					"frgb" : [ 1.0, 1.0, 1.0, 1.0 ],
					"numoutlets" : 0,
					"fontname" : "Arial",
					"fontface" : 2,
					"patching_rect" : [ 420.0, 164.0, 243.0, 20.0 ],
					"fontsize" : 12.0,
					"id" : "obj-20",
					"textcolor" : [ 1.0, 1.0, 1.0, 1.0 ],
					"numinlets" : 1
				}

			}
, 			{
				"box" : 				{
					"maxclass" : "comment",
					"text" : "differences between time and freq",
					"frgb" : [ 1.0, 1.0, 1.0, 1.0 ],
					"numoutlets" : 0,
					"fontname" : "Arial",
					"fontface" : 2,
					"patching_rect" : [ 420.0, 136.0, 243.0, 20.0 ],
					"fontsize" : 12.0,
					"id" : "obj-19",
					"textcolor" : [ 1.0, 1.0, 1.0, 1.0 ],
					"numinlets" : 1
				}

			}
, 			{
				"box" : 				{
					"maxclass" : "comment",
					"text" : "the physics of sine waves",
					"frgb" : [ 1.0, 1.0, 1.0, 1.0 ],
					"numoutlets" : 0,
					"fontname" : "Arial",
					"fontface" : 2,
					"patching_rect" : [ 420.0, 108.0, 243.0, 20.0 ],
					"fontsize" : 12.0,
					"id" : "obj-18",
					"textcolor" : [ 1.0, 1.0, 1.0, 1.0 ],
					"numinlets" : 1
				}

			}
, 			{
				"box" : 				{
					"maxclass" : "message",
					"text" : "Lucas-sequence-maker.maxhelp",
					"numoutlets" : 1,
					"fontname" : "Arial",
					"outlettype" : [ "" ],
					"patching_rect" : [ 228.0, 332.0, 185.0, 18.0 ],
					"fontsize" : 12.0,
					"id" : "obj-14",
					"numinlets" : 2
				}

			}
, 			{
				"box" : 				{
					"maxclass" : "message",
					"text" : "03-pitch_processing.maxpat",
					"numoutlets" : 1,
					"fontname" : "Arial",
					"outlettype" : [ "" ],
					"patching_rect" : [ 228.0, 304.0, 161.0, 18.0 ],
					"fontsize" : 12.0,
					"id" : "obj-13",
					"numinlets" : 2
				}

			}
, 			{
				"box" : 				{
					"maxclass" : "message",
					"text" : "singing-voice~.help.pat",
					"numoutlets" : 1,
					"fontname" : "Arial",
					"outlettype" : [ "" ],
					"patching_rect" : [ 228.0, 276.0, 134.0, 18.0 ],
					"fontsize" : 12.0,
					"id" : "obj-12",
					"numinlets" : 2
				}

			}
, 			{
				"box" : 				{
					"maxclass" : "message",
					"text" : "08-Simple-synthesis.maxpat",
					"numoutlets" : 1,
					"fontname" : "Arial",
					"outlettype" : [ "" ],
					"patching_rect" : [ 228.0, 248.0, 161.0, 18.0 ],
					"fontsize" : 12.0,
					"id" : "obj-11",
					"numinlets" : 2
				}

			}
, 			{
				"box" : 				{
					"maxclass" : "message",
					"text" : "07-harmonic-waves.maxpat",
					"numoutlets" : 1,
					"fontname" : "Arial",
					"outlettype" : [ "" ],
					"patching_rect" : [ 228.0, 220.0, 158.0, 18.0 ],
					"fontsize" : 12.0,
					"id" : "obj-10",
					"numinlets" : 2
				}

			}
, 			{
				"box" : 				{
					"maxclass" : "message",
					"text" : "06-additive-synthesis.maxpat",
					"numoutlets" : 1,
					"fontname" : "Arial",
					"outlettype" : [ "" ],
					"patching_rect" : [ 228.0, 192.0, 166.0, 18.0 ],
					"fontsize" : 12.0,
					"id" : "obj-9",
					"numinlets" : 2
				}

			}
, 			{
				"box" : 				{
					"maxclass" : "message",
					"text" : "03-MSP_cycle_object.maxpat",
					"numoutlets" : 1,
					"fontname" : "Arial",
					"outlettype" : [ "" ],
					"patching_rect" : [ 228.0, 164.0, 169.0, 18.0 ],
					"fontsize" : 12.0,
					"id" : "obj-8",
					"numinlets" : 2
				}

			}
, 			{
				"box" : 				{
					"maxclass" : "message",
					"text" : "00-frequency_domain.maxpat",
					"numoutlets" : 1,
					"fontname" : "Arial",
					"outlettype" : [ "" ],
					"patching_rect" : [ 228.0, 136.0, 169.0, 18.0 ],
					"fontsize" : 12.0,
					"id" : "obj-7",
					"numinlets" : 2
				}

			}
, 			{
				"box" : 				{
					"maxclass" : "comment",
					"text" : "LAB-Frequency_Domain_Tools",
					"frgb" : [ 1.0, 1.0, 1.0, 1.0 ],
					"numoutlets" : 0,
					"fontname" : "Arial",
					"fontface" : 3,
					"patching_rect" : [ 228.0, 72.0, 209.0, 20.0 ],
					"fontsize" : 12.0,
					"id" : "obj-5",
					"textcolor" : [ 1.0, 1.0, 1.0, 1.0 ],
					"numinlets" : 1
				}

			}
, 			{
				"box" : 				{
					"maxclass" : "message",
					"text" : "02-sinewaves-sampling.maxpat",
					"numoutlets" : 1,
					"fontname" : "Arial",
					"outlettype" : [ "" ],
					"patching_rect" : [ 228.0, 108.0, 179.0, 18.0 ],
					"fontsize" : 12.0,
					"id" : "obj-6",
					"numinlets" : 2
				}

			}
, 			{
				"box" : 				{
					"maxclass" : "comment",
					"text" : "LAB-Sound File Interpolaton Tools",
					"frgb" : [ 1.0, 1.0, 1.0, 1.0 ],
					"numoutlets" : 0,
					"fontname" : "Arial",
					"fontface" : 3,
					"patching_rect" : [ 8.0, 72.0, 211.0, 20.0 ],
					"fontsize" : 12.0,
					"id" : "obj-4",
					"textcolor" : [ 1.0, 1.0, 1.0, 1.0 ],
					"numinlets" : 1
				}

			}
, 			{
				"box" : 				{
					"maxclass" : "comment",
					"text" : "This patch provides access to the LAB Software for Music 29.  The actual software is located in the CNMAT MaxMSPJitter Depot software and is dependent on the CNMAT everything Download",
					"linecount" : 2,
					"frgb" : [ 1.0, 1.0, 1.0, 1.0 ],
					"numoutlets" : 0,
					"fontname" : "Arial",
					"fontface" : 1,
					"patching_rect" : [ 8.0, 12.0, 656.0, 39.0 ],
					"fontsize" : 14.0,
					"id" : "obj-3",
					"textcolor" : [ 1.0, 1.0, 1.0, 1.0 ],
					"numinlets" : 1
				}

			}
, 			{
				"box" : 				{
					"maxclass" : "message",
					"text" : "sfinterp.maxhelp",
					"numoutlets" : 1,
					"fontname" : "Arial",
					"outlettype" : [ "" ],
					"patching_rect" : [ 9.0, 102.0, 99.0, 18.0 ],
					"fontsize" : 12.0,
					"id" : "obj-2",
					"numinlets" : 2
				}

			}
, 			{
				"box" : 				{
					"maxclass" : "newobj",
					"text" : "pcontrol",
					"numoutlets" : 1,
					"fontname" : "Arial",
					"outlettype" : [ "" ],
					"patching_rect" : [ 3.0, 621.0, 43.0, 17.0 ],
					"fontsize" : 9.0,
					"id" : "obj-1",
					"numinlets" : 1
				}

			}
, 			{
				"box" : 				{
					"maxclass" : "newobj",
					"text" : "prepend load",
					"numoutlets" : 1,
					"fontname" : "Arial",
					"outlettype" : [ "" ],
					"patching_rect" : [ 3.0, 594.0, 63.0, 17.0 ],
					"fontsize" : 9.0,
					"id" : "obj-41",
					"numinlets" : 1
				}

			}
, 			{
				"box" : 				{
					"maxclass" : "panel",
					"bgcolor" : [ 0.270588, 0.294118, 0.298039, 1.0 ],
					"numoutlets" : 0,
					"patching_rect" : [ 224.0, 68.0, 452.0, 292.0 ],
					"id" : "obj-15",
					"rounded" : 15,
					"numinlets" : 1
				}

			}
, 			{
				"box" : 				{
					"maxclass" : "panel",
					"bgcolor" : [ 0.270588, 0.294118, 0.298039, 1.0 ],
					"numoutlets" : 0,
					"patching_rect" : [ 4.0, 68.0, 212.0, 292.0 ],
					"id" : "obj-16",
					"rounded" : 15,
					"numinlets" : 1
				}

			}
, 			{
				"box" : 				{
					"maxclass" : "panel",
					"numoutlets" : 0,
					"patching_rect" : [ 4.0, 4.0, 672.0, 56.0 ],
					"id" : "obj-17",
					"rounded" : 15,
					"numinlets" : 1
				}

			}
 ],
		"lines" : [ 			{
				"patchline" : 				{
					"source" : [ "obj-14", 0 ],
					"destination" : [ "obj-41", 0 ],
					"hidden" : 1,
					"midpoints" : [  ]
				}

			}
, 			{
				"patchline" : 				{
					"source" : [ "obj-13", 0 ],
					"destination" : [ "obj-41", 0 ],
					"hidden" : 1,
					"midpoints" : [  ]
				}

			}
, 			{
				"patchline" : 				{
					"source" : [ "obj-12", 0 ],
					"destination" : [ "obj-41", 0 ],
					"hidden" : 1,
					"midpoints" : [  ]
				}

			}
, 			{
				"patchline" : 				{
					"source" : [ "obj-11", 0 ],
					"destination" : [ "obj-41", 0 ],
					"hidden" : 1,
					"midpoints" : [  ]
				}

			}
, 			{
				"patchline" : 				{
					"source" : [ "obj-10", 0 ],
					"destination" : [ "obj-41", 0 ],
					"hidden" : 1,
					"midpoints" : [  ]
				}

			}
, 			{
				"patchline" : 				{
					"source" : [ "obj-9", 0 ],
					"destination" : [ "obj-41", 0 ],
					"hidden" : 1,
					"midpoints" : [  ]
				}

			}
, 			{
				"patchline" : 				{
					"source" : [ "obj-8", 0 ],
					"destination" : [ "obj-41", 0 ],
					"hidden" : 1,
					"midpoints" : [  ]
				}

			}
, 			{
				"patchline" : 				{
					"source" : [ "obj-7", 0 ],
					"destination" : [ "obj-41", 0 ],
					"hidden" : 1,
					"midpoints" : [  ]
				}

			}
, 			{
				"patchline" : 				{
					"source" : [ "obj-6", 0 ],
					"destination" : [ "obj-41", 0 ],
					"hidden" : 1,
					"midpoints" : [  ]
				}

			}
, 			{
				"patchline" : 				{
					"source" : [ "obj-41", 0 ],
					"destination" : [ "obj-1", 0 ],
					"hidden" : 0,
					"midpoints" : [  ]
				}

			}
, 			{
				"patchline" : 				{
					"source" : [ "obj-2", 0 ],
					"destination" : [ "obj-41", 0 ],
					"hidden" : 1,
					"midpoints" : [  ]
				}

			}
 ]
	}

}
