{
	"patcher" : 	{
		"fileversion" : 1,
		"rect" : [ 85.0, 75.0, 1069.0, 673.0 ],
		"bglocked" : 0,
		"defrect" : [ 85.0, 75.0, 1069.0, 673.0 ],
		"openrect" : [ 0.0, 0.0, 0.0, 0.0 ],
		"openinpresentation" : 0,
		"default_fontsize" : 10.0,
		"default_fontface" : 0,
		"default_fontname" : "Arial",
		"gridonopen" : 0,
		"gridsize" : [ 4.0, 4.0 ],
		"gridsnaponopen" : 0,
		"toolbarvisible" : 1,
		"boxanimatetime" : 200,
		"imprint" : 0,
		"enablehscroll" : 1,
		"enablevscroll" : 1,
		"devicewidth" : 0.0,
		"boxes" : [ 			{
				"box" : 				{
					"maxclass" : "inlet",
					"hidden" : 1,
					"numinlets" : 0,
					"patching_rect" : [ 488.0, 12.0, 25.0, 25.0 ],
					"id" : "obj-6",
					"numoutlets" : 1,
					"outlettype" : [ "" ],
					"comment" : ""
				}

			}
, 			{
				"box" : 				{
					"maxclass" : "newobj",
					"text" : "s choose_from_group",
					"hidden" : 1,
					"fontsize" : 10.0,
					"numinlets" : 1,
					"patching_rect" : [ 16.0, 424.0, 107.0, 18.0 ],
					"id" : "obj-48",
					"fontname" : "Arial",
					"numoutlets" : 0
				}

			}
, 			{
				"box" : 				{
					"maxclass" : "newobj",
					"text" : "p scripting",
					"hidden" : 1,
					"fontsize" : 10.0,
					"numinlets" : 3,
					"patching_rect" : [ 428.0, 80.0, 80.0, 18.0 ],
					"id" : "obj-22",
					"fontname" : "Arial",
					"numoutlets" : 2,
					"outlettype" : [ "", "bang" ],
					"patcher" : 					{
						"fileversion" : 1,
						"rect" : [ 444.0, 143.0, 1145.0, 728.0 ],
						"bglocked" : 0,
						"defrect" : [ 444.0, 143.0, 1145.0, 728.0 ],
						"openrect" : [ 0.0, 0.0, 0.0, 0.0 ],
						"openinpresentation" : 0,
						"default_fontsize" : 10.0,
						"default_fontface" : 0,
						"default_fontname" : "Arial",
						"gridonopen" : 0,
						"gridsize" : [ 4.0, 4.0 ],
						"gridsnaponopen" : 0,
						"toolbarvisible" : 1,
						"boxanimatetime" : 200,
						"imprint" : 0,
						"enablehscroll" : 1,
						"enablevscroll" : 1,
						"devicewidth" : 0.0,
						"boxes" : [ 							{
								"box" : 								{
									"maxclass" : "newobj",
									"text" : "+ 0",
									"fontsize" : 9.0,
									"numinlets" : 2,
									"patching_rect" : [ 696.0, 232.0, 32.5, 17.0 ],
									"id" : "obj-9",
									"fontname" : "Arial",
									"numoutlets" : 1,
									"outlettype" : [ "int" ]
								}

							}
, 							{
								"box" : 								{
									"maxclass" : "inlet",
									"numinlets" : 0,
									"patching_rect" : [ 364.0, 12.0, 25.0, 25.0 ],
									"id" : "obj-6",
									"numoutlets" : 1,
									"outlettype" : [ "" ],
									"comment" : ""
								}

							}
, 							{
								"box" : 								{
									"maxclass" : "newobj",
									"text" : "t i i i",
									"fontsize" : 9.0,
									"numinlets" : 1,
									"patching_rect" : [ 48.0, 260.0, 46.0, 17.0 ],
									"id" : "obj-5",
									"fontname" : "Arial",
									"numoutlets" : 3,
									"outlettype" : [ "int", "int", "int" ]
								}

							}
, 							{
								"box" : 								{
									"maxclass" : "newobj",
									"text" : "sprintf script delete prep-%d",
									"fontsize" : 9.0,
									"numinlets" : 1,
									"patching_rect" : [ 64.0, 316.0, 123.0, 17.0 ],
									"id" : "obj-8",
									"fontname" : "Arial",
									"numoutlets" : 1,
									"outlettype" : [ "" ]
								}

							}
, 							{
								"box" : 								{
									"maxclass" : "newobj",
									"text" : "sprintf script delete radio-%d",
									"fontsize" : 9.0,
									"numinlets" : 1,
									"patching_rect" : [ 88.0, 284.0, 125.0, 17.0 ],
									"id" : "obj-7",
									"fontname" : "Arial",
									"numoutlets" : 1,
									"outlettype" : [ "" ]
								}

							}
, 							{
								"box" : 								{
									"maxclass" : "newobj",
									"text" : "t i i i",
									"fontsize" : 9.0,
									"numinlets" : 1,
									"patching_rect" : [ 796.0, 156.0, 46.0, 17.0 ],
									"id" : "obj-35",
									"fontname" : "Arial",
									"numoutlets" : 3,
									"outlettype" : [ "int", "int", "int" ]
								}

							}
, 							{
								"box" : 								{
									"maxclass" : "newobj",
									"text" : "t i i",
									"fontsize" : 9.0,
									"numinlets" : 1,
									"patching_rect" : [ 572.0, 352.0, 32.5, 17.0 ],
									"id" : "obj-34",
									"fontname" : "Arial",
									"numoutlets" : 2,
									"outlettype" : [ "int", "int" ]
								}

							}
, 							{
								"box" : 								{
									"maxclass" : "newobj",
									"text" : "+ 20",
									"fontsize" : 9.0,
									"numinlets" : 2,
									"patching_rect" : [ 904.0, 304.0, 32.5, 17.0 ],
									"id" : "obj-33",
									"fontname" : "Arial",
									"numoutlets" : 1,
									"outlettype" : [ "int" ]
								}

							}
, 							{
								"box" : 								{
									"maxclass" : "newobj",
									"text" : "t i i",
									"fontsize" : 9.0,
									"numinlets" : 1,
									"patching_rect" : [ 868.0, 213.5, 32.5, 17.0 ],
									"id" : "obj-32",
									"fontname" : "Arial",
									"numoutlets" : 2,
									"outlettype" : [ "int", "int" ]
								}

							}
, 							{
								"box" : 								{
									"maxclass" : "newobj",
									"text" : "sprintf script hidden connect prep-%d 0 main-outlet 0",
									"fontsize" : 9.0,
									"numinlets" : 1,
									"patching_rect" : [ 704.0, 120.0, 221.0, 17.0 ],
									"id" : "obj-11",
									"fontname" : "Arial",
									"numoutlets" : 1,
									"outlettype" : [ "" ]
								}

							}
, 							{
								"box" : 								{
									"maxclass" : "newobj",
									"text" : "sprintf script hidden connect radio-%d 0 prep-%d 0",
									"fontsize" : 9.0,
									"numinlets" : 2,
									"patching_rect" : [ 388.0, 380.0, 213.0, 17.0 ],
									"id" : "obj-4",
									"fontname" : "Arial",
									"numoutlets" : 1,
									"outlettype" : [ "" ]
								}

							}
, 							{
								"box" : 								{
									"maxclass" : "newobj",
									"text" : "sprintf script newobject newobj @text \\\"prepend %d\\\" @varname prep-%d @hidden 1 @patching_position 45 %d 400 18 @fontsize 10",
									"linecount" : 3,
									"fontsize" : 9.0,
									"numinlets" : 3,
									"patching_rect" : [ 632.0, 332.0, 235.0, 38.0 ],
									"id" : "obj-3",
									"fontname" : "Arial",
									"numoutlets" : 1,
									"outlettype" : [ "" ]
								}

							}
, 							{
								"box" : 								{
									"maxclass" : "newobj",
									"text" : "sprintf script newobject radiogroup @itemtype 1 @size 1 @varname radio-%d @patching_position 15 %d 400 18",
									"linecount" : 4,
									"fontsize" : 9.0,
									"numinlets" : 2,
									"patching_rect" : [ 544.0, 260.0, 151.0, 48.0 ],
									"id" : "obj-2",
									"fontname" : "Arial",
									"numoutlets" : 1,
									"outlettype" : [ "" ]
								}

							}
, 							{
								"box" : 								{
									"maxclass" : "outlet",
									"numinlets" : 1,
									"patching_rect" : [ 476.0, 412.0, 25.0, 25.0 ],
									"id" : "obj-1",
									"numoutlets" : 0,
									"comment" : ""
								}

							}
, 							{
								"box" : 								{
									"maxclass" : "newobj",
									"text" : "onebang",
									"fontsize" : 10.0,
									"numinlets" : 2,
									"patching_rect" : [ 68.0, 132.0, 51.0, 18.0 ],
									"id" : "obj-159",
									"fontname" : "Arial",
									"numoutlets" : 2,
									"outlettype" : [ "bang", "bang" ]
								}

							}
, 							{
								"box" : 								{
									"maxclass" : "newobj",
									"text" : "sprintf script delete comment-%d",
									"fontsize" : 9.0,
									"numinlets" : 1,
									"patching_rect" : [ 104.0, 256.0, 143.0, 17.0 ],
									"id" : "obj-127",
									"fontname" : "Arial",
									"numoutlets" : 1,
									"outlettype" : [ "" ]
								}

							}
, 							{
								"box" : 								{
									"maxclass" : "button",
									"numinlets" : 1,
									"patching_rect" : [ 42.0, 206.5, 20.0, 20.0 ],
									"id" : "obj-125",
									"numoutlets" : 1,
									"outlettype" : [ "bang" ]
								}

							}
, 							{
								"box" : 								{
									"maxclass" : "newobj",
									"text" : "uzi 1 0",
									"fontsize" : 9.0,
									"numinlets" : 2,
									"patching_rect" : [ 42.0, 230.5, 46.0, 17.0 ],
									"id" : "obj-123",
									"fontname" : "Arial",
									"numoutlets" : 3,
									"outlettype" : [ "bang", "bang", "int" ]
								}

							}
, 							{
								"box" : 								{
									"maxclass" : "newobj",
									"text" : "zl len",
									"fontsize" : 9.0,
									"numinlets" : 2,
									"patching_rect" : [ 88.0, 192.0, 32.5, 17.0 ],
									"id" : "obj-112",
									"fontname" : "Arial",
									"numoutlets" : 2,
									"outlettype" : [ "", "" ]
								}

							}
, 							{
								"box" : 								{
									"maxclass" : "newobj",
									"text" : "t s b",
									"fontsize" : 9.0,
									"numinlets" : 1,
									"patching_rect" : [ 268.0, 156.0, 32.5, 17.0 ],
									"id" : "obj-65",
									"fontname" : "Arial",
									"numoutlets" : 2,
									"outlettype" : [ "", "bang" ]
								}

							}
, 							{
								"box" : 								{
									"maxclass" : "newobj",
									"text" : "t l b l b b",
									"fontsize" : 9.0,
									"numinlets" : 1,
									"patching_rect" : [ 268.0, 64.0, 176.0, 17.0 ],
									"id" : "obj-64",
									"fontname" : "Arial",
									"numoutlets" : 5,
									"outlettype" : [ "", "bang", "", "bang", "bang" ]
								}

							}
, 							{
								"box" : 								{
									"maxclass" : "newobj",
									"text" : "counter 0 0 99",
									"fontsize" : 9.0,
									"numinlets" : 5,
									"patching_rect" : [ 704.0, 68.0, 73.0, 17.0 ],
									"id" : "obj-20",
									"fontname" : "Arial",
									"numoutlets" : 4,
									"outlettype" : [ "int", "", "", "int" ]
								}

							}
, 							{
								"box" : 								{
									"maxclass" : "newobj",
									"text" : "iter",
									"fontsize" : 9.0,
									"numinlets" : 1,
									"patching_rect" : [ 268.0, 132.0, 23.0, 17.0 ],
									"id" : "obj-62",
									"fontname" : "Arial",
									"numoutlets" : 1,
									"outlettype" : [ "" ]
								}

							}
, 							{
								"box" : 								{
									"maxclass" : "newobj",
									"text" : "t i i i i i",
									"fontsize" : 9.0,
									"numinlets" : 1,
									"patching_rect" : [ 704.0, 92.0, 73.0, 17.0 ],
									"id" : "obj-23",
									"fontname" : "Arial",
									"numoutlets" : 5,
									"outlettype" : [ "int", "int", "int", "int", "int" ]
								}

							}
, 							{
								"box" : 								{
									"maxclass" : "newobj",
									"text" : "* 32",
									"fontsize" : 9.0,
									"numinlets" : 2,
									"patching_rect" : [ 868.0, 172.0, 32.5, 17.0 ],
									"id" : "obj-19",
									"fontname" : "Arial",
									"numoutlets" : 1,
									"outlettype" : [ "int" ]
								}

							}
, 							{
								"box" : 								{
									"maxclass" : "newobj",
									"text" : "+ 97",
									"fontsize" : 9.0,
									"numinlets" : 2,
									"patching_rect" : [ 868.0, 192.0, 32.5, 17.0 ],
									"id" : "obj-10",
									"fontname" : "Arial",
									"numoutlets" : 1,
									"outlettype" : [ "int" ]
								}

							}
, 							{
								"box" : 								{
									"maxclass" : "newobj",
									"text" : "sprintf script newobject comment @text \\\"%s\\\" @varname comment-%d @patching_rect 45 %d 1200 18 @fontsize 12",
									"fontsize" : 9.0,
									"numinlets" : 3,
									"patching_rect" : [ 288.0, 444.0, 480.0, 17.0 ],
									"id" : "obj-43",
									"fontname" : "Arial",
									"numoutlets" : 1,
									"outlettype" : [ "" ]
								}

							}
, 							{
								"box" : 								{
									"maxclass" : "inlet",
									"numinlets" : 0,
									"patching_rect" : [ 44.0, 20.0, 25.0, 25.0 ],
									"id" : "obj-14",
									"numoutlets" : 1,
									"outlettype" : [ "" ],
									"comment" : ""
								}

							}
, 							{
								"box" : 								{
									"maxclass" : "inlet",
									"numinlets" : 0,
									"patching_rect" : [ 268.0, 12.0, 25.0, 25.0 ],
									"id" : "obj-15",
									"numoutlets" : 1,
									"outlettype" : [ "" ],
									"comment" : ""
								}

							}
, 							{
								"box" : 								{
									"maxclass" : "outlet",
									"numinlets" : 1,
									"patching_rect" : [ 193.0, 402.5, 25.0, 25.0 ],
									"id" : "obj-17",
									"numoutlets" : 0,
									"comment" : ""
								}

							}
 ],
						"lines" : [ 							{
								"patchline" : 								{
									"source" : [ "obj-9", 0 ],
									"destination" : [ "obj-2", 1 ],
									"hidden" : 0,
									"midpoints" : [  ]
								}

							}
, 							{
								"patchline" : 								{
									"source" : [ "obj-32", 1 ],
									"destination" : [ "obj-9", 0 ],
									"hidden" : 0,
									"midpoints" : [  ]
								}

							}
, 							{
								"patchline" : 								{
									"source" : [ "obj-33", 0 ],
									"destination" : [ "obj-3", 2 ],
									"hidden" : 0,
									"midpoints" : [  ]
								}

							}
, 							{
								"patchline" : 								{
									"source" : [ "obj-32", 1 ],
									"destination" : [ "obj-33", 0 ],
									"hidden" : 0,
									"midpoints" : [  ]
								}

							}
, 							{
								"patchline" : 								{
									"source" : [ "obj-10", 0 ],
									"destination" : [ "obj-32", 0 ],
									"hidden" : 0,
									"midpoints" : [  ]
								}

							}
, 							{
								"patchline" : 								{
									"source" : [ "obj-19", 0 ],
									"destination" : [ "obj-10", 0 ],
									"hidden" : 0,
									"midpoints" : [  ]
								}

							}
, 							{
								"patchline" : 								{
									"source" : [ "obj-23", 4 ],
									"destination" : [ "obj-19", 0 ],
									"hidden" : 0,
									"midpoints" : [  ]
								}

							}
, 							{
								"patchline" : 								{
									"source" : [ "obj-35", 1 ],
									"destination" : [ "obj-3", 1 ],
									"hidden" : 0,
									"midpoints" : [  ]
								}

							}
, 							{
								"patchline" : 								{
									"source" : [ "obj-3", 0 ],
									"destination" : [ "obj-17", 0 ],
									"hidden" : 0,
									"midpoints" : [  ]
								}

							}
, 							{
								"patchline" : 								{
									"source" : [ "obj-23", 2 ],
									"destination" : [ "obj-3", 0 ],
									"hidden" : 0,
									"midpoints" : [  ]
								}

							}
, 							{
								"patchline" : 								{
									"source" : [ "obj-123", 2 ],
									"destination" : [ "obj-5", 0 ],
									"hidden" : 0,
									"midpoints" : [  ]
								}

							}
, 							{
								"patchline" : 								{
									"source" : [ "obj-5", 0 ],
									"destination" : [ "obj-8", 0 ],
									"hidden" : 0,
									"midpoints" : [  ]
								}

							}
, 							{
								"patchline" : 								{
									"source" : [ "obj-5", 1 ],
									"destination" : [ "obj-7", 0 ],
									"hidden" : 0,
									"midpoints" : [  ]
								}

							}
, 							{
								"patchline" : 								{
									"source" : [ "obj-5", 2 ],
									"destination" : [ "obj-127", 0 ],
									"hidden" : 0,
									"midpoints" : [  ]
								}

							}
, 							{
								"patchline" : 								{
									"source" : [ "obj-64", 3 ],
									"destination" : [ "obj-159", 0 ],
									"hidden" : 0,
									"midpoints" : [  ]
								}

							}
, 							{
								"patchline" : 								{
									"source" : [ "obj-64", 1 ],
									"destination" : [ "obj-20", 2 ],
									"hidden" : 0,
									"midpoints" : [  ]
								}

							}
, 							{
								"patchline" : 								{
									"source" : [ "obj-64", 2 ],
									"destination" : [ "obj-112", 0 ],
									"hidden" : 0,
									"midpoints" : [  ]
								}

							}
, 							{
								"patchline" : 								{
									"source" : [ "obj-64", 0 ],
									"destination" : [ "obj-62", 0 ],
									"hidden" : 0,
									"midpoints" : [  ]
								}

							}
, 							{
								"patchline" : 								{
									"source" : [ "obj-15", 0 ],
									"destination" : [ "obj-64", 0 ],
									"hidden" : 0,
									"midpoints" : [  ]
								}

							}
, 							{
								"patchline" : 								{
									"source" : [ "obj-64", 4 ],
									"destination" : [ "obj-1", 0 ],
									"hidden" : 0,
									"midpoints" : [  ]
								}

							}
, 							{
								"patchline" : 								{
									"source" : [ "obj-62", 0 ],
									"destination" : [ "obj-65", 0 ],
									"hidden" : 0,
									"midpoints" : [  ]
								}

							}
, 							{
								"patchline" : 								{
									"source" : [ "obj-65", 1 ],
									"destination" : [ "obj-20", 0 ],
									"hidden" : 0,
									"midpoints" : [  ]
								}

							}
, 							{
								"patchline" : 								{
									"source" : [ "obj-125", 0 ],
									"destination" : [ "obj-123", 0 ],
									"hidden" : 0,
									"midpoints" : [  ]
								}

							}
, 							{
								"patchline" : 								{
									"source" : [ "obj-112", 0 ],
									"destination" : [ "obj-123", 1 ],
									"hidden" : 0,
									"midpoints" : [  ]
								}

							}
, 							{
								"patchline" : 								{
									"source" : [ "obj-159", 1 ],
									"destination" : [ "obj-125", 0 ],
									"hidden" : 0,
									"midpoints" : [  ]
								}

							}
, 							{
								"patchline" : 								{
									"source" : [ "obj-14", 0 ],
									"destination" : [ "obj-125", 0 ],
									"hidden" : 0,
									"midpoints" : [  ]
								}

							}
, 							{
								"patchline" : 								{
									"source" : [ "obj-127", 0 ],
									"destination" : [ "obj-17", 0 ],
									"hidden" : 0,
									"midpoints" : [  ]
								}

							}
, 							{
								"patchline" : 								{
									"source" : [ "obj-20", 0 ],
									"destination" : [ "obj-23", 0 ],
									"hidden" : 0,
									"midpoints" : [  ]
								}

							}
, 							{
								"patchline" : 								{
									"source" : [ "obj-34", 0 ],
									"destination" : [ "obj-4", 0 ],
									"hidden" : 0,
									"midpoints" : [  ]
								}

							}
, 							{
								"patchline" : 								{
									"source" : [ "obj-34", 1 ],
									"destination" : [ "obj-4", 1 ],
									"hidden" : 0,
									"midpoints" : [  ]
								}

							}
, 							{
								"patchline" : 								{
									"source" : [ "obj-23", 1 ],
									"destination" : [ "obj-34", 0 ],
									"hidden" : 0,
									"midpoints" : [  ]
								}

							}
, 							{
								"patchline" : 								{
									"source" : [ "obj-4", 0 ],
									"destination" : [ "obj-17", 0 ],
									"hidden" : 0,
									"midpoints" : [  ]
								}

							}
, 							{
								"patchline" : 								{
									"source" : [ "obj-2", 0 ],
									"destination" : [ "obj-17", 0 ],
									"hidden" : 0,
									"midpoints" : [  ]
								}

							}
, 							{
								"patchline" : 								{
									"source" : [ "obj-23", 3 ],
									"destination" : [ "obj-35", 0 ],
									"hidden" : 0,
									"midpoints" : [  ]
								}

							}
, 							{
								"patchline" : 								{
									"source" : [ "obj-35", 2 ],
									"destination" : [ "obj-2", 0 ],
									"hidden" : 0,
									"midpoints" : [  ]
								}

							}
, 							{
								"patchline" : 								{
									"source" : [ "obj-11", 0 ],
									"destination" : [ "obj-17", 0 ],
									"hidden" : 0,
									"midpoints" : [  ]
								}

							}
, 							{
								"patchline" : 								{
									"source" : [ "obj-23", 0 ],
									"destination" : [ "obj-11", 0 ],
									"hidden" : 0,
									"midpoints" : [  ]
								}

							}
, 							{
								"patchline" : 								{
									"source" : [ "obj-8", 0 ],
									"destination" : [ "obj-17", 0 ],
									"hidden" : 0,
									"midpoints" : [  ]
								}

							}
, 							{
								"patchline" : 								{
									"source" : [ "obj-7", 0 ],
									"destination" : [ "obj-17", 0 ],
									"hidden" : 0,
									"midpoints" : [  ]
								}

							}
, 							{
								"patchline" : 								{
									"source" : [ "obj-6", 0 ],
									"destination" : [ "obj-159", 1 ],
									"hidden" : 0,
									"midpoints" : [  ]
								}

							}
, 							{
								"patchline" : 								{
									"source" : [ "obj-65", 0 ],
									"destination" : [ "obj-43", 0 ],
									"hidden" : 0,
									"midpoints" : [  ]
								}

							}
, 							{
								"patchline" : 								{
									"source" : [ "obj-43", 0 ],
									"destination" : [ "obj-17", 0 ],
									"hidden" : 0,
									"midpoints" : [  ]
								}

							}
, 							{
								"patchline" : 								{
									"source" : [ "obj-32", 0 ],
									"destination" : [ "obj-43", 2 ],
									"hidden" : 0,
									"midpoints" : [  ]
								}

							}
, 							{
								"patchline" : 								{
									"source" : [ "obj-35", 0 ],
									"destination" : [ "obj-43", 1 ],
									"hidden" : 0,
									"midpoints" : [  ]
								}

							}
 ]
					}
,
					"saved_object_attributes" : 					{
						"fontface" : 0,
						"fontsize" : 10.0,
						"default_fontface" : 0,
						"default_fontname" : "Arial",
						"fontname" : "Arial",
						"default_fontsize" : 10.0,
						"globalpatchername" : ""
					}

				}

			}
, 			{
				"box" : 				{
					"maxclass" : "comment",
					"text" : "Would you like to hear another sound with similiar characteristics to the one just heard?",
					"fontsize" : 10.0,
					"frgb" : [ 0.0, 0.0, 0.0, 1.0 ],
					"numinlets" : 1,
					"patching_rect" : [ 40.0, 384.0, 405.0, 18.0 ],
					"id" : "obj-8",
					"fontname" : "Arial",
					"numoutlets" : 0
				}

			}
, 			{
				"box" : 				{
					"maxclass" : "button",
					"numinlets" : 1,
					"patching_rect" : [ 16.0, 384.0, 20.0, 20.0 ],
					"id" : "obj-13",
					"numoutlets" : 1,
					"outlettype" : [ "bang" ]
				}

			}
, 			{
				"box" : 				{
					"maxclass" : "message",
					"text" : "some bad boys",
					"hidden" : 1,
					"fontsize" : 10.0,
					"numinlets" : 2,
					"patching_rect" : [ 616.0, 20.0, 78.0, 16.0 ],
					"id" : "obj-4",
					"fontname" : "Arial",
					"numoutlets" : 1,
					"outlettype" : [ "" ]
				}

			}
, 			{
				"box" : 				{
					"maxclass" : "newobj",
					"text" : "route clear another_chance new_choice",
					"hidden" : 1,
					"fontsize" : 9.0,
					"numinlets" : 1,
					"patching_rect" : [ 428.0, 48.0, 170.0, 17.0 ],
					"id" : "obj-3",
					"fontname" : "Arial",
					"numoutlets" : 4,
					"outlettype" : [ "", "", "", "" ]
				}

			}
, 			{
				"box" : 				{
					"maxclass" : "inlet",
					"hidden" : 1,
					"numinlets" : 0,
					"patching_rect" : [ 428.0, 12.0, 25.0, 25.0 ],
					"id" : "obj-2",
					"numoutlets" : 1,
					"outlettype" : [ "" ],
					"comment" : ""
				}

			}
, 			{
				"box" : 				{
					"maxclass" : "newobj",
					"text" : "thispatcher",
					"hidden" : 1,
					"fontsize" : 10.0,
					"numinlets" : 1,
					"patching_rect" : [ 428.0, 104.0, 59.0, 18.0 ],
					"id" : "obj-1",
					"fontname" : "Arial",
					"numoutlets" : 2,
					"outlettype" : [ "", "" ],
					"save" : [ "#N", "thispatcher", ";", "#Q", "end", ";" ]
				}

			}
, 			{
				"box" : 				{
					"maxclass" : "outlet",
					"varname" : "main-outlet",
					"hidden" : 1,
					"numinlets" : 1,
					"patching_rect" : [ 104.0, 572.0, 25.0, 25.0 ],
					"id" : "obj-74",
					"numoutlets" : 0,
					"comment" : ""
				}

			}
 ],
		"lines" : [ 			{
				"patchline" : 				{
					"source" : [ "obj-2", 0 ],
					"destination" : [ "obj-3", 0 ],
					"hidden" : 1,
					"midpoints" : [  ]
				}

			}
, 			{
				"patchline" : 				{
					"source" : [ "obj-4", 0 ],
					"destination" : [ "obj-3", 0 ],
					"hidden" : 1,
					"midpoints" : [  ]
				}

			}
, 			{
				"patchline" : 				{
					"source" : [ "obj-3", 3 ],
					"destination" : [ "obj-22", 1 ],
					"hidden" : 1,
					"midpoints" : [  ]
				}

			}
, 			{
				"patchline" : 				{
					"source" : [ "obj-3", 0 ],
					"destination" : [ "obj-22", 0 ],
					"hidden" : 1,
					"midpoints" : [  ]
				}

			}
, 			{
				"patchline" : 				{
					"source" : [ "obj-22", 0 ],
					"destination" : [ "obj-1", 0 ],
					"hidden" : 1,
					"midpoints" : [  ]
				}

			}
, 			{
				"patchline" : 				{
					"source" : [ "obj-6", 0 ],
					"destination" : [ "obj-22", 2 ],
					"hidden" : 1,
					"midpoints" : [  ]
				}

			}
, 			{
				"patchline" : 				{
					"source" : [ "obj-13", 0 ],
					"destination" : [ "obj-48", 0 ],
					"hidden" : 1,
					"midpoints" : [  ]
				}

			}
 ]
	}

}
