{
	"patcher" : 	{
		"fileversion" : 1,
		"rect" : [ 102.0, 44.0, 1069.0, 673.0 ],
		"bglocked" : 0,
		"defrect" : [ 102.0, 44.0, 1069.0, 673.0 ],
		"openrect" : [ 0.0, 0.0, 0.0, 0.0 ],
		"openinpresentation" : 0,
		"default_fontsize" : 10.0,
		"default_fontface" : 0,
		"default_fontname" : "Arial",
		"gridonopen" : 0,
		"gridsize" : [ 4.0, 4.0 ],
		"gridsnaponopen" : 0,
		"toolbarvisible" : 1,
		"boxanimatetime" : 200,
		"imprint" : 0,
		"enablehscroll" : 1,
		"enablevscroll" : 1,
		"devicewidth" : 0.0,
		"boxes" : [ 			{
				"box" : 				{
					"maxclass" : "message",
					"text" : "1",
					"patching_rect" : [ 524.0, 140.0, 32.5, 16.0 ],
					"numoutlets" : 1,
					"id" : "obj-5",
					"outlettype" : [ "" ],
					"fontsize" : 10.0,
					"hidden" : 1,
					"numinlets" : 2,
					"fontname" : "Arial"
				}

			}
, 			{
				"box" : 				{
					"maxclass" : "newobj",
					"text" : "t l 0",
					"patching_rect" : [ 620.0, 72.0, 32.5, 17.0 ],
					"numoutlets" : 2,
					"id" : "obj-10",
					"outlettype" : [ "", "int" ],
					"fontsize" : 9.0,
					"hidden" : 1,
					"numinlets" : 1,
					"fontname" : "Arial"
				}

			}
, 			{
				"box" : 				{
					"maxclass" : "message",
					"text" : "hidden $1",
					"patching_rect" : [ 652.0, 212.0, 54.0, 16.0 ],
					"numoutlets" : 1,
					"id" : "obj-6",
					"outlettype" : [ "" ],
					"fontsize" : 10.0,
					"hidden" : 1,
					"numinlets" : 2,
					"fontname" : "Arial"
				}

			}
, 			{
				"box" : 				{
					"maxclass" : "newobj",
					"text" : "s choose_from_group",
					"patching_rect" : [ 176.0, 416.0, 107.0, 18.0 ],
					"numoutlets" : 0,
					"id" : "obj-48",
					"fontsize" : 10.0,
					"hidden" : 1,
					"numinlets" : 1,
					"fontname" : "Arial"
				}

			}
, 			{
				"box" : 				{
					"maxclass" : "newobj",
					"text" : "p scripting",
					"patching_rect" : [ 428.0, 80.0, 56.0, 18.0 ],
					"numoutlets" : 3,
					"id" : "obj-22",
					"outlettype" : [ "", "", "bang" ],
					"fontsize" : 10.0,
					"hidden" : 1,
					"numinlets" : 3,
					"fontname" : "Arial",
					"patcher" : 					{
						"fileversion" : 1,
						"rect" : [ 25.0, 69.0, 785.0, 492.0 ],
						"bglocked" : 0,
						"defrect" : [ 25.0, 69.0, 785.0, 492.0 ],
						"openrect" : [ 0.0, 0.0, 0.0, 0.0 ],
						"openinpresentation" : 0,
						"default_fontsize" : 10.0,
						"default_fontface" : 0,
						"default_fontname" : "Arial",
						"gridonopen" : 0,
						"gridsize" : [ 4.0, 4.0 ],
						"gridsnaponopen" : 0,
						"toolbarvisible" : 1,
						"boxanimatetime" : 200,
						"imprint" : 0,
						"enablehscroll" : 1,
						"enablevscroll" : 1,
						"devicewidth" : 0.0,
						"boxes" : [ 							{
								"box" : 								{
									"maxclass" : "outlet",
									"patching_rect" : [ 520.0, 428.0, 25.0, 25.0 ],
									"numoutlets" : 0,
									"id" : "obj-1",
									"numinlets" : 1,
									"comment" : ""
								}

							}
, 							{
								"box" : 								{
									"maxclass" : "message",
									"text" : "ignoreclick 0",
									"patching_rect" : [ 402.0, 198.5, 66.0, 16.0 ],
									"numoutlets" : 1,
									"id" : "obj-9",
									"outlettype" : [ "" ],
									"fontsize" : 10.0,
									"numinlets" : 2,
									"fontname" : "Arial"
								}

							}
, 							{
								"box" : 								{
									"maxclass" : "message",
									"text" : "0",
									"patching_rect" : [ 458.0, 130.5, 32.5, 16.0 ],
									"numoutlets" : 1,
									"id" : "obj-7",
									"outlettype" : [ "" ],
									"fontsize" : 10.0,
									"numinlets" : 2,
									"fontname" : "Arial"
								}

							}
, 							{
								"box" : 								{
									"maxclass" : "newobj",
									"text" : "zl group",
									"patching_rect" : [ 498.0, 150.5, 43.0, 17.0 ],
									"numoutlets" : 2,
									"id" : "obj-6",
									"outlettype" : [ "", "" ],
									"fontsize" : 9.0,
									"numinlets" : 2,
									"fontname" : "Arial"
								}

							}
, 							{
								"box" : 								{
									"maxclass" : "newobj",
									"text" : "uzi",
									"patching_rect" : [ 458.0, 106.5, 46.0, 17.0 ],
									"numoutlets" : 3,
									"id" : "obj-5",
									"outlettype" : [ "bang", "bang", "int" ],
									"fontsize" : 9.0,
									"numinlets" : 2,
									"fontname" : "Arial"
								}

							}
, 							{
								"box" : 								{
									"maxclass" : "newobj",
									"text" : "onebang",
									"patching_rect" : [ 50.0, 210.5, 51.0, 18.0 ],
									"numoutlets" : 2,
									"id" : "obj-159",
									"outlettype" : [ "bang", "bang" ],
									"fontsize" : 10.0,
									"numinlets" : 2,
									"fontname" : "Arial"
								}

							}
, 							{
								"box" : 								{
									"maxclass" : "newobj",
									"text" : "sprintf script delete comment-%d",
									"patching_rect" : [ 110.0, 294.5, 143.0, 17.0 ],
									"numoutlets" : 1,
									"id" : "obj-127",
									"outlettype" : [ "" ],
									"fontsize" : 9.0,
									"numinlets" : 1,
									"fontname" : "Arial"
								}

							}
, 							{
								"box" : 								{
									"maxclass" : "button",
									"patching_rect" : [ 82.0, 246.5, 20.0, 20.0 ],
									"numoutlets" : 1,
									"id" : "obj-125",
									"outlettype" : [ "bang" ],
									"numinlets" : 1
								}

							}
, 							{
								"box" : 								{
									"maxclass" : "newobj",
									"text" : "uzi 1 0",
									"patching_rect" : [ 82.0, 270.5, 46.0, 17.0 ],
									"numoutlets" : 3,
									"id" : "obj-123",
									"outlettype" : [ "bang", "bang", "int" ],
									"fontsize" : 9.0,
									"numinlets" : 2,
									"fontname" : "Arial"
								}

							}
, 							{
								"box" : 								{
									"maxclass" : "newobj",
									"text" : "zl len",
									"patching_rect" : [ 310.0, 162.5, 32.5, 17.0 ],
									"numoutlets" : 2,
									"id" : "obj-112",
									"outlettype" : [ "", "" ],
									"fontsize" : 9.0,
									"numinlets" : 2,
									"fontname" : "Arial"
								}

							}
, 							{
								"box" : 								{
									"maxclass" : "newobj",
									"text" : "t s b",
									"patching_rect" : [ 202.0, 206.5, 32.5, 17.0 ],
									"numoutlets" : 2,
									"id" : "obj-65",
									"outlettype" : [ "", "bang" ],
									"fontsize" : 9.0,
									"numinlets" : 1,
									"fontname" : "Arial"
								}

							}
, 							{
								"box" : 								{
									"maxclass" : "newobj",
									"text" : "t l b l b b b",
									"patching_rect" : [ 202.0, 114.5, 177.5, 17.0 ],
									"numoutlets" : 6,
									"id" : "obj-64",
									"outlettype" : [ "", "bang", "", "bang", "bang", "bang" ],
									"fontsize" : 9.0,
									"numinlets" : 1,
									"fontname" : "Arial"
								}

							}
, 							{
								"box" : 								{
									"maxclass" : "newobj",
									"text" : "counter 0 0 99",
									"patching_rect" : [ 406.0, 250.5, 73.0, 17.0 ],
									"numoutlets" : 4,
									"id" : "obj-20",
									"outlettype" : [ "int", "", "", "int" ],
									"fontsize" : 9.0,
									"numinlets" : 5,
									"fontname" : "Arial"
								}

							}
, 							{
								"box" : 								{
									"maxclass" : "newobj",
									"text" : "iter",
									"patching_rect" : [ 202.0, 146.5, 23.0, 17.0 ],
									"numoutlets" : 1,
									"id" : "obj-62",
									"outlettype" : [ "" ],
									"fontsize" : 9.0,
									"numinlets" : 1,
									"fontname" : "Arial"
								}

							}
, 							{
								"box" : 								{
									"maxclass" : "newobj",
									"text" : "t i i",
									"patching_rect" : [ 406.0, 286.5, 32.5, 17.0 ],
									"numoutlets" : 2,
									"id" : "obj-23",
									"outlettype" : [ "int", "int" ],
									"fontsize" : 9.0,
									"numinlets" : 1,
									"fontname" : "Arial"
								}

							}
, 							{
								"box" : 								{
									"maxclass" : "newobj",
									"text" : "* 55",
									"patching_rect" : [ 506.0, 278.5, 32.5, 17.0 ],
									"numoutlets" : 1,
									"id" : "obj-19",
									"outlettype" : [ "int" ],
									"fontsize" : 9.0,
									"numinlets" : 2,
									"fontname" : "Arial"
								}

							}
, 							{
								"box" : 								{
									"maxclass" : "newobj",
									"text" : "+ 89",
									"patching_rect" : [ 506.0, 298.5, 32.5, 17.0 ],
									"numoutlets" : 1,
									"id" : "obj-10",
									"outlettype" : [ "int" ],
									"fontsize" : 9.0,
									"numinlets" : 2,
									"fontname" : "Arial"
								}

							}
, 							{
								"box" : 								{
									"maxclass" : "newobj",
									"text" : "sprintf script newobject comment @text \\\"%s\\\" @varname comment-%d @patching_rect 45 %d 1200 15 @fontsize 24",
									"patching_rect" : [ 246.0, 322.5, 480.0, 17.0 ],
									"numoutlets" : 1,
									"id" : "obj-43",
									"outlettype" : [ "" ],
									"fontsize" : 9.0,
									"numinlets" : 3,
									"fontname" : "Arial"
								}

							}
, 							{
								"box" : 								{
									"maxclass" : "message",
									"text" : "size $1",
									"patching_rect" : [ 310.0, 182.5, 42.0, 16.0 ],
									"numoutlets" : 1,
									"id" : "obj-45",
									"outlettype" : [ "" ],
									"fontsize" : 10.0,
									"numinlets" : 2,
									"fontname" : "Arial"
								}

							}
, 							{
								"box" : 								{
									"maxclass" : "inlet",
									"patching_rect" : [ 82.0, 40.0, 25.0, 25.0 ],
									"numoutlets" : 1,
									"id" : "obj-14",
									"outlettype" : [ "" ],
									"numinlets" : 0,
									"comment" : ""
								}

							}
, 							{
								"box" : 								{
									"maxclass" : "inlet",
									"patching_rect" : [ 202.0, 40.0, 25.0, 25.0 ],
									"numoutlets" : 1,
									"id" : "obj-15",
									"outlettype" : [ "" ],
									"numinlets" : 0,
									"comment" : ""
								}

							}
, 							{
								"box" : 								{
									"maxclass" : "inlet",
									"patching_rect" : [ 402.0, 40.0, 25.0, 25.0 ],
									"numoutlets" : 1,
									"id" : "obj-16",
									"outlettype" : [ "" ],
									"numinlets" : 0,
									"comment" : ""
								}

							}
, 							{
								"box" : 								{
									"maxclass" : "outlet",
									"patching_rect" : [ 173.0, 430.5, 25.0, 25.0 ],
									"numoutlets" : 0,
									"id" : "obj-17",
									"numinlets" : 1,
									"comment" : ""
								}

							}
, 							{
								"box" : 								{
									"maxclass" : "outlet",
									"patching_rect" : [ 398.333313, 430.5, 25.0, 25.0 ],
									"numoutlets" : 0,
									"id" : "obj-18",
									"numinlets" : 1,
									"comment" : ""
								}

							}
 ],
						"lines" : [ 							{
								"patchline" : 								{
									"source" : [ "obj-10", 0 ],
									"destination" : [ "obj-43", 2 ],
									"hidden" : 0,
									"midpoints" : [  ]
								}

							}
, 							{
								"patchline" : 								{
									"source" : [ "obj-19", 0 ],
									"destination" : [ "obj-10", 0 ],
									"hidden" : 0,
									"midpoints" : [  ]
								}

							}
, 							{
								"patchline" : 								{
									"source" : [ "obj-23", 1 ],
									"destination" : [ "obj-19", 0 ],
									"hidden" : 0,
									"midpoints" : [  ]
								}

							}
, 							{
								"patchline" : 								{
									"source" : [ "obj-6", 0 ],
									"destination" : [ "obj-18", 0 ],
									"hidden" : 0,
									"midpoints" : [  ]
								}

							}
, 							{
								"patchline" : 								{
									"source" : [ "obj-9", 0 ],
									"destination" : [ "obj-18", 0 ],
									"hidden" : 0,
									"midpoints" : [  ]
								}

							}
, 							{
								"patchline" : 								{
									"source" : [ "obj-45", 0 ],
									"destination" : [ "obj-18", 0 ],
									"hidden" : 0,
									"midpoints" : [  ]
								}

							}
, 							{
								"patchline" : 								{
									"source" : [ "obj-127", 0 ],
									"destination" : [ "obj-17", 0 ],
									"hidden" : 0,
									"midpoints" : [  ]
								}

							}
, 							{
								"patchline" : 								{
									"source" : [ "obj-16", 0 ],
									"destination" : [ "obj-9", 0 ],
									"hidden" : 0,
									"midpoints" : [  ]
								}

							}
, 							{
								"patchline" : 								{
									"source" : [ "obj-14", 0 ],
									"destination" : [ "obj-125", 0 ],
									"hidden" : 0,
									"midpoints" : [  ]
								}

							}
, 							{
								"patchline" : 								{
									"source" : [ "obj-112", 0 ],
									"destination" : [ "obj-5", 1 ],
									"hidden" : 0,
									"midpoints" : [  ]
								}

							}
, 							{
								"patchline" : 								{
									"source" : [ "obj-7", 0 ],
									"destination" : [ "obj-6", 0 ],
									"hidden" : 0,
									"midpoints" : [  ]
								}

							}
, 							{
								"patchline" : 								{
									"source" : [ "obj-5", 0 ],
									"destination" : [ "obj-7", 0 ],
									"hidden" : 0,
									"midpoints" : [  ]
								}

							}
, 							{
								"patchline" : 								{
									"source" : [ "obj-5", 1 ],
									"destination" : [ "obj-6", 0 ],
									"hidden" : 0,
									"midpoints" : [  ]
								}

							}
, 							{
								"patchline" : 								{
									"source" : [ "obj-159", 1 ],
									"destination" : [ "obj-125", 0 ],
									"hidden" : 0,
									"midpoints" : [  ]
								}

							}
, 							{
								"patchline" : 								{
									"source" : [ "obj-123", 2 ],
									"destination" : [ "obj-127", 0 ],
									"hidden" : 0,
									"midpoints" : [  ]
								}

							}
, 							{
								"patchline" : 								{
									"source" : [ "obj-112", 0 ],
									"destination" : [ "obj-123", 1 ],
									"hidden" : 0,
									"midpoints" : [  ]
								}

							}
, 							{
								"patchline" : 								{
									"source" : [ "obj-125", 0 ],
									"destination" : [ "obj-123", 0 ],
									"hidden" : 0,
									"midpoints" : [  ]
								}

							}
, 							{
								"patchline" : 								{
									"source" : [ "obj-112", 0 ],
									"destination" : [ "obj-45", 0 ],
									"hidden" : 0,
									"midpoints" : [  ]
								}

							}
, 							{
								"patchline" : 								{
									"source" : [ "obj-65", 1 ],
									"destination" : [ "obj-20", 0 ],
									"hidden" : 0,
									"midpoints" : [  ]
								}

							}
, 							{
								"patchline" : 								{
									"source" : [ "obj-20", 0 ],
									"destination" : [ "obj-23", 0 ],
									"hidden" : 0,
									"midpoints" : [  ]
								}

							}
, 							{
								"patchline" : 								{
									"source" : [ "obj-62", 0 ],
									"destination" : [ "obj-65", 0 ],
									"hidden" : 0,
									"midpoints" : [  ]
								}

							}
, 							{
								"patchline" : 								{
									"source" : [ "obj-64", 1 ],
									"destination" : [ "obj-5", 0 ],
									"hidden" : 0,
									"midpoints" : [  ]
								}

							}
, 							{
								"patchline" : 								{
									"source" : [ "obj-64", 3 ],
									"destination" : [ "obj-159", 0 ],
									"hidden" : 0,
									"midpoints" : [  ]
								}

							}
, 							{
								"patchline" : 								{
									"source" : [ "obj-64", 1 ],
									"destination" : [ "obj-20", 2 ],
									"hidden" : 0,
									"midpoints" : [  ]
								}

							}
, 							{
								"patchline" : 								{
									"source" : [ "obj-64", 2 ],
									"destination" : [ "obj-112", 0 ],
									"hidden" : 0,
									"midpoints" : [  ]
								}

							}
, 							{
								"patchline" : 								{
									"source" : [ "obj-64", 0 ],
									"destination" : [ "obj-62", 0 ],
									"hidden" : 0,
									"midpoints" : [  ]
								}

							}
, 							{
								"patchline" : 								{
									"source" : [ "obj-64", 4 ],
									"destination" : [ "obj-9", 0 ],
									"hidden" : 0,
									"midpoints" : [  ]
								}

							}
, 							{
								"patchline" : 								{
									"source" : [ "obj-15", 0 ],
									"destination" : [ "obj-64", 0 ],
									"hidden" : 0,
									"midpoints" : [  ]
								}

							}
, 							{
								"patchline" : 								{
									"source" : [ "obj-64", 5 ],
									"destination" : [ "obj-1", 0 ],
									"hidden" : 0,
									"midpoints" : [  ]
								}

							}
, 							{
								"patchline" : 								{
									"source" : [ "obj-43", 0 ],
									"destination" : [ "obj-17", 0 ],
									"hidden" : 0,
									"midpoints" : [  ]
								}

							}
, 							{
								"patchline" : 								{
									"source" : [ "obj-23", 0 ],
									"destination" : [ "obj-43", 1 ],
									"hidden" : 0,
									"midpoints" : [  ]
								}

							}
, 							{
								"patchline" : 								{
									"source" : [ "obj-65", 0 ],
									"destination" : [ "obj-43", 0 ],
									"hidden" : 0,
									"midpoints" : [  ]
								}

							}
 ]
					}
,
					"saved_object_attributes" : 					{
						"fontface" : 0,
						"fontsize" : 10.0,
						"globalpatchername" : "",
						"default_fontface" : 0,
						"default_fontname" : "Arial",
						"fontname" : "Arial",
						"default_fontsize" : 10.0
					}

				}

			}
, 			{
				"box" : 				{
					"maxclass" : "comment",
					"text" : "< Would you like to hear another sound with similiar characteristics to the one just heard?",
					"patching_rect" : [ 196.0, 384.0, 405.0, 18.0 ],
					"numoutlets" : 0,
					"id" : "obj-8",
					"fontsize" : 10.0,
					"numinlets" : 1,
					"fontname" : "Arial",
					"frgb" : [ 0.0, 0.0, 0.0, 1.0 ]
				}

			}
, 			{
				"box" : 				{
					"maxclass" : "button",
					"patching_rect" : [ 176.0, 384.0, 20.0, 20.0 ],
					"numoutlets" : 1,
					"id" : "obj-13",
					"outlettype" : [ "bang" ],
					"numinlets" : 1
				}

			}
, 			{
				"box" : 				{
					"maxclass" : "newobj",
					"text" : "t l b",
					"patching_rect" : [ 104.0, 488.0, 32.5, 18.0 ],
					"numoutlets" : 2,
					"id" : "obj-12",
					"outlettype" : [ "", "bang" ],
					"fontsize" : 10.0,
					"hidden" : 1,
					"numinlets" : 1,
					"fontname" : "Arial"
				}

			}
, 			{
				"box" : 				{
					"maxclass" : "message",
					"text" : "ignoreclick 1",
					"patching_rect" : [ 192.0, 536.0, 66.0, 16.0 ],
					"numoutlets" : 1,
					"id" : "obj-11",
					"outlettype" : [ "" ],
					"fontsize" : 10.0,
					"hidden" : 1,
					"numinlets" : 2,
					"fontname" : "Arial"
				}

			}
, 			{
				"box" : 				{
					"maxclass" : "newobj",
					"text" : "zl reg",
					"patching_rect" : [ 104.0, 464.0, 35.0, 18.0 ],
					"numoutlets" : 2,
					"id" : "obj-25",
					"outlettype" : [ "", "" ],
					"fontsize" : 10.0,
					"hidden" : 1,
					"numinlets" : 2,
					"fontname" : "Arial"
				}

			}
, 			{
				"box" : 				{
					"maxclass" : "comment",
					"text" : "< click to submit your answer",
					"patching_rect" : [ 36.0, 384.0, 139.0, 18.0 ],
					"numoutlets" : 0,
					"id" : "obj-24",
					"fontsize" : 10.0,
					"numinlets" : 1,
					"fontname" : "Arial",
					"frgb" : [ 0.0, 0.0, 0.0, 1.0 ]
				}

			}
, 			{
				"box" : 				{
					"maxclass" : "button",
					"patching_rect" : [ 16.0, 384.0, 20.0, 20.0 ],
					"numoutlets" : 1,
					"id" : "obj-21",
					"outlettype" : [ "bang" ],
					"numinlets" : 1,
					"fgcolor" : [ 0.909804, 0.447059, 0.070588, 1.0 ]
				}

			}
, 			{
				"box" : 				{
					"maxclass" : "message",
					"text" : "some bad boys",
					"patching_rect" : [ 616.0, 20.0, 78.0, 16.0 ],
					"numoutlets" : 1,
					"id" : "obj-4",
					"outlettype" : [ "" ],
					"fontsize" : 10.0,
					"hidden" : 1,
					"numinlets" : 2,
					"fontname" : "Arial"
				}

			}
, 			{
				"box" : 				{
					"maxclass" : "newobj",
					"text" : "route clear another_chance expose_other_choice",
					"patching_rect" : [ 428.0, 48.0, 208.0, 17.0 ],
					"numoutlets" : 4,
					"id" : "obj-3",
					"outlettype" : [ "", "", "", "" ],
					"fontsize" : 9.0,
					"hidden" : 1,
					"numinlets" : 1,
					"fontname" : "Arial"
				}

			}
, 			{
				"box" : 				{
					"maxclass" : "inlet",
					"patching_rect" : [ 428.0, 12.0, 25.0, 25.0 ],
					"numoutlets" : 1,
					"id" : "obj-2",
					"outlettype" : [ "" ],
					"hidden" : 1,
					"numinlets" : 0,
					"comment" : ""
				}

			}
, 			{
				"box" : 				{
					"maxclass" : "newobj",
					"text" : "thispatcher",
					"patching_rect" : [ 428.0, 104.0, 59.0, 18.0 ],
					"numoutlets" : 2,
					"id" : "obj-1",
					"outlettype" : [ "", "" ],
					"fontsize" : 10.0,
					"hidden" : 1,
					"numinlets" : 1,
					"fontname" : "Arial",
					"save" : [ "#N", "thispatcher", ";", "#Q", "end", ";" ]
				}

			}
, 			{
				"box" : 				{
					"maxclass" : "radiogroup",
					"patching_rect" : [ 12.0, 96.0, 18.0, 167.0 ],
					"numoutlets" : 1,
					"id" : "obj-42",
					"outlettype" : [ "" ],
					"bgcolor" : [ 1.0, 1.0, 1.0, 0.0 ],
					"offset" : 55,
					"numinlets" : 1,
					"itemtype" : 1,
					"size" : 3,
					"values" : [ 0, 0, 0 ],
					"disabled" : [ 0, 0, 0 ]
				}

			}
, 			{
				"box" : 				{
					"maxclass" : "outlet",
					"patching_rect" : [ 104.0, 572.0, 25.0, 25.0 ],
					"numoutlets" : 0,
					"id" : "obj-74",
					"hidden" : 1,
					"numinlets" : 1,
					"comment" : ""
				}

			}
 ],
		"lines" : [ 			{
				"patchline" : 				{
					"source" : [ "obj-10", 1 ],
					"destination" : [ "obj-6", 0 ],
					"hidden" : 1,
					"midpoints" : [  ]
				}

			}
, 			{
				"patchline" : 				{
					"source" : [ "obj-10", 0 ],
					"destination" : [ "obj-22", 1 ],
					"hidden" : 1,
					"midpoints" : [  ]
				}

			}
, 			{
				"patchline" : 				{
					"source" : [ "obj-3", 3 ],
					"destination" : [ "obj-10", 0 ],
					"hidden" : 1,
					"midpoints" : [  ]
				}

			}
, 			{
				"patchline" : 				{
					"source" : [ "obj-6", 0 ],
					"destination" : [ "obj-42", 0 ],
					"hidden" : 1,
					"midpoints" : [  ]
				}

			}
, 			{
				"patchline" : 				{
					"source" : [ "obj-6", 0 ],
					"destination" : [ "obj-8", 0 ],
					"hidden" : 1,
					"midpoints" : [  ]
				}

			}
, 			{
				"patchline" : 				{
					"source" : [ "obj-6", 0 ],
					"destination" : [ "obj-24", 0 ],
					"hidden" : 1,
					"midpoints" : [  ]
				}

			}
, 			{
				"patchline" : 				{
					"source" : [ "obj-6", 0 ],
					"destination" : [ "obj-21", 0 ],
					"hidden" : 1,
					"midpoints" : [  ]
				}

			}
, 			{
				"patchline" : 				{
					"source" : [ "obj-6", 0 ],
					"destination" : [ "obj-13", 0 ],
					"hidden" : 1,
					"midpoints" : [  ]
				}

			}
, 			{
				"patchline" : 				{
					"source" : [ "obj-13", 0 ],
					"destination" : [ "obj-48", 0 ],
					"hidden" : 1,
					"midpoints" : [  ]
				}

			}
, 			{
				"patchline" : 				{
					"source" : [ "obj-42", 0 ],
					"destination" : [ "obj-25", 1 ],
					"hidden" : 1,
					"midpoints" : [  ]
				}

			}
, 			{
				"patchline" : 				{
					"source" : [ "obj-21", 0 ],
					"destination" : [ "obj-25", 0 ],
					"hidden" : 1,
					"midpoints" : [  ]
				}

			}
, 			{
				"patchline" : 				{
					"source" : [ "obj-12", 0 ],
					"destination" : [ "obj-74", 0 ],
					"hidden" : 1,
					"midpoints" : [  ]
				}

			}
, 			{
				"patchline" : 				{
					"source" : [ "obj-25", 0 ],
					"destination" : [ "obj-12", 0 ],
					"hidden" : 1,
					"midpoints" : [  ]
				}

			}
, 			{
				"patchline" : 				{
					"source" : [ "obj-12", 1 ],
					"destination" : [ "obj-11", 0 ],
					"hidden" : 1,
					"midpoints" : [  ]
				}

			}
, 			{
				"patchline" : 				{
					"source" : [ "obj-11", 0 ],
					"destination" : [ "obj-42", 0 ],
					"hidden" : 1,
					"midpoints" : [  ]
				}

			}
, 			{
				"patchline" : 				{
					"source" : [ "obj-2", 0 ],
					"destination" : [ "obj-3", 0 ],
					"hidden" : 1,
					"midpoints" : [  ]
				}

			}
, 			{
				"patchline" : 				{
					"source" : [ "obj-4", 0 ],
					"destination" : [ "obj-3", 0 ],
					"hidden" : 1,
					"midpoints" : [  ]
				}

			}
, 			{
				"patchline" : 				{
					"source" : [ "obj-22", 1 ],
					"destination" : [ "obj-42", 0 ],
					"hidden" : 1,
					"midpoints" : [  ]
				}

			}
, 			{
				"patchline" : 				{
					"source" : [ "obj-22", 0 ],
					"destination" : [ "obj-1", 0 ],
					"hidden" : 1,
					"midpoints" : [  ]
				}

			}
, 			{
				"patchline" : 				{
					"source" : [ "obj-3", 1 ],
					"destination" : [ "obj-22", 2 ],
					"hidden" : 1,
					"midpoints" : [  ]
				}

			}
, 			{
				"patchline" : 				{
					"source" : [ "obj-3", 0 ],
					"destination" : [ "obj-22", 0 ],
					"hidden" : 1,
					"midpoints" : [  ]
				}

			}
, 			{
				"patchline" : 				{
					"source" : [ "obj-3", 0 ],
					"destination" : [ "obj-5", 0 ],
					"hidden" : 1,
					"midpoints" : [  ]
				}

			}
, 			{
				"patchline" : 				{
					"source" : [ "obj-5", 0 ],
					"destination" : [ "obj-6", 0 ],
					"hidden" : 1,
					"midpoints" : [  ]
				}

			}
 ]
	}

}
