{
	"patcher" : 	{
		"fileversion" : 1,
		"appversion" : 		{
			"major" : 6,
			"minor" : 0,
			"revision" : 5
		}
,
		"rect" : [ 39.0, 45.0, 517.0, 382.0 ],
		"bgcolor" : [ 0.870588, 0.929412, 1.0, 1.0 ],
		"bglocked" : 0,
		"openinpresentation" : 0,
		"default_fontsize" : 12.0,
		"default_fontface" : 0,
		"default_fontname" : "Arial",
		"gridonopen" : 0,
		"gridsize" : [ 15.0, 15.0 ],
		"gridsnaponopen" : 0,
		"statusbarvisible" : 2,
		"toolbarvisible" : 1,
		"boxanimatetime" : 200,
		"imprint" : 0,
		"enablehscroll" : 1,
		"enablevscroll" : 1,
		"devicewidth" : 0.0,
		"description" : "",
		"digest" : "",
		"tags" : "",
		"boxes" : [ 			{
				"box" : 				{
					"args" : [ "ali.sin-normalize", "Scale amplitudes in a sinusoidal model so they sum to one", "0.296 0.594 0.784 1." ],
					"id" : "obj-1",
					"maxclass" : "bpatcher",
					"name" : "banner.maxpat",
					"numinlets" : 0,
					"numoutlets" : 0,
					"offset" : [ -18.0, -68.0 ],
					"patching_rect" : [ 23.0, 18.0, 511.0, 76.0 ]
				}

			}
, 			{
				"box" : 				{
					"args" : [ "ali.sin-normalize.help", "1.0a", "Valle and Wright", "ali.sin-normalize", 6666, "0.296 0.594 0.784 1." ],
					"id" : "obj-12",
					"maxclass" : "bpatcher",
					"name" : "badge.maxpat",
					"numinlets" : 0,
					"numoutlets" : 0,
					"patching_rect" : [ 236.0, 286.0, 292.0, 86.0 ],
					"prototypename" : "cnmat_badge"
				}

			}
, 			{
				"box" : 				{
					"fontname" : "Arial",
					"fontsize" : 12.0,
					"id" : "obj-2",
					"maxclass" : "newobj",
					"numinlets" : 1,
					"numoutlets" : 0,
					"patching_rect" : [ 116.0, 226.0, 150.0, 20.0 ],
					"text" : "print ali.sin-normalize.help"
				}

			}
, 			{
				"box" : 				{
					"fontname" : "Arial",
					"fontsize" : 12.0,
					"id" : "obj-3",
					"maxclass" : "message",
					"numinlets" : 2,
					"numoutlets" : 1,
					"outlettype" : [ "" ],
					"patching_rect" : [ 114.0, 137.0, 137.0, 18.0 ],
					"text" : "100 100. 200 50 300 25"
				}

			}
, 			{
				"box" : 				{
					"id" : "obj-4",
					"maxclass" : "ezdac~",
					"numinlets" : 2,
					"numoutlets" : 0,
					"patching_rect" : [ 310.0, 171.0, 33.0, 33.0 ]
				}

			}
, 			{
				"box" : 				{
					"bgcolor" : [ 0.403922, 0.403922, 0.403922, 1.0 ],
					"coldcolor" : [ 0.0, 0.658824, 0.0, 1.0 ],
					"id" : "obj-5",
					"maxclass" : "meter~",
					"numinlets" : 1,
					"numoutlets" : 1,
					"outlettype" : [ "float" ],
					"patching_rect" : [ 101.0, 289.0, 80.0, 13.0 ],
					"tepidcolor" : [ 0.6, 0.729412, 0.0, 1.0 ],
					"warmcolor" : [ 0.85098, 0.85098, 0.0, 1.0 ]
				}

			}
, 			{
				"box" : 				{
					"fontname" : "Arial",
					"fontsize" : 12.0,
					"id" : "obj-8",
					"maxclass" : "message",
					"numinlets" : 2,
					"numoutlets" : 1,
					"outlettype" : [ "" ],
					"patching_rect" : [ 89.0, 114.0, 137.0, 18.0 ],
					"text" : "100 1. 200 0.5 300 0.25"
				}

			}
, 			{
				"box" : 				{
					"fontname" : "Arial",
					"fontsize" : 12.0,
					"id" : "obj-10",
					"maxclass" : "newobj",
					"numinlets" : 2,
					"numoutlets" : 1,
					"outlettype" : [ "" ],
					"patching_rect" : [ 102.0, 200.0, 111.0, 20.0 ],
					"text" : "ali.sin-normalize 1."
				}

			}
, 			{
				"box" : 				{
					"fontname" : "Arial",
					"fontsize" : 12.0,
					"id" : "obj-11",
					"maxclass" : "newobj",
					"numinlets" : 1,
					"numoutlets" : 1,
					"outlettype" : [ "signal" ],
					"patching_rect" : [ 102.0, 253.0, 68.0, 20.0 ],
					"text" : "sinusoids~"
				}

			}
 ],
		"lines" : [ 			{
				"patchline" : 				{
					"destination" : [ "obj-11", 0 ],
					"disabled" : 0,
					"hidden" : 0,
					"source" : [ "obj-10", 0 ]
				}

			}
, 			{
				"patchline" : 				{
					"destination" : [ "obj-2", 0 ],
					"disabled" : 0,
					"hidden" : 0,
					"source" : [ "obj-10", 0 ]
				}

			}
, 			{
				"patchline" : 				{
					"destination" : [ "obj-5", 0 ],
					"disabled" : 0,
					"hidden" : 0,
					"source" : [ "obj-11", 0 ]
				}

			}
, 			{
				"patchline" : 				{
					"destination" : [ "obj-10", 0 ],
					"disabled" : 0,
					"hidden" : 0,
					"source" : [ "obj-3", 0 ]
				}

			}
, 			{
				"patchline" : 				{
					"destination" : [ "obj-10", 0 ],
					"disabled" : 0,
					"hidden" : 0,
					"source" : [ "obj-8", 0 ]
				}

			}
 ],
		"dependency_cache" : [ 			{
				"name" : "ali.sin-normalize.maxpat",
				"bootpath" : "/Volumes/Rafael Valle/DESKTOP/Coding/CNMAT/CNMAT-MMJ-Depot/modules/Synthesis",
				"patcherrelativepath" : "",
				"type" : "JSON",
				"implicit" : 1
			}
, 			{
				"name" : "coll-listdumper.maxpat",
				"bootpath" : "/Volumes/Rafael Valle/DESKTOP/Coding/CNMAT/CNMAT-MMJ-Depot/modules/Data_Storage",
				"patcherrelativepath" : "../Data_Storage",
				"type" : "JSON",
				"implicit" : 1
			}
, 			{
				"name" : "list-normalize-sum.maxpat",
				"bootpath" : "/Volumes/Rafael Valle/DESKTOP/Coding/CNMAT/CNMAT-MMJ-Depot/modules/Lists",
				"patcherrelativepath" : "../Lists",
				"type" : "JSON",
				"implicit" : 1
			}
, 			{
				"name" : "badge.maxpat",
				"bootpath" : "/Volumes/Rafael Valle/DESKTOP/Coding/CNMAT/CNMAT-MMJ-Depot/modules/Depot_Support",
				"patcherrelativepath" : "../Depot_Support",
				"type" : "JSON",
				"implicit" : 1
			}
, 			{
				"name" : "uc_license.maxpat",
				"bootpath" : "/Volumes/Rafael Valle/DESKTOP/Coding/CNMAT/CNMAT-MMJ-Depot/modules/Depot_Support",
				"patcherrelativepath" : "../Depot_Support",
				"type" : "JSON",
				"implicit" : 1
			}
, 			{
				"name" : "cnmat_blue.gif",
				"bootpath" : "/Volumes/Rafael Valle/DESKTOP/Coding/CNMAT/CNMAT-MMJ-Depot/modules/Depot_Support",
				"patcherrelativepath" : "../Depot_Support",
				"type" : "GIFf",
				"implicit" : 1
			}
, 			{
				"name" : "myNotes.js",
				"bootpath" : "/Volumes/Rafael Valle/DESKTOP/Coding/CNMAT/CNMAT-MMJ-Depot/modules/Depot_Support",
				"patcherrelativepath" : "../Depot_Support",
				"type" : "TEXT",
				"implicit" : 1
			}
, 			{
				"name" : "take_notes.maxpat",
				"bootpath" : "/Volumes/Rafael Valle/DESKTOP/Coding/CNMAT/CNMAT-MMJ-Depot/modules/Depot_Support",
				"patcherrelativepath" : "../Depot_Support",
				"type" : "JSON",
				"implicit" : 1
			}
, 			{
				"name" : "banner.maxpat",
				"bootpath" : "/Volumes/Rafael Valle/DESKTOP/Coding/CNMAT/CNMAT-MMJ-Depot/modules/Depot_Support",
				"patcherrelativepath" : "../Depot_Support",
				"type" : "JSON",
				"implicit" : 1
			}
, 			{
				"name" : "cnmat_wht-trans.png",
				"bootpath" : "/Volumes/Rafael Valle/DESKTOP/Coding/CNMAT/CNMAT-MMJ-Depot/modules/Depot_Support",
				"patcherrelativepath" : "../Depot_Support",
				"type" : "PNG ",
				"implicit" : 1
			}
, 			{
				"name" : "sinusoids~.mxo",
				"type" : "iLaX"
			}
 ]
	}

}
