{
	"patcher" : 	{
		"fileversion" : 1,
		"appversion" : 		{
			"major" : 6,
			"minor" : 0,
			"revision" : 5
		}
,
		"rect" : [ 266.0, 523.0, 626.0, 320.0 ],
		"bgcolor" : [ 0.870588, 0.929412, 1.0, 1.0 ],
		"bglocked" : 0,
		"openinpresentation" : 0,
		"default_fontsize" : 12.0,
		"default_fontface" : 0,
		"default_fontname" : "Arial",
		"gridonopen" : 0,
		"gridsize" : [ 15.0, 15.0 ],
		"gridsnaponopen" : 0,
		"statusbarvisible" : 2,
		"toolbarvisible" : 1,
		"boxanimatetime" : 200,
		"imprint" : 0,
		"enablehscroll" : 1,
		"enablevscroll" : 1,
		"devicewidth" : 0.0,
		"description" : "",
		"digest" : "",
		"tags" : "",
		"boxes" : [ 			{
				"box" : 				{
					"color" : [ 1.0, 0.890196, 0.090196, 1.0 ],
					"fontname" : "Arial",
					"fontsize" : 9.0,
					"id" : "obj-1",
					"maxclass" : "newobj",
					"numinlets" : 0,
					"numoutlets" : 0,
					"patcher" : 					{
						"fileversion" : 1,
						"appversion" : 						{
							"major" : 6,
							"minor" : 0,
							"revision" : 5
						}
,
						"rect" : [ 298.0, 133.0, 429.0, 322.0 ],
						"bglocked" : 0,
						"openinpresentation" : 0,
						"default_fontsize" : 12.0,
						"default_fontface" : 0,
						"default_fontname" : "Arial",
						"gridonopen" : 0,
						"gridsize" : [ 15.0, 15.0 ],
						"gridsnaponopen" : 0,
						"statusbarvisible" : 2,
						"toolbarvisible" : 1,
						"boxanimatetime" : 200,
						"imprint" : 0,
						"enablehscroll" : 1,
						"enablevscroll" : 1,
						"devicewidth" : 0.0,
						"description" : "",
						"digest" : "",
						"tags" : "",
						"boxes" : [ 							{
								"box" : 								{
									"fontname" : "Arial",
									"fontsize" : 9.0,
									"id" : "obj-2",
									"maxclass" : "comment",
									"numinlets" : 1,
									"numoutlets" : 0,
									"patching_rect" : [ 19.0, 71.0, 290.0, 17.0 ],
									"text" : "Converted to Max 5, January 2009, mzed"
								}

							}
, 							{
								"box" : 								{
									"fontname" : "Arial",
									"fontsize" : 9.0,
									"id" : "obj-1",
									"linecount" : 2,
									"maxclass" : "comment",
									"numinlets" : 1,
									"numoutlets" : 0,
									"patching_rect" : [ 18.0, 41.0, 290.0, 27.0 ],
									"text" : "Matt Wright reviewed this patch in August 2007 for for correctness, style, generality, efficiency, and overall design."
								}

							}
 ],
						"lines" : [  ],
						"dependency_cache" : [  ]
					}
,
					"patching_rect" : [ 390.0, 271.0, 46.0, 17.0 ],
					"saved_object_attributes" : 					{
						"fontface" : 0,
						"default_fontface" : 0,
						"fontsize" : 12.0,
						"tags" : "",
						"digest" : "",
						"default_fontname" : "Arial",
						"default_fontsize" : 12.0,
						"description" : "",
						"fontname" : "Arial",
						"globalpatchername" : ""
					}
,
					"text" : "p status"
				}

			}
, 			{
				"box" : 				{
					"args" : [ "list-cumulative-sum", "Cumulative sum of a list of numbers", "0.296 0.594 0.784 1." ],
					"id" : "obj-42",
					"lockeddragscroll" : 1,
					"maxclass" : "bpatcher",
					"name" : "banner.maxpat",
					"numinlets" : 0,
					"numoutlets" : 0,
					"offset" : [ -21.0, -68.0 ],
					"patching_rect" : [ 22.0, 16.0, 505.0, 81.0 ],
					"presentation" : 1,
					"presentation_rect" : [ 827.0, 723.0, 511.0, 76.0 ],
					"prototypename" : "cnmat_banner"
				}

			}
, 			{
				"box" : 				{
					"args" : [ "list-cumulative-sum", "1.0b", "Rafael Valle & Matt Wright", "lis-cumulative-sum", 6666, "0.296 0.594 0.784 1." ],
					"id" : "obj-16",
					"maxclass" : "bpatcher",
					"name" : "badge.maxpat",
					"numinlets" : 0,
					"numoutlets" : 0,
					"patching_rect" : [ 307.0, 213.0, 296.0, 86.0 ],
					"prototypename" : "cnmat_badge"
				}

			}
, 			{
				"box" : 				{
					"fontname" : "Arial",
					"fontsize" : 12.0,
					"hidden" : 1,
					"id" : "obj-5",
					"maxclass" : "newobj",
					"numinlets" : 1,
					"numoutlets" : 1,
					"outlettype" : [ "" ],
					"patching_rect" : [ 46.0, 208.0, 81.0, 20.0 ],
					"text" : "loadmess set"
				}

			}
, 			{
				"box" : 				{
					"fontname" : "Arial",
					"fontsize" : 12.0,
					"id" : "obj-6",
					"maxclass" : "message",
					"numinlets" : 2,
					"numoutlets" : 1,
					"outlettype" : [ "" ],
					"patching_rect" : [ 46.0, 236.0, 140.0, 18.0 ]
				}

			}
, 			{
				"box" : 				{
					"fontname" : "Arial",
					"fontsize" : 12.0,
					"id" : "obj-8",
					"maxclass" : "message",
					"numinlets" : 2,
					"numoutlets" : 1,
					"outlettype" : [ "" ],
					"patching_rect" : [ 62.0, 137.0, 87.0, 18.0 ],
					"text" : "1 1 1 1 2 2 2 2"
				}

			}
, 			{
				"box" : 				{
					"fontname" : "Arial",
					"fontsize" : 12.0,
					"id" : "obj-9",
					"maxclass" : "message",
					"numinlets" : 2,
					"numoutlets" : 1,
					"outlettype" : [ "" ],
					"patching_rect" : [ 46.0, 117.0, 87.0, 18.0 ],
					"text" : "1 1 1 1 1 1 1 1"
				}

			}
, 			{
				"box" : 				{
					"fontname" : "Arial",
					"fontsize" : 12.0,
					"frgb" : [ 0.4, 0.4, 0.8, 1.0 ],
					"id" : "obj-10",
					"maxclass" : "comment",
					"numinlets" : 1,
					"numoutlets" : 0,
					"patching_rect" : [ 216.0, 215.0, 69.0, 20.0 ],
					"text" : "opposite of",
					"textcolor" : [ 0.4, 0.4, 0.8, 1.0 ]
				}

			}
, 			{
				"box" : 				{
					"fontname" : "Arial",
					"fontsize" : 12.0,
					"hidden" : 1,
					"id" : "obj-11",
					"maxclass" : "newobj",
					"numinlets" : 1,
					"numoutlets" : 1,
					"outlettype" : [ "" ],
					"patching_rect" : [ 216.0, 256.0, 81.0, 20.0 ],
					"text" : "prepend help"
				}

			}
, 			{
				"box" : 				{
					"bgcolor" : [ 0.4, 0.4, 0.8, 1.0 ],
					"fontname" : "Arial",
					"fontsize" : 12.0,
					"id" : "obj-12",
					"maxclass" : "message",
					"numinlets" : 2,
					"numoutlets" : 1,
					"outlettype" : [ "" ],
					"patching_rect" : [ 216.0, 233.0, 82.0, 18.0 ],
					"text" : "list-difference",
					"textcolor" : [ 1.0, 1.0, 1.0, 1.0 ]
				}

			}
, 			{
				"box" : 				{
					"fontname" : "Arial",
					"fontsize" : 12.0,
					"hidden" : 1,
					"id" : "obj-13",
					"maxclass" : "newobj",
					"numinlets" : 1,
					"numoutlets" : 1,
					"outlettype" : [ "" ],
					"patching_rect" : [ 216.0, 277.0, 53.0, 20.0 ],
					"text" : "pcontrol"
				}

			}
, 			{
				"box" : 				{
					"color" : [ 0.898039, 1.0, 0.0, 1.0 ],
					"fontname" : "Arial",
					"fontsize" : 12.0,
					"id" : "obj-14",
					"maxclass" : "newobj",
					"numinlets" : 1,
					"numoutlets" : 1,
					"outlettype" : [ "" ],
					"patching_rect" : [ 46.0, 172.0, 113.0, 20.0 ],
					"text" : "list-cumulative-sum"
				}

			}
, 			{
				"box" : 				{
					"fontname" : "Arial",
					"fontsize" : 12.0,
					"id" : "obj-15",
					"linecount" : 2,
					"maxclass" : "comment",
					"numinlets" : 1,
					"numoutlets" : 0,
					"patching_rect" : [ 186.0, 114.0, 242.0, 34.0 ],
					"text" : "Cumulative sum: if input is A, B, C, D, output will be A, A+B, A+B+C, A+B+C+D."
				}

			}
 ],
		"lines" : [ 			{
				"patchline" : 				{
					"destination" : [ "obj-13", 0 ],
					"disabled" : 0,
					"hidden" : 1,
					"source" : [ "obj-11", 0 ]
				}

			}
, 			{
				"patchline" : 				{
					"destination" : [ "obj-11", 0 ],
					"disabled" : 0,
					"hidden" : 1,
					"midpoints" : [ 225.5, 252.0, 225.5, 252.0 ],
					"source" : [ "obj-12", 0 ]
				}

			}
, 			{
				"patchline" : 				{
					"destination" : [ "obj-6", 1 ],
					"disabled" : 0,
					"hidden" : 0,
					"midpoints" : [ 55.5, 203.0, 176.5, 203.0 ],
					"source" : [ "obj-14", 0 ]
				}

			}
, 			{
				"patchline" : 				{
					"destination" : [ "obj-6", 0 ],
					"disabled" : 0,
					"hidden" : 1,
					"source" : [ "obj-5", 0 ]
				}

			}
, 			{
				"patchline" : 				{
					"destination" : [ "obj-14", 0 ],
					"disabled" : 0,
					"hidden" : 0,
					"source" : [ "obj-8", 0 ]
				}

			}
, 			{
				"patchline" : 				{
					"destination" : [ "obj-14", 0 ],
					"disabled" : 0,
					"hidden" : 0,
					"source" : [ "obj-9", 0 ]
				}

			}
 ],
		"dependency_cache" : [ 			{
				"name" : "list-cumulative-sum.maxpat",
				"bootpath" : "/Volumes/Rafael Valle/DESKTOP/Coding/CNMAT/CNMAT-MMJ-Depot/modules/Lists",
				"patcherrelativepath" : "",
				"type" : "JSON",
				"implicit" : 1
			}
, 			{
				"name" : "badge.maxpat",
				"bootpath" : "/Volumes/Rafael Valle/DESKTOP/Coding/CNMAT/CNMAT-MMJ-Depot/modules/Depot_Support",
				"patcherrelativepath" : "../Depot_Support",
				"type" : "JSON",
				"implicit" : 1
			}
, 			{
				"name" : "uc_license.maxpat",
				"bootpath" : "/Volumes/Rafael Valle/DESKTOP/Coding/CNMAT/CNMAT-MMJ-Depot/modules/Depot_Support",
				"patcherrelativepath" : "../Depot_Support",
				"type" : "JSON",
				"implicit" : 1
			}
, 			{
				"name" : "cnmat_blue.gif",
				"bootpath" : "/Volumes/Rafael Valle/DESKTOP/Coding/CNMAT/CNMAT-MMJ-Depot/modules/Depot_Support",
				"patcherrelativepath" : "../Depot_Support",
				"type" : "GIFf",
				"implicit" : 1
			}
, 			{
				"name" : "myNotes.js",
				"bootpath" : "/Volumes/Rafael Valle/DESKTOP/Coding/CNMAT/CNMAT-MMJ-Depot/modules/Depot_Support",
				"patcherrelativepath" : "../Depot_Support",
				"type" : "TEXT",
				"implicit" : 1
			}
, 			{
				"name" : "take_notes.maxpat",
				"bootpath" : "/Volumes/Rafael Valle/DESKTOP/Coding/CNMAT/CNMAT-MMJ-Depot/modules/Depot_Support",
				"patcherrelativepath" : "../Depot_Support",
				"type" : "JSON",
				"implicit" : 1
			}
, 			{
				"name" : "banner.maxpat",
				"bootpath" : "/Volumes/Rafael Valle/DESKTOP/Coding/CNMAT/CNMAT-MMJ-Depot/modules/Depot_Support",
				"patcherrelativepath" : "../Depot_Support",
				"type" : "JSON",
				"implicit" : 1
			}
, 			{
				"name" : "cnmat_wht-trans.png",
				"bootpath" : "/Volumes/Rafael Valle/DESKTOP/Coding/CNMAT/CNMAT-MMJ-Depot/modules/Depot_Support",
				"patcherrelativepath" : "../Depot_Support",
				"type" : "PNG ",
				"implicit" : 1
			}
 ]
	}

}
