{
	"patcher" : 	{
		"fileversion" : 1,
		"rect" : [ 25.0, 69.0, 659.0, 683.0 ],
		"bglocked" : 0,
		"defrect" : [ 25.0, 69.0, 659.0, 683.0 ],
		"openrect" : [ 0.0, 0.0, 0.0, 0.0 ],
		"openinpresentation" : 0,
		"default_fontsize" : 12.0,
		"default_fontface" : 0,
		"default_fontname" : "Arial",
		"gridonopen" : 0,
		"gridsize" : [ 15.0, 15.0 ],
		"gridsnaponopen" : 0,
		"toolbarvisible" : 1,
		"boxanimatetime" : 200,
		"imprint" : 0,
		"enablehscroll" : 1,
		"enablevscroll" : 1,
		"boxes" : [ 			{
				"box" : 				{
					"maxclass" : "message",
					"text" : "Lucas-sequence-maker.maxhelp",
					"numinlets" : 2,
					"patching_rect" : [ 235.0, 368.0, 185.0, 18.0 ],
					"fontname" : "Arial",
					"numoutlets" : 1,
					"outlettype" : [ "" ],
					"fontsize" : 12.0,
					"presentation_rect" : [ 160.0, 434.0, 0.0, 0.0 ],
					"id" : "obj-14"
				}

			}
, 			{
				"box" : 				{
					"maxclass" : "message",
					"text" : "03-pitch_processing.maxpat",
					"numinlets" : 2,
					"patching_rect" : [ 235.0, 337.0, 161.0, 18.0 ],
					"fontname" : "Arial",
					"numoutlets" : 1,
					"outlettype" : [ "" ],
					"fontsize" : 12.0,
					"presentation_rect" : [ 148.0, 408.0, 0.0, 0.0 ],
					"id" : "obj-13"
				}

			}
, 			{
				"box" : 				{
					"maxclass" : "message",
					"text" : "singing-voice~.help.pat",
					"numinlets" : 2,
					"patching_rect" : [ 235.0, 313.0, 134.0, 18.0 ],
					"fontname" : "Arial",
					"numoutlets" : 1,
					"outlettype" : [ "" ],
					"fontsize" : 12.0,
					"presentation_rect" : [ 135.0, 371.0, 0.0, 0.0 ],
					"id" : "obj-12"
				}

			}
, 			{
				"box" : 				{
					"maxclass" : "message",
					"text" : "08-Simple-synthesis.maxpat",
					"numinlets" : 2,
					"patching_rect" : [ 235.0, 282.0, 161.0, 18.0 ],
					"fontname" : "Arial",
					"numoutlets" : 1,
					"outlettype" : [ "" ],
					"fontsize" : 12.0,
					"presentation_rect" : [ 124.0, 340.0, 0.0, 0.0 ],
					"id" : "obj-11"
				}

			}
, 			{
				"box" : 				{
					"maxclass" : "message",
					"text" : "07-harmonic-waves.maxpat",
					"numinlets" : 2,
					"patching_rect" : [ 235.0, 251.0, 158.0, 18.0 ],
					"fontname" : "Arial",
					"numoutlets" : 1,
					"outlettype" : [ "" ],
					"fontsize" : 12.0,
					"presentation_rect" : [ 111.0, 318.0, 0.0, 0.0 ],
					"id" : "obj-10"
				}

			}
, 			{
				"box" : 				{
					"maxclass" : "message",
					"text" : "06-additive-synthesis.maxpat",
					"numinlets" : 2,
					"patching_rect" : [ 235.0, 224.0, 166.0, 18.0 ],
					"fontname" : "Arial",
					"numoutlets" : 1,
					"outlettype" : [ "" ],
					"fontsize" : 12.0,
					"presentation_rect" : [ 99.0, 282.0, 0.0, 0.0 ],
					"id" : "obj-9"
				}

			}
, 			{
				"box" : 				{
					"maxclass" : "message",
					"text" : "03-MSP_cycle_object.maxpat",
					"numinlets" : 2,
					"patching_rect" : [ 235.0, 198.0, 169.0, 18.0 ],
					"fontname" : "Arial",
					"numoutlets" : 1,
					"outlettype" : [ "" ],
					"fontsize" : 12.0,
					"presentation_rect" : [ 84.0, 256.0, 0.0, 0.0 ],
					"id" : "obj-8"
				}

			}
, 			{
				"box" : 				{
					"maxclass" : "message",
					"text" : "00-frequency_domain.maxpat",
					"numinlets" : 2,
					"patching_rect" : [ 235.0, 165.0, 169.0, 18.0 ],
					"fontname" : "Arial",
					"numoutlets" : 1,
					"outlettype" : [ "" ],
					"fontsize" : 12.0,
					"presentation_rect" : [ 67.0, 224.0, 0.0, 0.0 ],
					"id" : "obj-7"
				}

			}
, 			{
				"box" : 				{
					"maxclass" : "comment",
					"text" : "LAB-Frequency_Domain_Tools",
					"numinlets" : 1,
					"patching_rect" : [ 234.0, 113.0, 194.0, 20.0 ],
					"fontname" : "Arial",
					"numoutlets" : 0,
					"fontsize" : 12.0,
					"id" : "obj-5"
				}

			}
, 			{
				"box" : 				{
					"maxclass" : "message",
					"text" : "02-sinewaves-sampling.maxpat",
					"numinlets" : 2,
					"patching_rect" : [ 235.0, 137.0, 179.0, 18.0 ],
					"fontname" : "Arial",
					"numoutlets" : 1,
					"outlettype" : [ "" ],
					"fontsize" : 12.0,
					"id" : "obj-6"
				}

			}
, 			{
				"box" : 				{
					"maxclass" : "comment",
					"text" : "LAB-Sound File Interpolaton Tools",
					"numinlets" : 1,
					"patching_rect" : [ 36.0, 110.0, 194.0, 20.0 ],
					"fontname" : "Arial",
					"numoutlets" : 0,
					"fontsize" : 12.0,
					"id" : "obj-4"
				}

			}
, 			{
				"box" : 				{
					"maxclass" : "comment",
					"text" : "This patch provides access to the LAB Software for Music 29.  The actual software is located in the CNMAT Software Depot and is dependent on the CNMAT everything Download",
					"linecount" : 2,
					"numinlets" : 1,
					"patching_rect" : [ 28.0, 35.0, 539.0, 34.0 ],
					"fontname" : "Arial",
					"numoutlets" : 0,
					"fontsize" : 12.0,
					"id" : "obj-3"
				}

			}
, 			{
				"box" : 				{
					"maxclass" : "message",
					"text" : "sfinterp.maxhelp",
					"numinlets" : 2,
					"patching_rect" : [ 37.0, 134.0, 99.0, 18.0 ],
					"fontname" : "Arial",
					"numoutlets" : 1,
					"outlettype" : [ "" ],
					"fontsize" : 12.0,
					"id" : "obj-2"
				}

			}
, 			{
				"box" : 				{
					"maxclass" : "newobj",
					"text" : "pcontrol",
					"numinlets" : 1,
					"patching_rect" : [ 31.0, 653.0, 43.0, 17.0 ],
					"fontname" : "Arial",
					"numoutlets" : 1,
					"outlettype" : [ "" ],
					"fontsize" : 9.0,
					"id" : "obj-1"
				}

			}
, 			{
				"box" : 				{
					"maxclass" : "newobj",
					"text" : "prepend load",
					"numinlets" : 1,
					"patching_rect" : [ 31.0, 626.0, 63.0, 17.0 ],
					"fontname" : "Arial",
					"numoutlets" : 1,
					"outlettype" : [ "" ],
					"fontsize" : 9.0,
					"id" : "obj-41"
				}

			}
 ],
		"lines" : [ 			{
				"patchline" : 				{
					"source" : [ "obj-14", 0 ],
					"destination" : [ "obj-41", 0 ],
					"hidden" : 0,
					"midpoints" : [  ]
				}

			}
, 			{
				"patchline" : 				{
					"source" : [ "obj-13", 0 ],
					"destination" : [ "obj-41", 0 ],
					"hidden" : 0,
					"midpoints" : [  ]
				}

			}
, 			{
				"patchline" : 				{
					"source" : [ "obj-12", 0 ],
					"destination" : [ "obj-41", 0 ],
					"hidden" : 0,
					"midpoints" : [  ]
				}

			}
, 			{
				"patchline" : 				{
					"source" : [ "obj-11", 0 ],
					"destination" : [ "obj-41", 0 ],
					"hidden" : 0,
					"midpoints" : [  ]
				}

			}
, 			{
				"patchline" : 				{
					"source" : [ "obj-10", 0 ],
					"destination" : [ "obj-41", 0 ],
					"hidden" : 0,
					"midpoints" : [  ]
				}

			}
, 			{
				"patchline" : 				{
					"source" : [ "obj-9", 0 ],
					"destination" : [ "obj-41", 0 ],
					"hidden" : 0,
					"midpoints" : [  ]
				}

			}
, 			{
				"patchline" : 				{
					"source" : [ "obj-8", 0 ],
					"destination" : [ "obj-41", 0 ],
					"hidden" : 0,
					"midpoints" : [  ]
				}

			}
, 			{
				"patchline" : 				{
					"source" : [ "obj-7", 0 ],
					"destination" : [ "obj-41", 0 ],
					"hidden" : 0,
					"midpoints" : [  ]
				}

			}
, 			{
				"patchline" : 				{
					"source" : [ "obj-6", 0 ],
					"destination" : [ "obj-41", 0 ],
					"hidden" : 0,
					"midpoints" : [  ]
				}

			}
, 			{
				"patchline" : 				{
					"source" : [ "obj-41", 0 ],
					"destination" : [ "obj-1", 0 ],
					"hidden" : 0,
					"midpoints" : [  ]
				}

			}
, 			{
				"patchline" : 				{
					"source" : [ "obj-2", 0 ],
					"destination" : [ "obj-41", 0 ],
					"hidden" : 0,
					"midpoints" : [  ]
				}

			}
 ]
	}

}
