{
	"patcher" : 	{
		"fileversion" : 1,
		"rect" : [ 35.0, 59.0, 566.0, 596.0 ],
		"bglocked" : 0,
		"defrect" : [ 35.0, 59.0, 566.0, 596.0 ],
		"openrect" : [ 0.0, 0.0, 0.0, 0.0 ],
		"openinpresentation" : 0,
		"default_fontsize" : 10.0,
		"default_fontface" : 0,
		"default_fontname" : "Arial",
		"gridonopen" : 0,
		"gridsize" : [ 4.0, 4.0 ],
		"gridsnaponopen" : 0,
		"toolbarvisible" : 1,
		"boxanimatetime" : 200,
		"imprint" : 0,
		"enablehscroll" : 1,
		"enablevscroll" : 1,
		"devicewidth" : 0.0,
		"boxes" : [ 			{
				"box" : 				{
					"maxclass" : "message",
					"text" : "setfontscale $1",
					"fontsize" : 10.0,
					"numinlets" : 2,
					"numoutlets" : 1,
					"patching_rect" : [ 188.0, 308.0, 78.0, 16.0 ],
					"fontname" : "Arial",
					"id" : "obj-4",
					"outlettype" : [ "" ]
				}

			}
, 			{
				"box" : 				{
					"maxclass" : "flonum",
					"fontsize" : 10.0,
					"numinlets" : 1,
					"numoutlets" : 2,
					"patching_rect" : [ 188.0, 284.0, 50.0, 18.0 ],
					"fontname" : "Arial",
					"id" : "obj-6",
					"outlettype" : [ "float", "bang" ]
				}

			}
, 			{
				"box" : 				{
					"maxclass" : "jsui",
					"jsarguments" : [  ],
					"presentation_rect" : [ 233.0, 190.0, 172.0, 172.0 ],
					"numinlets" : 1,
					"numoutlets" : 1,
					"patching_rect" : [ 188.0, 360.0, 241.0, 74.0 ],
					"border" : 0,
					"presentation" : 1,
					"id" : "obj-3",
					"outlettype" : [ "" ],
					"filename" : "vhcomment.js",
					"embedstate" : [ [ "tsetup", "bam factor.." ], [ "osetup", "horiz" ], [ "restoresize", 1.097 ], [ "restorebg", 0.2, 0.2, 0.2, 1 ], [ "restoretype", "Webdings" ] ]
				}

			}
, 			{
				"box" : 				{
					"maxclass" : "message",
					"text" : "setfontscale $1",
					"fontsize" : 10.0,
					"numinlets" : 2,
					"numoutlets" : 1,
					"patching_rect" : [ 124.0, 72.0, 78.0, 16.0 ],
					"fontname" : "Arial",
					"id" : "obj-22",
					"outlettype" : [ "" ]
				}

			}
, 			{
				"box" : 				{
					"maxclass" : "flonum",
					"fontsize" : 10.0,
					"numinlets" : 1,
					"numoutlets" : 2,
					"patching_rect" : [ 124.0, 48.0, 50.0, 18.0 ],
					"fontname" : "Arial",
					"id" : "obj-21",
					"outlettype" : [ "float", "bang" ]
				}

			}
, 			{
				"box" : 				{
					"maxclass" : "message",
					"text" : "bgc 0.2 0.2 0.2",
					"fontsize" : 10.0,
					"numinlets" : 2,
					"numoutlets" : 1,
					"patching_rect" : [ 316.0, 288.0, 77.0, 16.0 ],
					"fontname" : "Arial",
					"id" : "obj-19",
					"outlettype" : [ "" ]
				}

			}
, 			{
				"box" : 				{
					"maxclass" : "message",
					"text" : "setfont Webdings",
					"fontsize" : 10.0,
					"numinlets" : 2,
					"numoutlets" : 1,
					"patching_rect" : [ 400.0, 320.0, 88.0, 16.0 ],
					"fontname" : "Arial",
					"id" : "obj-17",
					"outlettype" : [ "" ]
				}

			}
, 			{
				"box" : 				{
					"maxclass" : "message",
					"text" : "setfont Arial",
					"fontsize" : 10.0,
					"numinlets" : 2,
					"numoutlets" : 1,
					"patching_rect" : [ 208.0, 132.0, 63.0, 16.0 ],
					"fontname" : "Arial",
					"id" : "obj-15",
					"outlettype" : [ "" ]
				}

			}
, 			{
				"box" : 				{
					"maxclass" : "message",
					"text" : "setfont \"Arial Bold\"",
					"fontsize" : 10.0,
					"numinlets" : 2,
					"numoutlets" : 1,
					"patching_rect" : [ 140.0, 96.0, 93.0, 16.0 ],
					"fontname" : "Arial",
					"id" : "obj-14",
					"outlettype" : [ "" ]
				}

			}
, 			{
				"box" : 				{
					"maxclass" : "message",
					"text" : "settext \"bam factor..\", bgc 0.2 0.5 0.3, setfont \"Arial Bold\", setfontscale 0.8",
					"fontsize" : 10.0,
					"numinlets" : 2,
					"numoutlets" : 1,
					"patching_rect" : [ 104.0, 24.0, 338.0, 16.0 ],
					"fontname" : "Arial",
					"id" : "obj-5",
					"outlettype" : [ "" ]
				}

			}
, 			{
				"box" : 				{
					"maxclass" : "jsui",
					"jsarguments" : [  ],
					"presentation_rect" : [ 71.0, 399.0, 172.0, 172.0 ],
					"numinlets" : 1,
					"numoutlets" : 1,
					"patching_rect" : [ 104.0, 160.0, 47.0, 378.0 ],
					"border" : 0,
					"presentation" : 1,
					"id" : "obj-1",
					"outlettype" : [ "" ],
					"filename" : "vhcomment.js",
					"embedstate" : [ [ "tsetup", "bam factor.." ], [ "osetup", "vert" ], [ "restoresize", 0.38 ], [ "restorebg", 0.2, 0.5, 0.3, 1 ], [ "restoretype", "Arial Bold" ] ]
				}

			}
, 			{
				"box" : 				{
					"maxclass" : "message",
					"text" : "compile",
					"fontsize" : 10.0,
					"numinlets" : 2,
					"numoutlets" : 1,
					"patching_rect" : [ 40.0, 100.0, 45.0, 16.0 ],
					"fontname" : "Arial",
					"id" : "obj-2",
					"outlettype" : [ "" ]
				}

			}
 ],
		"lines" : [ 			{
				"patchline" : 				{
					"source" : [ "obj-2", 0 ],
					"destination" : [ "obj-1", 0 ],
					"hidden" : 0,
					"midpoints" : [  ]
				}

			}
, 			{
				"patchline" : 				{
					"source" : [ "obj-5", 0 ],
					"destination" : [ "obj-1", 0 ],
					"hidden" : 0,
					"midpoints" : [  ]
				}

			}
, 			{
				"patchline" : 				{
					"source" : [ "obj-14", 0 ],
					"destination" : [ "obj-1", 0 ],
					"hidden" : 0,
					"midpoints" : [  ]
				}

			}
, 			{
				"patchline" : 				{
					"source" : [ "obj-15", 0 ],
					"destination" : [ "obj-1", 0 ],
					"hidden" : 0,
					"midpoints" : [  ]
				}

			}
, 			{
				"patchline" : 				{
					"source" : [ "obj-21", 0 ],
					"destination" : [ "obj-22", 0 ],
					"hidden" : 0,
					"midpoints" : [  ]
				}

			}
, 			{
				"patchline" : 				{
					"source" : [ "obj-22", 0 ],
					"destination" : [ "obj-1", 0 ],
					"hidden" : 0,
					"midpoints" : [  ]
				}

			}
, 			{
				"patchline" : 				{
					"source" : [ "obj-6", 0 ],
					"destination" : [ "obj-4", 0 ],
					"hidden" : 0,
					"midpoints" : [  ]
				}

			}
, 			{
				"patchline" : 				{
					"source" : [ "obj-4", 0 ],
					"destination" : [ "obj-3", 0 ],
					"hidden" : 0,
					"midpoints" : [  ]
				}

			}
, 			{
				"patchline" : 				{
					"source" : [ "obj-19", 0 ],
					"destination" : [ "obj-3", 0 ],
					"hidden" : 0,
					"midpoints" : [  ]
				}

			}
, 			{
				"patchline" : 				{
					"source" : [ "obj-17", 0 ],
					"destination" : [ "obj-3", 0 ],
					"hidden" : 0,
					"midpoints" : [  ]
				}

			}
 ]
	}

}
