max v2;#N vpatcher 84 44 998 667;#P origin 22 15;#P bpatcher 566 510 306 90 0 0 badge.pat 4 multicoll.help 0.3a "Matt Wright" multicoll 2812;#P window setfont "Sans Serif" 9.;#P window linecount 1;#P hidden newex 452 605 45 196617 pcontrol;#P message 501 552 24 196617 coll;#B color 12;#P comment 452 538 48 196617 see also:;#B color 12;#P message 452 552 47 196617 multibuf;#B color 12;#P hidden newex 452 583 66 196617 prepend help;#P comment 746 111 105 196617 drop folders here.;#P newex 732 154 80 196617 prepend /folder;#P user dropfile 732 90 861 148 0;#P user panel 731 90 128 59;#X brgb 255 248 124;#X frgb 255 255 255;#X border 1;#X rounded 0;#X shadow 0;#X done;#P comment 613 111 105 196617 drop collections here.;#P newex 599 153 70 196617 prepend /coll;#P comment 187 471 205 196617 bang when a buffer sucessfully reads a file.;#P button 139 492 15 0;#P newex 139 470 45 196617 sel bang;#P comment 329 210 272 196617 ......................................load one coll (spaces in name);#P message 207 209 104 196617 /file "some file.coll";#P comment 21 38 274 196617 this abstraction helps you read lots of collections into Max;#P window setfont "Sans Serif" 18.;#P comment 21 12 106 196626 multicoll;#B frgb 21 56 9;#P user panel 17 10 869 56;#X brgb 255 247 207;#X frgb 0 0 0;#X border 0;#X rounded 0;#X shadow 0;#X done;#P window setfont "Sans Serif" 9.;#P newex 100 521 30 196617 print;#P message 207 335 31 196617 dump;#P window linecount 5;#P message 174 521 115 196617 autosurface.js bourree-fb.txt bourree-sc.txt chords-coll.txt Cmajor-tab.txt globaltask.js mymatrix.js popu.js;#P window linecount 1;#P newex 174 493 60 196617 prepend set;#P comment 333 305 490 196617 .....................................you may provide a relative path (starting in the max folder) by starting with a ".";#P comment 414 283 346 196617 ..........load all files in a particular folder by providing the folder's path;#P message 207 282 209 196617 /folder "Macintosh HD:my_colls/subfolder";#P comment 343 242 332 196617 .................................load a bunch of collections itemised in a collection;#P message 207 242 140 196617 /coll number-collections.coll;#P message 207 174 91 196617 /file somefile.coll;#P window linecount 3;#P comment 43 88 472 196617 ¥ use quotes for file or folder names with spaces \; ¥ collections MUST be in max's search path \; ¥ you can give the same instance of multicoll more than one message.;#P window linecount 1;#P message 207 144 35 196617 /clear;#P message 207 304 131 196617 /folder ./coll-folder/sexy;#P toggle 138 428 15 0;#P newex 100 449 49 196617 multicoll;#B color 5;#P comment 154 430 352 196617 verbose mode: prints filenames to the max window as they're getting loaded;#P comment 243 145 303 196617 ...................................................................delete all collections;#P comment 308 175 289 196617 .............................................load one coll (no spaces in name);#P comment 291 522 152 196617 a list of files read from a folder;#P comment 5 451 94 196617 double-click on me!;#P window setfont "Sans Serif" 12.;#P comment 25 69 111 196620 important notes:;#P user dropfile 599 90 728 148 0;#P user panel 598 90 128 59;#X brgb 191 202 255;#X frgb 255 255 255;#X border 1;#X rounded 0;#X shadow 0;#X done;#P window setfont "Sans Serif" 9.;#P window linecount 3;#P comment 444 363 452 196617 Each line of the collection says: buffer-n \, filename \; where 'n' is an integer incremented by one with each loaded buffer \; note: each buffer~ object is named so that you can send it messages using 'script send buffer-n';#P window linecount 1;#P comment 444 350 310 196617 You may send messages to this collection through the second inlet.;#P comment 239 336 542 196617 ....................................................................multicoll stores all the names of the loaded colls internally in a collection.;#N coll number-collections.coll;#P newobj 684 240 134 196617 coll number-collections.coll;#P fasten 35 0 12 0 604 197 105 197;#P fasten 30 0 12 0 212 232 105 232;#P fasten 14 0 12 0 212 324 105 324;#P fasten 15 0 12 0 212 165 105 165;#P fasten 17 0 12 0 212 197 105 197;#P fasten 18 0 12 0 212 262 105 262;#P fasten 20 0 12 0 212 300 105 300;#P fasten 39 0 12 0 737 197 105 197;#P connect 12 0 26 0;#P fasten 25 0 12 1 212 359 124 359;#P connect 13 0 12 2;#P connect 12 1 32 0;#P connect 32 0 33 0;#P connect 32 1 23 0;#P connect 23 0 24 0;#P hidden connect 44 0 41 0;#P hidden connect 42 0 41 0;#P hidden connect 41 0 45 0;#P connect 5 0 35 0;#P connect 38 0 39 0;#P pop;