max v2;#N vpatcher 71 95 363 296;#P newex 39 46 68 196617 t f f;#P inlet 39 26 15 0;#P newex 59 132 103 196617 expr 10.*log10($f2);#P comment 58 164 155 196617 <float> power (absolute dB level);#P message 39 112 49 196617 -999999;#P outlet 39 162 15 0;#P newex 39 90 30 196617 sel 1;#P newex 39 68 31 196617 <= 0.;#P comment 73 86 149 196617 if less than 0 \, level = -999999;#P comment 56 27 125 196617 <int/float> power (linear);#P connect 5 0 4 0;#P connect 9 0 2 0;#P connect 9 1 7 1;#P connect 7 0 4 0;#P connect 3 0 5 0;#P connect 3 1 7 0;#P connect 8 0 9 0;#P connect 2 0 3 0;#P pop;