max v2;#N vpatcher 57 131 462 529;#P newex 61 68 46 196617 adc~;#P flonum 77 133 35 9 0 0 0 3;#P newex 77 102 39 196617 rms~;#P newex 85 211 30 196617 - 127;#P comment 77 149 72 196617 input level (dB full scale);#P toggle 148 69 18 0;#P comment 155 342 112 196617 output level (dB f. s.);#P flonum 119 342 35 9 0 0 0 3;#P newex 119 312 39 196617 rms~;#P newex 61 343 33 196617 dac~;#P message 18 318 31 196617 stop;#P message 18 297 31 196617 start;#P message 224 54 24 196617 127;#P slider 224 77 26 128 0 1;#P comment 252 72 33 196617 - 0;#P comment 252 92 33 196617 - 20;#P comment 252 112 33 196617 - 40;#P comment 252 132 33 196617 - 60;#P comment 252 152 33 196617 - 80;#P comment 252 172 33 196617 - 100;#P comment 252 192 33 196617 - 120;#P newex 224 29 47 196617 loadbang;#P slider 304 77 26 128 0 1;#P newex 304 29 30 196617 r in;#P newex 304 53 32 196617 + 127;#P slider 340 77 26 128 0 1;#P newex 340 53 32 196617 + 127;#P newex 340 29 30 196617 r out;#P newex 163 317 30 196617 s out;#P newex 116 128 24 196617 s in;#P comment 170 123 53 196617 maximum output level ----> (dB f. s.);#P comment 69 28 108 196617 - rms level limiter;#P comment 18 23 65 196617 limit~;#P message 204 51 15 196617 1;#P comment 168 72 50 196617 check levels;#P number 214 254 35 9 0 0 0 3;#P comment 251 255 135 196617 time constant of envelope follower in ms (defined for 60 dB decay).;#P newex 191 226 47 196617 loadbang;#P message 191 247 19 196617 10;#P newex 61 269 59 196617 limit~;#P flonum 85 235 35 9 0 0 0 3;#P comment 307 212 20 196617 in;#P comment 339 212 29 196617 out;#P connect 31 0 33 0;#P connect 30 0 29 0;#P connect 9 0 37 0;#P connect 7 0 3 2;#P connect 32 0 33 0;#P connect 37 0 40 1;#P connect 29 0 39 0;#P connect 39 0 2 0;#P connect 34 0 35 0;#P connect 34 0 14 0;#P connect 42 0 3 0;#P connect 42 0 40 0;#P connect 40 0 41 0;#P connect 40 0 13 0;#P connect 21 0 30 0;#P connect 19 0 18 0;#P connect 18 0 20 0;#P connect 16 0 17 0;#P connect 15 0 16 0;#P connect 5 0 4 0;#P connect 21 0 9 0;#P connect 4 0 7 0;#P connect 3 0 33 0;#P connect 3 0 33 1;#P connect 3 0 34 0;#P connect 37 0 34 1;#P connect 2 0 3 1;#P pop;