max v2;#N vpatcher 200 211 682 494;#P toggle 80 48 15 0;#P newex 131 107 44 196617 rms~;#P flonum 165 167 51 9 0 0 0 3;#P comment 218 166 19 196617 lin;#P comment 182 64 135 196617 bang : a single measurement;#P toggle 194 91 15 0;#P comment 210 91 155 196617 toggle : continuous measurement;#P flonum 194 121 35 9 0 0 0 3;#P comment 231 120 311 196617 float = time constant (s) of averaging filter \, defined for 60 dB decay \, default 0.1 s (also controls update rate in continuous mode).;#P comment 167 189 19 196617 dB;#P flonum 131 190 35 9 0 0 0 3;#P button 165 64 15 0;#P comment 76 24 115 196617 - rms envelope follower;#P comment 22 19 45 196622 rms~;#P newex 93 75 29 196617 dac~;#P newex 14 102 27 196617 * 2;#P newex 14 83 29 196617 + 60;#P slider 14 124 29 128 0 1;#P comment 42 127 35 196617 - 0 dB;#P comment 42 247 42 196617 - 60 dB;#P newex 112 44 29 196617 adc~;#P connect 19 0 10 0;#P connect 19 0 4 0;#P connect 19 1 18 0;#P connect 5 0 3 0;#P connect 4 0 5 0;#P connect 13 0 19 1;#P connect 0 0 6 0;#P connect 0 0 6 1;#P connect 0 0 19 0;#P connect 15 0 19 1;#P connect 9 0 19 1;#P connect 20 0 6 0;#P pop;