max v2;#N vpatcher 281 156 683 554;#P newex 61 68 29 196617 adc~;#P flonum 77 133 35 9 0 0 0 3;#P newex 77 102 32 196617 rms~;#P newex 85 211 34 196617 - 127;#P comment 77 149 62 196617 input level (dB full scale);#P toggle 148 69 18 0;#P comment 155 342 104 196617 output level (dB f. s.);#P flonum 119 342 35 9 0 0 0 3;#P newex 119 312 32 196617 rms~;#P newex 61 343 29 196617 dac~;#P message 18 318 27 196617 stop;#P message 18 297 31 196617 start;#P message 224 54 26 196617 127;#P slider 224 77 26 128 0 1;#P comment 252 72 22 196617 - 0;#P comment 252 92 28 196617 - 20;#P comment 252 112 28 196617 - 40;#P comment 252 132 28 196617 - 60;#P comment 252 152 28 196617 - 80;#P comment 252 172 34 196617 - 100;#P comment 252 192 34 196617 - 120;#P newex 224 29 45 196617 loadbang;#P slider 304 77 26 128 0 1;#P newex 304 29 24 196617 r in;#P newex 304 53 35 196617 + 127;#P slider 340 77 26 128 0 1;#P newex 340 53 35 196617 + 127;#P newex 340 29 30 196617 r out;#P newex 163 317 30 196617 s out;#P newex 116 128 24 196617 s in;#P comment 170 123 44 196617 maximum output level ----> (dB f. s.);#P message 204 51 14 196617 1;#P comment 168 72 63 196617 check levels;#P newex 191 226 45 196617 loadbang;#P flonum 85 235 35 9 0 0 0 3;#P comment 307 212 16 196617 in;#P comment 339 212 22 196617 out;#P newex 61 269 53 196617 comp~;#P message 161 224 20 196617 10;#P number 161 245 35 9 0 0 0 3;#P comment 199 249 312 196617 time constant of envelope follower in ms (defined for 60 dB decay).;#P message 162 276 14 196617 1;#P message 190 277 14 196617 2;#P message 217 279 14 196617 4;#P message 245 280 14 196617 8;#P number 221 308 35 9 0 0 0 3;#P comment 263 306 40 196617 "ratio";#P comment 16 7 35 196617 comp~;#P comment 20 33 112 196617 - compressor / limiter;#P connect 37 0 39 0;#P connect 36 0 35 0;#P connect 17 0 43 0;#P connect 14 0 11 1;#P connect 9 0 11 2;#P connect 48 0 11 0;#P connect 48 0 46 0;#P connect 38 0 39 0;#P connect 43 0 46 1;#P connect 43 0 40 1;#P connect 35 0 45 0;#P connect 45 0 14 0;#P connect 40 0 41 0;#P connect 40 0 20 0;#P connect 46 0 47 0;#P connect 46 0 19 0;#P connect 27 0 17 0;#P connect 27 0 36 0;#P connect 25 0 24 0;#P connect 24 0 26 0;#P connect 22 0 23 0;#P connect 21 0 22 0;#P connect 15 0 10 0;#P connect 11 0 39 0;#P connect 11 0 39 1;#P connect 11 0 40 0;#P connect 10 0 9 0;#P connect 7 0 11 3;#P connect 7 0 3 0;#P connect 6 0 11 3;#P connect 6 0 3 0;#P connect 5 0 11 3;#P connect 5 0 3 0;#P connect 4 0 11 3;#P connect 4 0 3 0;#P pop;