max v2;#N vpatcher 289 94 714 513;#P newex 236 138 52 196617 dspstate~;#P newex 159 265 32 196617 * -1.;#P newex 27 290 179 196617 biquad~ 0.001565 0. 0. -0.998435 0.;#P comment 2 72 92 196617 square input signal;#P newex 27 50 27 196617 *~;#P inlet 27 22 15 0;#P flonum 114 83 35 9 0 0 0 3;#P toggle 86 91 15 0;#P comment 231 244 175 196617 Transfer function of averaging filter:;#P comment 282 278 30 196617 1 - a;#P comment 273 297 53 196617 1 - a z^-1;#P comment 233 317 131 196617 where a = 10^-3/(Tav*Fe);#P comment 231 287 118 196617 h(z) = ----------------;#P newex 114 225 27 196617 t b f;#P newex 114 265 27 196617 - 1.;#P newex 114 245 27 196617 1.;#P newex 27 318 53 196617 snapshot~;#P newex 114 205 153 196617 expr pow(10 \\\, -3/($f1*$f2) );#P newex 126 122 27 196617 50;#P newex 126 102 39 196617 * 500.;#P newex 86 143 50 196617 metro 50;#P newex 257 184 41 196617 44100.;#P newex 114 166 27 196617 t f b;#P newex 58 42 94 196617 route bang int float;#P newex 114 62 93 196617 clip 0.001 999999;#P inlet 58 22 15 0;#P newex 27 347 22 196617 dB;#P comment 67 388 19 196617 lin;#P comment 27 388 19 196617 dB;#P outlet 67 372 15 0;#P outlet 27 372 15 0;#P connect 24 0 11 0;#P connect 30 1 9 0;#P connect 5 0 7 0;#P connect 29 0 28 4;#P connect 28 0 14 0;#P connect 26 0 28 0;#P connect 17 0 15 0;#P connect 17 1 16 1;#P connect 24 0 8 0;#P connect 17 1 29 0;#P connect 16 0 28 1;#P connect 15 0 16 0;#P connect 14 0 4 0;#P connect 14 0 1 0;#P connect 23 0 10 0;#P connect 25 0 26 0;#P connect 25 0 26 1;#P connect 13 0 17 0;#P connect 12 0 10 1;#P connect 11 0 12 0;#P connect 10 0 14 0;#P connect 9 0 13 1;#P connect 8 0 13 0;#P connect 7 0 14 0;#P connect 8 1 9 0;#P connect 7 1 23 0;#P connect 7 2 6 0;#P connect 6 0 24 0;#P connect 4 0 0 0;#P pop;