{
	"patcher" : 	{
		"fileversion" : 1,
		"rect" : [ 259.0, 76.0, 556.0, 356.0 ],
		"bgcolor" : [ 0.458824, 0.52549, 0.470588, 1.0 ],
		"bglocked" : 0,
		"defrect" : [ 259.0, 76.0, 556.0, 356.0 ],
		"openrect" : [ 0.0, 0.0, 0.0, 0.0 ],
		"openinpresentation" : 0,
		"default_fontsize" : 11.0,
		"default_fontface" : 0,
		"default_fontname" : "Arial",
		"gridonopen" : 0,
		"gridsize" : [ 4.0, 4.0 ],
		"gridsnaponopen" : 0,
		"toolbarvisible" : 1,
		"boxanimatetime" : 200,
		"imprint" : 0,
		"enablehscroll" : 1,
		"enablevscroll" : 1,
		"boxes" : [ 			{
				"box" : 				{
					"maxclass" : "comment",
					"text" : "< this doesn't work.",
					"patching_rect" : [ 404.0, 232.0, 105.0, 19.0 ],
					"id" : "obj-17",
					"fontname" : "Arial",
					"frgb" : [ 0.0, 0.0, 0.0, 1.0 ],
					"numinlets" : 1,
					"fontsize" : 11.0,
					"numoutlets" : 0
				}

			}
, 			{
				"box" : 				{
					"maxclass" : "fpic",
					"patching_rect" : [ 208.0, 216.0, 74.117645, 35.0 ],
					"pic" : "cnmat_wht-trans.png",
					"id" : "obj-13",
					"autofit" : 1,
					"numinlets" : 1,
					"numoutlets" : 0
				}

			}
, 			{
				"box" : 				{
					"maxclass" : "button",
					"patching_rect" : [ 388.0, 296.0, 20.0, 20.0 ],
					"outlettype" : [ "bang" ],
					"id" : "obj-20",
					"numinlets" : 1,
					"numoutlets" : 1
				}

			}
, 			{
				"box" : 				{
					"maxclass" : "flonum",
					"patching_rect" : [ 348.0, 232.0, 50.0, 19.0 ],
					"outlettype" : [ "float", "bang" ],
					"id" : "obj-18",
					"fontname" : "Arial",
					"numinlets" : 1,
					"fontsize" : 11.0,
					"numoutlets" : 2
				}

			}
, 			{
				"box" : 				{
					"maxclass" : "message",
					"text" : "12",
					"patching_rect" : [ 476.0, 156.0, 32.5, 17.0 ],
					"outlettype" : [ "" ],
					"bgcolor" : [ 0.266667, 0.341176, 0.333333, 1.0 ],
					"id" : "obj-16",
					"fontname" : "Arial",
					"numinlets" : 2,
					"fontsize" : 11.0,
					"numoutlets" : 1
				}

			}
, 			{
				"box" : 				{
					"maxclass" : "number",
					"patching_rect" : [ 320.0, 188.0, 93.0, 19.0 ],
					"outlettype" : [ "int", "bang" ],
					"id" : "obj-15",
					"fontname" : "Arial",
					"numinlets" : 1,
					"fontsize" : 11.0,
					"numoutlets" : 2
				}

			}
, 			{
				"box" : 				{
					"maxclass" : "newobj",
					"text" : "loadbang",
					"patching_rect" : [ 425.0, 81.0, 56.0, 19.0 ],
					"outlettype" : [ "bang" ],
					"id" : "obj-1",
					"fontname" : "Arial",
					"numinlets" : 1,
					"fontsize" : 11.0,
					"numoutlets" : 1
				}

			}
, 			{
				"box" : 				{
					"maxclass" : "message",
					"text" : "93311",
					"patching_rect" : [ 480.0, 108.0, 48.0, 17.0 ],
					"outlettype" : [ "" ],
					"bgcolor" : [ 0.266667, 0.341176, 0.333333, 1.0 ],
					"id" : "obj-2",
					"fontname" : "Arial",
					"numinlets" : 2,
					"fontsize" : 11.0,
					"numoutlets" : 1
				}

			}
, 			{
				"box" : 				{
					"maxclass" : "message",
					"text" : "10032",
					"patching_rect" : [ 476.0, 136.0, 41.0, 17.0 ],
					"outlettype" : [ "" ],
					"bgcolor" : [ 0.266667, 0.341176, 0.333333, 1.0 ],
					"id" : "obj-4",
					"fontname" : "Arial",
					"numinlets" : 2,
					"fontsize" : 11.0,
					"numoutlets" : 1
				}

			}
, 			{
				"box" : 				{
					"maxclass" : "message",
					"text" : "19421",
					"patching_rect" : [ 424.0, 108.0, 41.0, 17.0 ],
					"outlettype" : [ "" ],
					"bgcolor" : [ 0.266667, 0.341176, 0.333333, 1.0 ],
					"id" : "obj-5",
					"fontname" : "Arial",
					"numinlets" : 2,
					"fontsize" : 11.0,
					"numoutlets" : 1
				}

			}
, 			{
				"box" : 				{
					"maxclass" : "toggle",
					"patching_rect" : [ 320.0, 32.0, 20.0, 20.0 ],
					"outlettype" : [ "int" ],
					"id" : "obj-11",
					"numinlets" : 1,
					"numoutlets" : 1
				}

			}
, 			{
				"box" : 				{
					"maxclass" : "newobj",
					"text" : "metro 100",
					"patching_rect" : [ 320.0, 64.0, 60.0, 19.0 ],
					"outlettype" : [ "bang" ],
					"id" : "obj-6",
					"fontname" : "Arial",
					"numinlets" : 2,
					"fontsize" : 11.0,
					"numoutlets" : 1
				}

			}
, 			{
				"box" : 				{
					"maxclass" : "number",
					"patching_rect" : [ 320.0, 288.0, 50.0, 19.0 ],
					"outlettype" : [ "int", "bang" ],
					"id" : "obj-7",
					"fontname" : "Arial",
					"numinlets" : 1,
					"fontsize" : 11.0,
					"numoutlets" : 2
				}

			}
, 			{
				"box" : 				{
					"maxclass" : "newobj",
					"text" : "random-if-multiple-digits",
					"patching_rect" : [ 320.0, 260.0, 129.0, 19.0 ],
					"outlettype" : [ "int" ],
					"id" : "obj-8",
					"fontname" : "Arial",
					"numinlets" : 1,
					"fontsize" : 11.0,
					"numoutlets" : 1
				}

			}
, 			{
				"box" : 				{
					"maxclass" : "comment",
					"text" : "Poll the set range by sending a bang",
					"linecount" : 4,
					"patching_rect" : [ 335.0, 83.0, 82.0, 61.0 ],
					"id" : "obj-3",
					"fontname" : "Arial",
					"frgb" : [ 0.788235, 0.807843, 0.592157, 1.0 ],
					"textcolor" : [ 0.788235, 0.807843, 0.592157, 1.0 ],
					"numinlets" : 1,
					"fontsize" : 11.808202,
					"numoutlets" : 0
				}

			}
, 			{
				"box" : 				{
					"maxclass" : "newobj",
					"text" : "uc_license",
					"patching_rect" : [ 20.0, 236.0, 56.0, 17.0 ],
					"bgcolor" : [ 0.07451, 0.078431, 0.082353, 1.0 ],
					"id" : "obj-47",
					"fontname" : "Arial",
					"textcolor" : [ 0.933333, 0.811765, 0.792157, 1.0 ],
					"numinlets" : 0,
					"fontsize" : 9.426803,
					"numoutlets" : 0
				}

			}
, 			{
				"box" : 				{
					"maxclass" : "comment",
					"text" : "v. 1.0 by Matt Wright",
					"patching_rect" : [ 19.13118, 73.240753, 103.0, 18.0 ],
					"id" : "obj-23",
					"fontname" : "Arial",
					"frgb" : [ 0.556863, 0.572549, 0.607843, 1.0 ],
					"textcolor" : [ 0.556863, 0.572549, 0.607843, 1.0 ],
					"numinlets" : 1,
					"fontsize" : 9.569158,
					"numoutlets" : 0
				}

			}
, 			{
				"box" : 				{
					"maxclass" : "comment",
					"text" : "random-in-range help patch v. 1.0\nby Jeff Lubow 2009",
					"linecount" : 2,
					"patching_rect" : [ 19.13118, 89.240753, 174.0, 29.0 ],
					"id" : "obj-12",
					"fontname" : "Arial",
					"frgb" : [ 0.556863, 0.572549, 0.607843, 1.0 ],
					"textcolor" : [ 0.556863, 0.572549, 0.607843, 1.0 ],
					"numinlets" : 1,
					"fontsize" : 9.569158,
					"numoutlets" : 0
				}

			}
, 			{
				"box" : 				{
					"maxclass" : "comment",
					"text" : "random-if-multiple-digits",
					"patching_rect" : [ 20.0, 28.0, 266.0, 31.0 ],
					"id" : "obj-27",
					"fontname" : "Arial",
					"frgb" : [ 1.0, 1.0, 1.0, 1.0 ],
					"textcolor" : [ 1.0, 1.0, 1.0, 1.0 ],
					"numinlets" : 1,
					"fontface" : 3,
					"fontsize" : 21.663095,
					"numoutlets" : 0
				}

			}
, 			{
				"box" : 				{
					"maxclass" : "comment",
					"text" : "This abstraction takes a single integer (base 10) and randomly selects one of its digits for output.",
					"linecount" : 3,
					"patching_rect" : [ 20.0, 124.0, 262.0, 50.0 ],
					"id" : "obj-26",
					"fontname" : "Arial",
					"frgb" : [ 0.662745, 0.741176, 0.807843, 1.0 ],
					"textcolor" : [ 0.662745, 0.741176, 0.807843, 1.0 ],
					"numinlets" : 1,
					"fontsize" : 12.727483,
					"numoutlets" : 0
				}

			}
, 			{
				"box" : 				{
					"maxclass" : "panel",
					"patching_rect" : [ 16.0, 68.0, 272.0, 189.0 ],
					"bgcolor" : [ 0.215686, 0.309804, 0.32549, 1.0 ],
					"id" : "obj-9",
					"rounded" : 12,
					"numinlets" : 1,
					"numoutlets" : 0
				}

			}
, 			{
				"box" : 				{
					"maxclass" : "panel",
					"patching_rect" : [ 16.0, 24.0, 272.0, 76.0 ],
					"bgcolor" : [ 0.231373, 0.6, 0.666667, 1.0 ],
					"id" : "obj-10",
					"rounded" : 27,
					"numinlets" : 1,
					"numoutlets" : 0
				}

			}
 ],
		"lines" : [ 			{
				"patchline" : 				{
					"source" : [ "obj-1", 0 ],
					"destination" : [ "obj-5", 0 ],
					"hidden" : 0,
					"midpoints" : [  ]
				}

			}
, 			{
				"patchline" : 				{
					"source" : [ "obj-8", 0 ],
					"destination" : [ "obj-7", 0 ],
					"hidden" : 0,
					"color" : [ 1.0, 1.0, 1.0, 1.0 ],
					"midpoints" : [  ]
				}

			}
, 			{
				"patchline" : 				{
					"source" : [ "obj-15", 0 ],
					"destination" : [ "obj-8", 0 ],
					"hidden" : 0,
					"midpoints" : [  ]
				}

			}
, 			{
				"patchline" : 				{
					"source" : [ "obj-5", 0 ],
					"destination" : [ "obj-15", 0 ],
					"hidden" : 0,
					"midpoints" : [  ]
				}

			}
, 			{
				"patchline" : 				{
					"source" : [ "obj-4", 0 ],
					"destination" : [ "obj-15", 0 ],
					"hidden" : 0,
					"midpoints" : [  ]
				}

			}
, 			{
				"patchline" : 				{
					"source" : [ "obj-2", 0 ],
					"destination" : [ "obj-15", 0 ],
					"hidden" : 0,
					"midpoints" : [  ]
				}

			}
, 			{
				"patchline" : 				{
					"source" : [ "obj-11", 0 ],
					"destination" : [ "obj-6", 0 ],
					"hidden" : 0,
					"color" : [ 1.0, 1.0, 1.0, 1.0 ],
					"midpoints" : [  ]
				}

			}
, 			{
				"patchline" : 				{
					"source" : [ "obj-6", 0 ],
					"destination" : [ "obj-15", 0 ],
					"hidden" : 0,
					"midpoints" : [  ]
				}

			}
, 			{
				"patchline" : 				{
					"source" : [ "obj-16", 0 ],
					"destination" : [ "obj-15", 0 ],
					"hidden" : 0,
					"midpoints" : [  ]
				}

			}
, 			{
				"patchline" : 				{
					"source" : [ "obj-18", 0 ],
					"destination" : [ "obj-8", 0 ],
					"hidden" : 0,
					"midpoints" : [  ]
				}

			}
, 			{
				"patchline" : 				{
					"source" : [ "obj-8", 0 ],
					"destination" : [ "obj-20", 0 ],
					"hidden" : 0,
					"midpoints" : [  ]
				}

			}
 ]
	}

}
