max v2;#N vpatcher 121 146 1522 935;#P origin 0 -16;#P window setfont "Sans Serif" 9.;#N vpatcher 878 114 1558 746;#P window setfont "Sans Serif" 9.;#P comment 76 364 100 196617 "odd partials";#P comment 402 384 100 196617 "even partials";#P user multiSlider 556 103 147 12 3.3 7.3 1 2680 47 0 0 2 0 0 1;#M frgb 0 0 0;#M brgb 255 255 255;#M rgb2 127 127 127;#M rgb3 0 0 0;#M rgb4 37 52 91;#M rgb5 74 105 182;#M rgb6 112 158 18;#M rgb7 149 211 110;#M rgb8 187 9 201;#M rgb9 224 62 37;#M rgb10 7 114 128;#P hidden message 478 99 14 196617 1;#P user multiSlider 532 258 147 12 0. 3. 1 2680 47 0 0 2 0 0 1;#M frgb 0 0 0;#M brgb 255 255 255;#M rgb2 127 127 127;#M rgb3 0 0 0;#M rgb4 37 52 91;#M rgb5 74 105 182;#M rgb6 112 158 18;#M rgb7 149 211 110;#M rgb8 187 9 201;#M rgb9 224 62 37;#M rgb10 7 114 128;#P toggle 509 103 15 0;#P message 525 232 14 196617 2;#P newex 500 191 27 196617 t b f;#P newex 509 168 30 196617 float;#N counter 40;#X flags 0 0;#P newobj 509 146 66 196617 counter 40;#P newex 509 125 45 196617 metro 5;#P newex 376 276 305 196617 expr $f1*(1.0+0.03*$f2*sin (2.0*3.1415926535/40.0* $f3 ));#P newex 571 205 45 196617 loadbang;#P comment 452 104 53 196617 Vibrato;#P comment 455 254 100 196617 vibrato depth;#P comment 530 102 100 196617 rate;#P newex 262 409 45 196617 *~ 0.25;#P newex 308 360 34 196617 * 2.;#P newex 264 381 115 196617 harmonics~ square 100;#P newex 223 574 64 196617 s vocaltract;#P hidden newex 20 31 45 196617 loadbang;#P hidden message 20 70 20 196617 50;#P user gain~ 222 437 24 100 158 0 1.071519 7.94321 10.;#P user multiSlider 188 250 147 12 0. 1. 1 2680 47 0 0 2 0 0 1;#M frgb 0 0 0;#M brgb 255 255 255;#M rgb2 127 127 127;#M rgb3 0 0 0;#M rgb4 37 52 91;#M rgb5 74 105 182;#M rgb6 112 158 18;#M rgb7 149 211 110;#M rgb8 187 9 201;#M rgb9 224 62 37;#M rgb10 7 114 128;#P user multiSlider 196 301 147 12 0. 1. 1 2680 47 0 0 2 0 0 1;#M frgb 0 0 0;#M brgb 255 255 255;#M rgb2 127 127 127;#M rgb3 0 0 0;#M rgb4 37 52 91;#M rgb5 74 105 182;#M rgb6 112 158 18;#M rgb7 149 211 110;#M rgb8 187 9 201;#M rgb9 224 62 37;#M rgb10 7 114 128;#P message 198 321 65 196617 noisiness \$1;#P message 188 269 93 196617 first-amplitude \$1;#P newex 77 386 115 196617 harmonics~ square 100;#P newex 39 138 29 196617 mtof;#P flonum 38 165 35 9 0 0 0 3 0 0 0 221 221 221 222 222 222 0 0 0;#P user kslider 38 90 35 1 36 60 19 7 0 128 128 128 128 128 128 255 255 255 0 0 0 0 0 0;#P comment 372 327 135 196617 Oscillator with and "open" "close" asymmetry and rich source of harmonics;#P comment 76 74 100 196617 Average Pitch;#P comment 144 300 52 196617 Gruffness;#P comment 125 250 63 196617 "roundness";#P comment 80 480 100 196617 Glottis volume;#P comment 455 41 100 196617 Toggle the vibrato to modulate the "even" harmonics with vibrato;#P hidden connect 16 0 15 0;#P hidden connect 15 0 6 0;#P connect 8 0 7 0;#P connect 6 0 8 0;#P connect 7 0 9 0;#P connect 11 0 9 0;#P connect 10 0 9 0;#P connect 13 0 10 0;#P connect 12 0 11 0;#P connect 20 0 14 0;#P connect 9 0 14 0;#P connect 14 0 17 0;#P connect 18 0 20 0;#P connect 19 0 18 0;#P connect 10 0 18 0;#P connect 11 0 18 0;#P connect 25 0 19 0;#P connect 29 0 25 0;#P connect 7 0 25 0;#P hidden connect 34 0 33 0;#P hidden connect 32 0 33 0;#P hidden connect 16 0 33 0;#P connect 28 0 29 0;#P hidden connect 33 0 31 0;#P connect 31 0 26 0;#P connect 26 0 27 0;#P connect 27 0 28 0;#P connect 32 0 25 1;#P connect 24 0 30 0;#P connect 30 0 32 0;#P connect 34 0 26 1;#P connect 29 1 25 2;#P pop;#P newobj 430 141 93 196617 p emergingsoprano;#P newex 719 496 64 196617 r vocaltract;#N vpatcher 972 129 1572 529;#P origin 0 19;#P user gain~ 313 119 24 100 500 0 1.071519 7.94321 10.;#P window setfont "Sans Serif" 9.;#P newex 313 94 38 196617 noise~;#P newex 120 63 45 196617 loadbang;#P message 158 80 23 196617 0.6;#P flonum 161 118 35 9 0 0 0 3 0 0 0 221 221 221 222 222 222 0 0 0;#P user multiSlider 160 98 136 10 0.2 2. 1 2680 47 0 0 2 0 0 1;#M frgb 0 0 0;#M brgb 255 255 255;#M rgb2 127 127 127;#M rgb3 0 0 0;#M rgb4 37 52 91;#M rgb5 74 105 182;#M rgb6 112 158 18;#M rgb7 149 211 110;#M rgb8 187 9 201;#M rgb9 224 62 37;#M rgb10 7 114 128;#P message 161 136 95 196617 frequency-scale \$1;#P newex 71 156 75 196617 res-transform;#P button 32 65 15 0;#P button 68 76 15 0;#P newex 69 242 79 196617 send vocaltract;#P newex 67 206 64 196617 resonators~;#B color 5;#P message 32 87 23 196617 0.9;#B color 11;#N coll bell 1;#P newobj 68 101 59 196617 coll bell 1;#P comment 41 33 156 196617 cross synthesis \, i.e. using a non-glottal source;#P comment 205 35 100 196617 If it just sounds like a bell try turning on the babbler or changing the vowels;#P connect 7 0 3 0;#P connect 15 0 4 0;#P connect 3 0 4 0;#P connect 8 0 4 0;#P connect 13 0 6 0;#P connect 6 0 2 0;#P connect 4 0 5 0;#P connect 2 0 8 0;#P connect 9 0 8 0;#P connect 13 0 12 0;#P connect 12 0 10 0;#P connect 10 0 11 0;#P connect 11 0 9 0;#P connect 14 0 15 0;#P pop;#P newobj 434 113 85 196617 p crosssynthesis;#P hidden newex 9 105 45 196617 loadbang;#P hidden message 9 144 20 196617 50;#P hidden newex 492 458 45 196617 loadbang;#P hidden message 473 492 20 196617 90;#P hidden message 527 298 14 196617 3;#P hidden newex 515 277 45 196617 loadbang;#P hidden newex 817 223 45 196617 loadbang;#P user multiSlider 802 165 147 12 100. 1000. 1 2680 47 0 0 2 0 0 1;#M frgb 0 0 0;#M brgb 255 255 255;#M rgb2 127 127 127;#M rgb3 0 0 0;#M rgb4 37 52 91;#M rgb5 74 105 182;#M rgb6 112 158 18;#M rgb7 149 211 110;#M rgb8 187 9 201;#M rgb9 224 62 37;#M rgb10 7 114 128;#P user multiSlider 825 438 147 12 2. 20. 1 2680 47 0 0 2 0 0 1;#M frgb 0 0 0;#M brgb 255 255 255;#M rgb2 127 127 127;#M rgb3 0 0 0;#M rgb4 37 52 91;#M rgb5 74 105 182;#M rgb6 112 158 18;#M rgb7 149 211 110;#M rgb8 187 9 201;#M rgb9 224 62 37;#M rgb10 7 114 128;#P user multiSlider 249 212 147 12 3.3 7.3 1 2680 47 0 0 2 0 0 1;#M frgb 0 0 0;#M brgb 255 255 255;#M rgb2 127 127 127;#M rgb3 0 0 0;#M rgb4 37 52 91;#M rgb5 74 105 182;#M rgb6 112 158 18;#M rgb7 149 211 110;#M rgb8 187 9 201;#M rgb9 224 62 37;#M rgb10 7 114 128;#P hidden message 171 208 14 196617 1;#P user multiSlider 216 368 147 12 0. 1. 1 2680 47 0 0 2 0 0 1;#M frgb 0 0 0;#M brgb 255 255 255;#M rgb2 127 127 127;#M rgb3 0 0 0;#M rgb4 37 52 91;#M rgb5 74 105 182;#M rgb6 112 158 18;#M rgb7 149 211 110;#M rgb8 187 9 201;#M rgb9 224 62 37;#M rgb10 7 114 128;#P comment 528 592 100 196617 Master volume;#P flonum 893 348 35 9 0 0 0 3 0 0 0 221 221 221 222 222 222 0 0 0;#P message 893 366 70 196617 rate-scale \$1;#P user multiSlider 893 328 143 13 0. 3. 1 2680 47 0 0 2 0 0 1;#M frgb 0 0 0;#M brgb 255 255 255;#M rgb2 127 127 127;#M rgb3 0 0 0;#M rgb4 37 52 91;#M rgb5 74 105 182;#M rgb6 112 158 18;#M rgb7 149 211 110;#M rgb8 187 9 201;#M rgb9 224 62 37;#M rgb10 7 114 128;#P user gain~ 348 472 24 100 158 0 1.071519 7.94321 10.;#N vpatcher 262 141 862 541;#P window setfont "Sans Serif" 14.;#P user umenu 201 240 29 196667 1 64 262 0;#X add a;#X add e;#X add i;#X add o;#X add u;#P window setfont "Sans Serif" 9.;#P newex 184 297 44 196617 s vowel;#P newex 60 265 69 196617 s notenumber;#P slider 181 60 15 128 0 1;#P newex 184 274 27 196617 + 1;#N counter 1;#X flags 0 0;#P newobj 184 210 66 196617 counter 1;#P newex 60 240 30 196617 + 50;#P toggle 60 142 15 0;#P newex 60 217 27 196617 * 5;#N counter 2;#X flags 0 0;#P newobj 60 194 66 196617 counter 2;#P newex 60 163 60 196617 metro 300;#P comment 209 115 100 196617 range;#P comment 251 244 100 196617 base vowel of pair;#P connect 5 0 2 0;#P connect 2 0 3 0;#P connect 3 0 4 0;#P connect 4 0 6 0;#P connect 6 0 10 0;#P connect 9 0 6 1;#P connect 2 0 7 0;#P connect 7 0 8 0;#P connect 8 0 11 0;#P connect 12 0 8 1;#P pop;#P newobj 877 219 85 196617 p wessel-illusion;#P hidden newex 542 235 42 196617 r range;#P hidden newex 540 180 44 196617 r vowel;#P hidden newex 29 125 69 196617 r notenumber;#P user gain~ 598 363 24 100 158 0 1.071519 7.94321 10.;#P newex 682 541 52 196617 *~ 0.031;#P user gain~ 640 576 24 100 158 0 1.071519 7.94321 10.;#P user multiSlider 347 243 147 12 0. 1. 1 2680 47 0 0 2 0 0 1;#M frgb 0 0 0;#M brgb 255 255 255;#M rgb2 127 127 127;#M rgb3 0 0 0;#M rgb4 37 52 91;#M rgb5 74 105 182;#M rgb6 112 158 18;#M rgb7 149 211 110;#M rgb8 187 9 201;#M rgb9 224 62 37;#M rgb10 7 114 128;#P user scope~ 351 609 481 739 8 3 128 -1. 1. 0 0. 2 0. 102 255 51 135 135 135 0;#P user spectroscope~ 682 571 110 96 20 1 1 0 1 0 0 0 0 0 0 0;#X frgb 96 234 166;#X brgb 255 255 255;#X rgb2 0 0 0;#X rgb3 85 195 213;#X rgb4 255 0 0;#X rgb5 184 184 184;#X rgb6 0 0 0;#X rgb7 0 0 0;#X rgb8 255 255 255;#X rgb9 255 0 0;#X rgb10 255 191 0;#X rgb11 0 191 127;#X rgb12 127 0 127;#X rgb13 0 0 0;#X range 0. 3.;#X domain 0. 10000.;#X done;#P window setfont "Sans Serif" 18.;#P comment 149 105 261 196626 The Simulated Glottis;#P toggle 721 165 15 0;#P window setfont "Sans Serif" 9.;#P newex 721 185 55 196617 metro 300;#P user multiSlider 355 294 147 12 0. 1. 1 2680 47 0 0 2 0 0 1;#M frgb 0 0 0;#M brgb 255 255 255;#M rgb2 127 127 127;#M rgb3 0 0 0;#M rgb4 37 52 91;#M rgb5 74 105 182;#M rgb6 112 158 18;#M rgb7 149 211 110;#M rgb8 187 9 201;#M rgb9 224 62 37;#M rgb10 7 114 128;#P message 360 314 65 196617 noisiness \$1;#P newex 592 340 38 196617 noise~;#P message 347 262 93 196617 first-amplitude \$1;#P toggle 202 212 15 0;#P message 218 341 23 196617 1.;#P newex 193 300 27 196617 t b f;#P newex 202 277 30 196617 float;#N counter 40;#X flags 0 0;#P newobj 202 255 66 196617 counter 40;#P newex 202 234 45 196617 metro 5;#P newex 69 385 305 196617 expr $f1*(1.0+0.03*$f2*sin (2.0*3.1415926535/40.0* $f3 ));#P newex 348 445 125 196617 harmonics~ sawtooth 100;#P toggle 614 697 15 0;#P newex 641 727 29 196617 dac~;#P newex 264 314 45 196617 loadbang;#P message 801 251 14 196617 a;#P message 818 273 14 196617 u;#P message 809 297 14 196617 e;#P message 784 296 14 196617 o;#P message 777 267 14 196617 i;#P newex 687 322 70 196617 sprintf %s%s;#P newex 682 430 37 196617 t b l;#N coll ircam-vowels;#T flags 1 0;#T store Sopranoa 800. 0. 80. 1150. -6. 90. 2900. -32. 120. 3900. -20. 130. 4950. -50. 140.;#T store Sopranoe 350. 0. 60. 2000. -20. 100. 2800. -15. 120. 3600. -40. 150. 4950. -56. 200.;#T store Sopranoi 270. 0. 60. 2140. -12. 90. 2950. -26. 100. 3900. -26. 120. 4950. -44. 120.;#T store Sopranoo 450. 0. 70. 800. -11. 80. 2830. -22. 100. 3800. -22. 130. 4950. -50. 135.;#T store Sopranou 325. 0. 50. 700. -16. 60. 2700. -35. 170. 3800. -40. 180. 4950. -60. 200.;#T store Altoa 800. 0. 80. 1150. -4. 90. 2800. -20. 120. 3500. -36. 130. 4950. -60. 140.;#T store Altoe 400. 0. 60. 1600. -24. 80. 2700. -20. 120. 3300. -35. 150. 4950. -60. 200.;#T store Altoi 350. 0. 50. 1700. -20. 100. 2700. -30. 120. 3700. -36. 150. 4950. -60. 200.;#T store Altoo 450. 0. 70. 800. -9. 80. 2830. -16. 100. 3500. -28. 130. 4950. -35. 135.;#T store Altou 325. 0. 50. 700. -12. 60. 2530. -30. 170. 3500. -40. 180. 4950. -64. 200.;#T store Contratenora 660. 0. 80. 1120. -6. 90. 2750. -23. 120. 3000. -24. 130. 3350. -38. 140.;#T store Contratenore 440. 0. 70. 1800. -14. 80. 2700. -18. 100. 3000. -20. 120. 3300. -20. 120.;#T store Contratenori 270. 0. 40. 1850. -24. 90. 2900. -24. 100. 3350. -36. 120. 3590. -36. 120.;#T store Contratenoro 430. 0. 40. 820. -10. 80. 2700. -26. 100. 3000. -22. 120. 3300. -34. 120.;#T store Contratenoru 370. 0. 40. 630. -20. 80. 2750. -23. 100. 3000. -30. 120. 3400. -34. 120.;#T store Tenora 650. 0. 80. 1080. -6. 90. 2650. -7. 120. 2900. -8. 130. 3250. -22. 140.;#T store Tenore 400. 0. 70. 1700. -14. 80. 2600. -12. 100. 3200. -14. 120. 3580. -20. 120.;#T store Tenori 290. 0. 40. 1870. -15. 90. 2800. -18. 100. 3250. -20. 120. 3540. -30. 120.;#T store Tenoro 400. 0. 40. 800. -10. 80. 2600. -12. 100. 2800. -12. 120. 3000. -26. 120.;#T store Tenoru 350. 0. 40. 600. -20. 60. 2700. -17. 100. 2900. -14. 120. 3300. -26. 120.;#T store Bassa 600. 0. 60. 1040. -7. 70. 2250. -9. 110. 2450. -9. 120. 2750. -20. 130.;#T store Basse 400. 0. 40. 1620. -12. 80. 2400. -9. 100. 2800. -12. 120. 3100. -18. 120.;#T store Bassi 250. 0. 60. 1750. -30. 90. 2600. -16. 100. 3050. -22. 120. 3340. -28. 120.;#T store Basso 400. 0. 40. 750. -11. 80. 2400. -21. 100. 2600. -20. 120. 2900. -40. 120.;#T store Bassu 350. 0. 40. 600. -20. 80. 2400. -32. 100. 2675. -28. 120. 2950. -36. 120.;#P newobj 683 367 90 196617 coll ircam-vowels;#P newex 680 344 78 196617 prepend symbol;#P newex 684 518 99 196617 resonators~ smooth;#P newex 685 409 74 196617 res-transform;#P newex 683 388 109 196617 prepend formant-form;#P newex 681 454 50 196617 metro 10;#P newex 682 475 93 196617 list-interpolate 25;#P message 736 435 27 196617 stop;#P window setfont "Sans Serif" 14.;#P user umenu 593 292 104 196667 1 64 314 0;#X add Soprano;#X add Alto;#X add Contratenor;#X add Tenor;#X add Bass;#P user umenu 719 230 29 196667 1 64 252 0;#X add a;#X add e;#X add i;#X add o;#X add u;#P window setfont "Sans Serif" 9.;#P newex 713 281 28 196617 t b s;#P newex 720 208 32 196617 urn 5;#P message 757 209 58 196617 clear \, bang;#P newex 68 326 29 196617 mtof;#P flonum 69 351 35 9 0 0 0 3 0 0 0 221 221 221 222 222 222 0 0 0;#P user kslider 27 164 35 1 36 60 19 7 0 128 128 128 128 128 128 255 255 255 0 0 0 0 0 0;#P comment 592 268 100 196617 Vocal Range;#P comment 642 236 100 196617 Vowel Selection;#P comment 781 356 100 196617 Collection of French vowels;#P comment 804 389 159 196617 Tell res-transform to interpret the vowel data in an ancient format;#P comment 780 476 232 196617 Smoothly Interpolate Vowel Transitions;#P comment 809 521 176 196617 Bank of resonating Formant Filters;#P comment 658 168 100 196617 the babbler;#P window setfont "Sans Serif" 18.;#P comment 600 114 261 196626 The Simulated Vocal Tract;#P window setfont "Sans Serif" 9.;#P comment 361 401 135 196617 Oscillator with and "open" "close" asymmetry and rich source of harmonics;#P comment 65 148 100 196617 Average Pitch;#P comment 145 213 53 196617 Vibrato;#P comment 303 293 52 196617 Gruffness;#P comment 284 243 63 196617 "roundness";#P comment 535 403 69 196617 whispering;#P window setfont Helvetica 20.;#P comment 38 32 501 1376276 Singing-voice Subtractive "Source-Filter" Synthesis Adrian Freed 1. March 2006 Copyright. UC Regents All Rights Reserved.;#P window setfont "Sans Serif" 9.;#P comment 803 327 100 196617 formant sharpness;#P comment 175 512 100 196617 Glottis volume;#P comment 148 363 100 196617 vibrato depth;#P comment 223 211 100 196617 rate;#P comment 763 437 100 196617 smoothness;#P comment 792 150 100 196617 babble rate;#P hidden connect 88 0 87 0;#P hidden connect 68 0 21 0;#P hidden connect 87 0 21 0;#P connect 21 0 23 0;#P connect 23 0 22 0;#P connect 22 0 48 0;#P connect 52 0 48 0;#P hidden connect 79 0 78 0;#P hidden connect 77 0 78 0;#P connect 51 0 52 0;#P hidden connect 78 0 54 0;#P connect 54 0 49 0;#P connect 49 0 50 0;#P connect 50 0 51 0;#P connect 53 0 77 0;#P connect 77 0 48 1;#P connect 44 0 53 0;#P connect 79 0 49 1;#P connect 64 0 55 0;#P connect 55 0 47 0;#P connect 57 0 47 0;#P connect 48 0 47 0;#P hidden connect 85 0 72 0;#P connect 47 0 72 0;#P connect 72 0 63 0;#P connect 58 0 57 0;#P connect 52 1 48 2;#P hidden connect 86 0 85 0;#P hidden connect 83 0 84 0;#P hidden connect 70 0 28 0;#P hidden connect 84 0 28 0;#P connect 56 0 67 0;#P connect 66 0 65 0;#P hidden connect 85 0 65 0;#P connect 65 0 45 0;#P connect 46 0 45 0;#P connect 65 0 45 1;#P connect 38 0 35 0;#P connect 37 0 31 0;#P connect 29 0 31 0;#P connect 33 0 37 0;#P connect 31 0 30 0;#P connect 37 1 30 0;#P connect 34 0 66 0;#P connect 35 0 36 0;#P connect 36 0 32 0;#P connect 30 0 34 0;#P connect 67 0 34 0;#P connect 72 0 34 0;#P connect 90 0 34 0;#P connect 74 0 33 0;#P connect 32 0 33 0;#P connect 28 1 38 0;#P connect 26 0 38 0;#P connect 43 0 26 0;#P connect 42 0 26 0;#P connect 41 0 26 0;#P connect 40 0 26 0;#P connect 39 0 26 0;#P connect 27 1 26 0;#P hidden connect 69 0 27 0;#P connect 25 0 27 0;#P connect 59 0 25 0;#P connect 24 0 25 0;#P connect 60 0 59 0;#P connect 80 0 31 1;#P connect 26 1 38 1;#P connect 25 1 24 0;#P connect 81 0 59 1;#P hidden connect 82 0 43 0;#P connect 73 0 75 0;#P connect 75 0 74 0;#P pop;