max v2;#N vpatcher 203 107 747 747;#P origin -18 0;#P window setfont "Sans Serif" 9.;#P window linecount 1;#P newex 2 128 72 196617 loadmess rms;#P newex 180 128 66 196617 mstosamps~;#P newex 125 103 177 196617 OSC-route /threshold /attack /slope;#P message 72 99 36 196617 signal;#P newex 72 76 63 196617 route signal;#P newex 89 160 73 196617 average~ 440;#P newex 261 502 73 196617 uc_disclaimer;#P inlet 72 47 15 0;#P outlet 72 519 15 0;#P newex 72 496 27 196617 /~;#P newex 89 270 27 196617 /~;#P newex 106 215 120 196617 expr pow(10.\\\,$f1/10.);#P newex 106 243 39 196617 sig~ 1.;#P newex 89 298 84 196617 clip~ 1. 999999.;#P newex 89 325 33 196617 sqrt~;#P newex 89 360 27 196617 *~;#P newex 157 391 33 196617 sqrt~;#P newex 123 391 27 196617 *~;#P newex 157 421 27 196617 *~;#P newex 123 325 39 196617 sig~ 1.;#P newex 157 360 39 196617 sig~ 0.;#P newex 191 391 39 196617 sig~ 0.;#P newex 123 360 33 196617 sqrt~;#P newex 191 421 33 196617 sqrt~;#P newex 191 454 27 196617 *~;#P newex 225 421 39 196617 sig~ 0.;#P newex 259 290 74 196617 unpack 1 0 0 0;#P newex 259 159 66 196617 sel 1 2 4 8;#P message 287 228 41 196617 0 0 1 0;#P message 301 250 41 196617 0 0 0 1;#P message 273 207 41 196617 0 1 0 0;#P message 259 185 41 196617 1 0 0 0;#P comment 232 485 147 196617 comp~ 2. by Jot & Zbyszynski;#P connect 25 0 28 0;#P connect 28 0 29 0;#P connect 29 0 23 0;#P connect 23 0 24 0;#P connect 29 0 27 0;#P connect 32 0 27 0;#P connect 31 0 27 0;#P connect 27 0 22 0;#P connect 22 0 19 0;#P connect 19 0 18 0;#P connect 18 0 17 0;#P connect 14 0 23 1;#P connect 8 0 23 1;#P connect 17 0 23 1;#P connect 15 0 23 1;#P connect 30 0 21 0;#P connect 21 0 20 0;#P connect 20 0 22 1;#P connect 13 0 17 1;#P connect 6 0 13 0;#P connect 18 0 10 0;#P connect 10 0 15 0;#P connect 28 1 30 0;#P connect 12 0 15 1;#P connect 6 1 12 0;#P connect 10 0 16 0;#P connect 16 0 14 0;#P connect 11 0 14 1;#P connect 30 1 31 0;#P connect 6 2 11 0;#P connect 16 0 9 0;#P connect 9 0 8 0;#P connect 7 0 8 1;#P connect 6 3 7 0;#P connect 30 2 5 0;#P connect 5 0 1 0;#P connect 4 0 6 0;#P connect 3 0 6 0;#P connect 2 0 6 0;#P connect 1 0 6 0;#P connect 5 1 2 0;#P connect 5 2 4 0;#P connect 5 3 3 0;#P pop;