max v2;#N vpatcher 42 46 606 313;#P comment 7 190 188 196617 Messages "start" and "stop" passed to the dac~ object's left inlet turns the signal processing network on and off.;#P comment 253 194 285 196617 dac~ outputs signal from both the left and right DAC channels.;#P comment 277 144 238 196617 *~ multiplies sine wave by 0.05 in order to bring the amplitude down to an acceptable listening level.;#P comment 276 81 198 196617 sig~ objects transform control values into values that are updated each sample.;#P comment 6 57 215 196617 Press the "start" message below to run patch.;#P comment 6 17 93 196622 TUTORIAL 1;#P newex 222 85 48 196617 sig~ 440;#P newex 222 112 35 196617 osc1~;#P newex 222 148 50 196617 *~;#P newex 222 191 29 196617 dac~;#P newex 262 112 45 196617 sig~ 0.1;#P message 179 145 31 196617 start;#P message 158 164 27 196617 stop;#P comment 6 37 171 196622 A sine wave generator;#P comment 38 108 178 196617 osc1~ creates a 440Hz cosine wave with amplitude varying from -1 to 1.;#P connect 8 0 7 0;#P connect 7 0 6 0;#P connect 6 0 5 0;#P connect 6 0 5 1;#P connect 4 0 6 1;#P connect 3 0 5 0;#P connect 2 0 5 0;#P pop;