max v2;#N vpatcher 76 39 620 469;#P comment 375 131 120 196617 The phasor~ object outputs a sawtooth wave (one that ramps from 0 to 1 each period).;#P comment 7 147 260 196617 Giving an argument to the osc1~ object causes it to look the tab1~ object named triangle.snd for its waveform.;#P comment 551 -35 250 196617 tab1~ objects import short soundfiles (512 samples) \, which are used by the osc1~ object as wavetables.;#P comment 251 51 30 196617 Off;#P message 251 72 68 196617 \; amp.s 0 500 \; amp.t 0 500 \; amp.st 0 500;#P message 162 72 87 196617 \; dac start \; amp.st 0.05 500 \; amp.t 0 200 \; amp.s 0 200;#P message 83 72 77 196617 \; dac start \; amp.s 0.1 500 \; amp.t 0 200 \; amp.st 0 200;#P message 5 72 76 196617 \; dac start \; amp.t 0.1 500 \; amp.s 0 200 \; amp.st 0 200;#P comment 1 22 278 196622 TUTORIAL 3 - Alternative waveforms;#P newex 450 187 46 196617 r amp.st;#P message 462 235 41 196617 0 1000;#P newex 450 259 30 196617 line~;#P message 462 210 50 196617 0.1 1000;#P newex 390 259 44 196617 phasor~;#P newex 390 235 48 196617 sig~ 440;#P newex 213 244 48 196617 sig~ 440;#P newex 213 268 86 196617 osc1~ square.snd;#P newex 48 268 91 196617 osc1~ triangle.snd;#P newex 48 244 48 196617 sig~ 440;#P newex 359 93 85 196617 tab1~ square.snd;#P newex 359 67 90 196617 tab1~ triangle.snd;#P comment 162 51 50 196617 Sawtooth;#P newex 390 295 70 196617 *~;#P newex 390 332 29 196617 dac~;#P comment 5 51 45 196617 Triangle;#P comment 83 51 39 196617 Square;#P newex 213 341 29 196617 dac~;#P message 316 219 50 196617 0.1 1000;#P newex 304 268 30 196617 line~;#P message 316 244 41 196617 0 1000;#P newex 213 304 101 196617 *~;#P newex 304 196 42 196617 r amp.s;#P newex 146 196 41 196617 r amp.t;#P newex 48 341 29 196617 dac~;#P newex 11 305 31 196617 r dac;#P message 157 219 50 196617 0.1 1000;#P newex 146 268 30 196617 line~;#P message 157 244 41 196617 0 1000;#P newex 48 304 108 196617 *~;#P connect 28 0 27 0;#P connect 26 0 27 0;#P connect 11 0 10 0;#P connect 9 0 10 0;#P connect 3 0 2 0;#P connect 1 0 2 0;#P connect 29 0 27 0;#P connect 27 0 16 1;#P connect 25 0 16 0;#P connect 24 0 25 0;#P connect 23 0 22 0;#P connect 22 0 8 0;#P connect 21 0 0 0;#P connect 16 0 15 0;#P connect 16 0 15 1;#P connect 10 0 8 1;#P connect 8 0 12 0;#P connect 8 0 12 1;#P connect 6 0 2 0;#P connect 7 0 10 0;#P connect 4 0 5 0;#P connect 2 0 0 1;#P connect 0 0 5 0;#P connect 0 0 5 1;#P connect 20 0 21 0;#P pop;