max v2;#N vpatcher 14 43 579 434;#P comment 20 12 236 196622 TUTORIAL 4 - Phase modulation;#P newex 22 193 49 196617 stripnote;#P newex 22 169 88 196617 notein;#P newex 22 216 29 196617 mtof;#P number 22 239 62 9 0 0 0 3;#P newex 22 260 35 196617 s freq;#P message 123 64 85 196617 \; amplitude 0 500 \;;#P message 22 64 100 196617 \; dac start \; index 0.5 1000 \; amplitude 0.1 1000 \;;#P newex 166 308 31 196617 r dac;#P newex 203 347 29 196617 dac~;#P newex 313 289 30 196617 line~;#P newex 203 307 27 196617 *~;#P newex 203 258 35 196617 osc1~;#P newex 203 203 35 196617 r freq;#P newex 203 231 48 196617 sig~ 440;#P newex 309 93 35 196617 r freq;#P newex 309 116 33 196617 * 0.8;#P newex 309 170 35 196617 osc1~;#P newex 309 142 48 196617 sig~ 280;#P comment 205 172 102 196617 Modulator oscillator.;#P newex 309 201 27 196617 *~;#P newex 372 183 30 196617 line~;#P newex 372 120 40 196617 r index;#P message 382 141 50 196617 0.1 1000;#P message 391 159 41 196617 1 1000;#P message 325 248 50 196617 0.1 1000;#P message 334 266 41 196617 0 1000;#P newex 313 228 59 196617 r amplitude;#P comment 22 51 19 196617 On;#P comment 123 51 22 196617 Off;#P comment 374 74 130 196617 Modulator frequency is 0.8 of carrier frequency.;#P comment 105 228 95 196617 Carrier oscillator \; right input is phase.;#P comment 20 32 210 196617 Click in "On" message box to start the patch.;#P comment 21 132 183 196617 The mtof object converts MIDI notes to frequencies which are sent as freq.;#P comment 269 312 221 196617 *~ is a global amplitude scaler. It multiplies signal by a continuous ramp generated by line~.;#P comment 379 251 156 196617 Click on these message boxes to turn amplitude on and off.;#P comment 434 138 110 196617 Modulation depth: click on these message boxes to change.;#P connect 34 1 35 1;#P connect 35 0 33 0;#P connect 33 0 32 0;#P connect 32 0 31 0;#P connect 20 0 18 0;#P connect 28 0 27 0;#P connect 26 0 25 1;#P connect 25 0 27 0;#P connect 34 0 35 0;#P connect 25 0 27 1;#P connect 24 0 25 0;#P connect 23 0 22 0;#P connect 22 0 24 0;#P connect 21 0 20 0;#P connect 13 0 15 0;#P connect 19 0 16 0;#P connect 18 0 19 0;#P connect 16 0 24 1;#P connect 15 0 16 1;#P connect 14 0 15 0;#P connect 9 0 26 0;#P connect 12 0 15 0;#P connect 11 0 26 0;#P connect 10 0 26 0;#P pop;