max v2;#N vpatcher 5 41 501 461;#P newex 141 155 45 196617 sig~ 0.1;#P newex 104 176 47 196617 *~;#P comment 137 123 265 196617 adc~ object takes input from analog to digital converters. Its two outputs are the left and right channels.;#P comment 157 184 265 196617 Write signal into a delay line of 1500ms called "joe-del".;#P comment 263 313 202 196617 Tap into "joe-del" at the current delay time and send signal out left channel output.;#P comment 33 253 375 196617 Slider sends delay time value to delread~ objects. Move it to change delay length.;#P comment 131 64 211 196617 Click "On" message and sing into microphone.;#P message 81 56 45 196617 \; dac stop;#P message 7 56 73 196617 \; dac start \; del-time 1000;#P comment 81 43 22 196617 Off;#P comment 7 44 19 196617 On;#P comment 0 11 203 196622 TUTORIAL 6 - Simple delay;#P newex 104 128 29 196617 adc~;#P newex 104 155 29 196617 +~;#P newex 153 291 54 196617 r del-time;#P newex 111 320 31 196617 r dac;#P newex 153 354 29 196617 dac~;#P newex 7 135 29 196617 / 10;#P newex 7 108 54 196617 r del-time;#P message 7 162 35 196617 set \$1;#P newex 7 379 54 196617 s del-time;#P slider 7 187 24 128 0 1;#P newex 7 331 30 196617 * 10;#P number 7 359 51 9 0 0 0 3;#P newex 104 198 114 196617 delwrite~ joe-del 1500;#P newex 153 318 109 196617 delread~ joe-del 1000;#P connect 2 0 5 0;#P connect 6 0 4 0;#P connect 4 0 3 0;#P connect 13 0 12 0;#P connect 13 1 12 1;#P connect 12 0 24 0;#P connect 11 0 0 0;#P connect 10 0 9 0;#P connect 8 0 6 0;#P connect 7 0 8 0;#P connect 3 0 2 0;#P connect 0 0 9 0;#P connect 0 0 9 1;#P connect 24 0 1 0;#P connect 25 0 24 1;#P pop;