max v2;#N vpatcher 16 39 477 437;#P newex 117 120 45 196617 sig~ 0.1;#P newex 78 141 49 196617 *~;#P comment 77 185 133 196617 Write signal into a delay line of 2 secs called "fred-del".;#P comment 37 239 205 196617 Slider sends delay time value to vd~ object. Move slider to hear changing delay time.;#P comment 126 56 275 196617 Click "On" message \, sing into microphone \, and move slider.;#P comment 8 13 215 196622 TUTORIAL 7 - Variable delay;#P newex 333 342 29 196617 dac~;#P newex 293 284 31 196617 r dac;#P newex 333 252 54 196617 r del-time;#P newex 333 274 64 196617 pack 0 1000;#P newex 333 295 30 196617 line~;#P message 81 52 45 196617 \; dac stop;#P message 7 52 73 196617 \; dac start \; del-time 1000;#P newex 78 97 29 196617 adc~;#P newex 78 121 29 196617 +~;#P number 8 330 51 9 0 0 0 3;#P newex 8 350 54 196617 s del-time;#P slider 8 165 27 128 0 1;#P newex 8 308 30 196617 * 16;#P message 8 140 35 196617 set \$1;#P newex 8 96 54 196617 r del-time;#P newex 8 118 29 196617 / 10;#P comment 7 39 20 196617 ON;#P comment 81 39 24 196617 OFF;#P newex 78 165 119 196617 delwrite~ fred-del 2000;#P newex 333 316 65 196617 vd~ fred-del;#P comment 68 306 224 196617 Tap into "fred-del" at the current delay time using a signal index created by line~. A time argument of 1 second is packed with "del-time" to smooth out delay time transitions.;#P comment 270 73 147 196617 This tutorial is almost identical to the preceding one \, with the important difference that the delay line is read with the object vd~ instead of delread~. vd~ changes the delay time according to a signal index at its input. Notice that changing the delay time at the signal rate results in a transposition of the delayed signal. Also \, notice that the delay time can be changed continuously without producing clicks.;#P connect 12 0 11 0;#P connect 10 0 9 0;#P connect 8 0 10 0;#P connect 20 0 21 0;#P connect 19 0 18 0;#P connect 18 0 17 0;#P connect 17 0 2 0;#P connect 14 0 13 0;#P connect 14 1 13 1;#P connect 13 0 26 0;#P connect 9 0 12 0;#P connect 7 0 6 0;#P connect 6 0 8 0;#P connect 2 0 21 0;#P connect 2 0 21 1;#P connect 26 0 3 0;#P connect 27 0 26 1;#P pop;