max v2;#N vpatcher 3 44 574 456;#P newex 151 129 45 196617 sig~ 0.1;#P newex 120 163 41 196617 *~;#P comment 381 249 133 196617 Left channel tap: tap into "mary-del" at the current delay time and send signal out left channel output.;#P comment 327 109 157 196617 Feedback tap: tap into "mary-del" at the current delay time and scale down its amplitude by 50% to create feedback.;#P comment 394 308 116 196617 Right channel tap: tap into "mary-del" at half the current delay time and send signal out right channel output.;#P comment 1 21 243 196622 TUTORIAL 8 Delay with feedback;#P comment 90 114 30 196617 Input;#P newex 203 172 75 196617 *~;#P newex 268 150 45 196617 sig~ 0.5;#P newex 120 190 27 196617 +~;#P newex 120 140 29 196617 +~;#P newex 120 113 29 196617 adc~;#P newex 203 124 119 196617 delread~ mary-del 1000;#P newex 203 97 54 196617 r del-time;#P newex 120 214 124 196617 delwrite~ mary-del 1500;#P comment 150 193 135 196617 Add input signal to feedback.;#P comment 260 210 159 196617 Write mixed signal into a delay line of 1500ms called "mary-del".;#P comment 130 63 211 196617 Click "On" message and sing into microphone.;#P comment 44 290 165 196617 Move slider to change delay length.;#P comment 79 46 22 196617 Off;#P comment 4 46 19 196617 On;#P message 79 60 45 196617 \; dac stop;#P message 4 60 73 196617 \; dac start \; del-time 1000;#P newex 279 347 113 196617 delread~ mary-del 500;#P newex 260 280 119 196617 delread~ mary-del 1000;#P newex 279 324 27 196617 / 2;#P newex 279 302 54 196617 r del-time;#P newex 260 256 54 196617 r del-time;#P newex 260 370 29 196617 dac~;#P newex 223 335 31 196617 r dac;#P number 11 339 51 9 0 0 0 3;#P newex 11 316 30 196617 * 10;#P slider 11 176 29 128 0 1;#P newex 11 359 54 196617 s del-time;#P message 11 153 35 196617 set \$1;#P newex 11 108 54 196617 r del-time;#P newex 11 130 29 196617 / 10;#P connect 6 0 3 0;#P connect 4 0 5 0;#P connect 2 0 4 0;#P connect 28 0 29 1;#P connect 27 0 22 0;#P connect 26 0 35 0;#P connect 25 0 26 0;#P connect 25 1 26 1;#P connect 24 0 29 0;#P connect 23 0 24 0;#P connect 13 0 8 1;#P connect 12 0 8 0;#P connect 11 0 13 0;#P connect 10 0 11 0;#P connect 9 0 12 0;#P connect 7 0 8 0;#P connect 5 0 6 0;#P connect 1 0 0 0;#P connect 0 0 2 0;#P connect 35 0 27 0;#P connect 36 0 35 1;#P connect 29 0 27 1;#P pop;