max v2;#N vpatcher 8 45 585 457;#P newex 27 238 45 196617 sig~ 0.1;#P newex 10 264 27 196617 *~;#P comment 1 9 175 196622 TUTORIAL 8 - Sampling;#P comment 243 33 44 196617 "Scrub";#P message 305 164 72 196617 0 \, 5000 5000;#P message 316 181 72 196617 5000 \, 0 5000;#P message 327 198 72 196617 0 \, 5000 4000;#P newex 305 242 30 196617 line~;#P message 338 215 90 196617 2000 \, 5000 3000;#P comment 301 123 57 196617 PLAYBACK;#P message 321 274 81 196617 set my-sample1;#P message 333 290 81 196617 set my-sample2;#P newex 305 364 29 196617 dac~;#P newex 305 324 116 196617 sampread~ my-sample1;#P slider 244 47 27 128 0 1;#P newex 244 185 30 196617 * 40;#P number 244 205 31 9 0 0 0 3;#P message 4 53 49 196617 \; dac start;#P message 109 53 45 196617 \; dac stop;#P newex 244 224 58 196617 pack 0 500;#P comment 4 33 26 196617 On;#P comment 109 33 30 196617 Off;#P button 82 313 42 0;#P newex 82 360 121 196617 sampwrite~ my-sample2;#P button 82 236 42 0;#P comment 41 199 58 196617 RECORDING;#P newex 82 282 121 196617 sampwrite~ my-sample1;#P newex 10 197 29 196617 adc~;#P newex 10 218 29 196617 +~;#P comment 8 102 107 196617 MEMORY ALLOCATION;#P comment 9 155 204 196617 A sample must have its memory "reserved" by a table~ object. First argument is sample name \, second is length in milliseconds.;#P newex 9 136 122 196617 table~ my-sample2 5000;#P newex 9 117 122 196617 table~ my-sample1 5000;#P comment 126 237 101 196617 Click here to record "my-sample1".;#P comment 126 313 101 196617 Click here to record "my-sample2".;#P newex 266 326 31 196617 r dac;#P comment 421 270 124 196617 "set" message tells sampread~ which sample table to read. (This can be changed during playback!).;#P comment 338 244 214 196617 line~ creates continuous index to read sample.;#P comment 432 216 84 196617 Start from 2sec.;#P comment 401 199 96 196617 Play forward \, fast.;#P comment 390 182 155 196617 Play in reverse at normal speed.;#P comment 379 165 145 196617 Play forward at normal speed.;#P comment 303 139 241 196617 Click on message boxes below to play back samples.;#P connect 26 0 23 0;#P connect 28 0 27 0;#P connect 38 0 35 0;#P connect 37 0 35 0;#P connect 36 0 35 0;#P connect 34 0 35 0;#P connect 32 0 29 0;#P connect 31 0 29 0;#P connect 15 0 14 0;#P connect 15 1 14 1;#P connect 14 0 41 0;#P connect 7 0 30 0;#P connect 20 0 19 0;#P connect 18 0 16 0;#P connect 29 0 30 0;#P connect 29 0 30 1;#P connect 35 0 29 0;#P connect 41 0 16 0;#P connect 41 0 19 0;#P connect 42 0 41 1;#P connect 27 0 26 0;#P connect 23 0 35 0;#P pop;