max v2;#N vpatcher 49 50 687 425;#P newex 26 271 45 196617 sig~ 0.1;#P newex 9 293 27 196617 *~;#P comment 0 13 414 196622 TUTORIAL 10 - Soundfile recording and playback \, Part I;#P comment 153 39 325 196617 writesf~ and readsf~ take the following messages: - "open..." to prepare a soundfile for recording or playback - "1" to start recording/playback - "2" to stop recording/playback In both recording and playback \, the "open" message always precedes each "1" message.;#P comment 59 97 58 196617 RECORDING;#P comment 58 120 273 196617 Click on the "open" message below to prepare the soundfile for recording \, wait two seconds and click on the button.;#P newex 9 221 29 196617 adc~;#P newex 9 247 29 196617 +~;#P newex 59 330 48 196617 writesf~;#P message 59 146 95 196617 open Music:test.snd;#P message 76 290 14 196617 1;#P button 76 175 26 0;#P comment 86 257 57 196617 "1" starts recording;#P newex 145 229 48 196617 del 2000;#P button 145 263 15 0;#P message 145 288 14 196617 0;#P comment 103 182 235 196617 Click here two seconds after opening the soundfile.;#P comment 72 36 22 196617 Off;#P comment 1 36 19 196617 On;#P message 72 50 45 196617 \; dac stop;#P message 1 50 49 196617 \; dac start;#P comment 168 253 167 196617 After a delay of two seconds \, del object sends "0" to stop soundfile recording. Be careful \, Max fills up your file system if you don't stop recording.;#P comment 333 119 284 196617 Click on the "open" message below to prepare the soundfile for playback \, wait two seconds and click on the message "1".;#P newex 345 260 31 196617 r dac;#P message 428 209 14 196617 1;#P newex 385 256 43 196617 readsf~;#P message 398 209 14 196617 0;#P newex 385 299 29 196617 dac~;#P message 385 176 95 196617 open Music:test.snd;#P comment 334 96 55 196617 PLAYBACK;#P comment 431 233 159 196617 "1" starts soundfile playback \, "0" stops it. You don't need to send a 0 to the readsf~ object \; playback stops automatically at the end of the file.;#P connect 4 0 5 0;#P connect 2 0 5 0;#P connect 21 0 22 0;#P connect 20 0 22 0;#P connect 15 0 22 0;#P connect 6 0 5 0;#P connect 7 0 3 0;#P connect 5 0 3 0;#P connect 5 0 3 1;#P connect 29 0 22 0;#P connect 30 0 29 1;#P connect 19 0 20 0;#P connect 19 0 17 0;#P connect 16 0 15 0;#P connect 23 0 29 0;#P connect 24 0 23 0;#P connect 24 1 23 1;#P connect 17 0 16 0;#P pop;