max v2;#N vpatcher 48 55 601 455;#P newex 179 115 45 196617 sig~ 0.1;#P newex 162 139 27 196617 *~;#P comment 0 21 385 196622 TUTORIAL 12 - Turning a signal network on and off;#P comment 17 261 382 196617 A switched signal network can only output its signal using throw~. throw~ sends signals remotely to a catch~ object with the same name. If more than one throw~ object (with the same name) is sending a signal at the same time \, catch~ adds the signals together. There cannot be more than one catch~ object with the same name.;#P comment 127 166 176 196617 switch~ turns a signal network on and off. Everything connected below the switch is effected by it. (Open delay patcher for further information).;#P message 4 55 68 196617 \; dac start \; rev_init bang;#P message 73 55 45 196617 \; dac stop;#P comment 227 99 191 196617 An incoming signal to switch~ is optional;#P newex 364 164 44 196617 switch~;#P toggle 364 130 29 0;#P newex 123 315 31 196617 r dac;#P newex 169 348 67 196617 dac~;#P newex 226 315 63 196617 catch~ right;#P newex 169 315 55 196617 catch~ left;#P newex 82 236 65 196617 throw~ right;#P newex 20 236 60 196617 throw~ left;#N vpatcher 281 61 638 478;#P outlet 201 469 15 0;#P newex 201 420 162 9 delread~ fred 500;#P comment 368 249 304 196622 Notice that certain connections are present solely to force the order of execution and to identify which DSP modules fall "under" the switch~ (for example \, the delwrite~ output connected to the delread~ inputs). It is very important to make these connections. Ambiguities can lead switch~ to leave things on which are supposed to be off and vice versa.;#P newex 142 201 217 9 +~;#P newex 530 130 75 9 sig~ 0.5;#P newex 350 160 190 9 *~;#P newex 142 236 217 9 delwrite~ fred 1500;#P outlet 142 468 15 0;#P newex 351 130 162 9 delread~ fred 1000;#P inlet 142 29 15 0;#P newex 142 337 162 9 delread~ fred 1000;#P connect 7 0 4 0;#P connect 6 0 5 1;#P connect 4 0 0 0;#P connect 5 0 7 1;#P connect 4 0 9 0;#P connect 0 0 3 0;#P connect 1 0 7 0;#P connect 2 0 5 0;#P connect 1 0 2 0;#P connect 1 0 6 0;#P connect 9 0 10 0;#P pop;#P newobj 20 206 72 196617 patcher delay;#P toggle 20 137 27 0;#P newex 20 170 44 196617 switch~;#P newex 429 235 65 196617 throw~ right;#N vpatcher 170 47 450 330;#P message 170 114 26 196617 105;#P message 125 115 20 196617 70;#P newex 125 58 64 196617 r rev_init;#P inlet 80 40 15 0;#P outlet 80 193 15 0;#P outlet 171 195 15 0;#P newex 80 157 101 196617 rev4.pat;#P connect 5 0 0 1;#P connect 4 0 5 0;#P connect 4 0 6 0;#P connect 0 0 2 0;#P connect 0 1 1 0;#P connect 3 0 0 0;#P connect 6 0 0 2;#P pop;#P newobj 364 202 75 196617 patcher reverb;#P newex 364 235 60 196617 throw~ left;#P comment 133 55 385 196617 Send microphone signal through delay and/or reverb by switching toggles on and off;#P newex 162 70 29 196617 adc~;#P newex 162 92 29 196617 +~;#P connect 23 0 16 0;#P connect 23 0 6 0;#P connect 16 0 4 0;#P connect 12 0 13 1;#P connect 11 0 13 0;#P connect 15 0 16 0;#P connect 6 0 8 0;#P connect 8 0 9 0;#P connect 8 1 10 0;#P connect 4 0 3 0;#P connect 4 1 5 0;#P connect 1 0 0 0;#P connect 1 1 0 1;#P connect 0 0 23 0;#P connect 0 0 24 0;#P connect 24 0 23 1;#P connect 14 0 13 0;#P connect 7 0 6 0;#P pop;