max v2;#N vpatcher 10 41 517 443;#P comment 28 151 179 196617 The wahwah~ object takes three signal inputs: -a signal to be bandpass filtered -center frequency - and Q (the ratio of center frequency to bandwidth) Here \, line~s assure smooth transitions between changing values.;#P comment 9 12 268 196622 TUTORIAL 14 - Filtered noise \, Part I;#P comment 370 80 51 196617 amplitude;#P message 84 66 35 196617 \; amp 0;#P message 28 66 53 196617 \; dac start \; cf 50 \; Q 30 \; amp 60;#P newex 424 54 34 196617 r amp;#N vpatcher 239 142 587 302;#P comment 5 22 28 196617 On Q;#P comment 5 46 309 196617 Q = cf/BW (the ratio of center frequency to bandwidth.) The higher the Q \, the more acute and resonant the filter. Note also that a higher Q results in a filter which lets through much less energy \; therefore \, you might want to compensate by multiplying the output (or input) in order to maintain a constant perceived intensity.;#P pop;#P newobj 355 106 53 196617 p README;#P comment 84 53 22 196617 Off;#P comment 28 53 19 196617 On;#P comment 321 80 14 196617 Q;#P comment 165 79 85 196617 Center frequency;#P newex 161 328 273 196617 *~;#P newex 250 54 25 196617 r cf;#P message 250 258 35 196617 \$1 30;#P flonum 250 238 69 9 0 0 0 3;#P slider 250 79 15 128 0 1;#P newex 250 218 39 196617 * 100.;#P newex 250 278 30 196617 line~;#P newex 339 54 22 196617 r Q;#P slider 339 79 15 128 0 1;#P number 339 227 35 9 0 0 0 3;#P message 339 258 41 196617 \$1 100;#P newex 339 278 30 196617 line~;#P slider 424 79 15 128 0 1;#P number 424 219 35 9 0 0 0 3;#P newex 424 238 32 196617 / 64.;#P message 424 258 41 196617 \$1 400;#P newex 424 278 30 196617 line~;#P newex 161 300 189 196617 wahwah~;#P newex 161 365 29 196617 dac~;#P newex 125 329 31 196617 r dac;#N vpatcher 145 59 447 364;#P comment 120 108 94 196617 A noise source made by modulating an oscillator's frequency with radically high varying values;#P newex 91 73 99 196617 sig~ 10000000000.;#P newex 35 37 42 196617 sig~ 10;#P newex 52 73 35 196617 osc1~;#P newex 52 98 49 196617 *~;#P newex 35 164 35 196617 osc1~;#P newex 35 125 27 196617 +~;#P outlet 35 187 15 0;#P connect 6 0 3 1;#P connect 5 0 1 0;#P connect 5 0 4 0;#P connect 4 0 3 0;#P connect 3 0 1 1;#P connect 2 0 0 0;#P connect 1 0 2 0;#P pop;#P newobj 161 266 75 196617 p noise_source;#P connect 20 0 2 0;#P connect 20 0 2 1;#P connect 17 0 18 0;#P connect 19 0 16 0;#P connect 15 0 17 0;#P connect 14 0 3 1;#P connect 16 0 15 0;#P connect 13 0 12 0;#P connect 18 0 14 0;#P connect 9 0 3 2;#P connect 6 0 5 0;#P connect 12 0 11 0;#P connect 11 0 10 0;#P connect 10 0 9 0;#P connect 26 0 8 0;#P connect 8 0 7 0;#P connect 7 0 6 0;#P connect 5 0 4 0;#P connect 4 0 20 1;#P connect 3 0 20 0;#P connect 1 0 2 0;#P connect 0 0 3 0;#P pop;