max v2;#N vpatcher 16 44 557 454;#P comment 23 21 292 196622 TUTORIAL 14 - Filtered noise \, Part II;#P message 156 58 55 196617 \; lp_amp 0 \; hp_amp 0 \; dac stop;#P message 89 58 62 196617 \; lp_amp 0 \; hp_freq 50 \; hp_amp 40 \; dac start;#P message 25 58 60 196617 \; hp_amp 0 \; lp_freq 21 \; lp_amp 64 \; dac start;#P newex 72 366 29 196617 dac~;#P newex 33 322 31 196617 r dac;#P newex 180 167 48 196617 r lp_amp;#P newex 126 123 49 196617 r lp_freq;#P newex 72 305 39 196617 r noise;#P slider 180 188 16 128 0 1;#N vpatcher 26 53 381 403;#P flonum 40 170 68 9 0 0 0 3;#P inlet 217 49 15 0;#P newex 217 245 30 196617 line~;#P message 217 220 41 196617 \$1 100;#P newex 217 192 38 196617 / 127.;#P newex 19 291 208 196617 *~;#P outlet 19 314 15 0;#P newex 19 244 141 196617 2p2z~ 0.022 0.977 0. 1. 0 0.;#P flonum 61 223 68 9 0 0 0 3;#P inlet 19 49 15 0;#P newex 61 201 75 196617 expr (1. - $f1);#P message 40 90 41 196617 \$1 100;#P newex 40 140 50 196617 / 44100.;#P number 40 69 68 9 0 0 0 3;#P inlet 40 49 16 0;#P newex 40 114 48 196617 line 0 10;#P comment 27 263 196 196617 2p2z~ is a 2 pole 2 zero filter that takes raw coefficents as arguments/inputs;#P comment 18 15 202 196617 Lowpass filter using one-pole coefficents: h \, 1-h \, 0 \, 1 \, 0 \, 0 where cutoff is h*SR;#P comment 111 70 84 196617 Cutoff frequency;#P comment 94 142 105 196617 Sample rate is 44100;#P comment 224 175 53 196617 Amplitude;#P connect 17 0 18 0;#P connect 20 0 13 1;#P connect 20 0 10 0;#P connect 12 0 13 2;#P connect 9 0 5 0;#P connect 18 0 15 1;#P connect 16 0 17 0;#P connect 13 0 15 0;#P connect 10 0 12 0;#P connect 5 0 8 0;#P connect 19 0 16 0;#P connect 7 0 9 0;#P connect 15 0 14 0;#P connect 11 0 13 0;#P connect 6 0 7 0;#P connect 8 0 20 0;#P pop;#P newobj 72 329 118 196617 patcher lowpass;#P number 126 305 51 9 0 0 0 3;#P newex 126 283 35 196617 * 100;#P slider 126 144 15 128 0 1;#N vpatcher 130 70 456 334;#P newex 117 95 99 196617 sig~ 10000000000.;#P newex 59 59 42 196617 sig~ 10;#P newex 76 94 35 196617 osc1~;#P newex 76 119 51 196617 *~;#P newex 59 180 35 196617 osc1~;#P newex 59 141 27 196617 +~;#P comment 62 43 193 196617 A cheap noise source made by modulation;#P outlet 59 203 15 0;#P connect 6 0 2 0;#P connect 6 0 5 0;#P connect 5 0 4 0;#P connect 4 0 2 1;#P connect 2 0 3 0;#P connect 7 0 4 1;#P connect 3 0 0 0;#P pop;#P newobj 261 71 104 196617 patcher noise_source;#P newex 261 92 39 196617 s noise;#P slider 417 188 16 128 0 1;#N vpatcher 59 74 405 405;#P inlet 259 52 15 0;#P newex 80 147 122 196617 expr (1. - ($i1/44100.));#P number 80 74 56 9 0 0 0 3;#P comment 22 240 202 196617 2p2z~ is a 2 pole 2 zero filter which takes raw coeffeicents as arguments/inputs;#P newex 259 178 38 196617 / 127.;#P message 259 206 41 196617 \$1 100;#P newex 259 231 30 196617 line~;#P flonum 80 177 68 9 0 0 0 3;#P newex 15 220 119 196617 2p2z~ 1. 0.5 0. 1. -1. 0.;#P inlet 15 52 15 0;#P newex 80 121 48 196617 line 0 10;#P message 80 95 41 196617 \$1 100;#P inlet 80 52 15 0;#P newex 15 268 254 196617 *~;#P outlet 15 293 15 0;#P comment 14 18 303 196617 Highpass filter using one pole-coeffiecents: 1 \, 1-h \, 0 \, 1 \, -1 \, wahwah~ bandpass filters a noise source. 0 where cutoff is h*SR;#P comment 274 153 53 196617 Amplitude;#P comment 138 73 84 196617 Cutoff frequency;#P connect 12 0 11 0;#P connect 6 0 7 0;#P connect 16 0 10 0;#P connect 13 0 12 0;#P connect 15 0 6 0;#P connect 10 0 9 2;#P connect 9 0 4 0;#P connect 7 0 16 0;#P connect 17 0 13 0;#P connect 4 0 3 0;#P connect 8 0 9 0;#P connect 5 0 15 0;#P connect 11 0 4 1;#P pop;#P newobj 305 329 122 196617 patcher highpass;#P newex 305 366 29 196617 dac~;#P newex 305 305 39 196617 r noise;#P newex 417 167 50 196617 r hp_amp;#P newex 361 123 51 196617 r hp_freq;#P slider 361 144 15 128 0 1;#P number 361 305 51 9 0 0 0 3;#P newex 361 283 35 196617 * 100;#P comment 69 146 56 196617 Lowpass cutoff frequency;#P comment 197 190 56 196617 Lowpass amplitude;#P comment 302 145 58 196617 Highpass cutoff frequency;#P comment 434 188 52 196617 Highpass amplitude;#P comment 25 45 58 196617 On lowpass;#P comment 89 45 60 196617 On highpass;#P comment 156 45 24 196617 OFF;#P connect 26 0 27 0;#P connect 25 0 22 0;#P connect 23 0 21 0;#P connect 24 0 18 0;#P connect 15 0 14 2;#P connect 21 0 27 0;#P connect 21 0 27 1;#P connect 19 0 20 0;#P connect 17 0 16 0;#P connect 20 0 21 1;#P connect 9 0 7 0;#P connect 8 0 14 1;#P connect 14 0 13 0;#P connect 14 0 13 1;#P connect 11 0 15 0;#P connect 12 0 14 0;#P connect 10 0 9 0;#P connect 7 0 8 0;#P connect 22 0 21 2;#P connect 18 0 19 0;#P pop;