max v2;#N vpatcher 56 41 563 434;#P comment 65 149 404 196617 snapshot~ reports the current sample value of a signal at its input each time it receives a bang. Here \, a metronome causes snapshot~ to send sample values every 100ms.;#P comment 94 128 268 196617 A lowpass filter smooths out abrupt changes in the signal.;#N vpatcher 268 155 556 339;#P newex 31 73 144 196617 2p2z~ 0.0001 0.9999 0 1 0 0;#P inlet 31 49 15 0;#P outlet 31 103 15 0;#P connect 1 0 2 0;#P connect 2 0 0 0;#P pop;#P newobj 11 126 81 196617 patcher lowpass;#P comment 226 179 229 196617 This expression converts the signal to dB values.;#N vpatcher 200 116 605 298;#P comment 8 73 382 196622 2. Change the cutoff frequency of the lowpass filter in order to to see a change in envelope follower response. (Use the lowpass patcher in Tutorial 13 to calculate the coeffiecients);#P comment 8 31 382 196622 1. Hook up a sound generator to the follower output in order to better observe the patch's behavior;#P pop;#P newobj 335 316 89 196617 patcher exercises;#P newex 11 177 214 196617 expr 100 + 8.6858 *log(sqrt($f1) + .00001);#P toggle 163 58 19 0;#P newex 11 104 27 196617 *~;#P newex 163 37 43 196617 r metro;#P newex 11 153 53 196617 snapshot~;#P newex 163 81 55 196617 metro 100;#P slider 11 197 15 128 0 1;#P newex 11 336 28 196617 - 96;#P comment 24 223 35 196617 ---- 0;#P comment 24 233 43 196617 ---- 10;#P comment 24 253 43 196617 ---- 30;#P comment 24 243 43 196617 ---- 20;#P comment 24 263 43 196617 ---- 40;#P comment 24 273 43 196617 ---- 50;#P comment 24 283 43 196617 ---- 60;#P comment 24 293 43 196617 ---- 70;#P comment 24 303 43 196617 ---- 80;#P comment 24 313 43 196617 ---- 90;#P number 11 357 35 9 0 0 0 3;#P newex 11 79 29 196617 +~;#P newex 11 59 29 196617 adc~;#P newex 11 38 31 196617 r adc;#P comment 77 260 273 196617 Here \, we use the slider as an indicator and not as a control;#P comment 41 98 296 196617 Multiplying a signal by itself is one way of eliminating negative waveform values (necessary for envelope following).;#P message 104 54 48 196617 \; metro 0 \; adc stop;#P message 51 54 49 196617 \; metro 1 \; adc start;#P comment 51 40 19 196617 On;#P comment 104 40 22 196617 Off;#P comment 5 13 601 196622 TUTORIAL 16 - Tracking the amplitude envelope of an incoming signal;#P connect 25 0 27 0;#P connect 23 0 24 0;#P connect 31 0 24 0;#P connect 21 0 10 0;#P connect 9 0 26 0;#P connect 26 0 31 0;#P connect 9 0 26 1;#P connect 7 0 8 0;#P connect 28 0 22 0;#P connect 24 0 28 0;#P connect 27 0 23 0;#P connect 8 0 9 0;#P connect 8 1 9 1;#P connect 22 0 21 0;#P pop;