max v2;#N vpatcher 10 42 620 471;#P comment 321 195 40 196617 Flange delay;#P newex 309 222 42 196617 sig~ 10;#P newex 292 244 27 196617 *~;#P newex 292 193 27 196617 +~;#P newex 309 171 35 196617 sig~ 2;#P comment 210 367 191 196617 Add original and delayed signals and write them into the delay line "del1";#P comment 144 283 131 196617 Delayed signal is multiplied by scaler "flange-amp" and then added to orignal signal.;#P comment 9 136 245 196617 This side of the patch controls the mix of original and processed signals as well as global output levels.;#P comment 463 41 118 196617 A very low frequency sine wave is amplitude scaled and then used to control the delay time of a vd~ (variable delay) object.;#P comment 289 112 65 196617 Flange Speed;#P newex 292 146 35 196617 osc1~;#P newex 292 126 51 196617 sig~ 0.02;#P comment 0 21 172 196622 TUTORIAL 20 - Flanger;#P newex 292 289 84 196617 *~;#P newex 292 267 45 196617 vd~ del1;#P newex 226 344 95 196617 delwrite~ del1 100;#P newex 226 322 76 196617 +~;#P newex 127 243 30 196617 line~;#P newex 127 164 48 196617 r master;#P message 127 223 35 196617 \$1 50;#P newex 127 203 39 196617 * 0.01;#P number 127 185 50 9 0 0 0 3;#P newex 58 369 29 196617 dac~;#P newex 19 320 31 196617 r dac;#P newex 58 291 27 196617 +~;#P newex 58 203 38 196617 / 128.;#P newex 58 245 30 196617 line~;#P message 58 225 35 196617 \$1 30;#P number 58 184 45 9 0 0 0 3;#P newex 58 163 65 196617 r flange-amp;#P newex 58 269 27 196617 *~;#N vpatcher 211 50 573 489;#P slider 71 24 15 128 0 1;#P number 71 166 39 9 0 0 0 3;#P slider 184 24 15 128 0 1;#P newex 184 2 40 196617 r index;#P newex 46 362 131 196617 2p2z~ 1. 0.999 0. 1. -1. 0.;#P newex 46 339 35 196617 osc1~;#P newex 71 251 69 196617 pack 0. 0;#P newex 71 187 28 196617 - 12;#P flonum 71 230 75 9 0 0 0 3;#P newex 71 209 29 196617 mtof;#P number 130 193 47 9 0 0 0 3;#P newex 71 316 123 196617 *~;#P newex 71 272 30 196617 line~;#P newex 71 294 35 196617 osc1~;#P newex 184 285 30 196617 line~;#P comment 113 340 38 196617 shaper;#P newex 184 193 39 196617 * 0.05;#P message 184 227 35 196617 \$1 50;#P number 184 167 39 9 0 0 0 3;#P newex 71 2 38 196617 r pitch;#P newex 46 383 71 196617 clip~ -0.2 0.2;#P outlet 46 408 16 0;#P newex 130 162 40 196617 r porta;#P comment 182 353 143 196617 clip~ clips a signal so that it remains within amplitude limits given by its two arguments.;#P connect 23 0 22 0;#P connect 21 0 5 0;#P connect 22 0 16 0;#P connect 6 0 9 0;#P connect 15 0 17 0;#P connect 20 0 21 0;#P connect 19 0 3 0;#P connect 18 0 19 0;#P connect 17 0 11 0;#P connect 16 0 14 0;#P connect 14 0 15 0;#P connect 13 0 17 1;#P connect 12 0 18 1;#P connect 11 0 10 0;#P connect 10 0 12 0;#P connect 9 0 12 1;#P connect 7 0 6 0;#P connect 5 0 7 0;#P connect 4 0 23 0;#P connect 3 0 2 0;#P connect 1 0 13 0;#P pop;#P newobj 154 104 105 196617 patcher sound_source;#P message 103 91 45 196617 \; dac stop;#P message 103 47 49 196617 \; dac start;#P number 366 184 52 9 0 0 0 3;#P newex 366 252 30 196617 line~;#P newex 366 204 38 196617 / 128.;#P newex 366 157 65 196617 r flange-loop;#P message 366 232 35 196617 \$1 30;#P comment 232 72 201 196617 This side of the patch creates the variable delay loop used to make a flange effect.;#P message 547 224 35 196617 set \$1;#P newex 547 378 48 196617 s master;#P slider 547 241 50 128 0 1;#P newex 547 204 48 196617 r master;#P newex 481 378 65 196617 s flange-amp;#P message 480 225 35 196617 set \$1;#P newex 480 204 65 196617 r flange-amp;#P newex 413 204 65 196617 r flange-loop;#P slider 413 241 17 128 0 1;#P message 413 224 35 196617 set \$1;#P newex 413 378 65 196617 s flange-loop;#P slider 480 243 17 128 0 1;#P comment 203 220 88 196617 Left input of vd~ takes signal input to determine delay time in ms.;#P comment 184 20 277 196617 This subpatcher creates a somewhat "dirty" sound source which works well with flanging. To hear the unprocessed sound \, set "flange-amp" to zero.;#P message 9 47 83 196617 \; dac start \; index 36 \; pitch 38 \; flange-amp 120 \; flange-loop 64 \; master 5;#N vpatcher 166 450 392 799;#P newex 23 44 142 9 2p2z~ 1. 0.999 0. 1. -1. 0.;#P inlet 24 24 15 0;#P outlet 22 91 15 0;#P connect 2 0 0 0;#P connect 1 0 2 0;#P pop;#P newobj 58 339 83 196617 patcher highpass;#P newex 58 312 79 196617 *~;#P comment 91 359 116 196617 Highpass filter filters out possible nasty noises;#P comment 438 188 125 196617 A few parameter controls;#P comment 179 166 97 196617 "master" provides an output amplitude control.;#P comment 468 117 119 196617 "flange-loop" controls the amount of delayed signal written back into the delay line (i.e. \, feedback).;#P connect 59 0 58 1;#P connect 58 0 46 0;#P connect 57 0 58 0;#P connect 57 0 59 0;#P connect 56 0 57 1;#P connect 50 0 57 0;#P connect 50 0 56 0;#P connect 39 0 40 0;#P connect 49 0 50 0;#P connect 32 0 35 0;#P connect 47 0 44 1;#P connect 46 0 30 1;#P connect 46 0 47 0;#P connect 41 0 43 0;#P connect 33 0 34 0;#P connect 44 0 45 0;#P connect 43 0 4 1;#P connect 18 0 19 0;#P connect 42 0 39 0;#P connect 40 0 41 0;#P connect 37 0 38 0;#P connect 35 0 33 0;#P connect 34 0 30 0;#P connect 31 0 32 0;#P connect 30 0 36 0;#P connect 36 0 4 0;#P connect 29 0 36 1;#P connect 29 0 44 0;#P connect 26 0 24 0;#P connect 25 0 47 1;#P connect 24 0 22 0;#P connect 23 0 26 0;#P connect 22 0 25 0;#P connect 20 0 18 0;#P connect 17 0 20 0;#P connect 15 0 9 0;#P connect 14 0 15 0;#P connect 13 0 11 0;#P connect 12 0 10 0;#P connect 11 0 12 0;#P connect 9 0 16 0;#P connect 5 0 38 0;#P connect 5 0 38 1;#P connect 4 0 5 0;#P pop;