max v2;#N vpatcher 100 56 559 368;#P newex 143 122 38 196617 / 127.;#P message 143 151 41 196617 \$1 100;#P newex 143 204 27 196617 *~;#P newex 143 178 30 196617 line~;#P newex 13 222 35 196617 osc1~;#P newex 13 195 48 196617 sig~ 440;#P inlet 13 66 16 0;#P comment 166 66 32 196617 Index;#P inlet 143 66 16 0;#P outlet 13 251 18 0;#P comment 38 66 42 196617 Carrier;#P comment 40 254 53 196617 Signal Out;#P comment 5 27 312 196617 This subpatch is the same FM synth voice as the one in example 2;#P comment 362 66 53 196617 Modulator;#P inlet 339 66 16 0;#P newex 339 186 35 196617 osc1~;#P newex 339 159 35 196617 sig~ 0;#P comment 182 123 245 196617 Scale MIDI data (0 - 127) to a value between 0 and 1;#P connect 16 0 14 0;#P connect 17 0 16 0;#P connect 15 0 13 1;#P connect 14 0 15 0;#P connect 13 0 8 0;#P connect 12 0 13 0;#P connect 11 0 12 0;#P connect 9 0 17 0;#P connect 3 0 1 0;#P connect 2 0 15 1;#P connect 1 0 2 0;#P pop;