max v2;#N vpatcher 1 40 642 487;#P newex 92 449 259 196617 delread~ rev4-ref6 13.645;#P newex 92 414 259 196617 delwrite~ rev4-ref6 13.645;#P newex 85 370 268 196617 delread~ rev4-ref5 16.363998;#P newex 85 334 268 196617 delwrite~ rev4-ref5 16.363998;#P newex 85 290 268 196617 delread~ rev4-ref4 19.391998;#P newex 85 255 268 196617 delwrite~ rev4-ref4 19.391998;#P newex 86 212 268 196617 delread~ rev4-ref3 25.796;#P newex 86 177 268 196617 delwrite~ rev4-ref3 25.796;#P newex 85 134 279 196617 delread~ rev4-ref2 43.533695;#P newex 85 99 279 196617 delwrite~ rev4-ref2 43.533695;#P newex 85 57 279 196617 delread~ rev4-ref1 75.254601;#P newex 85 22 279 196617 delwrite~ rev4-ref1 75.254601;#P newex 332 571 35 196617 +~;#P message 905 416 80 196617 \$1 50;#P newex 905 380 80 196617 / 254.;#P inlet 905 356 15 0;#P inlet 11 30 15 0;#P newex 349 482 29 196617 *~;#P newex 861 482 30 196617 *~;#P newex 525 482 29 196617 *~;#P newex 696 482 30 196617 *~;#P newex 812 625 35 196617 -~;#P newex 672 623 35 196617 -~;#P newex 482 622 35 196617 +~;#P newex 333 621 36 196617 +~;#P newex 331 531 34 196617 +~;#P newex 506 533 34 196617 +~;#P newex 836 567 35 196617 -~;#P newex 696 563 36 196617 +~;#P newex 482 571 35 196617 -~;#P inlet 27 503 15 0;#P newex 27 556 55 196617 line~;#P newex 27 522 231 196617 linedrive 127 1. 1.06 30;#P newex 905 451 80 196617 line~;#P newex 537 268 312 196617 delread~ rev4-del1 58.643497;#P newex 552 310 312 196617 delread~ rev4-del2 69.432503;#P newex 572 352 314 196617 delread~ rev4-del3 74.523392;#P newex 583 393 314 196617 delread~ rev4-del4 86.12439;#P newex 47 97 31 196617 -~;#P newex 11 97 33 196617 +~;#P newex 11 174 33 196617 +~;#P newex 47 174 31 196617 -~;#P newex 48 252 31 196617 -~;#P newex 12 252 33 196617 +~;#P newex 47 330 31 196617 -~;#P newex 11 330 33 196617 +~;#P newex 31 405 31 196617 -~;#P newex 27 611 30 196617 *~;#P outlet 26 652 15 0;#P newex 28 459 31 196617 +~;#P outlet 163 649 15 0;#P newex 162 616 30 196617 *~;#P newex 159 683 186 196617 delwrite~ rev4-del1 58.643497;#P newex 374 682 193 196617 delwrite~ rev4-del2 69.432503;#P newex 594 683 194 196617 delwrite~ rev4-del3 74.523392;#P newex 815 683 188 196617 delwrite~ rev4-del4 86.12439;#P connect 42 0 22 0;#P connect 55 0 29 0;#P connect 55 0 21 0;#P connect 54 0 55 0;#P connect 52 0 53 0;#P connect 51 0 11 1;#P connect 51 0 10 1;#P connect 50 0 51 0;#P connect 40 0 41 0;#P connect 39 0 16 0;#P connect 39 0 17 0;#P connect 39 0 44 0;#P connect 25 0 23 0;#P connect 49 0 12 1;#P connect 49 0 13 1;#P connect 47 0 15 1;#P connect 48 0 49 0;#P connect 47 0 14 1;#P connect 45 0 17 1;#P connect 45 0 16 1;#P connect 44 0 45 0;#P connect 43 0 33 0;#P connect 38 0 30 1;#P connect 35 0 27 0;#P connect 35 0 28 0;#P connect 34 0 0 0;#P connect 33 0 1 0;#P connect 32 0 2 0;#P connect 31 0 3 0;#P connect 30 0 24 0;#P connect 30 0 8 1;#P connect 30 0 43 0;#P connect 30 0 26 0;#P connect 29 0 43 1;#P connect 29 0 26 1;#P connect 28 0 32 1;#P connect 28 0 34 1;#P connect 27 0 31 1;#P connect 43 0 31 0;#P connect 27 0 33 1;#P connect 26 0 32 0;#P connect 26 0 34 0;#P connect 24 0 8 0;#P connect 29 0 4 1;#P connect 24 0 4 0;#P connect 22 0 38 1;#P connect 22 0 36 1;#P connect 22 0 35 1;#P connect 22 0 37 1;#P connect 21 0 38 0;#P connect 21 0 20 0;#P connect 20 0 36 0;#P connect 20 0 19 0;#P connect 19 0 18 0;#P connect 19 0 35 0;#P connect 23 0 24 0;#P connect 17 0 46 0;#P connect 16 0 15 0;#P connect 16 0 14 0;#P connect 53 0 6 1;#P connect 53 0 9 1;#P connect 14 0 48 0;#P connect 46 0 47 0;#P connect 18 0 37 0;#P connect 18 0 22 0;#P connect 12 0 11 0;#P connect 12 0 10 0;#P connect 11 0 52 0;#P connect 41 0 42 0;#P connect 37 0 27 1;#P connect 37 0 28 1;#P connect 36 0 29 1;#P connect 10 0 6 0;#P connect 10 0 9 0;#P connect 9 0 54 0;#P connect 13 0 50 0;#P connect 6 0 30 0;#P connect 4 0 5 0;#P connect 8 0 7 0;#P connect 15 0 12 0;#P connect 15 0 13 0;#P pop;