max v2;#N vpatcher 211 200 656 577;#P comment 151 302 212 196617 ¥compare play~ with groove~ \, wave~ \, index~;#P newex 56 330 35 196617 out~ 1;#P comment 70 237 78 196617 for observation;#P message 70 218 50 196617;#P newex 70 195 61 196617 prepend set;#P newex 44 85 144 196617 unpack 1. 1000 1. name;#P newex 33 59 71 196617 route float int;#P comment 144 274 212 196617 play~ takes playback instructions in the form of a signal as millisecond location to playback;#P comment 230 112 65 196617 buffer choice;#P newex 33 194 35 196617 zl rev;#P inlet 231 128 15 0;#P inlet 177 128 15 0;#P inlet 70 127 15 0;#P inlet 33 39 15 0;#P outlet 33 332 15 0;#P comment 177 111 26 196617 gain;#P newex 33 306 109 196617 *~ 0.5;#P comment 33 22 27 196617 rate;#P newex 33 217 27 196617 t l 0;#P newex 33 150 29 196617 !/ 1.;#P newex 33 173 43 196617 pack f f;#P newex 231 150 61 196617 prepend set;#P newex 33 246 31 196617 line~;#P newex 33 271 74 196617 play~ sample1;#P comment 69 110 45 196617 duration;#P connect 11 0 18 0;#P connect 19 0 5 0;#P connect 18 0 5 0;#P fasten 18 1 5 0 68 78 38 78;#P connect 5 0 4 0;#P connect 4 0 15 0;#P connect 15 0 6 0;#P connect 6 1 2 0;#P connect 6 0 2 0;#P fasten 3 0 1 0 236 268 38 268;#P connect 2 0 1 0;#P connect 1 0 8 0;#P connect 8 0 10 0;#P fasten 18 2 19 0 98 82 49 82;#P fasten 19 1 5 1 57 113;#P connect 12 0 5 1;#P fasten 8 0 23 0 38 326 61 326;#P connect 12 0 4 1;#P fasten 19 1 4 1 57 113 57 139;#P connect 15 0 20 0;#P connect 20 0 21 0;#P connect 19 2 8 1;#P connect 13 0 8 1;#P connect 14 0 3 0;#P fasten 19 3 3 0 215 110;#P pop;