{
	"patcher" : 	{
		"fileversion" : 1,
		"rect" : [ -1290.0, 200.0, 603.0, 419.0 ],
		"bglocked" : 0,
		"defrect" : [ -1290.0, 200.0, 603.0, 419.0 ],
		"openrect" : [ 0.0, 0.0, 0.0, 0.0 ],
		"openinpresentation" : 0,
		"default_fontsize" : 12.0,
		"default_fontface" : 0,
		"default_fontname" : "Arial",
		"gridonopen" : 0,
		"gridsize" : [ 15.0, 15.0 ],
		"gridsnaponopen" : 0,
		"toolbarvisible" : 1,
		"boxanimatetime" : 200,
		"imprint" : 0,
		"boxes" : [ 			{
				"box" : 				{
					"maxclass" : "kslider",
					"numinlets" : 2,
					"numoutlets" : 2,
					"outlettype" : [ "int", "int" ],
					"patching_rect" : [ 170.0, 206.0, 336.0, 53.0 ],
					"id" : "obj-4"
				}

			}
, 			{
				"box" : 				{
					"maxclass" : "nslider",
					"numinlets" : 2,
					"numoutlets" : 2,
					"outlettype" : [ "int", "int" ],
					"patching_rect" : [ 66.0, 163.0, 75.0, 198.0 ],
					"id" : "obj-2"
				}

			}
, 			{
				"box" : 				{
					"maxclass" : "message",
					"text" : "B4",
					"fontname" : "Arial",
					"numinlets" : 2,
					"numoutlets" : 1,
					"outlettype" : [ "" ],
					"fontsize" : 12.0,
					"patching_rect" : [ 295.0, 59.0, 32.5, 18.0 ],
					"id" : "obj-39"
				}

			}
, 			{
				"box" : 				{
					"maxclass" : "message",
					"text" : "bb4",
					"fontname" : "Arial",
					"numinlets" : 2,
					"numoutlets" : 1,
					"outlettype" : [ "" ],
					"fontsize" : 12.0,
					"patching_rect" : [ 330.0, 85.0, 32.5, 18.0 ],
					"id" : "obj-38"
				}

			}
, 			{
				"box" : 				{
					"maxclass" : "message",
					"text" : "c1, d1, e1",
					"fontname" : "Arial",
					"numinlets" : 2,
					"numoutlets" : 1,
					"outlettype" : [ "" ],
					"fontsize" : 12.0,
					"patching_rect" : [ 177.0, 63.0, 63.0, 18.0 ],
					"id" : "obj-35"
				}

			}
, 			{
				"box" : 				{
					"maxclass" : "message",
					"text" : "c1",
					"fontname" : "Arial",
					"numinlets" : 2,
					"numoutlets" : 1,
					"outlettype" : [ "" ],
					"fontsize" : 12.0,
					"patching_rect" : [ 255.0, 52.0, 32.5, 18.0 ],
					"id" : "obj-25"
				}

			}
, 			{
				"box" : 				{
					"maxclass" : "message",
					"text" : "C#4",
					"fontname" : "Arial",
					"numinlets" : 2,
					"numoutlets" : 1,
					"outlettype" : [ "" ],
					"fontsize" : 12.0,
					"patching_rect" : [ 262.0, 84.0, 33.0, 18.0 ],
					"id" : "obj-3"
				}

			}
, 			{
				"box" : 				{
					"maxclass" : "newobj",
					"text" : "pitch2midi",
					"fontname" : "Arial",
					"numinlets" : 1,
					"numoutlets" : 1,
					"outlettype" : [ "int" ],
					"fontsize" : 12.0,
					"patching_rect" : [ 177.0, 120.0, 65.0, 20.0 ],
					"id" : "obj-1"
				}

			}
 ],
		"lines" : [ 			{
				"patchline" : 				{
					"source" : [ "obj-1", 0 ],
					"destination" : [ "obj-4", 0 ],
					"hidden" : 0,
					"midpoints" : [  ]
				}

			}
, 			{
				"patchline" : 				{
					"source" : [ "obj-1", 0 ],
					"destination" : [ "obj-2", 0 ],
					"hidden" : 0,
					"midpoints" : [  ]
				}

			}
, 			{
				"patchline" : 				{
					"source" : [ "obj-38", 0 ],
					"destination" : [ "obj-1", 0 ],
					"hidden" : 0,
					"midpoints" : [  ]
				}

			}
, 			{
				"patchline" : 				{
					"source" : [ "obj-39", 0 ],
					"destination" : [ "obj-1", 0 ],
					"hidden" : 0,
					"midpoints" : [  ]
				}

			}
, 			{
				"patchline" : 				{
					"source" : [ "obj-3", 0 ],
					"destination" : [ "obj-1", 0 ],
					"hidden" : 0,
					"midpoints" : [  ]
				}

			}
, 			{
				"patchline" : 				{
					"source" : [ "obj-25", 0 ],
					"destination" : [ "obj-1", 0 ],
					"hidden" : 0,
					"midpoints" : [  ]
				}

			}
, 			{
				"patchline" : 				{
					"source" : [ "obj-35", 0 ],
					"destination" : [ "obj-1", 0 ],
					"hidden" : 0,
					"midpoints" : [  ]
				}

			}
 ]
	}

}
