{
	"patcher" : 	{
		"fileversion" : 1,
		"rect" : [ 25.0, 69.0, 659.0, 291.0 ],
		"bglocked" : 0,
		"defrect" : [ 25.0, 69.0, 659.0, 291.0 ],
		"openrect" : [ 0.0, 0.0, 0.0, 0.0 ],
		"openinpresentation" : 0,
		"default_fontsize" : 10.0,
		"default_fontface" : 0,
		"default_fontname" : "Arial",
		"gridonopen" : 0,
		"gridsize" : [ 4.0, 4.0 ],
		"gridsnaponopen" : 0,
		"toolbarvisible" : 1,
		"boxanimatetime" : 200,
		"imprint" : 0,
		"enablehscroll" : 1,
		"enablevscroll" : 1,
		"devicewidth" : 0.0,
		"boxes" : [ 			{
				"box" : 				{
					"maxclass" : "button",
					"outlettype" : [ "bang" ],
					"presentation_rect" : [ 291.0, 151.0, 0.0, 0.0 ],
					"numinlets" : 1,
					"patching_rect" : [ 292.0, 152.0, 20.0, 20.0 ],
					"id" : "obj-4",
					"numoutlets" : 1
				}

			}
, 			{
				"box" : 				{
					"maxclass" : "button",
					"outlettype" : [ "bang" ],
					"presentation_rect" : [ 291.0, 111.0, 0.0, 0.0 ],
					"numinlets" : 1,
					"patching_rect" : [ 292.0, 112.0, 20.0, 20.0 ],
					"id" : "obj-9",
					"numoutlets" : 1
				}

			}
, 			{
				"box" : 				{
					"maxclass" : "message",
					"text" : "1",
					"outlettype" : [ "" ],
					"fontsize" : 10.0,
					"presentation_rect" : [ 295.0, 59.0, 0.0, 0.0 ],
					"numinlets" : 2,
					"patching_rect" : [ 296.0, 60.0, 32.5, 16.0 ],
					"id" : "obj-11",
					"fontname" : "Arial",
					"numoutlets" : 1
				}

			}
, 			{
				"box" : 				{
					"maxclass" : "message",
					"text" : "10",
					"outlettype" : [ "" ],
					"fontsize" : 10.0,
					"presentation_rect" : [ 423.0, 59.0, 0.0, 0.0 ],
					"numinlets" : 2,
					"patching_rect" : [ 424.0, 60.0, 32.5, 16.0 ],
					"id" : "obj-14",
					"fontname" : "Arial",
					"numoutlets" : 1
				}

			}
, 			{
				"box" : 				{
					"maxclass" : "message",
					"text" : "5",
					"outlettype" : [ "" ],
					"fontsize" : 10.0,
					"presentation_rect" : [ 379.0, 59.0, 0.0, 0.0 ],
					"numinlets" : 2,
					"patching_rect" : [ 380.0, 60.0, 32.5, 16.0 ],
					"id" : "obj-15",
					"fontname" : "Arial",
					"numoutlets" : 1
				}

			}
, 			{
				"box" : 				{
					"maxclass" : "message",
					"text" : "2",
					"outlettype" : [ "" ],
					"fontsize" : 10.0,
					"presentation_rect" : [ 335.0, 59.0, 0.0, 0.0 ],
					"numinlets" : 2,
					"patching_rect" : [ 336.0, 60.0, 32.5, 16.0 ],
					"id" : "obj-16",
					"fontname" : "Arial",
					"numoutlets" : 1
				}

			}
, 			{
				"box" : 				{
					"maxclass" : "message",
					"text" : "1 2 3 4 5",
					"outlettype" : [ "" ],
					"fontsize" : 10.0,
					"presentation_rect" : [ 335.0, 163.0, 0.0, 0.0 ],
					"numinlets" : 2,
					"patching_rect" : [ 336.0, 164.0, 192.0, 16.0 ],
					"id" : "obj-17",
					"fontname" : "Arial",
					"numoutlets" : 1
				}

			}
, 			{
				"box" : 				{
					"maxclass" : "newobj",
					"text" : "list-inc 1",
					"outlettype" : [ "" ],
					"fontsize" : 10.0,
					"numinlets" : 1,
					"patching_rect" : [ 344.0, 128.0, 47.0, 18.0 ],
					"id" : "obj-18",
					"fontname" : "Arial",
					"numoutlets" : 1
				}

			}
, 			{
				"box" : 				{
					"maxclass" : "button",
					"outlettype" : [ "bang" ],
					"numinlets" : 1,
					"patching_rect" : [ 36.0, 152.0, 20.0, 20.0 ],
					"id" : "obj-13",
					"numoutlets" : 1
				}

			}
, 			{
				"box" : 				{
					"maxclass" : "button",
					"outlettype" : [ "bang" ],
					"numinlets" : 1,
					"patching_rect" : [ 36.0, 112.0, 20.0, 20.0 ],
					"id" : "obj-12",
					"numoutlets" : 1
				}

			}
, 			{
				"box" : 				{
					"maxclass" : "comment",
					"text" : "incrementing list.",
					"fontsize" : 10.0,
					"numinlets" : 1,
					"patching_rect" : [ 92.0, 208.0, 150.0, 18.0 ],
					"id" : "obj-10",
					"fontname" : "Arial",
					"numoutlets" : 0,
					"frgb" : [ 0.0, 0.0, 0.0, 1.0 ]
				}

			}
, 			{
				"box" : 				{
					"maxclass" : "message",
					"text" : "1",
					"outlettype" : [ "" ],
					"fontsize" : 10.0,
					"numinlets" : 2,
					"patching_rect" : [ 40.0, 60.0, 32.5, 16.0 ],
					"id" : "obj-8",
					"fontname" : "Arial",
					"numoutlets" : 1
				}

			}
, 			{
				"box" : 				{
					"maxclass" : "message",
					"text" : "10",
					"outlettype" : [ "" ],
					"fontsize" : 10.0,
					"numinlets" : 2,
					"patching_rect" : [ 168.0, 60.0, 32.5, 16.0 ],
					"id" : "obj-7",
					"fontname" : "Arial",
					"numoutlets" : 1
				}

			}
, 			{
				"box" : 				{
					"maxclass" : "message",
					"text" : "5",
					"outlettype" : [ "" ],
					"fontsize" : 10.0,
					"numinlets" : 2,
					"patching_rect" : [ 124.0, 60.0, 32.5, 16.0 ],
					"id" : "obj-6",
					"fontname" : "Arial",
					"numoutlets" : 1
				}

			}
, 			{
				"box" : 				{
					"maxclass" : "message",
					"text" : "2",
					"outlettype" : [ "" ],
					"fontsize" : 10.0,
					"numinlets" : 2,
					"patching_rect" : [ 80.0, 60.0, 32.5, 16.0 ],
					"id" : "obj-5",
					"fontname" : "Arial",
					"numoutlets" : 1
				}

			}
, 			{
				"box" : 				{
					"maxclass" : "message",
					"text" : "0 1 2 3 4 5 6 7 8 9",
					"outlettype" : [ "" ],
					"fontsize" : 10.0,
					"numinlets" : 2,
					"patching_rect" : [ 80.0, 164.0, 192.0, 16.0 ],
					"id" : "obj-3",
					"fontname" : "Arial",
					"numoutlets" : 1
				}

			}
, 			{
				"box" : 				{
					"maxclass" : "newobj",
					"text" : "list-inc 0",
					"outlettype" : [ "" ],
					"fontsize" : 10.0,
					"numinlets" : 1,
					"patching_rect" : [ 88.0, 128.0, 47.0, 18.0 ],
					"id" : "obj-1",
					"fontname" : "Arial",
					"numoutlets" : 1
				}

			}
 ],
		"lines" : [ 			{
				"patchline" : 				{
					"source" : [ "obj-18", 0 ],
					"destination" : [ "obj-4", 0 ],
					"hidden" : 0,
					"midpoints" : [  ]
				}

			}
, 			{
				"patchline" : 				{
					"source" : [ "obj-9", 0 ],
					"destination" : [ "obj-18", 0 ],
					"hidden" : 0,
					"midpoints" : [  ]
				}

			}
, 			{
				"patchline" : 				{
					"source" : [ "obj-11", 0 ],
					"destination" : [ "obj-18", 0 ],
					"hidden" : 0,
					"midpoints" : [  ]
				}

			}
, 			{
				"patchline" : 				{
					"source" : [ "obj-14", 0 ],
					"destination" : [ "obj-18", 0 ],
					"hidden" : 0,
					"midpoints" : [  ]
				}

			}
, 			{
				"patchline" : 				{
					"source" : [ "obj-15", 0 ],
					"destination" : [ "obj-18", 0 ],
					"hidden" : 0,
					"midpoints" : [  ]
				}

			}
, 			{
				"patchline" : 				{
					"source" : [ "obj-16", 0 ],
					"destination" : [ "obj-18", 0 ],
					"hidden" : 0,
					"midpoints" : [  ]
				}

			}
, 			{
				"patchline" : 				{
					"source" : [ "obj-18", 0 ],
					"destination" : [ "obj-17", 1 ],
					"hidden" : 0,
					"midpoints" : [  ]
				}

			}
, 			{
				"patchline" : 				{
					"source" : [ "obj-1", 0 ],
					"destination" : [ "obj-13", 0 ],
					"hidden" : 0,
					"midpoints" : [  ]
				}

			}
, 			{
				"patchline" : 				{
					"source" : [ "obj-12", 0 ],
					"destination" : [ "obj-1", 0 ],
					"hidden" : 0,
					"midpoints" : [  ]
				}

			}
, 			{
				"patchline" : 				{
					"source" : [ "obj-8", 0 ],
					"destination" : [ "obj-1", 0 ],
					"hidden" : 0,
					"midpoints" : [  ]
				}

			}
, 			{
				"patchline" : 				{
					"source" : [ "obj-7", 0 ],
					"destination" : [ "obj-1", 0 ],
					"hidden" : 0,
					"midpoints" : [  ]
				}

			}
, 			{
				"patchline" : 				{
					"source" : [ "obj-6", 0 ],
					"destination" : [ "obj-1", 0 ],
					"hidden" : 0,
					"midpoints" : [  ]
				}

			}
, 			{
				"patchline" : 				{
					"source" : [ "obj-5", 0 ],
					"destination" : [ "obj-1", 0 ],
					"hidden" : 0,
					"midpoints" : [  ]
				}

			}
, 			{
				"patchline" : 				{
					"source" : [ "obj-1", 0 ],
					"destination" : [ "obj-3", 1 ],
					"hidden" : 0,
					"midpoints" : [  ]
				}

			}
 ]
	}

}
